<?xml version="1.0" encoding="UTF-8" standalone="no"?>
<!-- Generator: Adobe Illustrator 13.0.0, SVG Export Plug-In  -->

<svg
   xmlns:dc="http://purl.org/dc/elements/1.1/"
   xmlns:cc="http://creativecommons.org/ns#"
   xmlns:rdf="http://www.w3.org/1999/02/22-rdf-syntax-ns#"
   xmlns:svg="http://www.w3.org/2000/svg"
   xmlns="http://www.w3.org/2000/svg"
   xmlns:sodipodi="http://sodipodi.sourceforge.net/DTD/sodipodi-0.dtd"
   xmlns:inkscape="http://www.inkscape.org/namespaces/inkscape"
   version="1.1"
   x="0px"
   y="0px"
   width="576.53827"
   height="507.94376"
   viewBox="-0.781 -0.08 576.53826 507.94375"
   enable-background="new -0.781 -0.08 576 506"
   xml:space="preserve"
   id="svg2"
   inkscape:version="0.91 r13725"
   sodipodi:docname="France_road_sign_A15c.svg"><metadata
     id="metadata18"><rdf:RDF><cc:Work
         rdf:about=""><dc:format>image/svg+xml</dc:format><dc:type
           rdf:resource="http://purl.org/dc/dcmitype/StillImage" /></cc:Work></rdf:RDF></metadata><sodipodi:namedview
     pagecolor="#ffffff"
     bordercolor="#666666"
     borderopacity="1"
     objecttolerance="10"
     gridtolerance="10"
     guidetolerance="10"
     inkscape:pageopacity="0"
     inkscape:pageshadow="2"
     inkscape:window-width="1440"
     inkscape:window-height="788"
     id="namedview16"
     showgrid="false"
     fit-margin-top="0.3"
     fit-margin-left="0.3"
     fit-margin-right="0.3"
     fit-margin-bottom="0.3"
     inkscape:zoom="0.76550132"
     inkscape:cx="352.47865"
     inkscape:cy="47.585467"
     inkscape:window-x="0"
     inkscape:window-y="1"
     inkscape:window-maximized="1"
     inkscape:current-layer="svg2"
     showguides="true"
     inkscape:guide-bbox="true" /><defs
     id="defs4" /><path
     inkscape:connector-curvature="0"
     d="M 4.6642489,460.12075 260.66926,16.70776 c 5.531,-9.58 15.753,-15.482 26.815,-15.482 11.063,0 21.284,5.902 26.815,15.482 l 256.00498,443.41299 c 5.531,9.58 5.531,21.384 0,30.964 -5.53,9.58 -15.753,15.482 -26.815,15.482 H 31.479259 c -11.062,0 -21.28401,-5.902 -26.8150101,-15.482 -5.53099996,-9.58 -5.53099996,-21.384 0,-30.964 z"
     id="path6"
     style="fill:#ffffff;stroke:#000000;stroke-width:2;stroke-linecap:round;stroke-linejoin:round;stroke-miterlimit:4;stroke-opacity:1;stroke-dasharray:none" /><path
     inkscape:connector-curvature="0"
     d="M 31.389259,494.18175 H 543.58024 c 6.618,0 12.734,-3.531 16.044,-9.264 3.31,-5.731 3.31,-12.794 0,-18.525 L 303.52826,22.82276 c -3.31,-5.732 -9.425,-9.263 -16.044,-9.263 -6.619,0 -12.734,3.531 -16.043,9.263 L 15.345259,466.39275 c -3.31,5.731 -3.31,12.794 0,18.525 3.309,5.733 9.425,9.264 16.044,9.264 z"
     id="path8"
     style="fill:#f91a0e;stroke:none" /><polygon
     transform="translate(0.42724894,1.13776)"
     points="510.884,455.888 63.23,455.888 287.058,68.208 "
     id="polygon10"
     style="fill:#ffffff;stroke:none" /><polygon
     transform="translate(0.42724894,1.13776)"
     points="276.373,289.586 278.55,302.305 263.309,299.125 "
     id="polygon14"
     style="fill:#ffffff;stroke:none" /><path
     sodipodi:nodetypes="ccccccccsssscccssssscssccsssssssssssssccssssssscscsccccscsssscccssssssssscsssscssssccssssssssccsccccssssccccccccssssssssssccccssccscscc"
     inkscape:connector-curvature="0"
     id="path4200"
     d="m 276.28223,446.45827 -30.02031,-67.2992 c -4.46564,-10.23092 -5.13314,-11.56509 -5.83396,-11.66044 l -31.23442,18.2746 0,35.7214 -13.749,7.35873 0,-54.72967 37.23369,-24.3037 c -0.0603,-0.49523 -2.07309,-5.69882 -2.69402,-6.96476 -0.15661,-0.3193 -0.74384,-2.37858 -1.30495,-4.57617 -0.93495,-3.66174 -1.0189,-4.54627 -1.00462,-10.5853 0.009,-3.62432 0.20755,-7.59319 0.44219,-8.81969 0.48101,-2.51423 0.53575,-2.33591 -2.46235,-8.0206 l -11.67265,-21.30901 -28.00061,14.41155 c -1.83007,1.14841 -2.26986,1.08809 -3.46955,-0.47587 -0.5623,-0.73303 -1.2717,-1.60015 -1.57645,-1.92693 -1.10977,-1.19001 -2.09993,-2.81147 -2.53389,-4.14945 -0.44183,-1.36221 -0.43038,-1.38883 2.44068,-5.67445 5.56861,-8.31225 6.96853,-12.10026 6.58118,-17.80783 l -0.20195,-2.9756 2.80847,-3.36637 c 1.54468,-1.85151 3.79694,-4.46945 5.00505,-5.81766 l 2.19656,-2.45126 0.126,-16.30307 c 0.18983,-0.29041 0.81521,-0.43719 1.55981,-0.36609 1.07036,0.1022 1.44627,0.43126 2.70731,2.36987 3.06066,4.70518 4.4078,6.81474 4.83868,7.57715 0.43068,0.76207 0.66876,0.78837 7.13881,0.7888 6.25876,3.6e-4 6.9058,0.0657 9.96714,1.00526 4.59949,1.4117 10.62699,4.41182 13.17524,6.5578 0.21515,0.1812 1.28146,0.98021 2.36957,1.7756 1.08811,0.79539 2.74839,2.1752 3.68952,3.06625 1.84678,1.74853 7.0248,7.35051 8.00712,8.66269 0.33144,0.44273 1.09683,1.4024 1.70089,2.1326 0.60406,0.73018 1.26302,1.59678 1.46437,1.92576 0.20135,0.32897 1.02506,1.53741 1.83047,2.68541 2.17466,3.09968 2.64252,3.85267 3.68388,5.92889 0.52154,1.03982 1.25262,2.16603 1.62461,2.50268 l 20.35317,-11.95502 c 0.12248,-0.19817 -0.29626,-1.33398 -0.93052,-2.52399 -1.71434,-3.21643 -2.33794,-5.63375 -2.25375,-8.73647 0.0852,-3.13886 0.87417,-5.19236 2.82447,-7.35109 1.15202,-1.27517 1.24034,-1.51442 0.83783,-2.26978 -1.05352,-1.97707 -2.36759,-3.22906 -3.62496,-3.45373 -2.32527,-0.41547 -5.09025,-1.96848 -6.49348,-3.64719 -1.95466,-2.3384 -2.57722,-4.24118 -2.80333,-8.56804 -0.10805,-2.06801 -0.26866,-3.8322 -0.35689,-3.92044 -0.0882,-0.0882 -2.4399,-0.44068 -5.22593,-0.78323 -3.83024,-0.47093 -5.09049,-0.75478 -5.16802,-1.16398 -0.0795,-0.41982 1.02793,-0.76162 4.93878,-1.52426 4.51356,-0.88017 5.11796,-1.08778 5.7735,-1.98319 3.42932,-4.89166 8.36588,-7.27134 12.63021,-7.28146 3.47117,-0.003 4.03927,0.0952 5.85749,1.00869 3.3662,1.61816 6.49006,4.62275 7.61532,8.14077 1.45745,4.99529 1.50942,7.02824 0.19249,7.52894 -0.47156,0.17929 -0.82283,0.45316 -0.78059,0.60859 0.40531,1.4914 -1.95145,5.94387 -4.15661,7.85281 -1.40731,1.21827 -1.26022,2.12547 0.69205,4.26842 1.33026,1.46017 1.46472,1.51638 3.75921,1.57142 2.47127,0.0593 4.81394,0.74261 5.99304,1.7481 0.37658,0.32114 1.60229,1.98418 2.72381,3.69567 l 23.68844,37.0225 c 0.14664,0.47748 0.41009,1.04843 0.58542,1.26875 0.70521,0.88617 0.58969,4.79994 -0.26791,9.07666 -1.32145,6.5899 -1.45318,6.3109 2.14759,4.54831 4.19736,-2.05462 6.12621,-2.74627 11.62346,-4.16797 3.24143,-0.83829 11.36998,-1.0584 14.82679,-0.40149 5.40757,1.02763 9.73159,2.85008 13.46269,5.67413 2.89309,2.18978 3.44996,2.74336 5.35845,5.32679 0.83607,1.13174 1.67722,2.05772 1.86922,2.05772 0.19201,0 1.84457,-0.49685 3.67235,-1.10411 1.8278,-0.60725 5.16628,-1.44042 7.41885,-1.85148 2.25257,-0.41106 4.50743,-0.86361 5.01081,-1.00568 0.50338,-0.14206 3.71585,-0.2382 7.13882,-0.21362 6.82011,0.0489 9.66739,0.52372 12.91092,2.15286 2.35961,1.18516 5.95008,4.63138 7.66708,7.35903 1.33723,2.12437 2.315,3.98948 2.7254,5.1987 0.25428,0.74928 0.5893,1.53983 0.74447,1.75678 0.15517,0.21694 0.61591,1.53488 1.02385,2.92874 0.40794,1.39387 0.89839,3.02853 1.08988,3.63258 1.06134,3.348 2.83627,15.26606 3.1203,20.95181 0.0983,1.96705 0.27593,4.93035 0.39482,6.58512 l 0.21615,2.98154 -20.03989,0 c -0.22465,-0.36433 -0.48439,-6.90236 -0.70864,-17.83713 -0.25624,-12.4952 -0.71485,-14.60341 -3.96249,-18.21558 -3.56966,-3.9703 -9.626,-5.35238 -17.41714,-3.97467 -3.96727,0.70154 -5.88634,1.22362 -5.88634,1.60139 0,0.16573 0.49424,1.39133 1.09828,2.72354 0.60406,1.33221 1.09829,2.80474 1.09829,3.27226 0,0.46753 0.175,1.02505 0.38888,1.23893 0.76436,0.76437 0.86623,8.21899 0.16799,12.29264 l -0.64909,3.78687 21.34354,33.85744 c 0.35049,0.51692 1.05462,1.75249 1.56474,2.7457 0.61829,1.20385 0.82476,1.6247 0.96215,5.5392 l 1.22143,48.76828 -13.63932,0 -1.41715,-47.27205 c -0.05,-1.78173 -0.23036,-2.28787 -1.2155,-3.40987 -1.36431,-1.55389 -2.94915,-2.39687 -9.30646,-4.95026 -7.05356,-2.83302 -10.17056,-4.55175 -16.99369,-9.3704 -1.64548,-1.16208 -6.12173,-5.47748 -10.91093,-10.51888 -2.07467,-2.18391 -3.84029,-3.90256 -3.92361,-3.81923 -0.0833,0.0833 0.0219,0.80208 0.23385,1.59725 l 10.00434,34.62546 0.61025,2.06175 -1.67967,3.2466 -20.17025,37.80963 -16.5315,-0.27706 20.69942,-37.76387 c 4.06144,-7.118 4.05265,-7.25311 -0.84715,-12.99632 -2.63186,-3.0849 -10.84768,-14.34923 -12.26131,-16.81092 -0.35616,-0.6202 -1.44964,-2.50616 -2.42997,-4.191 -1.85867,-3.19443 -3.71842,-6.68612 -4.34507,-8.15789 -0.42786,-1.00492 -1.65852,-1.07916 -5.85749,-0.35331 -11.34234,1.96065 -20.16035,2.51201 -30.01221,1.87656 -6.37461,-0.41118 -15.10615,-1.50906 -17.39446,-2.18716 -2.44902,-0.72572 -4.34204,-0.48878 -5.52196,0.69115 -1.57593,1.57593 -1.41363,2.73436 0.95893,6.84393 3.48302,6.03305 4.0903,8.73703 4.52861,20.16379 0.32222,8.40092 0.43076,9.00219 2.43205,13.47375 l 16.63681,39.68835 z m 18.28195,-147.44989 c 0.56547,-0.62483 0.5083,-1.72505 -0.11689,-2.24951 -0.12001,-0.10068 -0.53035,-0.67727 -0.91187,-1.28132 -1.0852,-1.71822 -5.70368,-7.87101 -5.90821,-7.87101 l -19.36787,13.46329 c 0.14309,0.34722 0.34998,0.96078 0.45978,1.3635 0.10978,0.4027 0.54413,1.16905 0.96521,1.70301 0.42109,0.53394 1.12179,1.44003 1.55712,2.01351 2.19687,2.89399 3.74579,4.34685 4.43231,4.71737 z"
     style="fill:#000000;stroke-width:2.16100001;stroke-miterlimit:4;stroke-dasharray:none" /></svg>