<?xml version="1.0" encoding="UTF-8" standalone="no"?>
<!-- Generator: Adobe Illustrator 13.0.0, SVG Export Plug-In  -->

<svg
   version="1.1"
   x="0px"
   y="0px"
   width="576.53827"
   height="507.94376"
   viewBox="-0.781 -0.08 576.53826 507.94375"
   enable-background="new -0.781 -0.08 576 506"
   xml:space="preserve"
   id="svg2"
   inkscape:version="1.1.2 (b8e25be833, 2022-02-05)"
   sodipodi:docname="France_road_sign_A13b.svg"
   xmlns:inkscape="http://www.inkscape.org/namespaces/inkscape"
   xmlns:sodipodi="http://sodipodi.sourceforge.net/DTD/sodipodi-0.dtd"
   xmlns="http://www.w3.org/2000/svg"
   xmlns:svg="http://www.w3.org/2000/svg"
   xmlns:rdf="http://www.w3.org/1999/02/22-rdf-syntax-ns#"
   xmlns:cc="http://creativecommons.org/ns#"
   xmlns:dc="http://purl.org/dc/elements/1.1/"><metadata
   id="metadata18"><rdf:RDF><cc:Work
       rdf:about=""><dc:format>image/svg+xml</dc:format><dc:type
         rdf:resource="http://purl.org/dc/dcmitype/StillImage" /></cc:Work></rdf:RDF></metadata><sodipodi:namedview
   pagecolor="#ffffff"
   bordercolor="#666666"
   borderopacity="1"
   objecttolerance="10"
   gridtolerance="10"
   guidetolerance="10"
   inkscape:pageopacity="0"
   inkscape:pageshadow="2"
   inkscape:window-width="1920"
   inkscape:window-height="1001"
   id="namedview16"
   showgrid="false"
   fit-margin-top="0.3"
   fit-margin-left="0.3"
   fit-margin-right="0.3"
   fit-margin-bottom="0.3"
   inkscape:zoom="1.5336344"
   inkscape:cx="288.5303"
   inkscape:cy="253.97187"
   inkscape:window-x="-9"
   inkscape:window-y="-9"
   inkscape:window-maximized="1"
   inkscape:current-layer="svg2"
   showguides="true"
   inkscape:guide-bbox="true"
   inkscape:pagecheckerboard="0"
   inkscape:object-paths="false"
   inkscape:snap-intersection-paths="false"
   inkscape:snap-smooth-nodes="false"
   inkscape:snap-bbox="false"
   inkscape:snap-bbox-edge-midpoints="false"
   inkscape:bbox-nodes="false"
   inkscape:snap-bbox-midpoints="false" />
<defs
   id="defs4">
</defs>





<path
   inkscape:connector-curvature="0"
   d="M 4.6642489,460.12075 260.66925,16.70776 c 5.532,-9.58 15.754,-15.482 26.816,-15.482 11.063,0 21.284,5.902 26.815,15.482 l 256.00499,443.41299 c 5.531,9.58 5.531,21.384 0,30.964 -5.53,9.58 -15.753,15.482 -26.815,15.482 H 31.479249 c -11.062,0 -21.284,-5.902 -26.8150001,-15.482 -5.53099996,-9.58 -5.53099996,-21.384 0,-30.964 z"
   id="path6"
   style="fill:#ffffff;stroke:#000000;stroke-width:2;stroke-linecap:round;stroke-linejoin:round;stroke-miterlimit:4;stroke-opacity:1;stroke-dasharray:none" /><path
   inkscape:connector-curvature="0"
   d="M 31.390249,494.18175 H 543.58124 c 6.618,0 12.734,-3.531 16.044,-9.264 3.31,-5.731 3.31,-12.794 0,-18.525 L 303.52925,22.82176 c -3.31,-5.732 -9.425,-9.263 -16.044,-9.263 -6.619,0 -12.734,3.531 -16.043,9.263 L 15.346249,466.39275 c -3.31,5.731 -3.31,12.794 0,18.525 3.309,5.732 9.425,9.264 16.044,9.264 z"
   id="path8"
   style="fill:#f91a0e;stroke:none" /><polygon
   transform="translate(0.01624894,0.72576)"
   points="511.296,456.299 63.642,456.299 287.469,68.62 "
   id="polygon10"
   style="fill:#ffffff;stroke:none" /><path
   id="path1146"
   style="fill:#000000;fill-opacity:1;fill-rule:nonzero;stroke:none;stroke-width:12.586"
   d="m 312.94713,193.51687 c -5.73884,0.006 -12.68331,3.98178 -14.82296,9.77141 l -16.77723,46.36785 -51.36428,30.62321 c -5.23582,3.32271 -4.84644,8.95414 -2.0649,11.04348 l 9.47643,7.3008 -11.4676,38.42186 c -8.53332,-4.31707 -14.69959,-5.7347 -23.6356,-5.69694 -17.48199,0.0378 -50.53728,13.40194 -50.42401,49.64968 0.0755,25.76356 18.27821,52.87781 51.25365,52.8023 35.71913,-0.13876 50.87408,-31.16268 50.81112,-52.19392 -0.0661,-19.4202 -11.93353,-33.97565 -20.63053,-40.39452 l 3.11579,-9.43952 54.86719,62.33404 0.0189,5.25441 -0.0755,9.82672 c 0,6.21744 5.07063,11.28315 11.33847,11.28315 6.24273,0 11.28324,-5.06571 11.28324,-11.28315 v -0.77404 l 0.0189,-15.21008 7.983,-0.81085 c 6.12945,26.39289 27.31607,42.79338 51.73298,42.44091 17.88477,-0.22655 37.15281,-11.00364 45.40927,-30.27281 1.00682,-2.91992 2.82081,-9.32888 2.82081,-9.32888 0.89392,-4.01491 1.29048,-8.02435 1.29048,-12.55532 -0.085,-31.27623 -27.33741,-50.35198 -50.05521,-50.27647 -11.28966,0.0283 -19.12474,2.58351 -24.37312,5.36505 l -13.84588,-21.66294 15.3024,-22.87978 c 10.5345,-16.05973 4.20351,-29.8672 4.20351,-29.8672 L 330.29508,207.6585 c -4.40505,-10.33316 -11.61004,-14.14682 -17.34879,-14.14087 z m -10.17693,53.63194 11.67036,27.28605 -38.86428,12.94252 c -6.97269,2.1019 -10.24839,7.89956 -8.77583,13.03465 l 1.733,6.25 -24.53896,0.0755 2.96825,-11.52282 -9.7529,-8.40712 6.17618,-3.92693 c 4.20379,4.69456 8.66547,4.42506 11.79939,2.83922 L 292.88816,263.891 Z m 14.98892,51.64076 -4.95943,7.74342 -19.94834,0.0566 z m -9.40261,14.9521 -10.19543,15.19167 -4.64604,-15.15486 z m -37.94251,0.0944 11.30165,40.21017 c 1.53552,4.24146 5.22316,6.97156 9.43951,7.37462 l -0.0566,19.41369 -51.69607,-58.53604 2.74699,-8.3518 z m 58.83112,10.02949 11.92843,18.63936 c -7.60202,5.67636 -19.76833,18.32796 -20.09588,42.3672 l -7.19027,0.73722 -0.18407,-39.12236 z M 202.3094,340.38471 c 9.31368,0 13.94754,1.90122 21.14668,5.47568 l -5.5678,18.52873 c -3.39823,11.71765 -10.56414,12.83189 -10.56414,12.83189 -1.28378,-1.01947 -2.8597,-1.58555 -4.60913,-1.58555 -4.09042,0 -7.39303,3.3026 -7.39303,7.39302 0,4.09043 3.30261,7.39303 7.39303,7.39303 3.63733,0 6.72688,-2.45106 7.35622,-5.89969 11.0127,-4.10298 15.3023,-17.80963 15.3023,-17.80963 l 5.08847,-15.50516 c 1.72431,1.45991 14.34542,12.30563 14.2699,31.08404 -0.12554,26.29217 -22.32615,42.52285 -42.27506,42.69899 -19.99913,0.18879 -41.45618,-16.03547 -41.51905,-43.74989 -0.101,-27.43756 26.64596,-40.80505 41.37161,-40.85546 z m 170.22468,0.79292 c 22.62973,-0.30206 41.55426,19.98412 41.62978,41.79563 0.0849,21.283 -15.21254,42.72797 -40.28389,42.79131 -19.49572,0.0755 -31.2397,-10.17797 -37.44468,-20.8887 -0.93168,-0.60413 -3.90852,-8.94168 -3.90852,-8.94168 -0.52861,-1.68656 -0.94018,-3.04349 -1.21676,-4.55381 l 32.06113,-3.37387 c 1.53553,3.62468 4.92233,5.71525 9.12613,5.71525 5.60075,0 10.15852,-4.5389 10.15852,-10.14012 0,-5.60075 -4.55777,-10.15852 -10.15852,-10.15852 -0.46537,0 -0.54277,-0.0661 -0.99559,0 l -17.736,-27.71008 c 1.30898,-0.67965 6.81174,-4.35927 18.7684,-4.53541 z m -26.29047,9.23666 17.66219,27.71018 c -0.5541,0.80519 -0.82313,1.52155 -1.08772,2.41519 l -32.3193,3.37387 c -0.0755,-14.32286 5.39912,-25.06654 15.74483,-33.49924 z"
   inkscape:label="path12" /><ellipse
   style="fill:#000000;stroke-width:14.6275;stroke-linecap:round;stroke-linejoin:round;fill-opacity:1"
   id="path1668"
   cx="295.44086"
   cy="173.35397"
   rx="19.4265"
   ry="19.426525"
   inkscape:label="path14" /></svg>
