<?xml version="1.0" encoding="UTF-8" standalone="no"?>
<!-- Generator: Adobe Illustrator 13.0.0, SVG Export Plug-In  -->

<svg
   version="1.1"
   x="0px"
   y="0px"
   width="576.53827"
   height="507.94376"
   viewBox="-0.781 -0.08 576.53826 507.94375"
   enable-background="new -0.781 -0.08 576 506"
   xml:space="preserve"
   id="svg2"
   inkscape:version="1.1.2 (b8e25be833, 2022-02-05)"
   sodipodi:docname="France_road_sign_A2b.svg"
   xmlns:inkscape="http://www.inkscape.org/namespaces/inkscape"
   xmlns:sodipodi="http://sodipodi.sourceforge.net/DTD/sodipodi-0.dtd"
   xmlns="http://www.w3.org/2000/svg"
   xmlns:svg="http://www.w3.org/2000/svg"
   xmlns:rdf="http://www.w3.org/1999/02/22-rdf-syntax-ns#"
   xmlns:cc="http://creativecommons.org/ns#"
   xmlns:dc="http://purl.org/dc/elements/1.1/"><metadata
   id="metadata18"><rdf:RDF><cc:Work
       rdf:about=""><dc:format>image/svg+xml</dc:format><dc:type
         rdf:resource="http://purl.org/dc/dcmitype/StillImage" /></cc:Work></rdf:RDF></metadata><sodipodi:namedview
   pagecolor="#ffffff"
   bordercolor="#666666"
   borderopacity="1"
   objecttolerance="10"
   gridtolerance="10"
   guidetolerance="10"
   inkscape:pageopacity="0"
   inkscape:pageshadow="2"
   inkscape:window-width="1366"
   inkscape:window-height="706"
   id="namedview16"
   showgrid="false"
   fit-margin-top="0.3"
   fit-margin-left="0.3"
   fit-margin-right="0.3"
   fit-margin-bottom="0.3"
   inkscape:zoom="0.45657509"
   inkscape:cx="298.96506"
   inkscape:cy="176.31273"
   inkscape:window-x="-8"
   inkscape:window-y="-8"
   inkscape:window-maximized="1"
   inkscape:current-layer="svg2"
   showguides="true"
   inkscape:guide-bbox="true"
   inkscape:pagecheckerboard="0" />
<defs
   id="defs4">
</defs>





<path
   inkscape:connector-curvature="0"
   d="M 4.6637489,460.12175 260.66975,16.707756 c 5.531,-9.58 15.753,-15.4819999 26.815,-15.4819999 11.063,0 21.284,5.9019999 26.815,15.4819999 L 570.30474,460.12175 c 5.531,9.58 5.531,21.383 0,30.964 -5.531,9.579 -15.753,15.481 -26.815,15.481 H 31.479749 c -11.062,0 -21.284,-5.902 -26.8150001,-15.481 -5.5309999,-9.581 -5.5319999,-21.384 -0.001,-30.964 z"
   id="path6"
   style="fill:#ffffff;stroke:#000000;stroke-width:2;stroke-linecap:round;stroke-linejoin:round;stroke-miterlimit:4;stroke-opacity:1;stroke-dasharray:none" /><path
   inkscape:connector-curvature="0"
   d="M 31.388749,494.18175 H 543.57974 c 6.619,0 12.734,-3.531 16.044,-9.263 3.31,-5.732 3.31,-12.794 0,-18.526 L 303.52875,22.822756 c -3.31,-5.732 -9.425,-9.263 -16.044,-9.263 -6.619,0 -12.734,3.531 -16.044,9.263 L 15.344749,466.39275 c -3.31,5.732 -3.309,12.794 0,18.526 3.31,5.732 9.425,9.263 16.044,9.263 z"
   id="path8"
   style="fill:#f41a0e;stroke:none" /><polygon
   transform="translate(0.42774893,1.1377561)"
   points="510.884,455.888 63.23,455.888 287.057,68.208 "
   id="polygon10"
   style="fill:#ffffff;stroke:none" /><path
   id="path55"
   style="opacity:1;fill:#000000;stroke:none;stroke-width:1.01786px;stroke-linecap:butt;stroke-linejoin:miter;stroke-opacity:1"
   d="m 287.48543,374.5308 c -79.30655,0 -77.47603,48.61288 -154.3875,48.61288 v 12.48508 h 308.773 v -12.48508 c -76.91141,0 -75.07896,-48.61288 -154.3855,-48.61288 z"
   sodipodi:nodetypes="sccccs" /></svg>
