<?xml version="1.0" encoding="UTF-8" standalone="no"?>
<!-- Generator: Adobe Illustrator 13.0.0, SVG Export Plug-In  -->

<svg
   xmlns:dc="http://purl.org/dc/elements/1.1/"
   xmlns:cc="http://creativecommons.org/ns#"
   xmlns:rdf="http://www.w3.org/1999/02/22-rdf-syntax-ns#"
   xmlns:svg="http://www.w3.org/2000/svg"
   xmlns="http://www.w3.org/2000/svg"
   xmlns:sodipodi="http://sodipodi.sourceforge.net/DTD/sodipodi-0.dtd"
   xmlns:inkscape="http://www.inkscape.org/namespaces/inkscape"
   version="1.1"
   x="0px"
   y="0px"
   width="574.13647"
   height="505.54099"
   viewBox="-0.781 -0.08 574.13647 505.54099"
   enable-background="new -0.781 -0.08 576 506"
   xml:space="preserve"
   id="svg2"
   inkscape:version="0.48.4 r9939"
   sodipodi:docname="AJAX1.svg"><metadata
   id="metadata24"><rdf:RDF><cc:Work
       rdf:about=""><dc:format>image/svg+xml</dc:format><dc:type
         rdf:resource="http://purl.org/dc/dcmitype/StillImage" /></cc:Work></rdf:RDF></metadata><sodipodi:namedview
   pagecolor="#ffffff"
   bordercolor="#666666"
   borderopacity="1"
   objecttolerance="10"
   gridtolerance="10"
   guidetolerance="10"
   inkscape:pageopacity="0"
   inkscape:pageshadow="2"
   inkscape:window-width="1280"
   inkscape:window-height="1004"
   id="namedview22"
   showgrid="false"
   fit-margin-top="0.1"
   fit-margin-right="0.1"
   fit-margin-bottom="0.1"
   fit-margin-left="0.1"
   inkscape:zoom="1.039633"
   inkscape:cx="210.95168"
   inkscape:cy="168.52787"
   inkscape:window-x="-8"
   inkscape:window-y="-8"
   inkscape:window-maximized="1"
   inkscape:current-layer="svg2" />
<defs
   id="defs4">
</defs>
<path
   d="m 3.46725,458.915 256.005,-443.413 c 5.531,-9.58 15.753,-15.482 26.815,-15.482 11.063,0 21.284,5.902 26.815,15.482 l 256.005,443.413 c 5.531,9.58 5.531,21.384 0,30.964 -5.53,9.58 -15.753,15.482 -26.815,15.482 h -512.01 c -11.062,0 -21.284,-5.902 -26.815,-15.482 -5.531,-9.58 -5.531,-21.384 0,-30.964 z"
   id="path6"
   style="fill:#ffff00;fill-opacity:1;stroke:none"
   inkscape:connector-curvature="0" />
<path
   d="m 30.19325,492.976 h 512.191 c 6.618,0 12.734,-3.531 16.044,-9.264 3.31,-5.731 3.31,-12.794 0,-18.525 L 302.33225,21.616 c -3.31,-5.732 -9.425,-9.263 -16.044,-9.263 -6.619,0 -12.734,3.531 -16.043,9.263 l -256.096,443.571 c -3.31,5.731 -3.31,12.794 0,18.525 3.309,5.732 9.425,9.264 16.044,9.264 z"
   id="path8"
   style="fill:#f91a0e;stroke:none"
   inkscape:connector-curvature="0" />
<polygon
   points="287.219,68.37 511.046,456.049 63.392,456.049 "
   id="polygon10"
   style="fill:#ffff00;fill-opacity:1;stroke:none"
   transform="translate(-0.93075,-0.23)" />
<path
   d="M 341.27425,390.806 V 223.948 c 0,-30.368 -24.618,-54.986 -54.986,-54.986 -30.368,0 -54.986,24.618 -54.986,54.986 v 166.857 c 0,30.368 24.618,54.985 54.986,54.985 30.368,10e-4 54.986,-24.616 54.986,-54.984 z"
   id="path12"
   style="stroke:none;fill:#000000"
   inkscape:connector-curvature="0" />
<circle
   cx="287.21899"
   cy="307.60699"
   r="35.792"
   id="circle14"
   style="fill:none;stroke:none"
   sodipodi:cx="287.21899"
   sodipodi:cy="307.60699"
   sodipodi:rx="35.792"
   sodipodi:ry="35.792"
   transform="translate(-0.93075,-0.23)" />
<circle
   cx="287.21899"
   cy="391.03601"
   r="35.791"
   id="circle16"
   style="fill:#52ae27;stroke:none"
   sodipodi:cx="287.21899"
   sodipodi:cy="391.03601"
   sodipodi:rx="35.791"
   sodipodi:ry="35.791"
   transform="translate(-0.93075,-0.23)" />
<circle
   cx="287.21899"
   cy="224.17799"
   r="35.792"
   id="circle18"
   style="fill:#f91a0e;stroke:none;fill-opacity:1"
   sodipodi:cx="287.21899"
   sodipodi:cy="224.17799"
   sodipodi:rx="35.792"
   sodipodi:ry="35.792"
   transform="translate(-0.93075,-0.23)" />
<circle
   cx="285.21899"
   cy="308.03601"
   r="35.791"
   id="circle20"
   style="fill:#ffff00;stroke:none;fill-opacity:1"
   sodipodi:cx="285.21899"
   sodipodi:cy="308.03601"
   sodipodi:rx="35.791"
   sodipodi:ry="35.791"
   transform="translate(-0.93075,-0.23)" />
</svg>