<?xml version="1.0" encoding="UTF-8" standalone="no"?>
<!-- Generator: Adobe Illustrator 13.0.0, SVG Export Plug-In  -->

<svg
   xmlns:dc="http://purl.org/dc/elements/1.1/"
   xmlns:cc="http://creativecommons.org/ns#"
   xmlns:rdf="http://www.w3.org/1999/02/22-rdf-syntax-ns#"
   xmlns:svg="http://www.w3.org/2000/svg"
   xmlns="http://www.w3.org/2000/svg"
   xmlns:sodipodi="http://sodipodi.sourceforge.net/DTD/sodipodi-0.dtd"
   xmlns:inkscape="http://www.inkscape.org/namespaces/inkscape"
   version="1.1"
   x="0px"
   y="0px"
   width="574.13647"
   height="505.54099"
   viewBox="-0.781 -0.08 574.13647 505.54099"
   enable-background="new -0.781 -0.08 576 506"
   xml:space="preserve"
   id="svg2"
   inkscape:version="0.48.4 r9939"
   sodipodi:docname="AJAX1.svg"><metadata
   id="metadata20"><rdf:RDF><cc:Work
       rdf:about=""><dc:format>image/svg+xml</dc:format><dc:type
         rdf:resource="http://purl.org/dc/dcmitype/StillImage" /></cc:Work></rdf:RDF></metadata><sodipodi:namedview
   pagecolor="#ffffff"
   bordercolor="#666666"
   borderopacity="1"
   objecttolerance="10"
   gridtolerance="10"
   guidetolerance="10"
   inkscape:pageopacity="0"
   inkscape:pageshadow="2"
   inkscape:window-width="1280"
   inkscape:window-height="1004"
   id="namedview18"
   showgrid="false"
   fit-margin-top="0.1"
   fit-margin-right="0.1"
   fit-margin-bottom="0.1"
   fit-margin-left="0.1"
   inkscape:zoom="1.4702631"
   inkscape:cx="180.96579"
   inkscape:cy="252.771"
   inkscape:window-x="-8"
   inkscape:window-y="-8"
   inkscape:window-maximized="1"
   inkscape:current-layer="svg2" />
<defs
   id="defs4">
</defs>
<path
   d="m 3.46725,458.915 256.005,-443.413 c 5.531,-9.58 15.753,-15.482 26.815,-15.482 11.063,0 21.284,5.902 26.815,15.482 l 256.005,443.413 c 5.531,9.58 5.531,21.384 0,30.964 -5.53,9.58 -15.753,15.482 -26.815,15.482 h -512.01 c -11.062,0 -21.284,-5.902 -26.815,-15.482 -5.531,-9.58 -5.531,-21.384 0,-30.964 z"
   id="path6"
   style="fill:#ffff00;fill-opacity:1;stroke:none"
   inkscape:connector-curvature="0" />
<path
   d="m 30.19325,492.976 h 512.191 c 6.618,0 12.734,-3.531 16.044,-9.264 3.31,-5.731 3.31,-12.794 0,-18.525 L 302.33225,21.616 c -3.31,-5.732 -9.425,-9.263 -16.044,-9.263 -6.619,0 -12.734,3.531 -16.043,9.263 l -256.096,443.571 c -3.31,5.731 -3.31,12.794 0,18.525 3.309,5.732 9.425,9.264 16.044,9.264 z"
   id="path8"
   inkscape:connector-curvature="0"
   style="fill:#f91a0e;stroke:none;stroke-width:0.17640001000000000;stroke-linecap:round;stroke-linejoin:round" />
<polygon
   points="287.219,68.37 511.046,456.049 63.392,456.049 "
   id="polygon10"
   style="fill:#ffff00;fill-opacity:1;stroke:none"
   transform="translate(-0.93075,-0.23)" />
<path
   d="m 143.55325,420.271 h -0.081 v -40.194 c 13.754,0 26.137,-8.333 31.315,-21.075 6.452,-15.874 21.673,-26.438 38.802,-26.928 17.128,-0.489 32.929,9.187 40.278,24.666 5.293,11.149 16.064,18.69 28.353,19.849 h 8.136 c 12.288,-1.158 23.059,-8.699 28.353,-19.849 7.349,-15.479 23.148,-25.155 40.277,-24.665 17.128,0.489 32.35,11.053 38.802,26.927 5.179,12.742 17.562,21.075 31.315,21.075 v 40.194 h -30.899 -254.651 z"
   id="path12"
   inkscape:connector-curvature="0"
   style="stroke:none;stroke-width:0.17640001000000000;stroke-linecap:round;stroke-linejoin:round;fill:#000000" />
<line
   x1="205.30725"
   y1="420.271"
   x2="205.22624"
   y2="420.271"
   id="line14"
   style="fill:none;stroke:#000000;stroke-width:0.0805;stroke-linecap:round;stroke-linejoin:round" />
<line
   x1="255.13025"
   y1="420.271"
   x2="221.12325"
   y2="420.271"
   id="line16"
   style="fill:none;stroke:#000000;stroke-width:0.17640001;stroke-linecap:round;stroke-linejoin:round" />
</svg>