<?xml version="1.0" encoding="UTF-8" standalone="no"?>
<!-- Created with Inkscape (http://www.inkscape.org/) -->

<svg
   xmlns:dc="http://purl.org/dc/elements/1.1/"
   xmlns:cc="http://creativecommons.org/ns#"
   xmlns:rdf="http://www.w3.org/1999/02/22-rdf-syntax-ns#"
   xmlns:svg="http://www.w3.org/2000/svg"
   xmlns="http://www.w3.org/2000/svg"
   xmlns:sodipodi="http://sodipodi.sourceforge.net/DTD/sodipodi-0.dtd"
   xmlns:inkscape="http://www.inkscape.org/namespaces/inkscape"
   id="svg2"
   version="1.1"
   inkscape:version="0.48.4 r9939"
   width="498.30228"
   height="435.43597"
   sodipodi:docname="AJAX.svg">
  <metadata
     id="metadata8">
    <rdf:RDF>
      <cc:Work
         rdf:about="">
        <dc:format>image/svg+xml</dc:format>
        <dc:type
           rdf:resource="http://purl.org/dc/dcmitype/StillImage" />
        <dc:title />
      </cc:Work>
    </rdf:RDF>
  </metadata>
  <defs
     id="defs6" />
  <sodipodi:namedview
     pagecolor="#ffffff"
     bordercolor="#666666"
     borderopacity="1"
     objecttolerance="10"
     gridtolerance="10"
     guidetolerance="10"
     inkscape:pageopacity="0"
     inkscape:pageshadow="2"
     inkscape:window-width="1280"
     inkscape:window-height="1001"
     id="namedview4"
     showgrid="false"
     inkscape:snap-page="false"
     inkscape:snap-bbox="true"
     showguides="true"
     inkscape:guide-bbox="true"
     inkscape:object-paths="true"
     inkscape:snap-intersection-paths="true"
     inkscape:object-nodes="true"
     inkscape:snap-smooth-nodes="true"
     inkscape:snap-midpoints="true"
     inkscape:snap-object-midpoints="true"
     inkscape:snap-center="true"
     inkscape:zoom="0.6068262"
     inkscape:cx="319.31222"
     inkscape:cy="139.02752"
     inkscape:window-x="-8"
     inkscape:window-y="-8"
     inkscape:window-maximized="1"
     inkscape:current-layer="g3006"
     inkscape:snap-grids="false"
     inkscape:snap-to-guides="false"
     inkscape:snap-bbox-midpoints="true"
     inkscape:snap-bbox-edge-midpoints="true"
     inkscape:bbox-nodes="true"
     inkscape:bbox-paths="true"
     fit-margin-top="0"
     fit-margin-left="0"
     fit-margin-right="0"
     fit-margin-bottom="0" />
  <g
     inkscape:groupmode="layer"
     id="layer1"
     inkscape:label="Calque"
     transform="translate(-0.75000017,-113.81403)" />
  <g
     id="g3917"
     transform="translate(-31.175072,-37.076527)">
    <g
       id="g3006">
      <path
         style="fill:#ffff00;fill-opacity:1;stroke:none"
         d="m 49.865353,472.5125 c -14.1666,-0.52414 -23.42415,-13.70496 -16.14748,-27.96826 L 262.03158,49.288449 c 10.53601,-15.930387 26.20006,-16.126886 36.25747,-1.456568 L 526.50691,443.11681 c 7.68403,14.82487 -0.11332,27.07524 -16.78267,29.06844 z"
         id="path2988"
         inkscape:connector-curvature="0"
         sodipodi:nodetypes="ccccccc" />
      <g
         transform="translate(0.2312726,0.41679355)"
         id="g3895"
         style="stroke:none">
        <path
           sodipodi:nodetypes="ccccccc"
           inkscape:connector-curvature="0"
           id="path3760"
           d="m 47.986765,462.69879 c -7.87559,-2.37494 -8.98653,-7.28662 -7.58636,-13.13997 L 269.4435,52.844519 c 9.97123,-12.63727 15.59174,-6.784 20.99325,0 l 228.066,395.021921 c 2.27843,6.9953 2.18668,13.05241 -8.59081,14.87974 z"
           style="fill:#e3001b;fill-opacity:1;stroke:none" />
        <g
           id="g3875"
           style="stroke:none">
          <path
             style="fill:#ffff00;fill-opacity:1;stroke:none"
             d="M 94.257493,429.32565 279.09746,106.18659 463.41596,428.89172 z"
             id="path3764"
             inkscape:connector-curvature="0"
             sodipodi:nodetypes="cccc" />
          <g
             id="g3857"
             style="stroke:none">
            <path
               inkscape:connector-curvature="0"
               id="path3768"
               d="m 118.3734,400.69969 -4.07839,10.48729 319.9359,0 -4.32579,-10.37568 z"
               style="fill:#000000;stroke:none" />
            <g
               id="g3841"
               style="stroke:none">
              <g
                 id="g3800"
                 transform="translate(1.1370856,-0.80386518)"
                 style="stroke:none">
                <path
                   sodipodi:nodetypes="cccccccccccccccccccccc"
                   inkscape:connector-curvature="0"
                   id="path3788"
                   d="m 154.35588,399.86267 0,-19.26004 c -2.33596,-1.39417 -5.63646,-0.099 -5.97371,-5.97371 l 0,-20.85646 c 0.2588,-5.12865 2.63366,-4.8923 4.42878,-5.41196 l 1.60084,-0.32773 7.2484,-21.10126 c 1.2156,-4.57313 4.14421,-6.24733 7.87681,-6.56092 l 52.74443,-0.103 c 4.15936,0.16625 7.65245,1.76754 9.30023,7.34333 l 5.3842,19.45086 c 0.25554,0.84331 0.71346,1.30945 1.30069,1.53456 2.05764,0.14012 4.35546,-0.25349 5.23468,2.50532 l -0.22729,21.77635 c 0.19582,7.21196 -3.53548,6.35152 -6.68564,6.68564 l 0,21.48346 -11.68089,0 0,-20.49598 -57.47115,0 0,20.48737 -12.98302,0 z"
                   style="fill:#000000;stroke:none;stroke-width:1px;stroke-linecap:butt;stroke-linejoin:miter;stroke-opacity:1" />
                <path
                   sodipodi:nodetypes="cccccccc"
                   inkscape:connector-curvature="0"
                   id="path3792"
                   d="m 164.28115,349.01585 63.13587,0 0,-13.28634 c -3.03148,-6.57669 -7.18399,-5.86663 -11.14031,-6.43187 l -43.75597,0 c -3.12052,0.90067 -6.87977,1.38956 -8.57166,8.57167 l 0,11.17229 0.43507,0"
                   style="fill:#ffff00;fill-opacity:1;stroke:none" />
              </g>
              <g
                 id="g3829"
                 style="stroke:none">
                <path
                   sodipodi:nodetypes="cccccccccccccccc"
                   inkscape:connector-curvature="0"
                   id="path3772"
                   d="m 242.93266,385.48484 111.44048,-116.17824 7.20964,15.44924 -65.91674,67.97663 c -0.14643,0.84915 -0.42831,1.80188 1.02219,1.42985 l 42.6046,-27.60196 0.50981,16.75053 -52.72776,32.40863 c -1.97442,1.99302 -3.81247,3.9248 0.79397,2.96314 l 43.86233,-16.05609 2.86163,10.06648 71.00251,-14.24054 4.44039,14.44072 -102.27757,14.18752 -64.89009,11.39764 z"
                   style="fill:#000000;stroke:none" />
                <path
                   sodipodi:nodetypes="ccccccc"
                   inkscape:connector-curvature="0"
                   id="path3816"
                   d="m 365.96266,344.2598 c 1.31664,-3.70936 3.85126,-5.83976 7.10077,-6.26324 2.91396,-0.58367 3.36291,3.50692 3.78707,4.00556 0.0996,0.87355 0.68498,0.98361 0.18208,2.80389 -0.63913,1.21923 0.0258,2.51431 -2.36693,3.64142 -2.4198,0.57285 -4.03856,0.978 -5.8991,-0.58262 -1.17772,-0.82989 -3.13189,-0.47226 -2.80389,-3.60501 z"
                   style="fill:#000000;stroke:none;stroke-width:1px;stroke-linecap:butt;stroke-linejoin:miter;stroke-opacity:1" />
                <g
                   id="g3820"
                   style="stroke:none">
                  <path
                     style="fill:#000000;stroke:none;stroke-width:1px;stroke-linecap:butt;stroke-linejoin:miter;stroke-opacity:1"
                     d="m 307.74875,308.94044 c 1.29221,0.83893 0.93783,1.89402 0.97846,2.85811 0.0691,0.80722 0.0572,1.66218 -0.61797,1.72516 -0.39449,0.71498 -0.73578,0.61478 -1.28744,0.66947 -0.72876,0.10143 -1.39101,0.0698 -1.77667,-0.51497 -0.56255,-0.23634 -1.10996,-1.13744 -1.05569,-1.64792 -0.12063,-1.65973 0.37291,-1.3541 0.56647,-2.0084 l 0.79821,-0.95271 c 0.39043,-0.15035 0.63713,-0.54025 1.21019,-0.38623 0.39562,0.0761 0.85201,-0.57698 1.18444,0.25749 z"
                     id="path3804"
                     inkscape:connector-curvature="0"
                     sodipodi:nodetypes="cccccccccc" />
                  <path
                     style="fill:#000000;stroke:none;stroke-width:1px;stroke-linecap:butt;stroke-linejoin:miter;stroke-opacity:1"
                     d="m 336.69032,256.87652 c 0.5447,-1.73534 5.24417,2.19491 8.54857,4.22279 5.00209,4.56611 3.7826,5.63039 0.103,8.54858 -1.47649,0.72774 -2.44635,2.3585 -9.06355,1.02995 -4.23904,-1.51059 -3.84357,-4.15413 -3.50183,-5.66472 1.06438,-2.97912 0.63999,-7.61242 3.91381,-8.1366 z"
                     id="path3806"
                     inkscape:connector-curvature="0"
                     sodipodi:nodetypes="cccccc" />
                  <path
                     style="fill:#000000;stroke:none;stroke-width:1px;stroke-linecap:butt;stroke-linejoin:miter;stroke-opacity:1"
                     d="m 363.88097,296.22057 c 4.95262,-1.2855 7.49243,-0.76139 9.16655,0.41198 0.71322,1.35442 1.73714,2.08744 1.9569,4.42878 0.35484,3.62745 -0.17661,6.33234 -2.26589,7.41564 -1.82314,1.29165 -3.26849,0.31653 -4.84076,0.10299 -1.4076,0.48429 -3.12418,-0.98336 -4.53177,-4.32578 -2.03799,-6.07167 -0.77172,-5.6303 0.51497,-8.03361 z"
                     id="path3808"
                     inkscape:connector-curvature="0"
                     sodipodi:nodetypes="ccccccc" />
                  <path
                     style="fill:#000000;stroke:none;stroke-width:1px;stroke-linecap:butt;stroke-linejoin:miter;stroke-opacity:1"
                     d="m 419.78284,387.15572 c 0.62159,-1.32229 1.28093,-3.17312 2.03919,-6.4089 -1.55773,-1.04474 -3.69803,-3.07189 -5.87928,-2.05686 -1.85199,0.38282 -3.61581,0.57867 -2.83513,3.06763 -0.74152,-0.3774 0.19093,1.88266 0.24582,2.51995 0.13952,0.7365 -0.0684,2.1553 1.21075,2.5119 1.41507,0.47274 3.25618,0.30409 5.21865,0.36628 z"
                     id="path3810"
                     inkscape:connector-curvature="0"
                     sodipodi:nodetypes="ccccccc" />
                  <path
                     style="fill:#000000;stroke:none;stroke-width:1px;stroke-linecap:butt;stroke-linejoin:miter;stroke-opacity:1"
                     d="m 351.62458,334.32869 c 1.37848,1.40447 4.0567,2.02909 4.11979,4.22279 0.21648,2.23156 -2.26841,4.46311 -4.42878,6.69467 -2.36583,1.06123 -2.11785,0.95057 -2.78086,0.10299 -1.85044,-0.36734 -1.3708,-6.68053 -0.20598,-7.51862 -0.41838,-2.85916 1.73549,-3.21172 3.29583,-3.50183 z"
                     id="path3812"
                     inkscape:connector-curvature="0"
                     sodipodi:nodetypes="cccccc" />
                  <path
                     style="fill:#000000;stroke:none;stroke-width:1px;stroke-linecap:butt;stroke-linejoin:miter;stroke-opacity:1"
                     d="m 342.20054,353.12525 c 2.08689,-4.13163 5.10338,-3.20196 7.31265,-4.27428 1.42683,-1.17638 2.7068,1.79526 3.50182,3.39882 l -0.36048,3.19285 c 0.2203,2.76736 -1.15437,3.36456 -2.31739,4.1198 -0.7553,0.33789 -3.2615,0.82643 -4.0168,-0.0515 -1.05169,-1.17541 -5.61596,-0.32297 -4.58327,-4.68627 z"
                     id="path3814"
                     inkscape:connector-curvature="0"
                     sodipodi:nodetypes="cccccccc" />
                  <path
                     style="fill:#000000;stroke:none;stroke-width:1px;stroke-linecap:butt;stroke-linejoin:miter;stroke-opacity:1"
                     d="m 394.67645,341.28084 1.33893,-3.9653 c 1.15808,-1.76748 4.53926,-0.43482 5.81922,-0.61798 1.02566,-0.14165 2.26895,0.80075 2.36887,3.96532 l -0.72096,3.24433 c 0.42232,3.99493 -4.11162,2.37241 -6.69467,1.13294 -1.25724,-0.5795 -2.30603,-1.72793 -2.11139,-3.75931 z"
                     id="path3818"
                     inkscape:connector-curvature="0"
                     sodipodi:nodetypes="ccccccc" />
                </g>
              </g>
            </g>
          </g>
        </g>
      </g>
    </g>
  </g>
</svg>
