<?xml version="1.0" encoding="UTF-8" standalone="no"?>
<!-- Generator: Adobe Illustrator 13.0.0, SVG Export Plug-In  -->

<svg
   xmlns:dc="http://purl.org/dc/elements/1.1/"
   xmlns:cc="http://creativecommons.org/ns#"
   xmlns:rdf="http://www.w3.org/1999/02/22-rdf-syntax-ns#"
   xmlns:svg="http://www.w3.org/2000/svg"
   xmlns="http://www.w3.org/2000/svg"
   xmlns:sodipodi="http://sodipodi.sourceforge.net/DTD/sodipodi-0.dtd"
   xmlns:inkscape="http://www.inkscape.org/namespaces/inkscape"
   version="1.1"
   x="0px"
   y="0px"
   width="574.13647"
   height="505.54099"
   viewBox="-0.781 -0.08 574.13647 505.54099"
   enable-background="new -0.781 -0.08 576 506"
   xml:space="preserve"
   id="svg2"
   inkscape:version="0.48.4 r9939"
   sodipodi:docname="AJAX1.svg"><metadata
   id="metadata20"><rdf:RDF><cc:Work
       rdf:about=""><dc:format>image/svg+xml</dc:format><dc:type
         rdf:resource="http://purl.org/dc/dcmitype/StillImage" /></cc:Work></rdf:RDF></metadata><sodipodi:namedview
   pagecolor="#ffffff"
   bordercolor="#666666"
   borderopacity="1"
   objecttolerance="10"
   gridtolerance="10"
   guidetolerance="10"
   inkscape:pageopacity="0"
   inkscape:pageshadow="2"
   inkscape:window-width="1280"
   inkscape:window-height="1004"
   id="namedview18"
   showgrid="false"
   inkscape:zoom="0.77881765"
   inkscape:cx="165.85991"
   inkscape:cy="35.281759"
   inkscape:window-x="-8"
   inkscape:window-y="-8"
   inkscape:window-maximized="1"
   inkscape:current-layer="svg2"
   fit-margin-top="0.1"
   fit-margin-right="0.1"
   fit-margin-bottom="0.1"
   fit-margin-left="0.1" />
<defs
   id="defs4">
</defs>
<path
   d="m 3.46725,458.915 256.005,-443.413 c 5.531,-9.58 15.753,-15.482 26.815,-15.482 11.063,0 21.284,5.902 26.815,15.482 l 256.005,443.413 c 5.531,9.58 5.531,21.384 0,30.964 -5.53,9.58 -15.753,15.482 -26.815,15.482 h -512.01 c -11.062,0 -21.284,-5.902 -26.815,-15.482 -5.531,-9.58 -5.531,-21.384 0,-30.964 z"
   id="path6"
   style="fill:#ffff00;stroke:none"
   inkscape:connector-curvature="0" />
<path
   d="m 30.19325,492.976 h 512.191 c 6.618,0 12.734,-3.531 16.044,-9.264 3.31,-5.731 3.31,-12.794 0,-18.525 L 302.33225,21.616 c -3.31,-5.732 -9.425,-9.263 -16.044,-9.263 -6.619,0 -12.734,3.531 -16.043,9.263 l -256.096,443.571 c -3.31,5.731 -3.31,12.794 0,18.525 3.309,5.732 9.425,9.264 16.044,9.264 z"
   id="path8"
   style="fill:#f91a0e;stroke:none"
   inkscape:connector-curvature="0" />
<polygon
   points="287.219,68.37 511.046,456.049 63.392,456.049 "
   id="polygon10"
   style="fill:#ffff00;stroke:none"
   transform="translate(-0.93075,-0.23)" />

<line
   x1="205.30725"
   y1="420.271"
   x2="205.22624"
   y2="420.271"
   id="line14"
   style="fill:none;stroke:none" />

<path
   d="m 185.77845,368.07135 c 9.93687,10.83825 9.86543,27.49651 -0.16182,38.25056 -10.02796,10.75257 -26.64042,11.98639 -38.14461,2.83147 l -16.47919,12.53364 37.09062,27.32109 13.21803,-11.16263 57.59616,0.027 80.74026,-78.7729 0.80969,-61.9354 47.28761,-60.96178 -21.79345,-24.42467 -15.39425,12.07585 c 11.44849,11.24817 12.04945,29.50124 1.3636,41.47817 -10.68503,11.97484 -28.88804,13.45056 -41.36295,3.35347 l -104.7697,99.38626 z"
   id="path12"
   inkscape:connector-curvature="0"
   style="stroke:none;fill:#000000" /><polygon
   points="287.653,286.324 292.989,266.671 320.704,277.771 328.764,301.068 "
   id="polygon22"
   transform="matrix(1.4620304,-0.66936975,-0.66936975,-1.4620304,23.571109,976.06472)"
   style="fill:#ffff00;fill-opacity:1;stroke:none" /><polygon
   points="242.688,270.557 244.022,266.234 263.552,257.064 289.602,265.454 283.977,284.88 "
   id="polygon24"
   transform="matrix(1.4620304,-0.66936975,-0.66936975,-1.4620304,23.571109,976.06472)"
   style="fill:#ffff00;fill-opacity:1;stroke:none" /><circle
   cx="233.358"
   cy="294.939"
   r="13.599"
   id="circle26"
   sodipodi:cx="233.358"
   sodipodi:cy="294.939"
   sodipodi:rx="13.599"
   sodipodi:ry="13.599"
   transform="matrix(1.4620304,-0.66936975,-0.66936975,-1.4620304,23.571109,976.06472)"
   style="stroke:none;fill:#000000" /><circle
   cx="350.88"
   cy="338.073"
   r="14.708"
   id="circle28"
   sodipodi:cx="350.88"
   sodipodi:cy="338.073"
   sodipodi:rx="14.708"
   sodipodi:ry="14.708"
   transform="matrix(1.4620304,-0.66936975,-0.66936975,-1.4620304,23.571109,976.06472)"
   style="stroke:none;fill:#000000" /></svg>