<?xml version="1.0" encoding="UTF-8" standalone="no"?>
<svg
   xmlns:dc="http://purl.org/dc/elements/1.1/"
   xmlns:cc="http://creativecommons.org/ns#"
   xmlns:rdf="http://www.w3.org/1999/02/22-rdf-syntax-ns#"
   xmlns:svg="http://www.w3.org/2000/svg"
   xmlns="http://www.w3.org/2000/svg"
   xmlns:sodipodi="http://sodipodi.sourceforge.net/DTD/sodipodi-0.dtd"
   xmlns:inkscape="http://www.inkscape.org/namespaces/inkscape"
   sodipodi:docname="France_road_sign_A4.svg"
   inkscape:version="1.0beta1 (76ce730, 2019-10-19)"
   id="svg2"
   xml:space="preserve"
   enable-background="new -0.781 -0.08 576 506"
   viewBox="-0.781 -0.08 574.53649 505.941"
   height="505.94101"
   width="574.5365"
   y="0px"
   x="0px"
   version="1.1"><metadata
     id="metadata18"><rdf:RDF><cc:Work
         rdf:about=""><dc:format>image/svg+xml</dc:format><dc:type
           rdf:resource="http://purl.org/dc/dcmitype/StillImage" /></cc:Work></rdf:RDF></metadata><sodipodi:namedview
     inkscape:document-rotation="0"
     inkscape:guide-bbox="true"
     showguides="true"
     inkscape:current-layer="svg2"
     inkscape:window-maximized="0"
     inkscape:window-y="23"
     inkscape:window-x="0"
     inkscape:cy="357.97339"
     inkscape:cx="390.92185"
     inkscape:zoom="0.7"
     fit-margin-bottom="0.3"
     fit-margin-right="0.3"
     fit-margin-left="0.3"
     fit-margin-top="0.3"
     showgrid="false"
     id="namedview16"
     inkscape:window-height="784"
     inkscape:window-width="1440"
     inkscape:pageshadow="2"
     inkscape:pageopacity="0"
     guidetolerance="10"
     gridtolerance="10"
     objecttolerance="10"
     borderopacity="1"
     bordercolor="#666666"
     pagecolor="#ffffff" /><defs
     id="defs4" /><path
     inkscape:connector-curvature="0"
     style="fill:#ffff00;fill-opacity:1;stroke:none;stroke-width:2;stroke-miterlimit:4;stroke-dasharray:none;stroke-opacity:1"
     id="path6"
     d="M 3.6672499,459.115 259.67227,15.702 c 5.531,-9.58 15.753,-15.482 26.815,-15.482 11.063,0 21.284,5.902 26.815,15.482 l 256.005,443.413 c 5.531,9.58 5.531,21.384 0,30.964 -5.53,9.58 -15.753,15.482 -26.815,15.482 H 30.482245 c -11.062,0 -21.2839997,-5.902 -26.8149951,-15.482 -5.5309999,-9.58 -5.5309999,-21.384 0,-30.964 z" /><path
     inkscape:connector-curvature="0"
     style="fill:#f8190d;stroke:none"
     id="path8"
     d="M 30.393245,493.176 H 542.58427 c 6.618,0 12.734,-3.531 16.044,-9.264 3.31,-5.731 3.31,-12.794 0,-18.525 L 302.53227,21.816 c -3.31,-5.732 -9.425,-9.263 -16.044,-9.263 -6.619,0 -12.734,3.531 -16.043,9.263 L 14.349245,465.387 c -3.31,5.731 -3.31,12.794 0,18.525 3.309,5.732 9.425,9.264 16.044,9.264 z" /><polygon
     transform="translate(-0.73074998,-0.02999999)"
     style="fill:#ffff00;stroke:none;stroke-opacity:1"
     id="polygon10"
     points="63.392,456.049 287.219,68.37 511.046,456.049 " /><g
     transform="translate(579.56752,110.04268)"
     id="g4255"><path
       style="fill:#000000;fill-rule:evenodd;stroke:none;stroke-width:0.3;stroke-linecap:butt;stroke-linejoin:miter;stroke-miterlimit:4;stroke-dasharray:none;stroke-opacity:1"
       d="m -381.50857,328.78348 h 46.58999 c 7.70191,-8.02921 14.53678,-15.84448 17.5048,-24.65402 4.02448,-11.94525 10.22837,-27.86902 -17.07764,-33.0728 -7.75922,-1.4787 -18.05652,-3.44089 -23.60395,-4.80015 -30.23113,-7.40739 -24.65773,-22.74177 24.99671,-44.12042 l -10.55555,-2.91187 c -22.84086,5.68299 -42.97537,15.79971 -47.26554,29.13535 -3.07654,9.56316 -3.89895,30.38668 48.72148,29.28412 10.59081,-0.2566 13.76411,5.46023 10.89022,10.715 -13.78682,25.26167 -39.77266,34.84985 -50.20052,40.42479 z"
       id="path4251"
       inkscape:connector-curvature="0"
       sodipodi:nodetypes="ccsssccsccc" /><path
       style="fill:#000000;fill-rule:evenodd;stroke:none;stroke-width:0.3;stroke-linecap:butt;stroke-linejoin:miter;stroke-miterlimit:4;stroke-dasharray:none;stroke-opacity:1"
       d="m -248.6543,255.98663 -44.77007,14.37738 c -8.10485,2.68237 -5.9882,5.112 3.82184,6.09673 l 103.55353,16.10631 c 10.02965,1.39835 16.57126,13.25211 7.82566,23.113 l -12.55746,13.46771 h -20.20113 l 16.67299,-15.00272 c 8.90076,-9.44867 -1.64649,-11.31998 -11.48621,-12.93336 l -114.01808,-21.20209 c -5.57706,-7.37893 -1.34448,-17.17543 9.46359,-19.66429 l 55.6896,-9.09047 z"
       id="path4253"
       inkscape:connector-curvature="0"
       sodipodi:nodetypes="ccccccccccccc" /><path
       inkscape:connector-curvature="0"
       id="rect4200"
       d="m -289.54679,129.08019 c -7.13922,-2.8416 -13.65378,-1.58761 -19.24913,6.34905 l -14.81984,21.10294 c -3.99203,-1.49365 -8.41698,0.49508 -9.94303,4.48301 l -8.42759,22.02321 c -1.48381,3.87752 0.33974,8.1703 4.09022,9.83297 l -8.6877,22.70294 c -0.63662,1.66365 0.18946,3.51384 1.85309,4.15045 l 9.99202,3.82363 c 1.66363,0.63663 3.51602,-0.18861 4.15265,-1.85225 l 8.68014,-22.68322 68.33908,26.1512 -8.68013,22.68322 c -0.63663,1.66364 0.19165,3.51468 1.85529,4.15129 l 9.992,3.82363 c 1.66364,0.63662 3.51385,-0.18944 4.15047,-1.85309 l 8.68769,-22.70294 c 3.90184,1.26437 8.12609,-0.7137 9.60961,-4.59048 l 8.42758,-22.02323 c 1.52606,-3.98792 -0.44304,-8.42346 -4.41241,-9.97636 l 3.05395,-25.60539 c 1.13239,-9.64447 -2.8786,-14.92627 -10.09104,-17.57658 l -29.28755,-11.20742 z m -0.82343,8.91795 50.24639,19.28304 c 11.50836,4.12065 11.83426,4.52207 10.09106,17.57658 l -1.20275,10.07994 c -0.32048,2.76834 -1.41713,4.65344 -3.49058,5.60727 l -78.09869,-29.88588 c -0.90701,-2.09436 -0.46506,-4.22999 1.14442,-6.50507 l 5.83367,-8.30782 c 6.48995,-9.52306 7.6941,-10.77539 15.47647,-7.84803 z"
       style="opacity:1;fill:#000000;fill-opacity:1;fill-rule:evenodd;stroke:none;stroke-width:1;stroke-linecap:round;stroke-linejoin:round;stroke-miterlimit:4;stroke-dasharray:none;stroke-dashoffset:0;stroke-opacity:1"
       sodipodi:nodetypes="cccsscssssccsssscssccccccccccccccc" /></g></svg>
