<?xml version="1.0" encoding="utf-8"?>
<!-- Generator: Adobe Illustrator 16.0.2, SVG Export Plug-In . SVG Version: 6.00 Build 0)  -->
<!DOCTYPE svg PUBLIC "-//W3C//DTD SVG 1.1//EN" "http://www.w3.org/Graphics/SVG/1.1/DTD/svg11.dtd">
<svg version="1.1" id="Ebene_1" xmlns="http://www.w3.org/2000/svg" xmlns:xlink="http://www.w3.org/1999/xlink" x="0px" y="0px"
	 width="576px" height="576px" viewBox="0 0 576 576" style="enable-background:new 0 0 576 576;" xml:space="preserve">
<circle style="fill:#FFFFFF;stroke:#000000;stroke-width:2;stroke-linecap:round;stroke-linejoin:round;" cx="287.969" cy="287.969" r="286.969"/>
<circle style="fill:#FF0000;stroke:#FF0000;stroke-width:0.1764;stroke-linecap:round;stroke-linejoin:round;" cx="287.969" cy="287.969" r="273.982"/>
<circle style="fill:#FFFFFF;stroke:#FF0000;stroke-width:0.1764;stroke-linecap:round;stroke-linejoin:round;" cx="287.969" cy="287.969" r="192.438"/>
<path style="stroke:#000000;stroke-width:0.1764;stroke-linecap:round;stroke-linejoin:round;" d="M338.226,288.069l-93.32-1.154
	c-0.238-9.862-5.778-18.828-14.491-23.455c-8.712-4.626-19.243-4.194-27.547,1.131c-8.305,5.325-13.092,14.715-12.521,24.563
	l-29.325-1.071l1.667-7.3h5l3.333-37.715h4.167l4.167-30.416l4.167-3.65l30.834-1.216V181.02h196.673v105.845h-18.701
	c-0.426-14.87-12.774-26.607-27.647-26.277C349.807,260.92,337.99,273.195,338.226,288.069z"/>
<circle style="stroke:#000000;stroke-width:0.1764;stroke-linecap:round;stroke-linejoin:round;" cx="365.238" cy="287.183" r="24.078"/>
<circle style="stroke:#000000;stroke-width:0.1764;stroke-linecap:round;stroke-linejoin:round;" cx="217.774" cy="287.183" r="24.1"/>
<polygon style="fill:#FFFFFF;stroke:#000000;stroke-width:0.1764;stroke-linecap:round;stroke-linejoin:round;" points="
	185.188,213.87 213.521,213.87 211.855,244.286 180.188,243.069 "/>
<path d="M194.96,410.58l-37.441-30.166l37.441-30.167V410.58L194.96,410.58z M403.287,406.288v-57.317l42.24,28.658L403.287,406.288
	z"/>
<g>
	<rect x="218.5" y="356.5" style="fill:none;" width="156" height="55"/>
	<path d="M252.498,356.561v44.472h-8.446l0.03-31.394h-0.121c-0.061,0.263-0.787,0.838-2.18,1.726l-2.634,1.393l-2.361,0.908
		c-0.949,0.202-1.463,0.354-1.544,0.454v-9.385l1.877-0.878c3.128-1.998,5.378-4.43,6.751-7.296H252.498z"/>
	<path d="M264.032,383.534c-0.061-1.13-0.091-2.24-0.091-3.33c0-0.545,0.01-1.09,0.03-1.635c0.061-2.139,0.232-4.218,0.515-6.236
		v-0.212l0.121-0.272l0.212-2.089l0.151-0.303l0.303-1.695l0.121-0.182c0.303-1.453,0.958-3.088,1.968-4.904l0.878-1.332
		l1.695-1.726c1.796-1.453,4.127-2.492,6.993-3.118c0.908-0.161,1.847-0.242,2.815-0.242h0.242c1.514,0.041,3.098,0.293,4.753,0.757
		c0.686,0.081,1.786,0.535,3.3,1.362c1.554,0.969,2.967,2.291,4.239,3.966l0.969,1.483l0.787,1.665l0.332,1.211l0.092,0.091v0.303
		c0.201,0.424,0.322,0.757,0.363,0.999l0.121,0.151l0.514,2.694l0.092,0.061l-0.061,0.394l0.121,0.242l0.303,3.239l0.121,0.303
		l-0.092,0.03l0.213,1.907l-0.061,0.061c0.08,0.202,0.08,0.323,0,0.363l0.09,0.303l-0.061,0.091l0.152,2.059l-0.061,0.061
		l0.09,0.878l-0.029,0.061v1.211c-0.021,0.747-0.081,1.646-0.182,2.694l-0.152,1.12l0.061,0.061l-0.15,0.303
		c-0.061,0.747-0.232,1.635-0.516,2.664l-0.182,0.575l-0.029,0.333l-0.787,2.24l-0.152,0.121c0,0.202-0.262,0.817-0.787,1.847
		l-1.453,2.089c-1.594,1.837-3.359,3.179-5.297,4.026c-1.271,0.505-2.553,0.837-3.845,0.999l-2.331,0.151l-0.545-0.03
		c-4.602-0.121-8.315-1.614-11.141-4.48c-1.393-1.554-2.442-3.36-3.148-5.419c-0.808-2.099-1.302-4.309-1.483-6.63L264.032,383.534z
		 M279.108,392.677c1.251,0.081,2.028,0.061,2.331-0.061l0.03,0.061l1.665-0.363c1.332-0.443,2.351-1.402,3.058-2.876
		c0.545-1.473,0.948-3.229,1.211-5.268l0.151-6.842l-0.091-3.209l-0.303-2.392l-0.121-0.121l-0.394-1.695l-0.121-0.061
		c-0.303-1.211-0.878-2.331-1.726-3.36c-0.646-0.524-1.161-0.867-1.544-1.029l-1.756-0.424l-1.847-0.091
		c-0.828-0.02-1.746,0.151-2.755,0.515c-0.929,0.444-1.706,1.241-2.331,2.392c-0.444,1.07-0.848,2.412-1.211,4.026l0.061,0.182
		c-0.121,0.102-0.192,0.435-0.212,0.999c-0.283,2.361-0.313,5.823-0.091,10.384l0.484,3.3l0.636,2.331
		c0.464,1.211,1.1,2.089,1.907,2.634C276.868,392.173,277.857,392.495,279.108,392.677z"/>
	<path d="M320.673,369.578h7.478v2.059c1.412-1.291,3.491-2.068,6.236-2.331h0.333c2.785,0,4.672,0.475,5.661,1.423
		c1.211,0.605,2.199,1.686,2.967,3.239c1.877-3.107,4.43-4.662,7.659-4.662h2.634c2.926,0.363,5.056,1.403,6.388,3.118
		c1.675,1.877,2.744,4.45,3.209,7.72v20.858h-7.538v-19.708c-0.605-3.007-2.19-4.511-4.753-4.511
		c-3.048-0.08-4.783,1.615-5.207,5.086v19.133h-7.538V381.99c-0.344-3.592-2.019-5.348-5.025-5.268
		c-2.785,0.081-4.35,1.816-4.692,5.207l-0.091,19.072h-7.78L320.673,369.578z"/>
</g>
</svg>
