<?xml version="1.0" encoding="utf-8"?>
<!-- Generator: Adobe Illustrator 16.0.2, SVG Export Plug-In . SVG Version: 6.00 Build 0)  -->
<!DOCTYPE svg PUBLIC "-//W3C//DTD SVG 1.1//EN" "http://www.w3.org/Graphics/SVG/1.1/DTD/svg11.dtd">
<svg version="1.1" id="Ebene_1" xmlns="http://www.w3.org/2000/svg" xmlns:xlink="http://www.w3.org/1999/xlink" x="0px" y="0px"
	 width="576px" height="576px" viewBox="0 0 576 576" style="enable-background:new 0 0 576 576;" xml:space="preserve">
<circle style="fill:#FFFFFF;stroke:#000000;stroke-width:2;stroke-linecap:round;stroke-linejoin:round;" cx="287.969" cy="287.969" r="286.969"/>
<circle style="fill:#FF0000;stroke:#FF0000;stroke-width:0.1764;stroke-linecap:round;stroke-linejoin:round;" cx="287.969" cy="287.969" r="273.982"/>
<circle style="fill:#FFFFFF;stroke:#FF0000;stroke-width:0.1764;stroke-linecap:round;stroke-linejoin:round;" cx="287.969" cy="287.969" r="192.438"/>
<polygon style="fill:none;stroke:#000000;stroke-width:0.1764;stroke-linecap:round;stroke-linejoin:round;" points="
	449.084,287.969 479.5,309.266 479.5,287.969 479.5,266.673 "/>
<polygon style="fill:none;stroke:#000000;stroke-width:0.1764;stroke-linecap:round;stroke-linejoin:round;" points="
	127.541,287.969 97.125,309.266 97.125,287.969 97.125,266.673 "/>
<path d="M479.5,287.969v18.657c-0.08,0.819-0.165,1.642-0.257,2.46l-30.159-21.117l30.159-21.117c0.092,0.819,0.177,1.64,0.257,2.46
	V287.969z M127.541,287.969l-30.417,21.297v-21.297v-21.296L127.541,287.969z"/>
<g>
	<rect x="117.621" y="214.968" style="fill:none;" width="293" height="223"/>
	<path d="M179.145,215.232c5.801,0.938,12.217,3.897,19.248,8.877c2.109,1.7,4.423,4.366,6.943,7.998l3.076,5.625l1.143,2.725
		l-0.264,0.264c1.464,3.985,2.197,7.793,2.197,11.426c-0.352,7.031-0.997,11.573-1.934,13.623c-1.582,4.219-2.988,7.237-4.219,9.053
		l-2.021,2.9l-4.482,4.922l-36.65,36.475h51.24v25.137H126.85l0.088-25.4l54.053-54.581c1.699-2.05,2.9-3.925,3.604-5.625
		c1.815-5.917,0.967-10.898-2.549-14.941c-3.223-3.105-7.765-4.658-13.623-4.658l-5.186,0.703l-2.373,1.143l-1.494,0.088
		l-3.252,2.549l-1.846,2.197c-1.173,2.109-1.964,3.75-2.373,4.922l-0.527,3.076c-0.235,0.646-0.382,0.879-0.439,0.703l-23.73,0.088
		l-0.176-0.615l0.176-4.307l0.352-0.527c0.233-3.691,1.435-7.822,3.604-12.393l4.043-6.768l3.252-3.604l0.527-0.176
		c6.21-5.566,13.125-9.022,20.742-10.371c4.452-0.761,8.495-1.143,12.129-1.143C174.544,214.617,176.976,214.823,179.145,215.232z"
		/>
</g>
<g>
	<rect x="215.621" y="226.968" style="fill:none;" width="293" height="223"/>
	<path d="M220.153,320.563h25.625l-7.031,43.984h-18.594V320.563z"/>
</g>
<g>
	<rect x="247.121" y="257.407" style="fill:none;" width="293" height="223"/>
	<path d="M312.121,257.47l-0.063,17.837H280.7l-2.158,15.869c2.961-0.846,6.094-1.205,9.395-1.078
		c3.089-0.085,6.241,0.254,9.458,1.016c4.654,1.481,8.801,4.084,12.441,7.807c5.035,5.502,7.893,11.596,8.569,18.281
		c0.042,0.975,0.063,1.927,0.063,2.857c0,4.063-0.529,7.575-1.587,10.537c-1.946,4.528-4.612,8.591-7.998,12.188
		c-5.586,5.247-12.399,7.871-20.439,7.871h-1.27l-5.84-0.381c-6.094-0.677-11.384-2.814-15.869-6.412
		c-5.798-5.332-9.374-10.812-10.728-16.439l18.281-4.635c0.549,2.498,1.989,4.74,4.316,6.729c3.512,2.582,8.463,3.111,14.854,1.588
		c5.289-2.158,7.766-5.925,7.427-11.299c0.127-4.866-2.073-8.316-6.602-10.348c-3.132-0.93-6.665-1.184-10.601-0.762
		c-3.005,0.635-5.692,1.8-8.062,3.492l-15.806-12.379l4.697-42.338H312.121z"/>
</g>
<g>
	<rect x="333" y="245.968" style="fill:none;" width="293" height="223"/>
	<path d="M341.875,275.921h17.126v4.715c3.235-2.958,7.997-4.738,14.283-5.339h0.763c6.379,0,10.701,1.086,12.966,3.259
		c2.773,1.387,5.038,3.86,6.795,7.419c4.299-7.118,10.146-10.678,17.542-10.678h6.032c6.702,0.832,11.579,3.213,14.63,7.142
		c3.836,4.299,6.285,10.192,7.35,17.68v47.773h-17.265v-45.139c-1.387-6.887-5.017-10.33-10.886-10.33
		c-6.98-0.185-10.955,3.698-11.926,11.648v43.82h-17.265V304.35c-0.786-8.228-4.622-12.249-11.51-12.064
		c-6.379,0.185-9.962,4.16-10.747,11.926l-0.208,43.682h-17.819L341.875,275.921z"/>
</g>
</svg>
