<?xml version="1.0" encoding="UTF-8" standalone="no"?>
<!-- Generator: Adobe Illustrator 16.0.2, SVG Export Plug-In . SVG Version: 6.00 Build 0)  -->

<svg
   xmlns:dc="http://purl.org/dc/elements/1.1/"
   xmlns:cc="http://creativecommons.org/ns#"
   xmlns:rdf="http://www.w3.org/1999/02/22-rdf-syntax-ns#"
   xmlns:svg="http://www.w3.org/2000/svg"
   xmlns="http://www.w3.org/2000/svg"
   xmlns:sodipodi="http://sodipodi.sourceforge.net/DTD/sodipodi-0.dtd"
   xmlns:inkscape="http://www.inkscape.org/namespaces/inkscape"
   version="1.1"
   id="Ebene_1"
   x="0px"
   y="0px"
   width="576px"
   height="576px"
   viewBox="0 0 576 576"
   style="enable-background:new 0 0 576 576;"
   xml:space="preserve"
   inkscape:version="0.91 r13725"
   sodipodi:docname="France_road_sign_B12.svg"><metadata
     id="metadata25"><rdf:RDF><cc:Work
         rdf:about=""><dc:format>image/svg+xml</dc:format><dc:type
           rdf:resource="http://purl.org/dc/dcmitype/StillImage" /></cc:Work></rdf:RDF></metadata><defs
     id="defs23" /><sodipodi:namedview
     pagecolor="#ffffff"
     bordercolor="#666666"
     borderopacity="1"
     objecttolerance="10"
     gridtolerance="10"
     guidetolerance="10"
     inkscape:pageopacity="0"
     inkscape:pageshadow="2"
     inkscape:window-width="1440"
     inkscape:window-height="788"
     id="namedview21"
     showgrid="false"
     inkscape:zoom="0.97314399"
     inkscape:cx="111.76709"
     inkscape:cy="288.53104"
     inkscape:window-x="0"
     inkscape:window-y="1"
     inkscape:window-maximized="1"
     inkscape:current-layer="Ebene_1" /><circle
     style="fill:#FFFFFF;stroke:#000000;stroke-width:2;stroke-linecap:round;stroke-linejoin:round;"
     cx="287.969"
     cy="287.969"
     r="286.969"
     id="circle3" /><path
     d="M293.813,95.969h29.835c1.313,0.082,2.624,0.167,3.935,0.26l-33.77,30.604l-33.77-30.604  c1.311-0.093,2.623-0.178,3.934-0.26H293.813z M293.813,453.105l34.057,30.862h-34.057h-34.056L293.813,453.105z"
     id="path5" /><path
     style="fill:#FF0000;stroke:#FF0000;stroke-width:0.1764;stroke-linecap:round;stroke-linejoin:round;"
     d="M287.969,13.986  c-151.316,0-273.982,122.667-273.982,273.982c0,151.316,122.666,273.982,273.982,273.982c151.315,0,273.981-122.666,273.981-273.982  C561.95,136.653,439.284,13.986,287.969,13.986z M287.969,480.407c-106.28,0-192.438-86.158-192.438-192.438  c0-106.28,86.157-192.438,192.438-192.438s192.438,86.157,192.438,192.438C480.406,394.25,394.248,480.407,287.969,480.407z"
     id="path7" /><g
     id="g4158"
     transform="translate(-8.9765059,0)"><path
       d="m 184.168,231.358 c 4.27,0.886 8.333,2.605 12.188,5.156 l 5.313,4.531 c 2.344,2.813 3.854,4.792 4.531,5.938 l 2.422,4.844 c 1.354,3.959 2.083,7.996 2.188,12.109 l -0.391,5.938 -1.328,4.375 c -1.511,3.75 -3.855,7.553 -7.031,11.406 l 0.391,1.016 3.75,4.14 2.422,3.672 2.188,5.469 c 1.197,3.803 1.797,7.527 1.797,11.172 0,7.396 -2.475,14.428 -7.422,21.094 -7.5,9.012 -17.214,13.725 -29.141,14.141 -4.324,0 -7.891,-0.26 -10.703,-0.781 -3.646,-0.988 -6.225,-1.822 -7.734,-2.5 l -4.688,-2.344 -3.984,-2.891 -3.594,-3.203 -3.672,-4.766 c -2.136,-3.488 -3.646,-6.797 -4.531,-9.922 l -0.078,-0.703 20.547,-5.625 c 0.989,3.906 3.463,6.875 7.422,8.906 2.447,0.99 6.067,1.537 10.859,1.641 l 3.672,-0.391 2.969,-0.938 2.266,-1.328 c 1.563,-1.041 2.969,-2.578 4.219,-4.609 0.625,-1.301 1.094,-3.072 1.406,-5.313 0.104,-1.822 0,-2.863 -0.313,-3.125 0.104,-0.832 -0.261,-2.109 -1.094,-3.828 l -1.953,-2.734 c -1.406,-1.406 -2.631,-2.369 -3.672,-2.891 -1.303,-0.729 -3.047,-1.328 -5.234,-1.797 l -8.516,-0.234 0,-21.171 c 1.145,0.105 3.411,-0.051 6.797,-0.469 l 0.156,0.156 c 6.197,-0.729 10.104,-4.114 11.719,-10.156 l -0.156,-3.516 0.156,-0.547 -0.313,-1.094 -1.484,-2.891 c -1.459,-1.822 -2.787,-3.02 -3.984,-3.594 -0.209,-0.156 -1.98,-0.625 -5.313,-1.406 l -4.922,0.156 0,-0.156 -4.844,0.781 -3.438,1.484 -1.406,1.094 -1.563,2.266 -1.172,2.891 -20.313,-6.094 1.328,-3.516 0.469,-0.469 c -0.105,-0.26 0.494,-1.563 1.797,-3.906 l 2.188,-3.516 3.125,-3.594 c 1.145,-0.625 1.719,-1.094 1.719,-1.406 l 1.641,-1.172 c 4.063,-3.02 8.801,-4.947 14.219,-5.781 2.708,-0.416 5.963,-0.625 9.766,-0.625 2.758,0.001 5.545,0.21 8.357,0.626 z"
       id="path13"
       inkscape:connector-curvature="0" /><path
       d="m 225.34,325.029 25.625,0 -7.031,43.984 -18.594,0 0,-43.984 z"
       id="path15"
       inkscape:connector-curvature="0" /><path
       d="m 327.97613,255.711 -0.0616,17.35138 -30.50423,0 -2.09927,15.43707 c 2.88096,-0.8228 5.92791,-1.17294 9.13926,-1.04964 3.00426,-0.0822 6.07176,0.24739 9.2009,0.98799 4.52813,1.44167 8.56148,3.97328 12.10321,7.59484 4.89804,5.35171 7.67704,11.27962 8.33622,17.78372 0.0403,0.94768 0.0616,1.87401 0.0616,2.77901 0,3.95194 -0.51533,7.36957 -1.54362,10.25054 -1.89377,4.40562 -4.48783,8.35756 -7.78058,11.85582 -5.43392,5.10511 -12.0629,7.65727 -19.883,7.65727 l -1.23538,0 -5.68131,-0.37069 c -5.9279,-0.6576 -11.07491,-2.73711 -15.43706,-6.23695 -5.641,-5.18732 -9.11871,-10.51769 -10.43549,-15.99271 l 17.78372,-4.50758 c 0.53431,2.42965 1.93408,4.61112 4.19934,6.5452 3.41605,2.51185 8.23268,3.02561 14.44908,1.54363 5.14542,-2.09927 7.55373,-5.76272 7.22493,-10.99113 0.1233,-4.73285 -2.01786,-8.08883 -6.4219,-10.0648 -3.04694,-0.905 -6.48355,-1.1516 -10.31219,-0.74139 -2.92364,0.6173 -5.53746,1.75071 -7.84223,3.3963 l -15.37541,-12.04077 4.56923,-41.18632 47.54578,0 z"
       id="path17"
       inkscape:connector-curvature="0" /><path
       d="m 364.15,277.869 16.282,0 0,4.482 c 3.075,-2.812 7.602,-4.504 13.578,-5.076 l 0.726,0 c 6.064,0 10.173,1.033 12.327,3.098 2.637,1.318 4.789,3.67 6.459,7.053 4.088,-6.767 9.646,-10.151 16.678,-10.151 l 5.734,0 c 6.372,0.791 11.009,3.055 13.909,6.79 3.647,4.087 5.976,9.69 6.987,16.81 l 0,45.416 -16.414,0 0,-42.912 c -1.318,-6.547 -4.769,-9.821 -10.349,-9.821 -6.636,-0.175 -10.415,3.517 -11.338,11.074 l 0,41.659 -16.413,0 0,-41.396 c -0.748,-7.821 -4.396,-11.646 -10.943,-11.47 -6.064,0.176 -9.47,3.955 -10.217,11.338 l -0.197,41.527 -16.941,0 0.132,-68.421 z"
       id="path19"
       inkscape:connector-curvature="0" /></g></svg>