<?xml version="1.0" encoding="utf-8"?>
<!-- Generator: Adobe Illustrator 16.0.2, SVG Export Plug-In . SVG Version: 6.00 Build 0)  -->
<!DOCTYPE svg PUBLIC "-//W3C//DTD SVG 1.1//EN" "http://www.w3.org/Graphics/SVG/1.1/DTD/svg11.dtd">
<svg version="1.1" id="Ebene_1" xmlns="http://www.w3.org/2000/svg" xmlns:xlink="http://www.w3.org/1999/xlink" x="0px" y="0px"
	 width="576px" height="576px" viewBox="0 0 576 576" style="enable-background:new 0 0 576 576;" xml:space="preserve">
<circle style="fill:#FFFFFF;stroke:#000000;stroke-width:2;stroke-linecap:round;stroke-linejoin:round;" cx="287.969" cy="287.969" r="286.969"/>
<circle style="fill:#FF0000;stroke:#FF0000;stroke-width:0.1764;stroke-linecap:round;stroke-linejoin:round;" cx="287.969" cy="287.969" r="273.982"/>
<circle style="fill:#FFFFFF;stroke:#FF0000;stroke-width:0.1764;stroke-linecap:round;stroke-linejoin:round;" cx="286.635" cy="287.635" r="192.438"/>
<polygon points="260.968,384.635 245.468,384.635 245.468,337.302 267.802,337.302 "/>
<g>
	<rect x="129.072" y="231.615" style="fill:none;" width="406.879" height="247.532"/>
	<path d="M223.572,231.708l-0.092,25.932H177.89l-3.138,23.071c4.306-1.23,8.859-1.753,13.658-1.569
		c4.49-0.123,9.074,0.369,13.75,1.477c6.767,2.154,12.796,5.938,18.088,11.351c7.321,7.999,11.474,16.858,12.458,26.578
		c0.061,1.416,0.092,2.8,0.092,4.153c0,5.906-0.77,11.014-2.307,15.318c-2.831,6.584-6.707,12.49-11.628,17.719
		c-8.121,7.629-18.027,11.443-29.716,11.443h-1.846l-8.49-0.553c-8.859-0.984-16.551-4.092-23.071-9.32
		c-8.43-7.752-13.628-15.721-15.596-23.902l26.578-6.737c0.799,3.631,2.891,6.892,6.275,9.782
		c5.106,3.754,12.304,4.521,21.595,2.307c7.69-3.137,11.289-8.612,10.797-16.426c0.185-7.074-3.015-12.09-9.598-15.043
		c-4.554-1.353-9.69-1.722-15.412-1.107c-4.369,0.923-8.275,2.615-11.72,5.076l-22.979-17.996l6.829-61.554H223.572z"/>
</g>
<g>
	<rect x="275.633" y="260.869" style="fill:none;" width="406.879" height="247.532"/>
	<path d="M345.633,260.937l-0.068,19.209h-33.77l-2.324,17.09c3.189-0.912,6.563-1.299,10.117-1.162
		c3.326-0.092,6.722,0.273,10.186,1.094c5.013,1.596,9.479,4.398,13.398,8.408c5.423,5.924,8.499,12.486,9.229,19.688
		c0.045,1.049,0.068,2.074,0.068,3.076c0,4.375-0.57,8.158-1.709,11.348c-2.097,4.877-4.968,9.252-8.613,13.125
		c-6.016,5.65-13.354,8.477-22.012,8.477h-1.367l-6.289-0.41c-6.563-0.729-12.26-3.031-17.09-6.904
		c-6.244-5.742-10.095-11.645-11.553-17.705l19.688-4.99c0.592,2.689,2.142,5.104,4.648,7.246c3.782,2.779,9.114,3.35,15.996,1.709
		c5.696-2.324,8.362-6.381,7.998-12.168c0.137-5.24-2.233-8.955-7.109-11.143c-3.373-1.002-7.178-1.275-11.416-0.82
		c-3.236,0.684-6.13,1.938-8.682,3.76l-17.021-13.33l5.059-45.596H345.633z"/>
</g>
<g>
	<rect x="372.561" y="237.203" style="fill:none;" width="406.879" height="247.532"/>
	<path d="M392.781,257.593l21.58-5.607v20.136h16.228v20.22h-16.228v44.436c0.51,4.531,3.256,6.826,8.241,6.881
		c3.398-0.17,6.598-1.217,9.601-3.143l6.117,17.842c-5.042,2.662-11.018,4.162-17.927,4.502h-0.34
		c-8.156,0-14.671-2.152-19.541-6.457c-4.532-3.963-7.137-10.648-7.816-20.051v-44.01h-10.875l-0.085-20.56h11.13L392.781,257.593z"
		/>
</g>
</svg>
