<?xml version="1.0" encoding="utf-8"?>
<!-- Generator: Adobe Illustrator 16.0.2, SVG Export Plug-In . SVG Version: 6.00 Build 0)  -->
<!DOCTYPE svg PUBLIC "-//W3C//DTD SVG 1.1//EN" "http://www.w3.org/Graphics/SVG/1.1/DTD/svg11.dtd">
<svg version="1.1" id="Ebene_1" xmlns="http://www.w3.org/2000/svg" xmlns:xlink="http://www.w3.org/1999/xlink" x="0px" y="0px"
	 width="554px" height="552px" viewBox="0 0 554 552" style="enable-background:new 0 0 554 552;" xml:space="preserve">
<ellipse style="fill:#FFFFFF;stroke:#000000;stroke-width:2;" cx="276.991" cy="275.32" rx="275.99" ry="274.321"/>
<ellipse style="fill:#FF0000;" cx="276.991" cy="275.32" rx="262.848" ry="261.258"/>
<ellipse style="fill:#FFFFFF;" cx="276.991" cy="275.32" rx="185.666" ry="184.543"/>
<path d="M399.323,330.414v-42.17H361.99v44.334h-59.542c-3.587-9.723-13.032-16.667-24.124-16.667s-20.538,6.944-24.125,16.667
	H193.99v-44.334h-37.333v42.17c-4.913,0.927-8.667,5.863-8.667,11.83s3.754,10.902,8.667,11.83v40.837h37.333v-43.667h60.746
	c3.931,9.018,13.011,15.333,23.587,15.333c10.575,0,19.655-6.316,23.584-15.333h60.081v43.667h37.333v-40.837
	c4.913-0.928,8.667-5.863,8.667-11.83S404.237,331.341,399.323,330.414z"/>
<g>
	<rect x="176.621" y="146.509" style="fill:none;" width="293" height="223"/>
	<path d="M234.727,146.758c5.479,0.886,11.538,3.681,18.179,8.384c1.992,1.605,4.178,4.123,6.558,7.554l2.905,5.313l1.079,2.573
		l-0.249,0.249c1.383,3.764,2.075,7.36,2.075,10.791c-0.332,6.641-0.941,10.93-1.826,12.866c-1.494,3.984-2.822,6.835-3.984,8.55
		l-1.909,2.739l-4.233,4.648l-34.614,34.448H267.1v23.74h-81.763l0.083-23.989l51.05-51.548c1.604-1.937,2.739-3.707,3.403-5.313
		c1.715-5.589,0.913-10.293-2.407-14.111c-3.044-2.933-7.333-4.399-12.866-4.399l-4.897,0.664l-2.241,1.079l-1.411,0.083
		l-3.071,2.407l-1.743,2.075c-1.107,1.992-1.854,3.542-2.241,4.648l-0.498,2.905c-0.222,0.609-0.36,0.83-0.415,0.664l-22.412,0.083
		l-0.166-0.581l0.166-4.067l0.332-0.498c0.221-3.486,1.355-7.388,3.403-11.704l3.818-6.392l3.071-3.403l0.498-0.166
		c5.865-5.257,12.396-8.521,19.59-9.795c4.205-0.719,8.023-1.079,11.455-1.079C230.382,146.177,232.679,146.372,234.727,146.758z"/>
</g>
<g>
	<rect x="292.99" y="146.509" style="fill:none;" width="406.879" height="247.532"/>
	<path d="M313.21,166.9l21.58-5.607v20.136h16.228v20.221H334.79v44.435c0.51,4.532,3.257,6.826,8.241,6.882
		c3.398-0.17,6.598-1.217,9.601-3.144l6.117,17.842c-5.042,2.663-11.017,4.163-17.927,4.503h-0.34
		c-8.156,0-14.67-2.152-19.541-6.457c-4.532-3.964-7.137-10.648-7.816-20.051v-44.01H302.25l-0.085-20.561h11.13L313.21,166.9z"/>
</g>
</svg>
