<?xml version="1.0" encoding="UTF-8" standalone="no"?>
<!-- Generator: Adobe Illustrator 16.0.3, SVG Export Plug-In . SVG Version: 6.00 Build 0)  -->

<svg
   version="1.1"
   id="France_road_signs_B14"
   x="0px"
   y="0px"
   width="581px"
   height="581px"
   viewBox="1.56 1.561 581 581"
   enable-background="new 1.56 1.561 581 581"
   xml:space="preserve"
   sodipodi:docname="France_road_sign_B14_(50).svg"
   inkscape:version="1.1.1 (3bf5ae0d25, 2021-09-20)"
   xmlns:inkscape="http://www.inkscape.org/namespaces/inkscape"
   xmlns:sodipodi="http://sodipodi.sourceforge.net/DTD/sodipodi-0.dtd"
   xmlns="http://www.w3.org/2000/svg"
   xmlns:svg="http://www.w3.org/2000/svg"><defs
   id="defs13" /><sodipodi:namedview
   id="namedview11"
   pagecolor="#ffffff"
   bordercolor="#666666"
   borderopacity="1.0"
   inkscape:pageshadow="2"
   inkscape:pageopacity="0.0"
   inkscape:pagecheckerboard="0"
   showgrid="false"
   inkscape:zoom="0.61876076"
   inkscape:cx="348.27677"
   inkscape:cy="333.73157"
   inkscape:window-width="1920"
   inkscape:window-height="991"
   inkscape:window-x="-9"
   inkscape:window-y="-9"
   inkscape:window-maximized="1"
   inkscape:current-layer="France_road_signs_B14" />
<circle
   fill="#FFFFFF"
   stroke="#000000"
   stroke-width="0.9931"
   stroke-linecap="round"
   stroke-linejoin="round"
   cx="291.56"
   cy="291.561"
   r="285"
   id="circle2" />
<circle
   fill="#FF0000"
   stroke="#FF0000"
   stroke-width="0.1752"
   stroke-linecap="round"
   stroke-linejoin="round"
   cx="291.56"
   cy="291.561"
   r="272.101"
   id="circle4" />
<circle
   fill="#FFFFFF"
   stroke="#FF0000"
   stroke-width="0.1752"
   stroke-linecap="round"
   stroke-linejoin="round"
   cx="291.56"
   cy="291.562"
   r="191.118"
   id="circle6" />

<g
   id="g8164"
   transform="translate(0,2.3774546)"><path
     d="m 269.68956,180.87502 -0.1469,41.27855 h -72.56798 l -4.99455,36.72468 c 16.47578,-4.41467 38.21546,-3.43044 51.57624,2.54281 21.41923,9.57597 40.82305,35.33096 40.82305,64.29611 0,41.60078 -31.65297,70.8052 -69.48309,70.8052 -14.58936,0 -27.27254,-1.64568 -38.43019,-6.61424 -18.61527,-8.28948 -32.41595,-24.40746 -39.57304,-47.1507 l 42.30683,-10.72362 c 3.86192,13.69109 13.74847,21.16259 30.49736,21.16259 15.75161,0 31.05322,-7.00828 31.05322,-27.1109 0,-19.78816 -14.02909,-27.17517 -29.03363,-27.17517 -12.58643,0 -22.53627,2.88999 -29.43208,8.59139 l -36.57777,-28.64525 10.8705,-97.98145 z"
     style="font-size:269.74px;line-height:1.25;font-family:'Caracteres L1';-inkscape-font-specification:'Caracteres L1';opacity:1;fill:#000000;stroke-width:16.1169"
     id="path3517"
     sodipodi:nodetypes="ccccsccsccssscccc" /><path
     id="rect5362"
     style="opacity:1;fill:#000000;stroke-width:6.36384;stroke-linecap:round;stroke-linejoin:round;stroke-dashoffset:6.67087;paint-order:stroke fill markers"
     d="m 375.7199,179.29541 c -63.15824,0 -78.34527,52.46518 -78.34527,114.66749 0,57.0168 15.18703,105.10879 78.34527,105.10879 63.15823,0 78.34527,-48.09199 78.34527,-105.10879 0,-62.20231 -15.18704,-114.66749 -78.34527,-114.66749 z m 0,42.26484 c 32.04978,0 35.40948,28.03757 35.40948,67.69736 0,39.65978 -3.3597,67.6952 -35.40948,67.6952 -32.04978,0 -35.40949,-28.03542 -35.40949,-67.6952 0,-39.65979 3.35971,-67.69736 35.40949,-67.69736 z" /></g></svg>
