<?xml version="1.0" encoding="utf-8"?>
<!-- Generator: Adobe Illustrator 13.0.0, SVG Export Plug-In . SVG Version: 6.00 Build 14948)  -->
<!DOCTYPE svg PUBLIC "-//W3C//DTD SVG 1.1//EN" "http://www.w3.org/Graphics/SVG/1.1/DTD/svg11.dtd">
<svg version="1.1" id="Layer_1" xmlns="http://www.w3.org/2000/svg" xmlns:xlink="http://www.w3.org/1999/xlink" x="0px" y="0px"
	 width="576px" height="576px" viewBox="-0.943 -0.943 576 576" enable-background="new -0.943 -0.943 576 576"
	 xml:space="preserve">
<circle fill="#FFFFFF" stroke="#000000" stroke-linecap="round" stroke-linejoin="round" cx="287.057" cy="287.057" r="286.969"/>
<circle fill="#FF0000" stroke="#FF0000" stroke-width="0.1764" stroke-linecap="round" stroke-linejoin="round" cx="287.057" cy="287.057" r="273.982"/>
<path fill="#FFFFFF" stroke="#FF0000" stroke-width="0.1764" stroke-linecap="round" stroke-linejoin="round" d="M444.894,397.146
	c56.203-80.578,42.686-190.557-31.359-255.126c-74.045-64.569-184.839-62.997-257.021,3.649l283.008,246.793L444.894,397.146z"/>
<path fill="#FFFFFF" stroke="#FF0000" stroke-width="0.1764" stroke-linecap="round" stroke-linejoin="round" d="M417.433,428.6
	c-72.261,66.562-183.058,68.002-257.025,3.346c-73.968-64.657-87.355-174.651-31.057-255.164l282.715,247.128L417.433,428.6z"/>
<polygon stroke="#000000" stroke-width="0.1764" stroke-linecap="round" stroke-linejoin="round" points="278.746,307.371 
	199.56,238.207 181.782,229.319 167.052,215.988 167.052,358.932 183.306,344.119 226.988,322.641 "/>
<polygon stroke="#000000" stroke-width="0.1764" stroke-linecap="round" stroke-linejoin="round" points="334.357,300.421 
	298.802,270.055 339.945,275.239 356.199,275.239 380.071,273.018 401.912,267.092 409.531,261.167 411.562,251.539 
	430.864,251.539 430.864,318.938 411.054,318.938 408.514,313.012 401.404,307.087 379.054,301.162 356.199,299.68 "/>
</svg>
