<?xml version="1.0" encoding="utf-8"?>
<!-- Generator: Adobe Illustrator 13.0.0, SVG Export Plug-In  -->
<!DOCTYPE svg PUBLIC "-//W3C//DTD SVG 1.1//EN" "http://www.w3.org/Graphics/SVG/1.1/DTD/svg11.dtd" [
	<!ENTITY ns_flows "http://ns.adobe.com/Flows/1.0/">
]>
<svg version="1.1"
	 xmlns="http://www.w3.org/2000/svg" xmlns:xlink="http://www.w3.org/1999/xlink" xmlns:a="http://ns.adobe.com/AdobeSVGViewerExtensions/3.0/"
	 x="0px" y="0px" width="576px" height="576px" viewBox="-0.531 -0.531 576 576" enable-background="new -0.531 -0.531 576 576"
	 xml:space="preserve">
<defs>
</defs>
<circle fill="#FFFFFF" stroke="#000000" stroke-linecap="round" stroke-linejoin="round" cx="287.469" cy="287.469" r="286.969"/>
<circle fill="#FF0000" stroke="#FF0000" stroke-width="0.1764" stroke-linecap="round" stroke-linejoin="round" cx="287.469" cy="287.469" r="273.982"/>
<circle fill="#FFFFFF" stroke="#FFFFFF" stroke-width="0.1764" stroke-linecap="round" stroke-linejoin="round" cx="287.469" cy="287.469" r="192.438"/>
<polygon stroke="#000000" stroke-width="0.1764" stroke-linecap="round" stroke-linejoin="round" points="214.323,312.755 
	197.858,330.145 197.507,367.479 210.119,378.732 210.469,407.885 228.687,407.885 229.037,379.755 340.094,379.243 
	340.094,408.396 358.661,408.396 358.312,378.732 372.324,366.969 371.624,330.655 362.164,313.267 334.138,317.869 
	339.743,327.587 304.359,325.541 304.71,343.953 291.396,332.701 285.792,343.953 276.332,333.213 271.077,339.351 262.319,324.519 
	225.184,328.099 225.534,314.801 "/>
<circle fill="#FFFFFF" stroke="#FFFFFF" stroke-width="0.1764" stroke-linecap="round" stroke-linejoin="round" cx="226.329" cy="349.524" r="6.369"/>
<circle fill="#FFFFFF" stroke="#FFFFFF" stroke-width="0.1764" stroke-linecap="round" stroke-linejoin="round" cx="343.273" cy="349.524" r="6.628"/>
<polygon fill="#FF0000" stroke="#FFFFFF" stroke-width="3" stroke-linecap="round" stroke-linejoin="round" points="
	213.077,312.354 169.319,307.245 208.702,298.303 198.2,286.806 210.452,279.142 204.326,265.089 218.328,263.812 185.072,229.321 
	225.33,238.263 199.075,185.887 234.081,199.939 232.331,190.997 248.084,198.662 249.834,165.448 262.961,187.165 283.09,137.344 
	301.468,193.552 311.095,187.165 318.096,196.106 346.102,166.726 339.101,199.939 381.982,189.72 355.729,217.824 363.604,221.656 
	348.727,238.263 388.109,236.985 360.104,258.702 381.982,256.146 346.102,295.748 398.611,305.967 333.849,317.465 
	339.976,327.685 304.969,325.129 304.969,344.291 291.842,332.794 285.715,344.291 276.964,332.794 270.837,339.182 
	262.086,325.129 225.33,327.685 225.33,314.91 "/>
<polygon fill="#FFE15F" stroke="#FFFFFF" stroke-width="4" points="258.469,306.469 251.469,313.469 268.469,307.469 
	273.842,322.794 280.469,315.469 287.469,330.469 289.469,311.469 301.469,319.469 302.469,309.469 327.469,321.469 
	315.849,307.465 339.469,305.469 324.469,298.469 337.469,283.469 321.469,274.469 340.469,258.469 320.469,258.469 
	324.469,236.469 299.469,243.469 286.469,191.469 274.469,241.469 241.469,230.469 253.469,258.469 226.469,253.469 
	257.469,282.469 231.469,285.469 248.34,295.698 236.469,304.469 "/>
</svg>
