<?xml version="1.0" encoding="utf-8"?>
<!-- Generator: Adobe Illustrator 13.0.0, SVG Export Plug-In . SVG Version: 6.00 Build 14948)  -->
<!DOCTYPE svg PUBLIC "-//W3C//DTD SVG 1.1//EN" "http://www.w3.org/Graphics/SVG/1.1/DTD/svg11.dtd">
<svg version="1.1" id="Layer_1" xmlns="http://www.w3.org/2000/svg" xmlns:xlink="http://www.w3.org/1999/xlink" x="0px" y="0px"
	 width="576px" height="576px" viewBox="-0.943 -0.943 576 576" enable-background="new -0.943 -0.943 576 576"
	 xml:space="preserve">
<circle fill="#FFFFFF" stroke="#000000" stroke-linecap="round" stroke-linejoin="round" cx="287.057" cy="287.057" r="286.969"/>
<circle fill="#FF0000" stroke="#FF0000" stroke-width="0.1764" stroke-linecap="round" stroke-linejoin="round" cx="287.057" cy="287.057" r="273.982"/>
<circle fill="#FFFFFF" stroke="#FF0000" stroke-width="0.1764" stroke-linecap="round" stroke-linejoin="round" cx="287.057" cy="287.057" r="192.438"/>
<line fill="none" stroke="#000000" stroke-width="3" stroke-linecap="round" stroke-linejoin="round" x1="185.715" y1="298.497" x2="388.61" y2="298.497"/>
<polygon stroke="#000000" stroke-width="0.1764" stroke-linecap="round" stroke-linejoin="round" points="189.01,250.514 
	189.01,292.828 193.432,297.668 206.696,298.475 210.013,294.441 210.565,279.112 274.127,279.919 275.233,284.759 278.549,287.987 
	281.866,290.407 287.393,291.214 291.261,290.407 294.026,287.987 296.79,284.759 297.894,279.919 361.457,279.919 362.009,293.634 
	366.43,297.668 377.485,298.475 382.46,295.249 382.46,250.874 379.143,246.84 366.43,246.033 361.457,250.066 361.457,262.976 
	210.565,262.976 210.307,259.765 210.294,250.399 206.303,246.63 193.703,246.516 "/>
<path fill="none" stroke="#000000" stroke-width="9" stroke-linecap="round" stroke-linejoin="round" d="M137.608,321.873
	c13.761-4.229,24.897-6.152,39.22-4.843c11.284,1.023,20.013,8.604,29.772,12.991c22.849,10.256,47.574-7.805,70.225-10.562
	c25.686-3.117,44.813,16.128,69.65,16.128c13.608,0,25.453-6.441,38.155-10.725c13.308-4.479,26.928-0.239,39.835,2.656"/>
<path fill="none" stroke="#000000" stroke-width="9" stroke-linecap="round" stroke-linejoin="round" d="M137.608,344.463
	c12.991-3.992,25.562-7.223,39.243-4.841c12.651,2.203,21.474,11.099,33.163,14.522c23.689,6.938,50.165-10.475,73.874-12.783
	c24.77-2.412,44.354,22.289,69.849,16.564c11.54-2.592,22.538-9.708,34.168-11.252c13.149-1.747,23.865,0.883,36.563,3.438"/>
<rect x="246.057" y="255.057" stroke="#000000" stroke-width="0.1764" stroke-linecap="round" stroke-linejoin="round" width="80" height="11"/>
<ellipse fill="#FF0000" stroke="#FF0000" stroke-width="0.1764" stroke-linecap="round" stroke-linejoin="round" cx="284.557" cy="212.057" rx="94.5" ry="51"/>
</svg>
