<?xml version="1.0" encoding="utf-8"?>
<!-- Generator: Adobe Illustrator 13.0.0, SVG Export Plug-In . SVG Version: 6.00 Build 14948)  -->
<!DOCTYPE svg PUBLIC "-//W3C//DTD SVG 1.1//EN" "http://www.w3.org/Graphics/SVG/1.1/DTD/svg11.dtd">
<svg version="1.1" id="Layer_1" xmlns="http://www.w3.org/2000/svg" xmlns:xlink="http://www.w3.org/1999/xlink" x="0px" y="0px"
	 width="576px" height="576px" viewBox="-0.943 -0.943 576 576" enable-background="new -0.943 -0.943 576 576"
	 xml:space="preserve">
<circle fill="#FFFFFF" stroke="#000000" stroke-linecap="round" stroke-linejoin="round" cx="287.057" cy="287.057" r="286.969"/>
<circle fill="#FF0000" stroke="#FF0000" stroke-width="0.1764" stroke-linecap="round" stroke-linejoin="round" cx="287.057" cy="287.057" r="273.982"/>
<circle fill="#FFFFFF" stroke="#FF0000" stroke-width="0.1764" stroke-linecap="round" stroke-linejoin="round" cx="287.057" cy="287.057" r="192.438"/>
<polygon stroke="#000000" stroke-width="0.1764" stroke-linecap="round" stroke-linejoin="round" points="212.728,351.661 
	216.385,345.848 231.682,345.848 236.004,350.691 236.336,356.991 243.652,357.475 243.652,368.619 277.57,366.682 284.885,362.805 
	293.531,366.195 328.114,368.619 328.114,357.475 335.096,356.991 335.096,351.176 340.085,345.361 354.383,345.361 
	359.371,351.176 359.371,393.329 354.716,399.143 340.085,399.627 335.428,394.298 335.096,387.999 328.114,387.999 
	328.114,376.371 293.531,378.309 285.883,382.186 277.237,378.793 243.32,375.886 243.32,387.999 236.004,387.999 236.004,393.813 
	232.347,398.659 215.721,399.143 212.396,393.813 "/>
<rect x="203.417" y="326.951" stroke="#000000" stroke-width="5" stroke-linecap="round" stroke-linejoin="round" width="167.925" height="4.845"/>
<polygon fill="none" stroke="#FFFF00" stroke-width="0.1764" stroke-linecap="round" stroke-linejoin="round" points="
	234.724,299.831 234.724,189.119 341.393,189.119 341.393,298.614 "/>
<polygon stroke="#000000" stroke-width="7" stroke-linecap="round" stroke-linejoin="round" points="212.223,313.213 
	224.724,175.736 350.56,175.736 363.061,314.43 "/>
<rect x="231.057" y="184.057" fill="#FFD01F" width="112" height="121"/>
</svg>
