<?xml version="1.0" encoding="utf-8"?>
<!-- Generator: Adobe Illustrator 15.0.0, SVG Export Plug-In  -->
<!DOCTYPE svg PUBLIC "-//W3C//DTD SVG 1.1//EN" "http://www.w3.org/Graphics/SVG/1.1/DTD/svg11.dtd" [
	<!ENTITY ns_flows "http://ns.adobe.com/Flows/1.0/">
]>
<svg version="1.1"
	 xmlns="http://www.w3.org/2000/svg" xmlns:xlink="http://www.w3.org/1999/xlink" xmlns:a="http://ns.adobe.com/AdobeSVGViewerExtensions/3.0/"
	 x="0px" y="0px" width="713px" height="713px" viewBox="-0.5 -0.25 713 713" enable-background="new -0.5 -0.25 713 713"
	 xml:space="preserve">
<defs>
</defs>
<path fill="#FFF700" stroke="#000000" stroke-width="3" stroke-miterlimit="10" d="M667.25,1.506V1.5h-623v0.025
	C21.368,2.034,2.849,18.552,1.722,39.25H1.5v632.5h0.274c0.511,21.479,19.716,38.75,43.35,38.75c0.294,0,0.583-0.015,0.876-0.021
	v0.021h621v-0.002c0.027,0,0.055,0.002,0.082,0.002c23.869,0,43.234-17.322,43.41-38.75h0.008V44.389
	c0.103-1.104,0.167-2.218,0.167-3.347C710.667,19.279,691.25,1.628,667.25,1.506z"/>
<circle fill="#FFFFFF" stroke="#000000" stroke-linecap="round" stroke-linejoin="round" cx="356.057" cy="356.307" r="286.969"/>
<circle fill="#FF0000" stroke="#FF0000" stroke-width="0.1764" stroke-linecap="round" stroke-linejoin="round" cx="356.057" cy="356.307" r="274.775"/>
<polygon fill="#FFFFFF" stroke="#FF0000" stroke-width="0.1764" stroke-linecap="round" stroke-linejoin="round" points="
	151.993,403.871 562.444,403.871 562.444,308.358 152.006,308.358 "/>
</svg>
