<?xml version="1.0" encoding="UTF-8" standalone="no"?>
<!-- Generator: Adobe Illustrator 13.0.0, SVG Export Plug-In . SVG Version: 6.00 Build 14948)  -->

<svg
   xmlns:dc="http://purl.org/dc/elements/1.1/"
   xmlns:cc="http://creativecommons.org/ns#"
   xmlns:rdf="http://www.w3.org/1999/02/22-rdf-syntax-ns#"
   xmlns:svg="http://www.w3.org/2000/svg"
   xmlns="http://www.w3.org/2000/svg"
   xmlns:sodipodi="http://sodipodi.sourceforge.net/DTD/sodipodi-0.dtd"
   xmlns:inkscape="http://www.inkscape.org/namespaces/inkscape"
   version="1.1"
   id="Layer_1"
   x="0px"
   y="0px"
   width="577.13751"
   height="577.13751"
   viewBox="-0.943 -0.943 577.13751 577.13751"
   enable-background="new -0.943 -0.943 576 576"
   xml:space="preserve"
   inkscape:version="0.48.2 r9819"
   sodipodi:docname="AJAX1.svg"><metadata
   id="metadata13"><rdf:RDF><cc:Work
       rdf:about=""><dc:format>image/svg+xml</dc:format><dc:type
         rdf:resource="http://purl.org/dc/dcmitype/StillImage" /><dc:title></dc:title></cc:Work></rdf:RDF></metadata><defs
   id="defs11" /><sodipodi:namedview
   pagecolor="#ffffff"
   bordercolor="#666666"
   borderopacity="1"
   objecttolerance="10"
   gridtolerance="10"
   guidetolerance="10"
   inkscape:pageopacity="0"
   inkscape:pageshadow="2"
   inkscape:window-width="1280"
   inkscape:window-height="1004"
   id="namedview9"
   showgrid="false"
   fit-margin-top="0.1"
   fit-margin-left="0.1"
   fit-margin-right="0.1"
   fit-margin-bottom="0.1"
   inkscape:zoom="0.40972222"
   inkscape:cx="-92.182513"
   inkscape:cy="288.57414"
   inkscape:window-x="-8"
   inkscape:window-y="-8"
   inkscape:window-maximized="1"
   inkscape:current-layer="Layer_1" />
<circle
   cx="287.05701"
   cy="287.05701"
   r="286.96899"
   id="circle3"
   style="fill:#ffffff;stroke:#000000;stroke-width:3;stroke-linecap:round;stroke-linejoin:round;stroke-miterlimit:4;stroke-opacity:1;stroke-dasharray:none"
   sodipodi:cx="287.05701"
   sodipodi:cy="287.05701"
   sodipodi:rx="286.96899"
   sodipodi:ry="286.96899"
   transform="translate(0.56325,0.56325)" />
<circle
   cx="287.05701"
   cy="287.05701"
   r="261.66599"
   id="circle5"
   style="fill:#003399;fill-opacity:1;stroke:none"
   sodipodi:cx="287.05701"
   sodipodi:cy="287.05701"
   sodipodi:rx="261.66599"
   sodipodi:ry="261.66599"
   transform="translate(0.56325,0.56325)" />
<path
   d="m 287.62025,495.83725 h 24.596 v -166.688 c -2.247,-12.669 0.943,-25.697 8.789,-35.896 7.845,-10.196 19.621,-16.621 32.442,-17.696 h 78.565 l -59.653,64.384 h 55.956 l 86.143,-94.666 -86.462,-94.369 h -54.763 l 58.89,70.585 h -78.675 c -33.263,0 -61.396,24.604 -65.827,57.567 -4.434,-32.964 -32.566,-57.567 -65.827,-57.567 h -78.675 l 58.889,-70.585 h -54.763 l -86.462,94.369 86.142,94.666 h 55.956 l -59.654,-64.384 h 78.567 c 12.821,1.076 24.597,7.5 32.441,17.696 7.847,10.197 11.036,23.228 8.789,35.896 v 166.688 h 24.596 z"
   id="path7"
   inkscape:connector-curvature="0"
   style="fill:#ffffff;stroke:none;stroke-width:0.17640001000000000;stroke-linecap:round;stroke-linejoin:round" />
</svg>