<?xml version="1.0" encoding="UTF-8" standalone="no"?>
<!-- Generator: Adobe Illustrator 13.0.0, SVG Export Plug-In . SVG Version: 6.00 Build 14948)  -->

<svg
   version="1.1"
   id="Layer_1"
   x="0px"
   y="0px"
   width="577.13751"
   height="577.13751"
   viewBox="-0.943 -0.943 577.13751 577.13751"
   enable-background="new -0.943 -0.943 576 576"
   xml:space="preserve"
   inkscape:version="1.1.2 (b8e25be833, 2022-02-05)"
   sodipodi:docname="France_road_sign_B22b.svg"
   xmlns:inkscape="http://www.inkscape.org/namespaces/inkscape"
   xmlns:sodipodi="http://sodipodi.sourceforge.net/DTD/sodipodi-0.dtd"
   xmlns="http://www.w3.org/2000/svg"
   xmlns:svg="http://www.w3.org/2000/svg"
   xmlns:rdf="http://www.w3.org/1999/02/22-rdf-syntax-ns#"
   xmlns:cc="http://creativecommons.org/ns#"
   xmlns:dc="http://purl.org/dc/elements/1.1/"><metadata
   id="metadata13"><rdf:RDF><cc:Work
       rdf:about=""><dc:format>image/svg+xml</dc:format><dc:type
         rdf:resource="http://purl.org/dc/dcmitype/StillImage" /></cc:Work></rdf:RDF></metadata><defs
   id="defs11" /><sodipodi:namedview
   pagecolor="#ffffff"
   bordercolor="#666666"
   borderopacity="1"
   objecttolerance="10"
   gridtolerance="10"
   guidetolerance="10"
   inkscape:pageopacity="0"
   inkscape:pageshadow="2"
   inkscape:window-width="1920"
   inkscape:window-height="1001"
   id="namedview9"
   showgrid="false"
   fit-margin-left="0.1"
   fit-margin-right="0.1"
   fit-margin-bottom="0.1"
   fit-margin-top="0.1"
   inkscape:zoom="1.349765"
   inkscape:cx="288.56876"
   inkscape:cy="288.56876"
   inkscape:window-x="-9"
   inkscape:window-y="-9"
   inkscape:window-maximized="1"
   inkscape:current-layer="Layer_1"
   inkscape:pagecheckerboard="false"
   inkscape:snap-intersection-paths="false"
   inkscape:snap-smooth-nodes="false"
   inkscape:snap-bbox="false"
   inkscape:snap-bbox-edge-midpoints="false"
   inkscape:bbox-nodes="false"
   showguides="true"
   inkscape:guide-bbox="true"
   inkscape:object-paths="false"
   inkscape:snap-bbox-midpoints="false" />
<circle
   cx="287.05701"
   cy="287.05701"
   r="286.96899"
   id="circle3"
   style="fill:#ffffff;stroke:#000000;stroke-width:3;stroke-linecap:round;stroke-linejoin:round;stroke-miterlimit:4;stroke-opacity:1;stroke-dasharray:none"
   sodipodi:cx="287.05701"
   sodipodi:cy="287.05701"
   sodipodi:rx="286.96899"
   sodipodi:ry="286.96899"
   transform="translate(0.56325,0.56325)" />
<circle
   cx="287.05701"
   cy="287.05701"
   r="261.66599"
   id="circle5"
   style="fill:#0056a4;fill-opacity:1;stroke:none"
   sodipodi:cx="287.05701"
   sodipodi:cy="287.05701"
   sodipodi:rx="261.66599"
   sodipodi:ry="261.66599"
   transform="translate(0.56325,0.56325)" />

<path
   d="m 488.66682,327.83787 c -1.35782,41.75167 -34.54501,68.05856 -65.86533,67.64084 -35.69386,-0.45727 -63.13667,-26.97281 -66.62251,-55.39479 l 55.3947,-2.74167 c 12.46812,10.84917 23.19979,-0.44356 23.44782,-8.18584 0.16939,-5.0525 -3.30303,-12.88583 -15.13136,-12.25916 l -29.03563,-47.4047 c 0,0 11.31917,-8.44698 35.19782,-7.67667 26.59417,0.86167 63.94615,24.28334 62.61449,66.02199 m -108.51783,-52.00032 30.74583,50.36834 -55.39469,2.74167 c 0.0881,-23.93084 10.75771,-40.74637 24.64886,-53.11001 m -36.81668,53.71053 -19.55719,0.96644 c 0,0 -2.28479,-4.59552 -6.17531,-8.74719 l 32.39084,-93.38637 23.69584,37.82188 c -20.66699,14.15229 -30.96782,40.40699 -30.35418,63.34563 m -36.0725,-13.63 c 0,0 -2.78084,-1.35781 -6.16219,-0.79606 l -3.56417,-17.69032 5.91417,-1.175 -1.74948,-8.79947 -21.88115,4.42583 1.7625,8.76031 6.26667,-1.26635 3.53812,17.70333 c 0,0 -1.33167,0.36523 -4.96114,2.24552 l -78.58137,-90.08334 3.43354,-9.87001 129.48503,-0.0685 z m -87.96835,16.43688 c -1.25334,38.69668 -40.09365,63.07147 -68.04554,62.18366 -31.30729,-1.01834 -66.948968,-24.40084 -65.565018,-67.82366 1.38386,-42.74386 35.184708,-66.93584 69.520858,-66.16553 18.18636,0.39166 27.73,7.38948 27.73,7.38948 l -7.29812,21.0325 c 0,0 -4.60855,16.685 -17.16803,27.26 0,0 -17.40302,-3.23781 -17.84698,10.22251 -0.33977,10.77083 6.31896,13.34271 11.69782,13.5125 4.71302,0.15666 12.19386,-1.95834 12.58552,-14.07396 0,0 13.64313,-12.20688 20.70615,-32.5475 l 6.815,-19.62251 c 0,0 28.14782,18.22563 26.86834,58.63251 m 205.46837,-82.04106 c 0,0 -23.69584,-1.33166 -40.21115,8.91688 l -29.00939,-46.81719 5.77053,-16.64584 18.22552,-6.89334 c 8.19896,-3.42052 6.60615,-15.95385 -4.19083,-16.29333 l -47.14356,-0.1694 c -7.38947,-0.24773 -9.5175,7.95084 -4.38666,10.64031 l 25.09271,12.89886 -4.02104,11.47584 -129.472,0.01 6.07083,-17.49448 -25.06667,-8.70802 c -6.64531,-2.74167 -3.90364,-12.32448 3.1725,-12.2722 l 33.67032,0.22227 -0.30061,-10.99281 -35.05417,-0.0685 c -19.21781,0.4044 -22.27281,27.58636 -5.80979,34.17948 l 15.15751,5.57469 -20.58855,59.31137 c -9.73948,-5.32667 -26.76387,-6.94552 -30.79803,-7.07605 -36.68615,-1.175 -79.299498,25.0797 -81.127308,71.1919 -2.51969,64.28563 48.201158,83.77751 74.795328,84.62615 24.57053,0.78334 79.33856,-15.65364 81.3622,-78.26803 1.07053,-33.6573 -25.30167,-58.37147 -34.51886,-65.40835 l 6.89334,-19.83145 75.39584,87.44615 c -7.4025,20.65386 8.14667,34.3622 22.27272,34.80615 l 3.62948,18.0297 -6.25365,1.27947 1.68417,8.48605 21.86812,-4.41271 -1.71031,-8.49917 -5.90114,1.20105 -3.53803,-17.70334 c 11.59334,-4.3475 13.82584,-15.36636 14.0347,-21.42417 l 18.86531,-0.92727 c 6.78886,41.32084 46.49084,65.51282 78.13751,66.53115 0,0 74.49502,-0.63939 78.73804,-81.03584 0,0 1.20114,-69.72971 -75.73523,-75.89199"
   style="fill:#ffffff;fill-opacity:1;fill-rule:nonzero;stroke:none;stroke-width:13.0555"
   id="path484"
   inkscape:label="path5" /></svg>
