<?xml version="1.0" encoding="UTF-8" standalone="no"?>
<!-- Generator: Adobe Illustrator 13.0.0, SVG Export Plug-In . SVG Version: 6.00 Build 14948)  -->

<svg
   version="1.1"
   id="Layer_1"
   x="0px"
   y="0px"
   width="577.13751"
   height="577.13751"
   viewBox="-0.943 -0.943 577.13751 577.13751"
   enable-background="new -0.943 -0.943 576 576"
   xml:space="preserve"
   inkscape:version="1.1.2 (b8e25be833, 2022-02-05)"
   sodipodi:docname="France_road_sign_B22b.svg"
   xmlns:inkscape="http://www.inkscape.org/namespaces/inkscape"
   xmlns:sodipodi="http://sodipodi.sourceforge.net/DTD/sodipodi-0.dtd"
   xmlns="http://www.w3.org/2000/svg"
   xmlns:svg="http://www.w3.org/2000/svg"
   xmlns:rdf="http://www.w3.org/1999/02/22-rdf-syntax-ns#"
   xmlns:cc="http://creativecommons.org/ns#"
   xmlns:dc="http://purl.org/dc/elements/1.1/"><metadata
   id="metadata13"><rdf:RDF><cc:Work
       rdf:about=""><dc:format>image/svg+xml</dc:format><dc:type
         rdf:resource="http://purl.org/dc/dcmitype/StillImage" /></cc:Work></rdf:RDF></metadata><defs
   id="defs11" /><sodipodi:namedview
   pagecolor="#ffffff"
   bordercolor="#666666"
   borderopacity="1"
   objecttolerance="10"
   gridtolerance="10"
   guidetolerance="10"
   inkscape:pageopacity="0"
   inkscape:pageshadow="2"
   inkscape:window-width="1920"
   inkscape:window-height="1001"
   id="namedview9"
   showgrid="false"
   fit-margin-left="0.1"
   fit-margin-right="0.1"
   fit-margin-bottom="0.1"
   fit-margin-top="0.1"
   inkscape:zoom="1.349765"
   inkscape:cx="288.56876"
   inkscape:cy="288.56876"
   inkscape:window-x="-9"
   inkscape:window-y="-9"
   inkscape:window-maximized="1"
   inkscape:current-layer="Layer_1"
   inkscape:pagecheckerboard="false"
   inkscape:snap-intersection-paths="false"
   inkscape:snap-smooth-nodes="false"
   inkscape:snap-bbox="false"
   inkscape:snap-bbox-edge-midpoints="false"
   inkscape:bbox-nodes="false"
   showguides="true"
   inkscape:guide-bbox="true"
   inkscape:object-paths="false"
   inkscape:snap-bbox-midpoints="false" />
<circle
   cx="287.05701"
   cy="287.05701"
   r="286.96899"
   id="circle3"
   style="fill:#ffffff;stroke:#000000;stroke-width:3;stroke-linecap:round;stroke-linejoin:round;stroke-miterlimit:4;stroke-opacity:1;stroke-dasharray:none"
   sodipodi:cx="287.05701"
   sodipodi:cy="287.05701"
   sodipodi:rx="286.96899"
   sodipodi:ry="286.96899"
   transform="translate(0.56325,0.56325)" />
<circle
   cx="287.05701"
   cy="287.05701"
   r="261.66599"
   id="circle5"
   style="fill:#0056a4;fill-opacity:1;stroke:none"
   sodipodi:cx="287.05701"
   sodipodi:cy="287.05701"
   sodipodi:rx="261.66599"
   sodipodi:ry="261.66599"
   transform="translate(0.56325,0.56325)" /><path
   d="m 192.17104,139.8105 c -18.04281,-7.54615 -17.54666,-22.28584 -17.71635,-28.87886 -0.14394,-6.72364 4.59552,-28.7875 30.83719,-29.518643 23.29114,-0.653105 30.51083,21.815833 30.18447,28.852813 -0.26143,5.24833 0.96644,21.67219 -17.71645,29.54469 v 15.745 c 0,0 26.88145,-1.33167 48.55364,35.41969 l 48.88,86.25812 c 0,0 1.61886,4.28218 0.31334,9.5175 l 11.80219,20.34052 h 41.97364 v -8.52531 c -7.18052,-3.94272 -10.41833,-13.12084 -10.31386,-18.38219 0.15667,-7.68969 5.71834,-19.67469 19.51803,-19.67469 13.77364,0 19.66166,11.80219 19.66166,19.67469 0,11.985 -7.19364,15.75802 -12.44198,18.38219 v 8.52531 c 0,0 14.42646,1.31864 24.27036,13.10781 l 30.8371,38.05688 c 6.0709,7.03697 -4.0994,16.05833 -9.8569,9.84395 l -24.2572,-28.21312 c -3.29,-4.5825 -9.19107,0 -7.21971,4.59562 l 19.66161,56.41302 h -18.35609 v 46.25584 c 0,11.14947 -16.58052,11.80219 -16.58052,0 v -46.25584 h -10.96667 v 59.70303 c 0,12.62478 -17.71635,12.62478 -17.71635,0 v -59.70303 h -18.36917 l 28.21302,-80.69635 h -34.78 c -5.90114,0 -11.80219,-1.95834 -14.42635,-5.88812 l -12.455,-21.65917 c 0,0 -4.60865,0.33977 -8.21198,-5.90104 l -44.27136,-76.76667 c -3.94281,-6.54083 -11.17562,-5.22229 -11.17562,1.98438 V 480.2733 c 0,18.38219 -28.18688,17.72938 -28.18688,0 V 317.58799 c 0,-9.17802 -14.43947,-9.17802 -14.43947,0 v 133.17969 c 0,17.69031 -28.21303,17.37698 -28.21303,0 V 211.96852 c 0,-8.21188 -11.13645,-8.21188 -11.13645,0 v 85.60531 c 0,17.71635 -23.6175,17.71635 -23.6175,0 v -82.34136 c 0,0 3.91667,-50.83833 57.71864,-59.67697 z"
   style="fill:#ffffff;fill-opacity:1;fill-rule:nonzero;stroke:none;stroke-width:13.0555"
   id="path500"
   sodipodi:nodetypes="cccccccccccccsscccccccccssccsscccsccccsssssssssssccc"
   inkscape:label="path7" />

</svg>
