<?xml version="1.0" encoding="utf-8"?>
<!-- Generator: Adobe Illustrator 16.0.2, SVG Export Plug-In . SVG Version: 6.00 Build 0)  -->
<!DOCTYPE svg PUBLIC "-//W3C//DTD SVG 1.1//EN" "http://www.w3.org/Graphics/SVG/1.1/DTD/svg11.dtd">
<svg version="1.1"
	 id="Layer_1" sodipodi:docname="AJAX1.svg" inkscape:version="0.48.2 r9819" xmlns:dc="http://purl.org/dc/elements/1.1/" xmlns:cc="http://creativecommons.org/ns#" xmlns:rdf="http://www.w3.org/1999/02/22-rdf-syntax-ns#" xmlns:svg="http://www.w3.org/2000/svg" xmlns:inkscape="http://www.inkscape.org/namespaces/inkscape" xmlns:sodipodi="http://sodipodi.sourceforge.net/DTD/sodipodi-0.dtd"
	 xmlns="http://www.w3.org/2000/svg" xmlns:xlink="http://www.w3.org/1999/xlink" x="0px" y="0px" width="577.137px"
	 height="577.137px" viewBox="0 0 577.137 577.137" enable-background="new 0 0 577.137 577.137" xml:space="preserve">
<sodipodi:namedview  id="namedview11" inkscape:current-layer="Layer_1" inkscape:window-y="-8" inkscape:window-x="-8" fit-margin-bottom="0.1" fit-margin-right="0.1" inkscape:window-height="1004" inkscape:window-width="1280" inkscape:pageshadow="2" inkscape:pageopacity="0" inkscape:window-maximized="1" objecttolerance="10" fit-margin-top="0.1" inkscape:cy="288.57419" borderopacity="1" showgrid="false" inkscape:cx="-472.92828" bordercolor="#666666" pagecolor="#ffffff" inkscape:zoom="0.40972222" guidetolerance="10" fit-margin-left="0.1" gridtolerance="10">
	</sodipodi:namedview>
<circle id="circle3" sodipodi:cy="287.05701" sodipodi:cx="287.05701" sodipodi:rx="286.96899" sodipodi:ry="286.96899" fill="#FFFFFF" stroke="#000000" stroke-width="3" stroke-linecap="round" stroke-linejoin="round" cx="287.62" cy="287.62" r="286.969">
</circle>
<circle id="circle5" sodipodi:cy="287.05701" sodipodi:cx="287.05701" sodipodi:rx="261.66599" sodipodi:ry="261.66599" fill="#003399" cx="287.62" cy="287.62" r="261.666">
</circle>
<g>
	<rect x="68.506" y="175.069" fill="none" width="427.988" height="310"/>
	<path fill="#FFFFFF" d="M195.05,174.907c8.95,1.839,17.465,5.405,25.544,10.699l11.135,9.402c4.912,5.836,8.077,9.944,9.497,12.32
		l5.076,10.051c2.837,8.214,4.365,16.591,4.585,25.127l-0.819,12.32l-2.784,9.078c-3.167,7.781-8.08,15.671-14.737,23.668
		l0.819,2.107l7.86,8.592l5.076,7.619l4.585,11.348c2.51,7.891,3.766,15.618,3.766,23.182c0,15.348-5.186,29.938-15.556,43.77
		c-15.719,18.698-36.081,28.479-61.077,29.342c-9.063,0-16.539-0.539-22.434-1.621c-7.642-2.052-13.046-3.781-16.211-5.188
		l-9.825-4.863l-8.351-5.998l-7.532-6.646l-7.696-9.889c-4.478-7.239-7.643-14.104-9.497-20.588l-0.164-1.459l43.065-11.672
		c2.072,8.105,7.259,14.266,15.556,18.48c5.13,2.055,12.716,3.189,22.761,3.404l7.696-0.811l6.222-1.945l4.749-2.756
		c3.275-2.16,6.223-5.35,8.842-9.564c1.31-2.7,2.292-6.375,2.948-11.023c0.217-3.781,0-5.942-0.655-6.484
		c0.218-1.728-0.547-4.377-2.292-7.943l-4.094-5.674c-2.947-2.918-5.514-4.916-7.696-5.998c-2.73-1.512-6.386-2.756-10.971-3.729
		l-17.848-0.486v-43.932c2.4,0.218,7.148-0.106,14.246-0.973l0.328,0.324c12.99-1.512,21.177-8.536,24.562-21.074l-0.328-7.295
		l0.328-1.135l-0.655-2.27l-3.111-5.998c-3.058-3.782-5.841-6.267-8.351-7.457c-0.438-0.324-4.15-1.297-11.135-2.918l-10.316,0.324
		v-0.324l-10.152,1.621l-7.205,3.08l-2.947,2.27l-3.275,4.701l-2.457,5.998l-42.574-12.645l2.784-7.295l0.982-0.973
		c-0.22-0.54,1.036-3.242,3.766-8.105l4.585-7.295l6.55-7.457c2.4-1.297,3.603-2.27,3.603-2.918l3.438-2.432
		c8.515-6.267,18.447-10.266,29.802-11.996c5.675-0.864,12.499-1.297,20.469-1.297C183.314,173.61,189.155,174.043,195.05,174.907z"
		/>
	<path fill="#FFFFFF" d="M303.961,319.833c-0.328-6.051-0.491-11.996-0.491-17.832c0-2.918,0.054-5.836,0.163-8.754
		c0.328-11.454,1.254-22.586,2.784-33.395v-1.135l0.654-1.459l1.146-11.186l0.819-1.621l1.637-9.078l0.655-0.973
		c1.638-7.781,5.184-16.535,10.644-26.262l4.749-7.133l9.17-9.24c9.715-7.781,22.323-13.346,37.825-16.697
		c4.912-0.864,9.988-1.297,15.229-1.297h1.31c8.188,0.218,16.756,1.568,25.709,4.053c3.709,0.433,9.66,2.865,17.848,7.295
		c8.405,5.188,16.048,12.267,22.925,21.236l5.24,7.943l4.257,8.916l1.802,6.484l0.491,0.486v1.621c1.09,2.27,1.745,4.053,1.965,5.35
		l0.655,0.811l2.783,14.428l0.491,0.324l-0.327,2.107l0.654,1.297l1.638,17.346l0.655,1.621l-0.491,0.162l1.146,10.213l-0.328,0.324
		c0.436,1.082,0.436,1.73,0,1.945l0.491,1.621l-0.327,0.486l0.818,11.023l-0.327,0.324l0.491,4.701l-0.164,0.324v6.484
		c-0.109,4-0.438,8.81-0.982,14.428l-0.818,5.998l0.327,0.324l-0.818,1.621c-0.327,4-1.256,8.754-2.784,14.266l-0.982,3.08
		l-0.163,1.783l-4.258,11.996l-0.818,0.648c0,1.082-1.42,4.377-4.258,9.889l-7.859,11.186c-8.625,9.836-18.177,17.021-28.656,21.561
		c-6.877,2.703-13.811,4.483-20.796,5.35l-12.608,0.811l-2.947-0.162c-24.89-0.648-44.977-8.645-60.259-23.992
		c-7.532-8.32-13.21-17.994-17.029-29.018c-4.368-11.238-7.042-23.072-8.024-35.502L303.961,319.833z M385.507,368.79
		c6.767,0.434,10.971,0.324,12.608-0.324l0.163,0.324l9.007-1.945c7.204-2.376,12.716-7.51,16.538-15.4
		c2.947-7.888,5.13-17.29,6.55-28.207l0.818-36.637l-0.491-17.184l-1.637-12.807l-0.655-0.648l-2.129-9.078l-0.655-0.324
		c-1.637-6.484-4.748-12.482-9.333-17.994c-3.495-2.809-6.278-4.646-8.352-5.512l-9.497-2.27l-9.988-0.486
		c-4.478-0.106-9.443,0.811-14.901,2.756c-5.022,2.378-9.226,6.646-12.608,12.807c-2.402,5.729-4.585,12.916-6.55,21.561
		l0.327,0.973c-0.654,0.542-1.038,2.325-1.146,5.35c-1.53,12.645-1.694,31.181-0.491,55.604l2.619,17.67l3.439,12.482
		c2.51,6.484,5.948,11.186,10.315,14.104C373.39,366.089,378.737,367.817,385.507,368.79z"/>
</g>
</svg>
