<?xml version="1.0" encoding="UTF-8" standalone="no"?>
<!-- Generator: Adobe Illustrator 13.0.0, SVG Export Plug-In  -->

<svg
   xmlns:dc="http://purl.org/dc/elements/1.1/"
   xmlns:cc="http://creativecommons.org/ns#"
   xmlns:rdf="http://www.w3.org/1999/02/22-rdf-syntax-ns#"
   xmlns:svg="http://www.w3.org/2000/svg"
   xmlns="http://www.w3.org/2000/svg"
   xmlns:sodipodi="http://sodipodi.sourceforge.net/DTD/sodipodi-0.dtd"
   xmlns:inkscape="http://www.inkscape.org/namespaces/inkscape"
   version="1.1"
   x="0px"
   y="0px"
   width="598.29376"
   height="598.29376"
   viewBox="-0.178 -0.451 598.29376 598.29376"
   enable-background="new -0.178 -0.451 598 598"
   xml:space="preserve"
   id="svg2"
   inkscape:version="0.48.2 r9819"
   sodipodi:docname="AJAX1.svg"><metadata
   id="metadata138"><rdf:RDF><cc:Work
       rdf:about=""><dc:format>image/svg+xml</dc:format><dc:type
         rdf:resource="http://purl.org/dc/dcmitype/StillImage" /></cc:Work></rdf:RDF></metadata><sodipodi:namedview
   pagecolor="#ffffff"
   bordercolor="#666666"
   borderopacity="1"
   objecttolerance="10"
   gridtolerance="10"
   guidetolerance="10"
   inkscape:pageopacity="0"
   inkscape:pageshadow="2"
   inkscape:window-width="1280"
   inkscape:window-height="1004"
   id="namedview136"
   showgrid="false"
   fit-margin-top="0.1"
   fit-margin-left="0.1"
   fit-margin-right="0.1"
   fit-margin-bottom="0.1"
   inkscape:zoom="0.55811773"
   inkscape:cx="287.85097"
   inkscape:cy="187.72795"
   inkscape:window-x="-8"
   inkscape:window-y="-8"
   inkscape:window-maximized="1"
   inkscape:current-layer="svg2" />
<defs
   id="defs4">
</defs>
<path
   d="m 596.52125,298.688 c 0,-164.332 -133.217,-297.549 -297.549,-297.549 -164.332,0 -297.549,133.217 -297.549,297.549 0,164.332 133.217,297.549 297.549,297.549 164.332,0 297.549,-133.217 297.549,-297.549 l 0,0 0,0 z"
   id="path6"
   style="fill:#ffffff;fill-opacity:1;stroke:#000000;stroke-width:3;stroke-linecap:round;stroke-linejoin:round;stroke-miterlimit:4;stroke-opacity:1;stroke-dasharray:none"
   inkscape:connector-curvature="0" />
<path
   d="m 570.28525,298.688 c 0,-149.842 -121.472,-271.313 -271.313,-271.313 -149.842,0 -271.313,121.471 -271.313,271.313 0,149.842 121.471,271.313 271.313,271.313 149.842,0 271.313,-121.471 271.313,-271.313 l 0,0 0,0 z"
   id="path8"
   style="fill:#003399;fill-opacity:1;stroke:none"
   inkscape:connector-curvature="0" />
<path
   d="m 326.24525,95.132 c 80.081,0 145,91.632 145,204.667 0,113.035 -64.919,204.667 -145,204.667 l -57.327,-2.081 c -75.735,-6.747 -135.673,-95.094 -135.673,-203.086 0,-109.558 61.688,-198.894 138.975,-203.327 l 54.025,-0.84 z"
   id="path10"
   style="fill:#ffffff;stroke:none"
   inkscape:connector-curvature="0" />
<path
   d="m 353.81125,170.186 c 0.467,0.125 0.933,0.258 1.397,0.399"
   id="path12"
   style="fill:none;stroke:none"
   inkscape:connector-curvature="0" />
<path
   d="m 356.02025,170.567 c 33.301,10.289 59.673,64.334 61.206,130.063 1.72,73.71 -28.448,134.2 -67.382,135.108 -38.935,0.909 -71.892,-58.108 -73.611,-131.818 -1.72,-73.71 28.448,-134.2 67.383,-135.109 3.737,-0.087 7.421,0.378 11.025,1.355"
   id="path14"
   style="fill:none;stroke:none"
   inkscape:connector-curvature="0" />
<path
   d="m 365.72225,432.654 c 28.987,-19.578 48.859,-70.432 47.48,-129.595 -1.681,-71.899 -34.14,-130.079 -73.69,-134.373 l 7.233,0.61 c 39.548,4.166 71.974,60.886 73.611,131.007 1.346,57.697 -18.556,107.304 -47.553,126.414 l -7.081,5.937 z"
   id="path16"
   style="fill:#003399;fill-opacity:1;stroke:none"
   inkscape:connector-curvature="0" />
<path
   d="m 337.55425,497.798 c -72.121,-1.359 -130.309,-89.482 -130.309,-197.993 0,-109.356 59.099,-198.007 132,-198.007"
   id="path18"
   style="fill:none;stroke:#003399;stroke-width:3;stroke-linecap:round;stroke-linejoin:round;stroke-opacity:1;stroke-dasharray:12"
   inkscape:connector-curvature="0" />
<path
   d="m 326.23225,177.226 c -30.735,22.368 -51.985,70.335 -51.985,125.908 0,51.949 18.571,97.252 46.1,121.211 25.009,-28.771 41.233,-75.035 41.233,-127.213 -10e-4,-47.963 -13.71,-90.93 -35.348,-119.906 z"
   id="path20"
   style="fill:none;stroke:none"
   inkscape:connector-curvature="0" />
<path
   d="m 326.23225,177.226 c -30.735,22.368 -51.985,70.335 -51.985,125.908 0,51.949 18.571,97.252 46.1,121.211 25.009,-28.771 41.233,-75.035 41.233,-127.213 -10e-4,-47.963 -13.71,-90.93 -35.348,-119.906 z"
   id="path22"
   style="opacity:0.27999998;fill:#ffffff;stroke:none"
   inkscape:connector-curvature="0" />
<path
   d="m 326.23225,172.559 c -31.918,22.79 -53.985,71.663 -53.985,128.286 0,52.931 19.285,99.089 47.873,123.5"
   id="path24"
   style="fill:#003399;fill-opacity:1;stroke:none"
   inkscape:connector-curvature="0" />
<path
   d="m 319.01325,425.011 c 28.647,-29.314 47.232,-76.452 47.232,-129.615 0,-48.869 -15.704,-92.646 -40.49,-122.17"
   id="path26"
   style="fill:#003399;fill-opacity:1;stroke:none"
   inkscape:connector-curvature="0" />
<path
   d="m 198.24525,141.798 h 7.111 l 0.889,-1.333 -2,-5.333 -20,-2 -12.667,6.667 -4,16.667 21.333,1.333 9.333,-5.333 0.778,-1.167 h -0.778 v -9.501 z m -6.437,6.691 -4.032,2.304 -9.215,-0.576 1.728,-7.2 5.472,-2.88 8.64,0.864 0.864,2.304 -3.457,5.184 z"
   id="path28"
   style="opacity:0.98999999;fill:#003399;fill-opacity:1;stroke:none"
   inkscape:connector-curvature="0" />
<path
   d="m 245.24525,136.132 -20,-2 -12.667,6.667 -0.24,1 h -6.983 -7.111 v 9.5 h 0.778 11.036 l -1.48,6.167 21.333,1.333 9.333,-5.333 8,-12 -1.999,-5.334 z m -12.437,13.357 -4.032,2.304 -9.215,-0.576 1.728,-7.2 5.472,-2.88 8.64,0.864 0.864,2.304 -3.457,5.184 z"
   id="path30"
   style="fill:#003399;fill-opacity:1;stroke:none"
   inkscape:connector-curvature="0" />
<path
   d="m 163.08325,227.939 6.655,-0.351 0.752,-1.557 -2.191,-5.953 -18.839,-1.283 -11.456,8.19 -2.747,19.111 20.046,0.46 8.417,-6.513 0.658,-1.362 -0.728,0.038 -0.567,-10.78 z m -5.624,7.91 -3.636,2.813 -8.659,-0.199 1.186,-8.255 4.949,-3.538 8.138,0.554 0.946,2.572 -2.924,6.053 z"
   id="path32"
   style="opacity:0.98999999;fill:#003399;fill-opacity:1;stroke:none"
   inkscape:connector-curvature="0" />
<path
   d="m 206.73325,219.189 -18.839,-1.283 -11.456,8.19 -0.165,1.146 -6.536,0.344 -6.655,0.351 0.568,10.781 0.728,-0.038 10.329,-0.545 -1.016,7.071 20.046,0.46 8.416,-6.513 6.77,-14.012 -2.19,-5.952 z m -10.841,15.772 -3.636,2.814 -8.659,-0.199 1.186,-8.256 4.949,-3.538 8.139,0.554 0.946,2.572 -2.925,6.053 z"
   id="path34"
   style="fill:#003399;fill-opacity:1;stroke:none"
   inkscape:connector-curvature="0" />
<path
   d="m 197.53525,446.85 h 0.778 l -0.778,-1.166 -9.333,-5.334 -21.333,1.334 4,16.666 12.667,6.666 20,-2 2,-5.332 -0.889,-1.334 h -7.111 v -9.5 z m -2.981,7.993 -0.864,2.304 -8.64,0.864 -5.472,-2.88 -1.728,-7.2 9.215,-0.576 4.032,2.304 3.457,5.184 z"
   id="path36"
   style="opacity:0.98999999;fill:#003399;fill-opacity:1;stroke:none"
   inkscape:connector-curvature="0" />
<path
   d="m 162.28825,355.54 0.727,0.054 -0.63,-1.375 -8.279,-6.686 -20.051,0.044 2.349,19.163 11.284,8.426 18.861,-0.892 2.314,-5.905 -0.72,-1.573 -6.646,-0.488 0.791,-10.768 z m -3.452,8.854 -0.999,2.553 -8.148,0.384 -4.875,-3.639 -1.015,-8.278 8.662,-0.02 3.577,2.888 2.798,6.112 z"
   id="path38"
   style="opacity:0.98999999;fill:#003399;fill-opacity:1;stroke:none"
   inkscape:connector-curvature="0" />
<path
   d="m 207.27025,370.054 -6.478,-14.149 -8.279,-6.687 -20.052,0.045 0.87,7.09 -10.315,-0.759 -0.727,-0.054 -0.792,10.768 6.646,0.488 6.527,0.48 0.141,1.15 11.283,8.425 18.861,-0.891 2.315,-5.906 z m -10.028,-3.974 -0.999,2.552 -8.148,0.385 -4.875,-3.64 -1.015,-8.278 8.662,-0.021 3.577,2.889 2.798,6.113 z"
   id="path40"
   style="fill:#003399;fill-opacity:1;stroke:none"
   inkscape:connector-curvature="0" />
<polygon
   points="335.822,137.659 336.489,146.326 295.822,171.659 289.822,165.659 "
   id="polygon42"
   style="fill:#003399;fill-opacity:1;stroke:none"
   transform="translate(0.42325,0.139)" />
<polygon
   points="251.822,238.326 259.822,240.326 285.156,188.326 276.039,183.386 "
   id="polygon44"
   style="fill:#003399;fill-opacity:1;stroke:none"
   transform="translate(0.42325,0.139)" />
<polyline
   points="  249.943,255.356 247.822,340.992 254.489,339.659 255.822,260.326 "
   id="polyline46"
   style="fill:#003399;fill-opacity:1;stroke:none"
   transform="translate(0.42325,0.139)" />
<polygon
   points="272.372,417.748 280.489,414.992 258.489,359.659 251.822,362.326 "
   id="polygon48"
   style="fill:#003399;fill-opacity:1;stroke:none"
   transform="translate(0.42325,0.139)" />
<polyline
   points="287.822,433.659 332.489,462.992 334.489,453.659 293.822,428.326 "
   id="polyline50"
   style="fill:#003399;fill-opacity:1;stroke:none"
   transform="translate(0.42325,0.139)" />
<polygon
   points="433.822,338.992 441.156,343.659 441.156,260.993 435.392,260.03 "
   id="polygon52"
   style="fill:#003399;fill-opacity:1;stroke:none"
   transform="translate(0.42325,0.139)" />
<polygon
   points="432.489,244.993 440.489,242.993 411.822,177.659 406.111,179.019 "
   id="polygon54"
   style="fill:#003399;fill-opacity:1;stroke:none"
   transform="translate(0.42325,0.139)" />
<polyline
   points="394.489,170.325 353.156,144.993 353.156,136.993 396.489,165.659 "
   id="polyline56"
   style="fill:#003399;fill-opacity:1;stroke:none"
   transform="translate(0.42325,0.139)" />
<path
   d="m 244.24525,454.966 -8,-12 -9.333,-5.334 -21.333,1.334 1.48,6.166 h -11.036 -0.778 v 9.5 h 7.111 6.983 l 0.24,1 12.667,6.666 20,-2 1.999,-5.332 z m -10.981,-2.841 -0.864,2.304 -8.64,0.864 -5.472,-2.88 -1.728,-7.2 9.215,-0.576 4.032,2.304 3.457,5.184 z"
   id="path58"
   style="fill:#003399;fill-opacity:1;stroke:none"
   inkscape:connector-curvature="0" />
<path
   d="m 239.24525,492.298 c 13.716,16.655 35.099,13.919 55.325,14.965 9.772,0.506 53.139,5.438 57.675,-5.465 -16.979,3.232 -36.095,2.224 -53.232,0.905 -19.937,-1.533 -42.4,0.016 -59.768,-10.405"
   id="path60"
   style="fill:#003399;fill-opacity:1;stroke:none"
   inkscape:connector-curvature="0" />
<path
   d="m 233.57925,348.464 c -6.407,-5.17 -16.441,1.376 -22,4 -4.695,5.932 -5.579,17.966 2,23 7.126,4.734 17.154,-2.896 22.729,-6.123 4.741,-2.745 0.177,-18.531 -2.729,-20.877 z m -2.53,17.843 c -3.344,1.937 -9.36,6.514 -13.637,3.674 -4.547,-3.021 -4.017,-10.241 -1.2,-13.801 3.335,-1.574 9.356,-5.502 13.2,-2.399 1.745,1.407 4.483,10.879 1.637,12.526 z"
   id="path62"
   style="fill:#003399;fill-opacity:1;stroke:none"
   inkscape:connector-curvature="0" />
<path
   d="m 262.53525,340.475 c -5.188,-5.101 -14.509,-0.105 -19.591,1.773 -4.595,4.882 -6.352,15.481 -0.127,20.558 5.854,4.771 15.258,-1.186 20.402,-3.598 4.377,-2.052 1.669,-16.419 -0.684,-18.733 z m -3.672,15.62 c -3.086,1.446 -8.729,5.021 -12.241,2.157 -3.735,-3.045 -2.681,-9.406 0.077,-12.336 3.048,-1.126 8.642,-4.124 11.754,-1.063 1.412,1.389 3.036,10.01 0.41,11.242 z"
   id="path64"
   style="fill:#003399;fill-opacity:1;stroke:none"
   inkscape:connector-curvature="0" />
<polygon
   points="240.822,351.326 243.156,358.992 235.489,361.326 233.822,354.992 "
   id="polygon66"
   style="fill:#003399;fill-opacity:1;stroke:none"
   transform="translate(0.42325,0.139)" />
<path
   d="m 265.16925,426.145 c -7.45,-3.505 -15.647,5.232 -20.426,9.099 -3.156,6.875 -1.163,18.776 7.393,21.871 8.045,2.911 15.979,-6.877 20.631,-11.334 3.955,-3.79 -4.219,-18.046 -7.598,-19.636 z m 1.77,17.933 c -2.79,2.674 -7.55,8.546 -12.378,6.801 -5.133,-1.857 -6.329,-8.998 -4.436,-13.124 2.867,-2.319 7.787,-7.562 12.256,-5.458 2.028,0.954 6.933,9.507 4.558,11.781 z"
   id="path68"
   style="fill:#003399;fill-opacity:1;stroke:none"
   inkscape:connector-curvature="0" />
<path
   d="m 291.40825,411.522 c -6.249,-3.726 -14.121,3.336 -18.613,6.365 -3.308,5.831 -2.502,16.545 4.748,20.002 6.817,3.249 14.542,-4.767 18.969,-8.329 3.765,-3.031 -2.27,-16.347 -5.104,-18.038 z m 0.134,16.046 c -2.655,2.136 -7.291,6.945 -11.382,4.996 -4.349,-2.073 -4.833,-8.503 -2.849,-12.003 2.695,-1.816 7.419,-6.055 11.168,-3.817 1.701,1.013 5.322,9.004 3.063,10.824 z"
   id="path70"
   style="fill:#003399;fill-opacity:1;stroke:none"
   inkscape:connector-curvature="0" />
<polygon
   points="272.905,427.104 276.989,434 270.093,438.084 266.973,432.325 "
   id="polygon72"
   style="fill:#003399;fill-opacity:1;stroke:none"
   transform="translate(0.42325,0.139)" />
<path
   d="m 333.42725,477.114 c -7.003,4.329 -4.155,15.966 -3.524,22.08 4.038,6.397 15.098,11.224 22.361,5.744 6.83,-5.152 2.959,-17.144 1.764,-23.474 -1.017,-5.383 -17.424,-6.314 -20.601,-4.35 z m 15.994,8.303 c 0.718,3.798 3.039,10.992 -1.058,14.084 -4.358,3.289 -10.994,0.393 -13.418,-3.445 -0.379,-3.669 -2.087,-10.652 2.116,-13.249 1.906,-1.179 11.749,-0.62 12.36,2.61 z"
   id="path74"
   style="fill:#003399;fill-opacity:1;stroke:none"
   inkscape:connector-curvature="0" />
<path
   d="m 335.49625,447.147 c -6.533,3.202 -4.913,13.652 -4.826,19.069 3.081,5.955 12.498,11.128 19.352,6.939 6.443,-3.939 3.943,-14.787 3.374,-20.441 -0.485,-4.808 -14.937,-7.019 -17.9,-5.567 z m 13.518,8.645 c 0.341,3.391 1.841,9.898 -2.026,12.264 -4.111,2.513 -9.763,-0.592 -11.611,-4.164 -0.052,-3.25 -1.024,-9.521 2.896,-11.441 1.777,-0.874 10.45,0.455 10.741,3.341 z"
   id="path76"
   style="fill:#003399;fill-opacity:1;stroke:none"
   inkscape:connector-curvature="0" />
<polygon
   points="338.379,470.738 346.385,471.079 346.043,479.086 339.515,478.558 "
   id="polygon78"
   style="fill:#003399;fill-opacity:1;stroke:none"
   transform="translate(0.42325,0.139)" />
<path
   d="m 407.65525,430.97 c 1.263,-3.398 -2.897,-6.752 -4.788,-8.716 -1.609,-1.671 -7.721,1.779 -8.408,3.206 -1.517,3.146 2.194,6.61 3.834,8.63 2.929,1.333 8.018,0.492 9.362,-3.12 z"
   id="path80"
   style="fill:none;stroke:none"
   inkscape:connector-curvature="0" />
<path
   d="m 417.76825,440.69 c -1.981,-1.732 -8.45,2.781 -9.066,4.465 -1.359,3.711 3.167,7.26 5.219,9.381 3.422,1.216 9.026,-0.243 10.143,-4.466 1.048,-3.969 -3.969,-7.347 -6.296,-9.38 z"
   id="path82"
   style="fill:none;stroke:none"
   inkscape:connector-curvature="0" />
<path
   d="m 418.71125,435.924 c -1.405,-1.228 -4.167,-0.566 -6.955,0.813 l -1.146,-1.595 c 0.612,-0.717 1.125,-1.527 1.474,-2.464 2.105,-5.663 -4.828,-11.25 -7.98,-14.526 -2.683,-2.785 -12.865,2.967 -14.012,5.347 -2.527,5.243 3.656,11.015 6.389,14.38 2.5,1.138 5.94,1.318 9.006,0.423 l 1.513,1.438 c -1.75,1.363 -3.07,2.736 -3.397,3.63 -2.265,6.185 5.278,12.098 8.697,15.633 5.702,2.028 15.045,-0.404 16.905,-7.44 1.748,-6.618 -6.613,-12.247 -10.494,-15.639 z m -20.418,-1.834 c -1.64,-2.02 -5.351,-5.484 -3.834,-8.63 0.688,-1.427 6.799,-4.877 8.408,-3.206 1.891,1.964 6.051,5.317 4.788,8.716 -1.344,3.612 -6.433,4.453 -9.362,3.12 z m 25.77,15.98 c -1.116,4.223 -6.721,5.682 -10.143,4.466 -2.052,-2.121 -6.578,-5.67 -5.219,-9.381 0.616,-1.684 7.085,-6.197 9.066,-4.465 2.328,2.033 7.345,5.411 6.296,9.38 z"
   id="path84"
   style="fill:#003399;fill-opacity:1;stroke:none"
   inkscape:connector-curvature="0" />
<path
   d="m 440.15825,360.792 c 0.02,6.586 9.146,9.517 13.578,11.647 6.051,-0.075 13.971,-5.597 13.276,-12.841 -0.653,-6.813 -10.448,-9.194 -15.265,-11.029 -4.095,-1.56 -11.597,9.236 -11.589,12.223 z m 12.358,-7.425 c 2.888,1.1 8.766,2.528 9.157,6.616 0.417,4.347 -4.334,7.658 -7.966,7.704 -2.659,-1.277 -8.135,-3.036 -8.146,-6.988 -0.006,-1.793 4.496,-8.27 6.955,-7.332 z"
   id="path86"
   style="fill:#003399;fill-opacity:1;stroke:none"
   inkscape:connector-curvature="0" />
<path
   d="m 420.59625,346.839 c -0.553,5.794 7.249,9.063 10.979,11.271 5.351,0.393 12.818,-3.863 12.832,-10.287 0.012,-6.043 -8.429,-8.878 -12.522,-10.858 -3.483,-1.681 -11.039,7.244 -11.289,9.874 z m 11.552,-5.596 c 2.454,1.186 7.519,2.889 7.514,6.514 -0.01,3.855 -4.491,6.408 -7.7,6.174 -2.238,-1.326 -6.92,-3.289 -6.589,-6.766 0.15,-1.577 4.685,-6.932 6.775,-5.922 z"
   id="path88"
   style="fill:#003399;fill-opacity:1;stroke:none"
   inkscape:connector-curvature="0" />
<polygon
   points="437.732,354.38 441.317,349.064 446.633,352.649 443.539,356.879 "
   id="polygon90"
   style="fill:#003399;fill-opacity:1;stroke:none"
   transform="translate(0.42325,0.139)" />
<path
   d="m 232.24525,106.812 c 13.716,-16.655 35.1,-13.919 55.324,-14.965 9.772,-0.506 53.14,-5.438 57.676,5.465 -16.979,-3.232 -36.095,-2.224 -53.232,-0.905 -19.937,1.533 -42.4,-0.016 -59.768,10.405"
   id="path92"
   style="fill:#003399;fill-opacity:1;stroke:none"
   inkscape:connector-curvature="0" />
<path
   d="m 239.97425,232.071 c -5.575,-3.228 -15.602,-10.857 -22.729,-6.123 -7.579,5.034 -6.695,17.068 -2,23 5.559,2.624 15.593,9.17 22,4 2.907,-2.345 7.471,-18.132 2.729,-20.877 z m -6.894,15.561 c -3.844,3.102 -9.865,-0.825 -13.2,-2.399 -2.817,-3.56 -3.347,-10.78 1.2,-13.801 4.276,-2.84 10.293,1.737 13.637,3.674 2.845,1.647 0.107,11.118 -1.637,12.526 z"
   id="path94"
   style="fill:#003399;fill-opacity:1;stroke:none"
   inkscape:connector-curvature="0" />
<path
   d="m 266.88625,242.204 c -5.145,-2.412 -14.548,-8.369 -20.402,-3.598 -6.225,5.076 -4.468,15.676 0.127,20.557 5.082,1.879 14.403,6.875 19.591,1.773 2.353,-2.314 5.061,-16.679 0.684,-18.732 z m -4.766,14.354 c -3.112,3.063 -8.706,0.064 -11.754,-1.063 -2.757,-2.93 -3.812,-9.291 -0.077,-12.335 3.513,-2.863 9.155,0.711 12.241,2.157 2.626,1.233 1.002,9.854 -0.41,11.241 z"
   id="path96"
   style="fill:#003399;fill-opacity:1;stroke:none"
   inkscape:connector-curvature="0" />
<polygon
   points="244.489,249.808 246.823,242.142 239.156,239.808 237.489,246.142 "
   id="polygon98"
   style="fill:#003399;fill-opacity:1;stroke:none"
   transform="translate(0.42325,0.139)" />
<path
   d="m 276.43425,155.632 c -4.652,-4.457 -12.586,-14.245 -20.631,-11.334 -8.555,3.095 -10.549,14.996 -7.393,21.871 4.779,3.866 12.977,12.604 20.426,9.099 3.379,-1.59 11.553,-15.846 7.598,-19.636 z m -10.386,13.483 c -4.469,2.104 -9.389,-3.139 -12.256,-5.458 -1.893,-4.126 -0.697,-11.267 4.436,-13.124 4.828,-1.745 9.588,4.127 12.378,6.801 2.375,2.274 -2.53,10.827 -4.558,11.781 z"
   id="path100"
   style="fill:#003399;fill-opacity:1;stroke:none"
   inkscape:connector-curvature="0" />
<path
   d="m 300.17825,171.852 c -4.426,-3.563 -12.15,-11.578 -18.969,-8.329 -7.25,3.457 -8.055,14.171 -4.747,20.002 4.492,3.029 12.364,10.091 18.612,6.365 2.834,-1.691 8.87,-15.006 5.104,-18.038 z m -8.031,12.817 c -3.749,2.237 -8.473,-2.001 -11.168,-3.817 -1.984,-3.5 -1.501,-9.93 2.848,-12.003 4.092,-1.949 8.727,2.86 11.383,4.996 2.258,1.819 -1.362,9.81 -3.063,10.824 z"
   id="path102"
   style="fill:#003399;fill-opacity:1;stroke:none"
   inkscape:connector-curvature="0" />
<polygon
   points="276.572,174.03 280.655,167.134 273.76,163.05 270.64,168.809 "
   id="polygon104"
   style="fill:#003399;fill-opacity:1;stroke:none"
   transform="translate(0.42325,0.139)" />
<path
   d="m 357.69425,119.948 c 1.195,-6.33 5.066,-18.321 -1.764,-23.474 -7.264,-5.479 -18.323,-0.653 -22.361,5.744 -0.631,6.114 -3.479,17.751 3.524,22.08 3.178,1.965 19.585,1.033 20.601,-4.35 z m -16.965,-1.343 c -4.203,-2.597 -2.495,-9.58 -2.116,-13.249 2.424,-3.838 9.06,-6.734 13.418,-3.445 4.097,3.092 1.775,10.286 1.058,14.084 -0.612,3.23 -10.455,3.789 -12.36,2.61 z"
   id="path106"
   style="fill:#003399;fill-opacity:1;stroke:none"
   inkscape:connector-curvature="0" />
<path
   d="m 357.06325,148.698 c 0.569,-5.654 3.069,-16.502 -3.374,-20.441 -6.854,-4.188 -16.271,0.984 -19.352,6.939 -0.087,5.417 -1.707,15.867 4.826,19.069 2.963,1.453 17.415,-0.758 17.9,-5.567 z m -15.123,0.264 c -3.921,-1.92 -2.948,-8.191 -2.896,-11.441 1.849,-3.572 7.5,-6.677 11.611,-4.164 3.867,2.365 2.367,8.873 2.026,12.264 -0.291,2.886 -8.964,4.214 -10.741,3.341 z"
   id="path108"
   style="fill:#003399;fill-opacity:1;stroke:none"
   inkscape:connector-curvature="0" />
<polygon
   points="342.046,130.396 350.052,130.055 349.71,122.048 343.182,122.577 "
   id="polygon110"
   style="fill:#003399;fill-opacity:1;stroke:none"
   transform="translate(0.42325,0.139)" />
<path
   d="m 422.37825,165.488 c 3.881,-3.392 12.242,-9.021 10.493,-15.638 -1.86,-7.036 -11.203,-9.469 -16.905,-7.44 -3.419,3.535 -10.962,9.448 -8.697,15.633 1.028,2.805 11.808,10.329 15.109,7.445 z m -10.01,-9.23 c -1.359,-3.711 3.167,-7.26 5.219,-9.381 3.422,-1.216 9.026,0.243 10.143,4.466 1.05,3.969 -3.968,7.347 -6.295,9.38 -1.982,1.732 -8.45,-2.782 -9.067,-4.465 z"
   id="path112"
   style="fill:#003399;fill-opacity:1;stroke:none"
   inkscape:connector-curvature="0" />
<path
   d="m 407.77125,183.261 c 3.152,-3.276 10.086,-8.863 7.98,-14.526 -2.24,-6.021 -10.722,-7.423 -15.604,-5.2 -2.732,3.365 -8.916,9.137 -6.389,14.38 1.147,2.379 11.33,8.131 14.013,5.346 z m -9.645,-7.309 c -1.517,-3.146 2.194,-6.61 3.834,-8.63 2.929,-1.333 8.018,-0.492 9.362,3.12 1.263,3.398 -2.897,6.752 -4.788,8.716 -1.609,1.671 -7.72,-1.779 -8.408,-3.206 z"
   id="path114"
   style="fill:#003399;fill-opacity:1;stroke:none"
   inkscape:connector-curvature="0" />
<polygon
   points="407.144,164.483 412.349,168.225 416.092,163.019 411.723,160.125 "
   id="polygon116"
   style="fill:#003399;fill-opacity:1;stroke:none"
   transform="translate(0.42325,0.139)" />
<path
   d="m 455.41525,252.843 c 4.816,-1.836 14.611,-4.216 15.265,-11.03 0.694,-7.244 -7.226,-12.766 -13.276,-12.841 -4.433,2.131 -13.559,5.062 -13.578,11.647 -0.009,2.988 7.493,13.785 11.589,12.224 z m -6.187,-12.129 c 0.012,-3.952 5.487,-5.711 8.146,-6.988 3.632,0.046 8.383,3.357 7.966,7.704 -0.392,4.088 -6.27,5.517 -9.157,6.616 -2.459,0.937 -6.961,-5.539 -6.955,-7.332 z"
   id="path118"
   style="fill:#003399;fill-opacity:1;stroke:none"
   inkscape:connector-curvature="0" />
<path
   d="m 435.55125,264.447 c 4.094,-1.98 12.534,-4.814 12.522,-10.857 -0.014,-6.424 -7.481,-10.68 -12.832,-10.288 -3.729,2.209 -11.531,5.478 -10.979,11.272 0.251,2.628 7.807,11.554 11.289,9.873 z m -6.512,-10.2 c -0.331,-3.477 4.351,-5.439 6.589,-6.765 3.209,-0.234 7.69,2.318 7.7,6.173 0.005,3.625 -5.06,5.328 -7.514,6.514 -2.089,1.01 -6.624,-4.345 -6.775,-5.922 z"
   id="path120"
   style="fill:#003399;fill-opacity:1;stroke:none"
   inkscape:connector-curvature="0" />
<polygon
   points="441.399,246.754 444.984,252.069 450.3,248.485 447.206,244.255 "
   id="polygon122"
   style="fill:#003399;fill-opacity:1;stroke:none"
   transform="translate(0.42325,0.139)" />
<polygon
   points="399.156,436.992 392.489,432.326 351.822,456.992 351.156,463.659 "
   id="polygon124"
   style="fill:#003399;fill-opacity:1;stroke:none"
   transform="translate(0.42325,0.139)" />
<polyline
   points="407.489,425.326 440.155,354.66 431.484,356.387 404.014,419.4 407.489,425.326 "
   id="polyline126"
   style="fill:#003399;fill-opacity:1;stroke:none"
   transform="translate(0.42325,0.139)" />
<polygon
   points="252.822,150.659 249.322,154.159 238.822,150.159 241.822,144.659 "
   id="polygon128"
   style="fill:#003399;fill-opacity:1;stroke:none"
   transform="translate(0.42325,0.139)" />
<polygon
   points="215.322,232.159 213.322,237.159 202.322,236.159 203.822,230.159 "
   id="polygon130"
   style="fill:#003399;fill-opacity:1;stroke:none"
   transform="translate(0.42325,0.139)" />
<polygon
   points="212.322,369.159 201.822,369.159 201.322,363.659 211.322,362.159 "
   id="polygon132"
   style="fill:#003399;fill-opacity:1;stroke:none"
   transform="translate(0.42325,0.139)" />
<polygon
   points="244.822,443.159 248.322,450.659 239.822,452.659 235.322,447.159 "
   id="polygon134"
   style="fill:#003399;fill-opacity:1;stroke:none"
   transform="translate(0.42325,0.139)" />
</svg>