<?xml version="1.0" encoding="UTF-8" standalone="no"?>
<!-- Generator: Adobe Illustrator 13.0.0, SVG Export Plug-In . SVG Version: 6.00 Build 14948)  -->

<svg
   xmlns:dc="http://purl.org/dc/elements/1.1/"
   xmlns:cc="http://creativecommons.org/ns#"
   xmlns:rdf="http://www.w3.org/1999/02/22-rdf-syntax-ns#"
   xmlns:svg="http://www.w3.org/2000/svg"
   xmlns="http://www.w3.org/2000/svg"
   xmlns:sodipodi="http://sodipodi.sourceforge.net/DTD/sodipodi-0.dtd"
   xmlns:inkscape="http://www.inkscape.org/namespaces/inkscape"
   version="1.1"
   id="Layer_1"
   x="0px"
   y="0px"
   width="577.13751"
   height="577.13751"
   viewBox="-0.933 -0.933 577.13751 577.13751"
   enable-background="new -0.933 -0.933 576 576"
   xml:space="preserve"
   inkscape:version="0.48.2 r9819"
   sodipodi:docname="AJAX1.svg"><metadata
   id="metadata31"><rdf:RDF><cc:Work
       rdf:about=""><dc:format>image/svg+xml</dc:format><dc:type
         rdf:resource="http://purl.org/dc/dcmitype/StillImage" /></cc:Work></rdf:RDF></metadata><defs
   id="defs29" /><sodipodi:namedview
   pagecolor="#ffffff"
   bordercolor="#666666"
   borderopacity="1"
   objecttolerance="10"
   gridtolerance="10"
   guidetolerance="10"
   inkscape:pageopacity="0"
   inkscape:pageshadow="2"
   inkscape:window-width="1280"
   inkscape:window-height="1004"
   id="namedview27"
   showgrid="false"
   fit-margin-top="0.1"
   fit-margin-left="0.1"
   fit-margin-right="0.1"
   fit-margin-bottom="0.1"
   inkscape:zoom="0.81944444"
   inkscape:cx="232.07301"
   inkscape:cy="320.22696"
   inkscape:window-x="-8"
   inkscape:window-y="-8"
   inkscape:window-maximized="1"
   inkscape:current-layer="Layer_1" />
<circle
   cx="287.06699"
   cy="287.06699"
   r="286.979"
   id="circle3"
   style="fill:#ffffff;stroke:#000000;stroke-width:3;stroke-linecap:round;stroke-linejoin:round;stroke-miterlimit:4;stroke-opacity:1;stroke-dasharray:none"
   sodipodi:cx="287.06699"
   sodipodi:cy="287.06699"
   sodipodi:rx="286.979"
   sodipodi:ry="286.979"
   transform="translate(0.57325,0.57325)" />
<circle
   cx="287.06699"
   cy="287.06699"
   r="259.96899"
   id="circle5"
   style="fill:#003399;fill-opacity:1;stroke:#0000ff;stroke-width:0.17640001;stroke-linecap:round;stroke-linejoin:round"
   sodipodi:cx="287.06699"
   sodipodi:cy="287.06699"
   sodipodi:rx="259.96899"
   sodipodi:ry="259.96899"
   transform="translate(0.57325,0.57325)" />
<line
   x1="87.79525"
   y1="219.02426"
   x2="87.751251"
   y2="219.17126"
   id="line7"
   style="fill:none;stroke:none" />
<line
   x1="82.005249"
   y1="216.01625"
   x2="81.90625"
   y2="217.35226"
   id="line9"
   style="fill:none;stroke:none" />
<circle
   cx="161.215"
   cy="342.077"
   r="27.486"
   id="circle11"
   style="fill:#ffffff;stroke:none"
   sodipodi:cx="161.215"
   sodipodi:cy="342.077"
   sodipodi:rx="27.486"
   sodipodi:ry="27.486"
   transform="translate(0.57325,0.57325)" />
<circle
   cx="376.03299"
   cy="342.077"
   r="27.486"
   id="circle13"
   style="fill:#ffffff;stroke:none"
   sodipodi:cx="376.03299"
   sodipodi:cy="342.077"
   sodipodi:rx="27.486"
   sodipodi:ry="27.486"
   transform="translate(0.57325,0.57325)" />
<path
   d="m 81.90625,217.35225 5.846,1.819 -12.365,41.256 -7.025,3.533 -4.217,5.242 -1.209,70.762 9.259,6.885 h 54.583 c -1.585,-13.227 4.417,-26.215 15.517,-33.58 11.099,-7.363 25.399,-7.846 36.97,-1.245 11.571,6.601 18.433,19.155 17.741,32.458 h 144.387 c -0.677,-13.014 5.881,-25.34 17.05,-32.055 11.17,-6.713 25.132,-6.718 36.307,-0.014 11.176,6.704 17.741,19.025 17.076,32.04 h 76.452 v -145.145 l -1.091,-1.776 -0.843,-0.819 -0.982,-0.41 -1.491,-0.001 h -397.002 l -1.839,-0.108 -0.689,0.168 -0.806,1.007 -0.229,1.342 -0.134,1.509 -1.167,15.797"
   id="path15"
   style="fill:#ffffff;stroke:none"
   inkscape:connector-curvature="0" />
<rect
   x="391.62225"
   y="224.61726"
   width="81.681"
   height="38.749001"
   id="rect17"
   style="fill:#003399;fill-opacity:1;stroke:none" />
<rect
   x="298.09323"
   y="224.61726"
   width="88.848"
   height="38.749001"
   id="rect19"
   style="fill:#003399;fill-opacity:1;stroke:none" />
<rect
   x="207.09126"
   y="224.61726"
   width="86.320999"
   height="38.749001"
   id="rect21"
   style="fill:#003399;fill-opacity:1;stroke:none" />
<rect
   x="123.86125"
   y="224.61726"
   width="78.551003"
   height="38.749001"
   id="rect23"
   style="fill:#003399;fill-opacity:1;stroke:none" />
<polygon
   points="92.695,224.044 118.607,224.044 118.607,262.793 82.631,262.793 "
   id="polygon25"
   style="fill:#003399;fill-opacity:1;stroke:none"
   transform="translate(0.57325,0.57325)" />
</svg>