<?xml version="1.0" encoding="UTF-8" standalone="no"?>
<!-- Generator: Adobe Illustrator 13.0.0, SVG Export Plug-In  -->

<svg
   xmlns:dc="http://purl.org/dc/elements/1.1/"
   xmlns:cc="http://creativecommons.org/ns#"
   xmlns:rdf="http://www.w3.org/1999/02/22-rdf-syntax-ns#"
   xmlns:svg="http://www.w3.org/2000/svg"
   xmlns="http://www.w3.org/2000/svg"
   xmlns:sodipodi="http://sodipodi.sourceforge.net/DTD/sodipodi-0.dtd"
   xmlns:inkscape="http://www.inkscape.org/namespaces/inkscape"
   version="1.1"
   x="0px"
   y="0px"
   width="571.38751"
   height="571.38751"
   viewBox="-0.901 -0.901 571.38751 571.38751"
   enable-background="new -0.901 -0.901 572 572"
   xml:space="preserve"
   id="svg2"
   inkscape:version="0.48.2 r9819"
   sodipodi:docname="AJAX1.svg"><metadata
   id="metadata26"><rdf:RDF><cc:Work
       rdf:about=""><dc:format>image/svg+xml</dc:format><dc:type
         rdf:resource="http://purl.org/dc/dcmitype/StillImage" /></cc:Work></rdf:RDF></metadata><sodipodi:namedview
   pagecolor="#ffffff"
   bordercolor="#666666"
   borderopacity="1"
   objecttolerance="10"
   gridtolerance="10"
   guidetolerance="10"
   inkscape:pageopacity="0"
   inkscape:pageshadow="2"
   inkscape:window-width="1280"
   inkscape:window-height="1004"
   id="namedview24"
   showgrid="false"
   fit-margin-top="0.1"
   fit-margin-left="0.1"
   fit-margin-right="0.1"
   fit-margin-bottom="0.1"
   inkscape:zoom="1.1669734"
   inkscape:cx="262.29156"
   inkscape:cy="291.61257"
   inkscape:window-x="-8"
   inkscape:window-y="-8"
   inkscape:window-maximized="1"
   inkscape:current-layer="svg2" />
<defs
   id="defs4">
</defs>
<circle
   cx="285.099"
   cy="285.099"
   r="284.099"
   id="circle6"
   style="fill:#ffffff;stroke:#000000;stroke-width:3;stroke-linecap:round;stroke-linejoin:round;stroke-miterlimit:4;stroke-opacity:1;stroke-dasharray:none"
   sodipodi:cx="285.099"
   sodipodi:cy="285.099"
   sodipodi:rx="284.099"
   sodipodi:ry="284.099"
   transform="translate(-0.301,-0.301)" />
<circle
   cx="285.099"
   cy="285.099"
   r="254.804"
   id="circle8"
   style="opacity:0.98999999;fill:#003399;fill-opacity:1;stroke:none"
   sodipodi:cx="285.099"
   sodipodi:cy="285.099"
   sodipodi:rx="254.804"
   sodipodi:ry="254.804"
   transform="translate(-0.301,-0.301)" />
<path
   d="m 448.465,349.798 c -6.769,-17.248 -13.537,-34.497 -20.306,-51.745 -0.675,-1.72 -3.386,-0.921 -5.066,-0.921 -5.568,0 -11.137,0 -16.706,0 -48.8,0 -97.599,0 -146.398,0 -39.185,0 -78.369,0 -117.554,0 -0.861,0 -1.723,0 -2.585,0 -0.507,0 -2.331,5.513 -2.538,6.016 -4.84,11.711 -9.681,23.422 -14.521,35.133 -1.217,2.945 -2.435,5.891 -3.652,8.836 -0.439,1.063 -0.006,3.216 -0.006,4.342 0,3.08 0,6.159 0,9.238 0,0.736 -0.049,11.102 0.045,11.102 0.757,0 1.514,0 2.271,0 36.107,0 72.214,0 108.321,0 52.998,0 105.995,0 158.993,0 16.716,0 33.432,0 50.146,0 3.092,0 6.184,0 9.275,0 0.587,-10e-4 0.281,-19.631 0.281,-22.001 z m -284.667,-9 -6.667,6 h -21.334 l -5,-6.333 15,-34.667 h 12.333 l 5.667,5.334 v 29.666 z m 93.5,0 -6,6 h -75 l -7,-5.5 v -29.5 l 4.5,-6 h 78 l 5.5,6 v 29 z m 40.5,7 h -28.667 l -5.833,-5.333 v -31.667 l 4.833,-5 h 30 l 5.366,4.292 0.279,32.015 -5.978,5.693 z m 100.5,-7 -6,6 h -75 l -7,-5.5 v -29.5 l 4.5,-6 h 78 l 5.5,6 v 29 z m 33,6 h -21.334 l -6.666,-6 v -29.666 l 5.666,-5.334 h 12.334 l 15,34.667 -5,6.333 z"
   id="path10"
   style="fill:#ffffff;fill-opacity:1;stroke:none"
   inkscape:connector-curvature="0" />
<polygon
   points="295.433,260.099 259.627,209.588 521.433,209.588 521.433,203.944 45.433,203.944 45.433,209.588 249.168,209.588 285.433,260.099 249.086,291.433 237.433,291.433 237.433,298.766 286.099,298.766 286.099,291.433 275.379,291.433 "
   id="polygon12"
   style="fill:#ffffff;fill-opacity:1;stroke:none"
   transform="translate(-0.301,-0.301)" />
<polygon
   points="519.599,378.099 514.599,386.099 55.6,386.099 50.099,378.099 "
   id="polygon14"
   style="fill:#ffffff;fill-opacity:1;stroke:none"
   transform="translate(-0.301,-0.301)" />
<path
   d="m 162.593,372.798 c 1.884,3.131 6.339,5.333 11.539,5.333 5.2,0 9.655,-2.202 11.539,-5.333 h -23.078 z"
   id="path16"
   style="fill:#ffffff;fill-opacity:1;stroke:none"
   inkscape:connector-curvature="0" />
<path
   d="m 194.926,372.798 c 1.884,3.131 6.339,5.333 11.539,5.333 5.2,0 9.655,-2.202 11.539,-5.333 h -23.078 z"
   id="path18"
   style="fill:#ffffff;fill-opacity:1;stroke:none"
   inkscape:connector-curvature="0" />
<path
   d="m 348.593,372.798 c 1.885,3.131 6.34,5.333 11.539,5.333 5.199,0 9.654,-2.202 11.539,-5.333 h -23.078 z"
   id="path20"
   style="fill:#ffffff;fill-opacity:1;stroke:none"
   inkscape:connector-curvature="0" />
<path
   d="m 381.26,372.798 c 1.885,3.131 6.34,5.333 11.539,5.333 5.199,0 9.654,-2.202 11.539,-5.333 H 381.26 z"
   id="path22"
   style="fill:#ffffff;fill-opacity:1;stroke:none"
   inkscape:connector-curvature="0" />
</svg>