<?xml version="1.0" encoding="utf-8"?>
<!-- Generator: Adobe Illustrator 16.0.2, SVG Export Plug-In . SVG Version: 6.00 Build 0)  -->
<!DOCTYPE svg PUBLIC "-//W3C//DTD SVG 1.1//EN" "http://www.w3.org/Graphics/SVG/1.1/DTD/svg11.dtd">
<svg version="1.1"
	 id="Layer_1" sodipodi:docname="AJAX1.svg" inkscape:version="0.48.2 r9819" xmlns:svg="http://www.w3.org/2000/svg" xmlns:sodipodi="http://sodipodi.sourceforge.net/DTD/sodipodi-0.dtd" xmlns:cc="http://creativecommons.org/ns#" xmlns:dc="http://purl.org/dc/elements/1.1/" xmlns:inkscape="http://www.inkscape.org/namespaces/inkscape" xmlns:rdf="http://www.w3.org/1999/02/22-rdf-syntax-ns#"
	 xmlns="http://www.w3.org/2000/svg" xmlns:xlink="http://www.w3.org/1999/xlink" x="0px" y="0px" width="577.137px"
	 height="577.137px" viewBox="0 0 577.137 577.137" style="enable-background:new 0 0 577.137 577.137;" xml:space="preserve">
<sodipodi:namedview  id="namedview37" inkscape:window-height="1004" inkscape:window-width="1280" inkscape:pageshadow="2" inkscape:pageopacity="0" inkscape:window-x="-8" fit-margin-bottom="0.1" fit-margin-right="0.1" inkscape:current-layer="Layer_1" inkscape:window-y="-8" inkscape:window-maximized="1" inkscape:zoom="0.81944444" inkscape:cx="349.30844" bordercolor="#666666" fit-margin-left="0.1" showgrid="false" gridtolerance="10" pagecolor="#ffffff" guidetolerance="10" objecttolerance="10" fit-margin-top="0.1" inkscape:cy="263.24284" borderopacity="1">
	</sodipodi:namedview>
<circle id="circle3" sodipodi:ry="286.96899" sodipodi:rx="286.96899" sodipodi:cy="287.05701" sodipodi:cx="287.05701" style="fill:#FFFFFF;stroke:#000000;stroke-width:3;stroke-linecap:round;stroke-linejoin:round;" cx="287.62" cy="287.62" r="286.969">
</circle>
<circle id="circle5" sodipodi:ry="259.95999" sodipodi:rx="259.95999" sodipodi:cy="287.05701" sodipodi:cx="287.05701" style="fill:#003399;" cx="287.62" cy="287.62" r="259.96">
</circle>
<g>
	<path style="fill:#FFFFFF;" d="M133.802,137.269l17.291,63.665h-13.128l-2.882-10.821h-18.526l-2.928,10.821h-13.266l17.108-63.665
		H133.802z M119.072,177.988h13.22l-6.404-24.857L119.072,177.988z"/>
	<path style="fill:#FFFFFF;" d="M171.607,137.269l0.045,52.409h25.937l-0.046,11.386h-38.608v-63.795H171.607z"/>
	<path style="fill:#FFFFFF;" d="M218.698,137.269l0.045,52.409h25.937l-0.046,11.386h-38.608v-63.795H218.698z"/>
	<path style="fill:#FFFFFF;" d="M266.612,137.442v43.109c0.579,5.505,3.842,8.576,9.789,9.213c5.855-0.608,9.149-3.635,9.881-9.083
		v-43.24h12.945v46.456c-1.129,5.679-3.949,10.097-8.463,13.254c-4.025,2.694-8.142,4.113-12.351,4.259
		c-0.671,0.058-1.326,0.087-1.967,0.087c-6.252,0-11.421-1.723-15.507-5.171c-4.666-4.287-7.136-8.662-7.411-13.124v-45.76H266.612z
		"/>
	<path style="fill:#FFFFFF;" d="M309.586,137.269h17.245l13.494,33.766l13.815-33.766h17.199v63.795h-12.763v-40.285l-16.696,40.285
		h-3.34l-16.559-39.937l0.137,39.937h-12.533V137.269z"/>
	<path style="fill:#FFFFFF;" d="M421.405,137.399v11.646h-27.721v13.906h20.311v11.777h-20.311v14.558h28.91v11.777h-41.811
		l0.046-63.665H421.405z"/>
	<path style="fill:#FFFFFF;" d="M474.946,137.442l-0.046,12.298l-28.819,39.372h29.643v11.951h-45.332v-12.776l28.133-38.546
		h-26.715v-12.298H474.946z"/>
</g>
<g>
	<path style="fill:#FFFFFF;" d="M220.302,270.311l13.533,45.805l11.619-45.805h12.986l-16.175,63.709H225.36l-17.907-63.709H220.302
		z"/>
	<path style="fill:#FFFFFF;" d="M293.225,269.573c7.351,1.072,12.787,5.215,16.312,12.429c3.008,5.331,4.511,11.879,4.511,19.643
		v0.782c0,9.706-2.476,17.963-7.427,24.771c-3.524,4.578-8.506,7.142-14.945,7.692c-0.668,0.058-1.321,0.086-1.959,0.086
		c-6.683,0-12.287-2.693-16.813-8.082c-4.678-7.186-7.048-14.559-7.108-22.12c-0.03-0.637-0.045-1.274-0.045-1.912
		c0-10.227,2.384-18.687,7.154-25.379c3.189-3.65,6.516-5.982,9.978-6.997c2.399-0.724,4.8-1.086,7.199-1.086
		C291.144,269.399,292.192,269.458,293.225,269.573z M289.716,323.85c3.523-0.174,6.5-2.477,8.931-6.909
		c1.762-2.955,2.87-7.301,3.326-13.037c0.091-7.301-1.261-13.283-4.056-17.948c-2.277-3.244-4.8-5.055-7.563-5.432
		c-3.645,0.174-6.683,2.448-9.113,6.822c-1.731,3.071-2.855,7.475-3.372,13.211c-0.061,7.301,1.321,13.27,4.146,17.904
		C284.263,321.707,286.83,323.502,289.716,323.85z"/>
	<path style="fill:#FFFFFF;" d="M322.041,321.069v-0.086c0-0.319,0.349-0.536,1.048-0.652c5.377-1.651,8.869-2.839,10.479-3.563
		c0.82,1.072,1.898,2.042,3.235,2.911c2.156,1.217,4.465,1.956,6.926,2.217c2.612,0.059,4.237,0,4.875-0.174
		c3.008-0.811,4.86-1.637,5.56-2.477c0.698-0.58,1.306-1.984,1.822-4.216c0.121-0.869,0-1.84-0.364-2.911
		c-0.456-0.725-0.942-1.333-1.458-1.826l-1.55-1.129l-1.731-0.739c-9.63-2.868-14.93-4.548-15.901-5.041
		c-4.466-1.709-7.792-4.534-9.979-8.474c-1.429-2.637-2.066-5.838-1.914-9.604c0.576-4.693,2.597-8.416,6.06-11.169
		c3.889-2.693,7.943-4.156,12.166-4.389h1.185c3.008,0,5.498,0.217,7.473,0.652c4.01,1.071,7.138,2.563,9.386,4.476
		c2.248,1.768,4.102,4.172,5.56,7.214l-0.137,0.479l-9.387,4.302l-0.455-0.218c-0.578-1.767-2.203-3.2-4.876-4.302
		c-3.007-1.071-6.531-1.101-10.57-0.087c-1.731,0.551-2.947,1.26-3.646,2.129c-0.243,0.232-0.563,0.957-0.957,2.174
		c-0.061,1.419,0,2.245,0.183,2.477c0.395,0.985,1.185,1.869,2.369,2.65l1.185,0.479c8.627,2.434,14.474,4.201,17.542,5.302
		c2.644,1.159,4.663,2.434,6.061,3.824l2.552,3.303c1.883,2.984,2.885,6.243,3.007,9.778c0.03,0.231,0.046,0.507,0.046,0.825
		c0,1.13-0.183,2.651-0.547,4.563c-0.76,2.693-1.671,4.679-2.734,5.953c-1.822,2.145-3.144,3.434-3.964,3.867
		c-4.465,2.927-9.067,4.505-13.806,4.737h-4.146c-3.099-0.289-5.711-0.869-7.837-1.738c-3.402-1.506-6.151-3.187-8.247-5.041
		C324.821,326.039,323.317,323.879,322.041,321.069z"/>
</g>
<g>
	<path style="fill:#FFFFFF;" d="M230.662,396.268v11.646h-27.483v13.906h20.136v11.82h-20.136l-0.045,26.335h-12.79l0.045-63.708
		H230.662z"/>
	<path style="fill:#FFFFFF;" d="M278.303,396.399v11.646h-27.484v13.906h20.137v11.776h-20.137v14.558h28.663v11.777H238.03
		l0.045-63.664H278.303z"/>
	<path style="fill:#FFFFFF;" d="M301.498,396.442v43.109c0.573,5.505,3.81,8.576,9.705,9.213c5.806-0.608,9.07-3.636,9.796-9.082
		v-43.24h12.835v46.455c-1.118,5.679-3.916,10.098-8.39,13.255c-3.991,2.694-8.073,4.113-12.245,4.259
		c-0.666,0.058-1.315,0.087-1.95,0.087c-6.199,0-11.323-1.724-15.375-5.171c-4.626-4.288-7.075-8.663-7.347-13.125v-45.76H301.498z"
		/>
	<path style="fill:#FFFFFF;" d="M358.028,396.311l12.29,19.643l12.291-19.555h14.649l-20.364,31.549l20.545,32.028h-14.604
		l-12.698-19.425l-12.019,19.381l-16.101,0.044l20.5-32.071l-20.454-31.594H358.028z"/>
</g>
</svg>
