<?xml version="1.0" encoding="UTF-8" standalone="no"?>
<svg
   width="389.96161pt"
   height="501pt"
   viewBox="0 0 389.96161 501"
   version="1.1"
   id="svg455"
   sodipodi:docname="B30.svg"
   inkscape:version="1.2.2 (732a01da63, 2022-12-09)"
   xmlns:inkscape="http://www.inkscape.org/namespaces/inkscape"
   xmlns:sodipodi="http://sodipodi.sourceforge.net/DTD/sodipodi-0.dtd"
   xmlns="http://www.w3.org/2000/svg"
   xmlns:svg="http://www.w3.org/2000/svg">
  <defs
     id="defs459" />
  <sodipodi:namedview
     id="namedview457"
     pagecolor="#ffffff"
     bordercolor="#000000"
     borderopacity="0.25"
     inkscape:showpageshadow="2"
     inkscape:pageopacity="0.0"
     inkscape:pagecheckerboard="0"
     inkscape:deskcolor="#d1d1d1"
     inkscape:document-units="pt"
     showgrid="false"
     inkscape:zoom="0.59001957"
     inkscape:cx="346.59867"
     inkscape:cy="644.89386"
     inkscape:window-width="1920"
     inkscape:window-height="991"
     inkscape:window-x="-9"
     inkscape:window-y="-9"
     inkscape:window-maximized="1"
     inkscape:current-layer="rect1240" />
  <g
     id="rect1240"
     style="opacity:1"
     transform="matrix(0.9798293,0,0,0.9798293,0.25887011,0.51530981)">
    <path
       style="color:#000000;fill:#ff0000;fill-opacity:1;fill-rule:evenodd;stroke:none;stroke-width:1.02058593;stroke-linecap:round;stroke-linejoin:round;stroke-dasharray:none;stroke-opacity:1;paint-order:stroke fill markers"
       d="m 26.65625,-0.015625 c -14.433468,0 -26.41015625,11.976688 -26.41015625,26.410156 V 483.86719 c 0,14.43347 11.97668825,26.41015 26.41015625,26.41015 h 344.14844 c 14.43347,0 26.41015,-11.97668 26.41015,-26.41015 V 26.394531 c 0,-14.433468 -11.97668,-26.410156 -26.41015,-26.410156 z m 0,22.820312 h 344.14844 c 2.18651,0 3.58984,1.403329 3.58984,3.589844 V 483.86719 c 0,2.18651 -1.40333,3.58984 -3.58984,3.58984 H 26.65625 c -2.186515,0 -3.589844,-1.40333 -3.589844,-3.58984 V 26.394531 c 0,-2.186515 1.403329,-3.589844 3.589844,-3.589844 z"
       id="path1296" />
    <path
       style="color:#000000;fill:#ffffff;fill-rule:evenodd;stroke-width:22.8189;stroke-linecap:round;stroke-linejoin:round;-inkscape-stroke:none;paint-order:stroke fill markers"
       d="m 26.65625,11.394531 h 344.14844 c 8.31,0 15,6.69 15,15 V 483.86719 c 0,8.31 -6.69,15 -15,15 H 26.65625 c -8.31,0 -15,-6.69 -15,-15 V 26.394531 c 0,-8.31 6.69,-15 15,-15 z"
       id="path1298" />
  </g>
  <path
     fill-rule="evenodd"
     fill="#ff0000"
     fill-opacity="1"
     d="m 194.93871,186.85511 h 0.0306 c 20.91323,0 41.43606,5.49623 59.54759,15.94136 18.10771,10.47193 33.13431,25.49853 43.60623,43.60623 10.44131,18.10771 15.94137,38.63437 15.94137,59.5476 0,20.91706 -5.50006,41.43989 -15.94137,59.54759 -10.47192,18.11154 -25.49852,33.13814 -43.60623,43.61006 -18.11153,10.44131 -38.63436,15.94137 -59.54759,15.94137 -20.91706,0 -41.43989,-5.50006 -59.55142,-15.94137 -18.10771,-10.47192 -33.13431,-25.49852 -43.60624,-43.61006 -10.441306,-18.1077 -15.941363,-38.63053 -15.941363,-59.54759 0,-20.91323 5.500057,-41.43989 15.941363,-59.5476 10.47193,-18.1077 25.49853,-33.1343 43.60624,-43.60623 18.11153,-10.44513 38.63436,-15.94136 59.5208,-15.94136 z m 0,0"
     id="path449"
     style="stroke-width:0.979829" />
  <path
     fill-rule="evenodd"
     fill="#fefefe"
     fill-opacity="1"
     d="m 194.8545,222.12896 h 0.0306 c 14.72041,0 29.16141,3.85808 41.91067,11.21828 12.74927,7.36021 23.33219,17.94313 30.69239,30.69239 7.3602,12.74926 11.21828,27.19026 11.21828,41.91067 0,14.7204 -3.85808,29.16523 -11.21828,41.91067 -7.3602,12.74926 -17.94312,23.33218 -30.69239,30.69238 -12.74926,7.3602 -27.19026,11.22211 -41.91067,11.22211 -14.7204,0 -29.16523,-3.86191 -41.91449,-11.22211 -12.74544,-7.3602 -23.32836,-17.94312 -30.68856,-30.69238 -7.3602,-12.74544 -11.22211,-27.19027 -11.22211,-41.91067 0,-14.72041 3.86191,-29.16141 11.22211,-41.91067 7.3602,-12.74926 17.94312,-23.33218 30.68856,-30.69239 12.74926,-7.32958 27.19409,-11.21828 41.88387,-11.21828 z m 0,0"
     id="path451"
     style="stroke-width:0.979829" />
  <path
     fill-rule="evenodd"
     fill="#000000"
     fill-opacity="1"
     d="m 230.32356,259.51175 c -22.804,0 -33.99548,15.55479 -33.99548,46.88253 0,31.30478 10.33031,47.10836 34.16389,47.10836 23.82975,0 33.82707,-17.72113 33.82707,-46.96674 0,-29.30302 -11.19148,-47.02415 -33.99548,-47.02415 z m 0,0 z m 0,17.85892 c -12.44307,0 -15.63517,8.44337 -15.77678,29.10782 -0.13779,20.61086 3.33371,29.10782 15.77678,29.10782 12.44307,0 15.91457,-10.8585 15.91457,-29.10782 0,-18.2455 -3.4715,-29.10782 -15.91457,-29.10782 z m 0,0 z m -77.37972,18.66651 v 17.52593 c 5.97083,0.0804 15.24859,1.19417 15.3328,12.41245 0,2.19696 -2.55675,9.16676 -13.52624,9.49975 -4.80729,0.0268 -8.99836,-1.80656 -11.9455,-8.02618 l -17.16232,4.63888 c 4.83025,15.1376 16.69154,21.21943 28.52222,21.30363 21.77823,0.0536 31.46936,-14.33383 31.97075,-27.94427 0.13779,-7.276 -2.52995,-15.24477 -8.22138,-20.85582 3.55571,-4.44368 6.88943,-10.11214 6.91622,-17.36135 -0.0268,-13.35783 -8.0568,-26.63528 -27.86007,-28.02465 -13.77502,-0.60857 -26.10709,6.80522 -29.747,19.27508 l 17.08194,5.08286 c 2.75195,-5.05224 6.44544,-6.58322 11.6661,-6.63681 8.24817,0.0842 10.86232,6.69423 10.88911,7.94581 -0.0268,2.19313 1.13676,11.16469 -13.91663,11.16469 z m 0,0"
     id="path453"
     style="stroke-width:0.979829" />
  <path
     id="path1855"
     style="font-weight:bold;font-size:81.4314px;line-height:1.25;font-family:'Caracteres L1';-inkscape-font-specification:'Caracteres L1 Bold';fill:#000000;fill-rule:evenodd;stroke-width:48.5518;stroke-linecap:round;stroke-linejoin:round;paint-order:stroke fill markers"
     d="m 168.80004,69.7081 c -2.05186,0 -4.10413,0.325242 -6.15599,0.974566 -2.96091,0.909051 -5.80568,2.99966 -8.53284,6.272248 -4.07775,5.999742 -6.1158,13.583889 -6.1158,22.752328 0,0.571398 0.0128,1.142328 0.0387,1.713738 0.052,6.77893 2.07722,13.38878 6.07705,19.83006 3.86997,4.83097 8.66333,7.24682 14.37737,7.24682 0.54543,0 1.10359,-0.0256 1.67499,-0.0775 5.50626,-0.49348 9.76558,-2.79289 12.77845,-6.89661 4.23358,-6.10363 6.34976,-13.50598 6.34976,-22.206902 v -0.700421 c 0,-6.960742 -1.28533,-12.830645 -3.85665,-17.60966 -3.01286,-6.467257 -7.66134,-10.181213 -13.94678,-11.142211 -0.88308,-0.103891 -1.77926,-0.156446 -2.68831,-0.156446 z m 37.62343,0.779366 v 57.231024 h 10.71307 l 0.0387,-36.076184 17.41589,36.037434 h 10.40159 l -0.0387,-57.192274 h -10.5968 V 100.95307 L 220.02005,70.487466 Z m 55.73976,0.116259 -0.0387,57.076015 h 35.60828 v -10.55805 h -24.62253 v -13.05116 h 17.29821 V 93.512497 H 273.11023 V 81.045509 h 23.60921 V 70.603725 Z M 93.462741,70.642478 V 81.668427 H 116.21507 L 92.255655,116.22606 v 11.45368 h 38.608055 v -10.7145 h -25.24544 l 24.54501,-35.296813 0.0387,-11.025949 z m 75.571249,9.039499 c 2.36354,0.337648 4.51805,1.960995 6.46601,4.869963 2.38952,4.181638 3.5456,9.544501 3.46769,16.08967 -0.3896,5.14264 -1.3369,9.03839 -2.84333,11.68762 -2.07784,3.97387 -4.62292,6.0389 -7.63578,6.19475 -2.46743,-0.31168 -4.66315,-1.92225 -6.58514,-4.83122 -2.41547,-4.15565 -3.59712,-9.50574 -3.54519,-16.050913 0.44154,-5.142637 1.40306,-9.090942 2.88352,-11.84407 2.07784,-3.92191 4.67547,-5.959963 7.79222,-6.1158 z" />
</svg>
