<?xml version="1.0" encoding="UTF-8" standalone="no"?>
<!-- Generator: Adobe Illustrator 16.0.2, SVG Export Plug-In . SVG Version: 6.00 Build 0)  -->

<svg
   version="1.1"
   id="Ebene_1"
   x="0px"
   y="0px"
   width="570.99298"
   height="570.99298"
   viewBox="0 0 570.99298 570.99298"
   xml:space="preserve"
   inkscape:version="1.4.2 (f4327f4, 2025-05-13)"
   sodipodi:docname="France_road_sign_B33_(30).svg"
   xmlns:inkscape="http://www.inkscape.org/namespaces/inkscape"
   xmlns:sodipodi="http://sodipodi.sourceforge.net/DTD/sodipodi-0.dtd"
   xmlns="http://www.w3.org/2000/svg"
   xmlns:svg="http://www.w3.org/2000/svg"
   xmlns:rdf="http://www.w3.org/1999/02/22-rdf-syntax-ns#"
   xmlns:cc="http://creativecommons.org/ns#"
   xmlns:dc="http://purl.org/dc/elements/1.1/"><metadata
   id="metadata43"><rdf:RDF><cc:Work
       rdf:about=""><dc:format>image/svg+xml</dc:format><dc:type
         rdf:resource="http://purl.org/dc/dcmitype/StillImage" /></cc:Work></rdf:RDF></metadata><defs
   id="defs41" /><sodipodi:namedview
   pagecolor="#ffffff"
   bordercolor="#666666"
   borderopacity="1"
   objecttolerance="10"
   gridtolerance="10"
   guidetolerance="10"
   inkscape:pageopacity="0"
   inkscape:pageshadow="2"
   inkscape:window-width="1920"
   inkscape:window-height="991"
   id="namedview39"
   showgrid="false"
   fit-margin-top="0"
   fit-margin-left="0"
   fit-margin-right="0"
   fit-margin-bottom="0"
   inkscape:zoom="0.70710678"
   inkscape:cx="199.40411"
   inkscape:cy="398.80823"
   inkscape:window-x="-9"
   inkscape:window-y="-9"
   inkscape:window-maximized="1"
   inkscape:current-layer="Ebene_1"
   inkscape:pagecheckerboard="0"
   inkscape:showpageshadow="2"
   inkscape:deskcolor="#d1d1d1" />








<g
   id="g23"
   transform="translate(-830.62314,-192.30502)">
	<rect
   x="328.5"
   y="230"
   style="fill:none"
   width="463"
   height="384"
   id="rect25" />
	
</g>


<circle
   fill="#ffffff"
   stroke="#000000"
   stroke-width="0.9931"
   stroke-linecap="round"
   stroke-linejoin="round"
   cx="285.49649"
   cy="285.49649"
   r="284.99994"
   id="circle2"
   style="opacity:1;fill:#ffffff" /><path
   id="circle4"
   style="opacity:1;fill:#000000;stroke:none;stroke-width:1.28107"
   d="M 285.49609 13.396484 C 135.21994 13.397232 13.397232 135.21994 13.396484 285.49609 C 13.396147 435.77301 135.21917 557.59691 285.49609 557.59766 C 435.77301 557.59691 557.59604 435.77301 557.5957 285.49609 C 557.59495 135.21994 435.77224 13.39723 285.49609 13.396484 z M 285.49609 25.810547 C 337.94138 25.823947 389.15363 41.71649 432.39258 71.396484 L 332.57812 171.21094 L 359.08203 171.21094 C 391.78863 171.21094 415.71832 186.58163 428.38672 209.21875 C 428.45872 209.34621 428.5211 209.47961 428.5918 209.60742 L 499.5957 138.60352 C 529.27601 181.84169 545.16922 233.05322 545.18359 285.49805 C 545.18384 428.9196 428.91764 545.1858 285.49609 545.18555 C 233.11839 545.02973 182.01199 529.0389 138.88672 499.3125 L 238.4043 399.79492 L 204.35742 399.79492 C 187.6089 399.79492 170.79557 396.34631 156.26562 387.24414 C 148.53803 382.40324 141.6234 375.92048 135.87891 367.91016 L 71.681641 432.10547 C 41.955621 388.98074 25.964806 337.87509 25.808594 285.49805 C 25.808344 142.0765 142.07454 25.810301 285.49609 25.810547 z M 167.74219 347.69141 L 156.16211 351.0625 C 161.49819 358.36001 168.14674 363.66262 176.00977 367.16406 C 183.74597 370.60904 193.27839 372.05114 205.33984 372.12305 L 205.54492 366.36914 L 206.23633 366.36914 L 206.23633 360.73438 C 204.71192 360.88007 203.17454 360.97461 201.62109 360.97461 C 193.58836 360.97461 185.08692 359.73472 177.17188 355.41992 C 173.71203 353.53383 170.52684 350.87376 167.74219 347.69141 z " /><rect
   style="fill:#000000;fill-rule:evenodd;opacity:1"
   id="rect2"
   width="95.042336"
   height="510.12228"
   x="-451.27417"
   y="-255.06114"
   transform="matrix(-0.70710678,-0.70710678,-0.70710678,0.70710678,0,0)" /><g
   id="path3517"
   style="opacity:1"
   transform="translate(-710.84138)"><path
     id="path3"
     style="font-size:269.74px;line-height:1.25;font-family:'Caracteres L1';-inkscape-font-specification:'Caracteres L1';baseline-shift:baseline;display:inline;overflow:visible;vector-effect:none;fill:#ffffff;paint-order:stroke fill markers;enable-background:accumulate;stop-color:#000000;stop-opacity:1"
     d="M 936.47615 172.42188 L 924.70271 278.54297 A 82.386513 79.047997 0 0 0 913.40583 320.80664 A 82.386513 79.047997 0 0 0 948.64216 383.39258 L 948.6656 383.36133 C 952.59374 386.14353 956.79066 388.54177 961.232 390.51953 C 973.92157 396.17025 987.58949 397.75977 1002.0484 397.75977 C 1043.7201 397.75977 1079.3023 364.34082 1079.3023 319.2832 C 1079.3023 302.7046 1074.0315 287.43778 1065.5523 274.96289 L 1065.5523 236.70117 L 1065.7808 172.42188 L 936.47615 172.42188 z " /><path
     style="font-size:269.74px;line-height:1.25;font-family:'Caracteres L1';-inkscape-font-specification:'Caracteres L1';baseline-shift:baseline;display:inline;overflow:visible;vector-effect:none;paint-order:stroke fill markers;enable-background:accumulate;stop-color:#000000;stop-opacity:1"
     d="m 1052.6595,185.49772 -0.1357,38.12757 h -67.02852 l -4.61329,33.92132 c 15.21809,-4.07768 35.29831,-3.16858 47.63921,2.3487 19.7842,8.84499 37.7068,32.63399 37.7068,59.3881 0,38.4252 -29.2367,65.40031 -64.1791,65.40031 -13.4757,0 -25.19072,-1.52006 -35.49665,-6.10934 C 949.35797,370.91767 936.61076,356.03005 930,335.0229 l 39.07736,-9.90503 c 3.56712,12.64598 12.69898,19.54715 28.16936,19.54715 14.54918,0 28.68278,-6.47331 28.68278,-25.0414 0,-18.27764 -12.9582,-25.10077 -26.81734,-25.10077 -11.62567,0 -20.81599,2.66939 -27.18542,7.93557 l -33.78562,-26.45862 10.04071,-90.50208 z"
     id="path4" /></g></svg>
