<?xml version="1.0" encoding="UTF-8" standalone="no"?>
<!-- Generator: Adobe Illustrator 16.0.2, SVG Export Plug-In . SVG Version: 6.00 Build 0)  -->

<svg
   version="1.1"
   id="Ebene_1"
   x="0px"
   y="0px"
   width="570.99298"
   height="570.99298"
   viewBox="0 0 570.99298 570.99298"
   xml:space="preserve"
   inkscape:version="1.1.1 (3bf5ae0d25, 2021-09-20)"
   sodipodi:docname="France_road_sign_B33_(50) - Copie.svg"
   xmlns:inkscape="http://www.inkscape.org/namespaces/inkscape"
   xmlns:sodipodi="http://sodipodi.sourceforge.net/DTD/sodipodi-0.dtd"
   xmlns="http://www.w3.org/2000/svg"
   xmlns:svg="http://www.w3.org/2000/svg"
   xmlns:rdf="http://www.w3.org/1999/02/22-rdf-syntax-ns#"
   xmlns:cc="http://creativecommons.org/ns#"
   xmlns:dc="http://purl.org/dc/elements/1.1/"><metadata
   id="metadata43"><rdf:RDF><cc:Work
       rdf:about=""><dc:format>image/svg+xml</dc:format><dc:type
         rdf:resource="http://purl.org/dc/dcmitype/StillImage" /></cc:Work></rdf:RDF></metadata><defs
   id="defs41" /><sodipodi:namedview
   pagecolor="#ffffff"
   bordercolor="#666666"
   borderopacity="1"
   objecttolerance="10"
   gridtolerance="10"
   guidetolerance="10"
   inkscape:pageopacity="0"
   inkscape:pageshadow="2"
   inkscape:window-width="1920"
   inkscape:window-height="991"
   id="namedview39"
   showgrid="false"
   fit-margin-top="0"
   fit-margin-left="0"
   fit-margin-right="0"
   fit-margin-bottom="0"
   inkscape:zoom="0.5"
   inkscape:cx="389"
   inkscape:cy="203"
   inkscape:window-x="-9"
   inkscape:window-y="-9"
   inkscape:window-maximized="1"
   inkscape:current-layer="Ebene_1"
   inkscape:pagecheckerboard="0" />








<g
   id="g23"
   transform="translate(-830.62314,-192.30502)">
	<rect
   x="328.5"
   y="230"
   style="fill:none"
   width="463"
   height="384"
   id="rect25" />
	<path
   style="fill:#ffffff"
   d="m 337.729,360.811 c -0.293,-5.468 -0.439,-10.84 -0.439,-16.113 0,-2.637 0.048,-5.273 0.146,-7.91 0.293,-10.35 1.121,-20.409 2.49,-30.176 v -1.025 l 0.586,-1.318 1.025,-10.107 0.732,-1.465 1.465,-8.203 0.586,-0.879 c 1.465,-7.031 4.637,-14.941 9.521,-23.73 l 4.248,-6.445 8.203,-8.35 c 8.69,-7.031 19.97,-12.06 33.838,-15.088 4.395,-0.78 8.936,-1.172 13.623,-1.172 h 1.172 c 7.324,0.197 14.989,1.417 22.998,3.662 3.318,0.392 8.643,2.589 15.967,6.592 7.519,4.688 14.355,11.085 20.508,19.189 l 4.688,7.178 3.809,8.057 1.611,5.859 0.439,0.439 v 1.465 c 0.975,2.051 1.561,3.662 1.758,4.834 l 0.586,0.732 2.49,13.037 0.439,0.293 -0.293,1.904 0.586,1.172 1.465,15.674 0.586,1.465 -0.439,0.146 1.025,9.229 -0.293,0.293 c 0.389,0.978 0.389,1.563 0,1.758 l 0.439,1.465 -0.293,0.439 0.732,9.961 -0.293,0.293 0.439,4.248 -0.146,0.293 v 5.859 c -0.099,3.614 -0.392,7.961 -0.879,13.037 l -0.732,5.42 0.293,0.293 -0.732,1.465 c -0.293,3.614 -1.124,7.91 -2.49,12.891 l -0.879,2.783 -0.146,1.611 -3.809,10.84 -0.732,0.586 c 0,0.978 -1.271,3.955 -3.809,8.936 l -7.031,10.107 c -7.716,8.888 -16.26,15.381 -25.635,19.482 -6.152,2.442 -12.355,4.051 -18.604,4.834 l -11.279,0.732 -2.637,-0.146 c -22.266,-0.586 -40.235,-7.812 -53.906,-21.68 -6.738,-7.519 -11.817,-16.26 -15.234,-26.221 -3.907,-10.155 -6.299,-20.849 -7.178,-32.08 z m 72.949,44.238 c 6.054,0.392 9.814,0.293 11.279,-0.293 l 0.146,0.293 8.057,-1.758 c 6.445,-2.146 11.375,-6.786 14.795,-13.916 2.637,-7.127 4.589,-15.623 5.859,-25.488 l 0.732,-33.105 -0.439,-15.527 -1.465,-11.572 -0.586,-0.586 -1.904,-8.203 -0.586,-0.293 c -1.465,-5.859 -4.248,-11.279 -8.35,-16.26 -3.127,-2.538 -5.617,-4.198 -7.471,-4.98 l -8.496,-2.051 -8.936,-0.439 c -4.006,-0.096 -8.448,0.732 -13.33,2.49 -4.493,2.149 -8.254,6.006 -11.279,11.572 -2.149,5.177 -4.102,11.671 -5.859,19.482 l 0.293,0.879 c -0.586,0.49 -0.93,2.101 -1.025,4.834 -1.369,11.426 -1.516,28.176 -0.439,50.244 l 2.344,15.967 3.076,11.279 c 2.245,5.859 5.321,10.107 9.229,12.744 3.515,2.248 8.298,3.808 14.355,4.687 z"
   id="path27"
   inkscape:connector-curvature="0" />
</g>


<circle
   fill="#ffffff"
   stroke="#000000"
   stroke-width="0.9931"
   stroke-linecap="round"
   stroke-linejoin="round"
   cx="285.49649"
   cy="285.49649"
   r="284.99994"
   id="circle2"
   style="opacity:1;fill:#ffffff" /><path
   id="circle4"
   style="opacity:1;fill:#000000;stroke:none;stroke-width:1.28107"
   d="M 285.49609 13.396484 C 135.21994 13.397232 13.397232 135.21994 13.396484 285.49609 C 13.396147 435.77301 135.21917 557.59691 285.49609 557.59766 C 435.77301 557.59691 557.59604 435.77301 557.5957 285.49609 C 557.59495 135.21994 435.77224 13.39723 285.49609 13.396484 z M 285.49609 25.810547 C 337.94138 25.823947 389.15363 41.71649 432.39258 71.396484 L 332.57812 171.21094 L 359.08203 171.21094 C 391.78863 171.21094 415.71832 186.58163 428.38672 209.21875 C 428.45872 209.34621 428.5211 209.47961 428.5918 209.60742 L 499.5957 138.60352 C 529.27601 181.84169 545.16922 233.05322 545.18359 285.49805 C 545.18384 428.9196 428.91764 545.1858 285.49609 545.18555 C 233.11839 545.02973 182.01199 529.0389 138.88672 499.3125 L 239.89844 398.30078 L 206.23633 398.30078 C 191.75901 398.30078 178.07468 396.70971 165.37109 391.05273 C 153.80868 385.90393 143.90448 377.90252 136.08984 367.69922 L 71.681641 432.10547 C 41.955621 388.98074 25.964806 337.87509 25.808594 285.49805 C 25.808344 142.0765 142.07454 25.810301 285.49609 25.810547 z M 170.71094 346.82812 L 156.16211 351.0625 C 161.49819 358.36001 168.14674 363.66262 176.00977 367.16406 C 183.94618 370.69819 193.72549 372.15234 206.23633 372.15234 L 206.23633 357.96094 C 204.62597 358.08384 203.00999 358.22852 201.42773 358.22852 C 191.73779 358.22852 182.63483 355.98836 175.29102 350.78125 C 173.62856 349.6025 172.11758 348.26239 170.71094 346.82812 z " /><path
   style="color:#000000;fill:#000000;stroke-width:26.15;stroke-linecap:round;stroke-linejoin:round;stroke-dashoffset:6.67087;-inkscape-stroke:none;paint-order:stroke fill markers"
   d="m 359.08236,184.27621 c -58.177,0 -72.1663,48.32729 -72.1663,105.62373 0,52.51993 13.9893,96.81893 72.1663,96.81893 58.1769,0 72.1662,-44.299 72.1662,-96.81893 0,-57.29644 -13.9893,-105.62373 -72.1662,-105.62373 z m 0,38.93144 c 29.5219,0 32.6167,25.82627 32.6167,62.35811 0,36.53184 -3.0948,62.35612 -32.6167,62.35612 -29.5221,0 -32.6168,-25.82428 -32.6168,-62.35612 0,-36.53184 3.0947,-62.35811 32.6168,-62.35811 z"
   id="path2492" /><path
   style="color:#000000;-inkscape-font-specification:'Caracteres L1';fill:#000000;stroke-width:26.15;-inkscape-stroke:none"
   d="m 256.91555,185.76854 -0.13587,38.17963 h -67.12007 l -4.61959,33.96764 c 15.23889,-4.08324 35.3465,-3.1729 47.70424,2.35192 19.81122,8.85707 37.75833,32.67855 37.75833,59.46919 0,38.47767 -29.27667,65.48962 -64.26677,65.48962 -13.49409,0 -25.2251,-1.52213 -35.54511,-6.11769 -17.21776,-7.66716 -29.98238,-22.57511 -36.60216,-43.61094 l 39.13072,-9.91856 c 3.57199,12.66325 12.71633,19.57384 28.20782,19.57384 14.56909,0 28.72196,-6.48214 28.72196,-25.07559 0,-18.3026 -12.97588,-25.13505 -26.85399,-25.13505 -11.64152,0 -20.84439,2.67303 -27.22251,7.94641 l -33.83176,-26.49476 10.05442,-90.62566 z"
   id="path2401" /></svg>
