<?xml version="1.0" encoding="utf-8"?>
<!-- Generator: Adobe Illustrator 13.0.0, SVG Export Plug-In  -->
<!DOCTYPE svg PUBLIC "-//W3C//DTD SVG 1.1//EN" "http://www.w3.org/Graphics/SVG/1.1/DTD/svg11.dtd" [
	<!ENTITY ns_flows "http://ns.adobe.com/Flows/1.0/">
]>
<svg version="1.1"
	 xmlns="http://www.w3.org/2000/svg" xmlns:xlink="http://www.w3.org/1999/xlink" xmlns:a="http://ns.adobe.com/AdobeSVGViewerExtensions/3.0/"
	 x="0px" y="0px" width="576px" height="576px" viewBox="-0.944 -0.944 576 576" enable-background="new -0.944 -0.944 576 576"
	 xml:space="preserve">
<defs>
</defs>
<circle stroke="#000000" stroke-width="0.1764" stroke-linecap="round" stroke-linejoin="round" cx="287.056" cy="287.056" r="286.968"/>
<path fill="#FFFFFF" stroke="#000000" stroke-width="0.1764" stroke-linecap="round" stroke-linejoin="round" d="M116.409,387.711
	l139.95-0.548l-27.569,27.591l-97.521,97.053c108.646,75.308,255.606,62.118,349.105-31.333
	c93.5-93.45,106.766-240.404,31.513-349.089l-71.274,71.385l-15.35,15.361H286.027l58.23-58.232l98.938-97.348
	C334.725-12.889,187.828,0.014,94.169,93.208C0.51,186.403-13.123,333.233,61.777,442.078L116.409,387.711z"/>
<path stroke="#000000" stroke-width="0.1764" stroke-linecap="round" stroke-linejoin="round" d="M255.388,155.898h-113.6
	c-8.678,4.876-14.195,16.682-13.797,29.523v137.484c0,2.507,0.727,4.912,2.021,6.686c1.294,1.771,3.049,2.769,4.878,2.769h1.429
	v35.113c0,0.502,0.146,0.983,0.404,1.337c0.259,0.354,0.609,0.554,0.976,0.554h12.433c0.366,0,0.717-0.199,0.976-0.554
	c0.258-0.354,0.404-0.835,0.404-1.337v-24.872c0-2.546,0.749-4.984,2.078-6.763c1.33-1.778,3.126-2.748,4.983-2.688l40.015,1.291
	l40.017-1.291c1.856-0.06,3.653,0.91,4.982,2.688s2.079,4.217,2.079,6.763v24.872c0,0.502,0.145,0.983,0.404,1.337
	c0.259,0.354,0.61,0.554,0.976,0.554h12.433c0.366,0,0.717-0.199,0.976-0.554c0.259-0.354,0.404-0.835,0.404-1.337v-35.113h1.43
	c1.83,0,3.583-0.997,4.878-2.769c1.292-1.773,2.02-4.179,2.02-6.686V185.421C269.582,172.58,264.066,160.774,255.388,155.898z"/>
<path stroke="#000000" stroke-width="0.1764" stroke-linecap="round" stroke-linejoin="round" d="M320.244,256.253
	c25.754,0,51.508,0,77.261,0c3.032,0,9.995,8.88,12.249,10.953c4.587,4.217,4.961,9.984,6.619,15.97
	c1.926,6.954,2.68,9.258,7.677,14.369c5.73,5.86,5.216,7.256,5.45,15.551c0.137,4.808,2.376,14.433,0.535,18.911
	c-1.717,4.176-11.559,6.82-11.559,11.54c0,6.975,0,13.95,0,20.925c0,4.07-11.597,4.724-13.892,2.359
	c-2.872-2.96-0.554-15.895-0.554-19.74c0-5.071-0.557-3.906-5.416-3.906c-16.007,0-32.015,0-48.022,0c-10.099,0-20.198,0-30.297,0
	c-8.377,0-5.416,3.931-5.416,12.247c0,2.332,1.354,9.435-0.554,11.399c-1.389,1.438-11.38,1.429-12.83,0.57
	c-5.211,0,0.431-21.745-2.166-24.513c-3.117-3.321-6.233-6.643-9.351-9.964c-1.483-1.581-0.277-8.74-0.277-10.788
	c0-5.404,0-10.81,0-16.215c0-4.288,2.103-5.047,5.365-8.066c7.385-6.838,7.776-14.557,10.24-24.352
	C307.128,266.267,315.005,261.354,320.244,256.253"/>
<path fill="#FFFFFF" stroke="#000000" stroke-width="0.1764" stroke-linecap="round" stroke-linejoin="round" d="M414.805,319.022
	c0-9.149-13.82-9.149-13.82,0S414.805,328.172,414.805,319.022"/>
<path fill="#FFFFFF" stroke="#000000" stroke-width="0.1764" stroke-linecap="round" stroke-linejoin="round" d="M318.527,319.022
	c0-9.264-13.997-9.265-13.997,0C304.53,328.288,318.527,328.287,318.527,319.022"/>
<path fill="#FFFFFF" stroke="#000000" stroke-width="0.1764" stroke-linecap="round" stroke-linejoin="round" d="M318.181,267.629
	c20.919-0.157,41.839-0.313,62.758-0.47c1.478-0.011,20.06-0.905,20.243,0.051c1.775,9.246,3.551,18.493,5.326,27.739
	c-31.644,0-63.287,0-94.931,0C313.778,285.843,315.979,276.736,318.181,267.629"/>
</svg>
