<?xml version="1.0" encoding="utf-8"?>
<!-- Generator: Adobe Illustrator 13.0.0, SVG Export Plug-In  -->
<!DOCTYPE svg PUBLIC "-//W3C//DTD SVG 1.1//EN" "http://www.w3.org/Graphics/SVG/1.1/DTD/svg11.dtd" [
	<!ENTITY ns_flows "http://ns.adobe.com/Flows/1.0/">
]>
<svg version="1.1"
	 xmlns="http://www.w3.org/2000/svg" xmlns:xlink="http://www.w3.org/1999/xlink" xmlns:a="http://ns.adobe.com/AdobeSVGViewerExtensions/3.0/"
	 x="0px" y="0px" width="576px" height="576px" viewBox="-0.944 -0.944 576 576" enable-background="new -0.944 -0.944 576 576"
	 xml:space="preserve">
<defs>
</defs>
<circle stroke="#000000" stroke-width="0.1764" stroke-linecap="round" stroke-linejoin="round" cx="287.056" cy="287.056" r="286.968"/>
<path fill="#FFFFFF" stroke="#000000" stroke-width="0.1764" stroke-linecap="round" stroke-linejoin="round" d="M130.823,511.496
	c108.501,75.527,255.496,62.624,349.179-30.651c93.683-93.276,107.227-240.213,32.172-349.042l-71.582,70.791l-33.458,22.872
	l-19.967,7.887l-17.27,1.577l-66.376,5.521l-36.156-3.154L441.947,61.688C333.251-13.017,186.72,0.506,93.533,93.844
	C0.346,187.181-12.942,333.733,61.937,442.31l22.035-20.534l24.201-21.477l23.727-13.856l52.201-25.634l44.132-16.628l39.387-6.927
	l41.286-2.771L130.823,511.496z"/>
<path stroke="#000000" stroke-width="0.1764" stroke-linecap="round" stroke-linejoin="round" d="M118.005,198.301
	c6.874,5.311,13.747,10.622,20.62,15.933c6.874,5.311,13.747,10.622,20.62,15.933c5.679,4.388,11.841,7.415,18.271,9.96
	c6.43,2.546,13.127,4.61,19.878,7.073c15.521,5.663,31.368,9.111,47.42,11.729c16.053,2.618,32.313,4.406,48.66,6.75
	c5.403,0.774,10.87,0.611,16.34,0.131s10.942-1.276,16.357-1.766c10.093-0.914,20.185-1.827,30.276-2.74
	c10.093-0.914,20.186-1.827,30.277-2.741c5.131-0.464,11.078-1.724,16.796-3.578c5.718-1.854,11.206-4.301,15.421-7.14
	c4.041-2.722,8.081-5.443,12.121-8.164c4.04-2.722,8.08-5.443,12.12-8.165c2.712-1.827,6.073-2.427,9.557-2.62
	c3.482-0.193,7.087,0.022,10.281-0.172c0.12,19.583,0.239,39.165,0.359,58.748s0.239,39.165,0.359,58.748
	c-2.058,0-6.022,0.544-9.864,0.786s-7.563,0.184-9.131-1.021c-3.79-2.911-7.58-5.822-11.369-8.734
	c-3.79-2.911-7.58-5.822-11.37-8.733c-4.188-3.218-9.468-5.962-15.017-8.034c-5.549-2.073-11.366-3.475-16.628-4.006
	c-9.905-1.001-19.812-2.002-29.718-3.003c-9.905-1.001-19.811-2.002-29.717-3.003c-5.929-0.6-11.979-1.584-18.029-2.209
	s-12.104-0.889-18.036-0.046c-16.788,2.386-33.341,4.11-49.618,6.854s-32.276,6.503-47.957,12.958
	c-6.301,2.594-13.099,4.851-19.707,7.471c-6.608,2.619-13.027,5.602-18.569,9.646c-7.193,5.25-14.387,10.499-21.581,15.748
	c-7.194,5.25-14.388,10.5-21.581,15.749c0.359-29.724,0.719-59.446,1.078-89.17C117.287,257.748,117.646,228.024,118.005,198.301"/>
</svg>
