<?xml version="1.0" encoding="utf-8"?>
<!-- Generator: Adobe Illustrator 16.0.2, SVG Export Plug-In . SVG Version: 6.00 Build 0)  -->
<!DOCTYPE svg PUBLIC "-//W3C//DTD SVG 1.1//EN" "http://www.w3.org/Graphics/SVG/1.1/DTD/svg11.dtd">
<svg version="1.1" id="Ebene_1" xmlns="http://www.w3.org/2000/svg" xmlns:xlink="http://www.w3.org/1999/xlink" x="0px" y="0px"
	 width="576px" height="576px" viewBox="0 0 576 576" style="enable-background:new 0 0 576 576;" xml:space="preserve">
<circle style="stroke:#000000;stroke-width:0.1764;stroke-linecap:round;stroke-linejoin:round;" cx="287.057" cy="287.057" r="286.969"/>
<circle style="fill:#FFFFFF;stroke:#000000;stroke-width:0.1764;stroke-linecap:round;stroke-linejoin:round;" cx="287.057" cy="287.057" r="273.465"/>
<g>
	<rect x="2.427" y="99.068" style="fill:none;" width="571.148" height="269.432"/>
	<path d="M273.781,99.156v7.852h-19.352v9.375h14.179v7.969h-14.179l-0.032,17.754h-9.005l0.032-42.949H273.781z"/>
	<path d="M288.734,99.214v42.949h-8.877V99.214H288.734z"/>
	<path d="M309.916,99.156l11.751,22.91v-22.91h8.687l0.031,43.008h-8.526l-14.273-27.1l-0.032,27.129h-8.782V99.156H309.916z"/>
</g>
<g>
	<rect x="2.427" y="197.438" style="fill:none;" width="571.148" height="269.433"/>
	<path d="M83.137,197.438c3.066,0.333,5.668,1.455,7.808,3.369c2.139,1.915,3.688,4.18,4.646,6.797
		c0.447,1.153,0.777,2.666,0.99,4.541v13.184c-0.319,4.453-1.847,8.047-4.583,10.781c-2.736,2.735-6.063,4.189-9.979,4.365H63.498
		l0.032-43.037H83.137z M72.663,232.008h7.473c1.511-0.215,2.799-0.728,3.864-1.538c1.064-0.81,1.969-2.231,2.714-4.263
		c0.404-1.25,0.521-5.801,0.351-13.652c-1-4.062-3.311-6.396-6.929-7.002h-7.473V232.008z"/>
	<path d="M115.656,197.497l-3.034,9.17h-10.762l3.162-9.17H115.656z"/>
	<path d="M133.167,197.584v42.949h-8.877v-42.949H133.167z"/>
	<path d="M153.041,197.526l11.752,22.91v-22.91h8.686l0.032,43.008h-8.526l-14.274-27.1l-0.032,27.129h-8.782v-43.037H153.041z"/>
	<path d="M209.447,197.555v8.262h-9.356v34.717h-8.686v-34.805h-9.995v-8.174H209.447z"/>
	<path d="M244.553,197.614v7.852h-19.352v9.375h14.179v7.939h-14.179v9.814h20.182v7.939h-29.188l0.032-42.92H244.553z"/>
	<path d="M267.908,197.438c4.917,0,8.76,1.622,11.528,4.863c2.427,2.852,3.641,6.064,3.641,9.639c0,0.645-0.043,1.406-0.128,2.285
		c-0.511,4.355-2.885,7.959-7.121,10.811l7.792,15.469h-10.091l-6.674-12.803h-5.78v12.891h-8.846l0.032-43.154H267.908z
		 M266.631,219.44l2.619-0.293c1.49-0.371,2.735-1.143,3.736-2.314c0.852-1.152,1.362-2.529,1.533-4.131
		c0.084-1.992-0.554-3.73-1.916-5.215c-1.15-1.211-2.821-1.894-5.014-2.051h-6.419v14.004H266.631z"/>
	<path d="M309.21,197.438c3.065,0.333,5.668,1.455,7.808,3.369c2.14,1.915,3.688,4.18,4.646,6.797
		c0.446,1.153,0.776,2.666,0.989,4.541v13.184c-0.319,4.453-1.847,8.047-4.582,10.781c-2.736,2.735-6.063,4.189-9.979,4.365h-18.521
		l0.032-43.037H309.21z M298.736,232.008h7.473c1.511-0.215,2.799-0.728,3.863-1.538c1.064-0.81,1.97-2.231,2.715-4.263
		c0.404-1.25,0.521-5.801,0.352-13.652c-1.001-4.062-3.311-6.396-6.93-7.002h-7.473V232.008z"/>
	<path d="M339.398,197.584v42.949h-8.877v-42.949H339.398z"/>
	<path d="M366.777,197.057c6.195,0.977,10.251,4.365,12.167,10.166l0.287,1.436l-8.079,1.553c-0.66-2.5-1.788-4.16-3.385-4.98
		s-3.471-0.742-5.62,0.234c-1.427,1.113-2.614,2.637-3.561,4.57c-0.948,1.934-1.57,4.551-1.868,7.852
		c-0.128,3.516,0.372,6.567,1.501,9.155c1.128,2.588,2.495,4.302,4.104,5.142c1.606,0.84,3.251,0.957,4.934,0.352
		c1.682-0.391,3.022-1.982,4.023-4.775l8.079,2.285c-1.086,3.926-3.183,6.768-6.291,8.525c-2.278,1.329-4.961,2.08-8.047,2.256
		c-5.813-0.117-10.155-2.295-13.029-6.533c-3.023-4.609-4.577-9.599-4.662-14.971c0.042-6.719,1.617-12.217,4.727-16.494
		c1.958-2.363,4.15-3.994,6.578-4.893c1.83-0.664,3.82-0.996,5.972-0.996C365.308,196.94,366.031,196.979,366.777,197.057z"/>
	<path d="M413.731,197.555v8.262h-9.356v34.717h-8.687v-34.805h-9.995v-8.174H413.731z"/>
	<path d="M430.507,197.584v42.949h-8.877v-42.949H430.507z"/>
	<path d="M457.917,197.057c5.151,0.723,8.962,3.516,11.432,8.379c2.108,3.594,3.162,8.008,3.162,13.242v0.527
		c0,6.543-1.735,12.11-5.205,16.699c-2.47,3.086-5.961,4.814-10.475,5.186c-0.469,0.039-0.926,0.059-1.373,0.059
		c-4.684,0-8.611-1.816-11.783-5.449c-3.279-4.844-4.939-9.814-4.982-14.912c-0.021-0.429-0.031-0.859-0.031-1.289
		c0-6.895,1.671-12.598,5.014-17.109c2.235-2.461,4.566-4.033,6.993-4.717c1.682-0.488,3.363-0.732,5.046-0.732
		C456.458,196.94,457.194,196.979,457.917,197.057z M455.458,233.649c2.47-0.117,4.556-1.67,6.259-4.658
		c1.234-1.992,2.012-4.922,2.331-8.789c0.064-4.922-0.884-8.955-2.842-12.1c-1.597-2.187-3.364-3.408-5.301-3.662
		c-2.555,0.117-4.684,1.651-6.387,4.6c-1.214,2.07-2.002,5.039-2.363,8.906c-0.043,4.922,0.926,8.946,2.906,12.07
		C451.637,232.204,453.436,233.415,455.458,233.649z"/>
	<path d="M491.427,197.526l11.751,22.91v-22.91h8.687l0.031,43.008h-8.525l-14.274-27.1l-0.032,27.129h-8.782v-43.037H491.427z"/>
</g>
<g>
	<rect x="2.427" y="288" style="fill:none;" width="571.148" height="269.432"/>
	<path d="M252.706,288.087l12.071,42.92h-9.165l-2.012-7.295h-12.933l-2.044,7.295h-9.261l11.943-42.92H252.706z M242.423,315.539
		h9.229l-4.471-16.758L242.423,315.539z"/>
	<path d="M279.41,288.205v29.063c0.404,3.711,2.683,5.781,6.834,6.211c4.087-0.41,6.387-2.451,6.898-6.123v-29.151h9.037v31.319
		c-0.787,3.828-2.757,6.807-5.907,8.936c-2.811,1.816-5.685,2.772-8.623,2.871c-0.469,0.039-0.926,0.059-1.374,0.059
		c-4.364,0-7.973-1.162-10.825-3.486c-3.257-2.891-4.982-5.84-5.173-8.848v-30.85H279.41z"/>
	<path d="M318.952,288.117l8.654,13.243l8.654-13.184h10.314l-14.339,21.27l14.466,21.592H336.42l-8.941-13.096l-8.462,13.066
		l-11.337,0.029l14.434-21.621l-14.401-21.299H318.952z"/>
</g>
<g>
	<rect x="1.483" y="382.068" style="fill:none;" width="571.148" height="269.432"/>
	<path d="M78.263,382.156l12.071,42.92h-9.165l-2.012-7.295H66.224l-2.044,7.295H54.92l11.943-42.92H78.263z M67.981,409.607h9.229
		l-4.471-16.758L67.981,409.607z"/>
	<path d="M103.66,382.273v29.063c0.404,3.711,2.683,5.781,6.834,6.211c4.087-0.41,6.387-2.451,6.897-6.123v-29.15h9.038v31.318
		c-0.788,3.828-2.757,6.807-5.908,8.936c-2.811,1.816-5.685,2.772-8.622,2.871c-0.469,0.039-0.926,0.059-1.374,0.059
		c-4.364,0-7.973-1.162-10.825-3.486c-3.257-2.891-4.982-5.84-5.173-8.848v-30.85H103.66z"/>
	<path d="M159.297,382.186v8.262h-9.356v34.717h-8.686v-34.805h-9.995v-8.174H159.297z"/>
	<path d="M182.586,381.688c5.152,0.723,8.962,3.516,11.432,8.379c2.107,3.594,3.162,8.008,3.162,13.242v0.527
		c0,6.543-1.735,12.109-5.206,16.699c-2.47,3.086-5.961,4.814-10.474,5.186c-0.468,0.039-0.926,0.059-1.373,0.059
		c-4.684,0-8.612-1.816-11.784-5.449c-3.278-4.844-4.939-9.814-4.981-14.912c-0.021-0.43-0.032-0.859-0.032-1.289
		c0-6.895,1.671-12.598,5.013-17.109c2.235-2.461,4.567-4.033,6.994-4.717c1.682-0.488,3.363-0.732,5.045-0.732
		C181.128,381.57,181.862,381.609,182.586,381.688z M180.127,418.279c2.469-0.117,4.556-1.67,6.259-4.658
		c1.235-1.992,2.012-4.922,2.332-8.789c0.063-4.922-0.884-8.955-2.842-12.1c-1.597-2.188-3.364-3.408-5.301-3.662
		c-2.555,0.117-4.684,1.65-6.387,4.6c-1.214,2.07-2.001,5.039-2.363,8.906c-0.043,4.922,0.926,8.945,2.906,12.07
		C176.305,416.834,178.104,418.045,180.127,418.279z"/>
	<path d="M202.586,382.156h12.039l9.42,22.764l9.644-22.764h12.007v43.008h-8.909v-27.158l-11.656,27.158H222.8l-11.56-26.924
		l0.096,26.924h-8.75V382.156z"/>
	<path d="M270.071,381.688c5.152,0.723,8.962,3.516,11.432,8.379c2.107,3.594,3.162,8.008,3.162,13.242v0.527
		c0,6.543-1.735,12.109-5.206,16.699c-2.47,3.086-5.961,4.814-10.474,5.186c-0.468,0.039-0.926,0.059-1.373,0.059
		c-4.684,0-8.612-1.816-11.784-5.449c-3.278-4.844-4.939-9.814-4.981-14.912c-0.021-0.43-0.032-0.859-0.032-1.289
		c0-6.895,1.671-12.598,5.013-17.109c2.235-2.461,4.567-4.033,6.994-4.717c1.682-0.488,3.363-0.732,5.045-0.732
		C268.612,381.57,269.346,381.609,270.071,381.688z M267.612,418.279c2.469-0.117,4.556-1.67,6.259-4.658
		c1.235-1.992,2.012-4.922,2.332-8.789c0.063-4.922-0.884-8.955-2.842-12.1c-1.597-2.188-3.364-3.408-5.301-3.662
		c-2.555,0.117-4.684,1.65-6.387,4.6c-1.214,2.07-2.001,5.039-2.363,8.906c-0.043,4.922,0.926,8.945,2.906,12.07
		C263.79,416.834,265.589,418.045,267.612,418.279z"/>
	<path d="M306.07,382.215c4.811,0.469,8.313,2.451,10.506,5.947c1.745,3.047,2.268,6.289,1.564,9.727
		c-0.766,2.051-2.033,3.721-3.8,5.01c3.363,2.266,5.174,5.479,5.429,9.639c0.043,0.313,0.064,0.625,0.064,0.938
		c0,1.23-0.31,2.52-0.927,3.867c-1.916,4.531-6.142,7.139-12.678,7.822H289.24v-42.949H306.07z M297.863,417.723l7.951-0.029
		c2.3-0.527,3.758-1.807,4.375-3.838c0.341-3.535-1.139-5.605-4.438-6.211h-7.888V417.723z M297.926,398.885h6.547
		c3.363-0.02,5.077-1.465,5.142-4.336c0.105-2.988-1.513-4.512-4.854-4.57h-6.834V398.885z"/>
	<path d="M334.212,382.215v42.949h-8.877v-42.949H334.212z"/>
	<path d="M348.783,382.156l0.032,35.332h18.106l-0.032,7.676h-26.952v-43.008H348.783z"/>
	<path d="M380.79,382.215v42.949h-8.878v-42.949H380.79z"/>
	<path d="M385.781,416.404v-0.059c0-0.215,0.244-0.361,0.734-0.439c3.769-1.113,6.216-1.914,7.345-2.402
		c0.575,0.723,1.33,1.377,2.268,1.963c1.512,0.82,3.13,1.318,4.854,1.494c1.831,0.039,2.97,0,3.417-0.117
		c2.107-0.547,3.406-1.104,3.896-1.67c0.489-0.391,0.915-1.338,1.277-2.842c0.084-0.586,0-1.24-0.256-1.963
		c-0.319-0.488-0.66-0.898-1.021-1.23l-1.086-0.762l-1.214-0.498c-6.749-1.934-10.464-3.066-11.145-3.398
		c-3.13-1.152-5.461-3.057-6.993-5.713c-1.001-1.777-1.448-3.936-1.342-6.475c0.404-3.164,1.82-5.674,4.247-7.529
		c2.726-1.816,5.567-2.803,8.526-2.959h0.83c2.108,0,3.854,0.146,5.237,0.439c2.811,0.723,5.003,1.729,6.578,3.018
		c1.575,1.191,2.874,2.813,3.896,4.863l-0.096,0.322l-6.579,2.9l-0.318-0.146c-0.405-1.191-1.544-2.158-3.417-2.9
		c-2.108-0.723-4.578-0.742-7.409-0.059c-1.213,0.371-2.065,0.85-2.555,1.436c-0.171,0.156-0.394,0.645-0.67,1.465
		c-0.043,0.957,0,1.514,0.127,1.67c0.276,0.664,0.83,1.26,1.661,1.787l0.83,0.322c6.046,1.641,10.144,2.832,12.294,3.574
		c1.853,0.781,3.269,1.641,4.248,2.578l1.788,2.227c1.319,2.012,2.022,4.209,2.107,6.592c0.021,0.156,0.032,0.342,0.032,0.557
		c0,0.762-0.128,1.787-0.384,3.076c-0.532,1.816-1.171,3.154-1.916,4.014c-1.277,1.445-2.203,2.314-2.778,2.607
		c-3.129,1.973-6.354,3.036-9.676,3.193h-2.906c-2.171-0.195-4.002-0.586-5.492-1.172c-2.385-1.016-4.311-2.148-5.78-3.398
		C387.729,419.754,386.675,418.299,385.781,416.404z"/>
	<path d="M449.945,382.186v8.262h-9.357v34.717h-8.686v-34.805h-9.995v-8.174H449.945z"/>
	<path d="M482.239,382.244v7.852h-19.352v9.375h14.179v7.939h-14.179v9.814h20.183v7.939h-29.188l0.031-42.92H482.239z"/>
	<path d="M486.847,416.404v-0.059c0-0.215,0.244-0.361,0.734-0.439c3.769-1.113,6.216-1.914,7.345-2.402
		c0.575,0.723,1.33,1.377,2.268,1.963c1.512,0.82,3.13,1.318,4.854,1.494c1.831,0.039,2.97,0,3.417-0.117
		c2.107-0.547,3.406-1.104,3.896-1.67c0.489-0.391,0.915-1.338,1.277-2.842c0.084-0.586,0-1.24-0.256-1.963
		c-0.319-0.488-0.66-0.898-1.021-1.23l-1.086-0.762l-1.214-0.498c-6.749-1.934-10.464-3.066-11.145-3.398
		c-3.13-1.152-5.461-3.057-6.993-5.713c-1.001-1.777-1.448-3.936-1.342-6.475c0.404-3.164,1.82-5.674,4.247-7.529
		c2.726-1.816,5.567-2.803,8.526-2.959h0.83c2.108,0,3.854,0.146,5.237,0.439c2.811,0.723,5.003,1.729,6.578,3.018
		c1.575,1.191,2.874,2.813,3.896,4.863l-0.096,0.322l-6.579,2.9l-0.318-0.146c-0.405-1.191-1.544-2.158-3.417-2.9
		c-2.108-0.723-4.578-0.742-7.409-0.059c-1.213,0.371-2.065,0.85-2.555,1.436c-0.171,0.156-0.394,0.645-0.67,1.465
		c-0.043,0.957,0,1.514,0.127,1.67c0.276,0.664,0.83,1.26,1.661,1.787l0.83,0.322c6.046,1.641,10.144,2.832,12.294,3.574
		c1.853,0.781,3.269,1.641,4.248,2.578l1.788,2.227c1.319,2.012,2.022,4.209,2.107,6.592c0.021,0.156,0.032,0.342,0.032,0.557
		c0,0.762-0.128,1.787-0.384,3.076c-0.532,1.816-1.171,3.154-1.916,4.014c-1.277,1.445-2.203,2.314-2.778,2.607
		c-3.129,1.973-6.354,3.036-9.676,3.193h-2.906c-2.171-0.195-4.002-0.586-5.492-1.172c-2.385-1.016-4.311-2.148-5.78-3.398
		C488.795,419.754,487.741,418.299,486.847,416.404z"/>
</g>
</svg>
