<?xml version="1.0" encoding="UTF-8" standalone="no"?>
<!-- Generator: Adobe Illustrator 16.0.3, SVG Export Plug-In . SVG Version: 6.00 Build 0)  -->

<svg
   version="1.1"
   id="France_road_signs_B14"
   x="0px"
   y="0px"
   width="581px"
   height="581px"
   viewBox="1.56 1.561 581 581"
   enable-background="new 1.56 1.561 581 581"
   xml:space="preserve"
   sodipodi:docname="France_road_sign_B14_(50).svg"
   inkscape:version="1.2.2 (732a01da63, 2022-12-09)"
   xmlns:inkscape="http://www.inkscape.org/namespaces/inkscape"
   xmlns:sodipodi="http://sodipodi.sourceforge.net/DTD/sodipodi-0.dtd"
   xmlns="http://www.w3.org/2000/svg"
   xmlns:svg="http://www.w3.org/2000/svg"><defs
   id="defs13" /><sodipodi:namedview
   id="namedview11"
   pagecolor="#ffffff"
   bordercolor="#666666"
   borderopacity="1.0"
   inkscape:pageshadow="2"
   inkscape:pageopacity="0.0"
   inkscape:pagecheckerboard="0"
   showgrid="false"
   inkscape:zoom="1.2375215"
   inkscape:cx="264.64186"
   inkscape:cy="370.49861"
   inkscape:window-width="1920"
   inkscape:window-height="991"
   inkscape:window-x="-9"
   inkscape:window-y="-9"
   inkscape:window-maximized="1"
   inkscape:current-layer="g8718"
   inkscape:showpageshadow="2"
   inkscape:deskcolor="#d1d1d1"
   showguides="true" />
<circle
   fill="#FFFFFF"
   stroke="#000000"
   stroke-width="0.9931"
   stroke-linecap="round"
   stroke-linejoin="round"
   cx="291.56"
   cy="291.561"
   r="285"
   id="circle2" />
<circle
   fill="#FF0000"
   stroke="#FF0000"
   stroke-width="0.1752"
   stroke-linecap="round"
   stroke-linejoin="round"
   cx="291.56"
   cy="291.561"
   r="272.101"
   id="circle4"
   style="fill:#ea190e;fill-opacity:1;stroke:#ea190e;stroke-opacity:1;stroke-width:0.175;stroke-dasharray:none" />
<circle
   fill="#ffffff"
   stroke="#ff0000"
   stroke-width="0.1752"
   stroke-linecap="round"
   stroke-linejoin="round"
   cx="291.56"
   cy="291.561"
   r="191.118"
   id="circle6"
   style="stroke:none" />

<g
   id="g8718"
   transform="matrix(0.88690129,0,0,0.88690129,575.9925,-155.77758)"
   style="fill:#000000"><path
     style="fill:#000000;stroke-width:1.33333"
     d="M -472.27924,477.83161"
     id="path8796" /><path
     style="fill:#000000;stroke-width:1.33333"
     d="m -472.31429,477.83161 h 302.47395 c 13.83334,0 26.3802,9.59896 26.3802,26.60937 0,14.77604 -10.92186,26.5677 -26.3802,26.5677 h -302.47395 c -16.25521,0 -25.8177,-15.15625 -25.63021,-26.5677 0.0781,-11.41667 8.54167,-26.60937 25.63021,-26.60937 z"
     id="path8794" /><g
     id="g9013"
     style="fill:#000000"
     transform="matrix(0.88690129,0,0,0.88690129,697.8995,-204.05636)"><path
       style="fill:#000000;stroke-width:1.50336"
       d="m -1192.6462,883.22197 2.3843,-4.09315 3.2416,-3.36494 4.1342,-2.60152 4.4279,-1.83222 4.563,-0.63423 4.8565,0.0822 4.4337,1.3213 4.3457,2.38424 3.5822,2.90102 2.8952,3.79365 1.1921,2.04362 -0.2114,-0.2114 2.7248,6.30707 1.2802,6.60069 0.4287,6.90606 0.2114,5.32637 h -0.2114 l -0.4287,6.90607 -1.5327,6.60656 -2.4723,6.26011 0.2114,-0.21142 -2.5956,4.13424 -3.2417,3.45304 -3.8758,2.51343 -4.4749,1.83222 -4.8624,0.7693 -4.6452,-0.2584 -4.6451,-1.2802 -4.2165,-2.38424 -3.5822,-2.81292 -2.9363,-3.87585 -0.9807,-2.09062 v 0.21142 l -2.3842,-6.34819 -1.6208,-6.60657 -0.5109,-6.81798 -0.1292,-5.32637 h 0.1292 l 0.5109,-7.02938 1.6208,-6.60657 2.3842,-6.17787 z m 11.7157,5.19716 -1.9556,5.54365 -1.0688,5.70808 -0.1291,3.15353 -0.1233,5.32636 h 0.1233 l 0.5579,5.83727 1.4916,5.50255 1.104,2.93626 -0.2114,-0.21142 1.8323,2.47232 2.4723,1.83222 2.9421,0.89262 3.0244,-0.12913 2.901,-1.19211 2.2961,-1.91444 1.1921,-1.96142 v 0.21142 l 2.1787,-5.40859 0.9338,-5.75506 0.1291,-3.11243 0.2114,-5.32636 h -0.2114 l -0.4287,-5.96647 -1.6149,-5.49666 -1.198,-2.94213 v 0.21728 l -1.5328,-2.34312 -2.5956,-1.75 -3.0302,-0.98072 -2.8951,0.12914 -2.9422,1.19212 -2.3842,1.9203 -1.2802,1.83222 z"
       id="path8852" /><path
       style="fill:#000000;stroke-width:1.50336"
       d="M -1316.0569,768.80206"
       id="path9065" /><path
       style="fill:#000000;stroke-width:1.50336"
       d="M -1296.5837,714.34043 Z"
       id="path9061" /><path
       style="fill:#000000;stroke-width:1.50336"
       d="M -1121.7356,702.44861 Z"
       id="path9059" /><path
       style="fill:#000000;stroke-width:1.50336"
       d="M -1237.6472,675.2589 Z"
       id="path9057" /><path
       style="fill:#000000;stroke-width:1.50336"
       d="M -1081.3798,727.33628 Z"
       id="path9055" /><path
       style="fill:#000000;stroke-width:1.50336"
       d="m -1081.3798,727.33628 v -68.30899 h 16.4078 l 16.6603,36.17464 v -36.17464 h 13.172 v 68.30899 h -13.172 l -20.0253,-42.82818 v 42.82818 z"
       id="path9053" /><path
       style="fill:#000000;stroke-width:1.50336"
       d="M -1309.5795,727.33628 Z"
       id="path9051" /><path
       style="fill:#000000;stroke-width:1.50336"
       d="m -1309.5795,727.33628 v -68.39707 h 22.6268 l 4.7684,0.5109 4.6511,1.62082 4.3456,2.38424 3.4472,3.24162 3.0302,4.13425 2.0436,4.42786 1.1099,4.77435 v 0.0881 -0.0881 l 0.6401,11.12253 -0.4287,11.50423 -0.2114,3.79365 v -0.12328 l -1.1099,4.64515 -1.9203,4.42786 -2.9362,4.00507 -3.5823,3.3708 -4.2164,2.38424 -4.7744,1.53273 -4.7273,0.6401 z m 12.9958,-12.99585 h 9.631 l 3.0243,-0.42869 3.0243,-1.53272 2.3901,-2.26092 1.4036,-2.93626 0.552,-2.2609 v 0.2114 l 0.6401,-10.82303 -0.4228,-10.82302 -0.2173,-2.17284 v 0.21142 l -0.7634,-3.23576 -1.75,-2.81292 -2.5957,-1.96143 -3.1124,-1.19212 -2.1728,-0.21728 h -9.631 z"
       id="path9049" /><path
       style="fill:#000000;stroke-width:1.50336"
       d="M -1249.4098,670.06174 Z"
       id="path9047" /><path
       style="fill:#000000;stroke-width:1.50336"
       d="m -1249.4098,670.06174 2.3842,-4.09314 3.2828,-3.36495 4.1342,-2.60152 4.4338,-1.83222 4.557,-0.63423 4.8566,0.0822 4.4337,1.32132 4.3457,2.34312 3.5822,2.94214 2.8951,3.79363 1.198,2.04364 -0.2172,-0.21142 2.7307,6.2601 1.2743,6.60657 0.4287,6.94717 0.2114,5.28526 h -0.2114 l -0.4287,6.94717 -1.4916,6.60657 -2.5134,6.26009 0.2172,-0.2114 -2.6015,4.13424 -3.2416,3.45303 -3.8759,2.47232 -4.4748,1.83222 -4.8566,0.76344 -4.6451,-0.21142 -4.6452,-1.2802 -4.2223,-2.38424 -3.6175,-2.81293 -2.9421,-3.92284 -0.9807,-2.04362 v 0.2114 l -2.3431,-6.38929 -1.6619,-6.60657 -0.511,-6.81797 -0.1291,-5.28526 h 0.1291 l 0.511,-7.02942 1.6619,-6.60657 2.3431,-6.17788 z m 11.7626,5.19716 -1.9614,5.54365 -1.0629,5.70807 -0.1292,3.15354 -0.088,5.28526 h 0.088 l 0.5521,5.87837 1.4916,5.50255 1.1099,2.93624 -0.2114,-0.2114 1.8322,2.47232 2.4723,1.83223 2.9363,0.85151 3.0243,-0.0881 2.9421,-1.19212 2.2609,-1.95555 1.1922,-1.9203 v 0.2114 l 2.1728,-5.40857 0.9396,-5.75506 0.1233,-3.15353 0.2173,-5.28526 h -0.2173 l -0.4228,-5.96647 -1.6209,-5.49666 -1.1921,-2.94213 v 0.21729 l -1.5327,-2.39011 -2.6015,-1.70304 -3.0244,-0.9807 -2.901,0.0881 -2.9421,1.19212 -2.3842,1.96142 -1.2744,1.83222 z"
       id="path9045" /><path
       style="fill:#000000;stroke-width:1.50336"
       d="M -1195.4591,659.02729 Z"
       id="path9043" /><path
       style="fill:#000000;stroke-width:1.50336"
       d="m -1195.4591,659.02729 v 45.12435 l 0.552,4.81544 1.4094,4.69214 2.4724,4.17535 3.2357,3.62334 3.9228,2.89515 4.5571,1.9203 4.6863,1.06292 h 4.6921 l 4.8154,-1.1921 4.3868,-1.96142 4.052,-2.85405 3.1066,-3.62334 2.4723,-4.17534 1.4505,-4.68627 0.5109,-4.69212 v -45.12435 h -12.9958 v 45.12435 l -0.5109,3.15354 -1.4505,2.98322 -2.3432,2.21981 -2.9832,1.53272 -2.9832,0.4287 -3.1536,-0.55789 -2.854,-1.53272 -2.2198,-2.34314 -1.4035,-2.7307 -0.511,-3.15354 v -45.12435 z"
       id="path9041" /><path
       style="fill:#000000;stroke-width:1.50336"
       d="M -1141.3381,727.33628 Z"
       id="path9039" /><path
       style="fill:#000000;stroke-width:1.50336"
       d="m -1141.3381,727.33628 17.2182,-68.39707 h 17.2123 l 17.4296,68.39707 h -13.5478 l -2.813,-11.93293 h -19.2618 l -2.8129,11.93293 z m 19.6025,-24.88767 h 12.6552 l -6.3893,-26.33819 z"
       id="path9037" /><path
       style="fill:#000000;stroke-width:1.50336"
       d="M -1023.6354,727.33628 Z"
       id="path9035" /><path
       style="fill:#000000;stroke-width:1.50336"
       d="m -1023.6354,727.33628 v -68.43817 h 41.63604 v 12.99585 h -28.72244 v 14.44636 h 21.30546 v 12.87253 h -21.30546 v 14.95728 h 29.78536 v 13.16615 z"
       id="path9033" /><path
       style="fill:#000000;stroke-width:1.50336"
       d="M -1180.9305,888.41913 Z"
       id="path9031" /><path
       style="fill:#000000;stroke-width:1.50336"
       d="M -1266.8394,940.41431 Z"
       id="path9029" /><path
       style="fill:#000000;stroke-width:1.50336"
       d="m -1266.8394,940.41431 v -13.17204 l 28.1704,-42.01778 h -28.1704 v -13.12505 h 44.5312 v 13.12505 l -28.1234,42.01778 h 30.214 v 13.17204 z"
       id="path9027" /><path
       style="fill:#000000;stroke-width:1.50336"
       d="M -1062.5408,940.41431 Z"
       id="path9025" /><path
       style="fill:#000000;stroke-width:1.50336"
       d="m -1062.5408,940.41431 v -68.31487 h 13.1662 v 55.27203 h 25.5278 v 13.04284 z"
       id="path9023" /><path
       style="fill:#000000;stroke-width:1.50336"
       d="M -1123.3565,940.41431 Z"
       id="path9021" /><path
       style="fill:#000000;stroke-width:1.50336"
       d="m -1123.3565,940.41431 v -68.31487 h 13.1251 v 55.27203 h 25.5278 v 13.04284 z"
       id="path9019" /><path
       style="fill:#000000;stroke-width:1.50336"
       d="M -1192.6462,883.22197 Z"
       id="path9017" /></g></g></svg>
