<?xml version="1.0" encoding="UTF-8" standalone="no"?>
<!-- Generator: Adobe Illustrator 13.0.0, SVG Export Plug-In . SVG Version: 6.00 Build 14948)  -->

<svg
   xmlns:dc="http://purl.org/dc/elements/1.1/"
   xmlns:cc="http://creativecommons.org/ns#"
   xmlns:rdf="http://www.w3.org/1999/02/22-rdf-syntax-ns#"
   xmlns:svg="http://www.w3.org/2000/svg"
   xmlns="http://www.w3.org/2000/svg"
   xmlns:sodipodi="http://sodipodi.sourceforge.net/DTD/sodipodi-0.dtd"
   xmlns:inkscape="http://www.inkscape.org/namespaces/inkscape"
   version="1.1"
   id="Layer_1"
   x="0px"
   y="0px"
   width="576px"
   height="576px"
   viewBox="-0.943 -0.943 576 576"
   enable-background="new -0.943 -0.943 576 576"
   xml:space="preserve"
   inkscape:version="0.91 r13725"
   sodipodi:docname="France_road_sign_B40.svg"><metadata
     id="metadata43"><rdf:RDF><cc:Work
         rdf:about=""><dc:format>image/svg+xml</dc:format><dc:type
           rdf:resource="http://purl.org/dc/dcmitype/StillImage" /></cc:Work></rdf:RDF></metadata><defs
     id="defs41" /><sodipodi:namedview
     pagecolor="#ffffff"
     bordercolor="#666666"
     borderopacity="1"
     objecttolerance="10"
     gridtolerance="10"
     guidetolerance="10"
     inkscape:pageopacity="0"
     inkscape:pageshadow="2"
     inkscape:window-width="1440"
     inkscape:window-height="788"
     id="namedview39"
     showgrid="false"
     inkscape:zoom="0.96988932"
     inkscape:cx="288"
     inkscape:cy="288.70482"
     inkscape:window-x="0"
     inkscape:window-y="1"
     inkscape:window-maximized="1"
     inkscape:current-layer="Layer_1" /><circle
     fill="#FFFFFF"
     stroke="#000000"
     stroke-width="2"
     stroke-linecap="round"
     stroke-linejoin="round"
     cx="287.057"
     cy="287.057"
     r="286.969"
     id="circle3" /><circle
     fill="#0000FF"
     cx="287.057"
     cy="287.057"
     r="261.666"
     id="circle5" /><path
     id="circle4300"
     d="m 207.69267,166.84952 c -20.79025,-0.70344 -26.90163,26.73338 -11.10738,32.1369 l 15.28171,5.69744 -19.60662,57.40197 a 75.696655,75.685603 0 0 0 -30.56947,-6.54664 75.696655,75.685603 0 0 0 -75.697792,75.68676 75.696655,75.685603 0 0 0 75.697792,75.68681 75.696655,75.685603 0 0 0 75.69784,-75.68681 75.696655,75.685603 0 0 0 -33.55715,-62.80428 l 5.87898,-17.014 71.93913,79.84842 a 24.672418,24.668815 0 0 0 -2.36726,10.47341 24.672418,24.668815 0 0 0 24.63026,24.6688 l 2.92144,16.94779 -6.61387,1.13828 1.84321,10.73839 23.58818,-4.05928 -1.84923,-10.73839 -5.82476,0.99974 -3.02984,-17.62227 a 24.672418,24.668815 0 0 0 13.10724,-16.86951 l 18.41395,-1.27679 a 75.696655,75.685603 0 0 0 74.28228,61.2565 75.696655,75.685603 0 0 0 75.69781,-75.68681 75.696655,75.685603 0 0 0 -75.69781,-75.68676 75.696655,75.685603 0 0 0 -34.23783,8.26913 l -28.86478,-41.86954 6.65601,-19.65193 c 9.19677,-2.22889 17.43713,-4.31836 20.93785,-8.61241 4.93018,-6.04753 -1.58901,-14.50431 -11.73989,-14.26166 l -40.16497,0 c -8.83502,-0.12302 -12.20553,9.09433 -6.72225,12.27419 l 24.11222,9.84704 -4.57792,13.5269 -123.88009,0 3.19852,-9.25081 -0.0189,-0.006 2.6925,-8.85933 c -9.03057,-4.07585 -28.20414,-6.33097 -25.66028,-13.52087 0.7587,-7.9555 28.9521,-3.25077 38.52052,-5.17948 l 0,-11.39488 -33.31015,0 z m 10.13763,61.06375 124.39215,0 -30.59355,90.38809 a 24.672418,24.668815 0 0 0 -4.69838,-1.04194 l -2.79493,-16.26117 5.73439,-0.98771 -1.84923,-10.7384 -23.58214,4.05925 1.84925,10.73239 6.69814,-1.15033 2.68653,15.59871 a 24.672418,24.668815 0 0 0 -3.31896,1.4695 l -76.85437,-85.31698 2.3311,-6.75141 z m 134.99356,12.28019 21.57631,31.30581 a 75.696655,75.685603 0 0 0 -29.34666,59.72668 75.696655,75.685603 0 0 0 0.006,0.16862 l -18.17318,1.25874 a 24.672418,24.668815 0 0 0 -3.36115,-5.91422 l 29.29881,-86.54566 z m -191.13295,27.0297 a 64.008448,63.999104 0 0 1 26.78068,5.9504 l -13.46867,39.43637 c -0.80816,2.8972 -3.6927,4.73892 -6.43312,6.62492 a 13.878235,13.876209 0 0 0 -7.48727,-2.2103 13.878235,13.876209 0 0 0 -13.87823,13.8762 13.878235,13.876209 0 0 0 13.87823,13.87623 13.878235,13.876209 0 0 0 13.87825,-13.87623 13.878235,13.876209 0 0 0 -0.12654,-1.69839 c 5.24626,-3.32953 10.10831,-7.29517 11.30016,-9.57603 l 13.71557,-39.69534 a 64.008448,63.999104 0 0 1 25.85306,51.29496 64.008448,63.999104 0 0 1 -64.01218,63.99681 64.008448,63.999104 0 0 1 -64.006138,-63.99681 64.008448,63.999104 0 0 1 64.006138,-64.00279 z m 259.0604,0 a 64.008448,63.999104 0 0 1 64.01218,64.00279 64.008448,63.999104 0 0 1 -64.01218,63.99681 64.008448,63.999104 0 0 1 -62.4581,-50.38555 l 52.91077,-3.66783 a 13.878235,13.876209 0 0 0 9.93885,4.19178 13.878235,13.876209 0 0 0 13.87824,-13.87622 13.878235,13.876209 0 0 0 -11.24595,-13.61722 l -30.56947,-44.35088 a 64.008448,63.999104 0 0 1 27.54566,-6.29368 z m -39.75537,13.84009 29.0395,42.12851 a 13.878235,13.876209 0 0 0 -2.02391,3.83643 l -51.23621,3.55335 a 64.008448,63.999104 0 0 1 24.22062,-49.51829 z"
     style="fill:#ffffff;stroke:none;stroke-width:2.16587019"
     inkscape:connector-curvature="0" /><polygon
     fill="#FF0000"
     stroke="#FF0000"
     stroke-width="0.1764"
     stroke-linecap="round"
     stroke-linejoin="round"
     points="  77.312,442.335 90.307,458.583 115.259,483.862 128.457,494.317 496.811,131.77 490.7,123.783 479.632,111.429 462.757,94.263   445.644,79.811 "
     id="polygon7" /></svg>