<?xml version="1.0" encoding="UTF-8" standalone="no"?>
<!-- Generator: Adobe Illustrator 13.0.0, SVG Export Plug-In . SVG Version: 6.00 Build 14948)  -->

<svg
   xmlns:dc="http://purl.org/dc/elements/1.1/"
   xmlns:cc="http://creativecommons.org/ns#"
   xmlns:rdf="http://www.w3.org/1999/02/22-rdf-syntax-ns#"
   xmlns:svg="http://www.w3.org/2000/svg"
   xmlns="http://www.w3.org/2000/svg"
   xmlns:sodipodi="http://sodipodi.sourceforge.net/DTD/sodipodi-0.dtd"
   xmlns:inkscape="http://www.inkscape.org/namespaces/inkscape"
   version="1.1"
   id="Layer_1"
   x="0px"
   y="0px"
   width="576px"
   height="576px"
   viewBox="-0.943 -0.943 576 576"
   enable-background="new -0.943 -0.943 576 576"
   xml:space="preserve"
   inkscape:version="0.91 r13725"
   sodipodi:docname="France_road_sign_B41.svg"><metadata
     id="metadata21"><rdf:RDF><cc:Work
         rdf:about=""><dc:format>image/svg+xml</dc:format><dc:type
           rdf:resource="http://purl.org/dc/dcmitype/StillImage" /></cc:Work></rdf:RDF></metadata><defs
     id="defs19" /><sodipodi:namedview
     pagecolor="#ffffff"
     bordercolor="#666666"
     borderopacity="1"
     objecttolerance="10"
     gridtolerance="10"
     guidetolerance="10"
     inkscape:pageopacity="0"
     inkscape:pageshadow="2"
     inkscape:window-width="1440"
     inkscape:window-height="788"
     id="namedview17"
     showgrid="false"
     inkscape:zoom="0.68694703"
     inkscape:cx="288"
     inkscape:cy="288"
     inkscape:window-x="0"
     inkscape:window-y="1"
     inkscape:window-maximized="1"
     inkscape:current-layer="Layer_1" /><circle
     fill="#FFFFFF"
     stroke="#000000"
     stroke-width="2"
     stroke-linecap="round"
     stroke-linejoin="round"
     cx="287.057"
     cy="287.057"
     r="286.969"
     id="circle3" /><circle
     fill="#0000FF"
     stroke="#0000FF"
     stroke-width="0.1764"
     stroke-linecap="round"
     stroke-linejoin="round"
     cx="287.057"
     cy="287.057"
     r="264.318"
     id="circle5" /><path
     inkscape:connector-curvature="0"
     id="rect4203"
     d="m 202.38388,81.557113 a 30.905938,30.905979 0 0 0 -30.90592,30.905977 30.905938,30.905979 0 0 0 18.11274,28.09921 l 0,15.53364 c -43.59308,6.22146 -56.61043,40.80402 -56.78172,64.71668 -0.0641,0.53628 -0.10852,1.08006 -0.10852,1.63551 l 0,76.97777 c 0,7.04941 5.32307,12.72537 11.93548,12.72537 6.6124,0 11.93548,-5.67596 11.93548,-12.72537 l 0,-26.16975 0,-34.39709 0,-25.63463 c 0,-3.27942 2.29217,-5.91952 5.13867,-5.91952 2.84651,0 5.13868,2.6401 5.13868,5.91952 l 0,32.79774 0,27.23398 0,31.52851 0,143.8847 c 0,7.87073 6.33639,14.20713 14.20712,14.20713 l 0.34971,0 c 7.87073,0 14.20711,-6.3364 14.20711,-14.20713 l 0,-140.12225 0,-4.31565 c 0,-3.68856 3.01956,-6.65814 6.77117,-6.65814 3.75163,0 6.77269,2.96958 6.77269,6.65814 l 0,6.08683 0.0468,0.006 0,168.0255 c 0,7.87073 6.33637,14.20713 14.2071,14.20713 l 0.34972,0 c 7.87074,0 14.20711,-6.3364 14.20711,-14.20713 l 0,-164.26306 0,-100.55483 c -0.20343,-7.80098 5.92836,-8.29468 11.64607,1.23304 l 0.0181,-0.0392 42.9409,71.60242 c 1.61078,2.68592 3.97121,4.60195 6.58578,5.61352 l 14.80403,24.32321 c 0.61982,1.01843 1.41092,1.85367 2.29575,2.49925 1.57387,1.50278 3.87451,2.45403 6.45312,2.45403 l 39.25684,0 -25.94361,78.74292 19.17243,0 0,60.18849 c 0,4.70519 3.68681,8.49262 8.26652,8.49262 4.57972,0 8.2665,-3.78744 8.2665,-8.49262 l 0,-60.18849 11.77117,0 0,45.86077 c 0,4.70518 3.68679,8.49262 8.26651,8.49262 4.57971,0 8.2665,-3.78744 8.2665,-8.49262 l 0,-45.86077 18.54687,0 -21.37774,-57.69225 c -0.013,-0.0631 -0.0131,-0.1269 -0.0317,-0.18993 -1.11422,-3.79573 3.39621,-5.7046 8.07957,-1.64004 l 21.79075,24.08957 c 3.1564,3.4894 8.31007,3.93535 11.55412,1.0009 l 0.33765,-0.30449 c 3.24405,-2.93446 3.31467,-8.10693 0.15828,-11.59633 l -36.66566,-40.5322 c -0.60635,-0.67032 -1.28636,-1.22683 -2.01237,-1.67018 l -0.0211,-0.10553 c -5.16272,-3.131 -10.01198,-4.65039 -16.23159,-5.03304 l 0,-10.09347 a 19.565726,19.565752 0 0 0 11.29936,-17.71029 19.565726,19.565752 0 0 0 -19.56586,-19.5659 19.565726,19.565752 0 0 0 -19.56587,19.5659 19.565726,19.565752 0 0 0 11.29936,17.70879 l 0,7.84595 -0.73861,2.23998 -40.52607,0 -12.37113,-20.32863 c 1.61632,-3.606 1.43266,-8.07923 -0.88182,-11.93852 l -50.3301,-83.92237 c -0.4059,-0.67681 -0.86662,-1.29785 -1.35967,-1.87519 -15.07822,-20.27252 -30.15882,-28.86003 -46.24206,-31.78778 l 0,-15.87129 a 30.905938,30.905979 0 0 0 18.11132,-28.09169 30.905938,30.905979 0 0 0 -30.90593,-30.905968 z"
     style="opacity:1;fill:#ffffff;fill-opacity:1;fill-rule:evenodd;stroke:none;stroke-width:0.30000001;stroke-linecap:round;stroke-linejoin:round;stroke-miterlimit:4;stroke-dasharray:none;stroke-dashoffset:0;stroke-opacity:1" /><polygon
     fill="#FF0000"
     stroke="#FF0000"
     stroke-width="0.1764"
     stroke-linecap="round"
     stroke-linejoin="round"
     points="  75.221,444.615 88.475,460.852 109.303,481.975 126.343,496.951 499.226,129.741 493.631,122.208 482.198,109.327 464.927,92.073   448.143,77.491 "
     id="polygon7" /></svg>