<?xml version="1.0" encoding="UTF-8" standalone="no"?>
<!-- Generator: Adobe Illustrator 13.0.0, SVG Export Plug-In . SVG Version: 6.00 Build 14948)  -->

<svg
   xmlns:dc="http://purl.org/dc/elements/1.1/"
   xmlns:cc="http://creativecommons.org/ns#"
   xmlns:rdf="http://www.w3.org/1999/02/22-rdf-syntax-ns#"
   xmlns:svg="http://www.w3.org/2000/svg"
   xmlns="http://www.w3.org/2000/svg"
   xmlns:sodipodi="http://sodipodi.sourceforge.net/DTD/sodipodi-0.dtd"
   xmlns:inkscape="http://www.inkscape.org/namespaces/inkscape"
   version="1.1"
   id="Layer_1"
   x="0px"
   y="0px"
   width="576px"
   height="576px"
   viewBox="-0.933 -0.933 576 576"
   enable-background="new -0.933 -0.933 576 576"
   xml:space="preserve"
   inkscape:version="0.91 r13725"
   sodipodi:docname="France_road_sign_B42.svg"><metadata
     id="metadata21"><rdf:RDF><cc:Work
         rdf:about=""><dc:format>image/svg+xml</dc:format><dc:type
           rdf:resource="http://purl.org/dc/dcmitype/StillImage" /></cc:Work></rdf:RDF></metadata><defs
     id="defs19" /><sodipodi:namedview
     pagecolor="#ffffff"
     bordercolor="#666666"
     borderopacity="1"
     objecttolerance="10"
     gridtolerance="10"
     guidetolerance="10"
     inkscape:pageopacity="0"
     inkscape:pageshadow="2"
     inkscape:window-width="1440"
     inkscape:window-height="788"
     id="namedview17"
     showgrid="false"
     inkscape:zoom="0.4857449"
     inkscape:cx="111.46701"
     inkscape:cy="288"
     inkscape:window-x="0"
     inkscape:window-y="1"
     inkscape:window-maximized="1"
     inkscape:current-layer="Layer_1" /><circle
     cx="287.067"
     cy="287.067"
     r="286.979"
     id="circle3"
     stroke-linejoin="round"
     stroke-linecap="round"
     stroke-width="2"
     stroke="#000000"
     fill="#FFFFFF" /><circle
     cx="287.067"
     cy="287.067"
     r="261.614"
     id="circle5"
     stroke-linejoin="round"
     stroke-linecap="round"
     stroke-width="0.1764"
     stroke="#0000FF"
     fill="#0000FF" /><path
     style="fill:#ffffff;stroke-width:2.16100001;stroke-miterlimit:4;stroke-dasharray:none"
     d="m 251.54327,439.85799 -44.06115,-98.77582 c -6.55428,-15.01604 -7.53399,-16.97421 -8.56259,-17.11416 l -45.84312,26.82185 0,52.42871 -20.17957,10.80048 0,-80.32737 54.64833,-35.67082 c -0.0886,-0.72685 -3.0427,-8.36423 -3.95405,-10.22226 -0.22986,-0.46864 -1.09174,-3.49106 -1.91529,-6.71649 -1.37224,-5.37438 -1.49546,-6.67262 -1.4745,-15.53617 0.0126,-5.31947 0.30463,-11.14461 0.64902,-12.94477 0.70597,-3.69017 0.78632,-3.42844 -3.61403,-11.77193 l -17.13208,-31.27547 -41.09682,21.152 c -2.68602,1.68552 -3.33151,1.59699 -5.0923,-0.69844 -0.82529,-1.07588 -1.86649,-2.34856 -2.31378,-2.82818 -1.62881,-1.7466 -3.08208,-4.12644 -3.71902,-6.0902 -0.64847,-1.99933 -0.63166,-2.0384 3.58222,-8.32845 8.17312,-12.19999 10.2278,-17.7597 9.65927,-26.13677 l -0.2964,-4.36731 4.12203,-4.94087 c 2.26713,-2.71748 5.57281,-6.55986 7.34597,-8.53864 l 3.22391,-3.59775 0.18493,-23.9282 c 0.27862,-0.42624 1.19649,-0.64168 2.28936,-0.53732 1.57097,0.15 2.1227,0.63296 3.97355,3.47829 4.49216,6.90585 6.46937,10.00207 7.10177,11.12107 0.63213,1.1185 0.98156,1.15711 10.47773,1.15772 9.18604,5.3e-4 10.13572,0.0964 14.62888,1.47544 6.75072,2.07197 15.59736,6.47528 19.33746,9.62497 0.31578,0.26593 1.88081,1.43865 3.47785,2.60606 1.59703,1.1674 4.03385,3.19257 5.41515,4.50038 2.71054,2.56633 10.31039,10.78842 11.75215,12.71433 0.48645,0.64979 1.60983,2.05831 2.49641,3.13003 0.88658,1.0717 1.85375,2.34362 2.14928,2.82646 0.29552,0.48284 1.50449,2.25648 2.68659,3.94141 3.19178,4.54944 3.87846,5.65461 5.40689,8.70191 0.76546,1.52615 1.83847,3.17909 2.38445,3.6732 l 29.87258,-17.54651 c 0.17977,-0.29087 -0.43482,-1.9579 -1.36574,-3.7045 -2.51615,-4.72079 -3.43141,-8.26872 -3.30784,-12.82261 0.12501,-4.60694 1.28303,-7.62089 4.1455,-10.78929 1.69084,-1.87158 1.82047,-2.22273 1.22969,-3.33138 -1.54625,-2.90177 -3.47493,-4.73933 -5.32039,-5.06907 -3.41283,-0.6098 -7.47103,-2.88917 -9.53056,-5.35302 -2.86888,-3.43211 -3.78262,-6.22484 -4.11447,-12.57543 -0.1586,-3.03523 -0.39432,-5.62456 -0.52382,-5.75406 -0.1295,-0.1295 -3.58107,-0.64681 -7.67015,-1.14956 -5.62169,-0.69119 -7.47138,-1.1078 -7.58517,-1.70839 -0.11674,-0.61618 1.5087,-1.11784 7.2487,-2.23717 6.62461,-1.29185 7.51169,-1.59655 8.47383,-2.91075 5.03326,-7.17955 12.2787,-10.67224 18.53751,-10.68709 5.09467,-0.004 5.92848,0.13977 8.59711,1.48047 4.9406,2.37499 9.52553,6.78485 11.1771,11.94829 2.13911,7.33165 2.21538,10.31544 0.28251,11.05032 -0.69212,0.26315 -1.20768,0.66511 -1.14568,0.89324 0.59488,2.18895 -2.86416,8.72389 -6.10071,11.52566 -2.06552,1.78806 -1.84964,3.11958 1.01574,6.2648 1.95243,2.14311 2.14978,2.22561 5.51743,2.3064 3.62711,0.087 7.06548,1.08994 8.79605,2.56571 0.55271,0.47133 2.35171,2.9122 3.99778,5.42417 l 34.7678,54.33836 c 0.21522,0.70081 0.60188,1.53879 0.85922,1.86216 1.03504,1.30064 0.8655,7.04493 -0.39321,13.32191 -1.93952,9.67207 -2.13285,9.26259 3.15204,6.67561 6.16051,-3.01558 8.99151,-4.03073 17.05989,-6.11737 4.75748,-1.23037 16.68785,-1.55343 21.76144,-0.58928 7.93676,1.50827 14.28318,4.1831 19.75936,8.32799 4.24621,3.21396 5.06354,4.02645 7.86466,7.81819 1.22711,1.66107 2.46167,3.02014 2.74347,3.02014 0.28182,0 2.7073,-0.72923 5.38996,-1.62051 2.68268,-0.89127 7.5826,-2.11412 10.88872,-2.71745 3.30612,-0.60331 6.61561,-1.26753 7.35443,-1.47604 0.73881,-0.20851 5.45379,-0.34961 10.47773,-0.31354 10.00995,0.0718 14.18893,0.76868 18.94951,3.15978 3.46322,1.73948 8.73299,6.79753 11.25305,10.80094 1.96268,3.11797 3.39777,5.8554 4.0001,7.63019 0.37322,1.09973 0.86493,2.26003 1.09268,2.57845 0.22775,0.3184 0.90397,2.25275 1.50271,4.29855 0.59874,2.04579 1.31858,4.445 1.59963,5.33158 1.55774,4.91389 4.16283,22.40617 4.5797,30.75121 0.14423,2.88705 0.40499,7.23634 0.57948,9.66506 l 0.31725,4.37603 -29.41278,0 c -0.32972,-0.53473 -0.71094,-10.13067 -1.04007,-26.17976 -0.37609,-18.33935 -1.0492,-21.43359 -5.81581,-26.73521 -5.23922,-5.82726 -14.12818,-7.85576 -25.56333,-5.83367 -5.82281,1.02966 -8.63944,1.79592 -8.63944,2.35037 0,0.24325 0.72539,2.04208 1.61196,3.99737 0.88658,1.95531 1.61196,4.11655 1.61196,4.80274 0,0.6862 0.25685,1.50448 0.57077,1.8184 1.12186,1.12186 1.27138,12.0631 0.24656,18.04204 l -0.95268,5.55804 31.32616,49.69296 c 0.51442,0.75868 1.54788,2.57214 2.29658,4.02989 0.90748,1.76691 1.21052,2.3846 1.41217,8.12995 l 1.7927,71.57777 -20.01859,0 -2.07997,-69.38174 c -0.0733,-2.61506 -0.3381,-3.35793 -1.78399,-5.00471 -2.00243,-2.28065 -4.3285,-3.51791 -13.65921,-7.26555 -10.35259,-4.15805 -14.92744,-6.68066 -24.94183,-13.75305 -2.41509,-1.70559 -8.98494,-8.03936 -16.0141,-15.43867 -3.04501,-3.20535 -5.63644,-5.72784 -5.75873,-5.60554 -0.1223,0.12229 0.0321,1.17723 0.34323,2.34431 l 14.68348,50.82018 0.89567,3.02606 -2.46526,4.76507 -29.60411,55.49364 -24.26348,-0.40664 30.38077,-55.42648 c 5.96103,-10.44717 5.94812,-10.64547 -1.24336,-19.07484 -3.86282,-4.52774 -15.92128,-21.06054 -17.99607,-24.67359 -0.52274,-0.91028 -2.12766,-3.67832 -3.56649,-6.15118 -2.728,-4.6885 -5.45758,-9.8133 -6.37731,-11.97343 -0.62798,-1.47493 -2.43424,-1.58389 -8.59711,-0.51856 -16.64728,2.87767 -29.58959,3.68692 -44.04927,2.75425 -9.3561,-0.60349 -22.17147,-2.21486 -25.53005,-3.21011 -3.59446,-1.06515 -6.37287,-0.7174 -8.10465,1.0144 -2.31302,2.31302 -2.0748,4.01326 1.40743,10.04491 5.11207,8.85478 6.00339,12.82344 6.64669,29.59464 0.47294,12.33013 0.63224,13.21262 3.56956,19.77557 l 24.41804,58.25106 z M 278.3759,223.44407 c 0.82995,-0.91708 0.74604,-2.53188 -0.17155,-3.30163 -0.17615,-0.14776 -0.77841,-0.99404 -1.33837,-1.88061 -1.59277,-2.52185 -8.37136,-11.55237 -8.67155,-11.55237 l -28.42645,19.76022 c 0.21001,0.50962 0.51367,1.41016 0.67482,2.00122 0.16114,0.59105 0.79863,1.71584 1.41666,2.49953 0.61804,0.78368 1.64646,2.11356 2.2854,2.95526 3.22437,4.24754 5.49774,6.37993 6.50535,6.92374 z"
     id="path4200"
     inkscape:connector-curvature="0"
     sodipodi:nodetypes="ccccccccsssscccssssscssccsssssssssssssccssssssscscsccccscsssscccssssssssscsssscssssccssssssssccsccccssssccccccccssssssssssccccssccscscc" /><polygon
     points="  77.315,442.35 90.31,458.598 115.263,483.877 128.462,494.333 496.829,131.774 490.717,123.787 479.647,111.433 462.772,94.266   445.659,79.813 "
     id="polygon9"
     stroke-linejoin="round"
     stroke-linecap="round"
     stroke-width="0.1764"
     stroke="#FF0000"
     fill="#FF0000" /></svg>