<?xml version="1.0" encoding="utf-8"?>
<!-- Generator: Adobe Illustrator 16.0.2, SVG Export Plug-In . SVG Version: 6.00 Build 0)  -->
<!DOCTYPE svg PUBLIC "-//W3C//DTD SVG 1.1//EN" "http://www.w3.org/Graphics/SVG/1.1/DTD/svg11.dtd">
<svg version="1.1"
	 id="Layer_1" sodipodi:docname="AJAX1.svg" inkscape:version="0.48.2 r9819" xmlns:svg="http://www.w3.org/2000/svg" xmlns:sodipodi="http://sodipodi.sourceforge.net/DTD/sodipodi-0.dtd" xmlns:cc="http://creativecommons.org/ns#" xmlns:dc="http://purl.org/dc/elements/1.1/" xmlns:inkscape="http://www.inkscape.org/namespaces/inkscape" xmlns:rdf="http://www.w3.org/1999/02/22-rdf-syntax-ns#"
	 xmlns="http://www.w3.org/2000/svg" xmlns:xlink="http://www.w3.org/1999/xlink" x="0px" y="0px" width="577.137px"
	 height="577.137px" viewBox="0 0 577.137 577.137" style="enable-background:new 0 0 577.137 577.137;" xml:space="preserve">
<sodipodi:namedview  id="namedview13" inkscape:window-height="1004" inkscape:window-width="1280" inkscape:pageshadow="2" inkscape:pageopacity="0" inkscape:window-x="-8" fit-margin-bottom="0.1" fit-margin-right="0.1" inkscape:current-layer="Layer_1" inkscape:window-y="-8" inkscape:window-maximized="1" inkscape:zoom="0.81944444" inkscape:cx="247.58864" bordercolor="#666666" fit-margin-left="0.1" showgrid="false" gridtolerance="10" pagecolor="#ffffff" guidetolerance="10" objecttolerance="10" fit-margin-top="0.1" inkscape:cy="198.04169" borderopacity="1">
	</sodipodi:namedview>
<circle id="circle3" sodipodi:ry="286.96899" sodipodi:rx="286.96899" sodipodi:cy="287.05701" sodipodi:cx="287.05701" style="fill:#FFFFFF;stroke:#000000;stroke-width:3;stroke-linecap:round;stroke-linejoin:round;" cx="287.62" cy="287.62" r="286.969">
</circle>
<circle id="circle5" sodipodi:ry="261.66599" sodipodi:rx="261.66599" sodipodi:cy="287.05701" sodipodi:cx="287.05701" style="fill:#003399;" cx="287.62" cy="287.62" r="261.666">
</circle>
<g>
	<path style="fill:#FFFFFF;" d="M197.994,166.336c9.833,1.938,19.187,5.698,28.063,11.279l12.233,9.912
		c5.396,6.152,8.874,10.483,10.434,12.988l5.577,10.596c3.117,8.66,4.795,17.49,5.037,26.489l-0.899,12.988l-3.058,9.57
		c-3.48,8.203-8.877,16.521-16.19,24.951l0.899,2.222l8.635,9.058l5.577,8.032l5.037,11.963c2.757,8.318,4.138,16.465,4.138,24.438
		c0,16.179-5.698,31.56-17.09,46.143c-17.27,19.712-39.639,30.022-67.1,30.933c-9.956,0-18.169-0.568-24.646-1.709
		c-8.396-2.163-14.333-3.986-17.81-5.469l-10.793-5.127l-9.175-6.323l-8.275-7.007l-8.455-10.425
		c-4.919-7.632-8.396-14.868-10.434-21.704l-0.18-1.538l47.312-12.305c2.277,8.545,7.975,15.039,17.09,19.482
		c5.636,2.165,13.97,3.362,25.005,3.589l8.455-0.854l6.836-2.051l5.217-2.905c3.598-2.277,6.836-5.64,9.714-10.083
		c1.439-2.847,2.519-6.722,3.238-11.621c0.239-3.987,0-6.265-0.72-6.836c0.239-1.821-0.602-4.614-2.519-8.374l-4.497-5.981
		c-3.238-3.076-6.057-5.183-8.455-6.323c-2.999-1.594-7.016-2.905-12.053-3.931l-19.608-0.513v-46.313
		c2.637,0.229,7.854-0.112,15.651-1.025l0.36,0.342c14.271-1.594,23.265-8.999,26.984-22.217l-0.36-7.69l0.36-1.196l-0.72-2.393
		l-3.418-6.323c-3.359-3.987-6.417-6.606-9.174-7.861c-0.481-0.342-4.56-1.367-12.233-3.076l-11.333,0.342v-0.342l-11.153,1.709
		l-7.915,3.247l-3.238,2.393l-3.598,4.956l-2.699,6.323l-46.772-13.33l3.058-7.69l1.08-1.025c-0.242-0.569,1.138-3.418,4.137-8.545
		l5.037-7.69l7.196-7.861c2.637-1.367,3.958-2.393,3.958-3.076l3.778-2.563c9.354-6.606,20.266-10.823,32.741-12.646
		c6.234-0.911,13.731-1.367,22.486-1.367C185.101,164.969,191.518,165.426,197.994,166.336z"/>
	<path style="fill:#FFFFFF;" d="M304.75,319.12c-0.359-6.379-0.54-12.646-0.54-18.799c0-3.076,0.06-6.152,0.181-9.229
		c0.359-12.075,1.377-23.811,3.058-35.205v-1.196l0.72-1.538l1.259-11.792l0.899-1.709l1.799-9.57l0.72-1.025
		c1.8-8.203,5.694-17.432,11.693-27.686l5.217-7.52l10.074-9.741c10.673-8.203,24.524-14.07,41.556-17.603
		c5.396-0.911,10.973-1.367,16.729-1.367h1.438c8.995,0.229,18.408,1.653,28.244,4.272c4.076,0.457,10.613,3.02,19.607,7.69
		c9.234,5.469,17.631,12.932,25.186,22.388l5.757,8.374l4.677,9.399l1.979,6.836l0.541,0.513v1.709
		c1.197,2.393,1.916,4.272,2.158,5.64l0.719,0.854l3.059,15.21l0.54,0.342l-0.36,2.222l0.721,1.367l1.799,18.286l0.719,1.709
		l-0.539,0.171l1.259,10.767l-0.36,0.342c0.479,1.14,0.479,1.824,0,2.051l0.541,1.709l-0.36,0.513l0.899,11.621l-0.359,0.342
		l0.539,4.956l-0.18,0.342v6.836c-0.121,4.217-0.48,9.287-1.08,15.21l-0.898,6.323l0.359,0.342l-0.899,1.709
		c-0.36,4.217-1.38,9.229-3.058,15.039l-1.08,3.247l-0.18,1.88l-4.678,12.646l-0.898,0.684c0,1.141-1.561,4.614-4.678,10.425
		l-8.635,11.792c-9.476,10.369-19.969,17.944-31.481,22.729c-7.556,2.849-15.173,4.727-22.847,5.64l-13.852,0.854l-3.238-0.171
		c-27.344-0.684-49.411-9.113-66.2-25.293c-8.275-8.771-14.513-18.97-18.709-30.591c-4.798-11.849-7.735-24.323-8.815-37.427
		L304.75,319.12z M394.336,370.731c7.436,0.457,12.053,0.342,13.853-0.342l0.18,0.342l9.894-2.051
		c7.916-2.505,13.971-7.918,18.17-16.235c3.238-8.315,5.636-18.228,7.195-29.736l0.9-38.623l-0.541-18.115l-1.799-13.501
		l-0.719-0.684l-2.339-9.57l-0.72-0.342c-1.799-6.836-5.217-13.159-10.254-18.97c-3.84-2.961-6.897-4.897-9.174-5.811l-10.435-2.393
		l-10.974-0.513c-4.918-0.112-10.375,0.854-16.37,2.905c-5.518,2.507-10.136,7.007-13.852,13.501
		c-2.64,6.04-5.037,13.616-7.196,22.729l0.36,1.025c-0.72,0.571-1.142,2.451-1.259,5.64c-1.682,13.33-1.861,32.871-0.54,58.618
		l2.878,18.628l3.777,13.159c2.758,6.836,6.535,11.792,11.334,14.868C381.025,367.884,386.899,369.706,394.336,370.731z"/>
</g>
<polygon id="polygon11" style="fill:#D40000;" points="116.185,486.184 129.883,497.036 499.087,133.651 492.598,125.17 
	483.53,115.049 473.395,104.538 464.594,95.585 446.987,80.715 77.782,444.1 91.179,460.85 "/>
</svg>
