<?xml version="1.0" encoding="utf-8"?>
<!-- Generator: Adobe Illustrator 13.0.0, SVG Export Plug-In  -->
<!DOCTYPE svg PUBLIC "-//W3C//DTD SVG 1.1//EN" "http://www.w3.org/Graphics/SVG/1.1/DTD/svg11.dtd" [
	<!ENTITY ns_flows "http://ns.adobe.com/Flows/1.0/">
]>
<svg version="1.1"
	 xmlns="http://www.w3.org/2000/svg" xmlns:xlink="http://www.w3.org/1999/xlink" xmlns:a="http://ns.adobe.com/AdobeSVGViewerExtensions/3.0/"
	 x="0px" y="0px" width="598px" height="598px" viewBox="-0.178 -0.451 598 598" enable-background="new -0.178 -0.451 598 598"
	 xml:space="preserve">
<defs>
</defs>
<path fill="#FFFFFF" stroke="#000000" stroke-width="2" stroke-linecap="round" stroke-linejoin="round" d="M596.098,298.549
	C596.098,134.217,462.881,1,298.549,1S1,134.217,1,298.549s133.217,297.549,297.549,297.549S596.098,462.881,596.098,298.549
	L596.098,298.549L596.098,298.549z"/>
<path fill="#0000FF" stroke="#0000FF" stroke-width="0.7087" stroke-linecap="round" stroke-linejoin="round" d="M569.862,298.549
	c0-149.842-121.472-271.313-271.313-271.313c-149.842,0-271.313,121.471-271.313,271.313c0,149.842,121.471,271.313,271.313,271.313
	C448.391,569.862,569.862,448.391,569.862,298.549L569.862,298.549L569.862,298.549z"/>
<path fill="#FFFFFF" stroke="#0000FF" stroke-width="0.7087" stroke-linecap="round" stroke-linejoin="round" d="M325.822,94.993
	c80.081,0,145,91.632,145,204.667s-64.919,204.667-145,204.667l-57.327-2.081c-75.735-6.747-135.673-95.094-135.673-203.086
	c0-109.558,61.688-198.894,138.975-203.327L325.822,94.993z"/>
<path fill="none" stroke="#0000FF" stroke-width="0.7087" stroke-linecap="round" stroke-linejoin="round" d="M353.388,170.047
	c0.467,0.125,0.933,0.258,1.397,0.399"/>
<path fill="none" stroke="#0000FF" stroke-width="0.7087" stroke-linecap="round" stroke-linejoin="round" d="M355.597,170.428
	c33.301,10.289,59.673,64.334,61.206,130.063c1.72,73.71-28.448,134.2-67.382,135.108c-38.935,0.909-71.892-58.108-73.611-131.818
	c-1.72-73.71,28.448-134.2,67.383-135.109c3.737-0.087,7.421,0.378,11.025,1.355"/>
<path fill="#0000FF" stroke="#0000FF" stroke-width="0.7087" stroke-linecap="round" stroke-linejoin="round" d="M365.299,432.515
	c28.987-19.578,48.859-70.432,47.48-129.595c-1.681-71.899-34.14-130.079-73.69-134.373l7.233,0.61
	c39.548,4.166,71.974,60.886,73.611,131.007c1.346,57.697-18.556,107.304-47.553,126.414L365.299,432.515z"/>
<path fill="none" stroke="#0000FF" stroke-width="3" stroke-linecap="round" stroke-linejoin="round" stroke-dasharray="12" d="
	M337.131,497.659c-72.121-1.359-130.309-89.482-130.309-197.993c0-109.356,59.099-198.007,132-198.007"/>
<path fill="none" d="M325.809,177.087c-30.735,22.368-51.985,70.335-51.985,125.908c0,51.949,18.571,97.252,46.1,121.211
	c25.009-28.771,41.233-75.035,41.233-127.213C361.156,249.03,347.447,206.063,325.809,177.087z"/>
<path opacity="0.28" fill="#FFFFFF" stroke="#0000FF" stroke-width="0.7087" stroke-linecap="round" stroke-linejoin="round" d="
	M325.809,177.087c-30.735,22.368-51.985,70.335-51.985,125.908c0,51.949,18.571,97.252,46.1,121.211
	c25.009-28.771,41.233-75.035,41.233-127.213C361.156,249.03,347.447,206.063,325.809,177.087z"/>
<path fill="#0000FF" d="M325.809,172.42c-31.918,22.79-53.985,71.663-53.985,128.286c0,52.931,19.285,99.089,47.873,123.5"/>
<path fill="#0000FF" d="M318.59,424.872c28.647-29.314,47.232-76.452,47.232-129.615c0-48.869-15.704-92.646-40.49-122.17"/>
<path opacity="0.99" fill="#0000FF" stroke="#FFFFFF" d="M197.822,141.659h7.111l0.889-1.333l-2-5.333l-20-2l-12.667,6.667
	l-4,16.667l21.333,1.333l9.333-5.333l0.778-1.167h-0.778V141.659z M191.385,148.35l-4.032,2.304l-9.215-0.576l1.728-7.2l5.472-2.88
	l8.64,0.864l0.864,2.304L191.385,148.35z"/>
<path fill="#0000FF" stroke="#0000FF" d="M244.822,135.993l-20-2l-12.667,6.667l-0.24,1h-6.983h-7.111v9.5h0.778h11.036l-1.48,6.167
	l21.333,1.333l9.333-5.333l8-12L244.822,135.993z M232.385,149.35l-4.032,2.304l-9.215-0.576l1.728-7.2l5.472-2.88l8.64,0.864
	l0.864,2.304L232.385,149.35z"/>
<path opacity="0.99" fill="#0000FF" stroke="#FFFFFF" d="M162.66,227.8l6.655-0.351l0.752-1.557l-2.191-5.953l-18.839-1.283
	l-11.456,8.19l-2.747,19.111l20.046,0.46l8.417-6.513l0.658-1.362l-0.728,0.038L162.66,227.8z M157.036,235.71l-3.636,2.813
	l-8.659-0.199l1.186-8.255l4.949-3.538l8.138,0.554l0.946,2.572L157.036,235.71z"/>
<path fill="#0000FF" stroke="#0000FF" d="M206.31,219.05l-18.839-1.283l-11.456,8.19l-0.165,1.146l-6.536,0.344l-6.655,0.351
	l0.568,10.781l0.728-0.038l10.329-0.545l-1.016,7.071l20.046,0.46l8.416-6.513l6.77-14.012L206.31,219.05z M195.469,234.822
	l-3.636,2.814l-8.659-0.199l1.186-8.256l4.949-3.538l8.139,0.554l0.946,2.572L195.469,234.822z"/>
<path opacity="0.99" fill="#0000FF" stroke="#FFFFFF" d="M197.112,446.711h0.778l-0.778-1.166l-9.333-5.334l-21.333,1.334l4,16.666
	l12.667,6.666l20-2l2-5.332l-0.889-1.334h-7.111V446.711z M194.131,454.704l-0.864,2.304l-8.64,0.864l-5.472-2.88l-1.728-7.2
	l9.215-0.576l4.032,2.304L194.131,454.704z"/>
<path opacity="0.99" fill="#0000FF" stroke="#FFFFFF" d="M161.865,355.401l0.727,0.054l-0.63-1.375l-8.279-6.686l-20.051,0.044
	l2.349,19.163l11.284,8.426l18.861-0.892l2.314-5.905l-0.72-1.573l-6.646-0.488L161.865,355.401z M158.413,364.255l-0.999,2.553
	l-8.148,0.384l-4.875-3.639l-1.015-8.278l8.662-0.02l3.577,2.888L158.413,364.255z"/>
<path fill="#0000FF" stroke="#0000FF" d="M206.847,369.915l-6.478-14.149l-8.279-6.687l-20.052,0.045l0.87,7.09l-10.315-0.759
	l-0.727-0.054l-0.792,10.768l6.646,0.488l6.527,0.48l0.141,1.15l11.283,8.425l18.861-0.891L206.847,369.915z M196.819,365.941
	l-0.999,2.552l-8.148,0.385l-4.875-3.64l-1.015-8.278l8.662-0.021l3.577,2.889L196.819,365.941z"/>
<polygon fill="#0000FF" stroke="#0000FF" stroke-width="0.7087" stroke-linecap="round" stroke-linejoin="round" points="
	289.822,165.659 335.822,137.659 336.489,146.326 295.822,171.659 "/>
<polygon fill="#0000FF" stroke="#0000FF" stroke-width="0.7087" stroke-linecap="round" stroke-linejoin="round" points="
	276.039,183.386 251.822,238.326 259.822,240.326 285.156,188.326 "/>
<polyline fill="#0000FF" stroke="#0000FF" stroke-width="0.7087" stroke-linecap="round" stroke-linejoin="round" points="
	249.943,255.356 247.822,340.992 254.489,339.659 255.822,260.326 "/>
<polygon fill="#0000FF" stroke="#0000FF" stroke-width="0.7087" stroke-linecap="round" stroke-linejoin="round" points="
	251.822,362.326 272.372,417.748 280.489,414.992 258.489,359.659 "/>
<polyline fill="#0000FF" points="287.822,433.659 332.489,462.992 334.489,453.659 293.822,428.326 "/>
<polygon fill="#0000FF" stroke="#0000FF" stroke-width="0.7087" stroke-linecap="round" stroke-linejoin="round" points="
	435.392,260.03 433.822,338.992 441.156,343.659 441.156,260.993 "/>
<polygon fill="#0000FF" stroke="#0000FF" stroke-width="0.7087" stroke-linecap="round" stroke-linejoin="round" points="
	406.111,179.019 432.489,244.993 440.489,242.993 411.822,177.659 "/>
<polyline fill="#0000FF" points="394.489,170.325 353.156,144.993 353.156,136.993 396.489,165.659 "/>
<path fill="#0000FF" stroke="#0000FF" d="M243.822,454.827l-8-12l-9.333-5.334l-21.333,1.334l1.48,6.166H195.6h-0.778v9.5h7.111
	h6.983l0.24,1l12.667,6.666l20-2L243.822,454.827z M232.841,451.986l-0.864,2.304l-8.64,0.864l-5.472-2.88l-1.728-7.2l9.215-0.576
	l4.032,2.304L232.841,451.986z"/>
<path fill="#0000FF" stroke="#FFFFFF" stroke-width="0.7087" stroke-linecap="round" stroke-linejoin="round" d="M238.822,492.159
	c13.716,16.655,35.099,13.919,55.325,14.965c9.772,0.506,53.139,5.438,57.675-5.465c-16.979,3.232-36.095,2.224-53.232,0.905
	C278.653,501.031,256.19,502.58,238.822,492.159"/>
<path fill="#0000FF" stroke="#0000FF" stroke-width="0.7087" stroke-linecap="round" stroke-linejoin="round" d="M233.156,348.325
	c-6.407-5.17-16.441,1.376-22,4c-4.695,5.932-5.579,17.966,2,23c7.126,4.734,17.154-2.896,22.729-6.123
	C240.626,366.457,236.062,350.671,233.156,348.325z M230.626,366.168c-3.344,1.937-9.36,6.514-13.637,3.674
	c-4.547-3.021-4.017-10.241-1.2-13.801c3.335-1.574,9.356-5.502,13.2-2.399C230.734,355.049,233.472,364.521,230.626,366.168z"/>
<path fill="#0000FF" stroke="#0000FF" stroke-width="0.7087" stroke-linecap="round" stroke-linejoin="round" d="M262.112,340.336
	c-5.188-5.101-14.509-0.105-19.591,1.773c-4.595,4.882-6.352,15.481-0.127,20.558c5.854,4.771,15.258-1.186,20.402-3.598
	C267.173,357.017,264.465,342.65,262.112,340.336z M258.44,355.956c-3.086,1.446-8.729,5.021-12.241,2.157
	c-3.735-3.045-2.681-9.406,0.077-12.336c3.048-1.126,8.642-4.124,11.754-1.063C259.442,346.103,261.066,354.724,258.44,355.956z"/>
<polygon fill="#0000FF" points="233.822,354.992 240.822,351.326 243.156,358.992 235.489,361.326 "/>
<path fill="#0000FF" stroke="#0000FF" stroke-width="0.7087" stroke-linecap="round" stroke-linejoin="round" d="M264.746,426.006
	c-7.45-3.505-15.647,5.232-20.426,9.099c-3.156,6.875-1.163,18.776,7.393,21.871c8.045,2.911,15.979-6.877,20.631-11.334
	C276.299,441.852,268.125,427.596,264.746,426.006z M266.516,443.939c-2.79,2.674-7.55,8.546-12.378,6.801
	c-5.133-1.857-6.329-8.998-4.436-13.124c2.867-2.319,7.787-7.562,12.256-5.458C263.986,433.112,268.891,441.665,266.516,443.939z"/>
<path fill="#0000FF" stroke="#0000FF" stroke-width="0.7087" stroke-linecap="round" stroke-linejoin="round" d="M290.985,411.383
	c-6.249-3.726-14.121,3.336-18.613,6.365c-3.308,5.831-2.502,16.545,4.748,20.002c6.817,3.249,14.542-4.767,18.969-8.329
	C299.854,426.39,293.819,413.074,290.985,411.383z M291.119,427.429c-2.655,2.136-7.291,6.945-11.382,4.996
	c-4.349-2.073-4.833-8.503-2.849-12.003c2.695-1.816,7.419-6.055,11.168-3.817C289.757,417.618,293.378,425.609,291.119,427.429z"/>
<polygon fill="#0000FF" points="266.973,432.325 272.905,427.104 276.989,434 270.093,438.084 "/>
<path fill="#0000FF" stroke="#0000FF" stroke-width="0.7087" stroke-linecap="round" stroke-linejoin="round" d="M333.004,476.975
	c-7.003,4.329-4.155,15.966-3.524,22.08c4.038,6.397,15.098,11.224,22.361,5.744c6.83-5.152,2.959-17.144,1.764-23.474
	C352.588,475.942,336.181,475.011,333.004,476.975z M348.998,485.278c0.718,3.798,3.039,10.992-1.058,14.084
	c-4.358,3.289-10.994,0.393-13.418-3.445c-0.379-3.669-2.087-10.652,2.116-13.249C338.544,481.489,348.387,482.048,348.998,485.278z
	"/>
<path fill="#0000FF" stroke="#0000FF" stroke-width="0.7087" stroke-linecap="round" stroke-linejoin="round" d="M335.073,447.008
	c-6.533,3.202-4.913,13.652-4.826,19.069c3.081,5.955,12.498,11.128,19.352,6.939c6.443-3.939,3.943-14.787,3.374-20.441
	C352.488,447.767,338.036,445.556,335.073,447.008z M348.591,455.653c0.341,3.391,1.841,9.898-2.026,12.264
	c-4.111,2.513-9.763-0.592-11.611-4.164c-0.052-3.25-1.024-9.521,2.896-11.441C339.627,451.438,348.3,452.767,348.591,455.653z"/>
<polygon fill="#0000FF" points="339.515,478.558 338.379,470.738 346.385,471.079 346.043,479.086 "/>
<path fill="none" stroke="#FFFFFF" d="M407.232,430.831c1.263-3.398-2.897-6.752-4.788-8.716c-1.609-1.671-7.721,1.779-8.408,3.206
	c-1.517,3.146,2.194,6.61,3.834,8.63C400.799,435.284,405.888,434.443,407.232,430.831z"/>
<path fill="none" stroke="#FFFFFF" d="M417.345,440.551c-1.981-1.732-8.45,2.781-9.066,4.465c-1.359,3.711,3.167,7.26,5.219,9.381
	c3.422,1.216,9.026-0.243,10.143-4.466C424.689,445.962,419.672,442.584,417.345,440.551z"/>
<path fill="#0000FF" stroke="#FFFFFF" d="M418.288,435.785c-1.405-1.228-4.167-0.566-6.955,0.813l-1.146-1.595
	c0.612-0.717,1.125-1.527,1.474-2.464c2.105-5.663-4.828-11.25-7.98-14.526c-2.683-2.785-12.865,2.967-14.012,5.347
	c-2.527,5.243,3.656,11.015,6.389,14.38c2.5,1.138,5.94,1.318,9.006,0.423l1.513,1.438c-1.75,1.363-3.07,2.736-3.397,3.63
	c-2.265,6.185,5.278,12.098,8.697,15.633c5.702,2.028,15.045-0.404,16.905-7.44C430.53,444.806,422.169,439.177,418.288,435.785z
	 M397.87,433.951c-1.64-2.02-5.351-5.484-3.834-8.63c0.688-1.427,6.799-4.877,8.408-3.206c1.891,1.964,6.051,5.317,4.788,8.716
	C405.888,434.443,400.799,435.284,397.87,433.951z M423.64,449.931c-1.116,4.223-6.721,5.682-10.143,4.466
	c-2.052-2.121-6.578-5.67-5.219-9.381c0.616-1.684,7.085-6.197,9.066-4.465C419.672,442.584,424.689,445.962,423.64,449.931z"/>
<path fill="#0000FF" stroke="#FFFFFF" stroke-width="0.7087" stroke-linecap="round" stroke-linejoin="round" d="M439.735,360.653
	c0.02,6.586,9.146,9.517,13.578,11.647c6.051-0.075,13.971-5.597,13.276-12.841c-0.653-6.813-10.448-9.194-15.265-11.029
	C447.229,346.87,439.727,357.666,439.735,360.653z M452.093,353.228c2.888,1.1,8.766,2.528,9.157,6.616
	c0.417,4.347-4.334,7.658-7.966,7.704c-2.659-1.277-8.135-3.036-8.146-6.988C445.132,358.767,449.634,352.29,452.093,353.228z"/>
<path fill="#0000FF" stroke="#0000FF" stroke-width="0.7087" stroke-linecap="round" stroke-linejoin="round" d="M420.173,346.7
	c-0.553,5.794,7.249,9.063,10.979,11.271c5.351,0.393,12.818-3.863,12.832-10.287c0.012-6.043-8.429-8.878-12.522-10.858
	C427.979,335.145,420.423,344.07,420.173,346.7z M431.725,341.104c2.454,1.186,7.519,2.889,7.514,6.514
	c-0.01,3.855-4.491,6.408-7.7,6.174c-2.238-1.326-6.92-3.289-6.589-6.766C425.1,345.449,429.635,340.094,431.725,341.104z"/>
<polygon fill="#0000FF" points="443.539,356.879 437.732,354.38 441.317,349.064 446.633,352.649 "/>
<path fill="#0000FF" stroke="#FFFFFF" stroke-width="0.7087" stroke-linecap="round" stroke-linejoin="round" d="M231.822,106.673
	c13.716-16.655,35.1-13.919,55.324-14.965c9.772-0.506,53.14-5.438,57.676,5.465c-16.979-3.232-36.095-2.224-53.232-0.905
	C271.653,97.801,249.19,96.252,231.822,106.673"/>
<path fill="#0000FF" stroke="#0000FF" stroke-width="0.7087" stroke-linecap="round" stroke-linejoin="round" d="M239.551,231.932
	c-5.575-3.228-15.602-10.857-22.729-6.123c-7.579,5.034-6.695,17.068-2,23c5.559,2.624,15.593,9.17,22,4
	C239.729,250.464,244.293,234.677,239.551,231.932z M232.657,247.493c-3.844,3.102-9.865-0.825-13.2-2.399
	c-2.817-3.56-3.347-10.78,1.2-13.801c4.276-2.84,10.293,1.737,13.637,3.674C237.139,236.614,234.401,246.085,232.657,247.493z"/>
<path fill="#0000FF" stroke="#0000FF" stroke-width="0.7087" stroke-linecap="round" stroke-linejoin="round" d="M266.463,242.065
	c-5.145-2.412-14.548-8.369-20.402-3.598c-6.225,5.076-4.468,15.676,0.127,20.557c5.082,1.879,14.403,6.875,19.591,1.773
	C268.132,258.483,270.84,244.118,266.463,242.065z M261.697,256.419c-3.112,3.063-8.706,0.064-11.754-1.063
	c-2.757-2.93-3.812-9.291-0.077-12.335c3.513-2.863,9.155,0.711,12.241,2.157C264.733,246.411,263.109,255.032,261.697,256.419z"/>
<polygon fill="#0000FF" points="237.489,246.142 244.489,249.808 246.823,242.142 239.156,239.808 "/>
<path fill="#0000FF" stroke="#0000FF" stroke-width="0.7087" stroke-linecap="round" stroke-linejoin="round" d="M276.011,155.493
	c-4.652-4.457-12.586-14.245-20.631-11.334c-8.555,3.095-10.549,14.996-7.393,21.871c4.779,3.866,12.977,12.604,20.426,9.099
	C271.792,173.539,279.966,159.283,276.011,155.493z M265.625,168.976c-4.469,2.104-9.389-3.139-12.256-5.458
	c-1.893-4.126-0.697-11.267,4.436-13.124c4.828-1.745,9.588,4.127,12.378,6.801C272.558,159.469,267.653,168.022,265.625,168.976z"
	/>
<path fill="#0000FF" stroke="#0000FF" stroke-width="0.7087" stroke-linecap="round" stroke-linejoin="round" d="M299.755,171.713
	c-4.426-3.563-12.15-11.578-18.969-8.329c-7.25,3.457-8.055,14.171-4.747,20.002c4.492,3.029,12.364,10.091,18.612,6.365
	C297.485,188.06,303.521,174.745,299.755,171.713z M291.724,184.53c-3.749,2.237-8.473-2.001-11.168-3.817
	c-1.984-3.5-1.501-9.93,2.848-12.003c4.092-1.949,8.727,2.86,11.383,4.996C297.045,175.525,293.425,183.516,291.724,184.53z"/>
<polygon fill="#0000FF" points="270.64,168.809 276.572,174.03 280.655,167.134 273.76,163.05 "/>
<path fill="#0000FF" stroke="#FFFFFF" stroke-width="0.7087" stroke-linecap="round" stroke-linejoin="round" d="M357.271,119.809
	c1.195-6.33,5.066-18.321-1.764-23.474c-7.264-5.479-18.323-0.653-22.361,5.744c-0.631,6.114-3.479,17.751,3.524,22.08
	C339.848,126.124,356.255,125.192,357.271,119.809z M340.306,118.466c-4.203-2.597-2.495-9.58-2.116-13.249
	c2.424-3.838,9.06-6.734,13.418-3.445c4.097,3.092,1.775,10.286,1.058,14.084C352.054,119.086,342.211,119.645,340.306,118.466z"/>
<path fill="#0000FF" stroke="#0000FF" stroke-width="0.7087" stroke-linecap="round" stroke-linejoin="round" d="M356.64,148.559
	c0.569-5.654,3.069-16.502-3.374-20.441c-6.854-4.188-16.271,0.984-19.352,6.939c-0.087,5.417-1.707,15.867,4.826,19.069
	C341.703,155.579,356.155,153.368,356.64,148.559z M341.517,148.823c-3.921-1.92-2.948-8.191-2.896-11.441
	c1.849-3.572,7.5-6.677,11.611-4.164c3.867,2.365,2.367,8.873,2.026,12.264C351.967,148.368,343.294,149.696,341.517,148.823z"/>
<polygon fill="#0000FF" points="343.182,122.577 342.046,130.396 350.052,130.055 349.71,122.048 "/>
<path fill="#0000FF" stroke="#FFFFFF" stroke-width="0.7087" stroke-linecap="round" stroke-linejoin="round" d="M421.955,165.349
	c3.881-3.392,12.242-9.021,10.493-15.638c-1.86-7.036-11.203-9.469-16.905-7.44c-3.419,3.535-10.962,9.448-8.697,15.633
	C407.874,160.709,418.654,168.233,421.955,165.349z M411.945,156.119c-1.359-3.711,3.167-7.26,5.219-9.381
	c3.422-1.216,9.026,0.243,10.143,4.466c1.05,3.969-3.968,7.347-6.295,9.38C419.03,162.316,412.562,157.802,411.945,156.119z"/>
<path fill="#0000FF" stroke="#0000FF" stroke-width="0.7087" stroke-linecap="round" stroke-linejoin="round" d="M407.348,183.122
	c3.152-3.276,10.086-8.863,7.98-14.526c-2.24-6.021-10.722-7.423-15.604-5.2c-2.732,3.365-8.916,9.137-6.389,14.38
	C394.482,180.155,404.665,185.907,407.348,183.122z M397.703,175.813c-1.517-3.146,2.194-6.61,3.834-8.63
	c2.929-1.333,8.018-0.492,9.362,3.12c1.263,3.398-2.897,6.752-4.788,8.716C404.502,180.69,398.391,177.24,397.703,175.813z"/>
<polygon fill="#0000FF" points="411.723,160.125 407.144,164.483 412.349,168.225 416.092,163.019 "/>
<path fill="#0000FF" stroke="#FFFFFF" stroke-width="0.7087" stroke-linecap="round" stroke-linejoin="round" d="M454.992,252.704
	c4.816-1.836,14.611-4.216,15.265-11.03c0.694-7.244-7.226-12.766-13.276-12.841c-4.433,2.131-13.559,5.062-13.578,11.647
	C443.394,243.468,450.896,254.265,454.992,252.704z M448.805,240.575c0.012-3.952,5.487-5.711,8.146-6.988
	c3.632,0.046,8.383,3.357,7.966,7.704c-0.392,4.088-6.27,5.517-9.157,6.616C453.301,248.844,448.799,242.368,448.805,240.575z"/>
<path fill="#0000FF" stroke="#0000FF" stroke-width="0.7087" stroke-linecap="round" stroke-linejoin="round" d="M435.128,264.308
	c4.094-1.98,12.534-4.814,12.522-10.857c-0.014-6.424-7.481-10.68-12.832-10.288c-3.729,2.209-11.531,5.478-10.979,11.272
	C424.09,257.063,431.646,265.989,435.128,264.308z M428.616,254.108c-0.331-3.477,4.351-5.439,6.589-6.765
	c3.209-0.234,7.69,2.318,7.7,6.173c0.005,3.625-5.06,5.328-7.514,6.514C433.302,261.04,428.767,255.685,428.616,254.108z"/>
<polygon fill="#0000FF" points="447.206,244.255 441.399,246.754 444.984,252.069 450.3,248.485 "/>
<polygon fill="#0000FF" points="351.156,463.659 399.156,436.992 392.489,432.326 351.822,456.992 "/>
<polyline fill="#0000FF" points="407.489,425.326 440.155,354.66 431.484,356.387 404.014,419.4 407.489,425.326 "/>
<polygon fill="#0000FF" points="241.822,144.659 252.822,150.659 249.322,154.159 238.822,150.159 "/>
<polygon fill="#0000FF" points="203.822,230.159 215.322,232.159 213.322,237.159 202.322,236.159 "/>
<polygon fill="#0000FF" stroke="#0000FF" points="211.322,362.159 212.322,369.159 201.822,369.159 201.322,363.659 "/>
<polygon fill="#0000FF" stroke="#0000FF" points="235.322,447.159 244.822,443.159 248.322,450.659 239.822,452.659 "/>
<polygon fill="#FF0000" stroke="#FF0000" stroke-width="0.1764" stroke-linecap="round" stroke-linejoin="round" points="
	78.902,460.583 92.872,477.977 118.945,504.284 133.23,515.553 518.208,138.204 511.44,129.396 501.984,118.887 491.417,107.972 
	482.241,98.674 463.881,83.233 "/>
</svg>
