<?xml version="1.0" encoding="utf-8"?>
<!-- Generator: Adobe Illustrator 13.0.0, SVG Export Plug-In . SVG Version: 6.00 Build 14948)  -->
<!DOCTYPE svg PUBLIC "-//W3C//DTD SVG 1.1//EN" "http://www.w3.org/Graphics/SVG/1.1/DTD/svg11.dtd">
<svg version="1.1" id="Layer_1" xmlns="http://www.w3.org/2000/svg" xmlns:xlink="http://www.w3.org/1999/xlink" x="0px" y="0px"
	 width="576px" height="576px" viewBox="-0.933 -0.933 576 576" enable-background="new -0.933 -0.933 576 576"
	 xml:space="preserve">
<circle fill="#FFFFFF" stroke="#000000" stroke-width="2" stroke-linecap="round" stroke-linejoin="round" cx="287.067" cy="287.067" r="286.979"/>
<circle fill="#0000FF" stroke="#0000FF" stroke-width="0.1764" stroke-linecap="round" stroke-linejoin="round" cx="287.067" cy="287.067" r="259.969"/>
<line fill="none" stroke="#0000FF" stroke-width="0.1764" stroke-linecap="round" stroke-linejoin="round" x1="87.222" y1="218.451" x2="87.178" y2="218.598"/>
<line fill="none" stroke="#0000FF" stroke-width="0.1764" stroke-linecap="round" stroke-linejoin="round" x1="81.432" y1="215.443" x2="81.333" y2="216.779"/>
<circle fill="#FFFFFF" stroke="#FFFFFF" stroke-width="0.1764" stroke-linecap="round" stroke-linejoin="round" cx="161.215" cy="342.077" r="27.486"/>
<circle fill="#FFFFFF" stroke="#FFFFFF" stroke-width="0.1764" stroke-linecap="round" stroke-linejoin="round" cx="376.033" cy="342.077" r="27.486"/>
<path fill="#FFFFFF" stroke="#FFFFFF" stroke-width="0.1764" stroke-linecap="round" stroke-linejoin="round" d="M81.333,216.779
	l5.846,1.819l-12.365,41.256l-7.025,3.533l-4.217,5.242l-1.209,70.762l9.259,6.885h54.583c-1.585-13.227,4.417-26.215,15.517-33.58
	c11.099-7.363,25.399-7.846,36.97-1.245s18.433,19.155,17.741,32.458H340.82c-0.677-13.014,5.881-25.34,17.05-32.055
	c11.17-6.713,25.132-6.718,36.307-0.014c11.176,6.704,17.741,19.025,17.076,32.04h76.452V198.735l-1.091-1.776l-0.843-0.819
	l-0.982-0.41l-1.491-0.001H86.296l-1.839-0.108l-0.689,0.168l-0.806,1.007l-0.229,1.342l-0.134,1.509l-1.167,15.797"/>
<rect x="391.049" y="224.044" fill="#0000FF" stroke="#0000FF" stroke-width="0.1764" stroke-linecap="round" stroke-linejoin="round" width="81.681" height="38.749"/>
<rect x="297.52" y="224.044" fill="#0000FF" stroke="#0000FF" stroke-width="0.1764" stroke-linecap="round" stroke-linejoin="round" width="88.848" height="38.749"/>
<rect x="206.518" y="224.044" fill="#0000FF" stroke="#0000FF" stroke-width="0.1764" stroke-linecap="round" stroke-linejoin="round" width="86.321" height="38.749"/>
<rect x="123.288" y="224.044" fill="#0000FF" stroke="#0000FF" stroke-width="0.1764" stroke-linecap="round" stroke-linejoin="round" width="78.551" height="38.749"/>
<polygon fill="#0000FF" stroke="#0000FF" stroke-width="0.1764" stroke-linecap="round" stroke-linejoin="round" points="
	92.695,224.044 118.607,224.044 118.607,262.793 82.631,262.793 "/>
<polygon fill="#FF0000" stroke="#FF0000" stroke-width="0.1764" stroke-linecap="round" stroke-linejoin="round" points="
	78.23,442.399 90.822,458.143 115.72,483.368 128.418,493.427 495.923,131.716 490.189,124.224 479.149,111.901 462.307,94.768 
	445.688,80.733 "/>
</svg>
