<?xml version="1.0" encoding="utf-8"?>
<!-- Generator: Adobe Illustrator 16.0.2, SVG Export Plug-In . SVG Version: 6.00 Build 0)  -->
<!DOCTYPE svg PUBLIC "-//W3C//DTD SVG 1.1//EN" "http://www.w3.org/Graphics/SVG/1.1/DTD/svg11.dtd">
<svg version="1.1"
	 id="Layer_1" sodipodi:docname="AJAX1.svg" inkscape:version="0.48.2 r9819" xmlns:svg="http://www.w3.org/2000/svg" xmlns:sodipodi="http://sodipodi.sourceforge.net/DTD/sodipodi-0.dtd" xmlns:cc="http://creativecommons.org/ns#" xmlns:dc="http://purl.org/dc/elements/1.1/" xmlns:inkscape="http://www.inkscape.org/namespaces/inkscape" xmlns:rdf="http://www.w3.org/1999/02/22-rdf-syntax-ns#"
	 xmlns="http://www.w3.org/2000/svg" xmlns:xlink="http://www.w3.org/1999/xlink" x="0px" y="0px" width="577.137px"
	 height="577.137px" viewBox="0 0 577.137 577.137" style="enable-background:new 0 0 577.137 577.137;" xml:space="preserve">
<sodipodi:namedview  id="namedview55" inkscape:window-height="1004" inkscape:window-width="1280" inkscape:pageshadow="2" inkscape:pageopacity="0" inkscape:window-x="-8" fit-margin-bottom="0.1" fit-margin-right="0.1" inkscape:current-layer="Layer_1" inkscape:window-y="-8" inkscape:window-maximized="1" inkscape:zoom="0.59226075" inkscape:cx="415.19632" bordercolor="#666666" fit-margin-left="0.1" showgrid="false" gridtolerance="10" pagecolor="#ffffff" guidetolerance="10" objecttolerance="10" fit-margin-top="0.1" inkscape:cy="208.53999" borderopacity="1">
	</sodipodi:namedview>
<circle id="circle3" sodipodi:ry="286.96899" sodipodi:rx="286.96899" sodipodi:cy="287.05701" sodipodi:cx="287.05701" style="fill:#FFFFFF;stroke:#000000;stroke-width:3;stroke-linecap:round;stroke-linejoin:round;" cx="287.62" cy="287.62" r="286.969">
</circle>
<circle id="circle5" sodipodi:ry="259.95999" sodipodi:rx="259.95999" sodipodi:cy="287.05701" sodipodi:cx="287.05701" style="fill:#003399;" cx="287.62" cy="287.62" r="259.96">
</circle>
<g>
	<rect x="27.66" y="129.485" style="fill:none;" width="519.92" height="378.361"/>
	<path style="fill:#FFFFFF;" d="M270.346,129.59v9.448h-23.672v11.281h17.344v9.589h-17.344l-0.039,21.364H235.62l0.039-51.683
		H270.346z"/>
	<path style="fill:#FFFFFF;" d="M290.238,129.661v51.682h-10.859v-51.682H290.238z"/>
	<path style="fill:#FFFFFF;" d="M314.308,129.59l14.375,27.569V129.59h10.625l0.039,51.753h-10.43l-17.461-32.61l-0.039,32.645
		h-10.742V129.59H314.308z"/>
	<path style="fill:#FFFFFF;" d="M75.22,224.485c3.75,0.4,6.934,1.751,9.551,4.054c2.617,2.304,4.512,5.03,5.684,8.179
		c0.547,1.387,0.95,3.208,1.211,5.464v15.864c-0.391,5.359-2.259,9.684-5.605,12.974c-3.347,3.291-7.416,5.041-12.207,5.253H51.197
		l0.039-51.788H75.22z M62.408,266.084h9.141c1.849-0.258,3.424-0.875,4.727-1.851c1.302-0.975,2.409-2.685,3.32-5.129
		c0.495-1.504,0.638-6.98,0.43-16.428c-1.224-4.888-4.05-7.697-8.477-8.426h-9.141V266.084z"/>
	<path style="fill:#FFFFFF;" d="M114.76,224.555l-3.711,11.035H97.885l3.867-11.035H114.76z"/>
	<path style="fill:#FFFFFF;" d="M175.823,224.59l14.766,51.647h-11.211l-2.461-8.778h-15.82l-2.5,8.778h-11.328l14.609-51.647
		H175.823z M163.244,257.624h11.289l-5.469-20.166L163.244,257.624z"/>
	<path style="fill:#FFFFFF;" d="M209.385,224.59l0.039,42.517h22.148l-0.039,9.236h-32.969V224.59H209.385z"/>
	<path style="fill:#FFFFFF;" d="M250.878,224.59l0.039,42.517h22.148l-0.039,9.236h-32.969V224.59H250.878z"/>
	<path style="fill:#FFFFFF;" d="M293.073,224.731v34.972c0.494,4.465,3.281,6.957,8.359,7.474c5-0.494,7.813-2.949,8.438-7.368
		v-35.078h11.055v37.687c-0.964,4.607-3.373,8.191-7.227,10.752c-3.438,2.186-6.953,3.337-10.547,3.455
		c-0.573,0.046-1.133,0.07-1.68,0.07c-5.339,0-9.753-1.398-13.242-4.195c-3.984-3.478-6.094-7.027-6.328-10.646v-37.123H293.073z"/>
	<path style="fill:#FFFFFF;" d="M331.051,224.59h14.727l11.523,27.393l11.797-27.393h14.688v51.753h-10.898v-32.68l-14.258,32.68
		h-2.852l-14.141-32.398l0.117,32.398h-10.703V224.59z"/>
	<path style="fill:#FFFFFF;" d="M420.707,224.59l14.766,51.647h-11.211l-2.461-8.778h-15.82l-2.5,8.778h-11.328l14.609-51.647
		H420.707z M408.129,257.624h11.289l-5.469-20.166L408.129,257.624z"/>
	<path style="fill:#FFFFFF;" d="M462.552,223.956c7.474,0.705,12.786,5.182,15.938,13.432l-10.156,2.397
		c-1.823-3.619-3.906-5.793-6.25-6.522c-3.047-1.034-5.99,0.411-8.828,4.336c-1.771,2.633-2.865,6.475-3.281,11.528
		c-0.078,5.57,0.892,9.895,2.91,12.973c2.018,3.079,4.395,4.794,7.129,5.147c4.609-0.07,7.864-3.208,9.766-9.413h-9.258v-9.413
		h20.391v0.423c0.025,0.564,0.039,1.14,0.039,1.728c0,8.203-2.175,14.854-6.523,19.954c-2.917,3.62-7.188,5.641-12.813,6.063h-0.859
		c-12.5,0-19.558-8.014-21.172-24.043c-0.026-0.47-0.039-0.952-0.039-1.445c0-8.25,2.07-15.159,6.211-20.729
		c2.447-2.82,5.091-4.641,7.93-5.464c2.239-0.658,4.583-0.987,7.031-0.987C461.315,223.921,461.927,223.933,462.552,223.956z"/>
	<path style="fill:#FFFFFF;" d="M523.224,224.696v9.448h-23.672v11.281h17.344v9.554h-17.344v11.81h24.688v9.554h-35.703
		l0.039-51.647H523.224z"/>
	<path style="fill:#FFFFFF;" d="M246.303,319.485c3.75,0.399,6.934,1.751,9.551,4.054c2.617,2.304,4.512,5.03,5.684,8.18
		c0.547,1.387,0.95,3.208,1.211,5.464v15.864c-0.391,5.358-2.259,9.684-5.605,12.974c-3.347,3.291-7.416,5.041-12.207,5.253H222.28
		l0.039-51.788H246.303z M233.491,361.084h9.141c1.849-0.259,3.424-0.875,4.727-1.851c1.302-0.976,2.409-2.686,3.32-5.13
		c0.495-1.504,0.638-6.98,0.43-16.428c-1.224-4.889-4.05-7.697-8.477-8.426h-9.141V361.084z"/>
	<path style="fill:#FFFFFF;" d="M305.413,319.697v9.447h-23.672v11.281h17.344v9.554h-17.344v11.811h24.688v9.554h-35.703
		l0.039-51.646H305.413z"/>
	<path style="fill:#FFFFFF;" d="M314.249,360.802v-0.07c0-0.259,0.299-0.435,0.898-0.529c4.609-1.339,7.604-2.303,8.984-2.891
		c0.703,0.87,1.627,1.657,2.773,2.362c1.849,0.987,3.828,1.586,5.938,1.798c2.239,0.048,3.633,0,4.18-0.141
		c2.578-0.658,4.166-1.328,4.766-2.01c0.599-0.47,1.119-1.609,1.563-3.42c0.104-0.705,0-1.492-0.313-2.362
		c-0.391-0.587-0.808-1.08-1.25-1.48l-1.328-0.916l-1.484-0.6c-8.256-2.327-12.8-3.689-13.633-4.09
		c-3.828-1.386-6.68-3.678-8.555-6.874c-1.225-2.139-1.771-4.735-1.641-7.791c0.494-3.808,2.227-6.827,5.195-9.061
		c3.333-2.186,6.81-3.372,10.43-3.561h1.016c2.578,0,4.713,0.177,6.406,0.529c3.438,0.869,6.119,2.079,8.047,3.631
		c1.927,1.434,3.516,3.384,4.766,5.852l-0.117,0.388l-8.047,3.49l-0.391-0.176c-0.495-1.434-1.889-2.597-4.18-3.49
		c-2.578-0.869-5.6-0.893-9.063-0.07c-1.484,0.446-2.526,1.022-3.125,1.728c-0.209,0.188-0.482,0.775-0.82,1.763
		c-0.053,1.151,0,1.821,0.156,2.009c0.338,0.8,1.016,1.517,2.031,2.151l1.016,0.388c7.396,1.974,12.408,3.407,15.039,4.301
		c2.266,0.94,3.997,1.974,5.195,3.103l2.188,2.679c1.614,2.421,2.474,5.065,2.578,7.933c0.025,0.188,0.039,0.411,0.039,0.67
		c0,0.916-0.156,2.15-0.469,3.701c-0.651,2.186-1.433,3.796-2.344,4.83c-1.563,1.739-2.695,2.785-3.398,3.138
		c-3.828,2.374-7.773,3.654-11.836,3.843h-3.555c-2.656-0.235-4.896-0.705-6.719-1.41c-2.917-1.222-5.273-2.586-7.07-4.09
		C316.632,364.833,315.343,363.083,314.249,360.802z"/>
	<path style="fill:#FFFFFF;" d="M231.944,414.59v9.448h-23.672v11.281h17.344v9.589h-17.344l-0.039,21.364h-11.016l0.039-51.683
		H231.944z"/>
	<path style="fill:#FFFFFF;" d="M274.257,414.697v9.447h-23.672v11.281h17.344v9.554h-17.344v11.811h24.688v9.554H239.57
		l0.039-51.646H274.257z"/>
	<path style="fill:#FFFFFF;" d="M295.515,414.732v34.972c0.494,4.466,3.281,6.957,8.359,7.474c5-0.493,7.813-2.949,8.438-7.368
		v-35.077h11.055v37.687c-0.964,4.606-3.373,8.19-7.227,10.752c-3.438,2.186-6.953,3.337-10.547,3.455
		c-0.573,0.047-1.133,0.07-1.68,0.07c-5.339,0-9.753-1.398-13.242-4.195c-3.984-3.478-6.094-7.027-6.328-10.646v-37.122H295.515z"/>
	<path style="fill:#FFFFFF;" d="M345.484,414.625l10.586,15.936l10.586-15.864h12.617l-17.539,25.594l17.695,25.982h-12.578
		l-10.938-15.759l-10.352,15.724l-13.867,0.035l17.656-26.018l-17.617-25.63H345.484z"/>
</g>
</svg>
