<?xml version="1.0" encoding="utf-8"?>
<!-- Generator: Adobe Illustrator 13.0.0, SVG Export Plug-In  -->
<!DOCTYPE svg PUBLIC "-//W3C//DTD SVG 1.1//EN" "http://www.w3.org/Graphics/SVG/1.1/DTD/svg11.dtd" [
	<!ENTITY ns_flows "http://ns.adobe.com/Flows/1.0/">
]>
<svg version="1.1"
	 xmlns="http://www.w3.org/2000/svg" xmlns:xlink="http://www.w3.org/1999/xlink" xmlns:a="http://ns.adobe.com/AdobeSVGViewerExtensions/3.0/"
	 x="0px" y="0px" width="576px" height="576px" viewBox="-0.943 -0.943 576 576" enable-background="new -0.943 -0.943 576 576"
	 xml:space="preserve">
<defs>
</defs>
<path stroke="#000000" stroke-width="0.1764" stroke-linecap="round" stroke-linejoin="round" d="M0.088,533.031V41.084
	c0-10.873,4.319-21.3,12.007-28.988C19.784,4.408,30.211,0.088,41.084,0.088h491.947c10.872,0,21.3,4.319,28.988,12.007
	c7.688,7.688,12.007,18.116,12.007,28.988v491.947c0,10.873-4.319,21.3-12.007,28.988c-7.688,7.688-18.116,12.007-28.988,12.007
	H41.084c-10.873,0-21.3-4.318-28.988-12.007C4.407,554.331,0.088,543.904,0.088,533.031z"/>
<path fill="#FFFFFF" stroke="#000000" stroke-width="0.1764" stroke-linecap="round" stroke-linejoin="round" d="M97.654,557.627
	h435.377c6.523,0,12.779-2.591,17.393-7.204c4.613-4.612,7.204-10.869,7.204-17.393V97.654l-91.413,91.414
	c-18.738-34.26-46.907-62.429-81.167-81.167l91.413-91.414H41.084c-6.523,0-12.78,2.592-17.393,7.205s-7.205,10.869-7.205,17.393
	V476.46l91.414-91.412c18.738,34.26,46.906,62.429,81.166,81.167L97.654,557.627z"/>
<path stroke="#000000" stroke-width="0.1764" stroke-linecap="round" stroke-linejoin="round" d="M481.921,429.891
	c9.628,0,17.373,0.426,26.605,2.563c4.281,0.991,17.431,2.591,16.106,9.241c-4.479,22.511-8.96,45.021-13.439,67.53
	c-0.369,1.854-2.568,18.596-4.275,18.596c-6.838,0-4.95,1.908-4.95,8.45c0,3.463,2.027,10.084-2.147,10.084
	c-5.741,0-11.482,0-17.223,0c-5.246,0-3.234-3.56-3.234-8.45c0-2.853,0-5.704,0-8.556c0-2.396-1.236-1.528-3.579-1.528
	c-2.929,0-2.279-1.681-2.825-4.427c-4.486-22.537-8.972-45.074-13.457-67.611c-0.513-2.575-4.711-14.864-2.338-16.533
	c3.987-2.807,7.129-6.021,12.014-6.436C473.476,432.451,477.969,431.707,481.921,429.891"/>
<polygon fill="#FFFFFF" stroke="#000000" stroke-width="0.1764" stroke-linecap="round" stroke-linejoin="round" points="
	484.543,440.333 496.789,440.333 507.93,441.972 518.1,443.396 515.766,464.93 496.422,463.263 484.911,463.263 465.566,464.93 
	463.232,443.396 473.403,441.972 "/>
<circle fill="#A1A1A1" stroke="#000000" stroke-width="0.1764" stroke-linecap="round" stroke-linejoin="round" cx="287.057" cy="287.057" r="184.48"/>
<path stroke="#000000" stroke-width="0.1764" stroke-linecap="round" stroke-linejoin="round" d="M215.032,205.26l163.121,141.631
	c29.959-45.612,21.565-106.352-19.642-142.13C317.305,168.983,255.989,169.197,215.032,205.26z"/>
<path stroke="#000000" stroke-width="0.1764" stroke-linecap="round" stroke-linejoin="round" d="M197.38,225.118l162.284,143.222
	c-41.17,36.776-103.335,36.963-144.725,0.435C173.55,332.246,166.007,270.54,197.38,225.118z"/>
</svg>
