<?xml version="1.0" encoding="UTF-8" standalone="no"?>
<svg
   width="389.96161pt"
   height="501pt"
   viewBox="0 0 389.96161 501"
   version="1.1"
   id="svg455"
   sodipodi:docname="B30.svg"
   inkscape:version="1.2.2 (732a01da63, 2022-12-09)"
   xmlns:inkscape="http://www.inkscape.org/namespaces/inkscape"
   xmlns:sodipodi="http://sodipodi.sourceforge.net/DTD/sodipodi-0.dtd"
   xmlns="http://www.w3.org/2000/svg"
   xmlns:svg="http://www.w3.org/2000/svg">
  <defs
     id="defs459" />
  <sodipodi:namedview
     id="namedview457"
     pagecolor="#ffffff"
     bordercolor="#000000"
     borderopacity="0.25"
     inkscape:showpageshadow="2"
     inkscape:pageopacity="0.0"
     inkscape:pagecheckerboard="0"
     inkscape:deskcolor="#d1d1d1"
     inkscape:document-units="pt"
     showgrid="false"
     inkscape:zoom="0.83441368"
     inkscape:cx="56.9262"
     inkscape:cy="299.01236"
     inkscape:window-width="1920"
     inkscape:window-height="991"
     inkscape:window-x="-9"
     inkscape:window-y="-9"
     inkscape:window-maximized="1"
     inkscape:current-layer="rect1240" />
  <g
     id="rect1240"
     style="opacity:1"
     transform="matrix(0.9798293,0,0,0.9798293,0.25887011,0.51530981)">
    <path
       style="color:#000000;fill:#000000;fill-opacity:1;fill-rule:evenodd;stroke:none;stroke-width:1.02059;stroke-linecap:round;stroke-linejoin:round;stroke-dasharray:none;stroke-opacity:1;paint-order:stroke fill markers"
       d="m 26.65625,-0.015625 c -14.433468,0 -26.41015625,11.976688 -26.41015625,26.410156 V 483.86719 c 0,14.43347 11.97668825,26.41015 26.41015625,26.41015 h 344.14844 c 14.43347,0 26.41015,-11.97668 26.41015,-26.41015 V 26.394531 c 0,-14.433468 -11.97668,-26.410156 -26.41015,-26.410156 z"
       id="path1296"
       sodipodi:nodetypes="sssssssss" />
    <path
       id="path1298"
       style="color:#000000;fill:#ffffff;fill-rule:evenodd;stroke-width:22.8189;stroke-linecap:round;stroke-linejoin:round;-inkscape-stroke:none;paint-order:stroke fill markers"
       d="M 26.656246 11.395203 C 18.346264 11.395203 11.656922 18.084544 11.656922 26.394528 L 11.656922 441.56769 L 85.257214 368.28583 A 126.90877 126.90877 0 0 0 141.14775 424.73101 L 66.805938 498.86651 L 370.805 498.86651 C 379.11498 498.86651 385.80432 492.17717 385.80432 483.86719 L 385.80432 180.74868 L 311.94091 254.40877 A 126.90877 126.90877 0 0 0 255.865 198.41209 L 385.80432 69.033392 L 385.80432 26.394528 C 385.80432 18.084544 379.11498 11.395203 370.805 11.395203 L 26.656246 11.395203 z " />
    <g
       aria-label="FIN DE ZONE"
       id="text4703"
       style="font-weight:bold;font-size:38.272px;line-height:1.25;font-family:'Caracteres L1';-inkscape-font-specification:'Caracteres L1 Bold';opacity:1;fill:#000000;fill-rule:evenodd;stroke-width:1.02058;stroke-linecap:round;stroke-linejoin:round;paint-order:stroke fill markers"
       transform="matrix(1.6489306,0,0,1.6489306,91.425091,152.50916)">
      <path
         id="path4755"
         style="fill:#000000;stroke-width:1.02059"
         d="m 108.01784,-72.365594 c -0.98422,0 -1.96875,0.156375 -2.95296,0.46783 -1.42022,0.436042 -2.78448,1.43851 -4.0926,3.008257 -1.955952,2.877866 -2.933915,6.515537 -2.933915,10.913317 0,0.274081 0.0066,0.548246 0.01904,0.822329 0.02491,3.251615 0.996296,6.422889 2.914875,9.512546 1.85629,2.317244 4.15513,3.475181 6.89596,3.475181 0.26162,0 0.5292,-0.01226 0.80329,-0.03717 2.64116,-0.236708 4.68468,-1.33904 6.12984,-3.30745 2.03071,-2.927699 3.04634,-6.478674 3.04634,-10.652203 v -0.336366 c 0,-3.338824 -0.6171,-6.154002 -1.85047,-8.446329 -1.44516,-3.102116 -3.67523,-4.883732 -6.69015,-5.344687 -0.42358,-0.04983 -0.85324,-0.07525 -1.28925,-0.07525 z m -142.654654,0.374446 -0.01813,27.395263 h 5.269436 l 0.01904,-11.324029 h 8.296732 v -5.083573 h -8.296732 v -5.97934 h 11.324028 v -5.008321 z m 36.7573061,0 v 27.451475 h 5.1388785 l 0.018133,-17.304276 8.3538505,17.286143 h 4.989282 l -0.01904,-27.433342 H 15.51893 v 14.613345 L 8.6420081,-71.991148 Z m 121.1843279,0 v 27.451475 h 5.13888 l 0.019,-17.304276 8.35294,17.286143 h 4.99019 l -0.019,-27.433342 h -5.08267 v 14.613345 l -6.87692,-14.613345 z m -134.254559,0.03717 v 27.39617 h 5.1950903 v -27.39617 z m 158.695059,0.01904 -0.019,27.37713 h 17.08033 v -5.064534 h -11.80999 v -6.260401 h 8.29673 v -5.064533 h -8.29673 v -5.980248 h 11.32403 v -5.007414 z m -74.834692,0.01813 v 5.288475 H 83.823945 L 72.33128,-50.052091 v 5.494285 h 18.519183 v -5.139785 H 78.741278 l 11.772819,-16.930737 0.01813,-5.288475 z m 35.219632,4.335588 c 1.13371,0.161958 2.16726,0.941103 3.10164,2.336431 1.14619,2.005786 1.7011,4.577893 1.6637,7.717384 -0.18687,2.466744 -0.64193,4.335962 -1.36451,5.606709 -0.99664,1.906119 -2.21769,2.896334 -3.66285,2.971084 -1.18355,-0.1495 -2.23594,-0.922063 -3.15786,-2.317391 -1.15861,-1.993328 -1.7258,-4.559763 -1.70087,-7.699251 0.21179,-2.466744 0.67252,-4.360474 1.38264,-5.681054 0.99667,-1.881202 2.24311,-2.859162 3.73811,-2.933912 z m -73.222672,9.315804 -0.01,13.688565 h 5.404526 c 1.143048,-0.05591 2.112457,-0.518367 2.907619,-1.388077 0.801375,-0.869709 1.248657,-2.013463 1.341838,-3.429848 v -4.193245 c -0.06212,-0.596372 -0.157858,-1.077769 -0.288313,-1.44429 -0.279551,-0.832435 -0.733446,-1.552651 -1.360878,-2.161447 -0.621224,-0.608798 -1.379313,-0.966051 -2.273873,-1.071658 z m 14.392124,0.05621 -0.0091,13.651393 h 8.517048 v -2.52592 H 51.91811 v -3.121588 h 4.137033 v -2.525013 H 51.91811 v -2.981964 h 5.646601 v -2.496908 z m -11.727487,2.525014 h 2.180488 c 1.056076,0.192578 1.72985,0.934585 2.021824,2.226726 0.0497,2.49731 0.01558,3.945259 -0.102451,4.342842 -0.217428,0.646069 -0.480892,1.09906 -0.791504,1.359971 -0.310609,0.254701 -0.686804,0.416722 -1.127869,0.485057 h -2.180488 z" />
    </g>
  </g>
  <g
     id="g4416">
    <path
       fill-rule="evenodd"
       fill="#ff0000"
       fill-opacity="1"
       d="m 194.93871,186.85511 h 0.0306 c 20.91323,0 41.43606,5.49623 59.54759,15.94136 18.10771,10.47193 33.13431,25.49853 43.60623,43.60623 10.44131,18.10771 15.94137,38.63437 15.94137,59.5476 0,20.91706 -5.50006,41.43989 -15.94137,59.54759 -10.47192,18.11154 -25.49852,33.13814 -43.60623,43.61006 -18.11153,10.44131 -38.63436,15.94137 -59.54759,15.94137 -20.91706,0 -41.43989,-5.50006 -59.55142,-15.94137 -18.10771,-10.47192 -33.13431,-25.49852 -43.60624,-43.61006 -10.441306,-18.1077 -15.941363,-38.63053 -15.941363,-59.54759 0,-20.91323 5.500057,-41.43989 15.941363,-59.5476 10.47193,-18.1077 25.49853,-33.1343 43.60624,-43.60623 18.11153,-10.44513 38.63436,-15.94136 59.5208,-15.94136 z m 0,0"
       id="path449"
       style="stroke-width:0.979829;fill:#c0c0c0;fill-opacity:1" />
    <path
       fill-rule="evenodd"
       fill="#fefefe"
       fill-opacity="1"
       d="m 194.8545,222.12896 h 0.0306 c 14.72041,0 29.16141,3.85808 41.91067,11.21828 12.74927,7.36021 23.33219,17.94313 30.69239,30.69239 7.3602,12.74926 11.21828,27.19026 11.21828,41.91067 0,14.7204 -3.85808,29.16523 -11.21828,41.91067 -7.3602,12.74926 -17.94312,23.33218 -30.69239,30.69238 -12.74926,7.3602 -27.19026,11.22211 -41.91067,11.22211 -14.7204,0 -29.16523,-3.86191 -41.91449,-11.22211 -12.74544,-7.3602 -23.32836,-17.94312 -30.68856,-30.69238 -7.3602,-12.74544 -11.22211,-27.19027 -11.22211,-41.91067 0,-14.72041 3.86191,-29.16141 11.22211,-41.91067 7.3602,-12.74926 17.94312,-23.33218 30.68856,-30.69239 12.74926,-7.32958 27.19409,-11.21828 41.88387,-11.21828 z m 0,0"
       id="path451"
       style="stroke-width:0.979829" />
    <path
       fill-rule="evenodd"
       fill="#000000"
       fill-opacity="1"
       d="m 230.32356,259.51175 c -22.804,0 -33.99548,15.55479 -33.99548,46.88253 0,31.30478 10.33031,47.10836 34.16389,47.10836 23.82975,0 33.82707,-17.72113 33.82707,-46.96674 0,-29.30302 -11.19148,-47.02415 -33.99548,-47.02415 z m 0,0 z m 0,17.85892 c -12.44307,0 -15.63517,8.44337 -15.77678,29.10782 -0.13779,20.61086 3.33371,29.10782 15.77678,29.10782 12.44307,0 15.91457,-10.8585 15.91457,-29.10782 0,-18.2455 -3.4715,-29.10782 -15.91457,-29.10782 z m 0,0 z m -77.37972,18.66651 v 17.52593 c 5.97083,0.0804 15.24859,1.19417 15.3328,12.41245 0,2.19696 -2.55675,9.16676 -13.52624,9.49975 -4.80729,0.0268 -8.99836,-1.80656 -11.9455,-8.02618 l -17.16232,4.63888 c 4.83025,15.1376 16.69154,21.21943 28.52222,21.30363 21.77823,0.0536 31.46936,-14.33383 31.97075,-27.94427 0.13779,-7.276 -2.52995,-15.24477 -8.22138,-20.85582 3.55571,-4.44368 6.88943,-10.11214 6.91622,-17.36135 -0.0268,-13.35783 -8.0568,-26.63528 -27.86007,-28.02465 -13.77502,-0.60857 -26.10709,6.80522 -29.747,19.27508 l 17.08194,5.08286 c 2.75195,-5.05224 6.44544,-6.58322 11.6661,-6.63681 8.24817,0.0842 10.86232,6.69423 10.88911,7.94581 -0.0268,2.19313 1.13676,11.16469 -13.91663,11.16469 z m 0,0"
       id="path453"
       style="stroke-width:0.979829" />
  </g>
</svg>
