<?xml version="1.0" encoding="UTF-8" standalone="no"?>
<!-- Generator: Adobe Illustrator 13.0.0, SVG Export Plug-In . SVG Version: 6.00 Build 14948)  -->

<svg
   version="1.1"
   id="Calque_1"
   x="0px"
   y="0px"
   width="575.09998"
   height="575.09998"
   viewBox="-0.322 -0.549 575.09998 575.09998"
   enable-background="new -0.322 -0.549 576 576"
   xml:space="preserve"
   inkscape:version="1.2.2 (732a01da63, 2022-12-09)"
   sodipodi:docname="France_road_sign_C208.svg"
   xmlns:inkscape="http://www.inkscape.org/namespaces/inkscape"
   xmlns:sodipodi="http://sodipodi.sourceforge.net/DTD/sodipodi-0.dtd"
   xmlns="http://www.w3.org/2000/svg"
   xmlns:svg="http://www.w3.org/2000/svg"
   xmlns:rdf="http://www.w3.org/1999/02/22-rdf-syntax-ns#"
   xmlns:cc="http://creativecommons.org/ns#"
   xmlns:dc="http://purl.org/dc/elements/1.1/"><metadata
     id="metadata45"><rdf:RDF><cc:Work
         rdf:about=""><dc:format>image/svg+xml</dc:format><dc:type
           rdf:resource="http://purl.org/dc/dcmitype/StillImage" /></cc:Work></rdf:RDF></metadata><defs
     id="defs43"><inkscape:perspective
       id="perspective4308"
       inkscape:persp3d-origin="195 : 65.099976 : 1"
       inkscape:vp_z="390 : 98.099976 : 1"
       inkscape:vp_y="0 : 1000 : 0"
       inkscape:vp_x="0 : 98.099976 : 1"
       sodipodi:type="inkscape:persp3d" /></defs><sodipodi:namedview
     pagecolor="#ffffff"
     bordercolor="#666666"
     borderopacity="1"
     objecttolerance="10"
     gridtolerance="10"
     guidetolerance="10"
     inkscape:pageopacity="0"
     inkscape:pageshadow="2"
     inkscape:window-width="1920"
     inkscape:window-height="991"
     id="namedview41"
     showgrid="false"
     inkscape:zoom="0.47898798"
     inkscape:cx="-78.290065"
     inkscape:cy="97.07968"
     inkscape:window-x="-9"
     inkscape:window-y="-9"
     inkscape:window-maximized="1"
     inkscape:current-layer="Calque_1"
     inkscape:pagecheckerboard="false"
     inkscape:snap-intersection-paths="false"
     inkscape:snap-smooth-nodes="false"
     inkscape:object-paths="false"
     inkscape:snap-bbox="false"
     inkscape:snap-bbox-edge-midpoints="false"
     inkscape:bbox-nodes="false"
     showguides="true"
     inkscape:guide-bbox="true"
     inkscape:snap-bbox-midpoints="false"
     inkscape:showpageshadow="2"
     inkscape:deskcolor="#d1d1d1" /><rect
     style="display:inline;fill:#ffffff;fill-opacity:1;stroke:#000000;stroke-width:2;stroke-linecap:round;stroke-linejoin:round;stroke-miterlimit:4;stroke-dasharray:none;stroke-opacity:1"
     id="rect3174"
     width="573"
     height="573"
     x="0.72799993"
     y="0.50099993"
     ry="40.973492"
     inkscape:label="rect3"
     rx="40.973492" /><rect
     style="fill:#0056a4;fill-opacity:1;stroke:none;stroke-width:1.99651;stroke-linecap:round;stroke-linejoin:round;stroke-miterlimit:4;stroke-dasharray:none;stroke-opacity:1"
     id="rect4516"
     width="518.10187"
     height="518.10187"
     x="28.177025"
     y="27.950026"
     ry="13.524467"
     inkscape:label="rect5"
     rx="13.524467" /><path
     fill-rule="evenodd"
     fill="#fefefe"
     fill-opacity="1"
     d="m 223.46685,136.16362 v 20.13934 c 0,1.46531 -1.37876,3.93441 -2.80369,3.93441 h -9.54758 c -1.45954,0 -3.1383,-2.05374 -3.05175,-3.43251 v -20.59508 c -3.13831,-0.0462 -6.242,-3.10369 -6.32276,-6.07469 v -22.26807 c 0.0403,-2.93062 3.97479,-6.15544 7.11886,-6.19583 l 5.31318,-22.481523 c 1.25764,-5.399719 5.86122,-10.089859 10.46484,-10.216775 h 60.82761 c 5.65356,0.04615 9.1726,4.776674 10.59176,10.216775 l 5.40548,22.481523 c 3.1383,0.0404 7.03232,3.26521 7.07272,6.19583 l 0.0403,22.26807 c -0.0808,2.971 -3.17868,6.02853 -6.32275,6.07469 v 20.59508 c 0.0462,1.3384 -1.63261,3.43251 -3.05177,3.43251 h -9.54757 c -1.46531,0 -3.22484,-2.4691 -3.22484,-3.81327 l 0.0865,-20.26048 z m 0,0 z m -4.18247,-34.41167 c -1.25762,0 -2.18065,-2.1345 -1.88644,-3.599812 l 4.52285,-18.420192 c 0.29421,-1.419155 2.17487,-3.178681 3.38636,-3.178681 h 59.74305 c 1.21146,0 3.09792,1.799907 3.39213,3.178681 l 4.269,18.379819 c 0.29422,1.465301 -0.54228,3.599815 -1.84605,3.599815 z m 0,0 z m -3.55942,11.26096 c 3.30559,0 5.98814,2.72293 5.98814,5.98815 0,3.26522 -2.68255,5.94776 -5.98814,5.94776 -3.26522,0 -5.94778,-2.68254 -5.94778,-5.94776 0,-3.26522 2.68256,-5.98815 5.94778,-5.98815 z m 0,0 z m 78.36515,0 c 3.31137,0 5.98814,2.72293 5.98814,5.98815 0,3.26522 -2.67677,5.94776 -5.98814,5.94776 -3.26522,0 -5.94199,-2.68254 -5.94199,-5.94776 0,-3.26522 2.67677,-5.98815 5.94199,-5.98815 z m 0,0"
     id="path5348"
     style="stroke-width:1.47684" /><path
     fill-rule="evenodd"
     fill="#ffffff"
     fill-opacity="1"
     d="m 69.453729,498.19863 28.256212,13.06086 c 12.183979,5.94776 21.096979,-13.26854 7.580379,-19.75859 l 49.27242,-99.59482 c 2.1749,-4.22862 8.2842,-2.80371 10.21102,1.25762 l 55.13367,117.34582 26.83706,-11.6417 c 12.47242,-5.56702 4.7709,-25.24484 -8.66494,-19.50475 l -57.39508,-121.19369 6.19584,-41.78437 c 0.20767,-1.3384 2.89023,-1.71336 3.4325,0.8365 l 10.75906,22.19307 c 0.62882,1.58646 1.88068,2.71718 3.43252,3.3056 l 45.67262,22.56229 c 14.35887,7.24578 21.76617,-12.01668 8.75146,-18.79518 L 217.10373,325.51146 198.89698,287.12499 C 194.28761,276.614 190.6878,275.48907 183.9093,272.47192 l 1.54607,-13.81659 c 22.8565,-8.07651 24.0276,-42.36127 -3.43251,-47.42637 -16.23953,-2.76333 -28.71773,9.7091 -29.34655,23.69299 -0.37498,8.20341 4.22863,17.32986 12.55897,22.98342 l -1.92683,11.09364 c -7.5746,1.04419 -13.18777,3.09792 -21.13736,10.83983 l -34.62512,36.33849 c -1.79991,2.17489 -3.51327,4.89782 -4.22286,7.53422 l -15.662635,52.41651 c -5.68817,12.97431 13.401225,19.54513 18.085585,7.24 l 18.29329,-55.22019 18.67403,-18.07983 c 1.71914,-2.64217 4.6036,-2.80948 4.18823,0.20767 l -7.70151,46.5495 z m 0,0"
     id="path5350"
     style="stroke-width:1.47684" /><path
     fill-rule="evenodd"
     fill="#ffffff"
     fill-opacity="1"
     d="m 272.9066,80.401143 c 0.0462,0 0.0462,0 0.0865,0 1.54607,0 3.09792,0.421131 4.43632,1.217244 1.38454,0.74996 2.51524,1.88067 3.26519,3.265214 0.79613,1.338392 1.21725,2.890233 1.21725,4.436314 0,1.592225 -0.42112,3.138294 -1.21725,4.476683 -0.74995,1.384543 -1.88065,2.515261 -3.26519,3.270989 -1.3384,0.790341 -2.89025,1.211475 -4.43632,1.211475 -1.59223,0 -3.1383,-0.421134 -4.48247,-1.211475 -1.37876,-0.755728 -2.50948,-1.886446 -3.2652,-3.270989 -0.79612,-1.338389 -1.21148,-2.884458 -1.21148,-4.476683 0,-1.546081 0.41536,-3.097922 1.21148,-4.436314 0.75572,-1.384544 1.88644,-2.515254 3.2652,-3.265214 1.34417,-0.796113 2.84986,-1.217244 4.39594,-1.217244 z m 0,0"
     id="path5352"
     style="stroke-width:1.47684" /><g
     id="g5709"
     transform="translate(320.47648,462.11838)"><g
       id="g6131"
       transform="matrix(0.36663158,0,0,0.36663158,4.1548953,-135.62026)"><circle
         fill="#ffffff"
         stroke="#000000"
         stroke-width="0.9931"
         stroke-linecap="round"
         stroke-linejoin="round"
         cx="291.56"
         cy="291.561"
         r="285"
         id="circle2"
         style="stroke:none" /><circle
         fill="#ff0000"
         stroke="#ff0000"
         stroke-width="0.1752"
         stroke-linecap="round"
         stroke-linejoin="round"
         cx="291.56"
         cy="291.561"
         r="272.10101"
         id="circle4"
         style="fill:#b3b3b3;fill-opacity:1" /><circle
         fill="#ffffff"
         stroke="#ff0000"
         stroke-width="0.1752"
         stroke-linecap="round"
         stroke-linejoin="round"
         cx="291.56"
         cy="291.56201"
         r="191.118"
         id="circle6" /><path
         id="rect5362"
         style="fill:#000000;stroke-width:6.36384;stroke-linecap:round;stroke-linejoin:round;stroke-dashoffset:6.67087;paint-order:stroke fill markers"
         d="m 378.47831,181.67286 c -63.15824,0 -78.34527,52.46518 -78.34527,114.66749 0,57.0168 15.18703,105.10879 78.34527,105.10879 63.15823,0 78.34527,-48.09199 78.34527,-105.10879 0,-62.20231 -15.18704,-114.66749 -78.34527,-114.66749 z m 0,42.26484 c 32.04978,0 35.40948,28.03757 35.40948,67.69736 0,39.65978 -3.3597,67.6952 -35.40948,67.6952 -32.04978,0 -35.40949,-28.03542 -35.40949,-67.6952 0,-39.65979 3.35971,-67.69736 35.40949,-67.69736 z" /><path
         d="m 291.14912,245.8234 c 0,22.24827 -7.86214,36.45589 -21.21162,51.1141 l -61.42532,61.13072 h 85.8776 v 42.12863 H 149.29642 l 0.14736,-42.57055 90.59128,-91.4751 c 9.53558,-9.62861 10.08626,-22.81635 4.03742,-31.55915 -4.88206,-7.05637 -14.89105,-10.78149 -21.52545,-10.78149 -13.22378,0 -28.61469,4.26422 -32.74503,25.84276 l -39.91631,0.14735 c 0,-46.36623 38.00908,-66.87553 74.82988,-66.87553 30.81558,0 66.11796,21.81102 66.43355,62.89826 z"
         style="font-size:163.782px;line-height:1.25;font-family:'Caracteres L1';-inkscape-font-specification:'Caracteres L1';fill:#000000;stroke-width:16.1612"
         id="path3455"
         sodipodi:nodetypes="cccccccssscccc" /></g></g><path
     fill-rule="evenodd"
     fill="#fefefe"
     fill-opacity="1"
     d="m 449.44741,226.13009 c 19.3836,0 35.20777,15.82418 35.20777,35.24817 0,19.38361 -15.82417,35.20778 -35.20777,35.20778 -19.42399,0 -35.24817,-15.82417 -35.24817,-35.20778 0,-19.42399 15.82418,-35.24817 35.24817,-35.24817 z m 0,0 z m -115.83437,0 c 19.42401,0 35.24817,15.82418 35.24817,35.24817 0,19.38361 -15.82416,35.20778 -35.24817,35.20778 -19.42975,0 -35.20777,-15.82417 -35.20777,-35.20778 0,-19.42399 15.77802,-35.24817 35.20777,-35.24817 z m 0,0 z m 54.29142,-74.01537 c 0.42113,-1.21724 0.6288,-2.59602 0.6288,-3.93441 0,-7.11886 -5.77469,-12.89357 -12.89354,-12.89357 -7.1131,0 -12.89357,5.77471 -12.89357,12.89357 0,7.11886 5.78047,12.89355 12.89357,12.89355 0.62881,0 1.25762,-0.0403 1.84606,-0.12685 0.74996,-0.0807 1.50568,-0.1673 1.92105,0 0.29422,0.16729 0.38075,0.38076 0.46151,0.6692 l 1.1307,3.85363 c 0.54229,1.25765 0.12687,2.21527 -0.54228,2.84409 l -37.84418,37.1346 c -0.58842,0.58843 -1.09033,1.29802 -1.46531,1.96722 -0.3346,0.66919 -0.5019,1.42493 -0.5019,2.22103 0,2.76332 2.26143,5.02475 5.06513,5.02475 1.37877,0 2.67678,-0.54806 3.55944,-1.42494 l 29.30039,-28.59081 c 0.6692,-0.75573 1.79991,-0.42113 2.26141,0.37497 l 19.34324,29.72154 -32.77908,4.14208 c -5.39972,0.67496 -11.26095,4.69014 -8.99953,8.04189 l 13.52237,19.424 c 1.12495,1.71337 3.13831,2.84408 5.31319,2.84408 3.51904,0.0403 6.36313,-3.9344 6.36313,-6.36314 0,-2.42872 -0.41536,-2.54986 -1.09032,-3.59981 l -3.89404,-5.6074 c -0.62303,-0.8365 0.38076,-1.9672 1.17688,-2.09412 l 12.93393,-0.96341 c 1.13072,-0.16729 1.8403,1.09033 1.46532,1.92681 l -7.07272,13.93775 c -1.71914,3.35175 -2.01334,6.36314 -1.38454,10.84558 l 2.63639,21.7258 c 0.46152,3.39214 3.39215,6.02853 6.91119,6.02853 3.8075,0 6.9054,-3.09791 6.9054,-6.90541 l -0.0403,-0.25383 -2.84986,-21.64502 c -0.41536,-2.97101 0,-4.34979 1.42493,-6.1497 L 423.49305,223.113 c 2.67678,-3.3056 5.10551,-10.92636 1.88067,-15.77802 l -28.12931,-43.66504 c -2.9306,-4.98436 -4.48244,-6.02853 -6.40927,-5.60739 -0.87689,0.20767 -1.29225,-0.88265 -2.1749,-2.09413 -0.75573,-1.00955 -1.25762,-2.26141 -0.75573,-3.85365 z m 0,0"
     id="path5336"
     style="stroke-width:1.47684" /><path
     id="rect3411"
     style="fill:#d40000;fill-opacity:1;fill-rule:evenodd;stroke-width:10.0477;stroke-linecap:round;stroke-linejoin:round;stroke-dasharray:none"
     d="M -374.64375 -335.11506 L -374.64375 334.79404 L -396.47843 356.62872 C -401.77646 361.92675 -410.30681 361.92813 -415.60484 356.6301 L -437.43814 334.7968 L -437.43814 -335.11782 L -415.60484 -356.95113 C -410.30681 -362.24916 -401.77646 -362.24778 -396.47843 -356.94975 L -374.64375 -335.11506 z "
     transform="matrix(-0.70710678,-0.70710678,-0.70710678,0.70710678,0,0)" /></svg>
