<?xml version="1.0" encoding="UTF-8" standalone="no"?>
<!-- Generator: Adobe Illustrator 13.0.0, SVG Export Plug-In  -->

<svg
   xmlns:dc="http://purl.org/dc/elements/1.1/"
   xmlns:cc="http://creativecommons.org/ns#"
   xmlns:rdf="http://www.w3.org/1999/02/22-rdf-syntax-ns#"
   xmlns:svg="http://www.w3.org/2000/svg"
   xmlns="http://www.w3.org/2000/svg"
   xmlns:sodipodi="http://sodipodi.sourceforge.net/DTD/sodipodi-0.dtd"
   xmlns:inkscape="http://www.inkscape.org/namespaces/inkscape"
   version="1.1"
   x="0px"
   y="0px"
   width="575"
   height="575"
   viewBox="-0.256 -0.698 575 575"
   enable-background="new -0.256 -0.698 577 528"
   xml:space="preserve"
   id="svg2"
   inkscape:version="0.91 r13725"
   sodipodi:docname="France_road_sign_B55.svg"><metadata
     id="metadata267"><rdf:RDF><cc:Work
         rdf:about=""><dc:format>image/svg+xml</dc:format><dc:type
           rdf:resource="http://purl.org/dc/dcmitype/StillImage" /><dc:title /></cc:Work></rdf:RDF></metadata><sodipodi:namedview
     pagecolor="#ffffff"
     bordercolor="#666666"
     borderopacity="1"
     objecttolerance="10"
     gridtolerance="10"
     guidetolerance="10"
     inkscape:pageopacity="0"
     inkscape:pageshadow="2"
     inkscape:window-width="1440"
     inkscape:window-height="788"
     id="namedview265"
     showgrid="false"
     inkscape:zoom="0.64892483"
     inkscape:cx="195.06174"
     inkscape:cy="264"
     inkscape:window-x="0"
     inkscape:window-y="1"
     inkscape:window-maximized="1"
     inkscape:current-layer="svg2" /><defs
     id="defs4" /><path
     enable-background="new    "
     d="m 0.78772488,532.33588 0,-491.06775 c 0,-10.852398 4.31112552,-21.260617 11.98810312,-28.937182 7.672985,-7.6722 18.080974,-11.985221 28.93415,-11.985221 l 491.068042,0 c 10.85318,0 21.26216,4.31193 28.93415,11.985221 7.67398,7.675474 11.9881,18.083693 11.9881,28.937182 l 0,491.06775 c 0,10.85241 -4.31112,21.26171 -11.9881,28.93719 -7.67398,7.67329 -18.08097,11.98521 -28.93415,11.98521 l -491.068042,0 c -10.853176,0 -21.262163,-4.31083 -28.93415,-11.98521 C 5.0998486,553.5965 0.78772488,543.18829 0.78772488,532.33588 Z"
     id="path239"
     inkscape:connector-curvature="0"
     style="opacity:0.98999999;fill:#ffffff;stroke:#010101;stroke-width:2.08744979;stroke-linecap:round;stroke-linejoin:round" /><path
     d="m 30.662158,517.52515 0,-461.445199 c 0,-6.118116 2.457511,-11.987404 6.83252,-16.314611 4.374011,-4.327209 10.308172,-6.757649 16.492876,-6.757649 l 466.514896,0 c 6.1847,0 12.11786,2.431531 16.49187,6.757649 4.37601,4.326116 6.83252,10.195404 6.83252,16.314611 l 0,461.444109 c 0,6.11812 -2.45751,11.98632 -6.83252,16.31462 -4.37501,4.3272 -10.30617,6.75764 -16.49187,6.75764 l -466.515895,0 c -6.184703,0 -12.118864,-2.43262 -16.492875,-6.75764 -4.374011,-4.32612 -6.831522,-10.19432 -6.831522,-16.31353 z"
     id="path241"
     inkscape:connector-curvature="0"
     style="fill:#3953a4" /><g
     transform="matrix(0.75187051,0,0,0.75187051,141.52414,329.67472)"
     id="g4232"
     style="fill:#ffffff"><path
       inkscape:connector-curvature="0"
       style="opacity:1;fill:#ffffff;fill-opacity:1;fill-rule:evenodd;stroke:none;stroke-width:0.30000001;stroke-linecap:round;stroke-linejoin:round;stroke-miterlimit:4;stroke-dasharray:none;stroke-dashoffset:0;stroke-opacity:1"
       d="m 90.289062,-329.93359 c -22.116196,0 -40.044915,17.92872 -40.044921,40.04492 0.01758,15.68493 9.190678,29.91559 23.46875,36.4082 l 0,20.12695 C 17.227993,-225.29219 0.36185929,-180.48179 0.140625,-149.49805 0.05753935,-148.80317 0,-148.10056 0,-147.38086 l 0,99.740235 c 0,9.133933 6.8971337,16.488281 15.464844,16.488281 8.567709,0 15.464844,-7.354348 15.464844,-16.488281 l 0,-33.908203 0,-44.568362 0,-33.21484 c 0,-4.24914 2.969979,-7.66992 6.658203,-7.66992 3.688223,0 6.658203,3.42078 6.658203,7.66992 l 0,42.49609 0,35.287112 0,22.210937 0,18.640625 0,186.431646 c 0,10.19812 8.210071,18.4082 18.408203,18.4082 l 0.453125,0 c 10.198132,0 18.408203,-8.21007 18.408203,-18.4082 l 0,-181.556646 0,-5.591796 c 0,-4.779269 3.912443,-8.626954 8.773437,-8.626954 4.860996,0 8.775391,3.847684 8.775391,8.626954 l 0,7.886718 0.06055,0.0078 0,217.710944 c 0,10.19813 8.210067,18.4082 18.408197,18.4082 l 0.45313,0 c 10.19813,0 18.4082,-8.21007 18.4082,-18.4082 l 0,-212.835944 0,-47.94336 0,-82.345696 c -0.17012,-6.52347 3.0812,-9.09654 7.39844,-6.78711 l 29.49414,98.832025 c 2.61188,8.75253 10.90953,13.948925 18.60547,11.652344 l 2.51367,-0.75 c 7.69593,-2.296581 11.78962,-11.190829 9.17773,-19.94336 L 171.06055,-184.91797 c -0.51754,-1.73428 -1.26456,-3.32357 -2.17969,-4.74805 -12.57188,-24.61066 -39.30912,-37.82503 -60.26953,-41.64062 l -1.74414,-22.18359 c 14.27409,-6.49172 23.44574,-20.7175 23.46679,-36.39844 -1e-5,-22.1162 -17.92872,-40.04491 -40.044918,-40.04492 z"
       transform="translate(-0.082,-0.083)"
       id="rect4203" /><path
       inkscape:connector-curvature="0"
       style="opacity:1;fill:#ffffff;fill-opacity:1;fill-rule:evenodd;stroke:none;stroke-width:0.30000004;stroke-linecap:round;stroke-linejoin:round;stroke-miterlimit:4;stroke-dasharray:none;stroke-dashoffset:0;stroke-opacity:1"
       d="m 307.10742,-104.12695 a 25.351379,25.351379 0 0 0 -25.35156,25.351559 25.351379,25.351379 0 0 0 14.64062,22.945313 l 0,10.166016 -1.26367,3.833984 c -12.62456,1.770645 -21.82091,6.84176 -28.26953,13.90625 l 0.0273,0.130859 c -0.7563,0.74712 -1.42791,1.618105 -1.9746,2.613281 l -26.66993,48.548829 c -2.72892,4.967643 -1.34414,10.934561 3.10547,13.378906 l 1.86328,1.023437 c 4.44961,2.444345 10.23007,0.412956 12.95899,-4.554687 l 18.58789,-33.83789075 c 1.95609,-0.93660465 4.81946,-1.12065795 6.49414,0.91015625 l -25.80859,78.3339845 24.84179,0 0,77.986333 c 0,6.09651 4.777,11.0039 10.71094,11.0039 5.93396,0 10.71094,-4.9074 10.71094,-11.0039 l 0,-77.986333 15.25195,0 0,59.421873 c 0,6.09651 4.77699,11.00391 10.71094,11.00391 5.93395,0 10.71094,-4.9074 10.71094,-11.00391 l 0,-59.421873 24.03125,0 -27.69727,-74.7500001 c -0.017,-0.082726 -0.0187,-0.1654135 -0.043,-0.2480469 -1.44369,-4.9181291 4.40049,-7.3914599 10.46875,-2.125 l 28.23438,31.212891 c 4.08974,4.521224 10.76738,5.099054 14.9707,1.296875 l 0.4375,-0.394532 c 4.20332,-3.802179 4.29482,-10.504166 0.20508,-15.02539 l -47.50781,-52.517578 c -0.78565,-0.868534 -1.66674,-1.589608 -2.60743,-2.164063 l -0.0273,-0.136719 C 332.1603,-40.285525 325.87709,-42.254209 317.81833,-42.75 l 0,-13.078125 a 25.351379,25.351379 0 0 0 14.64062,-22.947266 25.351379,25.351379 0 0 0 -25.35156,-25.351559 z"
       transform="translate(-0.082,-0.083)"
       id="rect4213" /></g><path
     d="m 543.16804,56.585247 c 0,-6.119207 -2.45651,-11.988495 -6.83152,-16.314612 -4.37501,-4.327208 -10.30717,-6.757647 -16.49287,-6.757647 l -9.50364,0 -480.336649,464.198672 0,20.31769 c 0,6.11921 2.457512,11.98741 6.831523,16.31462 4.375008,4.32502 10.308171,6.75765 16.492874,6.75765 l 24.173846,0 465.666436,-450.020938 0,-34.495434 z"
     id="path263"
     inkscape:connector-curvature="0"
     style="fill:#ed1c24" /></svg>