<?xml version="1.0" encoding="UTF-8" standalone="no"?>
<!-- Created with Inkscape (http://www.inkscape.org/) -->

<svg
   width="500mm"
   height="760.02417mm"
   viewBox="0 0 500 760.02417"
   version="1.1"
   id="svg5"
   inkscape:version="1.1.1 (3bf5ae0d25, 2021-09-20)"
   sodipodi:docname="dessin-4.svg"
   xmlns:inkscape="http://www.inkscape.org/namespaces/inkscape"
   xmlns:sodipodi="http://sodipodi.sourceforge.net/DTD/sodipodi-0.dtd"
   xmlns="http://www.w3.org/2000/svg"
   xmlns:svg="http://www.w3.org/2000/svg">
  <sodipodi:namedview
     id="namedview7"
     pagecolor="#ffffff"
     bordercolor="#666666"
     borderopacity="1.0"
     inkscape:pageshadow="2"
     inkscape:pageopacity="0.0"
     inkscape:pagecheckerboard="0"
     inkscape:document-units="mm"
     showgrid="false"
     inkscape:zoom="0.35355339"
     inkscape:cx="499.21739"
     inkscape:cy="2145.362"
     inkscape:window-width="1920"
     inkscape:window-height="1001"
     inkscape:window-x="-9"
     inkscape:window-y="-9"
     inkscape:window-maximized="1"
     inkscape:current-layer="layer1"
     inkscape:lockguides="false" />
  <defs
     id="defs2">
    <pattern
       id="EMFhbasepattern"
       patternUnits="userSpaceOnUse"
       width="6"
       height="6"
       x="0"
       y="0" />
  </defs>
  <g
     inkscape:label="Calque 1"
     inkscape:groupmode="layer"
     id="layer1"
     transform="translate(-37.896484,-34.357422)">
    <path
       style="color:#000000;opacity:1;fill:#ff0000;fill-opacity:1;stroke-width:3.68573;stroke-linecap:round;stroke-linejoin:round;stroke-dashoffset:1.04504;-inkscape-stroke:none;paint-order:stroke fill markers"
       d="m 71.679977,34.357422 c -18.407685,0 -33.783493,15.375804 -33.783493,33.783489 V 760.59089 c 0,18.40769 15.375808,33.79069 33.783493,33.79069 H 504.10579 c 18.4077,0 33.79069,-15.383 33.79069,-33.79069 V 68.140911 c 0,-18.407685 -15.38299,-33.783489 -33.79069,-33.783489 z"
       id="path17941"
       sodipodi:nodetypes="sssssssss" />
    <path
       style="color:#000000;opacity:1;fill:#ffffff;stroke-width:35.8806;stroke-linecap:round;stroke-linejoin:round;stroke-dashoffset:1.04504;-inkscape-stroke:none;paint-order:stroke fill markers"
       d="M 71.680928,52.296101 H 504.10752 c 8.77909,0 15.84674,7.067641 15.84674,15.846734 V 760.59207 c 0,8.77908 -7.06765,15.84673 -15.84674,15.84673 H 71.680928 c -8.77909,0 -15.846734,-7.06765 -15.846734,-15.84673 V 68.142835 c 0,-8.779093 7.067644,-15.846734 15.846734,-15.846734 z"
       id="path17943" />
    <path
       style="opacity:1;fill:#000000;stroke-width:0.349485"
       d="m 122.37096,668.02461 c -1.12509,-0.17249 -3.74505,-0.58364 -5.82213,-0.91384 -2.07709,-0.33024 -5.61758,-0.87127 -7.86776,-1.20243 -3.78799,-0.5574 -6.86338,-1.0246 -14.161974,-2.15166 -9.403102,-1.452 -16.235055,-5.43952 -19.653905,-12.46036 -1.972575,-4.05081 -2.22096,2.45326 -2.202852,-83.1587 0.0188,-83.96167 -0.202384,-97.70813 0.644318,-100.54338 1.893486,-6.34042 5.700735,-10.87071 11.519314,-13.70692 3.591707,-1.75072 3.915174,-1.82432 16.616769,-3.7803 27.33331,-4.20922 26.4427,-4.13308 33.83137,-2.89253 2.50979,0.42135 7.18326,1.2101 10.38544,1.75275 7.11447,1.20553 12.92593,2.12541 13.45388,2.12965 0.3019,0.004 0.39338,-1.83575 0.39338,-7.90564 0,-5.9254 0.11113,-8.2368 0.44347,-9.21735 1.20896,-3.56779 3.3303,-5.08359 7.42429,-5.3051 2.83381,-0.15333 3.64838,0.0295 10.85749,2.44523 l 25.05059,8.26455 c 2.57517,0.8496 5.13558,3.15923 5.11201,7.45315 l -0.0722,13.1536 1.47702,0.23442 c 3.05348,0.48412 10.35338,1.79359 12.01984,2.15611 1.56785,0.34093 8.07731,1.52302 11.64429,2.11425 0.77892,0.12937 3.18643,0.56724 5.35008,0.97362 2.16361,0.40636 5.91654,1.10466 8.33981,1.5517 2.42326,0.44708 5.75135,1.07137 7.3957,1.38742 1.64435,0.31624 3.4533,0.64416 4.01988,0.72926 3.83056,0.57501 8.12868,4.08162 10.92388,8.91221 2.17282,4.29462 3.90813,7.99963 3.90813,11.86652 0,3.80076 0.18798,12.19027 0.18798,36.48095 0,20.59845 -0.0734,51.59805 -0.16254,68.88794 l -0.15075,29.14431 c 0,8.3556 -6.17397,17.56473 -12.38466,20.67763 -2.06804,0.98103 -4.96365,1.58763 -20.50397,4.29557 -29.66047,5.16844 -33.3222,5.81016 -37.76525,6.61822 -3.51666,0.63955 -15.43905,2.7002 -37.13581,6.41852 -1.81748,0.31181 -5.35797,0.91992 -7.8678,1.35222 -9.92404,1.70915 -11.65024,2.00408 -16.05023,2.74256 -11.53992,1.93663 -14.70977,2.18372 -19.19733,1.49611 z m 12.12832,-9.88108 c 2.0705,-0.32472 5.3932,-0.84518 7.38373,-1.15677 1.99056,-0.31181 4.75214,-0.74621 6.13685,-0.9661 1.38473,-0.22004 4.35875,-0.67328 6.60893,-1.00776 2.25018,-0.33429 5.50745,-0.84775 7.23833,-1.14055 1.73091,-0.29301 3.99683,-0.63604 5.03539,-0.7628 1.03853,-0.12679 2.59635,-0.38906 3.46179,-0.58301 0.86547,-0.1935 2.4233,-0.44612 3.46182,-0.56045 1.03857,-0.11426 2.87961,-0.37941 4.09126,-0.58905 4.19394,-0.72572 18.75091,-2.96916 21.55764,-3.32243 1.12509,-0.1419 2.6121,-0.404 3.30445,-0.58309 0.69239,-0.17912 2.1794,-0.43034 3.30448,-0.55828 1.12509,-0.12826 3.39102,-0.47678 5.03537,-0.77525 3.48857,-0.63325 8.3642,-1.38982 10.38543,-1.61155 0.77892,-0.0851 2.90322,-0.40672 4.72065,-0.71404 1.81748,-0.30739 5.57038,-0.92247 8.33985,-1.36711 2.76944,-0.44469 5.9559,-0.9734 7.08099,-1.17494 1.12508,-0.20161 2.89531,-0.4731 3.93388,-0.60343 3.19151,-0.4006 11.14201,-1.70251 12.0471,-1.97279 1.58334,-0.4728 4.64535,-2.43704 5.95654,-3.82111 1.79941,-1.89937 3.17798,-4.82672 3.89012,-8.26046 0.73232,-3.53123 0.81252,-9.72835 1.08829,-84.11482 0.20603,-55.597 0.30776,-52.24424 -1.73801,-57.24217 -1.12582,-2.7504 -3.59264,-5.88811 -5.62416,-7.15379 -1.88361,-1.1735 -3.05116,-1.44403 -14.36107,-3.32696 -14.43509,-2.40314 -20.78508,-3.47307 -24.23269,-4.08272 -1.73091,-0.30629 -5.27141,-0.90699 -7.86776,-1.33527 -2.59635,-0.42825 -7.41142,-1.22672 -10.70015,-1.77446 -3.28874,-0.54766 -7.53733,-1.24158 -9.44133,-1.542 -1.90396,-0.30039 -6.15255,-0.99504 -9.44129,-1.54348 -3.28874,-0.54847 -6.61679,-1.08836 -7.39571,-1.19967 -0.77891,-0.11131 -1.77023,-0.28417 -2.20296,-0.38357 -0.77207,-0.17765 -9.24655,-1.54513 -26.43567,-4.26561 -4.76,-0.75333 -10.4956,-1.66831 -12.74578,-2.03327 -7.00617,-1.13635 -12.08335,-0.57479 -15.38616,1.70163 -5.31924,4.43054 -7.36574,10.22256 -7.37748,15.02401 0,6.88214 -0.20426,25.90558 -0.19265,83.33141 0.0147,70.17847 0.0935,85.93247 0.43857,87.51678 1.08012,4.95802 4.24021,10.12851 7.41153,12.12677 3.9096,2.46336 6.71121,2.85047 13.2298,1.82816 z m 51.58524,-21.15829 c -4.05744,-0.33724 -9.63324,-1.30751 -12.10106,-2.10562 -1.32185,-0.42747 -1.9912,-0.92552 -2.83235,-2.10769 -0.60583,-0.85136 -1.73881,-1.88569 -2.51772,-2.29849 -6.08949,-3.22753 -8.81759,-5.13663 -12.58841,-8.80946 -1.48884,-1.45015 -2.51158,-2.11933 -3.75765,-2.45861 -0.94163,-0.25652 -2.17135,-0.89821 -2.7327,-1.42626 -0.56138,-0.52802 -1.27797,-0.96397 -1.59242,-0.96865 -1.13489,-0.0184 -2.07971,-1.36442 -2.34224,-3.33983 -0.13803,-1.04004 -0.34679,-2.48702 -0.46382,-3.21547 -0.1631,-1.01782 -0.0861,-1.4385 0.33293,-1.81648 0.50714,-0.45732 0.48081,-0.6098 -0.37449,-2.16835 -2.25878,-4.11604 -4.85869,-11.36997 -6.54737,-18.26775 -0.45727,-1.86774 -0.99674,-3.39592 -1.19885,-3.39592 -0.20202,0 -1.18087,-1.04808 -2.17502,-2.32902 -1.47048,-1.89469 -1.80757,-2.57341 -1.80757,-3.63948 0,-0.72067 0.21249,-1.52773 0.4721,-1.79351 0.25962,-0.26537 0.47205,-0.95862 0.47205,-1.53979 0,-0.58113 0.29217,-1.3827 0.64929,-1.78124 0.59172,-0.66037 0.63198,-1.01413 0.45369,-3.98671 -0.50422,-8.40687 -0.13353,-25.65518 0.65034,-30.24955 0.10324,-0.60421 -0.0262,-0.96176 -0.40809,-1.13595 -0.7421,-0.33761 -1.0178,-0.88553 -1.03572,-2.05734 -0.007,-0.53365 -0.22295,-1.30924 -0.47687,-1.72359 -0.90775,-1.48001 -0.24094,-4.87413 0.95735,-4.87413 0.24167,0 1.07155,-0.79059 1.84403,-1.75684 1.042,-1.30346 1.61001,-2.49078 2.20076,-4.6005 1.48435,-5.30063 4.34664,-12.6644 6.36653,-16.37903 1.15239,-2.11933 1.31531,-2.64248 1.01036,-3.2447 -0.28956,-0.57206 -0.22447,-1.1307 0.32136,-2.75014 0.3767,-1.11777 0.68486,-2.41854 0.68486,-2.89065 0,-1.26774 0.76077,-1.85396 4.2486,-3.27367 1.73091,-0.70453 3.78439,-1.81419 4.5633,-2.46583 5.13049,-4.29226 8.0055,-6.12856 15.65684,-10.00013 0.38946,-0.19682 0.7081,-0.5969 0.7081,-0.88863 0,-1.07985 1.22677,-1.84644 3.81002,-2.38073 4.23969,-0.87691 5.865,-0.99835 16.4888,-1.23184 10.91331,-0.23994 14.23385,0.0494 15.37842,1.33932 0.36958,0.41653 1.00104,0.88052 1.40341,1.03123 0.45439,0.17028 0.94485,0.8855 1.29458,1.88809 0.52764,1.51259 0.82795,1.77678 4.77586,4.20119 4.46077,2.73927 7.89402,5.56015 11.36329,9.33625 1.20925,1.31622 2.2682,2.18546 2.47256,2.02974 0.19638,-0.15001 0.87344,-0.0844 1.50407,0.14485 0.63063,0.22962 1.51817,0.5111 1.97227,0.62569 1.64102,0.41402 2.27389,1.46673 2.49273,4.14645 0.11112,1.36151 0.0853,2.8714 -0.0576,3.35549 -0.20611,0.69793 0.0335,1.44252 1.15247,3.59716 1.73981,3.3472 4.38434,10.12313 6.00976,15.39837 1.04122,3.37927 1.35841,4.0347 2.15188,4.44651 0.51185,0.26537 1.17105,0.75244 1.46489,1.08176 0.29402,0.32914 0.91026,0.9204 1.36978,1.31356 1.3477,1.1529 1.47874,2.15969 0.66755,5.12984 -0.39697,1.45358 -1.04021,2.9515 -1.43797,3.34867 l -0.71966,0.71868 0.43592,4.94062 c 0.58645,6.64586 0.5049,19.97797 -0.15598,25.47715 -0.27979,2.32998 -0.57381,4.31626 -0.65308,4.41408 -0.0793,0.0977 0.19192,0.72373 0.60291,1.3911 1.00893,1.63875 2.03639,5.09074 1.83446,6.16317 -0.25325,1.34427 -2.61102,3.90268 -3.8242,4.1494 -0.88515,0.17987 -1.13481,0.46905 -1.52704,1.76768 -1.90527,6.30795 -4.41326,12.54701 -6.903,17.17246 -1.6161,3.00233 -1.71007,3.30618 -1.51596,4.90236 0.13128,1.08036 0.0812,1.7976 -0.13803,1.96449 -0.18967,0.14448 -0.34488,1.02574 -0.34488,1.9582 0,1.36928 -0.15937,1.85009 -0.82923,2.49977 -0.45607,0.44236 -0.98716,0.80545 -1.18018,0.80677 -0.19303,0 -0.77581,0.27717 -1.29508,0.6132 -0.62819,0.40639 -1.34246,0.53329 -2.13447,0.37915 -1.09011,-0.2123 -1.36831,-0.0557 -3.30444,1.86384 -3.82989,3.79627 -7.67403,6.59101 -12.64916,9.19623 -2.35716,1.23432 -2.6898,1.53242 -2.86086,2.56391 -0.10663,0.64187 -0.29667,1.37261 -0.42249,1.6239 -0.46364,0.92508 -2.77767,2.03113 -4.99137,2.38577 -2.61733,0.41929 -13.22318,0.41082 -18.3414,-0.0147 z m 18.56001,-1.51008 c 1.0258,-0.21856 2.01005,-0.57571 2.18726,-0.79428 0.17732,-0.21856 0.5806,-0.39728 0.89644,-0.39728 0.787,0 1.18812,-1.50688 1.18812,-4.46331 v -2.47225 l -1.10148,-0.49123 c -1.01817,-0.45397 -1.10148,-0.61312 -1.10148,-2.10349 0,-1.47731 0.0834,-1.64192 0.9961,-1.96464 0.74087,-0.26205 1.08888,-0.69207 1.3581,-1.67822 0.37296,-1.36608 1.25639,-2.14105 6.91868,-6.06956 1.20551,-0.83637 2.83415,-1.99833 3.61916,-2.58211 0.78501,-0.58379 2.02464,-1.44547 2.75478,-1.91482 1.29364,-0.83161 1.34388,-0.83511 1.96998,-0.13674 0.55828,0.62304 0.74382,0.65017 1.41549,0.20714 1.01417,-0.66933 1.89917,0.0641 1.41724,1.1745 -0.47089,1.08511 -0.37221,2.14657 0.34941,3.75694 1.18917,2.65439 1.27816,2.6925 3.33479,1.42807 1.55913,-0.95862 1.84336,-1.29756 1.91982,-2.2895 0.0494,-0.64032 0.25177,-1.56002 0.44927,-2.04378 0.42237,-1.03318 -0.0819,-2.62332 -1.48248,-4.67623 -0.8277,-1.21302 -0.89365,-1.23955 -1.62079,-0.65197 -0.41691,0.33687 -0.87632,0.5223 -1.0209,0.4121 -0.14478,-0.10984 -0.23117,-1.64557 -0.19229,-3.41203 0.0692,-3.13571 0.14253,-3.41347 3.11128,-11.74986 3.99945,-11.23113 3.65705,-10.49826 4.85041,-10.38146 0.75714,0.0741 1.11334,-0.1279 1.49678,-0.84975 0.67906,-1.27814 1.3998,-0.87208 1.3998,0.78849 0,1.08641 0.20349,1.47732 1.18532,2.27871 1.88425,1.53768 2.86614,1.61291 4.4423,0.34019 l 1.35701,-1.09562 -0.20684,-1.94397 c -0.26674,-2.50958 -0.71128,-3.3054 -2.4416,-4.37106 -1.69148,-1.04177 -2.62496,-1.1066 -3.03166,-0.21045 -0.45417,1.00082 -1.93408,0.0785 -1.93408,-1.20549 0,-0.52183 -0.31981,-1.44245 -0.71064,-2.04584 -0.49925,-0.7708 -0.69688,-1.55878 -0.66445,-2.64946 0.0262,-0.85383 0.0628,-7.3157 0.083,-14.35976 l 0.0374,-12.8073 0.94213,-0.66115 c 0.70017,-0.49134 0.94212,-0.94487 0.94212,-1.76587 0,-0.60756 0.16984,-1.31429 0.37768,-1.57042 0.52382,-0.64596 1.40688,-0.58267 1.62441,0.11647 0.25774,0.82848 0.96221,0.72687 3.07802,-0.44413 1.26106,-0.69789 1.89685,-1.28765 1.98719,-1.84345 0.0729,-0.44948 0.20087,-1.25389 0.28391,-1.78747 0.083,-0.53366 0.24466,-1.33903 0.35911,-1.78961 0.15937,-0.62835 -0.0729,-1.14785 -0.99742,-2.22829 -0.66298,-0.77481 -1.48869,-1.40865 -1.83486,-1.4085 -0.34606,1.1e-4 -1.36327,0.51928 -2.26017,1.15363 -1.26013,0.89125 -1.65351,1.39686 -1.73091,2.2246 -0.11861,1.26683 -1.12165,1.68648 -1.69994,0.71117 -0.23194,-0.39113 -0.71356,-0.59875 -1.22332,-0.52729 -0.78378,0.10984 -0.91366,-0.10578 -1.91676,-3.18104 -0.59176,-1.81438 -2.01652,-6.1805 -3.16604,-9.70251 -1.51301,-4.63555 -2.12946,-7.04664 -2.23266,-8.73224 -0.0786,-1.28079 -0.26563,-2.48636 -0.41602,-2.6792 -0.15524,-0.19903 -0.1339,-0.67176 0.049,-1.0937 0.29515,-0.67961 0.38433,-0.69321 1.04522,-0.15886 0.63935,0.5166 0.79956,0.51755 1.38893,0.007 0.36621,-0.3166 1.04511,-1.37278 1.50822,-2.34733 0.74715,-1.57226 0.80087,-1.9123 0.47684,-3.01747 -0.20087,-0.685 -0.36511,-1.60462 -0.36511,-2.04367 0,-1.03152 -0.4517,-1.43714 -2.27954,-2.04698 -1.7532,-0.58493 -2.0503,-0.38899 -3.25533,2.14676 -0.67376,1.41775 -0.72725,1.77412 -0.39952,2.66113 0.51156,1.38462 -0.0554,2.20064 -1.01507,1.46143 -0.49143,-0.37849 -0.8722,-0.3915 -1.64438,-0.0564 -0.94894,0.4121 -1.21498,0.28122 -4.78137,-2.34984 -3.35618,-2.47615 -9.22817,-6.91786 -9.56896,-7.23823 -0.0704,-0.066 -0.21174,-0.75786 -0.31461,-1.53739 -0.18031,-1.3649 -0.4969,-1.78636 -1.68195,-2.23794 -0.38934,-0.14854 -0.55072,-0.6143 -0.55072,-1.59003 0,-1.09381 0.15414,-1.45247 0.74386,-1.72886 0.92514,-0.43378 1.14439,-1.1166 1.14439,-3.56407 0,-2.19596 -0.71079,-4.21814 -1.48268,-4.21814 -0.28726,0 -0.83105,-0.35751 -1.20832,-0.79468 -0.91208,-1.05666 -4.53585,-1.519 -11.94303,-1.52376 -5.2579,-0.004 -17.05883,0.82904 -19.72973,1.39174 -1.34161,0.28232 -2.67263,1.59268 -2.20458,2.16986 0.19712,0.24326 1.40408,0.1924 3.40938,-0.14227 2.10204,-0.35125 6.71073,-0.51876 14.27633,-0.51876 h 11.17221 l -0.0763,2.13455 c -0.0939,2.6287 0.37572,4.51101 1.19126,4.77399 0.48436,0.15627 0.61596,0.53653 0.61596,1.77998 0,1.35698 -0.10998,1.61546 -0.77547,1.82142 -0.77715,0.24068 -0.90139,0.50745 -1.2571,2.70076 -0.20275,1.25009 0.29143,0.88137 -11.29251,8.42592 -1.55678,1.0139 -2.99748,1.84349 -3.20154,1.84349 -0.20426,0 -0.8259,-0.27975 -1.38182,-0.62186 -0.9272,-0.57036 -1.05693,-0.57036 -1.56804,0 -0.74876,0.83567 -1.35024,0.78293 -2.19963,-0.19276 -0.64825,-0.74474 -0.66688,-0.87249 -0.21661,-1.48594 0.70473,-0.96028 0.63246,-1.25687 -0.68764,-2.82169 -2.11349,-2.5053 -4.49175,-3.63988 -5.3671,-2.56037 -0.20839,0.2569 -0.90947,0.42626 -1.55782,0.37609 -1.82825,-0.14153 -2.33027,-0.42625 -2.12905,-1.20803 0.28543,-1.10933 -0.59513,-1.63311 -3.2122,-1.9105 -3.32884,-0.35273 -4.62604,-0.0332 -5.8598,1.44086 -1.33461,1.59526 -3.20794,1.7435 -3.65624,0.28933 -0.6029,-1.95546 -6.21712,-2.10923 -9.07846,-0.24878 -0.63864,0.41523 -1.40547,0.84388 -1.70409,0.95246 -0.32918,0.11942 -0.68521,0.8939 -0.90416,1.96634 -0.19862,0.97289 -0.48541,1.86355 -0.63721,1.97924 -0.42803,0.32619 -0.32545,1.61059 0.14665,1.83398 2.35395,1.11394 7.05997,0.48313 8.42469,-1.12927 0.77196,-0.91207 1.00849,-0.98412 2.4352,-0.74216 1.13358,0.19203 1.53452,0.4148 1.41859,0.78739 -0.26637,0.85601 1.0922,1.43688 3.85835,1.64969 2.77434,0.21378 4.10756,-0.17433 5.36695,-1.5609 0.55768,-0.61401 0.93438,-0.7014 2.04563,-0.47454 1.75309,0.35788 1.89745,0.48165 1.53522,1.31632 -0.44807,1.03249 0.32656,2.12918 2.62239,3.71246 2.09108,1.44208 2.98147,1.65301 3.9215,0.92906 0.44897,-0.34572 0.75197,-0.29449 1.41193,0.23883 0.84288,0.68109 1.11424,1.88747 0.52555,2.33617 -0.51927,0.3957 -0.35984,1.23251 0.46483,2.44132 l 0.77959,1.14247 -3.45461,8.60688 c -1.90004,4.73374 -3.4546,8.76346 -3.4546,8.95494 0,0.66483 -0.62723,0.81937 -1.76013,0.43355 -1.09105,-0.37149 -1.15415,-0.33872 -1.49521,0.77544 -0.30149,0.98479 -0.47714,1.12588 -1.14498,0.91915 -1.25467,-0.38837 -1.54889,-0.8876 -1.36162,-2.31055 0.1642,-1.24714 0.10099,-1.34857 -1.43386,-2.30775 -3.07513,-1.92174 -6.33675,-2.54334 -6.33675,-1.20774 0,0.28196 -0.24805,0.88141 -0.55076,1.33166 -0.44939,0.66811 -0.76713,0.77393 -1.72673,0.57523 -1.0475,-0.21709 -1.15549,-0.34425 -0.98828,-1.16584 0.15901,-0.78122 0.0147,-1.01103 -0.9382,-1.50245 -1.15785,-0.59661 -4.6765,-0.77669 -6.48077,-0.33172 -0.71558,0.17655 -1.23238,0.68798 -1.78426,1.76613 -0.75845,1.48167 -0.81564,1.51491 -2.41047,1.40095 -1.5029,-0.10725 -1.63395,-0.1935 -1.63821,-1.08054 -0.004,-0.85546 -0.18141,-0.99862 -1.57817,-1.27332 -3.01862,-0.59358 -6.76628,0.44708 -6.76628,1.87888 0,0.32545 -0.52136,1.18091 -1.15853,1.90073 -1.12374,1.26963 -1.14787,1.35348 -0.80334,2.79397 0.19527,0.8168 0.32729,1.82242 0.29327,2.23466 -0.0834,1.00787 1.79817,1.52144 4.42819,1.20856 2.53964,-0.30223 3.33501,-0.77268 3.9368,-2.32894 0.3539,-0.91499 0.76915,-1.33461 1.49924,-1.51466 1.88938,-0.46602 2.18999,-0.34461 2.18999,0.8851 0,0.96485 0.17621,1.20744 1.18015,1.62419 1.32324,0.54936 5.44453,0.69804 6.76055,0.24399 0.51126,-0.17654 1.07122,-0.8057 1.38145,-1.55239 0.67843,-1.63297 0.75515,-1.67963 2.48397,-1.51005 1.22403,0.11979 1.4431,0.25837 1.32077,0.8353 -0.0808,0.38033 -0.0576,0.86254 0.0509,1.07163 0.32692,0.62934 3.23625,2.28397 4.95647,2.81877 1.81818,0.56528 2.62078,0.34462 2.86063,-0.78635 0.18742,-0.88358 0.65993,-0.96828 1.80686,-0.32397 0.62329,0.35014 0.80158,0.7353 0.80158,1.73137 0,0.774 0.24503,1.56238 0.6191,1.99221 0.59401,0.68242 0.62072,1.33077 0.65996,16.00158 l 0.0408,15.2903 -0.81733,0.73424 c -0.59404,0.53365 -0.81729,1.08349 -0.81729,2.0127 0,1.45424 -0.44235,2.04533 -1.77689,2.3745 -0.78434,0.19313 -0.98814,0.0722 -1.30076,-0.7739 -0.47456,-1.28444 -1.40733,-1.29494 -4.27245,-0.0483 -2.39929,1.04413 -3.26791,1.82422 -3.41118,3.0634 -0.0808,0.69856 -0.33857,0.85181 -1.60133,0.95147 -1.43628,0.11315 -1.52079,0.0634 -1.84822,-1.09496 -0.44063,-1.55877 -1.29822,-1.94964 -4.82917,-2.20108 -3.19922,-0.22778 -4.56331,0.19682 -4.56331,1.42118 0,0.65381 -0.205,0.78584 -1.21951,0.78584 -2.19862,0 -3.21302,-0.42386 -3.53813,-1.47831 -0.16645,-0.53967 -0.54474,-1.20107 -0.84083,-1.46995 -0.78186,-0.70991 -4.29322,-1.44868 -5.52791,-1.16303 -1.0377,0.24031 -1.0631,0.29338 -1.26784,2.66327 -0.19265,2.22854 -0.15041,2.47917 0.53647,3.19447 0.41,0.42695 0.832,1.0763 0.93782,1.44311 0.28992,1.00499 2.30745,1.88871 4.879,2.13706 2.16155,0.20898 2.30947,0.17212 2.47571,-0.61176 0.15749,-0.74253 0.39552,-0.8339 2.17334,-0.8339 1.21284,0 2.12493,0.19019 2.32372,0.48516 0.17993,0.26648 0.57918,0.89327 0.88717,1.39206 0.7311,1.18426 4.46223,1.92458 7.01231,1.3914 1.54869,-0.32397 1.72096,-0.45939 1.81111,-1.42556 0.095,-1.01786 0.16125,-1.05718 1.4162,-0.84087 1.92356,0.33135 2.10335,0.44446 2.10335,1.32259 0,1.45778 1.21561,1.72061 3.71429,0.80294 2.73528,-1.00459 4.28062,-2.45013 4.0149,-3.75573 -0.13913,-0.68363 0.0111,-1.05902 0.62969,-1.55759 0.78834,-0.63704 0.83634,-0.62591 1.58174,0.36563 0.59519,0.79151 0.96699,0.9734 1.64719,0.80566 1.04746,-0.25837 1.21628,-0.0258 2.41204,3.34314 0.49266,1.38746 1.42367,3.91982 2.06889,5.62742 4.23516,11.20898 4.07442,10.64208 3.25519,11.48054 -0.35052,0.35863 -0.4522,0.89969 -0.33555,1.78585 0.1433,1.09009 0.0299,1.39177 -0.79661,2.1176 -0.78307,0.68765 -1.0735,0.76199 -1.5484,0.39622 -0.84531,-0.65101 -1.37385,-0.56539 -3.07637,0.49857 -2.15187,1.34474 -3.49624,2.83993 -3.49624,3.88848 0,0.68323 -0.22634,0.943 -0.98346,1.12983 -1.69219,0.41737 -2.25945,0.27459 -3.16649,-0.79711 -0.77659,-0.91749 -1.18528,-1.05903 -3.47903,-1.20432 -3.3043,-0.20935 -4.83092,0.24474 -4.72712,1.40574 0.0704,0.78746 -0.0576,0.83825 -2.11323,0.83825 -1.81238,0 -2.24205,-0.12384 -2.50192,-0.72296 -0.52985,-1.22094 -2.19063,-1.78636 -5.2667,-1.79326 -1.5858,-0.004 -2.98876,0.12274 -3.11766,0.28049 -0.12908,0.15775 -0.007,0.94384 0.27193,1.74648 0.27868,0.80265 0.55046,1.80833 0.60418,2.23492 0.0539,0.42655 0.60526,1.12511 1.22552,1.5524 0.62031,0.42721 1.50033,1.09997 1.95567,1.49486 2.26809,1.96744 7.76563,1.87806 7.76563,-0.12643 0,-0.70342 0.20201,-0.78583 1.9254,-0.78583 1.67902,0 2.05939,0.14522 2.97245,1.13373 1.19717,1.29624 3.57049,1.85105 5.99798,1.40209 2.21116,-0.40886 2.38054,-0.54744 2.16294,-1.76937 -0.18554,-1.04262 -0.14212,-1.08405 1.42346,-1.34953 1.39061,-0.23589 1.71299,-0.16033 2.3199,0.54268 0.3877,0.44907 0.94463,0.81662 1.23765,0.81662 0.79889,0 3.56032,-1.94416 4.52481,-3.18562 0.79814,-1.02736 0.82418,-1.17302 0.44243,-2.47497 -0.22295,-0.76085 -0.35726,-1.41971 -0.29814,-1.4642 1.40124,-1.05286 1.84916,-1.13373 2.46614,-0.4452 0.55831,0.62319 0.77498,0.64987 1.82013,0.22447 1.16425,-0.47384 1.24775,-0.43816 4.47734,1.91315 1.81003,1.3178 3.78933,2.6956 4.39845,3.0617 2.05427,1.23491 6.66692,4.80207 6.77241,5.23754 0.0576,0.23773 0.19118,0.91749 0.29663,1.511 0.1433,0.80541 0.42929,1.13757 1.12778,1.30984 0.86282,0.21303 0.93572,0.36009 0.93572,1.89074 0,1.49107 -0.095,1.70078 -0.93307,2.0611 -1.07851,0.46359 -1.29877,1.22919 -1.3746,4.77727 l -0.0527,2.46553 -3.30445,0.12237 c -6.61982,0.24473 -19.92833,-1.03647 -23.66952,-2.27878 -0.69089,-0.22925 -1.34306,-0.31034 -1.44927,-0.17876 -0.37527,0.46278 0.48945,1.56511 1.58237,2.01724 1.44014,0.5958 9.75264,1.94924 14.56718,2.37184 4.65847,0.40893 13.51755,0.25432 16.027,-0.27975 z m 0.82994,-3.36349 c -0.50928,-0.3284 -0.95159,-0.37259 -1.31684,-0.13195 -0.85374,0.56351 -0.90607,0.48114 -0.90607,-1.42501 0,-1.56416 0.0688,-1.74848 0.55073,-1.47271 0.303,0.17323 1.08023,0.29707 1.72739,0.27458 1.1735,-0.0405 1.17656,-0.0376 1.12804,1.48959 -0.0572,1.80137 -0.16796,1.91979 -1.18325,1.26513 z m -1.96199,-13.60909 c 0.11559,-1.22061 0.19343,-1.29546 1.34707,-1.29546 h 1.46042 c 0.12981,0 0.23603,0.55205 0.23603,1.22676 0,1.20512 -0.0262,1.22786 -1.58307,1.29535 l -1.58308,0.0689 z m -39.59974,-3.62407 c 0,-0.64033 -0.14179,-1.16429 -0.31461,-1.16429 -0.17319,0 -0.31462,-0.1747 -0.31462,-0.38811 0,-0.21561 0.83926,-0.38803 1.88829,-0.38803 1.79215,0 1.88825,0.0483 1.88825,0.94731 0,0.52101 0.14179,1.0553 0.31462,1.18721 0.77764,0.5927 0.16534,0.97023 -1.57358,0.97023 h -1.88824 z m -11.80784,0.46735 c -1.13639,-0.1032 -1.29971,-0.25137 -1.6053,-1.4555 l -0.34004,-1.34043 h 1.45761 c 1.35155,0 1.48529,0.0907 1.83868,1.24516 0.45982,1.5023 0.28767,1.69982 -1.35081,1.55077 z m 56.81145,-0.65396 c 0,-0.78764 -1.28688,-1.14895 -4.13599,-1.16127 -1.79919,-0.007 -2.55236,0.15112 -2.98974,0.6306 -0.55255,0.60586 -0.90823,0.40314 -6.47,-3.68699 -5.04729,-3.71164 -5.86253,-4.4412 -5.72524,-5.12324 0.10663,-0.53034 -0.33555,-1.69363 -1.3281,-3.4929 -1.7103,-3.10022 -1.86356,-3.26582 -3.02976,-3.27385 -0.97321,-0.007 -0.74944,0.51563 -5.11512,-11.93865 l -2.48232,-7.08147 0.8468,-1.08998 c 0.83241,-1.07141 0.84169,-1.13978 0.54534,-4.02221 -0.38418,-3.73652 -0.83263,-4.98119 -1.79481,-4.98119 h -0.73623 v -12.79768 -12.7976 l 0.88306,0.21782 c 1.21146,0.29892 1.49169,-0.24878 2.15213,-4.20571 l 0.56333,-3.37488 -0.69778,-1.16381 c -0.38377,-0.64017 -0.69777,-1.2607 -0.69777,-1.37902 0,-0.11831 1.55562,-4.09857 3.45696,-8.84502 3.04402,-7.59891 3.5794,-8.69944 4.48154,-9.21205 0.56908,-0.32324 1.76652,-1.77457 2.69372,-3.26449 1.3287,-2.13525 1.63264,-2.88733 1.49019,-3.68728 -0.1642,-0.92287 0.007,-1.12411 2.11045,-2.46458 1.2592,-0.80279 3.90153,-2.51146 5.87189,-3.79693 3.29293,-2.14845 3.62657,-2.28814 4.12773,-1.72887 0.38107,0.42534 1.49078,0.67958 3.68548,0.84448 2.9854,0.22446 3.16409,0.1935 3.62384,-0.61548 l 0.48361,-0.85148 2.63388,1.9157 c 1.44862,1.05364 3.41282,2.43741 4.36477,3.07501 5.34346,3.57877 5.1926,3.43878 5.1948,4.82208 0.002,1.29881 1.2923,4.04247 2.92876,6.22826 0.58413,0.78016 0.98499,0.99894 1.52431,0.83205 0.4685,-0.14521 0.78362,-0.0376 0.87598,0.29965 0.0793,0.2897 1.37157,4.52918 2.8716,9.42159 2.65703,8.66597 2.71423,8.92257 2.21901,9.95642 -0.59224,1.23634 -0.64918,3.39212 -0.16346,6.18543 0.266,1.52844 0.51848,2.06479 1.10152,2.33816 l 0.75654,0.35457 v 12.63255 12.6326 l -0.93191,0.22962 c -1.06146,0.26168 -1.41653,1.24795 -1.76166,4.89296 -0.15786,1.66713 -0.0935,2.45326 0.25435,3.10821 0.43625,0.821 0.25361,1.47481 -2.87482,10.28792 -2.71598,7.65143 -3.44259,9.38144 -3.88588,9.25207 -1.08259,-0.31587 -4.46945,5.46064 -4.18294,7.13418 0.15671,0.91605 -0.20088,1.22599 -5.94049,5.14683 -3.35903,2.29463 -6.26269,4.17211 -6.45254,4.17211 -0.19003,0 -0.34524,-0.25837 -0.34524,-0.57476 z m 1.16998,-6.57126 c 4.2927,-1.40935 7.78216,-4.54956 11.18953,-10.06942 8.99142,-14.5661 11.92844,-41.43834 6.87767,-62.92742 -3.55258,-15.11501 -10.47739,-25.61374 -18.29307,-27.73411 -2.9793,-0.80832 -6.6132,-0.25173 -9.2345,1.41403 -1.35055,0.8583 -0.79137,1.02854 0.77674,0.23663 1.05289,-0.53182 2.19118,-0.6885 4.83859,-0.6662 4.38589,0.0376 6.47356,0.99367 9.89409,4.53375 5.61485,5.81111 9.41166,16.06305 11.24676,30.36779 0.76544,5.96668 0.77,20.35291 0.007,26.63473 -2.16657,17.87098 -7.96292,31.34643 -15.42521,35.86071 -2.09531,1.26756 -2.8404,1.51193 -5.04513,1.65457 -1.75489,0.11352 -3.22435,-0.0332 -4.56936,-0.45891 -2.28403,-0.7216 -2.58468,-0.75868 -1.93172,-0.23847 0.50317,0.40119 3.10042,1.38241 4.40593,1.6647 1.63605,0.35346 3.67565,0.24805 5.26123,-0.27238 z M 198.2242,510.47937 c -14.83166,10.39871 -24.37799,67.05591 -0.28767,94.30856 19.1491,-25.53591 17.21447,-82.45344 0.28767,-94.30856 z m 30.8437,103.45224 c -0.37562,-0.86564 -0.32472,-1.05331 0.59142,-2.18317 0.9599,-1.18375 1.02136,-1.20531 1.44927,-0.50841 0.64435,1.04929 0.5704,1.51527 -0.31982,2.0155 -0.4327,0.24326 -0.78676,0.70781 -0.78676,1.03256 0,0.88963 -0.47131,0.70976 -0.93405,-0.35641 z m -53.01745,-1.22083 c -0.1025,-0.50307 -0.482,-1.10992 -0.84359,-1.34854 -0.6316,-0.41685 -0.61144,-0.47247 0.51316,-1.41488 0.94419,-0.79121 1.22336,-0.87838 1.44314,-0.4505 0.14997,0.29191 0.27458,0.66571 0.2772,0.83113 0.003,0.16549 0.39429,0.48497 0.8703,0.71031 l 0.86544,0.40978 -0.9217,0.91189 c -1.35331,1.33892 -1.98256,1.43913 -2.20405,0.35088 z m 48.27514,-6.78521 c -0.29327,-0.67589 -0.21359,-0.95704 0.50509,-1.77833 l 0.8535,-0.97543 0.64372,0.79379 0.64376,0.79387 -0.8614,0.98446 c -1.04455,1.19381 -1.33267,1.22315 -1.78467,0.18171 z m -40.68121,-0.84002 c -0.48507,-0.63944 -0.8391,-1.19337 -0.78677,-1.23092 0.0523,-0.0376 0.61675,-0.54155 1.2543,-1.11991 1.3348,-1.21095 1.51585,-1.26742 1.51585,-0.47277 0,0.31844 0.28318,0.797 0.62943,1.06363 0.8617,0.66365 0.79126,1.16882 -0.30186,2.16551 -1.14698,1.04579 -1.21966,1.03304 -2.31086,-0.40554 z m -32.25087,-23.21268 c 0.0774,-0.64975 0.0225,-1.27132 -0.1216,-1.38122 -0.68673,-0.52345 -0.11333,-0.93028 1.31131,-0.93028 1.53157,0 1.57357,0.0295 1.57357,1.14139 0,0.62776 0.14179,1.24936 0.31462,1.38123 0.76294,0.58154 0.18104,0.97027 -1.45193,0.97027 h -1.76663 z m 12.12783,0.20899 c 0.083,-0.53488 -0.0262,-1.23771 -0.24576,-1.5618 -0.46895,-0.69686 -0.51657,-0.64047 1.23136,-1.45726 1.47886,-0.69104 1.92353,-0.6 1.92353,0.39393 0,0.34425 0.23154,0.94145 0.51492,1.32734 0.42249,0.57575 0.43659,0.73674 0.0786,0.89737 -1.66066,0.74485 -3.22596,1.37286 -3.42191,1.37286 -0.12719,0 -0.16383,-0.43757 -0.0808,-0.97244 z m 78.54245,0.47361 c -0.61245,-0.42216 -0.6371,-0.5502 -0.23603,-1.22477 0.2465,-0.41438 0.44792,-1.0693 0.44792,-1.45538 0,-0.8618 0.37659,-0.88318 1.61742,-0.0918 0.88683,0.56554 0.92016,0.6599 0.45641,1.29185 -0.27532,0.37499 -0.50029,0.97366 -0.50029,1.3304 0,0.75757 -0.80547,0.82513 -1.78541,0.14965 z m -103.28502,-1.78382 c -0.99195,-0.22483 -1.06262,-0.34425 -1.12221,-1.89329 l -0.0636,-1.65334 1.59431,0.25063 c 0.87688,0.13784 1.61023,0.27016 1.62968,0.29522 0.0188,0.0258 0.11223,0.78672 0.20611,1.69389 0.18815,1.81895 0.13917,1.84755 -2.24423,1.30726 z m 96.25853,-2.69468 c -1.45701,-0.82674 -1.42888,-0.78974 -1.00183,-1.31636 0.205,-0.25247 0.37222,-0.86095 0.37222,-1.35192 0,-1.04498 0.32361,-1.1076 1.5806,-0.30629 0.80896,0.51586 0.89694,0.73826 0.72954,1.84346 -0.26298,1.73675 -0.42305,1.84438 -1.68071,1.13078 z m -61.19109,-0.54132 c -0.55136,-2.19423 -0.49293,-2.48728 0.62704,-3.14588 1.04051,-0.61191 1.11357,-0.61021 1.27412,0.0295 0.0935,0.37333 0.30113,0.98111 0.46106,1.35068 0.23717,0.54788 0.0572,0.81878 -0.97333,1.46718 -0.95214,0.59904 -1.29484,0.67268 -1.38889,0.29817 z m 61.5058,-36.70674 c 0,-0.59767 -0.16456,-1.28978 -0.36584,-1.53794 -0.27794,-0.34278 -0.16011,-0.54796 0.49255,-0.8538 1.31999,-0.61895 1.76166,-0.49607 1.76166,0.49005 0,0.49094 0.16011,1.09028 0.35612,1.33184 0.26522,0.32693 0.0539,0.59484 -0.82519,1.04786 -1.49804,0.7719 -1.41919,0.79844 -1.41919,-0.47801 z m -60.1985,-1.47237 c -1.11117,-0.89704 -1.15983,-1.01465 -0.73185,-1.76816 0.25214,-0.44398 0.38321,-1.04907 0.29103,-1.34481 -0.22483,-0.72248 0.011,-0.68032 1.52359,0.26979 0.94684,0.59569 1.1913,0.92166 0.93158,1.24191 -0.1938,0.2392 -0.35199,0.92331 -0.35199,1.52099 0,1.308 -0.13353,1.31441 -1.66234,0.08 z m 68.06627,-2.65742 c 0,-0.52101 -0.14179,-1.05526 -0.31462,-1.18717 -0.59643,-0.4546 -0.31233,-1.18928 0.62943,-1.6277 0.87797,-0.40863 0.94414,-0.37716 0.94414,0.44955 0,0.48899 0.21249,1.10646 0.47205,1.37217 0.65921,0.67471 0.59356,0.97148 -0.32957,1.4901 -1.15924,0.65138 -1.40139,0.56554 -1.40139,-0.49695 z m -78.36289,-2.809 c -1.44714,-0.77268 -1.44852,-0.77545 -0.80896,-1.64694 0.3711,-0.50572 0.47849,-1.03248 0.32881,-1.61358 -0.18779,-0.72937 -0.13129,-0.81952 0.36511,-0.58319 0.32283,0.1537 1.11813,0.48464 1.7672,0.73534 1.30161,0.50277 1.40703,0.71588 0.7081,1.43117 -0.25963,0.26537 -0.47206,0.8984 -0.47206,1.40589 0,1.05242 -0.33518,1.10056 -1.88825,0.27127 z m -26.12099,-0.46876 c 0,-0.21266 0.14997,-0.50067 0.3333,-0.64032 0.19118,-0.14559 0.24764,-0.73457 0.13243,-1.38126 l -0.20091,-1.12732 h 1.63223 c 1.43568,0 1.6035,0.0818 1.39345,0.67913 -0.13128,0.37373 -0.26449,1.11582 -0.29552,1.64944 -0.0509,0.8674 -0.21248,0.98276 -1.5258,1.08854 -0.82949,0.0671 -1.46887,-0.0501 -1.46887,-0.26832 z m 13.9532,-0.74588 c -0.59333,-0.1043 -0.66822,-0.32877 -0.58248,-1.74645 l 0.0984,-1.62684 1.68393,-0.0221 c 2.10361,-0.0258 2.33007,0.11131 1.66504,1.0176 -0.30411,0.41457 -0.46035,1.06278 -0.36474,1.51388 0.092,0.43395 0.0744,0.80319 -0.0393,0.82048 -0.82175,0.12568 -1.88568,0.14411 -2.46098,0.0431 z m 32.07322,-20.9789 c -1.16152,-1.22621 -1.26933,-1.60536 -0.45634,-1.60536 0.77562,0 1.32178,-0.75377 1.32178,-1.82414 0,-1.17988 0.55185,-1.11199 1.86334,0.22925 l 1.07653,1.10097 -0.9192,0.54092 c -0.62864,0.3699 -0.95065,0.87739 -1.01877,1.60535 -0.12494,1.33465 -0.56924,1.32348 -1.86734,-0.0468 z m 41.54179,0.0734 c -0.81236,-0.69882 -0.90165,-1.38562 -0.26482,-2.03737 0.35125,-0.35935 0.61656,-0.23994 1.2792,0.57741 1.3372,1.649 0.53977,2.79681 -1.01428,1.45996 z m 4.40593,-7.36093 c -0.82182,-1.09437 -0.83921,-1.25167 -0.2454,-2.21863 0.42152,-0.68624 0.49663,-0.65642 1.5625,0.62017 1.07399,1.28624 1.09625,1.36722 0.54523,1.98218 -0.73623,0.8217 -0.99779,0.76785 -1.86248,-0.38372 z M 176.81586,504.017 c -1.36798,-1.19009 -1.49842,-1.59246 -0.56887,-1.75493 0.49712,-0.0866 0.82938,-0.52046 1.05316,-1.37429 l 0.32692,-1.24726 1.33985,1.09386 1.33988,1.09392 -0.77846,0.62897 c -0.42814,0.34609 -0.82414,1.01262 -0.87999,1.48133 -0.14028,1.17701 -0.54957,1.19451 -1.83251,0.0781 z m -24.62608,-3.88723 c -0.60942,-0.20604 -0.72176,-0.7293 -0.23603,-1.09946 0.17319,-0.13231 0.31461,-0.57884 0.31461,-0.99315 0,-0.64597 0.22597,-0.75333 1.58465,-0.75333 1.54903,0 1.57585,0.0184 1.1947,0.87322 -0.21432,0.48029 -0.39645,1.13521 -0.40446,1.45539 -0.0147,0.59672 -1.3722,0.88288 -2.45356,0.51733 z m 12.83148,-0.0955 c -0.60456,-0.29154 -0.60231,-0.31329 0.0786,-0.76251 0.3856,-0.25431 0.70106,-0.80588 0.70106,-1.22532 0,-0.65632 0.21923,-0.76254 1.57358,-0.76254 1.61947,0 1.92427,0.32213 1.10148,1.16429 -0.25962,0.26537 -0.47205,0.81108 -0.47205,1.21183 0,0.5882 -0.22782,0.7234 -1.18019,0.70143 -0.64907,-0.0147 -1.46023,-0.16217 -1.80255,-0.32693 z m 41.29871,-1.86878 c -1.07257,-0.13858 -1.18016,-0.25763 -1.18016,-1.31072 0,-1.10631 0.0479,-1.14733 1.06546,-0.91196 0.64888,0.15001 1.14955,0.0785 1.2806,-0.18281 0.3755,-0.74931 0.80105,-0.0295 0.80105,1.3527 0,0.84443 -0.14477,1.31145 -0.39338,1.27021 -0.21624,-0.0372 -0.92447,-0.13416 -1.57357,-0.21746 z m 0.21322,-12.44381 c -1.22872,-0.11352 -1.28086,-0.17212 -1.25887,-1.41072 0.0225,-1.28259 0.0335,-1.29188 1.51788,-1.26531 1.47227,0.0258 1.49487,0.0457 1.49487,1.28809 0,1.48292 -0.0763,1.54333 -1.75388,1.38794 z m -2.02266,-33.06051 c 0,-7.87269 0.41134,-7.20351 -5.35007,-8.70412 -5.14074,-1.33892 -17.2483,-4.34581 -21.24293,-5.27561 -1.73091,-0.40293 -4.19491,-1.00757 -5.47558,-1.34375 -2.0989,-0.55094 -2.40145,-0.55227 -3.06844,-0.0147 -0.73458,0.59362 -0.73997,0.65226 -0.73997,8.10681 v 7.5089 l 1.96695,0.25911 c 1.08181,0.14264 2.74584,0.425 3.69784,0.62757 0.952,0.20272 4.84656,0.90459 8.65456,1.55999 3.808,0.65543 10.03927,1.77475 13.84727,2.4875 3.80799,0.71267 7.10062,1.31374 7.31699,1.33567 0.30039,0.0295 0.39338,-1.51535 0.39338,-6.54888 z"
       id="path18258"
       sodipodi:nodetypes="ssssscssssscscscsscsssssssccssccssssssscssssssssssssssssssssssssssssssssscccsssccssssscscssssssssssscccssssssssssssssssssssssscsssssscsssssssssssscssssssscccssscssssssssssssscsssssssssscssssscccsssssssssssssssssscsssssssssssssssssssssssscssssssssssssssssssssssssssssssssssscsssssssssssssssssssssssssssssscsssssscsssssssssssssssssssssssssssscsssssssssssssssssscssssssssssssscsssssssssscsscssccssssssssssssscsssssscscssccsssscssssscscssscccsscssssssssssscsssssssssscccssssssssccsssssscsscsscssssscccsssssssssssscssssssccssssssssssssscscscsscssssssscsssssccsssscsssssssssssssssssssssssssssscsssssscssssssccssssssccscsscscccsscsscccsssscsssssssssssssssssscccsssssscssssssccsssssscccssccsccssccsscscssssccccs" />
    <path
       style="opacity:1;fill:#000000;stroke:none;stroke-width:0.975182px;stroke-linecap:butt;stroke-linejoin:miter;stroke-opacity:1"
       d="m 155.99833,183.59251 56.51916,-37.27574 c 1.06119,-0.69988 2.87415,-0.70701 3.83524,0 l 29.3025,21.73296 c 1.28098,0.95008 3.29566,-0.22192 2.79231,-1.48026 l -6.86304,-17.1576 c -0.95494,-2.38736 -0.22859,-4.81843 1.81669,-6.39205 l 32.09481,-24.6935 c 2.35931,-1.81523 4.8714,-0.95131 6.45936,0 l 106.54147,63.82575 h 7.93107 l -69.40118,-49.38543 c -1.43246,-1.01933 -1.31455,-2.65152 0,-3.14012 l 10.7525,-3.99651 c 4.44319,-1.65144 8.40377,0.17825 11.79921,2.28373 l 87.16196,54.04802 h 7.27936 l -93.96553,-62.51682 c -4.92038,-3.27362 -10.9791,-3.73366 -16.55697,-0.47577 -3.58416,2.09341 -10.75251,6.28023 -10.75251,6.28023 -3.0004,1.75244 -6.78698,1.70977 -10.18158,0 l -25.88214,-13.03623 c -4.09503,-2.06258 -8.77359,-1.84965 -12.56046,0.47577 l -44.62769,27.40463 c -3.19072,1.95933 -6.86012,2.7232 -11.32344,0.95155 -5.29278,-2.10088 -10.68616,-2.66594 -15.03449,-0.19029 L 131.76871,181.486 Z"
       id="path54"
       sodipodi:nodetypes="cssssssssccssssccssssssssscc" />
    <path
       id="path2949"
       style="opacity:1;fill:#000000;stroke:none;stroke-width:0.975183px;stroke-linecap:butt;stroke-linejoin:miter;stroke-opacity:1"
       d="m 290.92456,149.70399 54.6668,32.44772 h 12.70303 l -57.75957,-32.44772 z"
       sodipodi:nodetypes="ccccc" />
    <path
       d="m 176.9865,243.8112 -0.0589,16.66853 -37.10662,53.36284 h 38.16681 v 16.19733 h -58.3693 v -17.31643 l 36.22312,-52.24374 H 121.44438 V 243.8112 Z"
       style="font-size:32.7278px;line-height:1.25;font-family:'Caracteres L1';-inkscape-font-specification:'Caracteres L1';letter-spacing:7.21783px;fill:#000000;stroke-width:3.01565"
       id="path6338" />
    <path
       d="m 244.66037,242.63322 q 14.25366,2.17927 21.08597,16.84522 5.83104,10.83749 5.83104,26.62254 v 1.06016 q 0,19.73132 -9.60059,33.57265 -6.83233,9.30611 -19.31899,10.42521 -1.29579,0.11794 -2.53268,0.11794 -12.95787,0 -21.73387,-10.95529 -9.07051,-14.60704 -9.18831,-29.97979 -0.0589,-1.2958 -0.0589,-2.59155 0,-20.7915 9.24721,-34.39726 6.18443,-7.42132 12.89896,-9.4828 4.65305,-1.47248 9.30611,-1.47248 2.06148,0 4.06405,0.23559 z m -4.53525,73.56535 q 6.83233,-0.35347 11.54428,-9.36501 3.41617,-6.00775 4.29965,-17.66981 0.1767,-14.84267 -5.24204,-24.32546 -4.41745,-6.59674 -9.7773,-7.36243 -7.06793,0.35339 -11.77988,9.2472 -3.35726,6.24334 -4.35855,17.90543 -0.1178,14.84263 5.35984,24.26654 4.35856,6.59672 9.954,7.30354 z"
       style="font-size:32.7278px;line-height:1.25;font-family:'Caracteres L1';-inkscape-font-specification:'Caracteres L1';letter-spacing:7.21783px;fill:#000000;stroke-width:3.01565"
       id="path6340" />
    <path
       d="m 328.23547,243.57561 21.67495,46.05932 v -46.05932 h 16.02063 l 0.059,86.46429 h -15.72614 l -26.328,-54.48193 -0.059,54.54082 h -16.19733 v -86.52318 z"
       style="font-size:32.7278px;line-height:1.25;font-family:'Caracteres L1';-inkscape-font-specification:'Caracteres L1';letter-spacing:7.21783px;fill:#000000;stroke-width:3.01565"
       id="path6342" />
    <path
       d="m 454.63859,243.7523 v 15.78504 h -35.69305 v 18.84781 h 26.15135 v 15.96173 h -26.15135 v 19.73128 h 37.22443 v 15.96174 h -53.83404 l 0.059,-86.2876 z"
       style="font-size:32.7278px;line-height:1.25;font-family:'Caracteres L1';-inkscape-font-specification:'Caracteres L1';letter-spacing:7.21783px;fill:#000000;stroke-width:3.01565"
       id="path6344" />
    <path
       id="path9698"
       style="fill:#000000;stroke:none;stroke-width:0.989756px;stroke-linecap:butt;stroke-linejoin:miter;stroke-opacity:1"
       d="m 376.32579,445.62656 -9.89755,4.88504 h 46.57469 l 1.82293,8.80337 -4.8366,2.61746 -2.49771,-9.28089 h -28.98712 l -10.839,8.28921 h 28.52322 l 4.00544,9.23836 -4.38046,3.31916 -4.43077,-9.13978 h -10.84862 l -10.58771,12.56143 h 11.34166 l 6.44878,8.91748 -3.5317,3.75606 -6.22469,-8.46709 h -11.25653 l -7.18161,14.85992 h 11.31465 l 9.3099,7.90837 -2.01827,5.21557 -10.03857,-8.2448 h -10.79463 l -5.01448,17.27245 h 11.43436 l 12.00079,5.32769 -1.40147,4.87917 -11.8887,-5.10341 h -11.5446 l -1.89638,17.38454 h 11.02845 l 13.85279,3.19737 -0.39249,4.87921 -14.07689,-1.96214 h -10.93188 v 21.53302 h 11.77466 l 13.6266,-1.56972 0.0564,4.31861 -13.34619,3.02923 h -11.95637 l 2.96543,17.88908 h 11.79593 l 11.77651,-5.94435 1.23336,4.76709 -12.28112,6.44889 h -11.14444 l 4.84828,16.83555 h 11.70884 l 9.47617,-8.48641 1.94478,5.39338 -9.08187,8.48448 h -11.4769 l 7.41544,14.50417 h 11.56196 l 6.563,-9.19583 3.47569,4.03632 -6.44886,9.64627 h -10.80999 l 9.00251,11.74182 h 12.86111 l 3.97632,-9.21713 4.09444,3.41969 -4.43073,9.92657 h -26.71575 l 8.65068,6.61707 h 29.67152 l 2.46859,-9.19587 5.04736,3.1394 -1.96406,9.08566 H 369.1196 l 11.60841,4.34755 h 46.31367 l 1.06905,-8.12874 4.8791,1.06901 v 7.13901 h 11.18115 l 0.32103,-7.76337 3.64401,-0.33614 1.40334,6.78521 10.37512,-3.64585 -1.15017,-5.32766 3.02728,-2.35452 2.04709,4.711 10.54905,-8.64493 -2.0221,-4.8366 2.53825,-3.13361 2.61742,4.87726 8.12878,-11.22177 -3.13162,-5.71042 2.10127,-3.64784 3.64785,3.96489 5.98872,-13.71941 -4.28378,-5.11694 1.58708,-5.15369 4.75747,3.68644 4.0846,-15.50364 -5.1556,-3.25148 v -4.79801 l 5.90952,2.53626 1.98337,-17.9239 -6.70203,-2.0607 0.0383,-4.12529 6.54354,0.75395 v -20.89704 l -7.01903,0.5142 -0.19682,-4.32241 6.66152,-1.94278 -1.98341,-18.51927 -6.02739,2.85516 -0.71344,-4.08273 5.47268,-4.04605 -4.30504,-16.47014 -5.43981,4.31857 -0.89693,-4.79606 4.59891,-5.49583 -6.53399,-14.35538 -4.28957,4.79411 -1.59869,-2.9731 3.36556,-5.74717 -8.49794,-11.8887 -3.39268,5.43981 -2.0761,-2.39322 2.1399,-6.14729 -10.82544,-8.56568 -2.37966,5.27355 -2.61753,-1.82293 1.27006,-5.3934 -10.2146,-3.99965 -1.84994,6.67317 -3.5337,-0.2241 -0.56064,-6.73114 -10.59928,-0.22409 -0.44848,6.56296 -4.37471,1.17726 -0.8409,-8.35688 z m -17.21433,7.02498 -12.37197,8.28921 h 14.90437 l 10.57415,-8.28921 z m -15.73369,11.70695 -10.4872,12.56143 h 12.06458 l 10.29389,-12.56143 z m 17.96061,0 -11.01488,12.56143 h 11.16375 l 10.56836,-12.56143 z m -31.0826,16.76788 -7.57016,14.85992 h 11.0942 l 7.33428,-14.85992 z m 16.89931,0 -7.44835,14.85992 h 11.67607 l 7.77694,-14.85992 z m 90.80052,1.4015 c 25.19372,0 37.83099,33.42919 37.83113,74.66681 -1.8e-4,41.23757 -13.01439,74.66701 -37.83113,74.66669 -21.82329,2.1e-4 -39.51468,-33.42917 -39.51486,-74.66669 1.5e-4,-41.23757 17.69154,-74.66702 39.51486,-74.66681 z m -116.78549,18.33756 -5.21565,17.27245 h 10.95312 l 5.48813,-17.27245 z m 16.98633,0 -4.916,17.27245 h 11.54464 l 5.05311,-17.27245 z m -23.04291,22.3759 -2.85895,17.38454 h 11.35508 l 3.07364,-17.38454 z m 16.81627,0 -2.22689,17.38454 h 11.34159 l 2.41254,-17.38454 z m -19.73136,23.49898 0.0564,21.53302 h 11.48652 v -21.53302 z m 17.25314,0 v 21.53302 h 11.81709 v -21.53302 z m -16.80462,27.31114 2.52462,17.88908 h 12.14965 l -2.98272,-17.88908 z m 17.48121,0 2.48212,17.88908 h 11.70497 l -2.82618,-17.88908 z m -13.27472,23.16071 5.0628,16.83555 h 10.81962 l -4.89267,-16.83555 z m 17.08105,0 5.04352,16.83555 h 11.63539 l -5.32386,-16.83555 z m -10.07547,22.227 7.4638,14.50417 h 11.34738 l -8.03984,-14.50417 z m 17.56433,0 7.40962,14.50417 h 11.53498 l -7.79636,-14.50417 z m -6.34455,18.99093 9.30998,11.74182 h 13.05631 l -10.25132,-11.74182 z m 18.40722,0 9.52261,11.74182 h 11.28159 L 364.646,638.43009 Z m -2.77407,15.87095 9.71397,6.61707 h 13.55119 l -11.56399,-6.61707 z"
       sodipodi:nodetypes="cccccccccccccccccccccccccccccccccccccccccccccccccccccccccccccccccccccccccccccccccccccccccccccccccccccccccccccccccccccccccccccccccccccccccccccccccccccccccccccccccccccccccccccccccccccccccccccccccccccccccccccccccccccccccccccccccccccccccccccccccccc" />
    <path
       id="path12266"
       style="fill:#000000;stroke:none;stroke-width:37.3697;stroke-linecap:round;stroke-linejoin:round;stroke-dashoffset:1.04504;paint-order:stroke fill markers"
       d="m 436.97745,485.89154 c -3.74555,0.0111 -8.02668,1.14037 -11.57958,3.56079 18.141,7.18147 23.69182,37.20553 23.69252,67.32475 -0.0111,30.7716 -3.71636,57.36255 -23.017,68.08855 3.80243,2.7992 7.81361,3.75639 11.85579,3.75959 23.76775,-9.2e-4 34.04158,-31.82947 34.04158,-71.28754 0,-39.45806 -10.82433,-71.44614 -34.99331,-71.44614 z"
       sodipodi:nodetypes="cccccsc" />
    <path
       style="color:#000000;fill:#000000;stroke-width:3.74084;-inkscape-stroke:none"
       d="m 425.25715,522.08125 -7.1382,15.13133 -1.61468,-2.14804 -10.22146,24.13993 h 2.16264 34.17147 l -9.83428,-25.3016 -2.95175,0.55525 z m -0.3214,7.37935 3.04667,8.25608 2.99561,-0.56255 7.45241,19.19357 h -27.82965 l 6.59761,-15.58428 1.47585,1.96538 z"
       id="path12575" />
    <path
       id="path14490"
       style="fill:#000000;stroke:none;stroke-width:1.0239px;stroke-linecap:butt;stroke-linejoin:miter;stroke-opacity:1"
       d="m 421.12585,541.56341 c -0.1607,0.004 -0.32103,0.0457 -0.46971,0.13158 -0.47561,0.27532 -0.63712,0.88535 -0.36157,1.36092 0.004,0.0111 0.007,0.0111 0.011,0.0221 -0.15627,0.007 -0.30849,0.0505 -0.44461,0.12974 -0.47435,0.27459 -0.63612,0.88373 -0.36304,1.35897 0.27569,0.47347 0.8803,0.63523 1.35506,0.36157 0.30997,-0.17876 0.65038,-0.12605 0.83902,0.2005 l 1.01874,1.76691 -0.44657,0.77326 h -2.09165 c -0.3772,0 -0.59348,-0.26648 -0.59348,-0.62443 -4.8e-4,-0.548 -0.44387,-0.99206 -0.99161,-0.9936 -0.0184,3e-5 -0.0332,-8.9e-4 -0.0501,0 -0.52419,0.0258 -0.94289,0.4627 -0.94337,0.9936 0,0.15701 0.0383,0.31255 0.108,0.45235 -0.0111,-1.2e-4 -0.0184,-1.2e-4 -0.0258,0 -0.54951,-6.3e-4 -0.99688,0.44409 -0.99747,0.99367 5.9e-4,0.54947 0.44796,0.99423 0.99747,0.9936 0.011,1.1e-4 0.0147,1.1e-4 0.0258,0 -0.0704,0.14006 -0.10836,0.29523 -0.108,0.45231 4.8e-4,0.54811 0.44579,0.99209 0.99364,0.99368 0.54781,-0.002 0.99113,-0.44557 0.99161,-0.99368 0,-0.35751 0.21635,-0.62436 0.59348,-0.62436 h 2.09364 l 0.44457,0.76936 -1.02069,1.76687 c -0.18834,0.32692 -0.52923,0.38162 -0.83891,0.20308 -0.4749,-0.27348 -1.07936,-0.11168 -1.3552,0.36157 -0.27238,0.4752 -0.11094,1.08442 0.36304,1.35897 0.13601,0.0789 0.28823,0.12199 0.44458,0.12973 -0.004,0.0111 -0.007,0.0111 -0.0111,0.0221 -0.27533,0.47561 -0.11426,1.0856 0.36194,1.36092 0.1489,0.0855 0.3096,0.12753 0.46967,0.13158 h 0.002 c 0.35272,0.007 0.70065,-0.17139 0.88929,-0.49872 0.004,-0.007 0.007,-0.0111 0.0111,-0.0221 0.0862,0.13047 0.20013,0.24252 0.33614,0.32103 0.46001,0.26463 1.0491,0.12015 1.33386,-0.32103 h -0.002 c 0.0111,-0.0147 0.0148,-0.0295 0.0258,-0.0446 0.27238,-0.47509 0.10873,-1.08051 -0.36525,-1.35509 -0.30997,-0.17876 -0.4323,-0.49891 -0.24363,-0.82546 l 1.05349,-1.82488 h 0.69985 l 1.04579,1.8133 c 0.18834,0.32656 0.0663,0.64663 -0.24363,0.82543 -0.47472,0.27458 -0.63553,0.88192 -0.36378,1.35701 0.0111,0.0147 0.0147,0.0258 0.0258,0.0424 0.28454,0.44071 0.87186,0.5857 1.33192,0.32103 0.13637,-0.0785 0.24989,-0.19055 0.33613,-0.32103 0.004,0.0111 0.007,0.0148 0.0111,0.0221 0.27422,0.47623 0.88285,0.64143 1.35904,0.3671 0.47579,-0.27533 0.63848,-0.88532 0.36342,-1.36089 -0.004,-0.011 -0.007,-0.011 -0.0111,-0.0221 0.15664,-0.007 0.30849,-0.0523 0.44472,-0.13158 0.47457,-0.27459 0.63619,-0.88178 0.36304,-1.35705 -0.27569,-0.47321 -0.88015,-0.63509 -1.35506,-0.3612 -0.30997,0.17839 -0.6485,0.1231 -0.83703,-0.20309 l -1.01873,-1.76299 0.4407,-0.76166 h 2.09165 c 0.37731,0 0.59344,0.26648 0.59344,0.62436 5.2e-4,0.54811 0.44391,0.99165 0.99176,0.99368 0.54781,-0.002 0.99301,-0.44561 0.99364,-0.99368 2.9e-4,-0.15701 -0.038,-0.31255 -0.10836,-0.45231 0.0111,1.1e-4 0.0147,1.1e-4 0.0258,0 0.54958,6.3e-4 0.99688,-0.44413 0.99754,-0.9936 -6.6e-4,-0.54958 -0.44796,-0.9943 -0.99754,-0.99364 -0.007,-1.4e-4 -0.0147,-1.4e-4 -0.0258,0 0.0697,-0.14006 0.10836,-0.29522 0.10836,-0.45238 -6.3e-4,-0.5309 -0.41918,-0.9674 -0.94344,-0.9936 -0.0184,-8.9e-4 -0.0295,3e-5 -0.0501,0 -0.54777,0.002 -0.99124,0.4456 -0.99175,0.9936 0,0.35751 -0.21636,0.62443 -0.59344,0.62443 h -2.0897 l -0.44074,-0.76552 1.01877,-1.763 c 0.18834,-0.32656 0.52717,-0.37945 0.83707,-0.20124 0.47476,0.27348 1.07933,0.1091 1.35509,-0.36305 0.27275,-0.47527 0.11094,-1.0825 -0.36341,-1.35705 -0.13637,-0.0789 -0.28822,-0.12199 -0.44461,-0.12974 0.004,-0.011 0.007,-0.011 0.0111,-0.0221 0.27532,-0.47553 0.11278,-1.08556 -0.36342,-1.36088 -0.47619,-0.27422 -1.08474,-0.10873 -1.35893,0.36746 -0.004,0.007 -0.007,0.0111 -0.0111,0.0221 -0.0863,-0.13048 -0.20014,-0.24252 -0.33614,-0.32103 -0.46002,-0.26463 -1.04727,-0.11978 -1.33195,0.32103 -0.0111,0.0147 -0.0147,0.0258 -0.0258,0.0424 -0.27238,0.47512 -0.11131,1.0825 0.36378,1.35705 0.30997,0.17875 0.43208,0.4989 0.24363,0.82542 l -1.04391,1.81135 h -0.70372 l -1.05161,-1.82293 c -0.18834,-0.32655 -0.0663,-0.64666 0.24362,-0.82545 0.47428,-0.27459 0.63756,-0.88001 0.36563,-1.3551 -0.0111,-0.0147 -0.0147,-0.0295 -0.0258,-0.0446 h 0.002 c -0.2849,-0.44078 -0.87377,-0.58563 -1.33379,-0.32103 -0.13637,0.0785 -0.24989,0.19056 -0.33614,0.32103 -0.004,-0.0111 -0.007,-0.0147 -0.0111,-0.0221 -0.18834,-0.3273 -0.53627,-0.50716 -0.88922,-0.49876 z" />
  </g>
</svg>
