<?xml version="1.0" encoding="UTF-8" standalone="no"?>
<!-- Created with Inkscape (http://www.inkscape.org/) -->

<svg
   width="132.29167mm"
   height="201.08974mm"
   viewBox="0 0 132.29167 201.08974"
   version="1.1"
   id="svg5"
   inkscape:version="1.1.1 (3bf5ae0d25, 2021-09-20)"
   sodipodi:docname="dessin-4 - Copie.svg"
   xmlns:inkscape="http://www.inkscape.org/namespaces/inkscape"
   xmlns:sodipodi="http://sodipodi.sourceforge.net/DTD/sodipodi-0.dtd"
   xmlns="http://www.w3.org/2000/svg"
   xmlns:svg="http://www.w3.org/2000/svg">
  <sodipodi:namedview
     id="namedview7"
     pagecolor="#ffffff"
     bordercolor="#666666"
     borderopacity="1.0"
     inkscape:pageshadow="2"
     inkscape:pageopacity="0.0"
     inkscape:pagecheckerboard="0"
     inkscape:document-units="mm"
     showgrid="false"
     inkscape:zoom="0.35355339"
     inkscape:cx="606.69762"
     inkscape:cy="832.97179"
     inkscape:window-width="1920"
     inkscape:window-height="1001"
     inkscape:window-x="-9"
     inkscape:window-y="-9"
     inkscape:window-maximized="1"
     inkscape:current-layer="layer1"
     inkscape:lockguides="false" />
  <defs
     id="defs2">
    <pattern
       id="EMFhbasepattern"
       patternUnits="userSpaceOnUse"
       width="6"
       height="6"
       x="0"
       y="0" />
  </defs>
  <g
     inkscape:label="Calque 1"
     inkscape:groupmode="layer"
     id="layer1"
     transform="translate(617.28803,-71.775156)">
    <path
       style="color:#000000;opacity:1;fill:#000000;fill-opacity:1;stroke-width:0.975182;stroke-linecap:round;stroke-linejoin:round;stroke-dashoffset:1.04504;-inkscape-stroke:none;paint-order:stroke fill markers"
       d="m -608.34948,71.775156 c -4.87037,0 -8.93855,4.068182 -8.93855,8.938549 V 263.92443 c 0,4.87037 4.06818,8.94046 8.93855,8.94046 h 114.41266 c 4.87038,0 8.94046,-4.07009 8.94046,-8.94046 V 80.713705 c 0,-4.870367 -4.07008,-8.938549 -8.94046,-8.938549 z"
       id="path17941"
       sodipodi:nodetypes="sssssssss" />
    <path
       style="color:#000000;opacity:1;fill:#ffffff;stroke-width:9.4934;stroke-linecap:round;stroke-linejoin:round;stroke-dashoffset:1.04504;-inkscape-stroke:none;paint-order:stroke fill markers"
       d="m -608.34923,76.521432 h 114.41287 c 2.3228,0 4.19278,1.86998 4.19278,4.192783 V 263.92475 c 0,2.32279 -1.86998,4.19277 -4.19278,4.19277 h -114.41287 c -2.3228,0 -4.19278,-1.86998 -4.19278,-4.19277 V 80.714215 c 0,-2.322803 1.86998,-4.192783 4.19278,-4.192783 z"
       id="path17943" />
    <path
       id="path18258"
       style="opacity:1;fill:#000000;stroke-width:0.0924677"
       d="m -582.76977,176.09329 c -0.0814,0.001 -0.1668,0.005 -0.26052,0.0101 -1.0832,0.0586 -1.6444,0.45965 -1.96427,1.40362 -0.0879,0.25944 -0.11746,0.87092 -0.11746,2.43868 0,1.60599 -0.0242,2.09288 -0.10407,2.09174 -0.13969,-0.001 -1.67731,-0.24449 -3.55968,-0.56345 -0.84725,-0.14358 -2.08373,-0.35232 -2.74777,-0.46381 -1.95493,-0.32823 -1.71923,-0.34829 -8.95117,0.76541 -3.36063,0.51752 -3.44631,0.53695 -4.39661,1.00017 -1.5395,0.7504 -2.54677,1.94908 -3.04775,3.62665 -0.22402,0.75016 -0.16546,4.38723 -0.17045,26.60208 -0.005,22.6515 0.0608,20.93058 0.58273,22.00235 0.61132,1.25539 1.63644,2.14304 3.00389,2.70598 l 7.2274,-8.62146 c -0.0206,-3.29709 -0.0284,-9.04346 -0.0305,-19.12049 -0.003,-15.19391 0.0509,-20.22723 0.0509,-22.04813 0.003,-1.27037 0.54467,-2.80295 1.95205,-3.9752 0.87387,-0.6023 2.21716,-0.75077 4.07088,-0.45011 0.59535,0.0966 2.11289,0.33867 3.3723,0.53799 4.54795,0.71979 6.79013,1.08151 6.9944,1.12851 0.1145,0.0263 0.37679,0.0721 0.58288,0.10157 0.20609,0.0294 1.08662,0.17222 1.95677,0.31734 0.87014,0.14511 1.99438,0.32898 2.49813,0.40846 0.50377,0.0795 1.62784,0.26296 2.49799,0.40786 0.87015,0.14493 2.14414,0.35624 2.83108,0.46955 0.68696,0.11332 1.62362,0.27222 2.08159,0.35326 0.8119,0.14357 2.47161,0.42292 5.46713,0.9223 l 1.5124,-1.80413 c -0.17778,-0.0331 -0.32588,-0.0617 -0.4847,-0.091 -0.64116,-0.11827 -1.6341,-0.303 -2.20655,-0.41052 -0.57246,-0.10752 -1.20945,-0.22335 -1.41554,-0.25758 -0.94376,-0.15643 -2.66605,-0.46927 -3.08087,-0.55948 -0.44092,-0.0959 -2.37232,-0.44227 -3.18022,-0.57037 l -0.3908,-0.0621 0.019,-3.4802 c 0.006,-1.1361 -0.6712,-1.74713 -1.35255,-1.97192 l -6.62789,-2.18669 c -1.66899,-0.55926 -2.04259,-0.66624 -2.61221,-0.65706 z m 0.53225,2.19374 c 0.11149,5.7e-4 0.27033,0.0371 0.54799,0.10995 0.33885,0.0889 0.99069,0.24901 1.44867,0.35562 1.05691,0.24601 4.2605,1.04156 5.62066,1.39582 1.52437,0.39703 1.41554,0.21997 1.41554,2.30296 -10e-6,1.33137 -0.0248,1.74009 -0.10422,1.73229 -0.0572,-0.006 -0.92833,-0.16484 -1.93586,-0.35341 -1.00753,-0.18857 -2.65621,-0.48467 -3.66374,-0.65809 -1.00753,-0.17341 -2.03798,-0.35908 -2.28987,-0.41272 -0.25188,-0.0536 -0.69215,-0.12844 -0.97838,-0.16618 l -0.52047,-0.0684 v -1.98679 c 0,-1.97235 10e-4,-1.98781 0.19577,-2.14487 0.0882,-0.0711 0.15242,-0.10666 0.26391,-0.10613 z m 7.80484,10.7522 c -0.49315,-0.004 -1.08948,0.004 -1.81135,0.0194 -2.81087,0.0618 -3.24085,0.0939 -4.3626,0.32588 -0.68349,0.14137 -1.00812,0.34427 -1.00812,0.62999 0,0.0772 -0.0843,0.18298 -0.18737,0.23506 -2.02443,1.02435 -2.78513,1.51026 -4.14257,2.64592 -0.20609,0.17241 -0.74929,0.46594 -1.20726,0.65235 -0.92282,0.37563 -1.1241,0.5308 -1.1241,0.86622 0,0.12492 -0.0815,0.46907 -0.1812,0.76481 -0.14441,0.42848 -0.16169,0.57621 -0.0851,0.72757 0.0807,0.15934 0.0376,0.29783 -0.26731,0.85857 -0.53443,0.98283 -1.29172,2.93115 -1.68446,4.33361 -0.1563,0.5582 -0.30659,0.87226 -0.58228,1.21713 -0.20439,0.25566 -0.42401,0.46484 -0.48794,0.46484 -0.31705,0 -0.4935,0.8981 -0.25333,1.28969 0.0672,0.10963 0.12416,0.3148 0.12615,0.45599 0.005,0.31005 0.0777,0.45499 0.27407,0.54432 0.10106,0.0461 0.13535,0.1407 0.10804,0.30057 -0.2074,1.21559 -0.30548,5.77922 -0.17207,8.00354 0.0472,0.7865 0.0365,0.88005 -0.12011,1.05477 -0.0945,0.10546 -0.17177,0.31755 -0.17177,0.47132 0,0.15376 -0.0563,0.33721 -0.12497,0.40742 -0.0687,0.0703 -0.12481,0.28387 -0.12481,0.47455 0,0.28206 0.0892,0.46162 0.47823,0.96292 0.26303,0.33892 0.52206,0.6163 0.57551,0.6163 0.0535,0 0.19621,0.40428 0.3172,0.89845 0.1789,0.73073 0.39712,1.47434 0.63204,2.17594 l 2.44412,-2.91557 c -0.0984,-0.0529 -0.17865,-0.11112 -0.21873,-0.17605 -0.0815,-0.13197 -0.18717,-0.29776 -0.23477,-0.36827 -0.0526,-0.0781 -0.29393,-0.12835 -0.61482,-0.12835 -0.47039,0 -0.53326,0.0242 -0.57493,0.22064 -0.044,0.2074 -0.0831,0.2172 -0.655,0.16191 -0.68039,-0.0657 -1.21431,-0.29961 -1.29102,-0.56551 -0.028,-0.097 -0.13953,-0.26885 -0.24802,-0.38181 -0.18173,-0.18926 -0.19301,-0.25555 -0.14204,-0.84518 0.0542,-0.62703 0.0609,-0.64102 0.33545,-0.70461 0.32668,-0.0756 1.25578,0.11981 1.46264,0.30763 0.0784,0.0711 0.17837,0.24625 0.22241,0.38903 0.086,0.279 0.35443,0.39109 0.93614,0.39109 0.26842,0 0.32265,-0.035 0.32265,-0.20798 0,-0.32395 0.36095,-0.43619 1.20741,-0.37593 0.6818,0.0486 0.98504,0.11813 1.14544,0.31175 l 4.31537,-5.14773 -0.001,-0.53725 c -0.0104,-3.88166 -0.0174,-4.05326 -0.17457,-4.23382 -0.099,-0.11372 -0.16383,-0.3223 -0.16383,-0.52709 0,-0.26354 -0.0472,-0.36542 -0.2121,-0.45806 -0.30346,-0.17048 -0.42848,-0.14812 -0.47808,0.0857 -0.0634,0.29924 -0.27579,0.3577 -0.75685,0.20813 -0.45514,-0.1415 -1.22484,-0.57931 -1.31133,-0.74582 -0.0287,-0.0553 -0.0349,-0.18301 -0.0136,-0.28364 0.0324,-0.15264 -0.0256,-0.18923 -0.34943,-0.22093 -0.45742,-0.0449 -0.47771,-0.0326 -0.65721,0.39948 -0.0821,0.19756 -0.23021,0.3641 -0.36548,0.41081 -0.3482,0.12014 -1.43871,0.0807 -1.78882,-0.0646 -0.26562,-0.11026 -0.31219,-0.17437 -0.31219,-0.42965 0,-0.32537 -0.0796,-0.35748 -0.5795,-0.23419 -0.19317,0.0476 -0.30289,0.15857 -0.39653,0.40066 -0.15923,0.41176 -0.36973,0.53633 -1.04168,0.61629 -0.69585,0.0828 -1.19372,-0.0532 -1.17165,-0.31985 0.009,-0.10907 -0.0259,-0.37515 -0.0776,-0.59126 -0.0912,-0.38113 -0.0848,-0.40328 0.21255,-0.7392 0.16858,-0.19045 0.30659,-0.41684 0.30659,-0.50295 0,-0.37883 0.99147,-0.65412 1.79015,-0.49707 0.36956,0.0727 0.41644,0.11059 0.41758,0.33692 10e-4,0.2347 0.0358,0.25748 0.43348,0.28585 0.42196,0.0301 0.43711,0.0214 0.63778,-0.37063 0.14602,-0.28526 0.28271,-0.42062 0.47205,-0.46734 0.47737,-0.11772 1.40828,-0.07 1.71463,0.0879 0.25213,0.13002 0.29038,0.19072 0.24831,0.39742 -0.0442,0.21738 -0.0158,0.25107 0.26142,0.30851 0.25389,0.0526 0.33798,0.0246 0.45688,-0.1522 0.0801,-0.11912 0.14572,-0.27777 0.14572,-0.35237 0,-0.35338 0.86303,-0.18891 1.67666,0.31955 0.40609,0.25379 0.42275,0.28059 0.37931,0.61055 -0.0496,0.37649 0.0284,0.50868 0.36033,0.61144 0.1767,0.0547 0.22314,0.0174 0.30291,-0.24316 0.0902,-0.2948 0.10698,-0.30348 0.39566,-0.20519 0.29974,0.10208 0.46571,0.0611 0.46571,-0.11481 0,-0.0507 0.41119,-1.11688 0.91391,-2.36934 l 0.91407,-2.2772 -0.20622,-0.30219 c -0.21819,-0.31983 -0.26044,-0.54133 -0.12305,-0.64602 0.15575,-0.11872 0.0841,-0.43785 -0.13895,-0.61806 -0.17461,-0.14111 -0.25478,-0.15461 -0.37358,-0.0631 -0.24871,0.19155 -0.48429,0.13559 -1.03755,-0.24595 -0.60744,-0.41891 -0.81241,-0.70904 -0.69386,-0.98222 0.0958,-0.22083 0.0576,-0.25356 -0.40625,-0.34825 -0.29402,-0.06 -0.39367,-0.0369 -0.54122,0.12556 -0.33322,0.36686 -0.68592,0.46958 -1.41996,0.41301 -0.73188,-0.0563 -1.0914,-0.21007 -1.02092,-0.43656 0.0307,-0.0986 -0.0754,-0.15747 -0.37534,-0.20828 -0.37748,-0.064 -0.44001,-0.045 -0.64426,0.19636 -0.36108,0.42661 -1.60625,0.59353 -2.22907,0.29879 -0.12491,-0.0591 -0.15211,-0.39899 -0.0389,-0.48528 0.0402,-0.0306 0.11613,-0.26616 0.16868,-0.52357 0.0579,-0.28375 0.1521,-0.48872 0.23919,-0.52032 0.079,-0.0287 0.28187,-0.14213 0.45085,-0.252 0.75707,-0.49224 2.24251,-0.45158 2.40202,0.0658 0.11861,0.38475 0.61423,0.34555 0.96735,-0.0765 0.32642,-0.39 0.66975,-0.47455 1.55051,-0.38122 0.69243,0.0734 0.9254,0.21194 0.84988,0.50545 -0.0532,0.20685 0.0796,0.28226 0.5633,0.3197 0.17155,0.0133 0.35701,-0.0315 0.41214,-0.0995 0.23161,-0.28562 0.86091,0.0145 1.42011,0.67738 0.34928,0.41402 0.36839,0.49248 0.18193,0.74655 -0.11914,0.16231 -0.11427,0.19611 0.0573,0.39315 0.22473,0.25816 0.38388,0.27218 0.58199,0.0511 0.13523,-0.1509 0.16961,-0.1509 0.41493,0 0.14709,0.0905 0.31144,0.16457 0.36548,0.16457 0.054,0 0.43519,-0.21953 0.84709,-0.48779 3.06491,-1.99617 2.9342,-1.89862 2.98784,-2.22937 0.0941,-0.58031 0.12704,-0.65094 0.33266,-0.71462 0.17607,-0.0545 0.20518,-0.12287 0.20518,-0.4819 0,-0.329 -0.0348,-0.42967 -0.16294,-0.47101 -0.21578,-0.0696 -0.34013,-0.56755 -0.31529,-1.26306 l 0.0202,-0.56477 h -2.95591 c -2.00173,0 -3.22107,0.0444 -3.77723,0.13733 -0.53057,0.0885 -0.84998,0.1019 -0.90214,0.0375 -0.12383,-0.15271 0.22836,-0.49934 0.58333,-0.57404 0.70667,-0.14888 3.829,-0.36941 5.22014,-0.36828 1.95982,0.001 2.9186,0.12358 3.15991,0.40316 0.0998,0.11567 0.2437,0.21034 0.3197,0.21034 0.20424,0 0.39227,0.53499 0.39227,1.116 0,0.64756 -0.058,0.82829 -0.30277,0.94306 -0.15603,0.0731 -0.1968,0.16792 -0.1968,0.45732 0,0.25817 0.0427,0.38138 0.14572,0.42068 0.31355,0.11948 0.39726,0.23102 0.44496,0.59215 0.0272,0.20625 0.0647,0.38938 0.0833,0.40684 0.0822,0.0773 1.35507,1.03959 2.25674,1.70919 l 1.74967,-2.08733 c -0.83492,-0.86808 -1.68305,-1.54686 -2.75588,-2.20566 -1.04455,-0.64146 -1.12403,-0.71139 -1.26364,-1.11159 -0.0925,-0.26527 -0.22229,-0.45452 -0.34251,-0.49957 -0.10647,-0.0399 -0.27358,-0.16254 -0.37136,-0.27275 -0.22713,-0.25597 -0.77804,-0.36312 -2.25748,-0.37386 z m 1.83165,1.45131 c -0.39275,-0.007 -0.39573,-0.005 -0.40169,0.33486 -0.006,0.32772 0.008,0.34324 0.3331,0.37328 0.44385,0.0411 0.46409,0.0251 0.46409,-0.36725 0,-0.32873 -0.006,-0.33406 -0.3955,-0.34089 z m 0.25861,3.28488 c -0.0245,0.004 -0.0502,0.0296 -0.0751,0.0792 -0.0347,0.0691 -0.16716,0.0881 -0.33884,0.0484 -0.26923,-0.0623 -0.28187,-0.0515 -0.28187,0.24125 0,0.27863 0.0284,0.31011 0.31219,0.34678 0.17175,0.0221 0.3592,0.0477 0.41641,0.0576 0.0658,0.0109 0.10406,-0.11278 0.10406,-0.33619 0,-0.27428 -0.0633,-0.44995 -0.13689,-0.43701 z m -14.26551,0.48234 c -0.35948,0 -0.4192,0.0284 -0.4192,0.1993 0,0.10962 -0.0375,0.22773 -0.0833,0.26273 -0.12852,0.0979 -0.0987,0.23649 0.0626,0.29101 0.28611,0.0967 0.64523,0.021 0.6491,-0.13689 0.002,-0.0847 0.0503,-0.25798 0.10702,-0.38506 0.10084,-0.22617 0.0937,-0.23109 -0.31617,-0.23109 z m 3.57764,0 c -0.35834,0 -0.41641,0.0281 -0.41641,0.2018 0,0.11098 -0.0834,0.25683 -0.18546,0.32412 -0.18015,0.11886 -0.18071,0.12466 -0.0208,0.20179 v 1.6e-4 c 0.0906,0.0436 0.30516,0.0825 0.4769,0.0864 0.25198,0.006 0.3122,-0.03 0.3122,-0.18561 0,-0.10604 0.0563,-0.25037 0.12496,-0.32058 0.2177,-0.22283 0.13705,-0.30808 -0.29144,-0.30808 z m 2.71259,0.6235 -0.0864,0.33001 c -0.0592,0.22591 -0.14711,0.34081 -0.27863,0.36371 -0.24595,0.043 -0.21152,0.14936 0.15043,0.46425 0.33944,0.29536 0.44773,0.29065 0.48485,-0.0208 0.0148,-0.12401 0.11957,-0.30025 0.23285,-0.39183 l 0.20593,-0.16646 -0.35445,-0.28939 z m 8.75849,0.18723 -0.12805,0.22535 c -0.12165,0.21404 -0.16892,0.22219 -0.95881,0.1628 -0.58068,-0.0436 -0.87432,-0.1109 -0.97514,-0.22344 -0.1326,-0.14798 -0.22076,-0.11097 -1.09202,0.45748 -0.52133,0.3401 -1.22045,0.79217 -1.55361,1.00457 -0.5564,0.35467 -0.60188,0.40789 -0.55844,0.65207 0.0377,0.21164 -0.0428,0.41063 -0.39433,0.97558 -0.24532,0.39421 -0.56213,0.7782 -0.7127,0.86372 -0.2387,0.13563 -0.38038,0.4268 -1.18578,2.43735 -0.50306,1.25583 -0.91464,2.30905 -0.91464,2.34034 0,0.0313 0.0832,0.19552 0.18472,0.36489 l 0.18458,0.30792 -0.1491,0.89287 c -0.17475,1.04694 -0.24881,1.19186 -0.56934,1.11277 l -0.2336,-0.0576 v 2.63237 l 2.01667,-2.40569 c 0.54351,-4.25606 2.00057,-7.8496 3.73087,-9.06274 0.72812,0.50996 1.34944,1.33897 1.86095,2.3923 l 2.06451,-2.46281 c -0.52096,-0.35805 -1.02617,-0.47995 -1.80428,-0.48662 -0.70046,-0.006 -1.0017,0.0356 -1.28027,0.17635 -0.4149,0.20952 -0.56281,0.16453 -0.20548,-0.0626 0.69355,-0.44074 1.65496,-0.58803 2.44323,-0.37417 0.36152,0.0981 0.7156,0.26543 1.0592,0.49368 l 0.92583,-1.10452 c -0.26929,-0.18304 -0.70698,-0.48995 -1.05816,-0.74537 z m -6.52515,1.87552 c -0.0799,-0.01 -0.11643,0.0637 -0.11643,0.21975 0,0.28321 -0.14451,0.48265 -0.34972,0.48265 -0.21511,0 -0.18663,0.10035 0.12069,0.42479 0.34345,0.36257 0.46107,0.3655 0.49412,0.0124 0.018,-0.1926 0.10319,-0.32692 0.26951,-0.42479 l 0.24316,-0.14308 -0.28481,-0.29129 c -0.1735,-0.17743 -0.29664,-0.27057 -0.37652,-0.2804 z m -8.514,5.77948 -0.44555,0.006 -0.0261,0.43053 c -0.0227,0.3751 -0.003,0.43444 0.15411,0.46204 v -1.5e-4 c 0.15221,0.0267 0.43375,0.0219 0.65117,-0.0113 0.0301,-0.005 0.0347,-0.10229 0.0103,-0.21711 -0.0253,-0.11936 0.0161,-0.29082 0.0965,-0.40051 0.17596,-0.23979 0.11604,-0.27604 -0.44054,-0.26921 z m 2.77014,0.17324 c -0.0321,0.009 -0.0263,0.0632 0.005,0.18384 0.0396,0.15376 0.0112,0.29306 -0.087,0.42686 -0.16922,0.23059 -0.16887,0.23125 0.21402,0.43569 0.41091,0.21941 0.49971,0.20677 0.49971,-0.0717 0,-0.13428 0.0561,-0.30175 0.12482,-0.37196 0.18493,-0.18925 0.15701,-0.24569 -0.18738,-0.37872 -0.17173,-0.0663 -0.38206,-0.15392 -0.46748,-0.19459 -0.0493,-0.0234 -0.0822,-0.0346 -0.10141,-0.0294 z m -6.70929,0.0893 0.0531,0.29822 c 0.0305,0.1711 0.0155,0.32695 -0.035,0.36548 -0.0485,0.037 -0.0882,0.11315 -0.0882,0.16941 0,0.0577 0.16926,0.0887 0.38873,0.071 0.34749,-0.028 0.39013,-0.0586 0.40361,-0.28805 0.008,-0.14119 0.0436,-0.33754 0.0783,-0.43642 0.0556,-0.15805 0.0111,-0.17959 -0.36872,-0.17959 z m 9.47797,1.44955 c -0.0582,-0.0103 -0.0589,0.0347 -0.0292,0.13026 0.0244,0.0782 -0.0104,0.2383 -0.0771,0.35577 -0.11323,0.19937 -0.10029,0.23058 0.19371,0.46792 v -1.5e-4 c 0.40449,0.32661 0.43981,0.32489 0.43981,-0.0212 0,-0.15814 0.0419,-0.33914 0.0932,-0.40242 0.0687,-0.0847 0.004,-0.17093 -0.24655,-0.32854 -0.2001,-0.12569 -0.31568,-0.19133 -0.37386,-0.20165 z m -9.85051,10.97328 0.0169,0.43746 c 0.0158,0.40985 0.0344,0.44141 0.29689,0.50089 v 1.5e-4 c 0.6306,0.14295 0.64354,0.13537 0.59377,-0.3459 -0.0248,-0.24002 -0.0495,-0.44136 -0.0545,-0.4482 -0.005,-0.007 -0.19926,-0.0417 -0.43126,-0.0782 z m 3.96623,0.61806 c -0.37694,0 -0.52863,0.10775 -0.34694,0.24625 0.0381,0.0291 0.0526,0.19357 0.0321,0.36548 l -0.0371,0.31249 h 0.19724 l 0.56845,-0.67812 c -0.004,-0.22895 -0.0416,-0.2461 -0.41375,-0.2461 z m 31.98371,1.07567 -1.35152,1.6122 c -0.0444,7.93988 -0.0941,9.08644 -0.23403,9.76116 -0.18842,0.90851 -0.55322,1.6831 -1.02932,2.18565 -0.34691,0.36619 -1.15705,0.88581 -1.57598,1.01091 -0.23947,0.0715 -2.343,0.41595 -3.18743,0.52194 -0.27478,0.0345 -0.74312,0.10636 -1.04079,0.1597 -0.29769,0.0533 -1.14085,0.19322 -1.87361,0.31087 -0.73275,0.11765 -1.72567,0.28047 -2.20655,0.3618 -0.35518,0.0601 -0.70885,0.11357 -0.97646,0.15102 l -2.11176,2.51904 c 1.38972,-0.24323 3.25823,-0.56911 6.83514,-1.1924 4.11171,-0.71648 4.87787,-0.87705 5.42504,-1.13662 1.64325,-0.82362 3.27678,-3.26021 3.27678,-5.47096 l 0.0399,-7.71108 c 0.004,-0.80277 0.007,-2.09153 0.0106,-3.08323 z" />
    <path
       style="opacity:1;fill:#000000;stroke:none;stroke-width:0.258017px;stroke-linecap:butt;stroke-linejoin:miter;stroke-opacity:1"
       d="m -586.04025,111.26027 14.95403,-9.86254 c 0.28077,-0.18517 0.76045,-0.18706 1.01474,0 l 7.75295,5.75018 c 0.33893,0.25138 0.87198,-0.0587 0.7388,-0.39165 l -1.81585,-4.53962 c -0.25266,-0.63165 -0.0605,-1.27487 0.48067,-1.69122 l 8.49175,-6.533495 c 0.62424,-0.480277 1.28889,-0.2517 1.70904,0 l 28.1891,16.887235 h 2.09843 l -18.3624,-13.066564 c -0.379,-0.269699 -0.34781,-0.70155 0,-0.830823 l 2.84494,-1.057414 c 1.17559,-0.436941 2.22349,0.04717 3.12187,0.60424 l 23.0616,14.300201 h 1.926 L -534.6963,94.287893 c -1.30185,-0.866143 -2.90488,-0.987864 -4.38069,-0.125878 -0.94831,0.553879 -2.84494,1.661641 -2.84494,1.661641 -0.79386,0.463669 -1.79572,0.45238 -2.69387,0 l -6.84799,-3.449167 c -1.08348,-0.545726 -2.32134,-0.489385 -3.32329,0.125879 l -11.80774,7.250811 c -0.84421,0.518401 -1.81507,0.720511 -2.99599,0.251761 -1.40039,-0.555855 -2.82738,-0.705359 -3.97788,-0.05034 l -18.88231,10.75033 z"
       id="path54"
       sodipodi:nodetypes="cssssssssccssssccssssssssscc" />
    <path
       id="path2949"
       style="opacity:1;fill:#000000;stroke:none;stroke-width:0.258017px;stroke-linecap:butt;stroke-linejoin:miter;stroke-opacity:1"
       d="m -550.34102,102.29394 14.46392,8.58512 h 3.36102 l -15.28222,-8.58512 z"
       sodipodi:nodetypes="ccccc" />
    <path
       id="path9698"
       style="opacity:1;fill:#000000;stroke:none;stroke-width:0.261873px;stroke-linecap:butt;stroke-linejoin:miter;stroke-opacity:1"
       d="m -524.35191,180.59014 -1.08333,1.29249 h 7.39417 l 0.4822,2.32915 -1.27968,0.69254 -0.66075,-2.45544 h -6.41064 l -1.83857,2.19315 h 5.25858 l 1.05978,2.44426 -1.15899,0.87815 -1.17224,-2.41821 h -2.87038 l -2.80135,3.32358 h 3.0008 l 1.70624,2.35948 -0.93437,0.9937 -1.64693,-2.24026 h -2.97842 l -1.9001,3.93178 h 2.99373 l 2.46325,2.09233 -0.53401,1.38007 -2.65607,-2.18153 h -2.85611 l -1.32679,4.57 h 3.02539 l 3.17521,1.40966 -0.37077,1.29087 -3.14564,-1.35019 h -3.05437 l -0.50178,4.5996 h 2.91793 l 3.66522,0.84606 -0.10392,1.29087 -3.72453,-0.51915 h -2.89232 v 5.69734 h 3.11531 l 3.60546,-0.41537 0.0149,1.14265 -3.53113,0.80146 h -3.16344 l 0.78453,4.73324 h 3.12105 l 3.1159,-1.57289 0.32633,1.26128 -3.2494,1.70639 h -2.9487 l 1.28278,4.45432 h 3.09795 l 2.50726,-2.24526 0.51458,1.42687 -2.40291,2.24497 h -3.03656 l 1.96192,3.83743 h 3.05923 l 1.73641,-2.43293 0.91951,1.06788 -1.70624,2.5523 h -2.86008 l 2.38185,3.10663 h 3.40293 l 1.05198,-2.43867 1.08333,0.90478 -1.17224,2.62634 h -7.06858 l 2.28883,1.75085 h 7.85061 l 0.65309,-2.43308 1.33546,0.8306 -0.51958,2.40393 h -12.09267 l 3.0713,1.15031 h 12.25385 l 0.2829,-2.15077 1.29087,0.2829 v 1.88877 h 2.95841 l 0.0849,-2.05406 0.96411,-0.0889 0.37136,1.7953 2.74498,-0.9647 -0.30424,-1.40951 0.80086,-0.62306 0.54167,1.24642 2.7912,-2.28722 -0.53505,-1.27967 0.67149,-0.82914 0.69254,1.29044 2.15076,-2.96916 -0.82854,-1.51077 0.55594,-0.96514 0.96514,1.04903 1.58452,-3.63003 -1.13338,-1.35387 0.41994,-1.36358 1.25878,0.97543 1.08068,-4.10193 -1.36417,-0.86034 v -1.26953 l 1.56362,0.67105 0.52474,-4.74236 -1.77322,-0.5452 0.0102,-1.09143 1.73127,0.19945 v -5.52897 l -1.85711,0.13601 -0.0521,-1.14368 1.76262,-0.51399 -0.52489,-4.89986 -1.59467,0.75539 -0.1887,-1.08025 1.44793,-1.07052 -1.13912,-4.35775 -1.43924,1.14264 -0.23727,-1.26894 1.21683,-1.4541 -1.72891,-3.79813 -1.13485,1.26834 -0.42303,-0.78659 0.89051,-1.52063 -2.2485,-3.14549 -0.89757,1.43924 -0.54932,-0.63322 0.56625,-1.62646 -2.86436,-2.26631 -0.62953,1.39522 -0.69254,-0.48219 0.33604,-1.42703 -2.70273,-1.0583 -0.48942,1.76556 -0.93496,-0.0592 -0.14837,-1.78102 -2.80429,-0.0593 -0.11864,1.73657 -1.15751,0.31146 -0.22255,-2.21111 z m -8.03755,9.5882 -3.13208,3.73617 h 1.17679 z m 20.95038,0.17531 c 6.66584,0 10.00943,8.84469 10.00947,19.75547 -5e-5,10.91078 -3.44338,19.7557 -10.00947,19.75562 -5.77408,5e-5 -10.45483,-8.84486 -10.45488,-19.75562 4e-5,-10.91077 4.68079,-19.75553 10.45488,-19.75547 z m -25.16462,4.85173 -1.87831,2.24055 -0.66295,2.32945 h 3.05452 l 1.33694,-4.57 z m -4.96301,5.92034 -2.95384,3.52363 -0.17692,1.07597 h 3.00433 l 0.81323,-4.5996 z m 2.07496,0 -0.5892,4.5996 h 3.00079 l 0.63837,-4.5996 z m -5.22059,6.21738 0.015,5.69734 h 3.03907 v -5.69734 z m 4.565,0 v 5.69734 h 3.1265 v -5.69734 z m -4.44636,7.22608 0.6681,4.73324 h 3.21452 l -0.7891,-4.73324 z m 4.62535,0 0.65662,4.73324 h 3.09706 l -0.74788,-4.73324 z m -3.51229,6.12802 1.33945,4.45432 h 2.86272 l -1.29454,-4.45432 z m 4.51937,0 1.33444,4.45432 h 3.07851 l -1.40862,-4.45432 z m -2.66579,5.8809 1.97473,3.83743 h 3.00241 l -2.12721,-3.83743 z m 4.64714,0 1.96045,3.83743 h 3.05201 l -2.06274,-3.83743 z m -1.67857,5.02468 2.46325,3.10663 h 3.45444 l -2.7123,-3.10663 z m 4.87013,0 2.51962,3.10663 h 2.9849 l -2.55172,-3.10663 z m -0.7339,4.19908 2.57011,1.75085 h 3.58544 l -3.05967,-1.75085 z" />
    <path
       id="path12266"
       style="opacity:1;fill:#000000;stroke:none;stroke-width:9.88741;stroke-linecap:round;stroke-linejoin:round;stroke-dashoffset:1.04504;paint-order:stroke fill markers"
       d="m -511.69786,191.24356 c -0.99101,0.003 -2.12372,0.30172 -3.06376,0.94212 4.7998,1.9001 6.26846,9.84397 6.26865,17.81301 -0.003,8.14166 -0.98329,15.17718 -6.08992,18.0151 1.00606,0.74062 2.06735,0.99388 3.13685,0.99473 6.28855,-2.5e-4 9.00683,-8.42155 9.00683,-18.8615 0,-10.43995 -2.86394,-18.90346 -9.25865,-18.90346 z"
       sodipodi:nodetypes="cccccsc" />
    <path
       style="color:#000000;opacity:1;fill:#000000;stroke-width:0.989764;-inkscape-stroke:none"
       d="m -514.79885,200.81875 -1.88865,4.0035 -0.42722,-0.56833 -2.70443,6.38702 h 0.5722 9.0412 l -2.60198,-6.69438 -0.78099,0.14691 z m -0.085,1.95246 0.8061,2.18442 0.79259,-0.14884 1.97178,5.0783 h -7.36326 l 1.74562,-4.12334 0.39048,0.52 z"
       id="path12575" />
    <path
       id="path14490"
       style="opacity:1;fill:#000000;stroke:none;stroke-width:0.270907px;stroke-linecap:butt;stroke-linejoin:miter;stroke-opacity:1"
       d="m -515.89193,205.97341 c -0.0425,0.001 -0.0849,0.0121 -0.12427,0.0348 -0.12584,0.0729 -0.16857,0.23425 -0.0957,0.36008 10e-4,0.003 0.002,0.003 0.003,0.006 -0.0413,0.002 -0.0816,0.0134 -0.11764,0.0343 -0.12551,0.0727 -0.16831,0.23382 -0.096,0.35956 0.0729,0.12527 0.23291,0.16807 0.35852,0.0957 0.082,-0.0473 0.17208,-0.0333 0.22199,0.0531 l 0.26954,0.4675 -0.11815,0.20459 h -0.55342 c -0.0998,0 -0.15702,-0.0705 -0.15702,-0.16521 -1.3e-4,-0.145 -0.11744,-0.26249 -0.26237,-0.26289 -0.005,0 -0.009,-2.4e-4 -0.0132,0 -0.13869,0.007 -0.24947,0.12242 -0.2496,0.26289 0,0.0415 0.0101,0.0827 0.0286,0.11968 -0.003,-3e-5 -0.005,-3e-5 -0.007,0 -0.14539,-1.7e-4 -0.26376,0.1175 -0.26391,0.26291 1.5e-4,0.14538 0.11852,0.26305 0.26391,0.26289 0.003,3e-5 0.004,3e-5 0.007,0 -0.0186,0.0371 -0.0287,0.0781 -0.0286,0.11967 1.3e-4,0.14502 0.11795,0.26249 0.2629,0.26291 0.14494,-5.7e-4 0.26224,-0.11789 0.26236,-0.26291 0,-0.0946 0.0573,-0.1652 0.15703,-0.1652 h 0.55394 l 0.11763,0.20356 -0.27006,0.46749 c -0.0498,0.0865 -0.14003,0.10097 -0.22196,0.0537 -0.12565,-0.0724 -0.28558,-0.0296 -0.35856,0.0957 -0.0721,0.12572 -0.0294,0.28691 0.096,0.35956 0.036,0.0209 0.0763,0.0323 0.11763,0.0343 -10e-4,0.003 -0.002,0.003 -0.003,0.006 -0.0729,0.12584 -0.0302,0.28723 0.0958,0.36008 0.0394,0.0226 0.0819,0.0337 0.12426,0.0348 h 5.7e-4 c 0.0933,0.002 0.18538,-0.0454 0.2353,-0.13195 0.001,-0.002 0.002,-0.003 0.003,-0.006 0.0228,0.0345 0.053,0.0642 0.0889,0.0849 0.12172,0.07 0.27758,0.0318 0.35292,-0.0849 h -5.7e-4 c 0.003,-0.004 0.004,-0.008 0.007,-0.0118 0.0721,-0.1257 0.0288,-0.28588 -0.0966,-0.35853 -0.082,-0.0473 -0.11438,-0.13201 -0.0645,-0.21841 l 0.27873,-0.48283 h 0.18517 l 0.2767,0.47977 c 0.0498,0.0864 0.0176,0.17109 -0.0645,0.21839 -0.1256,0.0726 -0.16815,0.23335 -0.0963,0.35905 0.003,0.004 0.004,0.007 0.007,0.0112 0.0753,0.1166 0.23068,0.15497 0.3524,0.0849 0.0361,-0.0208 0.0661,-0.0504 0.0889,-0.0849 10e-4,0.003 0.002,0.004 0.003,0.006 0.0725,0.126 0.23359,0.16971 0.35958,0.0971 0.12588,-0.0729 0.16893,-0.23425 0.0961,-0.36007 -0.001,-0.003 -0.002,-0.003 -0.003,-0.006 0.0414,-0.002 0.0816,-0.0138 0.11767,-0.0348 0.12556,-0.0727 0.16832,-0.23331 0.096,-0.35906 -0.0729,-0.1252 -0.23287,-0.16803 -0.35853,-0.0956 -0.082,0.0472 -0.17158,0.0326 -0.22146,-0.0537 l -0.26954,-0.46646 0.1166,-0.20152 h 0.55342 c 0.0998,0 0.15701,0.0705 0.15701,0.1652 1.4e-4,0.14502 0.11745,0.26237 0.2624,0.26291 0.14495,-5.7e-4 0.26274,-0.1179 0.2629,-0.26291 8e-5,-0.0416 -0.01,-0.0827 -0.0287,-0.11968 0.003,3e-5 0.004,3e-5 0.007,0 0.14541,1.7e-4 0.26376,-0.11751 0.26393,-0.26289 -1.7e-4,-0.14541 -0.11852,-0.26307 -0.26393,-0.2629 -0.002,-4e-5 -0.004,-4e-5 -0.007,0 0.0184,-0.037 0.0287,-0.0781 0.0287,-0.11969 -1.6e-4,-0.14047 -0.1109,-0.25596 -0.24961,-0.26289 -0.005,-2.3e-4 -0.008,1e-5 -0.0132,0 -0.14493,5.7e-4 -0.26226,0.1179 -0.2624,0.26289 0,0.0946 -0.0572,0.16522 -0.15701,0.16522 h -0.5529 l -0.11662,-0.20255 0.26955,-0.46646 c 0.0498,-0.0864 0.13949,-0.10039 0.22148,-0.0532 0.12561,0.0724 0.28557,0.0289 0.35853,-0.0961 0.0722,-0.12575 0.0294,-0.28641 -0.0961,-0.35905 -0.0361,-0.0209 -0.0763,-0.0323 -0.11763,-0.0343 0.001,-0.003 0.002,-0.003 0.003,-0.006 0.0729,-0.12581 0.0298,-0.28722 -0.0962,-0.36007 -0.12599,-0.0726 -0.287,-0.0288 -0.35955,0.0972 -0.001,0.002 -0.002,0.003 -0.003,0.006 -0.0228,-0.0345 -0.053,-0.0642 -0.0889,-0.0849 -0.12171,-0.07 -0.27709,-0.0317 -0.35241,0.0849 -0.003,0.004 -0.004,0.007 -0.007,0.0112 -0.0721,0.12571 -0.0294,0.28641 0.0963,0.35905 0.082,0.0473 0.11432,0.132 0.0645,0.2184 l -0.2762,0.47925 h -0.1862 l -0.27824,-0.48232 c -0.0498,-0.0864 -0.0175,-0.17109 0.0645,-0.2184 0.12549,-0.0727 0.16869,-0.23284 0.0967,-0.35854 -0.003,-0.004 -0.004,-0.008 -0.007,-0.0118 h 5.6e-4 c -0.0754,-0.11662 -0.23118,-0.15494 -0.3529,-0.0849 -0.0361,0.0208 -0.0661,0.0504 -0.0889,0.0849 -10e-4,-0.003 -0.002,-0.004 -0.003,-0.006 -0.0498,-0.0866 -0.14189,-0.13419 -0.23528,-0.13197 z" />
    <path
       d="m -591.85199,131.48996 v 2.47605 h -5.59884 v 2.95648 h 4.10212 v 2.51301 h -4.10212 l -0.009,5.59883 h -2.60539 l 0.009,-13.54437 z"
       style="font-size:66.43px;line-height:1.25;font-family:'Caracteres L1';-inkscape-font-specification:'Caracteres L1';opacity:1;stroke-width:0.473035"
       id="path3404" />
    <path
       d="m -586.41914,131.50844 v 13.54437 h -2.56844 v -13.54437 z"
       style="font-size:66.43px;line-height:1.25;font-family:'Caracteres L1';-inkscape-font-specification:'Caracteres L1';opacity:1;stroke-width:0.473035"
       id="path3406" />
    <path
       d="m -579.19837,131.48996 3.39995,7.2249 v -7.2249 h 2.51301 l 0.009,13.56285 h -2.46681 l -4.12983,-8.54607 -0.009,8.55531 h -2.54072 v -13.57209 z"
       style="font-size:66.43px;line-height:1.25;font-family:'Caracteres L1';-inkscape-font-specification:'Caracteres L1';opacity:1;stroke-width:0.473035"
       id="path3408" />
    <path
       d="m -562.6325,138.09411 q 0.68121,0.0804 1.15427,0.54402 0.47779,0.4636 0.69066,1.0975 0.0993,0.2791 0.14665,0.73323 v 2.12877 q -0.071,1.07858 -0.6812,1.74086 -0.60552,0.66228 -1.47595,0.70486 h -2.74374 l 0.005,-6.94924 z m -1.55163,5.5821 h 1.10696 q 0.33587,-0.052 0.5724,-0.24599 0.23653,-0.19869 0.4021,-0.69067 0.0899,-0.30276 0.052,-2.20445 -0.22234,-0.98397 -1.02654,-1.13061 h -1.10696 z"
       style="font-size:66.43px;line-height:1.25;font-family:'Caracteres L1';-inkscape-font-specification:'Caracteres L1';opacity:1;stroke-width:0.242206"
       id="path3410" />
    <path
       d="m -554.60095,138.12249 v 1.2678 h -2.86674 v 1.51379 h 2.10038 v 1.28199 h -2.10038 v 1.58475 h 2.98973 v 1.28199 h -4.32376 l 0.005,-6.93032 z"
       style="font-size:66.43px;line-height:1.25;font-family:'Caracteres L1';-inkscape-font-specification:'Caracteres L1';opacity:1;stroke-width:0.242206"
       id="path3412" />
    <path
       d="m -540.0009,131.52692 -0.009,2.61463 -5.82057,8.37054 h 5.98687 v 2.54072 h -9.15585 v -2.71626 l 5.68199,-8.195 h -5.39558 v -2.61463 z"
       style="font-size:66.43px;line-height:1.25;font-family:'Caracteres L1';-inkscape-font-specification:'Caracteres L1';opacity:1;stroke-width:0.473035"
       id="path3414" />
    <path
       d="m -530.81826,131.34214 q 2.23584,0.34184 3.30756,2.64235 0.91466,1.69998 0.91466,4.17603 v 0.1663 q 0,3.09506 -1.50596,5.26623 -1.07172,1.45976 -3.03039,1.6353 -0.20325,0.0185 -0.39727,0.0185 -2.03258,0 -3.40919,-1.71846 -1.42281,-2.29127 -1.44129,-4.70265 -0.009,-0.20325 -0.009,-0.40651 0,-3.26137 1.45052,-5.39558 0.97009,-1.16411 2.02334,-1.48748 0.72988,-0.23097 1.45976,-0.23097 0.32337,0 0.63749,0.037 z m -0.7114,11.5395 q 1.07172,-0.0554 1.81084,-1.469 0.53586,-0.94237 0.67445,-2.77169 0.0277,-2.32823 -0.82227,-3.81571 -0.69293,-1.03477 -1.53368,-1.15488 -1.10868,0.0554 -1.8478,1.45053 -0.52662,0.97933 -0.68368,2.80865 -0.0185,2.32823 0.84075,3.80647 0.68368,1.03477 1.56139,1.14563 z"
       style="font-size:66.43px;line-height:1.25;font-family:'Caracteres L1';-inkscape-font-specification:'Caracteres L1';opacity:1;stroke-width:0.473035"
       id="path3416" />
    <path
       d="m -519.73238,131.48996 3.39996,7.2249 v -7.2249 h 2.51301 l 0.009,13.56285 h -2.46681 l -4.12983,-8.54607 -0.009,8.55531 h -2.54073 v -13.57209 z"
       style="font-size:66.43px;line-height:1.25;font-family:'Caracteres L1';-inkscape-font-specification:'Caracteres L1';opacity:1;stroke-width:0.473035"
       id="path3418" />
    <path
       d="m -501.42671,131.51768 v 2.47605 h -5.59883 v 2.95648 h 4.10211 v 2.50377 h -4.10211 v 3.09506 h 5.83904 v 2.50377 h -8.44444 l 0.009,-13.53513 z"
       style="font-size:66.43px;line-height:1.25;font-family:'Caracteres L1';-inkscape-font-specification:'Caracteres L1';opacity:1;stroke-width:0.473035"
       id="path3420" />
    <path
       id="path4533"
       style="color:#000000;opacity:1;fill:#000000;stroke-width:2.45953;stroke-linecap:round;stroke-linejoin:round;stroke-dashoffset:1.04504;-inkscape-stroke:none;paint-order:stroke fill markers"
       d="m -487.25226,99.759119 -22.6154,26.977871 h 22.70224 l -0.63778,-7.68031 0.62777,-11.96006 z m -41.66583,49.703081 -86.26916,102.91035 0.0355,7.77613 2.61883,7.89934 6.12655,1.6353 4.77903,1.17444 101.76519,-121.39556 z" />
  </g>
</svg>
