<?xml version="1.0" encoding="UTF-8" standalone="no"?>
<!-- Generator: Adobe Illustrator 16.0.3, SVG Export Plug-In . SVG Version: 6.00 Build 0)  -->

<svg
   version="1.1"
   id="France_road_signs_B14"
   x="0px"
   y="0px"
   width="581px"
   height="581px"
   viewBox="1.56 1.561 581 581"
   enable-background="new 1.56 1.561 581 581"
   xml:space="preserve"
   sodipodi:docname="France_road_sign_B14_(50).svg"
   inkscape:version="1.2.2 (732a01da63, 2022-12-09)"
   xmlns:inkscape="http://www.inkscape.org/namespaces/inkscape"
   xmlns:sodipodi="http://sodipodi.sourceforge.net/DTD/sodipodi-0.dtd"
   xmlns="http://www.w3.org/2000/svg"
   xmlns:svg="http://www.w3.org/2000/svg"><defs
   id="defs13" /><sodipodi:namedview
   id="namedview11"
   pagecolor="#ffffff"
   bordercolor="#666666"
   borderopacity="1.0"
   inkscape:pageshadow="2"
   inkscape:pageopacity="0.0"
   inkscape:pagecheckerboard="0"
   showgrid="false"
   inkscape:zoom="1.2375215"
   inkscape:cx="95.755911"
   inkscape:cy="457.76982"
   inkscape:window-width="1920"
   inkscape:window-height="991"
   inkscape:window-x="-9"
   inkscape:window-y="-9"
   inkscape:window-maximized="1"
   inkscape:current-layer="g8718"
   inkscape:showpageshadow="2"
   inkscape:deskcolor="#d1d1d1"
   showguides="true" />
<circle
   fill="#FFFFFF"
   stroke="#000000"
   stroke-width="0.9931"
   stroke-linecap="round"
   stroke-linejoin="round"
   cx="291.56"
   cy="291.561"
   r="285"
   id="circle2" />
<circle
   fill="#FF0000"
   stroke="#FF0000"
   stroke-width="0.1752"
   stroke-linecap="round"
   stroke-linejoin="round"
   cx="291.56"
   cy="291.561"
   r="272.101"
   id="circle4"
   style="fill:#ea190e;fill-opacity:1;stroke:#ea190e;stroke-opacity:1;stroke-width:0.175;stroke-dasharray:none" />
<circle
   fill="#ffffff"
   stroke="#ff0000"
   stroke-width="0.1752"
   stroke-linecap="round"
   stroke-linejoin="round"
   cx="291.56"
   cy="291.561"
   r="191.118"
   id="circle6"
   style="stroke:none" />

<g
   id="g8718"
   transform="matrix(0.88690129,0,0,0.88690129,575.9925,-155.77758)"
   style="fill:#000000"><path
     style="fill:#000000;stroke-width:1.33333"
     d="m -448.96153,630.03475 -0.11453,-60.43749 h 18.85937 v 7.67708 h -11.26047 v 18.93229 h 11.26041 v 7.56249 h -11.26041 v 18.96876 h 11.26041 v 7.29687 z"
     id="path7462" /><path
     style="fill:#000000;stroke-width:1.33333"
     d="M -472.27924,477.83161"
     id="path8796" /><path
     style="fill:#000000;stroke-width:1.33333"
     d="m -472.31429,477.83161 h 302.47395 c 13.83334,0 26.3802,9.59896 26.3802,26.60937 0,14.77604 -10.92186,26.5677 -26.3802,26.5677 h -302.47395 c -16.25521,0 -25.8177,-15.15625 -25.63021,-26.5677 0.0781,-11.41667 8.54167,-26.60937 25.63021,-26.60937 z"
     id="path8794" /><path
     style="fill:#000000;stroke-width:1.33333"
     d="M -378.73757,419.13369 Z"
     id="path8792" /><path
     style="fill:#000000;stroke-width:1.33333"
     d="M -270.07612,441.0191 Z"
     id="path8790" /><path
     style="fill:#000000;stroke-width:1.33333"
     d="m -270.07612,441.0191 v -48.41667 h -13.15626 V 381.0764 h 37.83334 v 11.52603 h -13.26563 v 48.41667 z"
     id="path8788" /><path
     style="fill:#000000;stroke-width:1.33333"
     d="M -329.98237,441.0191 Z"
     id="path8786" /><path
     style="fill:#000000;stroke-width:1.33333"
     d="m -329.98237,441.0191 v -59.9427 h 11.52604 v 48.53125 h 22.41146 v 11.41145 z"
     id="path8784" /><path
     style="fill:#000000;stroke-width:1.33333"
     d="M -455.00841,441.0191 Z"
     id="path8782" /><path
     style="fill:#000000;stroke-width:1.33333"
     d="m -455.00841,441.0191 v -59.9427 h 11.30208 v 23.96361 h 17.72396 v -23.96355 h 11.30209 v 59.94271 h -11.30209 v -24.52604 h -17.72396 v 24.52604 z"
     id="path8780" /><path
     style="fill:#000000;stroke-width:1.33333"
     d="M -395.93549,441.0191 Z"
     id="path8778" /><path
     style="fill:#000000;stroke-width:1.33333"
     d="m -395.93549,441.0191 15.15625,-59.97916 h 15.07812 l 15.27084,59.97916 h -11.79167 l -2.60938,-10.43228 h -16.89062 l -2.42188,10.43228 z m 17.19792,-21.88541 h 11.10937 l -5.66667,-23.01563 z"
     id="path8776" /><path
     style="fill:#000000;stroke-width:1.33333"
     d="M -224.04487,441.0191 Z"
     id="path8774" /><path
     style="fill:#000000;stroke-width:1.33333"
     d="m -224.04487,441.0191 v -60.05728 h 36.55208 v 11.41667 h -25.25 v 12.66152 h 18.75 v 11.33854 h -18.75 v 13.11458 h 26.15625 v 11.52604 z"
     id="path8772" /><path
     style="fill:#000000;stroke-width:1.33333"
     d="M -217.99279,596.35764 Z"
     id="path8770" /><path
     style="fill:#000000;stroke-width:1.33333"
     d="M -318.94591,596.35764 Z"
     id="path8768" /><path
     style="fill:#000000;stroke-width:1.33333"
     d="M -383.15945,622.73786 Z"
     id="path8766" /><path
     style="fill:#000000;stroke-width:1.33333"
     d="M -351.86779,608.8316 Z"
     id="path8764" /><path
     style="fill:#000000;stroke-width:1.33333"
     d="M -224.72195,630.03472 Z"
     id="path8762" /><path
     style="fill:#000000;stroke-width:1.33333"
     d="m -224.72195,630.03472 v -60.47396 l 10.92187,0.0781 c 9.90104,0 9.71354,-0.0781 9.82813,14.51041 l 0.0729,12.20833 c -0.0729,7.5573 -0.5677,7.93751 -3.625,7.93751 l 6.8021,25.73957 h -6.91667 l -6.34896,-24.07812 c -0.75521,-1.92708 -0.75521,-1.92708 -4.00521,-1.92708 v 26.0052 z m 6.72916,-33.67708 h 4.19271 c 3.66666,0 3.28646,0 3.28646,-3.85416 v -12.09376 c 0,-3.17708 0,-3.17708 -3.28646,-3.17708 h -4.19271 z"
     id="path8760" /><path
     style="fill:#000000;stroke-width:1.33333"
     d="M -325.67508,630.03472 Z"
     id="path8758" /><path
     style="fill:#000000;stroke-width:1.33333"
     d="m -325.67508,630.03472 v -60.47396 l 10.96355,0.0781 c 9.90103,0 9.67186,-0.0781 9.78645,14.51041 l 0.11453,12.20833 c -0.11453,7.5573 -0.60417,7.93751 -3.66667,7.93751 l 6.80208,25.73957 h -6.91666 l -6.31249,-24.07812 c -0.79167,-1.92708 -0.79167,-1.92708 -4.04167,-1.92708 v 26.0052 z m 6.72917,-33.67708 h 4.23438 c 3.625,0 3.25,0 3.25,-3.85416 v -12.09376 c 0,-3.17708 0,-3.17708 -3.25,-3.17708 h -4.23438 z"
     id="path8756" /><path
     style="fill:#000000;stroke-width:1.33333"
     d="M -421.02924,630.03472 Z"
     id="path8754" /><path
     style="fill:#000000;stroke-width:1.33333"
     d="m -421.02924,630.03472 -0.0781,-60.3229 h 6.84376 l 7.52082,34.05728 0.0729,-34.05728 h 6.46353 v 60.3229 h -6.42708 l -7.67187,-33.82812 v 33.82812 z"
     id="path8752" /><path
     style="fill:#000000;stroke-width:1.33333"
     d="M -293.16987,630.07122 Z"
     id="path8750" /><path
     style="fill:#000000;stroke-width:1.33333"
     d="m -293.16987,630.07122 v -60.54688 h 7.36979 l 6.61458,28.1927 7.06771,-28.1927 h 7.21875 l 0.0365,60.43229 -7.63543,0.11453 v -32.35417 l -6.68749,32.35417 -6.72917,-32.35417 v 32.35417 z"
     id="path8748" /><path
     style="fill:#000000;stroke-width:1.33333"
     d="M -193.73238,630.07122 Z"
     id="path8746" /><path
     style="fill:#000000;stroke-width:1.33333"
     d="m -193.73238,630.07122 v -60.66147 h 7.48438 v 60.66147 z"
     id="path8744" /><path
     style="fill:#000000;stroke-width:1.33333"
     d="M -471.0709,568.53996 Z"
     id="path8742" /><path
     style="fill:#000000;stroke-width:1.33333"
     d="m -471.0709,568.53996 c 6.72396,-0.11453 11.41145,6.27604 11.41145,11.41667 v 13.26563 h -7.70833 v -13.26563 c -0.0781,-1.92708 -1.58855,-3.78125 -3.66667,-3.78125 -1.66145,-0.11454 -3.78125,1.51041 -3.78125,3.78125 v 13.26563 l -0.0364,25.24478 c 0,2.4948 1.66145,4.34896 3.78125,4.23438 2.11457,0.11453 3.70312,-1.85416 3.70312,-4.23438 v -10.95833 l -3.70312,-0.11453 v -7.55728 h 11.44791 v 18.6302 c -0.0364,6.16146 -4.83334,11.53125 -11.07291,11.64062 -6.19792,0.11454 -11.82813,-3.32292 -11.82813,-11.64062 v -38.40104 c 0,-6.5 4.6875,-11.41146 11.45313,-11.52604 z"
     id="path8740" /><path
     style="fill:#000000;stroke-width:1.33333"
     d="M -390.45633,630.03475 Z"
     id="path8738" /><path
     style="fill:#000000;stroke-width:1.33333"
     d="m -390.45633,630.03475 -0.11454,-60.28645 h 7.41146 c 15.27084,-0.10934 15.27084,-0.10934 15.27084,14.89062 l 0.0729,30.125 c -0.0729,15.19271 -0.0729,15.27083 -15.34375,15.27083 z m 7.29688,-7.29689 c 7.47917,-0.0729 7.47917,-0.0729 7.47917,-7.97396 v -30.125 c 0,-7.21875 0,-7.21875 -7.47917,-7.21875 z"
     id="path8736" /><path
     style="fill:#000000;stroke-width:1.33333"
     d="M -361.38861,630.03475 Z"
     id="path8734" /><path
     style="fill:#000000;stroke-width:1.33333"
     d="m -361.38861,630.03475 9.03124,-60.28645 h 8.46876 l 8.80208,60.28645 h -7.10418 l -1.6979,-15.15624 h -8.65626 l -2.1198,15.15624 z m 9.52082,-21.20315 h 7.10938 l -3.66667,-26.60937 z"
     id="path8732" /><path
     style="fill:#000000;stroke-width:1.33333"
     d="M -177.89383,630.03475 Z"
     id="path8730" /><path
     style="fill:#000000;stroke-width:1.33333"
     d="m -177.89383,630.03475 -0.11453,-60.43749 h 18.85937 v 7.67708 h -11.26042 v 18.93229 h 11.26042 v 7.56249 h -11.26042 v 18.96876 h 11.26042 v 7.29687 z"
     id="path8728" /><path
     style="fill:#000000;stroke-width:1.33333"
     d="M -253.67508,630.03475 Z"
     id="path8726" /><path
     style="fill:#000000;stroke-width:1.33333"
     d="m -253.67508,630.03475 -0.11454,-60.43749 h 18.86459 v 7.67708 h -11.26563 v 18.93229 h 11.26563 v 7.56249 h -11.26563 v 18.96876 h 11.26563 v 7.29687 z"
     id="path8724" /><path
     style="fill:#000000;stroke-width:1.33333"
     d="M -448.96153,630.03475 Z"
     id="path8722" /></g></svg>
