<?xml version="1.0" encoding="UTF-8" standalone="no"?>
<!-- Generator: Adobe Illustrator 16.0.3, SVG Export Plug-In . SVG Version: 6.00 Build 0)  -->

<svg
   version="1.1"
   id="France_road_signs_B14"
   x="0px"
   y="0px"
   width="581px"
   height="581px"
   viewBox="1.56 1.561 581 581"
   enable-background="new 1.56 1.561 581 581"
   xml:space="preserve"
   sodipodi:docname="France_road_sign_B14_(50).svg"
   inkscape:version="1.2.2 (732a01da63, 2022-12-09)"
   xmlns:inkscape="http://www.inkscape.org/namespaces/inkscape"
   xmlns:sodipodi="http://sodipodi.sourceforge.net/DTD/sodipodi-0.dtd"
   xmlns="http://www.w3.org/2000/svg"
   xmlns:svg="http://www.w3.org/2000/svg"><defs
   id="defs13" /><sodipodi:namedview
   id="namedview11"
   pagecolor="#ffffff"
   bordercolor="#666666"
   borderopacity="1.0"
   inkscape:pageshadow="2"
   inkscape:pageopacity="0.0"
   inkscape:pagecheckerboard="0"
   showgrid="false"
   inkscape:zoom="1.2375215"
   inkscape:cx="343.8324"
   inkscape:cy="296.15647"
   inkscape:window-width="1920"
   inkscape:window-height="991"
   inkscape:window-x="-9"
   inkscape:window-y="-9"
   inkscape:window-maximized="1"
   inkscape:current-layer="g8718"
   inkscape:showpageshadow="2"
   inkscape:deskcolor="#d1d1d1"
   showguides="true" />
<circle
   fill="#FFFFFF"
   stroke="#000000"
   stroke-width="0.9931"
   stroke-linecap="round"
   stroke-linejoin="round"
   cx="291.56"
   cy="291.561"
   r="285"
   id="circle2" />
<circle
   fill="#FF0000"
   stroke="#FF0000"
   stroke-width="0.1752"
   stroke-linecap="round"
   stroke-linejoin="round"
   cx="291.56"
   cy="291.561"
   r="272.101"
   id="circle4"
   style="fill:#ea190e;fill-opacity:1;stroke:#ea190e;stroke-opacity:1;stroke-width:0.175;stroke-dasharray:none" />
<circle
   fill="#ffffff"
   stroke="#ff0000"
   stroke-width="0.1752"
   stroke-linecap="round"
   stroke-linejoin="round"
   cx="291.56"
   cy="291.561"
   r="191.118"
   id="circle6"
   style="stroke:none" />

<g
   id="g8718"
   transform="matrix(0.88690129,0,0,0.88690129,575.9925,-155.77758)"
   style="fill:#000000"><path
     style="fill:#000000;stroke-width:1.33333"
     d="m -472.31429,477.83161 h 302.47395 c 13.83334,0 26.3802,9.59896 26.3802,26.60937 0,14.77604 -10.92186,26.5677 -26.3802,26.5677 h -302.47395 c -16.25521,0 -25.8177,-15.15625 -25.63021,-26.5677 0.0781,-11.41667 8.54167,-26.60937 25.63021,-26.60937 z"
     id="path8794" /><g
     aria-label="POLICE"
     id="text9416"
     style="font-weight:bold;font-size:83.6991px;line-height:1.25;font-family:'Caracteres L1';-inkscape-font-specification:'Caracteres L1 Bold';text-align:center;text-anchor:middle;fill:#000000;fill-rule:evenodd;stroke-width:0.292951;stroke-linecap:round;stroke-linejoin:round"><path
       d="m -454.76211,570.32875 q 5.2312,0.57217 9.23633,3.75992 4.046,3.18776 5.80335,7.1929 2.20691,4.29121 2.20691,9.19545 0,2.28865 -0.0409,2.98342 -0.32695,5.63988 -2.32951,9.3998 -2.00257,3.75992 -4.37295,5.76249 -5.14946,4.6999 -10.83021,4.78163 h -11.3615 v 16.79704 h -11.19802 v -59.87265 z m -11.52497,31.14195 h 9.23632 q 2.12518,-0.24521 3.51471,-1.06258 3.75992,-2.24778 4.49556,-7.80593 0.12261,-5.02685 -2.04343,-7.64244 -2.16605,-2.6156 -5.76249,-2.98342 h -9.44067 z"
       id="path9418"
       style="fill:#000000" /><path
       d="m -391.67011,569.66671 q 9.89023,1.51215 14.631,11.68845 4.046,7.51984 4.046,18.47265 v 0.73564 q 0,13.69102 -6.6616,23.29516 -4.74077,6.45725 -13.40493,7.23376 -0.89911,0.0817 -1.75736,0.0817 -8.99111,0 -15.08055,-7.60158 -6.29378,-10.13544 -6.37551,-20.80217 -0.0409,-0.89911 -0.0409,-1.79822 0,-14.42665 6.41638,-23.86732 4.29122,-5.14946 8.95025,-6.57986 3.22863,-1.02172 6.45725,-1.02172 1.43041,0 2.81994,0.16347 z m -3.14689,51.04501 q 4.74077,-0.24521 8.01027,-6.49812 2.37038,-4.16861 2.98341,-12.26061 0.12261,-10.29892 -3.63731,-16.87878 -3.06515,-4.57729 -6.7842,-5.10858 -4.90425,0.24521 -8.17374,6.41638 -2.32952,4.33208 -3.02429,12.42409 -0.0817,10.29891 3.71905,16.8379 3.02429,4.5773 6.90681,5.06772 z"
       id="path9420"
       style="fill:#000000" /><path
       d="m -340.47092,569.85468 0.0409,49.28766 h 23.17255 l -0.0409,10.70759 h -34.49318 v -59.99525 z"
       id="path9422"
       style="fill:#000000" /><path
       d="m -284.6944,570.82735 v 59.91351 h -11.3615 v -59.91351 z"
       id="path9424"
       style="fill:#000000" /><path
       d="m -238.60381,569.61763 q 11.8928,2.04344 15.57098,14.18144 l 0.36782,2.00257 -10.33978,2.16604 q -1.26693,-5.23119 -4.33209,-6.94768 -3.06515,-1.71648 -7.19289,0.32695 -2.7382,2.32952 -4.57729,6.37552 -1.79822,4.046 -2.37039,10.95281 -0.24521,7.35637 1.92083,12.7919 2.16604,5.39467 5.2312,7.15203 3.10602,1.75735 6.33464,0.49042 3.22863,-0.81737 5.14946,-6.6616 l 10.33978,3.18776 q -2.0843,8.21461 -8.05113,11.89279 -4.37295,2.77907 -10.29891,3.14689 -11.15716,-0.24521 -16.67443,-9.11372 -5.80336,-9.64501 -5.96683,-20.8839 0.0817,-14.05884 6.04856,-23.00908 3.75992,-4.94511 8.41896,-6.82507 3.5147,-1.38954 7.64244,-1.38954 1.34867,0 2.77907,0.16347 z"
       id="path9426"
       style="fill:#000000" /><path
       d="m -165.00857,570.39414 v 10.95281 H -189.775 v 13.07799 h 18.1457 v 11.07541 h -18.1457 v 13.69102 h 25.82902 v 11.07541 h -37.354 l 0.0409,-59.87264 z"
       id="path9428"
       style="fill:#000000" /></g><path
     style="fill:#000000;stroke-width:1.33333"
     d="m -270.07617,441.01911 v -48.41666 h -13.15626 v -11.52604 h 37.83333 v 11.52604 h -13.26563 v 48.41666 z"
     id="path9352" /><path
     style="fill:#000000;stroke-width:1.33333"
     d="m -329.98242,441.01911 v -59.9427 h 11.52604 v 48.53125 h 22.41147 v 11.41145 z"
     id="path9348" /><path
     style="fill:#000000;stroke-width:1.33333"
     d="m -455.00844,441.01911 v -59.9427 h 11.30208 v 23.96355 h 17.72396 v -23.96355 h 11.30209 v 59.9427 h -11.30209 v -24.52604 h -17.72396 v 24.52604 z"
     id="path9344" /><path
     style="fill:#000000;stroke-width:1.33333"
     d="m -395.93553,441.01911 15.15625,-59.97915 h 15.07812 l 15.27084,59.97915 h -11.79166 l -2.60939,-10.43228 h -16.89061 l -2.42188,10.43228 z m 17.19792,-21.88542 h 11.10937 l -5.66666,-23.01561 z"
     id="path9340" /><path
     style="fill:#000000;stroke-width:1.33333"
     d="m -224.04493,441.01911 v -60.05727 h 36.55208 v 11.41666 h -25.25 v 12.66146 h 18.75 v 11.33854 h -18.75 v 13.11457 h 26.15625 v 11.52604 z"
     id="path9336" /><path
     style="fill:#000000;stroke-width:1.33333"
     d="M -354.09699,630.14408 Z"
     id="path9326" /><path
     style="fill:#000000;stroke-width:1.33333"
     d="M -299.44596,630.14408 Z"
     id="path9322" /><path
     style="fill:#000000;stroke-width:1.33333"
     d="M -201.40431,630.14408 Z"
     id="path9310" /></g></svg>
