<?xml version="1.0" encoding="UTF-8" standalone="no"?>
<!-- Generator: Adobe Illustrator 16.0.2, SVG Export Plug-In . SVG Version: 6.00 Build 0)  -->

<svg
   xmlns:dc="http://purl.org/dc/elements/1.1/"
   xmlns:cc="http://creativecommons.org/ns#"
   xmlns:rdf="http://www.w3.org/1999/02/22-rdf-syntax-ns#"
   xmlns:svg="http://www.w3.org/2000/svg"
   xmlns="http://www.w3.org/2000/svg"
   xmlns:sodipodi="http://sodipodi.sourceforge.net/DTD/sodipodi-0.dtd"
   xmlns:inkscape="http://www.inkscape.org/namespaces/inkscape"
   version="1.1"
   id="Ebene_1"
   x="0px"
   y="0px"
   width="576px"
   height="576px"
   viewBox="0 0 576 576"
   style="enable-background:new 0 0 576 576;"
   xml:space="preserve"
   inkscape:version="0.91 r13725"
   sodipodi:docname="France_road_sign_B6a2.svg"><metadata
     id="metadata35"><rdf:RDF><cc:Work
         rdf:about=""><dc:format>image/svg+xml</dc:format><dc:type
           rdf:resource="http://purl.org/dc/dcmitype/StillImage" /></cc:Work></rdf:RDF></metadata><defs
     id="defs33" /><sodipodi:namedview
     pagecolor="#ffffff"
     bordercolor="#666666"
     borderopacity="1"
     objecttolerance="10"
     gridtolerance="10"
     guidetolerance="10"
     inkscape:pageopacity="0"
     inkscape:pageshadow="2"
     inkscape:window-width="1440"
     inkscape:window-height="788"
     id="namedview31"
     showgrid="false"
     inkscape:zoom="1.9310375"
     inkscape:cx="53.854345"
     inkscape:cy="288.61394"
     inkscape:window-x="0"
     inkscape:window-y="1"
     inkscape:window-maximized="1"
     inkscape:current-layer="Ebene_1" /><circle
     style="fill:#FFFFFF;stroke:#000000;stroke-linecap:round;stroke-linejoin:round;"
     cx="287.47"
     cy="287.469"
     r="286.969"
     id="circle3" /><circle
     style="fill:#d40000;stroke:#FF0000;stroke-width:0.1764;stroke-linecap:round;stroke-linejoin:round;fill-opacity:1"
     cx="287.47"
     cy="287.469"
     r="273.982"
     id="circle5" /><path
     style="fill:#003399;stroke:#FF0000;stroke-width:0.1764;stroke-linecap:round;stroke-linejoin:round;fill-opacity:1"
     d="M417.846,429.012  c-72.261,66.563-183.058,68.002-257.025,3.347C86.853,367.7,73.465,257.706,129.764,177.193l282.715,247.128L417.846,429.012z"
     id="path7" /><path
     style="fill:none;stroke:#0000FF;stroke-width:0.176;stroke-linecap:round;stroke-linejoin:round;stroke-miterlimit:4;stroke-dasharray:none"
     d="M416.834,429.025  c-72.057,65.85-182.077,67.063-255.569,2.821c-73.492-64.239-87-173.438-31.378-253.649L412.033,424.83L416.834,429.025z"
     id="path9" /><path
     style="fill:none;stroke:#0000FF;stroke-width:0.1764;stroke-linecap:round;stroke-linejoin:round;"
     d="M445.183,396.555  c55.527-80.277,41.89-189.458-31.679-253.614c-73.568-64.154-183.59-62.808-255.566,3.126l282.44,246.298L445.183,396.555z"
     id="path11" /><path
     style="fill:#003399;stroke:#FF0000;stroke-width:0.176;stroke-linecap:round;stroke-linejoin:round;stroke-miterlimit:4;stroke-dasharray:none;fill-opacity:1"
     d="M445.307,397.559  c56.203-80.578,42.686-190.557-31.359-255.125s-184.839-62.997-257.021,3.649l283.008,246.793L445.307,397.559z"
     id="path13" /><g
     id="g17"><rect
       x="127.5"
       y="274.5"
       style="fill:none;"
       width="274"
       height="167.99"
       id="rect19" /></g><g
     transform="translate(723.8289,103.00784)"
     style="font-style:normal;font-weight:normal;font-size:11.25px;line-height:125%;font-family:sans-serif;letter-spacing:0px;word-spacing:0px;fill:#ffffff;fill-opacity:1;stroke:none;stroke-width:1px;stroke-linecap:butt;stroke-linejoin:miter;stroke-opacity:1"
     id="flowRoot4163"><path
       d="m -431.24255,64.533279 0,52.899781 -10.047,0 0.036,-37.343141 -0.14404,0 q -0.10804,0.46814 -2.59278,2.052612 l -3.13293,1.656495 -2.80884,1.080322 q -1.6925,0.360107 -1.83655,0.540161 l 0,-11.16333 2.23267,-1.044312 q 5.58166,-3.565063 8.03039,-8.678588 l 10.26307,0 z"
       style="font-style:normal;font-variant:normal;font-weight:500;font-stretch:normal;font-size:73.75px;font-family:'Caracteres L1';-inkscape-font-specification:'Caracteres L1 Medium';letter-spacing:-5px;fill:#ffffff"
       id="path4145" /><path
       d="m -421.80225,106.55781 10.80323,0 0,10.87525 -10.80323,0 0,-10.87525 z"
       style="font-style:normal;font-variant:normal;font-weight:500;font-stretch:normal;font-size:73.75px;font-family:'Caracteres L1';-inkscape-font-specification:'Caracteres L1 Medium';letter-spacing:-5px;fill:#ffffff"
       id="path4147" /><path
       d="m -380.60046,64.533279 0,52.899781 -10.047,0 0.036,-37.343141 -0.14404,0 q -0.10804,0.46814 -2.59278,2.052612 l -3.13293,1.656495 -2.80884,1.080322 q -1.6925,0.360107 -1.83655,0.540161 l 0,-11.16333 2.23267,-1.044312 q 5.58166,-3.565063 8.03039,-8.678588 l 10.26307,0 z"
       style="font-style:normal;font-variant:normal;font-weight:500;font-stretch:normal;font-size:73.75px;font-family:'Caracteres L1';-inkscape-font-specification:'Caracteres L1 Medium';letter-spacing:-5px;fill:#ffffff"
       id="path4149" /><path
       d="m -337.16602,64.497268 -0.036,10.119018 -17.7893,0 -1.22437,9.002686 q 2.52075,-0.720215 5.32959,-0.612183 2.62879,-0.07202 5.3656,0.576172 3.96118,1.260376 7.05811,4.429321 4.28528,4.681397 4.86145,10.371094 0.036,0.828247 0.036,1.620484 0,3.45703 -0.90027,5.97778 -1.65649,3.85315 -4.53735,6.91407 -4.75342,4.46533 -11.59546,4.46533 l -0.72022,0 -3.31299,-0.21607 q -5.18554,-0.57617 -9.00268,-3.63708 -4.93347,-4.53736 -6.08582,-9.32678 l 10.3711,-2.62879 q 0.46814,2.12464 2.44873,3.81714 2.98889,2.19666 8.42651,0.90027 4.50134,-1.83655 4.21326,-6.409913 0.10803,-4.141236 -3.74512,-5.869751 -2.66479,-0.792237 -6.01379,-0.432129 -2.55677,0.540161 -4.57337,1.980591 l -8.96667,-7.022095 2.66479,-24.019165 27.72827,0 z"
       style="font-style:normal;font-variant:normal;font-weight:500;font-stretch:normal;font-size:73.75px;font-family:'Caracteres L1';-inkscape-font-specification:'Caracteres L1 Medium';letter-spacing:-5px;fill:#ffffff"
       id="path4151" /></g></svg>