<?xml version="1.0" encoding="UTF-8" standalone="no"?>
<!-- Generator: Adobe Illustrator 16.0.2, SVG Export Plug-In . SVG Version: 6.00 Build 0)  -->

<svg
   xmlns:dc="http://purl.org/dc/elements/1.1/"
   xmlns:cc="http://creativecommons.org/ns#"
   xmlns:rdf="http://www.w3.org/1999/02/22-rdf-syntax-ns#"
   xmlns:svg="http://www.w3.org/2000/svg"
   xmlns="http://www.w3.org/2000/svg"
   xmlns:sodipodi="http://sodipodi.sourceforge.net/DTD/sodipodi-0.dtd"
   xmlns:inkscape="http://www.inkscape.org/namespaces/inkscape"
   version="1.1"
   id="Ebene_1"
   x="0px"
   y="0px"
   width="576px"
   height="576px"
   viewBox="0 0 576 576"
   style="enable-background:new 0 0 576 576;"
   xml:space="preserve"
   inkscape:version="0.91 r13725"
   sodipodi:docname="France_road_sign_B6a3.svg"><metadata
     id="metadata37"><rdf:RDF><cc:Work
         rdf:about=""><dc:format>image/svg+xml</dc:format><dc:type
           rdf:resource="http://purl.org/dc/dcmitype/StillImage" /></cc:Work></rdf:RDF></metadata><defs
     id="defs35" /><sodipodi:namedview
     pagecolor="#ffffff"
     bordercolor="#666666"
     borderopacity="1"
     objecttolerance="10"
     gridtolerance="10"
     guidetolerance="10"
     inkscape:pageopacity="0"
     inkscape:pageshadow="2"
     inkscape:window-width="1440"
     inkscape:window-height="788"
     id="namedview33"
     showgrid="false"
     inkscape:zoom="0.96551874"
     inkscape:cx="48.187076"
     inkscape:cy="288.67135"
     inkscape:window-x="0"
     inkscape:window-y="1"
     inkscape:window-maximized="1"
     inkscape:current-layer="Ebene_1" /><circle
     style="fill:#FFFFFF;stroke:#000000;stroke-linecap:round;stroke-linejoin:round;"
     cx="287.47"
     cy="287.469"
     r="286.969"
     id="circle3" /><circle
     style="fill:#d40000;stroke:#FF0000;stroke-width:0.1764;stroke-linecap:round;stroke-linejoin:round;fill-opacity:1"
     cx="287.47"
     cy="287.469"
     r="273.982"
     id="circle5" /><path
     style="fill:#003399;stroke:#FF0000;stroke-width:0.1764;stroke-linecap:round;stroke-linejoin:round;fill-opacity:1"
     d="M417.846,429.012  c-72.261,66.563-183.058,68.002-257.025,3.347C86.853,367.7,73.465,257.706,129.764,177.193l282.715,247.128L417.846,429.012z"
     id="path7" /><path
     style="fill:none;stroke:#0000FF;stroke-width:0.1764;stroke-linecap:round;stroke-linejoin:round;"
     d="M416.834,429.025  c-72.057,65.85-182.077,67.063-255.569,2.821c-73.492-64.239-87-173.438-31.378-253.649L412.033,424.83L416.834,429.025z"
     id="path9" /><path
     style="fill:none;stroke:#0000FF;stroke-width:0.1764;stroke-linecap:round;stroke-linejoin:round;"
     d="M445.183,396.555  c55.527-80.277,41.89-189.458-31.679-253.614c-73.568-64.154-183.59-62.808-255.566,3.126l282.44,246.298L445.183,396.555z"
     id="path11" /><path
     style="fill:#003399;stroke:#FF0000;stroke-width:0.1764;stroke-linecap:round;stroke-linejoin:round;fill-opacity:1"
     d="M445.307,397.559  c56.203-80.578,42.686-190.557-31.359-255.125s-184.839-62.997-257.021,3.649l283.008,246.793L445.307,397.559z"
     id="path13" /><g
     id="g17"><rect
       x="127.5"
       y="274.5"
       style="fill:none;"
       width="274"
       height="167.99"
       id="rect19" /></g><g
     transform="matrix(0.98159298,0,0,0.98159298,915.02747,90.54613)"
     style="font-style:normal;font-weight:normal;font-size:11.25px;line-height:125%;font-family:sans-serif;letter-spacing:0px;word-spacing:0px;fill:#ffffff;fill-opacity:1;stroke:none;stroke-width:1px;stroke-linecap:butt;stroke-linejoin:miter;stroke-opacity:1"
     id="flowRoot4230"><path
       d="m -753.87929,280.03506 0,53.89176 -10.2354,0 0.0367,-38.0434 -0.14674,0 q -0.11006,0.47692 -2.6414,2.0911 l -3.19168,1.68756 -2.86151,1.10058 q -1.72424,0.36686 -1.87099,0.55029 l 0,-11.37267 2.27454,-1.06389 q 5.68633,-3.63192 8.18098,-8.84133 l 10.45551,0 z"
       style="font-style:normal;font-variant:normal;font-weight:500;font-stretch:normal;font-size:75.13297272px;font-family:'Caracteres L1';-inkscape-font-specification:'Caracteres L1 Medium';letter-spacing:-2.70000005px;fill:#ffffff"
       id="path4239" /><path
       d="m -718.24239,280.10843 q 11.04249,1.65087 14.19749,12.43656 l -10.2354,2.82482 q -1.46744,-4.03546 -5.39285,-4.54906 -6.75023,-0.84378 -8.80464,3.15499 -1.35739,2.20117 -2.12779,11.00581 7.70406,-5.35616 16.69214,-1.98104 7.15377,3.11831 9.1715,10.19871 0.40355,2.12779 0.40355,4.10883 0,5.90645 -3.59523,10.41883 -4.25558,5.31948 -11.88627,5.97983 -1.39407,0.11005 -2.71477,0.11005 -17.27911,0 -18.59981,-20.54417 -0.14675,-2.71476 -0.14675,-5.20941 0,-8.03424 1.39407,-13.83063 1.87099,-7.6307 7.52064,-11.40936 4.40232,-2.97156 10.52889,-2.97156 1.76092,0 3.59523,0.2568 z m -5.24611,43.91317 q 7.74076,0.33017 8.80465,-5.35616 0.29349,-6.16325 -6.38337,-6.93366 -7.85081,-0.29349 -8.76796,5.72302 0.0734,5.94313 6.34668,6.5668 z"
       style="font-style:normal;font-variant:normal;font-weight:500;font-stretch:normal;font-size:75.13297272px;font-family:'Caracteres L1';-inkscape-font-specification:'Caracteres L1 Medium';letter-spacing:-2.70000005px;fill:#ffffff"
       id="path4241" /><path
       d="m -701.27869,322.84764 11.00581,0 0,11.07918 -11.00581,0 0,-11.07918 z"
       style="font-style:normal;font-variant:normal;font-weight:500;font-stretch:normal;font-size:75.13297272px;font-family:'Caracteres L1';-inkscape-font-specification:'Caracteres L1 Medium';letter-spacing:-2.70000005px;fill:#ffffff"
       id="path4243" /><path
       d="m -662.34005,279.925 q 3.00825,0.62366 5.72302,2.42128 l 2.49465,2.12778 q 1.65087,1.98105 2.12779,2.78814 l 1.13726,2.27454 q 0.95384,2.78813 1.02721,5.68633 l -0.18343,2.78814 -0.62366,2.05441 q -1.0639,2.6414 -3.30174,5.35616 l 0.18343,0.47692 1.76093,1.94436 1.13726,1.72424 1.02721,2.56803 q 0.84378,2.67807 0.84378,5.2461 0,5.20941 -3.48517,9.90522 -5.28279,6.34668 -13.68389,6.64017 -3.04494,0 -5.02598,-0.36686 -2.56802,-0.69703 -3.63192,-1.17395 l -2.20116,-1.10058 -1.87099,-1.35738 -1.68755,-1.50413 -1.72425,-2.23785 q -1.50412,-2.45796 -2.12779,-4.65912 l -0.0367,-0.33018 9.64842,-2.64139 q 0.69704,2.75145 3.48517,4.18221 1.72425,0.69703 5.09936,0.7704 l 1.72424,-0.18343 1.39407,-0.44023 1.0639,-0.62366 q 1.10058,-0.73372 1.98104,-2.16448 0.44023,-0.91715 0.66035,-2.49465 0.0734,-1.28401 -0.14674,-1.46744 0.0734,-0.58697 -0.51361,-1.79761 l -0.91715,-1.28401 q -0.99052,-0.99053 -1.72424,-1.35739 -0.91715,-0.5136 -2.45797,-0.84378 l -3.99877,-0.11005 0,-9.94192 q 0.80709,0.0734 3.19168,-0.22011 l 0.0734,0.0734 q 4.36564,-0.5136 5.50291,-4.76918 l -0.0734,-1.65087 0.0734,-0.25681 -0.14675,-0.5136 -0.69703,-1.35738 q -1.02721,-1.28401 -1.87099,-1.68756 -0.14674,-0.11006 -2.49465,-0.66035 l -2.31122,0.0734 0,-0.0734 -2.27453,0.36686 -1.61418,0.69704 -0.66035,0.5136 -0.73372,1.0639 -0.55029,1.35738 -9.53837,-2.86151 0.62366,-1.65087 0.22012,-0.22012 q -0.0734,-0.18343 0.84378,-1.8343 l 1.02721,-1.65087 1.46744,-1.68756 q 0.80709,-0.44023 0.80709,-0.66035 l 0.77041,-0.55029 q 2.86151,-2.12779 6.67685,-2.71476 1.90767,-0.29349 4.58575,-0.29349 1.94436,0 3.92541,0.29349 z"
       style="font-style:normal;font-variant:normal;font-weight:500;font-stretch:normal;font-size:75.13297272px;font-family:'Caracteres L1';-inkscape-font-specification:'Caracteres L1 Medium';letter-spacing:-2.70000005px;fill:#ffffff"
       id="path4245" /><path
       d="m -616.32101,280.03506 0,53.89176 -10.2354,0 0.0367,-38.0434 -0.14674,0 q -0.11006,0.47692 -2.64139,2.0911 l -3.19169,1.68756 -2.86151,1.10058 q -1.72424,0.36686 -1.87098,0.55029 l 0,-11.37267 2.27453,-1.06389 q 5.68633,-3.63192 8.18098,-8.84133 l 10.45552,0 z"
       style="font-style:normal;font-variant:normal;font-weight:500;font-stretch:normal;font-size:75.13297272px;font-family:'Caracteres L1';-inkscape-font-specification:'Caracteres L1 Medium';letter-spacing:-2.70000005px;fill:#ffffff"
       id="path4247" /></g></svg>