<?xml version="1.0" encoding="UTF-8" standalone="no"?>
<!-- Generator: Adobe Illustrator 13.0.0, SVG Export Plug-In  -->

<svg
   version="1.1"
   x="0px"
   y="0px"
   width="576px"
   height="576px"
   viewBox="-0.933 -0.933 576 576"
   enable-background="new -0.933 -0.933 576 576"
   xml:space="preserve"
   id="svg1769"
   sodipodi:docname="France_road_sign_B6b5.svg"
   inkscape:version="1.2.2 (732a01da63, 2022-12-09)"
   xmlns:inkscape="http://www.inkscape.org/namespaces/inkscape"
   xmlns:sodipodi="http://sodipodi.sourceforge.net/DTD/sodipodi-0.dtd"
   xmlns="http://www.w3.org/2000/svg"
   xmlns:svg="http://www.w3.org/2000/svg"><sodipodi:namedview
   id="namedview1771"
   pagecolor="#ffffff"
   bordercolor="#000000"
   borderopacity="0.25"
   inkscape:showpageshadow="2"
   inkscape:pageopacity="0.0"
   inkscape:pagecheckerboard="0"
   inkscape:deskcolor="#d1d1d1"
   showgrid="false"
   inkscape:zoom="1.4409722"
   inkscape:cx="203.33494"
   inkscape:cy="350.80482"
   inkscape:window-width="1920"
   inkscape:window-height="991"
   inkscape:window-x="-9"
   inkscape:window-y="-9"
   inkscape:window-maximized="1"
   inkscape:current-layer="svg1769" />
<defs
   id="defs1729">
</defs>
<path
   fill="#FF0000"
   stroke="#FF0000"
   stroke-width="0.1764"
   stroke-linecap="round"
   stroke-linejoin="round"
   d="M0.088,533.048  V41.085c0-10.873,4.319-21.301,12.008-28.989S30.212,0.088,41.085,0.088h491.963c10.873,0,21.301,4.319,28.989,12.008  s12.008,18.116,12.008,28.989v491.963c0,10.873-4.319,21.301-12.008,28.989s-18.116,12.008-28.989,12.008H41.085  c-10.873,0-21.301-4.319-28.989-12.008S0.088,543.921,0.088,533.048z"
   id="path1731" />
<path
   fill="#FFFFFF"
   stroke="#FF0000"
   stroke-width="0.1764"
   stroke-linecap="round"
   stroke-linejoin="round"
   d="M16.487,533.048  V41.085c0-6.524,2.592-12.781,7.205-17.394c4.613-4.613,10.87-7.205,17.394-7.205h491.963c6.524,0,12.78,2.592,17.394,7.205  s7.205,10.87,7.205,17.394v491.963c0,6.523-2.592,12.78-7.205,17.394s-10.869,7.205-17.394,7.205H41.085  c-6.524,0-12.78-2.592-17.394-7.205C19.079,545.829,16.487,539.572,16.487,533.048z"
   id="path1733" />
<circle
   fill="#FF0000"
   stroke="#FF0000"
   stroke-width="0.1764"
   stroke-linecap="round"
   stroke-linejoin="round"
   cx="287.067"
   cy="287.067"
   r="187.326"
   id="circle1735" />
<path
   fill="none"
   stroke="#0000FF"
   stroke-width="0.1764"
   stroke-linecap="round"
   stroke-linejoin="round"
   d="M375.514,383.851  c-49.265,45.021-124.488,45.853-174.736,1.93s-59.483-118.582-21.454-173.425l192.908,168.627L375.514,383.851z"
   id="path1737" />
<path
   fill="#0000FF"
   stroke="#FF0000"
   stroke-width="0.1764"
   stroke-linecap="round"
   stroke-linejoin="round"
   d="M376.207,383.842  c-49.406,45.509-125.159,46.494-175.732,2.287c-50.573-44.208-59.727-119.412-21.234-174.46l193.297,168.966L376.207,383.842z"
   id="path1739" />
<path
   fill="none"
   stroke="#0000FF"
   stroke-width="0.1764"
   stroke-linecap="round"
   stroke-linejoin="round"
   d="M394.897,361.651  c37.965-54.889,28.641-129.536-21.659-173.399s-125.522-42.943-174.734,2.137l193.109,168.397L394.897,361.651z"
   id="path1741" />
<path
   fill="#0000FF"
   stroke="#FF0000"
   stroke-width="0.1764"
   stroke-linecap="round"
   stroke-linejoin="round"
   d="M394.982,362.337  c38.428-55.094,29.185-130.287-21.44-174.435c-50.626-44.147-126.378-43.072-175.729,2.495l193.497,168.736L394.982,362.337z"
   id="path1743" />









<rect
   x="448.19"
   y="418"
   stroke="#000000"
   stroke-width="0.5"
   stroke-linecap="round"
   stroke-linejoin="round"
   width="90.58"
   height="125.423"
   id="rect1763" />
<path
   fill="#FFFFFF"
   stroke="#000000"
   stroke-width="0.5"
   stroke-linecap="round"
   stroke-linejoin="round"
   d="M456,504.341  c6.365,10.693,21.034,18.179,38.113,18.179c17.187,0,31.932-7.579,38.231-18.379l-21.128-18.363  c-2.823,5.955-9.438,10.135-17.144,10.135c-7.38,0-13.756-3.831-16.765-9.386L456,504.341z"
   id="path1765" />
<polyline
   fill="#FFFFFF"
   stroke="#000000"
   stroke-width="0.5"
   stroke-linecap="round"
   stroke-linejoin="round"
   points="  495.317,481.123 481.573,432.295 509.018,432.304 495.209,480.966 "
   id="polyline1767" />
<g
   id="g2038"><g
     aria-label="1.15"
     id="text1951"
     style="font-weight:bold;font-size:54.9435px;line-height:0.7;font-family:'Caracteres L1';-inkscape-font-specification:'Caracteres L1 Bold';fill:#ffffff;fill-rule:evenodd;stroke-width:7.4923;stroke-linecap:round;stroke-linejoin:round;paint-order:stroke fill markers"><path
       d="m 278.2767,182.26582 v 39.41016 h -7.48498 l 0.0268,-27.82051 h -0.10731 q -0.0805,0.34876 -1.93161,1.52919 l -2.33402,1.23408 -2.09258,0.80484 q -1.26091,0.26827 -1.36822,0.40241 v -8.31664 l 1.66333,-0.77801 q 4.15832,-2.65596 5.98262,-6.46552 z"
       id="path2018" /><path
       d="m 288.9542,213.57396 h 8.04836 v 8.10202 h -8.04836 z"
       id="path2020" /><path
       d="m 323.37437,182.26582 v 39.41016 h -7.48498 l 0.0268,-27.82051 h -0.10731 q -0.0805,0.34876 -1.93161,1.52919 l -2.33403,1.23408 -2.09257,0.80484 q -1.26091,0.26827 -1.36822,0.40241 v -8.31664 l 1.66333,-0.77801 q 4.15832,-2.65596 5.98261,-6.46552 z"
       id="path2022" /><path
       d="m 359.37739,182.23899 -0.0268,7.53864 h -13.25297 l -0.91215,6.70697 q 1.87795,-0.53656 3.97053,-0.45607 1.95843,-0.0537 3.99735,0.42924 2.95107,0.93898 5.25827,3.29983 3.19251,3.48763 3.62176,7.72643 0.0268,0.61704 0.0268,1.20726 0,2.57547 -0.6707,4.45342 -1.23408,2.87059 -3.38031,5.15096 -3.54128,3.32665 -8.63858,3.32665 h -0.53656 l -2.46816,-0.16096 q -3.86322,-0.42925 -6.70697,-2.70962 -3.67542,-3.38031 -4.53391,-6.94842 l 7.72643,-1.95844 q 0.34876,1.58285 1.82429,2.84376 2.22672,1.6365 6.27773,0.6707 3.35348,-1.36823 3.13886,-4.77537 0.0805,-3.0852 -2.7901,-4.37294 -1.98527,-0.59021 -4.48026,-0.32194 -1.90478,0.40242 -3.40714,1.47554 l -6.68014,-5.23144 1.98526,-17.8942 z"
       id="path2024" /></g><g
     aria-label="16.31"
     id="text2005"
     style="font-weight:bold;font-size:54.9435px;line-height:0.7;font-family:'Caracteres L1';-inkscape-font-specification:'Caracteres L1 Bold';fill:#ffffff;fill-rule:evenodd;stroke-width:7.4923;stroke-linecap:round;stroke-linejoin:round;paint-order:stroke fill markers"><path
       d="m 220.12671,347.11786 v 39.41016 h -7.48498 l 0.0268,-27.82052 h -0.10731 q -0.0805,0.34876 -1.93161,1.52919 l -2.33403,1.23408 -2.09257,0.80484 q -1.26091,0.26828 -1.36822,0.40242 v -8.31664 l 1.66332,-0.77801 q 4.15833,-2.65596 5.98262,-6.46552 z"
       id="path2007" /><path
       d="m 248.08136,347.17151 q 8.07519,1.20726 10.38239,9.09466 l -7.48498,2.06574 q -1.07311,-2.95106 -3.9437,-3.32666 -4.93633,-0.61704 -6.43869,2.3072 -0.99263,1.60968 -1.55602,8.04837 5.63386,-3.91687 12.20669,-1.44871 5.23144,2.28037 6.70697,7.45815 0.29511,1.55602 0.29511,3.00472 0,4.31929 -2.62914,7.61912 -3.11203,3.89005 -8.69223,4.37295 -1.01946,0.0805 -1.98526,0.0805 -12.63593,0 -13.60174,-15.02361 -0.10731,-1.98527 -0.10731,-3.80956 0,-5.87531 1.01946,-10.11411 1.36822,-5.5802 5.49972,-8.34347 3.21934,-2.17306 7.6996,-2.17306 1.28774,0 2.62913,0.18779 z m -3.83639,32.11298 q 5.66069,0.24145 6.43869,-3.91687 0.21463,-4.50709 -4.66805,-5.07047 -5.74116,-0.21463 -6.41186,4.18515 0.0537,4.34611 4.64122,4.80219 z"
       id="path2009" /><path
       d="m 262.43428,378.426 h 8.04836 v 8.10202 h -8.04836 z"
       id="path2011" /><path
       d="m 292.88392,347.03737 q 2.19989,0.45608 4.18515,1.77064 l 1.82429,1.55602 q 1.20726,1.44871 1.55602,2.03892 l 0.83167,1.66333 q 0.69752,2.03892 0.75118,4.15832 l -0.13414,2.03892 -0.45608,1.50236 q -0.77801,1.93161 -2.41451,3.91687 l 0.13414,0.34876 1.28774,1.42188 0.83167,1.26091 0.75118,1.87795 q 0.61704,1.95844 0.61704,3.83639 0,3.80956 -2.54865,7.24353 -3.86322,4.64122 -10.0068,4.85585 -2.22671,0 -3.67542,-0.26828 -1.87795,-0.50973 -2.65596,-0.8585 l -1.60967,-0.80483 -1.36823,-0.99263 -1.23408,-1.09995 -1.26091,-1.6365 q -1.09994,-1.79747 -1.55602,-3.40714 l -0.0268,-0.24145 7.05573,-1.93161 q 0.50973,2.01209 2.54865,3.05838 1.26091,0.50973 3.72907,0.56339 l 1.26091,-0.13414 1.01946,-0.32194 0.77801,-0.45607 q 0.80484,-0.53656 1.44871,-1.58285 0.32193,-0.67069 0.4829,-1.82429 0.0537,-0.93898 -0.10731,-1.07312 0.0537,-0.42924 -0.37559,-1.31456 l -0.6707,-0.93898 q -0.72435,-0.72435 -1.26091,-0.99263 -0.6707,-0.37559 -1.79747,-0.61704 l -2.92424,-0.0805 v -7.27035 q 0.59022,0.0537 2.33403,-0.16097 l 0.0537,0.0537 q 3.19252,-0.37559 4.02419,-3.48763 l -0.0537,-1.20725 0.0537,-0.1878 -0.10731,-0.37559 -0.50973,-0.99263 q -0.75119,-0.93898 -1.36823,-1.23408 -0.10731,-0.0805 -1.82429,-0.4829 l -1.69016,0.0536 v -0.0536 l -1.66333,0.26828 -1.18042,0.50972 -0.48291,0.3756 -0.53655,0.778 -0.40242,0.99264 -6.97525,-2.09258 0.45607,-1.20725 0.16097,-0.16097 q -0.0537,-0.13414 0.61704,-1.3414 l 0.75118,-1.20725 1.07312,-1.23408 q 0.59021,-0.32194 0.59021,-0.4829 l 0.56339,-0.40242 q 2.09257,-1.55602 4.88267,-1.98527 1.39505,-0.21462 3.35349,-0.21462 1.42187,0 2.87058,0.21462 z"
       id="path2013" /><path
       d="m 328.51135,347.11786 v 39.41016 h -7.48498 l 0.0268,-27.82052 h -0.10731 q -0.0805,0.34876 -1.93161,1.52919 l -2.33402,1.23408 -2.09258,0.80484 q -1.26091,0.26828 -1.36822,0.40242 v -8.31664 l 1.66333,-0.77801 q 4.15832,-2.65596 5.98262,-6.46552 z"
       id="path2015" /></g></g></svg>
