<?xml version="1.0" encoding="UTF-8" standalone="no"?>
<!-- Generator: Adobe Illustrator 13.0.0, SVG Export Plug-In  -->

<svg
   xmlns:dc="http://purl.org/dc/elements/1.1/"
   xmlns:cc="http://creativecommons.org/ns#"
   xmlns:rdf="http://www.w3.org/1999/02/22-rdf-syntax-ns#"
   xmlns:svg="http://www.w3.org/2000/svg"
   xmlns="http://www.w3.org/2000/svg"
   xmlns:sodipodi="http://sodipodi.sourceforge.net/DTD/sodipodi-0.dtd"
   xmlns:inkscape="http://www.inkscape.org/namespaces/inkscape"
   version="1.1"
   x="0px"
   y="0px"
   width="576px"
   height="576px"
   viewBox="-0.031 -0.031 576 576"
   enable-background="new -0.031 -0.031 576 576"
   xml:space="preserve"
   id="svg2"
   inkscape:version="0.91 r13725"
   sodipodi:docname="France_road_sign_B7a.svg"><metadata
     id="metadata34"><rdf:RDF><cc:Work
         rdf:about=""><dc:format>image/svg+xml</dc:format><dc:type
           rdf:resource="http://purl.org/dc/dcmitype/StillImage" /></cc:Work></rdf:RDF></metadata><sodipodi:namedview
     pagecolor="#ffffff"
     bordercolor="#666666"
     borderopacity="1"
     objecttolerance="10"
     gridtolerance="10"
     guidetolerance="10"
     inkscape:pageopacity="0"
     inkscape:pageshadow="2"
     inkscape:window-width="1440"
     inkscape:window-height="788"
     id="namedview32"
     showgrid="false"
     inkscape:zoom="5.4865225"
     inkscape:cx="213.244"
     inkscape:cy="229.15974"
     inkscape:window-x="0"
     inkscape:window-y="1"
     inkscape:window-maximized="1"
     inkscape:current-layer="svg2" /><defs
     id="defs4" /><circle
     fill="#FFFFFF"
     stroke="#000000"
     stroke-width="2"
     stroke-linecap="round"
     stroke-linejoin="round"
     cx="287.969"
     cy="287.969"
     r="286.969"
     id="circle6" /><circle
     cx="287.969"
     cy="287.969"
     r="273.98"
     id="circle8"
     stroke-linejoin="round"
     stroke-linecap="round"
     stroke-width="0.1764"
     stroke="#FF0000"
     fill="#FF0000" /><path
     fill="#FFFFFF"
     stroke="#FF0000"
     stroke-width="0.1764"
     stroke-linecap="round"
     stroke-linejoin="round"
     d="M445.806,398.059  c56.203-80.579,42.686-190.557-31.359-255.127c-74.045-64.569-184.839-62.997-257.021,3.649l283.008,246.793L445.806,398.059z"
     id="path10" /><path
     fill="#FFFFFF"
     stroke="#FF0000"
     stroke-width="0.1764"
     stroke-linecap="round"
     stroke-linejoin="round"
     d="M418.345,429.512  c-72.261,66.561-183.057,68.002-257.025,3.345c-73.968-64.657-87.356-174.651-31.057-255.164L412.978,424.82L418.345,429.512z"
     id="path12" /><path
     inkscape:connector-curvature="0"
     id="rect4200"
     d="m 343.76725,166.20964 c -8.18049,-0.10905 -14.18135,3.61685 -16.72525,13.63816 l -6.7066,26.62391 c -4.53801,0.0338 -8.1814,3.69513 -8.1814,8.2414 l 0,25.10662 c 0,4.4204 3.44682,7.9952 7.80895,8.2214 l 0,25.88151 c 0,1.89656 1.52548,3.42204 3.42204,3.42204 l 11.39097,0 c 1.89655,0 3.42453,-1.52548 3.42453,-3.42204 l 0,-25.85902 77.90702,0 0,25.85902 c 0,1.89656 1.52798,3.42204 3.42454,3.42204 l 11.39096,0 c 1.89656,0 3.42204,-1.52548 3.42204,-3.42204 l 0,-25.88151 c 4.3611,-0.22744 7.80895,-3.80184 7.80895,-8.2214 l 0,-25.10662 c 0,-4.54627 -3.64588,-8.20764 -8.1839,-8.2414 l -6.70659,-26.62391 c -2.54391,-10.02131 -8.54227,-13.74721 -16.72275,-13.63816 l -33.38801,0 -33.3855,0 z m 2.57465,9.18126 57.30228,0.055 c 13.01184,-0.28164 13.48866,-0.006 16.72276,13.63817 l 2.63964,10.48108 c 0.73473,2.87478 0.36156,5.16659 -1.33732,6.90407 l -89.03302,0 c -1.69888,-1.73748 -2.07204,-4.02929 -1.33732,-6.90407 l 2.63965,-10.48108 c 2.82983,-11.93922 3.55069,-13.64274 12.40333,-13.69316 z m -17.26018,44.70899 a 7.076577,7.076577 0 0 1 7.07655,7.07654 7.076577,7.076577 0 0 1 -7.07655,7.07655 7.076577,7.076577 0 0 1 -7.07655,-7.07655 7.076577,7.076577 0 0 1 7.07655,-7.07654 z m 96.14456,0 a 7.076577,7.076577 0 0 1 7.07655,7.07654 7.076577,7.076577 0 0 1 -7.07655,7.07655 7.076577,7.076577 0 0 1 -7.07655,-7.07655 7.076577,7.076577 0 0 1 7.07655,-7.07654 z"
     style="opacity:1;fill:#000000;fill-opacity:1;fill-rule:evenodd;stroke:none;stroke-width:1;stroke-linecap:round;stroke-linejoin:round;stroke-miterlimit:4;stroke-dasharray:none;stroke-dashoffset:0;stroke-opacity:1" /><path
     inkscape:connector-curvature="0"
     id="circle4217"
     d="m 223.37913,315.22895 -13.45023,2.64867 -5.17912,9.26011 c -2.44333,-1.51424 -3.86038,-2.47286 -6.58415,-3.42622 -4.87241,-1.4987 -6.59672,-1.13126 -7.65499,1.13449 -1.49686,4.23738 -3.01483,8.47233 1.52668,13.43432 2.31512,-1.3e-4 4.21099,-0.1199 5.87254,-0.30693 l -8.03922,11.45407 a 24.907513,24.907513 0 0 0 -11.76895,-2.98061 24.907513,24.907513 0 0 0 -24.90771,24.90771 24.907513,24.907513 0 0 0 24.90771,24.90771 24.907513,24.907513 0 0 0 24.90771,-24.90771 24.907513,24.907513 0 0 0 -7.72206,-18.01549 l 8.15289,-11.61548 c 2.02387,7.83374 7.5443,10.22766 15.12014,9.42493 l 1.10153,5.05634 c -2.53871,1.54039 -4.29698,4.92101 -4.29698,8.87361 0,5.41141 3.28897,9.76824 7.37534,9.76824 l 33.27318,0 3.3853,0 a 24.907513,24.907513 0 0 0 24.63148,21.41556 24.907513,24.907513 0 0 0 24.63488,-21.41556 l 4.52888,0 0,-5.64973 -4.37201,0 a 24.907513,24.907513 0 0 0 -1.27318,-5.96007 l 2.61911,-0.90374 a 27.681823,27.681823 0 0 0 -19.27502,-17.77108 l -3.1227,-13.03076 -45.51162,2.35424 c -2.08562,-2.57138 -5.04796,-4.63258 -8.97137,-5.16319 l -21.00405,-2.84078 -2.0405,-2.03936 1.41301,-2.82487 12.71133,-3.06472 -0.98785,-2.7237 z m -45.27744,39.20824 a 16.917496,16.917496 0 0 1 7.13094,1.5983 l -5.20071,7.41058 a 8.1506703,8.1506703 0 0 0 -1.93023,-0.24213 8.1506703,8.1506703 0 0 0 -8.15063,8.15062 8.1506703,8.1506703 0 0 0 8.15063,8.15062 8.1506703,8.1506703 0 0 0 8.15062,-8.15062 8.1506703,8.1506703 0 0 0 -0.94352,-3.79567 l 5.30643,-7.56177 a 16.917496,16.917496 0 0 1 4.40384,11.35744 16.917496,16.917496 0 0 1 -16.91737,16.91737 16.917496,16.917496 0 0 1 -16.91737,-16.91737 16.917496,16.917496 0 0 1 16.91737,-16.91737 z m 105.92853,0 a 16.917496,16.917496 0 0 1 16.75822,14.75979 l -8.89975,0 a 8.1506703,8.1506703 0 0 0 -6.78764,-5.91347 l -3.43645,-8.66216 a 16.917496,16.917496 0 0 1 2.36562,-0.18416 z m -8.04036,2.05073 3.27844,8.2643 a 8.1506703,8.1506703 0 0 0 -3.0886,4.44476 l -8.90885,0 a 16.917496,16.917496 0 0 1 8.71901,-12.70906 z m -8.49165,18.35879 9.17598,0 a 8.1506703,8.1506703 0 0 0 7.35603,4.65847 8.1506703,8.1506703 0 0 0 7.35374,-4.65847 l 9.19304,0 a 16.917496,16.917496 0 0 1 -16.54678,13.42522 16.917496,16.917496 0 0 1 -16.53201,-13.42522 z"
     style="opacity:1;fill:#000000;fill-opacity:1;fill-rule:evenodd;stroke:none;stroke-width:0.30000001;stroke-linecap:round;stroke-linejoin:round;stroke-miterlimit:4;stroke-dasharray:none;stroke-dashoffset:0;stroke-opacity:1" /></svg>