<?xml version="1.0" encoding="UTF-8" standalone="no"?>
<!-- Generator: Adobe Illustrator 13.0.0, SVG Export Plug-In . SVG Version: 6.00 Build 14948)  -->

<svg
   xmlns:dc="http://purl.org/dc/elements/1.1/"
   xmlns:cc="http://creativecommons.org/ns#"
   xmlns:rdf="http://www.w3.org/1999/02/22-rdf-syntax-ns#"
   xmlns:svg="http://www.w3.org/2000/svg"
   xmlns="http://www.w3.org/2000/svg"
   xmlns:sodipodi="http://sodipodi.sourceforge.net/DTD/sodipodi-0.dtd"
   xmlns:inkscape="http://www.inkscape.org/namespaces/inkscape"
   version="1.1"
   id="Layer_1"
   x="0px"
   y="0px"
   width="576px"
   height="576px"
   viewBox="-0.943 -0.943 576 576"
   enable-background="new -0.943 -0.943 576 576"
   xml:space="preserve"
   inkscape:version="0.91 r13725"
   sodipodi:docname="France_road_sign_B7b.svg"><metadata
     id="metadata43"><rdf:RDF><cc:Work
         rdf:about=""><dc:format>image/svg+xml</dc:format><dc:type
           rdf:resource="http://purl.org/dc/dcmitype/StillImage" /></cc:Work></rdf:RDF></metadata><defs
     id="defs41" /><sodipodi:namedview
     pagecolor="#ffffff"
     bordercolor="#666666"
     borderopacity="1"
     objecttolerance="10"
     gridtolerance="10"
     guidetolerance="10"
     inkscape:pageopacity="0"
     inkscape:pageshadow="2"
     inkscape:window-width="1440"
     inkscape:window-height="788"
     id="namedview39"
     showgrid="false"
     inkscape:zoom="2.3034934"
     inkscape:cx="234.36034"
     inkscape:cy="218.54028"
     inkscape:window-x="0"
     inkscape:window-y="1"
     inkscape:window-maximized="1"
     inkscape:current-layer="Layer_1" /><circle
     fill="#FFFFFF"
     stroke="#000000"
     stroke-linecap="round"
     stroke-linejoin="round"
     cx="287.057"
     cy="287.057"
     r="286.969"
     id="circle3" /><circle
     fill="#FF0000"
     stroke="#FF0000"
     stroke-width="0.1764"
     stroke-linecap="round"
     stroke-linejoin="round"
     cx="287.057"
     cy="287.057"
     r="273.982"
     id="circle5" /><path
     fill="#FFFFFF"
     stroke="#FF0000"
     stroke-width="0.1764"
     stroke-linecap="round"
     stroke-linejoin="round"
     d="M444.894,397.146  c56.203-80.578,42.686-190.557-31.359-255.126c-74.045-64.569-184.839-62.997-257.021,3.649l283.008,246.793L444.894,397.146z"
     id="path7" /><path
     fill="#FFFFFF"
     stroke="#FF0000"
     stroke-width="0.1764"
     stroke-linecap="round"
     stroke-linejoin="round"
     d="M417.433,428.6  c-72.261,66.562-183.058,68.002-257.025,3.346c-73.968-64.657-87.355-174.651-31.057-255.164l282.715,247.128L417.433,428.6z"
     id="path9" /><path
     inkscape:connector-curvature="0"
     id="rect4200"
     d="m 337.44726,161.64079 c -7.3607,-0.0981 -12.76019,3.2544 -15.04917,12.27144 l -6.03451,23.95586 c -4.08325,0.0304 -7.36152,3.32484 -7.36152,7.41551 l 0,22.59063 c 0,3.97741 3.10141,7.19397 7.0264,7.3975 l 0,23.28786 c 0,1.7065 1.3726,3.07911 3.0791,3.07911 l 10.24945,0 c 1.7065,0 3.08136,-1.37261 3.08136,-3.07911 l 0,-23.26762 70.09975,0 0,23.26762 c 0,1.7065 1.37486,3.07911 3.08136,3.07911 l 10.24945,0 c 1.70649,0 3.0791,-1.37261 3.0791,-3.07911 l 0,-23.28786 c 3.92406,-0.20464 7.0264,-3.42085 7.0264,-7.3975 l 0,-22.59063 c 0,-4.09067 -3.28052,-7.38513 -7.36377,-7.41551 l -6.03451,-23.95586 c -2.28898,-9.01704 -7.68622,-12.36956 -15.04692,-12.27144 l -30.04211,0 -30.03986,0 z m 2.31664,8.26118 51.55988,0.0495 c 11.70788,-0.25342 12.13692,-0.006 15.04692,12.27145 l 2.37512,9.43075 c 0.6611,2.58668 0.32532,4.64883 -1.20331,6.21219 l -80.11078,0 c -1.52864,-1.56336 -1.86441,-3.62551 -1.20331,-6.21219 l 2.37512,-9.43075 c 2.54625,-10.74276 3.19487,-12.27556 11.16036,-12.32093 z m -15.53049,40.22859 a 6.3674151,6.3674151 0 0 1 6.36739,6.36738 6.3674151,6.3674151 0 0 1 -6.36739,6.36739 6.3674151,6.3674151 0 0 1 -6.36739,-6.36739 6.3674151,6.3674151 0 0 1 6.36739,-6.36738 z m 86.50967,0 a 6.3674151,6.3674151 0 0 1 6.36739,6.36738 6.3674151,6.3674151 0 0 1 -6.36739,6.36739 6.3674151,6.3674151 0 0 1 -6.36739,-6.36739 6.3674151,6.3674151 0 0 1 6.36739,-6.36738 z"
     style="opacity:1;fill:#000000;fill-opacity:1;fill-rule:evenodd;stroke:none;stroke-width:1;stroke-linecap:round;stroke-linejoin:round;stroke-miterlimit:4;stroke-dasharray:none;stroke-dashoffset:0;stroke-opacity:1" /><path
     inkscape:connector-curvature="0"
     id="path4342"
     d="m 163.36692,259.35042 -8.79345,4.18351 c -2.94255,1.74672 -3.10082,3.85732 -1.70202,6.1703 l 2.38341,4.87218 -0.8136,2.07686 -14.5475,0 0,11.2052 10.15914,0 -3.10695,7.93335 a 24.111087,24.111087 0 0 0 -6.76888,-0.98431 24.111087,24.111087 0 0 0 -14.24313,4.6891 l 1.46449,2.09067 a 21.558148,21.558148 0 0 0 -8.77892,17.33191 21.558148,21.558148 0 0 0 21.55756,21.55756 21.558148,21.558148 0 0 0 18.7252,-10.92915 l 2.25048,1.20369 a 24.111087,24.111087 0 0 0 3.136,-11.8321 24.111087,24.111087 0 0 0 -12.94354,-21.35633 l 1.70784,-4.3615 22.20554,15.64296 c 0.22502,6.75109 0.94399,13.4193 8.60239,13.62058 5.92047,0.42654 11.84232,0.64993 17.76632,0.7722 a 21.558148,21.558148 0 0 0 21.11879,17.23965 21.558148,21.558148 0 0 0 21.55828,-21.55756 21.558148,21.558148 0 0 0 -0.21357,-2.85124 l 2.52871,-0.33779 A 24.111087,24.111087 0 0 0 231.1952,296.36788 l 6.84516,0 0,-4.53875 -34.07904,0 1.31193,-4.04912 7.96386,0 c 5.10645,-0.88079 4.12521,-6.9626 0.37193,-7.12338 -0.12107,-0.005 -0.2452,-0.005 -0.37193,0.003 l -22.20408,0 0,4.51332 7.86289,3.20937 0.30728,-0.0305 -3.42876,9.57654 c -2.58212,5.5473 -7.99052,6.66955 -10.81655,6.18774 -3.72341,-0.6348 -7.74897,-4.45021 -8.89732,-9.30848 l -18.53561,-13.02492 2.07614,-5.30149 c 0.61456,-1.54914 0.37667,-1.94271 -0.16054,-2.87158 l -2.88175,-6.03301 8.9351,-4.11305 -2.12699,-4.11305 z m -23.18985,42.54923 a 17.019591,17.019591 0 0 1 4.16535,0.53901 l -4.9913,12.74595 c -1.75251,0.3873 -3.00091,1.93979 -3.00307,3.73458 2.2e-4,2.11462 1.7144,3.8288 3.82902,3.82902 2.1149,1.8e-4 3.82952,-1.71412 3.82974,-3.82902 -0.001,-0.57229 -0.13089,-1.13701 -0.37919,-1.65263 l 5.1068,-13.03943 a 17.019591,17.019591 0 0 1 8.46292,14.69206 17.019591,17.019591 0 0 1 -17.02027,17.01955 17.019591,17.019591 0 0 1 -17.01955,-17.01955 17.019591,17.019591 0 0 1 17.01955,-17.01954 z m 82.56902,0 a 17.019591,17.019591 0 0 1 17.02027,17.01954 17.019591,17.019591 0 0 1 -17.02027,17.01955 17.019591,17.019591 0 0 1 -16.43477,-12.62392 c 2.88093,0.0354 5.76303,0.0501 8.64525,0.0574 a 8.7251347,8.7251347 0 0 0 7.2062,3.82176 8.7251347,8.7251347 0 0 0 8.72516,-8.72517 8.7251347,8.7251347 0 0 0 -8.72516,-8.72515 l -13.73027,0 a 17.019591,17.019591 0 0 1 14.31359,-7.844 z m -18.80729,6.53497 a 21.558148,21.558148 0 0 0 -0.16272,0.28258 l -0.004,-0.15691 0.16636,-0.12567 z"
     style="opacity:1;fill:#000000;fill-opacity:1;fill-rule:evenodd;stroke:none;stroke-width:0.40000001;stroke-linecap:round;stroke-linejoin:round;stroke-miterlimit:4;stroke-dasharray:none;stroke-dashoffset:0;stroke-opacity:1" /><path
     inkscape:connector-curvature="0"
     id="circle4217"
     d="m 253.54232,356.00157 -13.45023,2.64866 -5.17912,9.26011 c -2.44333,-1.51424 -3.86038,-2.47285 -6.58415,-3.42621 -4.87241,-1.49871 -6.59672,-1.13127 -7.65499,1.13449 -1.49686,4.23738 -3.01483,8.47233 1.52668,13.43431 2.31512,-1.2e-4 4.21099,-0.11989 5.87254,-0.30692 l -8.03922,11.45407 a 24.907514,24.907514 0 0 0 -11.76895,-2.98061 24.907514,24.907514 0 0 0 -24.90771,24.90771 24.907514,24.907514 0 0 0 24.90771,24.90771 24.907514,24.907514 0 0 0 24.90771,-24.90771 24.907514,24.907514 0 0 0 -7.72206,-18.01549 l 8.15289,-11.61549 c 2.02387,7.83375 7.5443,10.22767 15.12014,9.42494 l 1.10153,5.05634 c -2.53871,1.54039 -4.29698,4.92101 -4.29698,8.87361 0,5.41141 3.28897,9.76824 7.37534,9.76824 l 33.27318,0 3.3853,0 a 24.907514,24.907514 0 0 0 24.63148,21.41556 24.907514,24.907514 0 0 0 24.63488,-21.41556 l 4.52888,0 0,-5.64973 -4.37201,0 a 24.907514,24.907514 0 0 0 -1.27318,-5.96007 l 2.61911,-0.90374 a 27.681823,27.681823 0 0 0 -19.27502,-17.77108 l -3.1227,-13.03076 -45.51162,2.35424 c -2.08562,-2.57138 -5.04796,-4.63259 -8.97137,-5.1632 l -21.00405,-2.84078 -2.0405,-2.03936 1.41301,-2.82486 12.71133,-3.06473 -0.98785,-2.72369 z m -45.27744,39.20824 a 16.917496,16.917496 0 0 1 7.13094,1.5983 l -5.20071,7.41058 a 8.1506704,8.1506704 0 0 0 -1.93023,-0.24213 8.1506704,8.1506704 0 0 0 -8.15063,8.15062 8.1506704,8.1506704 0 0 0 8.15063,8.15062 8.1506704,8.1506704 0 0 0 8.15062,-8.15062 8.1506704,8.1506704 0 0 0 -0.94352,-3.79567 l 5.30643,-7.56177 a 16.917496,16.917496 0 0 1 4.40384,11.35744 16.917496,16.917496 0 0 1 -16.91737,16.91737 16.917496,16.917496 0 0 1 -16.91737,-16.91737 16.917496,16.917496 0 0 1 16.91737,-16.91737 z m 105.92853,0 a 16.917496,16.917496 0 0 1 16.75822,14.75979 l -8.89975,0 a 8.1506704,8.1506704 0 0 0 -6.78764,-5.91347 l -3.43645,-8.66216 a 16.917496,16.917496 0 0 1 2.36562,-0.18416 z m -8.04036,2.05073 3.27844,8.2643 a 8.1506704,8.1506704 0 0 0 -3.0886,4.44476 l -8.90885,0 a 16.917496,16.917496 0 0 1 8.71901,-12.70906 z m -8.49165,18.35879 9.17598,0 a 8.1506704,8.1506704 0 0 0 7.35603,4.65847 8.1506704,8.1506704 0 0 0 7.35374,-4.65847 l 9.19304,0 a 16.917496,16.917496 0 0 1 -16.54678,13.42522 16.917496,16.917496 0 0 1 -16.53201,-13.42522 z"
     style="opacity:1;fill:#000000;fill-opacity:1;fill-rule:evenodd;stroke:none;stroke-width:0.30000001;stroke-linecap:round;stroke-linejoin:round;stroke-miterlimit:4;stroke-dasharray:none;stroke-dashoffset:0;stroke-opacity:1" /></svg>