<?xml version="1.0" encoding="UTF-8" standalone="no"?>
<!-- Generator: Adobe Illustrator 13.0.0, SVG Export Plug-In  -->

<svg
   version="1.1"
   x="0px"
   y="0px"
   width="576px"
   height="576px"
   viewBox="-0.031 -0.031 576 576"
   enable-background="new -0.031 -0.031 576 576"
   xml:space="preserve"
   id="svg18"
   sodipodi:docname="France_road_sign_B8.svg"
   inkscape:version="1.1.1 (3bf5ae0d25, 2021-09-20)"
   xmlns:inkscape="http://www.inkscape.org/namespaces/inkscape"
   xmlns:sodipodi="http://sodipodi.sourceforge.net/DTD/sodipodi-0.dtd"
   xmlns="http://www.w3.org/2000/svg"
   xmlns:svg="http://www.w3.org/2000/svg"><sodipodi:namedview
   id="namedview20"
   pagecolor="#ffffff"
   bordercolor="#666666"
   borderopacity="1.0"
   inkscape:pageshadow="2"
   inkscape:pageopacity="0.0"
   inkscape:pagecheckerboard="0"
   showgrid="false"
   inkscape:zoom="0.88265586"
   inkscape:cx="526.25267"
   inkscape:cy="400.49584"
   inkscape:window-width="1920"
   inkscape:window-height="991"
   inkscape:window-x="-9"
   inkscape:window-y="-9"
   inkscape:window-maximized="1"
   inkscape:current-layer="svg18" />
<defs
   id="defs2">
</defs>
<circle
   fill="#FFFFFF"
   stroke="#000000"
   stroke-width="2"
   stroke-linecap="round"
   stroke-linejoin="round"
   cx="287.969"
   cy="287.969"
   r="286.969"
   id="circle4" /><circle
   fill="#FF0000"
   stroke="#FF0000"
   stroke-width="0.1764"
   stroke-linecap="round"
   stroke-linejoin="round"
   cx="287.969"
   cy="287.969"
   r="274.775"
   id="circle6" /><circle
   fill="#FFFFFF"
   stroke="#FF0000"
   stroke-width="0.1764"
   stroke-linecap="round"
   stroke-linejoin="round"
   cx="287.969"
   cy="287.969"
   r="192.438"
   id="circle8" /><circle
   style="fill:#000000;stroke-width:7.5891;stroke-linecap:round;stroke-linejoin:round;paint-order:stroke fill markers"
   id="path56"
   cx="199.68402"
   cy="348.05927"
   r="31.493238" /><circle
   style="fill:#000000;stroke-width:7.5891;stroke-linecap:round;stroke-linejoin:round;paint-order:stroke fill markers"
   id="circle588"
   cx="377.22311"
   cy="348.05927"
   r="31.493238" /><path
   id="rect612"
   style="fill:#000000;stroke-width:7.50661;stroke-linecap:round;stroke-linejoin:round;paint-order:stroke fill markers"
   d="m 211.25627,196.38548 c -3.59243,0 -6.48516,2.89122 -6.48516,6.48361 v 33.3245 h -38.02354 c -4.72714,0 -8.09396,2.41601 -8.70414,8.70881 l -3.89957,41.29839 h -1.83965 c -4.99834,0 -9.022,4.02364 -9.022,9.02198 v 37.64585 h -5.12082 v 14.07353 h 24.56067 a 37.041917,37.041917 0 0 1 36.96126,-35.92424 37.041917,37.041917 0 0 1 37.01485,35.92424 h 103.56307 a 37.041917,37.041917 0 0 1 36.96126,-35.92424 37.041917,37.041917 0 0 1 37.01485,35.92424 h 23.53924 V 202.86909 c 0,-3.59239 -2.89281,-6.48361 -6.48516,-6.48361 z m -40.47376,48.99375 h 33.9886 v 40.82156 h -41.39914 l 3.651,-37.66946 c 0.16381,-1.68981 1.09144,-3.1521 3.75954,-3.1521 z" />






</svg>
