<?xml version="1.0" encoding="utf-8"?>
<!-- Generator: Adobe Illustrator 13.0.0, SVG Export Plug-In  -->
<!DOCTYPE svg PUBLIC "-//W3C//DTD SVG 1.1//EN" "http://www.w3.org/Graphics/SVG/1.1/DTD/svg11.dtd" [
	<!ENTITY ns_flows "http://ns.adobe.com/Flows/1.0/">
]>
<svg version="1.1"
	 xmlns="http://www.w3.org/2000/svg" xmlns:xlink="http://www.w3.org/1999/xlink" xmlns:a="http://ns.adobe.com/AdobeSVGViewerExtensions/3.0/"
	 x="0px" y="0px" width="576px" height="576px" viewBox="-0.031 -0.031 576 576" enable-background="new -0.031 -0.031 576 576"
	 xml:space="preserve">
<defs>
</defs>
<circle fill="#FFFFFF" stroke="#000000" stroke-width="2" stroke-linecap="round" stroke-linejoin="round" cx="287.969" cy="287.969" r="286.969"/>
<circle fill="#FF0000" stroke="#FF0000" stroke-width="0.1764" stroke-linecap="round" stroke-linejoin="round" cx="287.969" cy="287.969" r="273.982"/>
<circle fill="#FFFFFF" stroke="#FF0000" stroke-width="0.1764" stroke-linecap="round" stroke-linejoin="round" cx="287.969" cy="287.969" r="192.438"/>
<polygon stroke="#000000" stroke-width="0.1764" stroke-linecap="round" stroke-linejoin="round" points="157.548,335.408 
	145.2,308.36 162.601,291.968 158.671,274.756 142.955,267.38 128.361,279.674 122.749,276.396 125.555,264.921 123.31,259.184 
	128.361,250.168 129.483,241.152 134.536,244.431 149.69,241.152 154.181,242.791 162.601,243.611 168.213,247.709 177.755,249.348 
	188.419,254.266 194.594,259.184 209.188,259.184 218.168,260.823 227.149,257.544 233.885,255.905 241.743,255.905 
	251.285,260.823 258.582,269.838 266.44,270.658 272.053,273.117 275.42,277.215 278.228,286.231 280.473,299.345 291.698,305.901 
	292.821,294.428 301.802,294.428 303.485,287.051 324.253,287.051 325.376,281.313 311.904,281.313 312.466,278.035 
	325.938,274.756 326.498,268.199 332.111,262.462 330.989,254.266 333.234,248.528 336.602,246.069 341.093,246.069 
	342.776,249.348 343.338,253.446 340.53,260.823 345.583,266.561 345.583,297.705 354.563,300.164 374.209,272.297 425.286,280.494 
	430.338,305.082 438.197,305.901 439.318,340.325 388.241,341.146 385.435,330.49 382.066,323.934 371.963,318.195 362.982,315.737 
	352.879,318.195 345.583,323.113 339.408,329.671 336.04,341.146 292.26,341.146 292.821,316.557 269.246,305.901 270.369,310.819 
	268.685,348.522 261.95,348.522 260.827,317.376 243.426,307.541 244.549,319.835 229.956,346.883 220.414,346.883 232.762,319.016 
	223.22,293.607 192.91,298.525 190.665,345.243 182.807,344.424 182.807,316.557 170.458,301.804 156.426,310.819 162.039,323.934 
	"/>
<circle stroke="#000000" stroke-width="0.1764" stroke-linecap="round" stroke-linejoin="round" cx="363.115" cy="340.591" r="21.533"/>
</svg>
