<?xml version="1.0" encoding="UTF-8" standalone="no"?>
<!-- Generator: Adobe Illustrator 13.0.0, SVG Export Plug-In  -->

<svg
   xmlns:dc="http://purl.org/dc/elements/1.1/"
   xmlns:cc="http://creativecommons.org/ns#"
   xmlns:rdf="http://www.w3.org/1999/02/22-rdf-syntax-ns#"
   xmlns:svg="http://www.w3.org/2000/svg"
   xmlns="http://www.w3.org/2000/svg"
   xmlns:sodipodi="http://sodipodi.sourceforge.net/DTD/sodipodi-0.dtd"
   xmlns:inkscape="http://www.inkscape.org/namespaces/inkscape"
   version="1.1"
   x="0px"
   y="0px"
   width="576px"
   height="576px"
   viewBox="-0.031 -0.031 576 576"
   enable-background="new -0.031 -0.031 576 576"
   xml:space="preserve"
   id="svg2"
   inkscape:version="0.91 r13725"
   sodipodi:docname="France_road_sign_B9e.svg"><metadata
     id="metadata36"><rdf:RDF><cc:Work
         rdf:about=""><dc:format>image/svg+xml</dc:format><dc:type
           rdf:resource="http://purl.org/dc/dcmitype/StillImage" /></cc:Work></rdf:RDF></metadata><sodipodi:namedview
     pagecolor="#ffffff"
     bordercolor="#666666"
     borderopacity="1"
     objecttolerance="10"
     gridtolerance="10"
     guidetolerance="10"
     inkscape:pageopacity="0"
     inkscape:pageshadow="2"
     inkscape:window-width="1440"
     inkscape:window-height="788"
     id="namedview34"
     showgrid="false"
     inkscape:zoom="0.68694703"
     inkscape:cx="111.46701"
     inkscape:cy="288"
     inkscape:window-x="0"
     inkscape:window-y="1"
     inkscape:window-maximized="1"
     inkscape:current-layer="svg2" /><defs
     id="defs4" /><circle
     fill="#FFFFFF"
     stroke="#000000"
     stroke-width="2"
     stroke-linecap="round"
     stroke-linejoin="round"
     cx="287.969"
     cy="287.969"
     r="286.969"
     id="circle6" /><circle
     fill="#FF0000"
     stroke="#FF0000"
     stroke-width="0.1764"
     stroke-linecap="round"
     stroke-linejoin="round"
     cx="287.969"
     cy="287.969"
     r="273.982"
     id="circle8" /><circle
     fill="#FFFFFF"
     stroke="#FF0000"
     stroke-width="0.1764"
     stroke-linecap="round"
     stroke-linejoin="round"
     cx="287.969"
     cy="287.969"
     r="192.438"
     id="circle10" /><path
     inkscape:connector-curvature="0"
     id="circle4269"
     d="m 336.66815,196.46899 c -8.42267,1.4e-4 -15.25056,6.82802 -15.2507,15.25068 1.4e-4,8.42267 6.82803,15.25056 15.2507,15.25069 0.57473,-0.006 1.14866,-0.0443 1.71906,-0.11501 l 3.69842,5.75798 -30.83429,46.76444 -47.43935,7.41499 a 52.590674,52.590674 0 0 0 -36.65885,-14.88447 52.590674,52.590674 0 0 0 -46.36947,27.86375 l -34.97611,5.46742 1.98541,12.6963 27.9833,-4.37484 a 52.590674,52.590674 0 0 0 -1.21364,10.93939 52.590674,52.590674 0 0 0 52.59051,52.5905 52.590674,52.590674 0 0 0 52.59051,-52.5905 52.590674,52.590674 0 0 0 -7.0034,-26.13561 l 47.67694,-7.51941 21.37184,-31.64086 22.45534,33.38566 -23.04551,33.09208 0.71274,38.4445 c -6.53705,-0.14395 -8.02428,4.5234 -7.82508,7.33782 0.27364,3.86634 2.73251,7.69186 8.67705,7.69496 l 17.93522,0 -0.29509,-46.68273 15.95436,-25.11263 c 2.43654,-3.43932 5.45465,-3.28059 6.5358,1.51175 l 3.80434,25.07783 20.02201,31.2686 c -5.81279,4.88985 -4.79998,8.14791 -3.46689,10.42791 1.50465,2.57342 5.54782,6.33013 13.28648,1.44063 l 13.59063,-8.5681 -25.11416,-40.47682 -7.38624,-39.44326 c -1.15963,-7.48482 -2.79932,-12.45951 -5.9093,-16.69434 l -25.40924,-40.77191 c -4.02839,-4.63066 -10.81117,-4.67753 -15.34753,-2.81467 l -3.50321,-5.83969 c 2.85156,-2.85623 4.45467,-6.72633 4.45808,-10.76235 -1.4e-4,-8.42266 -6.82802,-15.25054 -15.25068,-15.25068 z m -109.51501,85.18926 a 42.840717,42.840717 0 0 1 23.67201,7.1638 l -26.46399,4.13727 -1.57833,-11.0317 a 42.840717,42.840717 0 0 1 4.37031,-0.26937 z m -9.31869,1.08047 1.57229,10.9954 -25.66196,4.01166 a 42.840717,42.840717 0 0 1 24.08967,-15.00706 z m 44.41585,17.27998 a 42.840717,42.840717 0 0 1 6.90503,16.23583 l -20.80437,2.97508 a 21.863538,21.863538 0 0 0 -7.24551,-11.55378 l 4.30826,-5.00135 16.83659,-2.65578 z m -61.17072,9.58654 6.7537,4.68809 a 21.863538,21.863538 0 0 0 -2.5438,10.20698 21.863538,21.863538 0 0 0 0.0318,0.88374 l -20.80134,2.97508 a 42.840717,42.840717 0 0 1 -0.20732,-3.85882 42.840717,42.840717 0 0 1 1.89007,-12.56919 l 14.87691,-2.32588 z m 68.7779,11.6143 a 42.840717,42.840717 0 0 1 0.13772,3.28077 42.840717,42.840717 0 0 1 -7.75701,24.5497 l -16.94857,-12.35127 a 21.863538,21.863538 0 0 0 3.72717,-12.19843 21.863538,21.863538 0 0 0 -0.0106,-0.29812 l 20.85128,-2.98265 z M 206.08546,330.34 a 21.863538,21.863538 0 0 0 5.57487,9.56988 L 198.80212,356.5664 A 42.840717,42.840717 0 0 1 185.28109,333.31508 L 206.08546,330.34 Z m 36.05506,10.05867 17.08325,12.44812 A 42.840717,42.840717 0 0 1 234.895,366.61448 l -2.97507,-20.80589 a 21.863538,21.863538 0 0 0 10.22059,-5.40992 z m -26.69703,2.53624 a 21.863538,21.863538 0 0 0 11.48871,3.41846 l 2.9887,20.88912 a 42.840717,42.840717 0 0 1 -2.76776,0.0984 42.840717,42.840717 0 0 1 -24.55727,-7.76305 l 12.84762,-16.64289 z"
     style="opacity:1;fill:#000000;fill-opacity:1;fill-rule:evenodd;stroke:none;stroke-width:0.30000001;stroke-linecap:round;stroke-linejoin:round;stroke-miterlimit:4;stroke-dasharray:none;stroke-dashoffset:0;stroke-opacity:1" /></svg>