<?xml version="1.0" encoding="UTF-8" standalone="no"?>
<!-- Generator: Adobe Illustrator 13.0.0, SVG Export Plug-In  -->

<svg
   xmlns:dc="http://purl.org/dc/elements/1.1/"
   xmlns:cc="http://creativecommons.org/ns#"
   xmlns:rdf="http://www.w3.org/1999/02/22-rdf-syntax-ns#"
   xmlns:svg="http://www.w3.org/2000/svg"
   xmlns="http://www.w3.org/2000/svg"
   xmlns:sodipodi="http://sodipodi.sourceforge.net/DTD/sodipodi-0.dtd"
   xmlns:inkscape="http://www.inkscape.org/namespaces/inkscape"
   version="1.1"
   x="0px"
   y="0px"
   width="576px"
   height="576px"
   viewBox="-0.031 -0.031 576 576"
   enable-background="new -0.031 -0.031 576 576"
   xml:space="preserve"
   id="svg2"
   inkscape:version="0.91 r13725"
   sodipodi:docname="France_road_sign_B9g.svg"><metadata
     id="metadata20"><rdf:RDF><cc:Work
         rdf:about=""><dc:format>image/svg+xml</dc:format><dc:type
           rdf:resource="http://purl.org/dc/dcmitype/StillImage" /></cc:Work></rdf:RDF></metadata><sodipodi:namedview
     pagecolor="#ffffff"
     bordercolor="#666666"
     borderopacity="1"
     objecttolerance="10"
     gridtolerance="10"
     guidetolerance="10"
     inkscape:pageopacity="0"
     inkscape:pageshadow="2"
     inkscape:window-width="1440"
     inkscape:window-height="788"
     id="namedview18"
     showgrid="false"
     inkscape:zoom="0.9714898"
     inkscape:cx="110.43766"
     inkscape:cy="288"
     inkscape:window-x="0"
     inkscape:window-y="1"
     inkscape:window-maximized="1"
     inkscape:current-layer="svg2" /><defs
     id="defs4" /><circle
     fill="#FFFFFF"
     stroke="#000000"
     stroke-width="2"
     stroke-linecap="round"
     stroke-linejoin="round"
     cx="287.969"
     cy="287.969"
     r="286.969"
     id="circle6" /><circle
     fill="#FF0000"
     stroke="#FF0000"
     stroke-width="0.1764"
     stroke-linecap="round"
     stroke-linejoin="round"
     cx="287.969"
     cy="287.969"
     r="273.982"
     id="circle8" /><circle
     fill="#FFFFFF"
     stroke="#FF0000"
     stroke-width="0.1764"
     stroke-linecap="round"
     stroke-linejoin="round"
     cx="287.969"
     cy="287.969"
     r="192.438"
     id="circle10" /><path
     inkscape:connector-curvature="0"
     id="path4342"
     d="m 245.64232,198.79133 -19.33233,9.19743 c -6.46918,3.84015 -6.81713,8.48028 -3.74189,13.56536 l 5.23993,10.71143 -1.7887,4.56597 -31.98257,0 0,24.63453 22.33478,0 -6.83059,17.44141 a 53.008036,53.008036 0 0 0 -14.88134,-2.164 53.008036,53.008036 0 0 0 -31.3134,10.30897 l 3.21966,4.59632 a 47.39542,47.39542 0 0 0 -19.30038,38.10407 47.39542,47.39542 0 0 0 47.39412,47.39412 47.39542,47.39542 0 0 0 41.16722,-24.02766 l 4.94767,2.64632 a 53.008036,53.008036 0 0 0 6.89447,-26.01278 53.008036,53.008036 0 0 0 -28.45628,-46.95174 l 3.75467,-9.58871 48.81869,34.39093 c 0.49472,14.84221 2.07537,29.50221 18.9123,29.94472 13.0161,0.93776 26.03525,1.42887 39.05911,1.69767 a 47.39542,47.39542 0 0 0 46.4295,37.90125 47.39542,47.39542 0 0 0 47.39572,-47.39412 47.39542,47.39542 0 0 0 -0.46953,-6.26843 l 5.55934,-0.74263 a 53.008036,53.008036 0 0 0 -33.91022,-42.56783 l 15.04903,0 0,-9.97839 -74.92251,0 2.88427,-8.90197 17.50848,0 c 11.22649,-1.93641 9.06924,-15.30723 0.81769,-15.66069 -0.26618,-0.0114 -0.53907,-0.0101 -0.81769,0.006 l -48.81549,0 0,9.92249 17.28649,7.05577 0.67555,-0.067 -7.53808,21.05394 c -5.67679,12.1957 -17.56711,14.66296 -23.78011,13.6037 -8.18588,-1.39561 -17.03604,-9.78375 -19.5607,-20.46463 l -40.75038,-28.63517 4.56438,-11.65529 c 1.3511,-3.40577 0.82811,-4.27103 -0.35296,-6.31315 l -6.3355,-13.26348 19.64374,-9.04251 -4.67616,-9.04251 z m -50.98271,93.54416 a 37.417438,37.417438 0 0 1 9.1575,1.185 l -10.97335,28.02188 c -3.85286,0.85146 -6.59746,4.26461 -6.60221,8.21045 4.8e-4,4.64897 3.76909,8.41758 8.41806,8.41805 4.6496,4.1e-4 8.41919,-3.76846 8.41966,-8.41805 -0.003,-1.25819 -0.28777,-2.49971 -0.83366,-3.6333 l 11.22728,-28.66708 a 37.417438,37.417438 0 0 1 18.60566,32.30038 37.417438,37.417438 0 0 1 -37.41894,37.41733 37.417438,37.417438 0 0 1 -37.41733,-37.41733 37.417438,37.417438 0 0 1 37.41733,-37.41733 z m 181.52735,0 a 37.417438,37.417438 0 0 1 37.41894,37.41733 37.417438,37.417438 0 0 1 -37.41894,37.41733 37.417438,37.417438 0 0 1 -36.13171,-27.75357 c 6.3337,0.0778 12.66998,0.11021 19.00652,0.12617 a 19.182141,19.182141 0 0 0 15.84276,8.40209 19.182141,19.182141 0 0 0 19.1822,-19.1822 19.182141,19.182141 0 0 0 -19.1822,-19.18219 l -30.18589,0 a 37.417438,37.417438 0 0 1 31.46832,-17.24496 z m -41.34769,14.36707 a 47.39542,47.39542 0 0 0 -0.35774,0.62125 l -0.008,-0.34496 0.36573,-0.27629 z"
     style="opacity:1;fill:#000000;fill-opacity:1;fill-rule:evenodd;stroke:none;stroke-width:0.40000001;stroke-linecap:round;stroke-linejoin:round;stroke-miterlimit:4;stroke-dasharray:none;stroke-dashoffset:0;stroke-opacity:1" /></svg>