<?xml version="1.0" encoding="utf-8"?>
<!-- Generator: Adobe Illustrator 13.0.0, SVG Export Plug-In  -->
<!DOCTYPE svg PUBLIC "-//W3C//DTD SVG 1.1//EN" "http://www.w3.org/Graphics/SVG/1.1/DTD/svg11.dtd" [
	<!ENTITY ns_flows "http://ns.adobe.com/Flows/1.0/">
]>
<svg version="1.1"
	 xmlns="http://www.w3.org/2000/svg" xmlns:xlink="http://www.w3.org/1999/xlink" xmlns:a="http://ns.adobe.com/AdobeSVGViewerExtensions/3.0/"
	 x="0px" y="0px" width="576px" height="576px" viewBox="-0.031 -0.031 576 576" enable-background="new -0.031 -0.031 576 576"
	 xml:space="preserve">
<defs>
</defs>
<circle fill="#FFFFFF" stroke="#000000" stroke-width="2" stroke-linecap="round" stroke-linejoin="round" cx="287.969" cy="287.969" r="286.969"/>
<circle fill="#FF0000" stroke="#FF0000" stroke-width="0.1764" stroke-linecap="round" stroke-linejoin="round" cx="287.969" cy="287.969" r="273.982"/>
<circle fill="#FFFFFF" stroke="#FF0000" stroke-width="0.1764" stroke-linecap="round" stroke-linejoin="round" cx="287.969" cy="287.969" r="192.438"/>
<path stroke="#000000" d="M168.719,268.969c-29.961,0-54.25,23.617-54.25,52.75s24.289,52.75,54.25,52.75s54.25-23.617,54.25-52.75
	S198.68,268.969,168.719,268.969z M168.719,357.969c-20.297,0-36.75-16.175-36.75-36.13c0-19.954,16.453-36.13,36.75-36.13
	s36.75,16.176,36.75,36.13C205.469,341.794,189.016,357.969,168.719,357.969z"/>
<path d="M398.719,269.969c-29.961,0-54.25,23.617-54.25,52.75s24.289,52.75,54.25,52.75s54.25-23.617,54.25-52.75
	S428.68,269.969,398.719,269.969z M398.719,358.969c-20.297,0-36.75-16.175-36.75-36.13c0-19.954,16.453-36.13,36.75-36.13
	s36.75,16.176,36.75,36.13C435.469,342.794,419.016,358.969,398.719,358.969z"/>
<ellipse stroke="#FF0000" stroke-width="0.1764" stroke-linecap="round" stroke-linejoin="round" cx="169.219" cy="321.469" rx="18.75" ry="18"/>
<ellipse stroke="#FF0000" stroke-width="0.1764" stroke-linecap="round" stroke-linejoin="round" cx="397.969" cy="321.969" rx="18.75" ry="18"/>
<polygon points="167.469,311.969 177.969,318.469 234.969,242.469 217.469,234.969 "/>
<path opacity="0.99" d="M265.654,329.965c3.17,1.29,19.07,0.916,22.788-0.996h60.027l59.5-91h-129.5v43.116
	c-0.823-0.074-1.656-0.116-2.5-0.116c-14.636,0-26.5,11.417-26.5,25.5C249.469,317.031,256.143,326.094,265.654,329.965"/>
<rect x="356.969" y="316.969" width="104" height="13.5"/>
<polygon points="375.969,281.969 389.469,310.469 401.469,307.469 389.969,274.969 "/>
<polygon points="309.969,244.969 265.469,290.969 255.969,287.469 255.469,279.969 249.469,278.969 241.969,278.469 
	234.469,275.469 228.969,270.469 221.969,258.469 217.469,251.969 212.469,249.469 198.469,249.969 193.969,244.469 
	191.969,237.969 191.969,231.469 192.469,225.969 194.469,219.469 198.469,215.969 209.969,216.469 217.969,220.469 
	224.469,225.969 227.969,221.469 232.969,209.469 236.969,204.469 240.969,202.969 246.969,201.469 253.469,200.469 
	264.469,198.469 267.969,200.969 269.469,204.969 242.969,211.969 238.469,219.469 249.969,224.469 276.969,226.469 
	286.469,227.469 294.969,230.469 303.969,235.969 "/>
<polygon points="399.219,239.469 407.219,237.969 412.719,262.969 423.219,266.469 430.219,270.469 436.719,274.969 
	443.719,281.969 448.219,287.969 452.719,298.469 453.719,303.969 439.219,305.969 402.719,277.969 378.719,279.469 
	367.219,248.469 "/>
<rect x="272.469" y="272.469" width="19.5" height="15"/>
<rect x="268.719" y="317.469" width="95" height="12.75"/>
</svg>
