<?xml version="1.0" encoding="UTF-8" standalone="no"?>
<!-- Created with Inkscape (http://www.inkscape.org/) -->

<svg
   xmlns:svg="http://www.w3.org/2000/svg"
   xmlns="http://www.w3.org/2000/svg"
   version="1.1"
   width="574.93799"
   height="574.93799"
   id="svg2816">
  <defs
     id="defs2820" />
  <path
     d="m 41.496,574.438 h 491.947 c 10.872,0 21.3,-4.318 28.988,-12.007 7.688,-7.688 12.007,-18.115 12.007,-28.988 V 41.496 c 0,-10.873 -4.319,-21.3 -12.007,-28.988 C 554.742,4.819 544.314,0.5 533.442,0.5 H 41.496 C 30.623,0.5 20.196,4.819 12.508,12.507 4.819,20.195 0.5,30.623 0.5,41.496 v 491.947 c 0,10.873 4.319,21.3 12.007,28.988 7.688,7.688 18.116,12.007 28.989,12.007 z"
     id="path6"
     style="fill:#ffffff;stroke:#000000;stroke-linecap:round;stroke-linejoin:round" />
  <path
     d="m 544.919,529.72 c 0,6.744 -5.468,12.214 -12.214,12.214 H 42.659 c -6.746,0 -12.214,-5.47 -12.214,-12.214 V 41.173 c 0,-6.746 5.468,-12.214 12.214,-12.214 h 490.046 c 6.746,0 12.214,5.469 12.214,12.214 V 529.72 z"
     id="path8"
     style="fill:#0000ff;stroke:#000000" />
  <path
     d="m 235.025,447.142 v 2.841 H 166.041 V 123.755 h 132.196 c 65.001,0 117.695,52.693 117.695,117.695 0,65.002 -52.694,117.695 -117.695,117.695 h -63.212 v 87.997 z"
     id="path10"
     style="fill:none;stroke:#0000ff;stroke-width:0.17640001;stroke-linecap:round;stroke-linejoin:round" />
  <path
     d="m 238.703,288.582 v -86.777 h 38.406 c 24.271,0 43.945,19.675 43.945,43.946 0,24.271 -19.675,43.945 -43.945,43.945 -12.81,0 -25.617,-0.371 -38.406,-1.114 z"
     id="path12"
     style="fill:none;stroke:#0000ff;stroke-width:0.17640001;stroke-linecap:round;stroke-linejoin:round" />
  <path
     d="m 438.34344,248.84928 -28.56671,-101.00762 -9.81224,-5.31619 -217.50475,-1.77206 -13.083,7.08825 -34.95775,101.00762 c -14.48636,2.2568 -19.97153,9.01419 -23.91899,16.54043 l 0,96.87161 27.80135,0 0,72.65461 49.06123,0 0,-72.65461 201.15102,0 0,74.42667 49.06122,0 0,-74.42667 22.89524,0 0,-95.69141 c -4.43579,-11.03152 -12.36985,-16.71902 -22.12662,-17.72063 z m -270.66095,0 24.59276,-81.51492 196.2449,3.54412 19.37264,77.9708 -240.2103,0 z"
     id="path253"
     style="fill:#ffffff;fill-opacity:1;stroke:#ffffff;stroke-width:6;stroke-linejoin:round;stroke-miterlimit:4;stroke-opacity:1;stroke-dasharray:none" />
  <circle
     cx="220.57899"
     cy="110.579"
     r="5.8330002"
     transform="matrix(3.1818776,0,0,3.1818776,-536.79265,-51.186889)"
     id="circle257"
     style="fill:#0000ff;fill-opacity:1" />
  <circle
     cx="297.745"
     cy="110.412"
     r="5.8330002"
     transform="matrix(3.1818776,0,0,3.1818776,-536.79265,-51.186889)"
     id="circle259"
     style="fill:#0000ff;fill-opacity:1" />
</svg>
