<?xml version="1.0" encoding="UTF-8" standalone="no"?>
<!-- Generator: Adobe Illustrator 13.0.0, SVG Export Plug-In . SVG Version: 6.00 Build 14948)  -->

<svg
   xmlns:dc="http://purl.org/dc/elements/1.1/"
   xmlns:cc="http://creativecommons.org/ns#"
   xmlns:rdf="http://www.w3.org/1999/02/22-rdf-syntax-ns#"
   xmlns:svg="http://www.w3.org/2000/svg"
   xmlns="http://www.w3.org/2000/svg"
   xmlns:sodipodi="http://sodipodi.sourceforge.net/DTD/sodipodi-0.dtd"
   xmlns:inkscape="http://www.inkscape.org/namespaces/inkscape"
   version="1.1"
   id="Calque_1"
   x="0px"
   y="0px"
   width="576px"
   height="576px"
   viewBox="-0.322 -0.549 576 576"
   enable-background="new -0.322 -0.549 576 576"
   xml:space="preserve"
   inkscape:version="0.91 r13725"
   sodipodi:docname="France_road_sign_C113.svg"><metadata
     id="metadata45"><rdf:RDF><cc:Work
         rdf:about=""><dc:format>image/svg+xml</dc:format><dc:type
           rdf:resource="http://purl.org/dc/dcmitype/StillImage" /></cc:Work></rdf:RDF></metadata><defs
     id="defs43"><inkscape:perspective
       id="perspective4308"
       inkscape:persp3d-origin="195 : 66 : 1"
       inkscape:vp_z="390 : 99 : 1"
       inkscape:vp_y="0 : 1000 : 0"
       inkscape:vp_x="0 : 99 : 1"
       sodipodi:type="inkscape:persp3d" /></defs><sodipodi:namedview
     pagecolor="#ffffff"
     bordercolor="#666666"
     borderopacity="1"
     objecttolerance="10"
     gridtolerance="10"
     guidetolerance="10"
     inkscape:pageopacity="0"
     inkscape:pageshadow="2"
     inkscape:window-width="1440"
     inkscape:window-height="788"
     id="namedview41"
     showgrid="false"
     inkscape:zoom="0.9714898"
     inkscape:cx="288"
     inkscape:cy="288"
     inkscape:window-x="0"
     inkscape:window-y="1"
     inkscape:window-maximized="1"
     inkscape:current-layer="Calque_1" /><path
     fill="#FFFFFF"
     stroke="#000000"
     stroke-width="2"
     stroke-linecap="round"
     stroke-linejoin="round"
     d="M41.496,574.438h491.946  c10.872,0,21.3-4.318,28.988-12.007c7.688-7.688,12.007-18.115,12.007-28.988V41.496c0-10.873-4.319-21.301-12.007-28.988  C554.742,4.819,544.314,0.5,533.442,0.5H41.496c-10.873,0-21.301,4.318-28.988,12.007C4.818,20.195,0.5,30.623,0.5,41.496v491.946  c0,10.873,4.318,21.3,12.008,28.988C20.195,570.118,30.623,574.438,41.496,574.438z"
     id="path3" /><path
     fill="#0000FF"
     stroke="#000000"
     d="M544.92,529.72c0,6.744-5.469,12.214-12.215,12.214H42.658  c-6.745,0-12.213-5.47-12.213-12.214V41.173c0-6.746,5.468-12.214,12.213-12.214h490.047c6.746,0,12.215,5.469,12.215,12.214V529.72  z"
     id="path5" /><path
     id="circle4300"
     d="m 198.22275,146.69684 c -22.57667,-0.76389 -29.21318,29.03048 -12.0618,34.89834 l 16.59482,6.18699 -21.29134,62.33432 a 82.200996,82.188993 0 0 0 -33.19619,-7.10916 82.200996,82.188993 0 0 0 -82.202235,82.19024 82.200996,82.188993 0 0 0 82.202235,82.19027 82.200996,82.188993 0 0 0 82.20227,-82.19027 82.200996,82.188993 0 0 0 -36.4406,-68.20085 l 6.38415,-18.47596 78.12059,86.70951 a 26.792429,26.788517 0 0 0 -2.57066,11.37334 26.792429,26.788517 0 0 0 26.74664,26.78851 l 3.17247,18.40405 -7.18217,1.23609 2.00158,11.6611 25.61503,-4.40808 -2.00813,-11.6611 -6.32526,1.08568 -3.29018,-19.13653 a 26.792429,26.788517 0 0 0 14.2335,-18.319 l 19.9962,-1.38653 a 82.200996,82.188993 0 0 0 80.66509,66.52004 82.200996,82.188993 0 0 0 82.20224,-82.19027 82.200996,82.188993 0 0 0 -82.20224,-82.19024 82.200996,82.188993 0 0 0 -37.17977,8.97963 l -31.34502,-45.46722 7.22793,-21.34055 c 9.98701,-2.42042 18.93544,-4.68943 22.73697,-9.35244 5.35381,-6.56719 -1.72555,-15.75063 -12.74866,-15.48711 l -43.6162,0 c -9.59419,-0.13367 -13.25431,9.87575 -7.29987,13.32885 l 26.1841,10.69317 -4.97129,14.6892 -134.52466,0 3.47336,-10.0457 -0.0205,-0.007 2.92385,-9.62058 c -9.80653,-4.42609 -30.62761,-6.87498 -27.86518,-14.68269 0.8239,-8.63908 31.43985,-3.5301 41.83046,-5.62453 l 0,-12.37398 -36.17238,0 z m 11.00873,66.31074 135.08071,0 -33.22234,98.15481 a 26.792429,26.788517 0 0 0 -5.1021,-1.13144 l -3.03508,-17.65847 6.22712,-1.07259 -2.00812,-11.6611 -25.60848,4.40808 2.00815,11.65456 7.27369,-1.24919 2.91738,16.93906 a 26.792429,26.788517 0 0 0 -3.60416,1.59579 l -83.45818,-92.64799 2.53141,-7.33152 z m 146.59307,13.3354 23.43028,33.99578 a 82.200996,82.188993 0 0 0 -31.86831,64.85881 82.200996,82.188993 0 0 0 0.007,0.18311 l -19.73455,1.36689 a 26.792429,26.788517 0 0 0 -3.64996,-6.42241 l 31.81603,-93.98218 z m -207.55631,29.35225 a 69.508463,69.498316 0 0 1 29.08184,6.46169 l -14.62598,42.82499 c -0.87761,3.14615 -4.01001,5.14615 -6.9859,7.19421 a 15.070741,15.068541 0 0 0 -8.13063,-2.40023 15.070741,15.068541 0 0 0 -15.07073,15.06855 15.070741,15.068541 0 0 0 15.07073,15.06852 15.070741,15.068541 0 0 0 15.07077,-15.06852 15.070741,15.068541 0 0 0 -0.13742,-1.84438 c 5.69706,-3.61562 10.97688,-7.92198 12.27114,-10.39886 l 14.8941,-43.10621 a 69.508463,69.498316 0 0 1 28.07452,55.70258 69.508463,69.498316 0 0 1 -69.51251,69.49579 69.508463,69.498316 0 0 1 -69.505955,-69.49579 69.508463,69.498316 0 0 1 69.505955,-69.50234 z m 281.32052,0 a 69.508463,69.498316 0 0 1 69.5125,69.50234 69.508463,69.498316 0 0 1 -69.5125,69.49579 69.508463,69.498316 0 0 1 -67.82491,-54.715 l 57.45721,-3.98297 a 15.070741,15.068541 0 0 0 10.79285,4.55198 15.070741,15.068541 0 0 0 15.07076,-15.06855 15.070741,15.068541 0 0 0 -12.21228,-14.78734 L 399.6762,262.52972 a 69.508463,69.498316 0 0 1 29.91256,-6.83449 z m -43.17141,15.0293 31.53475,45.74847 a 15.070741,15.068541 0 0 0 -2.19781,4.16611 l -55.63875,3.85868 a 69.508463,69.498316 0 0 1 26.30181,-53.77326 z"
     style="fill:#f9f9f9;stroke:none;stroke-width:2.16587019"
     inkscape:connector-curvature="0" /></svg>