<?xml version="1.0" encoding="UTF-8" standalone="no"?>
<!-- Generator: Adobe Illustrator 13.0.0, SVG Export Plug-In . SVG Version: 6.00 Build 14948)  -->

<svg
   xmlns:dc="http://purl.org/dc/elements/1.1/"
   xmlns:cc="http://creativecommons.org/ns#"
   xmlns:rdf="http://www.w3.org/1999/02/22-rdf-syntax-ns#"
   xmlns:svg="http://www.w3.org/2000/svg"
   xmlns="http://www.w3.org/2000/svg"
   xmlns:sodipodi="http://sodipodi.sourceforge.net/DTD/sodipodi-0.dtd"
   xmlns:inkscape="http://www.inkscape.org/namespaces/inkscape"
   version="1.1"
   id="Calque_1"
   x="0px"
   y="0px"
   width="576px"
   height="576px"
   viewBox="-0.322 -0.549 576 576"
   enable-background="new -0.322 -0.549 576 576"
   xml:space="preserve"
   inkscape:version="0.91 r13725"
   sodipodi:docname="France_road_sign_C114.svg"><metadata
     id="metadata47"><rdf:RDF><cc:Work
         rdf:about=""><dc:format>image/svg+xml</dc:format><dc:type
           rdf:resource="http://purl.org/dc/dcmitype/StillImage" /></cc:Work></rdf:RDF></metadata><defs
     id="defs45" /><sodipodi:namedview
     pagecolor="#ffffff"
     bordercolor="#666666"
     borderopacity="1"
     objecttolerance="10"
     gridtolerance="10"
     guidetolerance="10"
     inkscape:pageopacity="0"
     inkscape:pageshadow="2"
     inkscape:window-width="1440"
     inkscape:window-height="788"
     id="namedview43"
     showgrid="false"
     inkscape:zoom="0.9714898"
     inkscape:cx="288"
     inkscape:cy="288"
     inkscape:window-x="0"
     inkscape:window-y="1"
     inkscape:window-maximized="1"
     inkscape:current-layer="Calque_1" /><path
     fill="#FFFFFF"
     stroke="#000000"
     stroke-width="2"
     stroke-linecap="round"
     stroke-linejoin="round"
     d="M41.496,574.438h491.946  c10.872,0,21.3-4.318,28.988-12.007c7.688-7.688,12.007-18.115,12.007-28.988V41.496c0-10.873-4.319-21.301-12.007-28.988  C554.742,4.819,544.314,0.5,533.442,0.5H41.496c-10.873,0-21.301,4.318-28.988,12.007C4.818,20.195,0.5,30.623,0.5,41.496v491.946  c0,10.873,4.318,21.3,12.008,28.988C20.195,570.118,30.623,574.438,41.496,574.438z"
     id="path3" /><path
     fill="#0000FF"
     d="M544.92,529.72c0,6.744-5.469,12.214-12.215,12.214H42.658c-6.745,0-12.213-5.47-12.213-12.214V41.173  c0-6.746,5.468-12.214,12.213-12.214h490.047c6.746,0,12.215,5.469,12.215,12.214V529.72z"
     id="path5" /><path
     id="circle4300"
     d="m 198.22275,146.69683 c -22.57667,-0.76388 -29.21318,29.03049 -12.0618,34.89831 l 16.59482,6.187 -21.29134,62.33432 a 82.200996,82.188993 0 0 0 -33.19619,-7.10917 82.200996,82.188993 0 0 0 -82.202235,82.19024 82.200996,82.188993 0 0 0 82.202235,82.19031 82.200996,82.188993 0 0 0 82.20227,-82.19031 82.200996,82.188993 0 0 0 -36.4406,-68.20082 l 6.38415,-18.47595 78.12059,86.70951 a 26.792429,26.788517 0 0 0 -2.57066,11.37334 26.792429,26.788517 0 0 0 26.74664,26.78851 l 3.17247,18.40405 -7.18217,1.23609 2.00159,11.6611 25.61502,-4.40808 -2.00812,-11.6611 -6.32527,1.08564 -3.29018,-19.13649 a 26.792429,26.788517 0 0 0 14.2335,-18.31904 l 19.99619,-1.3865 a 82.200996,82.188993 0 0 0 80.6651,66.52005 82.200996,82.188993 0 0 0 82.20224,-82.19031 82.200996,82.188993 0 0 0 -82.20224,-82.19024 82.200996,82.188993 0 0 0 -37.17977,8.97967 l -31.34502,-45.46724 7.22793,-21.34056 c 9.98701,-2.42041 18.93544,-4.68941 22.73696,-9.35244 5.35382,-6.56717 -1.72554,-15.75061 -12.74866,-15.4871 l -43.61619,0 c -9.59419,-0.1336 -13.25431,9.87577 -7.29987,13.32886 l 26.1841,10.69316 -4.97129,14.68921 -134.52466,0 3.47336,-10.0457 -0.0205,-0.007 2.92385,-9.62059 c -9.80653,-4.42606 -30.62761,-6.87495 -27.86518,-14.68266 0.82391,-8.63909 31.43985,-3.5301 41.83046,-5.62454 l 0,-12.37399 -36.17238,0 z m 11.00873,66.31074 135.08071,0 -33.22234,98.15482 a 26.792429,26.788517 0 0 0 -5.10209,-1.13148 l -3.03509,-17.65843 6.22712,-1.07258 -2.00812,-11.66111 -25.60847,4.40804 2.00814,11.65459 7.27369,-1.24917 2.91738,16.93905 a 26.792429,26.788517 0 0 0 -3.60415,1.59576 l -83.45819,-92.64796 2.53141,-7.33153 z m 146.59307,13.33538 23.43028,33.99581 a 82.200996,82.188993 0 0 0 -31.86832,64.85877 82.200996,82.188993 0 0 0 0.007,0.18312 l -19.73473,1.36689 a 26.792429,26.788517 0 0 0 -3.64996,-6.42241 l 31.81635,-93.98222 z m -207.55631,29.35227 a 69.508463,69.498316 0 0 1 29.08184,6.4617 l -14.62598,42.82499 c -0.87761,3.14615 -4.01001,5.14612 -6.98591,7.19418 a 15.070741,15.068542 0 0 0 -8.13062,-2.40023 15.070741,15.068542 0 0 0 -15.07073,15.06853 15.070741,15.068542 0 0 0 15.07073,15.06856 15.070741,15.068542 0 0 0 15.07077,-15.06856 15.070741,15.068542 0 0 0 -0.13743,-1.84433 c 5.69707,-3.61562 10.97688,-7.92201 12.27115,-10.39886 l 14.8941,-43.10621 a 69.508463,69.498316 0 0 1 28.07452,55.70254 69.508463,69.498316 0 0 1 -69.51252,69.49583 69.508463,69.498316 0 0 1 -69.505945,-69.49583 69.508463,69.498316 0 0 1 69.505945,-69.50231 z m 281.32052,0 a 69.508463,69.498316 0 0 1 69.5125,69.50231 69.508463,69.498316 0 0 1 -69.5125,69.49583 69.508463,69.498316 0 0 1 -67.82491,-54.715 l 57.45721,-3.983 a 15.070741,15.068542 0 0 0 10.79285,4.55197 15.070741,15.068542 0 0 0 15.07076,-15.06855 15.070741,15.068542 0 0 0 -12.21228,-14.7873 L 399.6762,262.52969 a 69.508463,69.498316 0 0 1 29.91256,-6.83447 z m -43.17141,15.02931 31.53475,45.74847 a 15.070741,15.068542 0 0 0 -2.19781,4.16608 l -55.63875,3.85867 a 69.508463,69.498316 0 0 1 26.30181,-53.77322 z"
     style="fill:#f9f9f9;stroke:none;stroke-width:2.16587019"
     inkscape:connector-curvature="0" /><path
     fill="#FF0000"
     d="M546.45,41.728c0-6.758-5.48-12.238-12.239-12.238h-24.726L30.974,499.405v31.823  c0,6.757,5.48,12.237,12.24,12.237h38.189L546.45,79.832V41.728z"
     id="path41" /></svg>