<?xml version="1.0" encoding="UTF-8" standalone="no"?>
<svg
   xmlns:dc="http://purl.org/dc/elements/1.1/"
   xmlns:cc="http://creativecommons.org/ns#"
   xmlns:rdf="http://www.w3.org/1999/02/22-rdf-syntax-ns#"
   xmlns:svg="http://www.w3.org/2000/svg"
   xmlns="http://www.w3.org/2000/svg"
   xmlns:sodipodi="http://sodipodi.sourceforge.net/DTD/sodipodi-0.dtd"
   xmlns:inkscape="http://www.inkscape.org/namespaces/inkscape"
   version="1.1"
   id="Calque_1"
   x="0px"
   y="0px"
   width="576px"
   height="576px"
   viewBox="-0.322 -0.549 576 576"
   enable-background="new -0.322 -0.549 576 576"
   xml:space="preserve"
   inkscape:version="1.0beta1 (76ce730, 2019-10-19)"
   sodipodi:docname="France_road_sign_C115.svg"><metadata
     id="metadata45"><rdf:RDF><cc:Work
         rdf:about=""><dc:format>image/svg+xml</dc:format><dc:type
           rdf:resource="http://purl.org/dc/dcmitype/StillImage" /></cc:Work></rdf:RDF></metadata><defs
     id="defs43" /><sodipodi:namedview
     pagecolor="#ffffff"
     bordercolor="#666666"
     borderopacity="1"
     objecttolerance="10"
     gridtolerance="10"
     guidetolerance="10"
     inkscape:pageopacity="0"
     inkscape:pageshadow="2"
     inkscape:window-width="1440"
     inkscape:window-height="784"
     id="namedview41"
     showgrid="false"
     inkscape:zoom="0.54874031"
     inkscape:cx="118.54254"
     inkscape:cy="120.8385"
     inkscape:window-x="0"
     inkscape:window-y="23"
     inkscape:window-maximized="0"
     inkscape:current-layer="Calque_1"
     inkscape:document-rotation="0" /><path
     fill="#FFFFFF"
     stroke="#000000"
     stroke-width="2"
     stroke-linecap="round"
     stroke-linejoin="round"
     d="M41.496,574.438h491.946  c10.872,0,21.3-4.318,28.988-12.007c7.688-7.688,12.007-18.115,12.007-28.988V41.496c0-10.873-4.319-21.301-12.007-28.988  C554.742,4.819,544.314,0.5,533.442,0.5H41.496c-10.873,0-21.301,4.318-28.988,12.007C4.818,20.195,0.5,30.623,0.5,41.496v491.946  c0,10.873,4.318,21.3,12.008,28.988C20.195,570.118,30.623,574.438,41.496,574.438z"
     id="path3" /><path
     fill="#0000FF"
     stroke="#000000"
     d="M544.92,529.72c0,6.744-5.469,12.214-12.215,12.214H42.658  c-6.745,0-12.213-5.47-12.213-12.214V41.173c0-6.746,5.468-12.214,12.213-12.214h490.047c6.746,0,12.215,5.469,12.215,12.214V529.72  z"
     id="path5" /><path
     transform="translate(-0.322,-0.549)"
     d="M 51.447266 54.523438 C 53.034402 78.120547 57.302006 96.903685 62.681641 111.81445 C 74.939929 144.53035 111.43161 181.84963 146.39453 211.22461 C 177.49834 238.97147 211.47392 272.61204 214.51758 304.23438 C 221.46112 376.37484 181.17249 448.16666 154.06836 517.4707 L 522.09375 517.4707 L 522.09375 354.70312 C 521.37217 342.60416 519.85965 330.40754 516.33984 318.39258 C 500.72454 265.08982 456.65447 209.47739 412.23047 171.91602 C 380.96867 145.48353 344.26509 130.01498 313.27539 112.16797 C 279.46026 92.693791 268.71711 85.604516 265.48047 54.523438 L 51.447266 54.523438 z "
     style="opacity:1;fill:#35b135;stroke:none;stroke-width:1px;stroke-linecap:butt;stroke-linejoin:miter;stroke-opacity:1;stop-opacity:1;fill-opacity:1"
     id="path980" /><path
     style="color:#000000;font-style:normal;font-variant:normal;font-weight:normal;font-stretch:normal;font-size:medium;line-height:normal;font-family:Sans;-inkscape-font-specification:Sans;text-indent:0;text-align:start;text-decoration:none;text-decoration-line:none;letter-spacing:normal;word-spacing:normal;text-transform:none;writing-mode:lr-tb;direction:ltr;baseline-shift:baseline;text-anchor:start;display:inline;overflow:visible;visibility:visible;opacity:1;fill:#ffffff;fill-opacity:1;stroke:none;stroke-width:12.4306;marker:none;enable-background:accumulate;stop-opacity:1"
     d="m 248.4514,83.125 c -8.196,0 -14.8445,6.64854 -14.8445,14.84453 0,6.65925 4.3987,12.28926 10.4397,14.1682 l 1.0058,6.98871 -2.5839,1.12722 c -2.0705,0.30329 -3.9418,1.72717 -4.7863,3.64176 l -12.1566,26.49817 -24.12228,12.6768 c -1.44145,0.75592 -2.56287,2.10059 -3.0476,3.65437 -0.4848,1.55379 -0.32692,3.29757 0.42902,4.73904 0.75593,1.44146 2.10054,2.56287 3.65437,3.04762 1.55376,0.48476 3.29754,0.32689 4.73904,-0.42902 L 227.676,163.29584 c 3.3889,-2.17794 6.1561,-3.31475 7.2298,-4.47593 1.0737,-1.16117 1.7341,-3.00098 3.5047,-6.72683 l 2.1591,-4.69961 c 0,0 1.6792,-3.33749 2.3597,-3.29488 0.726,0.0455 1.7243,11.39347 1.7243,11.39347 l 1.9249,12.7982 -0.087,0.2081 -32.23833,70.16466 c -0.8761,-0.47313 -1.8825,-0.7457 -2.94805,-0.7457 -3.4274,0 -6.2083,2.78092 -6.2083,6.20834 0,3.10568 3.70309,5.80931 5.27184,6.12163 l 14.79244,6.79796 3.6764,-7.99453 28.3823,-61.82822 c 0.4675,-1.01833 3.4096,-1.0564 3.9824,0.0892 l 28.8344,57.66373 c -2.4722,0.81754 -4.2661,3.14998 -4.2661,5.89618 0,3.42741 2.7809,6.20835 6.2083,6.20835 1.3245,0 2.5005,-0.27983 2.9932,-0.47168 l 0.7353,-0.32605 15.7289,-7.87314 -3.9365,-7.87315 -36.7124,-73.23414 -2.1851,-14.54104 -1.0926,-7.27052 c 0,0 -1.2763,-5.98492 -1.0686,-6.17159 0.2077,-0.18666 6.4359,5.36086 6.4359,5.36086 l 6.4598,6.45979 9.8674,31.35386 c 0.4879,1.55295 1.6121,2.89549 3.0552,3.64851 1.4432,0.75303 3.1874,0.90726 4.7403,0.41915 1.5528,-0.48811 2.8952,-1.61254 3.6479,-3.0558 0.7528,-1.44326 0.9068,-3.18755 0.4184,-4.74033 l -10.0756,-32.01285 c -0.2101,-0.70481 -0.5783,-1.38753 -0.955,-2.02651 -0.3767,-0.63897 -0.7714,-1.24142 -1.2994,-1.77132 l -21.7638,-21.76389 c -0.3149,-0.31969 -0.6644,-0.60515 -1.0405,-0.84974 l -0.1215,-0.15607 -2.5145,-1.61279 -1.8035,-0.90177 -1.2486,-0.17342 -3.6765,-0.13872 -0.9191,-6.3991 c 4.5593,-2.53243 7.6477,-7.40376 7.6477,-12.98896 0,-8.19599 -6.6485,-14.84453 -14.8445,-14.84453 z"
     id="path3025"
     inkscape:connector-curvature="0"
     sodipodi:nodetypes="ssccccccssscczccsccccsscccsscssccccccczcccssscczcccccccccss" /><g
     transform="translate(-784.4351,-390.68425)"
     id="g970"
     style="opacity:1;fill:#ffffff;stroke:none;stop-opacity:1"><ellipse
       style="opacity:1;fill:#ffffff;stroke:none;stroke-width:0.852502;stroke-linecap:round;stroke-linejoin:round;stop-opacity:1"
       id="path946"
       cx="1161.6813"
       cy="713.21716"
       rx="19.073748"
       ry="19.07375" /><ellipse
       ry="43.500004"
       rx="43.5"
       cy="851.77222"
       cx="1097.0221"
       id="ellipse948"
       style="opacity:1;fill:#ffffff;stroke:none;stroke-width:1.94423;stroke-linecap:round;stroke-linejoin:round;stop-opacity:1" /><ellipse
       style="opacity:1;fill:#ffffff;stroke:none;stroke-width:1.94423;stroke-linecap:round;stroke-linejoin:round;stop-opacity:1"
       id="ellipse950"
       cx="1247.0221"
       cy="851.77222"
       rx="43.5"
       ry="43.500004" /><path
       style="opacity:1;fill:#ffffff;stroke:none;stroke-width:0.2;stroke-linecap:butt;stroke-linejoin:miter;stroke-miterlimit:4;stroke-dasharray:none;stroke-opacity:1;stop-opacity:1"
       d="m 1170.7494,835.52243 v 20.35714 l -29.9999,-30.89286 c -6.802,-10.30254 3.2631,-19.26322 11.4285,-21.60714 l 27.1428,-12.32143 -12.8571,-29.46428 -18.5714,20.71428 -30.5358,8.03572 c -10.2284,2.56528 -14.1141,-12.44698 -1.9642,-14.99999 l 26.4286,-6.9643 16.9642,-26.60714 c 4.2582,-7.82694 16.5462,-13.57639 25.8929,-1.96429 l 28.75,42.85714 c 5.6919,8.01411 4.4437,20.45344 -0.3571,25.71429 l -18.3932,19.28443 3e-4,42.14417 c 0.084,12.58778 -20.3441,12.23171 -20.3571,0 l 2e-4,-37.14288 8.5712,-20 -25.3572,7.85714 z"
       id="path952"
       inkscape:connector-curvature="0"
       sodipodi:nodetypes="ccccccccccccccccccccc" /></g></svg>
