<?xml version="1.0" encoding="UTF-8" standalone="no"?>
<!-- Generator: Adobe Illustrator 15.0.0, SVG Export Plug-In  -->

<svg
   xmlns:dc="http://purl.org/dc/elements/1.1/"
   xmlns:cc="http://creativecommons.org/ns#"
   xmlns:rdf="http://www.w3.org/1999/02/22-rdf-syntax-ns#"
   xmlns:svg="http://www.w3.org/2000/svg"
   xmlns="http://www.w3.org/2000/svg"
   xmlns:sodipodi="http://sodipodi.sourceforge.net/DTD/sodipodi-0.dtd"
   xmlns:inkscape="http://www.inkscape.org/namespaces/inkscape"
   version="1.1"
   x="0px"
   y="0px"
   width="727px"
   height="926px"
   viewBox="-0.5 -0.5 727 926"
   enable-background="new -0.5 -0.5 727 926"
   xml:space="preserve"
   id="svg2"
   inkscape:version="0.91 r13725"
   sodipodi:docname="France_road_sign_C117-B21b.svg"><metadata
     id="metadata26"><rdf:RDF><cc:Work
         rdf:about=""><dc:format>image/svg+xml</dc:format><dc:type
           rdf:resource="http://purl.org/dc/dcmitype/StillImage" /></cc:Work></rdf:RDF></metadata><sodipodi:namedview
     pagecolor="#ffffff"
     bordercolor="#666666"
     borderopacity="1"
     objecttolerance="10"
     gridtolerance="10"
     guidetolerance="10"
     inkscape:pageopacity="0"
     inkscape:pageshadow="2"
     inkscape:window-width="1440"
     inkscape:window-height="788"
     id="namedview24"
     showgrid="false"
     inkscape:zoom="0.35882057"
     inkscape:cx="244.01131"
     inkscape:cy="530.34693"
     inkscape:window-x="0"
     inkscape:window-y="1"
     inkscape:window-maximized="1"
     inkscape:current-layer="svg2" /><defs
     id="defs4" /><path
     d="M724.5,911.718c0,6.506-5.418,11.782-12.101,11.782H13.601  c-6.683,0-12.101-5.276-12.101-11.782V13.282C1.5,6.776,6.917,1.5,13.601,1.5h698.799c6.683,0,12.101,5.276,12.101,11.782V911.718z"
     id="path6"
     stroke-width="3"
     stroke="#000000"
     fill="#FFFFFF" /><rect
     x="249.5"
     y="58.5"
     fill="#DFA800"
     stroke="#000000"
     width="227"
     height="228"
     id="rect8" /><g
     id="g4139"
     transform="translate(2.0005,0)"><path
       id="path12"
       d="m 486.891,68.177 -0.391,-6.09 c 0,-7.04 -5.072,-12.865 -11.676,-13.853 L 252.5,48.167 249.713,47.959 c -5.85,1.241 -10.332,6.313 -10.833,12.542 L 238.209,63.858 226,293 496,293.5 486.891,68.177 Z m -19.058,207.324 -210,0 0,-209.334 210,0 0,209.334 z"
       inkscape:connector-curvature="0" /><rect
       id="rect16"
       height="22.5"
       width="305"
       y="310.5"
       x="208.5" /><path
       id="path18"
       d="m 482.5,358 -23,0 c -6.627,0 -12,5.373 -12,12 l 0,8 -14.5,0 0,20.5 -55.37,0 c -2.998,-6.505 -9.308,-11 -16.63,-11 -7.322,0 -13.632,4.495 -16.63,11 l -55.87,0 0,-19.5 -14,0 0,-8 c 0,-6.627 -5.373,-12 -12,-12 l -23,0 c -6.627,0 -12,5.373 -12,12 l 0,70.5 c 0,6.627 5.373,12 12,12 l 23,0 c 6.627,0 12,-5.373 12,-12 l 0,-8 14,0 0,-19.5 55.249,0 c 2.671,7.307 9.377,12.5 17.251,12.5 7.873,0 14.58,-5.193 17.251,-12.5 l 54.749,0 0,18.5 14.5,0 0,8 c 0,6.627 5.373,12 12,12 l 23,0 c 6.627,0 12,-5.373 12,-12 l 0,-70.5 c 0,-6.627 -5.373,-12 -12,-12 z"
       inkscape:connector-curvature="0" /></g><ellipse
     cx="363.00049"
     cy="691"
     rx="189.5"
     ry="188"
     id="ellipse20"
     style="fill:#0000ff" /><polygon
     points="359,542.5 261.167,641.331 261.167,692.183 340.167,615.167 339.833,839.167 379.5,839.5 379,613.5 461.5,697 461.5,643 "
     id="polygon22"
     transform="translate(1.667,0)"
     style="fill:#ffffff" /></svg>