<?xml version="1.0" encoding="utf-8"?>
<!-- Generator: Adobe Illustrator 15.0.0, SVG Export Plug-In  -->
<!DOCTYPE svg PUBLIC "-//W3C//DTD SVG 1.1//EN" "http://www.w3.org/Graphics/SVG/1.1/DTD/svg11.dtd" [
	<!ENTITY ns_flows "http://ns.adobe.com/Flows/1.0/">
]>
<svg version="1.1"
	 xmlns="http://www.w3.org/2000/svg" xmlns:xlink="http://www.w3.org/1999/xlink" xmlns:a="http://ns.adobe.com/AdobeSVGViewerExtensions/3.0/"
	 x="0px" y="0px" width="576px" height="576px" viewBox="-0.031 -0.031 576 576" enable-background="new -0.031 -0.031 576 576"
	 xml:space="preserve">
<defs>
</defs>
<path fill="#FFFFFF" stroke="#000000" stroke-width="2" stroke-linecap="round" stroke-linejoin="round" d="M41.996,574.938h491.947
	c10.872,0,21.3-4.318,28.988-12.007c7.688-7.688,12.007-18.115,12.007-28.988V41.996c0-10.873-4.319-21.3-12.007-28.988
	C555.242,5.319,544.814,1,533.942,1H41.996c-10.873,0-21.3,4.319-28.988,12.007C5.319,20.695,1,31.123,1,41.996v491.947
	c0,10.873,4.319,21.3,12.007,28.988C20.695,570.619,31.123,574.938,41.996,574.938z"/>
<path fill="#0000FF" stroke="#0000FF" stroke-width="0.1764" stroke-linecap="round" stroke-linejoin="round" d="M533.636,521.636
	c0,6.627-5.372,12-12,12h-468c-6.627,0-12-5.373-12-12V54.302c0-6.627,5.373-12,12-12h468c6.628,0,12,5.373,12,12V521.636z"/>
<path fill="#FFFFFF" d="M302.635,140.302l-0.803-9.64l-2.196-17.027l11.333,11.333l2.731,9.285l-0.065,0.049l4.431,13.291
	c0.447,2.303,2.471,4.043,4.904,4.043c2.669,0,4.831-2.099,4.973-4.734l0.359-0.6l-8-28l-23.333-24.667l-7.333-1.333l-1.021-4.085
	c3.602-2.154,6.021-6.08,6.021-10.582c0-6.812-5.523-12.333-12.334-12.333c-6.812,0-12.333,5.522-12.333,12.333
	c0,5.41,3.488,9.995,8.333,11.657v5.009l-4.667,1.333l-10.667,22.667l-23.333,12.667l-0.13,0.778
	c-1.346,1.131-2.204,2.826-2.204,4.722c0,3.097,2.285,5.653,5.26,6.092l0.407,0.407l3.333-0.667l25.333-12.667l4.667-10l2.667-1.333
	l0.651,16.278l0.349,5.055l-24.667,55.333l-4.866-0.973l-5.467,1.64l-2,2.667v4l18,10l2.667-2l27.333-56l28.667,48l-2.667,2
	l-1.333,4l1.333,4.667h4.667l15.333-9.333L302.635,140.302z"/>
<polygon fill="#FFFFFF" points="368.636,232.969 204.302,232.969 204.302,325.302 255.302,325.302 255.302,523.969 318.636,523.969 
	318.636,325.302 368.636,325.302 "/>
<rect x="219.302" y="246.302" fill="#FF0000" stroke="#0000FF" stroke-width="0.1764" stroke-linecap="round" stroke-linejoin="round" width="136.333" height="68.333"/>
</svg>
