<?xml version="1.0" encoding="utf-8"?>
<!-- Generator: Adobe Illustrator 15.0.0, SVG Export Plug-In  -->
<!DOCTYPE svg PUBLIC "-//W3C//DTD SVG 1.1//EN" "http://www.w3.org/Graphics/SVG/1.1/DTD/svg11.dtd" [
	<!ENTITY ns_flows "http://ns.adobe.com/Flows/1.0/">
]>
<svg version="1.1"
	 xmlns="http://www.w3.org/2000/svg" xmlns:xlink="http://www.w3.org/1999/xlink" xmlns:a="http://ns.adobe.com/AdobeSVGViewerExtensions/3.0/"
	 x="0px" y="0px" width="576px" height="576px" viewBox="-0.031 -0.031 576 576" enable-background="new -0.031 -0.031 576 576"
	 xml:space="preserve">
<defs>
</defs>
<path fill="#FFFFFF" stroke="#000000" stroke-width="2" stroke-linecap="round" stroke-linejoin="round" d="M41.996,574.938h491.947
	c10.872,0,21.3-4.318,28.988-12.007c7.688-7.688,12.007-18.115,12.007-28.988V41.996c0-10.873-4.319-21.3-12.007-28.988
	C555.242,5.319,544.814,1,533.942,1H41.996c-10.873,0-21.3,4.319-28.988,12.007C5.319,20.695,1,31.123,1,41.996v491.947
	c0,10.873,4.319,21.3,12.007,28.988C20.695,570.619,31.123,574.938,41.996,574.938z"/>
<path fill="#0000FF" stroke="#0000FF" stroke-width="0.1764" stroke-linecap="round" stroke-linejoin="round" d="M533.636,521.636
	c0,6.627-5.372,12-12,12h-468c-6.627,0-12-5.373-12-12V54.302c0-6.627,5.373-12,12-12h468c6.628,0,12,5.373,12,12V521.636z"/>
<path fill="#FFFFFF" d="M392.635,149.635l-0.803-9.64l-2.196-17.027l11.333,11.333l2.731,9.285l-0.065,0.049l4.431,13.291
	c0.447,2.303,2.471,4.043,4.904,4.043c2.669,0,4.831-2.099,4.973-4.734l0.359-0.6l-8-28l-23.333-24.667l-7.333-1.333l-1.021-4.085
	c3.602-2.154,6.021-6.08,6.021-10.582c0-6.812-5.523-12.333-12.334-12.333c-6.812,0-12.333,5.522-12.333,12.333
	c0,5.41,3.487,9.995,8.333,11.657v5.009l-4.667,1.333l-10.666,22.667l-23.334,12.667l-0.129,0.778
	c-1.347,1.131-2.204,2.826-2.204,4.722c0,3.097,2.285,5.653,5.26,6.092l0.407,0.407l3.333-0.667l25.333-12.667l4.667-10l2.667-1.333
	l0.65,16.278l0.35,5.055l-24.667,55.333l-4.866-0.973l-5.467,1.64l-2,2.667v4l18,10l2.666-2l27.334-56l28.667,48l-2.667,2l-1.333,4
	l1.333,4.667h4.667l15.333-9.333L392.635,149.635z"/>
<polygon fill="#FFFFFF" points="368.636,232.969 204.302,232.969 204.302,325.302 255.302,325.302 255.302,523.969 318.636,523.969 
	318.636,325.302 368.636,325.302 "/>
<rect x="219.302" y="246.302" fill="#FF0000" stroke="#0000FF" stroke-width="0.1764" stroke-linecap="round" stroke-linejoin="round" width="136.333" height="68.333"/>
<path fill="none" d="M136.587,194.486c0.259,0.303,0.49,0.63,0.682,0.983h17.637c-0.134-6.149-2.721-11.685-6.816-15.653
	L136.587,194.486z"/>
<path fill="none" d="M151.547,175.406c5.371,5.01,8.771,12.133,8.909,20.063h4.513v-20l-6.708-8.625L151.547,175.406z"/>
<polygon fill="none" points="162.969,149.469 166.544,155.969 176.969,155.969 "/>
<path fill="none" d="M132.219,203.969c-3.176,0-5.75-2.574-5.75-5.75c0-3.034,2.351-5.513,5.33-5.729l12.336-15.733
	c-3.336-2.022-7.241-3.188-11.416-3.188c-12.261,0-22.2,10.029-22.2,22.4s9.939,22.4,22.2,22.4c10.733,0,19.687-7.686,21.752-17.9
	h-16.959C136.636,202.526,134.596,203.969,132.219,203.969z"/>
<path fill="none" d="M186.606,147.813c1.744,0.498,3.029,2.085,3.029,3.989c0,0.961-0.338,1.834-0.885,2.54l-0.407,1.627h13.789
	l4.881-11.372l0.069,0.029l0.386-1.158l-4.5-1.5l-3.5,2l-21.5-10.5l-4-4.5l-4-9.5l-5.5,19l22,9L186.606,147.813z"/>
<polygon fill="none" points="187.094,160.969 182.969,177.469 185.469,178.469 186.469,181.969 185.879,183.296 204.229,163.145 
	203.725,160.969 "/>
<polygon fill="none" points="169.294,160.969 173.969,169.469 174.463,171.281 176.15,160.969 "/>
<path fill="none" d="M225.219,174.569c-4.25,0-8.22,1.207-11.595,3.296c1.953,5.75,4.446,11.168,8.036,15.193
	c0.694-0.364,1.471-0.59,2.309-0.59c2.761,0,5,2.239,5,5s-2.239,5-5,5s-5-2.239-5-5c0-0.472,0.086-0.92,0.209-1.354
	c-3.913-4.122-6.568-9.86-8.623-15.958c-4.619,4.105-7.537,10.112-7.537,16.811c0,12.371,9.939,22.4,22.2,22.4
	s22.2-10.029,22.2-22.4S237.479,174.569,225.219,174.569z"/>
<polygon fill="none" points="175.139,195.089 183.264,186.167 175.318,184.181 "/>
<path fill="#FFFFFF" d="M225.219,168.969c-4.815,0-9.344,1.239-13.291,3.417c-1.663-5.831-2.965-11.655-4.459-16.417h-1.527
	l2.765-6.44l1.762,0.44l1-6.5l-10-5.5l-0.5-2.5l-18-9.5l-6.5-25.5l-2.5-4l-11-3.5l-6,2.5l-2.5,1l-1.5,3l-12,33.5l-2,4l0.154,0.617
	c-0.097,0.498-0.154,1.015-0.154,1.55c0,2.461,1.088,4.603,2.692,5.706l2.308,3.627l11.127,14.307l-7.498,9.564
	c-4.301-2.763-9.403-4.371-14.879-4.371c-15.326,0-27.75,12.536-27.75,28s12.424,28,27.75,28c13.808,0,25.254-10.176,27.389-23.5
	h4.861v11.5h16.5l1-5l-2.5-1h-2.5l-2.5-0.5l0.052-3.175l0.175,0.159l1.807-1.984h0.466v-0.512l29.499-32.392
	c0.577,2.23,1.174,4.533,1.824,6.84c-6.865,5.097-11.323,13.304-11.323,22.564c0,15.464,12.424,28,27.75,28s27.75-12.536,27.75-28
	S240.545,168.969,225.219,168.969z M169.969,119.469l4,9.5l4,4.5l21.5,10.5l3.5-2l4.5,1.5l-0.386,1.158l-0.069-0.029l-4.881,11.372
	h-13.789l0.407-1.627c0.546-0.705,0.885-1.579,0.885-2.54c0-1.904-1.285-3.492-3.029-3.989l-0.138-0.344l-22-9L169.969,119.469z
	 M132.719,218.369c-12.261,0-22.2-10.029-22.2-22.4s9.939-22.4,22.2-22.4c4.175,0,8.08,1.165,11.416,3.188l-12.336,15.733
	c-2.979,0.216-5.33,2.695-5.33,5.729c0,3.176,2.574,5.75,5.75,5.75c2.377,0,4.417-1.442,5.292-3.5h16.959
	C152.406,210.683,143.452,218.369,132.719,218.369z M137.269,195.469c-0.192-0.353-0.422-0.68-0.682-0.983l11.502-14.67
	c4.096,3.969,6.683,9.504,6.816,15.653H137.269z M164.969,195.469h-4.513c-0.138-7.929-3.538-15.053-8.909-20.063l6.713-8.563
	l6.708,8.625V195.469z M162.969,149.469l14,6.5h-10.425L162.969,149.469z M174.463,171.281l-0.494-1.813l-4.675-8.5h6.856
	L174.463,171.281z M175.139,195.089l0.179-10.908l7.946,1.986L175.139,195.089z M185.879,183.296l0.59-1.327l-1-3.5l-2.5-1
	l4.125-16.5h16.631l0.504,2.176L185.879,183.296z M225.219,219.369c-12.261,0-22.2-10.029-22.2-22.4
	c0-6.699,2.918-12.706,7.537-16.811c2.054,6.098,4.709,11.836,8.623,15.958c-0.123,0.434-0.209,0.881-0.209,1.354
	c0,2.761,2.239,5,5,5s5-2.239,5-5s-2.239-5-5-5c-0.838,0-1.615,0.226-2.309,0.59c-3.59-4.025-6.083-9.443-8.036-15.193
	c3.375-2.09,7.345-3.296,11.595-3.296c12.261,0,22.2,10.029,22.2,22.4S237.479,219.369,225.219,219.369z"/>
<path fill="#FFFFFF" d="M185.969,80.219c0-6.489-5.597-11.75-12.5-11.75s-12.5,5.261-12.5,11.75c0,3.261,1.425,6.201,3.707,8.33
	l-1.963,5.9l9.278,3.086l1.858-5.584C180.575,91.76,185.969,86.587,185.969,80.219z"/>
</svg>
