<?xml version="1.0" encoding="utf-8"?>
<!-- Generator: Adobe Illustrator 16.0.2, SVG Export Plug-In . SVG Version: 6.00 Build 0)  -->
<!DOCTYPE svg PUBLIC "-//W3C//DTD SVG 1.1//EN" "http://www.w3.org/Graphics/SVG/1.1/DTD/svg11.dtd">
<svg version="1.1" id="Ebene_1" xmlns="http://www.w3.org/2000/svg" xmlns:xlink="http://www.w3.org/1999/xlink" x="0px" y="0px"
	 width="599px" height="826px" viewBox="0 0 599 826" style="enable-background:new 0 0 599 826;" xml:space="preserve">
<polygon style="fill:#FFFFFF;stroke:#000000;stroke-width:2;stroke-linecap:round;stroke-linejoin:round;" points="570.774,1 
	575.172,1.385 579.436,2.527 583.437,4.393 587.052,6.924 590.174,10.046 592.704,13.662 594.57,17.662 595.713,21.926 
	596.098,26.323 596.098,798.685 595.713,803.082 594.57,807.346 592.704,811.347 590.174,814.962 587.052,818.083 583.437,820.615 
	579.436,822.48 575.172,823.623 570.774,824.008 26.323,824.008 21.926,823.623 17.662,822.48 13.662,820.615 10.045,818.083 
	6.924,814.962 4.393,811.347 2.527,807.346 1.385,803.082 1,798.685 1,26.323 1.385,21.926 2.527,17.662 4.393,13.662 6.924,10.046 
	10.045,6.924 13.662,4.393 17.662,2.527 21.926,1.385 26.323,1 "/>
<polyline style="fill:#0000FF;stroke:#0000FF;stroke-width:0.7087;stroke-linecap:round;stroke-linejoin:round;" points="
	26.007,20.309 26.007,804.698 571.092,804.698 571.092,20.309 26.007,20.309 "/>
<polyline style="fill:#FF0000;stroke:#000000;stroke-width:0.7087;stroke-linecap:round;stroke-linejoin:round;" points="
	97.468,200.223 97.468,325.701 494.181,325.701 494.181,200.223 97.468,200.223 "/>
<polyline style="fill:#FFFFFF;stroke:#0000FF;stroke-width:0.7087;stroke-linecap:round;stroke-linejoin:round;" points="
	97.468,576.235 493.284,576.235 493.284,748.193 97.468,748.193 97.468,576.235 "/>
<polyline style="fill:#FFFFFF;stroke:#0000FF;stroke-width:0.7087;stroke-linecap:round;stroke-linejoin:round;" points="
	95.968,349.337 491.294,349.337 491.294,551.373 95.968,551.373 95.968,349.337 "/>
<g>
	<rect x="27.254" y="90.5" style="fill:none;" width="542.59" height="432.506"/>
	<path style="fill:#FFFFFF;" d="M114.527,88.244c6.474,1.031,10.445,4.963,11.914,11.795l0.3,2.481l-8.576,0.645
		c-0.29-3.395-1.502-5.554-3.638-6.478c-2.136-0.923-4.45-0.698-6.941,0.677c-1.668,1.01-2.993,2.165-3.971,3.464
		c-0.979,1.3-2.024,3.84-3.137,7.622c-1.38,5.329-1.413,10.055-0.1,14.18c0.979,3.008,3.326,4.233,7.041,3.674
		c4.004-0.988,6.529-3.244,7.575-6.768h8.843c-0.823,4.533-3.226,8.293-7.208,11.279c-2.025,1.913-5.062,3.19-9.11,3.835
		c-0.534,0.021-1.057,0.032-1.568,0.032c-5.005,0-8.888-1.901-11.646-5.704c-2.247-3.523-3.37-7.659-3.37-12.407
		c0-2.083,0.222-4.297,0.667-6.639c1.246-6.982,3.704-12.396,7.375-16.242c1.891-2.083,4.126-3.598,6.708-4.544
		c2.024-0.688,4.093-1.031,6.207-1.031h0.367C112.991,88.115,113.748,88.159,114.527,88.244z"/>
	<path style="fill:#FFFFFF;" d="M154.638,107.902c0.823,1.826,1.235,4.018,1.235,6.574c0,1.182-0.089,2.438-0.267,3.771
		c-0.734,4.92-2.314,8.701-4.739,11.344c-2.736,3.008-5.773,4.673-9.11,4.995c-0.689,0.043-1.257,0.064-1.702,0.064
		c-0.601,0-1.235-0.032-1.902-0.097c-2.759-0.193-5.217-1.848-7.375-4.963c-1.18-1.89-1.769-4.383-1.769-7.477
		c0-0.902,0.056-1.858,0.167-2.868c0.534-5.586,2.503-10.001,5.907-13.245c2.336-2.17,4.572-3.373,6.708-3.609
		c0.934-0.15,1.846-0.226,2.736-0.226h0.3C149.143,102.166,152.413,104.079,154.638,107.902z M140.789,129.075
		c1.78,0.064,3.248-0.73,4.405-2.385c1.09-1.654,1.979-4.039,2.669-7.154c0.712-3.545,0.656-6.563-0.167-9.056
		c-0.712-1.998-1.847-2.868-3.404-2.61c-1.935-0.258-3.648,0.838-5.139,3.287c-1.113,2.042-1.88,4.362-2.303,6.961
		c-0.378,3.115-0.4,5.5-0.067,7.154C137.364,128.216,138.698,129.483,140.789,129.075z"/>
	<path style="fill:#FFFFFF;" d="M174.46,89.372l-8.81,44.795h-7.875l8.91-44.795H174.46z"/>
	<path style="fill:#FFFFFF;" d="M218.343,134.554h-7.575l0.701-4.157c-1.224,2.32-2.781,3.771-4.672,4.351
		c-0.979,0.258-2.181,0.43-3.604,0.516c-2.136-0.279-3.571-0.967-4.305-2.063c-2.025-1.955-3.204-4.791-3.538-8.508
		c-0.066-0.859-0.1-1.708-0.1-2.546c0-2.664,0.467-5.414,1.402-8.25c1.112-3.094,2.524-5.5,4.238-7.219
		c2.514-2.792,4.872-4.21,7.075-4.254c4.026-0.365,6.641,1.246,7.842,4.834l3.137-16.758h7.909L218.343,134.554z M210.634,108.128
		c-2.692,0.15-5.25,3.996-7.675,11.537c-0.134,6.08,1.034,9.26,3.504,9.539c4.205-0.645,6.641-4.329,7.308-11.054
		C214.861,111.727,213.815,108.386,210.634,108.128z"/>
	<path style="fill:#FFFFFF;" d="M242.537,101.876c3.692,0,6.329,0.87,7.909,2.61c1.69,1.547,2.603,3.996,2.736,7.348
		c0.022,0.451,0.033,0.892,0.033,1.321c-0.044,2.557-0.345,4.984-0.901,7.283h-17.386c-0.846,3.953-0.378,6.574,1.402,7.863
		c1.179,0.73,2.447,0.688,3.804-0.129c1.513-1.117,2.547-2.771,3.104-4.963h8.509c-1.001,3.953-3.148,7.058-6.44,9.313
		c-2.136,1.225-4.394,1.837-6.774,1.837c-2.002,0-4.105-0.43-6.307-1.289c-3.716-2.191-5.573-5.725-5.573-10.603
		c0-0.43,0.011-0.87,0.034-1.321c0.689-6.553,2.447-11.461,5.272-14.728C234.427,103.563,237.953,102.048,242.537,101.876z
		 M236.063,114.348h9.478c0.311-2.879,0.111-4.866-0.601-5.962c-1.802-1.912-3.993-1.783-6.574,0.387
		C237.097,110.19,236.33,112.049,236.063,114.348z"/>
	<path style="fill:#FFFFFF;" d="M307.742,88.341l-1.301,7.348l-15.618,0.032l-1.936,10.667h14.817l-1.234,7.283l-15.084,0.032
		l-4.171,20.561h-8.61l9.043-45.923H307.742z"/>
	<path style="fill:#FFFFFF;" d="M333.504,107.902c0.823,1.826,1.235,4.018,1.235,6.574c0,1.182-0.09,2.438-0.268,3.771
		c-0.733,4.92-2.313,8.701-4.738,11.344c-2.736,3.008-5.773,4.673-9.11,4.995c-0.689,0.043-1.257,0.064-1.702,0.064
		c-0.601,0-1.234-0.032-1.901-0.097c-2.759-0.193-5.218-1.848-7.375-4.963c-1.18-1.89-1.77-4.383-1.77-7.477
		c0-0.902,0.057-1.858,0.168-2.868c0.533-5.586,2.502-10.001,5.906-13.245c2.336-2.17,4.571-3.373,6.707-3.609
		c0.935-0.15,1.847-0.226,2.736-0.226h0.301C328.009,102.166,331.28,104.079,333.504,107.902z M319.656,129.075
		c1.78,0.064,3.248-0.73,4.405-2.385c1.09-1.654,1.979-4.039,2.67-7.154c0.711-3.545,0.655-6.563-0.167-9.056
		c-0.713-1.998-1.847-2.868-3.404-2.61c-1.936-0.258-3.648,0.838-5.139,3.287c-1.113,2.042-1.881,4.362-2.303,6.961
		c-0.379,3.115-0.4,5.5-0.066,7.154C316.23,128.216,317.565,129.483,319.656,129.075z"/>
	<path style="fill:#FFFFFF;" d="M360.034,134.296h-7.676l0.634-5.382c-2.425,3.202-4.86,5.039-7.308,5.511
		c-0.623,0.064-1.201,0.097-1.735,0.097c-1.558,0-2.715-0.258-3.471-0.773c-1.535-0.881-2.514-2.18-2.937-3.899
		c-0.334-1.246-0.5-2.61-0.5-4.093c0-1.096,0.1-2.256,0.3-3.48l3.671-19.884h8.209l-3.838,19.529
		c-0.423,2.191-0.155,3.814,0.802,4.866c1.646,1.246,3.414,1.053,5.306-0.58c1.445-1.332,2.58-3.685,3.403-7.058l3.204-16.758h7.742
		l-5.34,28.037L360.034,134.296z"/>
	<path style="fill:#FFFFFF;" d="M373.482,102.295h7.676l-0.634,4.479c1.646-2.406,3.281-3.888,4.905-4.447
		c0.734-0.193,1.423-0.29,2.069-0.29c0.533,0,1.223,0.086,2.068,0.258l-2.002,8.347c-1.802-0.601-3.37-0.419-4.705,0.548
		c-1.691,0.946-3.159,3.276-4.405,6.993l-3.037,16.017h-7.741L373.482,102.295z"/>
	<path style="fill:#FFFFFF;" d="M406.386,102.295c3.471,0.129,6.084,1.063,7.842,2.804c2.425,2.127,3.638,5.027,3.638,8.701
		c0,0.495-0.022,1.01-0.066,1.547h-7.542c0.4-5.156-0.746-7.552-3.438-7.187c-3.648-0.236-6.14,2.986-7.475,9.668
		c-0.935,7.734,0.233,11.419,3.504,11.054c2.848-0.129,4.816-1.848,5.906-5.156h7.809c-1.49,4.834-4.816,8.314-9.978,10.441
		c-1.713,0.279-3.215,0.419-4.505,0.419c-1.514,0-2.715-0.193-3.604-0.58c-4.649-1.354-7.097-5.36-7.341-12.021
		c0.2-6.445,1.924-11.365,5.172-14.76C399.378,104.175,402.738,102.532,406.386,102.295z"/>
	<path style="fill:#FFFFFF;" d="M428.744,89.308h7.876l-3.371,17.982c2.447-3.266,4.917-5.135,7.408-5.607
		c2.491-0.236,4.249-0.011,5.272,0.677c1.558,0.902,2.559,2.224,3.004,3.964c0.334,1.268,0.5,2.654,0.5,4.157
		c0,1.117-0.1,2.299-0.3,3.545l-3.737,20.174h-8.343l3.904-19.819c0.444-2.234,0.178-3.878-0.801-4.931
		c-1.669-1.268-3.471-1.074-5.406,0.58c-1.446,1.354-2.592,3.738-3.438,7.154l-3.236,17.016h-7.876L428.744,89.308z"/>
	<path style="fill:#FFFFFF;" d="M468.722,101.876c3.693,0,6.329,0.87,7.909,2.61c1.69,1.547,2.603,3.996,2.736,7.348
		c0.021,0.451,0.033,0.892,0.033,1.321c-0.045,2.557-0.345,4.984-0.9,7.283h-17.387c-0.846,3.953-0.378,6.574,1.401,7.863
		c1.18,0.73,2.447,0.688,3.805-0.129c1.513-1.117,2.547-2.771,3.104-4.963h8.51c-1.001,3.953-3.148,7.058-6.44,9.313
		c-2.136,1.225-4.395,1.837-6.774,1.837c-2.003,0-4.104-0.43-6.308-1.289c-3.715-2.191-5.572-5.725-5.572-10.603
		c0-0.43,0.011-0.87,0.033-1.321c0.689-6.553,2.447-11.461,5.272-14.728C460.614,103.563,464.139,102.048,468.722,101.876z
		 M462.248,114.348h9.478c0.312-2.879,0.111-4.866-0.601-5.962c-1.803-1.912-3.994-1.783-6.574,0.387
		C463.282,110.19,462.515,112.049,462.248,114.348z"/>
	<path style="fill:#FFFFFF;" d="M481.637,124.016h7.308c-0.467,1.826-0.189,3.234,0.834,4.222c1.202,0.859,2.781,1.01,4.739,0.451
		c1.957-0.559,2.858-1.793,2.703-3.706c0.021-1.246-0.891-2.363-2.736-3.352c-2.381-1.01-4.572-2.341-6.574-3.996
		c-2.069-1.611-2.814-4.157-2.236-7.638c0.423-2.191,1.603-4.049,3.538-5.575c1.423-1.16,3.214-1.869,5.372-2.127
		c1.046-0.064,1.98-0.097,2.804-0.097c1.379,0,2.424,0.097,3.137,0.29c1.802,0.366,3.281,1.149,4.438,2.353
		c1.268,1.418,1.901,3.298,1.901,5.64c0,0.495-0.033,1.021-0.1,1.579h-7.742c0.622-2.105,0.301-3.523-0.968-4.254
		c-2.314-0.601-3.949-0.269-4.905,0.999c-1.313,1.826-1.102,3.276,0.634,4.351c5.139,2.535,8.164,4.426,9.077,5.672
		c1.112,1.268,1.657,2.944,1.635,5.027c-0.089,1.676-0.423,3.137-1.001,4.383c-0.823,1.439-1.914,2.75-3.271,3.932
		c-1.69,1.289-3.415,2.063-5.172,2.32c-0.913,0.107-1.78,0.161-2.604,0.161c-1.49,0-2.903-0.108-4.238-0.322
		c-1.757-0.559-3.326-1.568-4.705-3.029c-1.224-1.225-1.868-3.062-1.936-5.511L481.637,124.016z"/>
</g>
<g>
	<rect x="97.468" y="238.5" style="fill:none;" width="396.713" height="428.107"/>
	<path style="fill:#FFFFFF;" d="M208.119,238.61v9.814H183.93v11.719h17.723v9.961H183.93l-0.04,22.192h-11.256l0.04-53.687H208.119
		z"/>
	<path style="fill:#FFFFFF;" d="M254.137,238.72v9.814h-24.19v11.719h17.723v9.924h-17.723v12.268h25.228v9.924h-36.484l0.04-53.65
		H254.137z"/>
	<path style="fill:#FFFFFF;" d="M285.865,238.5c6.147,0,10.95,2.027,14.411,6.079c3.033,3.565,4.551,7.581,4.551,12.048
		c0,0.806-0.054,1.758-0.16,2.856c-0.639,5.444-3.606,9.949-8.902,13.513l9.741,19.336H292.89l-8.343-16.003h-7.225v16.113h-11.057
		l0.04-53.943H285.865z M284.268,266.002l3.273-0.366c1.862-0.463,3.419-1.428,4.67-2.893c1.064-1.44,1.703-3.162,1.916-5.164
		c0.106-2.49-0.692-4.663-2.395-6.519c-1.438-1.514-3.527-2.368-6.268-2.563h-8.023v17.505H284.268z"/>
	<path style="fill:#FFFFFF;" d="M316.994,238.61h15.049l11.775,28.455l12.055-28.455h15.009v53.76h-11.137v-33.948l-14.569,33.948
		h-2.914l-14.45-33.655l0.12,33.655h-10.938V238.61z"/>
	<path style="fill:#FFFFFF;" d="M418.656,238.72v9.814h-24.189v11.719h17.724v9.924h-17.724v12.268h25.228v9.924H383.21v-53.65
		H418.656z M410.235,225.28l-6.188,11.133h-12.334l5.069-11.133H410.235z"/>
</g>
<g>
	<rect x="95.275" y="393.875" style="fill:none;" width="396.713" height="428.107"/>
	<path d="M226.211,393.956l11.065,39.343h-8.401l-1.844-6.687h-11.855l-1.874,6.687h-8.489l10.948-39.343H226.211z M216.785,419.119
		h8.459l-4.098-15.361L216.785,419.119z"/>
	<path d="M261.596,393.956c2.498,0.251,4.708,1.074,6.63,2.471c1.922,1.396,3.303,2.972,4.142,4.727
		c1.054,1.88,1.581,3.894,1.581,6.042c0,1.003-0.01,1.656-0.029,1.96c-0.156,2.471-0.712,4.529-1.668,6.177
		c-0.957,1.647-2,2.909-3.132,3.786c-2.459,2.06-5.045,3.107-7.757,3.143h-8.138v11.037h-8.021v-39.343H261.596z M253.342,414.42
		h6.616c1.015-0.107,1.854-0.34,2.518-0.698c1.795-0.984,2.869-2.694,3.22-5.129c0.059-2.202-0.429-3.876-1.463-5.022
		c-1.035-1.146-2.411-1.799-4.127-1.96h-6.762V414.42z"/>
	<path d="M296.339,393.875c4.508,0,8.031,1.486,10.568,4.458c2.225,2.614,3.337,5.559,3.337,8.835c0,0.591-0.039,1.289-0.117,2.095
		c-0.469,3.993-2.645,7.296-6.527,9.91l7.142,14.18h-9.25l-6.118-11.736h-5.299v11.816h-8.108l0.029-39.558H296.339z
		 M295.168,414.044l2.4-0.269c1.365-0.34,2.507-1.047,3.425-2.122c0.78-1.056,1.248-2.318,1.405-3.787
		c0.077-1.826-0.508-3.419-1.757-4.78c-1.054-1.11-2.586-1.736-4.596-1.88h-5.884v12.837H295.168z"/>
	<path d="M344.136,394.037v7.197h-17.739v8.594h12.997v7.278h-12.997v8.996h18.501v7.278h-26.756v-39.343H344.136z M335.267,384.181
		l3.864,8.164h-9.426l-4.742-8.164H335.267z"/>
	<path d="M352.796,425.35v-0.053c0-0.197,0.224-0.332,0.673-0.403c3.454-1.021,5.698-1.755,6.732-2.202
		c0.527,0.662,1.22,1.262,2.079,1.799c1.385,0.752,2.868,1.209,4.449,1.37c1.678,0.036,2.722,0,3.132-0.107
		c1.932-0.501,3.122-1.011,3.571-1.53c0.449-0.358,0.839-1.227,1.171-2.605c0.078-0.537,0-1.137-0.234-1.799
		c-0.292-0.447-0.604-0.824-0.937-1.129l-0.995-0.697l-1.112-0.457c-6.187-1.772-9.592-2.811-10.216-3.115
		c-2.869-1.056-5.006-2.802-6.411-5.237c-0.917-1.629-1.327-3.607-1.229-5.935c0.37-2.9,1.669-5.201,3.894-6.902
		c2.497-1.665,5.103-2.569,7.815-2.712h0.761c1.933,0,3.532,0.134,4.801,0.403c2.576,0.663,4.586,1.584,6.03,2.766
		c1.444,1.092,2.635,2.578,3.571,4.458l-0.088,0.295l-6.03,2.659l-0.292-0.134c-0.371-1.092-1.415-1.978-3.133-2.659
		c-1.932-0.662-4.195-0.68-6.791-0.054c-1.112,0.34-1.893,0.779-2.342,1.316c-0.156,0.144-0.361,0.591-0.614,1.343
		c-0.04,0.877,0,1.388,0.117,1.531c0.253,0.609,0.761,1.155,1.521,1.638l0.762,0.295c5.542,1.504,9.298,2.596,11.27,3.276
		c1.698,0.716,2.995,1.504,3.894,2.363l1.639,2.041c1.21,1.844,1.854,3.858,1.933,6.043c0.019,0.143,0.029,0.313,0.029,0.51
		c0,0.698-0.117,1.639-0.352,2.82c-0.488,1.664-1.073,2.891-1.757,3.679c-1.171,1.325-2.02,2.122-2.546,2.39
		c-2.869,1.809-5.825,2.784-8.87,2.928h-2.664c-1.99-0.179-3.669-0.537-5.034-1.074c-2.187-0.931-3.952-1.969-5.299-3.115
		C354.581,428.421,353.615,427.087,352.796,425.35z"/>
</g>
<g>
	<rect x="81.423" y="475.006" style="fill:none;" width="424.417" height="428.107"/>
	<path d="M116.942,475.079l0.027,29.443h15.088l-0.026,6.396h-22.46v-35.84H116.942z"/>
	<path d="M162.923,475.152v6.543h-16.127v7.813h11.815v6.616h-11.815v8.179h16.818v6.616h-24.322l0.026-35.767H162.923z"/>
	<path d="M193.038,475.079h10.032l7.851,18.97l8.037-18.97h10.006v35.84h-7.424v-22.632l-9.713,22.632h-1.943l-9.633-22.437
		l0.08,22.437h-7.292V475.079z"/>
	<path d="M253.308,474.688c4.293,0.603,7.468,2.93,9.526,6.982c1.757,2.995,2.635,6.673,2.635,11.035v0.439
		c0,5.452-1.446,10.091-4.338,13.916c-2.058,2.571-4.967,4.012-8.729,4.321c-0.39,0.032-0.771,0.049-1.144,0.049
		c-3.903,0-7.176-1.514-9.82-4.541c-2.732-4.036-4.116-8.179-4.151-12.427c-0.018-0.358-0.026-0.716-0.026-1.074
		c0-5.745,1.393-10.498,4.178-14.258c1.863-2.051,3.806-3.36,5.828-3.931c1.401-0.406,2.803-0.61,4.205-0.61
		C252.093,474.591,252.705,474.623,253.308,474.688z M251.259,505.182c2.058-0.098,3.796-1.392,5.216-3.882
		c1.029-1.66,1.676-4.102,1.943-7.324c0.053-4.102-0.737-7.462-2.369-10.083c-1.331-1.822-2.803-2.84-4.417-3.052
		c-2.129,0.098-3.903,1.376-5.322,3.833c-1.011,1.726-1.668,4.199-1.969,7.422c-0.036,4.102,0.772,7.455,2.421,10.059
		C248.074,503.978,249.573,504.986,251.259,505.182z"/>
	<path d="M282.923,475.079l9.793,19.092v-19.092h7.238l0.026,35.84h-7.105l-11.896-22.583l-0.026,22.607h-7.318v-35.864H282.923z"/>
	<path d="M331.644,475.152v6.543h-16.126v7.813h11.815v6.616h-11.815v8.179h16.818v6.616h-24.323l0.027-35.767H331.644z"/>
	<path d="M339.516,503.619v-0.049c0-0.179,0.204-0.301,0.612-0.366c3.141-0.928,5.18-1.595,6.121-2.002
		c0.479,0.603,1.108,1.147,1.889,1.636c1.26,0.684,2.608,1.099,4.045,1.245c1.525,0.032,2.475,0,2.848-0.098
		c1.756-0.456,2.838-0.919,3.246-1.392c0.408-0.325,0.763-1.115,1.064-2.368c0.071-0.488,0-1.033-0.213-1.636
		c-0.266-0.406-0.55-0.748-0.852-1.025l-0.904-0.635l-1.012-0.415c-5.624-1.611-8.72-2.556-9.287-2.832
		c-2.607-0.96-4.551-2.547-5.828-4.761c-0.834-1.48-1.206-3.279-1.117-5.396c0.337-2.637,1.517-4.728,3.539-6.274
		c2.271-1.514,4.64-2.336,7.105-2.466h0.691c1.757,0,3.211,0.122,4.365,0.366c2.342,0.603,4.168,1.44,5.481,2.515
		c1.313,0.993,2.396,2.344,3.247,4.053l-0.08,0.269l-5.482,2.417l-0.266-0.122c-0.338-0.992-1.287-1.799-2.848-2.417
		c-1.756-0.603-3.814-0.618-6.174-0.049c-1.012,0.31-1.721,0.708-2.129,1.196c-0.143,0.131-0.328,0.537-0.559,1.221
		c-0.036,0.798,0,1.262,0.106,1.392c0.23,0.554,0.691,1.05,1.384,1.489l0.691,0.269c5.038,1.367,8.453,2.36,10.246,2.979
		c1.543,0.651,2.723,1.367,3.539,2.148l1.49,1.855c1.1,1.677,1.685,3.508,1.756,5.493c0.018,0.131,0.027,0.285,0.027,0.464
		c0,0.635-0.107,1.489-0.32,2.563c-0.443,1.514-0.976,2.629-1.596,3.345c-1.064,1.204-1.837,1.929-2.315,2.173
		c-2.608,1.645-5.296,2.531-8.063,2.661h-2.422c-1.81-0.163-3.335-0.488-4.577-0.977c-1.987-0.847-3.593-1.79-4.816-2.832
		C341.14,506.41,340.261,505.198,339.516,503.619z"/>
	<path d="M397.019,475.104v6.885h-7.797v28.931h-7.238v-29.004h-8.33v-6.812H397.019z"/>
	<path d="M412.69,475.128v35.791h-7.398v-35.791H412.69z"/>
	<path d="M444.724,475.152v6.543h-16.126v7.813h11.815v6.616h-11.815v8.179h16.818v6.616h-24.323l0.027-35.767H444.724z"/>
	<path d="M465.876,475.006c4.098,0,7.3,1.352,9.606,4.053c2.022,2.377,3.034,5.054,3.034,8.032c0,0.537-0.036,1.172-0.106,1.904
		c-0.426,3.63-2.404,6.633-5.935,9.009l6.493,12.891h-8.409l-5.562-10.669h-4.817v10.742h-7.371l0.027-35.962H465.876z
		 M464.812,493.341l2.182-0.244c1.242-0.31,2.28-0.952,3.114-1.929c0.709-0.96,1.135-2.107,1.277-3.442
		c0.07-1.66-0.462-3.108-1.597-4.346c-0.958-1.009-2.352-1.579-4.178-1.709h-5.35v11.67H464.812z"/>
</g>
</svg>
