<?xml version="1.0" encoding="utf-8"?>
<!-- Generator: Adobe Illustrator 13.0.0, SVG Export Plug-In  -->
<!DOCTYPE svg PUBLIC "-//W3C//DTD SVG 1.1//EN" "http://www.w3.org/Graphics/SVG/1.1/DTD/svg11.dtd" [
	<!ENTITY ns_flows "http://ns.adobe.com/Flows/1.0/">
]>
<svg version="1.1"
	 xmlns="http://www.w3.org/2000/svg" xmlns:xlink="http://www.w3.org/1999/xlink" xmlns:a="http://ns.adobe.com/AdobeSVGViewerExtensions/3.0/"
	 x="0px" y="0px" width="576px" height="576px" viewBox="-0.531 -0.531 576 576" enable-background="new -0.531 -0.531 576 576"
	 xml:space="preserve">
<defs>
</defs>
<path fill="#FFFFFF" stroke="#000000" stroke-linecap="round" stroke-linejoin="round" d="M41.496,574.438h491.947
	c10.872,0,21.3-4.318,28.988-12.007c7.688-7.688,12.007-18.115,12.007-28.988V41.496c0-10.873-4.319-21.3-12.007-28.988
	C554.742,4.819,544.314,0.5,533.442,0.5H41.496c-10.873,0-21.3,4.319-28.988,12.007C4.819,20.195,0.5,30.623,0.5,41.496v491.947
	c0,10.873,4.319,21.3,12.007,28.988C20.195,570.119,30.623,574.438,41.496,574.438z"/>
<path fill="#0000FF" stroke="#000000" d="M544.919,529.72c0,6.744-5.468,12.214-12.214,12.214H42.659
	c-6.746,0-12.214-5.47-12.214-12.214V41.173c0-6.746,5.468-12.214,12.214-12.214h490.046c6.746,0,12.214,5.469,12.214,12.214V529.72
	z"/>
<path fill="none" stroke="#0000FF" stroke-width="0.1764" stroke-linecap="round" stroke-linejoin="round" d="M235.025,447.142
	v2.841h-68.984V123.755h132.196c65.001,0,117.695,52.693,117.695,117.695s-52.694,117.695-117.695,117.695h-63.212V447.142z"/>
<path fill="none" stroke="#0000FF" stroke-width="0.1764" stroke-linecap="round" stroke-linejoin="round" d="M238.703,288.582
	v-86.777h38.406c24.271,0,43.945,19.675,43.945,43.946s-19.675,43.945-43.945,43.945
	C264.299,289.696,251.492,289.325,238.703,288.582z"/>
<path fill="#FFFFFF" d="M415.933,241.45c0,65.001-52.694,117.695-117.695,117.695h-63.212v87.997v2.841h-68.984V123.755h132.196
	C363.238,123.755,415.933,176.448,415.933,241.45z M321.055,245.751c0-24.271-19.675-43.946-43.945-43.946h-38.406v86.777
	c12.789,0.743,25.596,1.114,38.406,1.114C301.38,289.696,321.055,270.021,321.055,245.751z"/>
<rect x="407.831" y="371.176" fill="#FFFFFF" stroke="#000000" stroke-width="0.5" stroke-linecap="round" stroke-linejoin="round" width="109.603" height="151.763"/>
<path fill="#0000FF" stroke="#000000" stroke-width="0.5" stroke-linecap="round" stroke-linejoin="round" d="M418.28,479.65
	c7.702,12.938,25.452,21.995,46.117,21.995c20.796,0,38.638-9.17,46.261-22.238l-25.565-22.219
	c-3.416,7.206-11.419,12.263-20.743,12.263c-8.93,0-16.646-4.636-20.286-11.356L418.28,479.65z"/>
<polyline fill="#0000FF" stroke="#000000" stroke-width="0.5" stroke-linecap="round" stroke-linejoin="round" points="
	464.854,447.555 448.225,388.474 481.433,388.484 464.725,447.366 "/>
</svg>
