<?xml version="1.0" encoding="utf-8"?>
<!-- Generator: Adobe Illustrator 13.0.0, SVG Export Plug-In  -->
<!DOCTYPE svg PUBLIC "-//W3C//DTD SVG 1.1//EN" "http://www.w3.org/Graphics/SVG/1.1/DTD/svg11.dtd" [
	<!ENTITY ns_flows "http://ns.adobe.com/Flows/1.0/">
]>
<svg version="1.1"
	 xmlns="http://www.w3.org/2000/svg" xmlns:xlink="http://www.w3.org/1999/xlink" xmlns:a="http://ns.adobe.com/AdobeSVGViewerExtensions/3.0/"
	 x="0px" y="0px" width="598px" height="600px" viewBox="0 -0.031 598 600" enable-background="new 0 -0.031 598 600"
	 xml:space="preserve">
<defs>
</defs>
<path fill="#FFFFFF" stroke="#000000" stroke-width="2" stroke-linecap="round" stroke-linejoin="round" d="M43.515,598.938h510.183
	c11.275,0,22.089-4.498,30.063-12.508c7.973-8.011,12.452-18.873,12.452-30.201V43.71c0-11.327-4.479-22.191-12.452-30.2
	C575.787,5.5,564.974,1,553.698,1H43.515C32.24,1,21.425,5.5,13.453,13.51C5.479,21.519,1,32.383,1,43.71v512.519
	c0,11.328,4.479,22.19,12.453,30.201C21.425,594.439,32.24,598.938,43.515,598.938z"/>
<polyline fill="#0000FF" stroke="#0000FF" stroke-width="0.7087" stroke-linecap="round" stroke-linejoin="round" points="
	30.706,566.763 566.294,566.763 566.294,31.175 30.706,31.175 30.706,566.763 "/>
<polyline fill="#FFFFFF" stroke="#0000FF" stroke-width="0.7087" stroke-linecap="round" stroke-linejoin="round" points="
	429.271,408.714 446.11,402.215 463.745,398.364 481.761,397.25 "/>
<polyline fill="#FFFFFF" stroke="#0000FF" stroke-width="0.7087" stroke-linecap="round" stroke-linejoin="round" points="
	481.761,397.25 499.777,398.364 517.412,402.215 534.252,408.714 "/>
<path fill="#FFFFFF" stroke="#0000FF" stroke-width="0.7087" stroke-linecap="round" stroke-linejoin="round" d="M245.409,472.807
	c0-0.582,0-1.162,0-1.743c0-30.771,0-61.541,0-92.312c0-2.604-1.14-4.842,1.69-4.842c6.967,0,13.934,0,20.9,0
	c14.075,0,28.15,0,42.226,0h3.675c9.408-0.928,19.322-1.074,28.575-3.034c7.466-1.58,14.937-4.605,22.076-7.278
	c15.235-5.703,28.838-16.737,40.52-27.765c5.783-5.459,11.016-12.873,15.356-19.515c4.255-6.509,8.877-13.868,11.665-21.14
	c6.048-15.769,9.621-32.128,9.6-49.024c-0.042-33.558-13.177-66.162-36.648-90.255c-11.769-12.08-26.31-21.673-41.824-28.118
	c-15.971-6.633-32.304-8.468-49.319-10.144h-3.675c-40.771,0-81.54,0-122.31,0c-1.31,0-21.615-0.144-21.615,0.128
	c0,4.75,0,9.498,0,14.247c0,27.185,0,54.369,0,81.553c0,71.98,0,143.959,0,215.94c0,2.304-0.025,43.301,0.023,43.301
	C192.685,472.807,219.047,472.807,245.409,472.807"/>
<line fill="#0000FF" stroke="#0000FF" stroke-width="0.7087" stroke-linecap="round" stroke-linejoin="round" x1="245.935" y1="199.988" x2="310.749" y2="199.988"/>
<polyline fill="#0000FF" stroke="#0000FF" stroke-width="0.7087" stroke-linecap="round" stroke-linejoin="round" points="
	310.749,294.463 319.965,293.555 328.826,290.867 336.993,286.502 344.151,280.627 350.026,273.469 354.391,265.303 
	357.078,256.441 357.987,247.226 357.078,238.01 354.391,229.148 350.026,220.981 344.151,213.823 336.993,207.949 328.826,203.584 
	319.965,200.895 310.749,199.988 245.935,199.988 245.935,294.463 310.749,294.463 "/>
<path fill="#FFFFFF" stroke="#0000FF" stroke-width="0.7087" stroke-linecap="round" stroke-linejoin="round" d="M428.336,409.871
	c11.838-7.153,31.338-11.824,53.389-11.824c21.454,0,40.493,4.422,52.411,11.25l-27.998,102.675l-6.825,2.363l-4.463,22.837
	l-28.087,0.788l-4.463-23.101l-6.563-2.625L428.336,409.871z"/>
<polyline fill="#0000FF" stroke="#0000FF" stroke-width="0.7087" stroke-linecap="round" stroke-linejoin="round" points="
	482.109,442.077 451.976,442.322 516.38,423.955 513.425,442.322 483.289,442.077 "/>
<path fill="#0000FF" stroke="#0000FF" stroke-width="0.7087" stroke-linecap="round" stroke-linejoin="round" d="M452.027,442.062
	l64.676-17.815c-8.31-5.892-21.043-9.661-35.317-9.661c-13.428,0-25.493,3.337-33.795,8.638l0.142,1.054L452.027,442.062z"/>
</svg>
