<?xml version="1.0" encoding="UTF-8" standalone="no"?>
<!-- Generator: Adobe Illustrator 13.0.0, SVG Export Plug-In . SVG Version: 6.00 Build 14948)  -->

<svg
   version="1.1"
   id="Calque_1"
   x="0px"
   y="0px"
   width="575"
   height="575"
   viewBox="-0.322 -0.549 575 575"
   enable-background="new -0.322 -0.549 576 576"
   xml:space="preserve"
   inkscape:version="1.2.2 (732a01da63, 2022-12-09)"
   sodipodi:docname="France_road_sign_C20a.svg"
   xmlns:inkscape="http://www.inkscape.org/namespaces/inkscape"
   xmlns:sodipodi="http://sodipodi.sourceforge.net/DTD/sodipodi-0.dtd"
   xmlns="http://www.w3.org/2000/svg"
   xmlns:svg="http://www.w3.org/2000/svg"
   xmlns:rdf="http://www.w3.org/1999/02/22-rdf-syntax-ns#"
   xmlns:cc="http://creativecommons.org/ns#"
   xmlns:dc="http://purl.org/dc/elements/1.1/"><metadata
     id="metadata45"><rdf:RDF><cc:Work
         rdf:about=""><dc:format>image/svg+xml</dc:format><dc:type
           rdf:resource="http://purl.org/dc/dcmitype/StillImage" /></cc:Work></rdf:RDF></metadata><defs
     id="defs43"><inkscape:perspective
       id="perspective4308"
       inkscape:persp3d-origin="195 : 65 : 1"
       inkscape:vp_z="390 : 98 : 1"
       inkscape:vp_y="0 : 1000 : 0"
       inkscape:vp_x="0 : 98 : 1"
       sodipodi:type="inkscape:persp3d" /></defs><sodipodi:namedview
     pagecolor="#ffffff"
     bordercolor="#666666"
     borderopacity="1"
     objecttolerance="10"
     gridtolerance="10"
     guidetolerance="10"
     inkscape:pageopacity="0"
     inkscape:pageshadow="2"
     inkscape:window-width="1920"
     inkscape:window-height="991"
     id="namedview41"
     showgrid="false"
     inkscape:zoom="1.3547826"
     inkscape:cx="253.54621"
     inkscape:cy="380.50385"
     inkscape:window-x="-9"
     inkscape:window-y="-9"
     inkscape:window-maximized="1"
     inkscape:current-layer="Calque_1"
     inkscape:pagecheckerboard="false"
     inkscape:snap-intersection-paths="false"
     inkscape:snap-smooth-nodes="false"
     inkscape:object-paths="false"
     inkscape:snap-bbox="false"
     inkscape:snap-bbox-edge-midpoints="false"
     inkscape:bbox-nodes="false"
     showguides="true"
     inkscape:guide-bbox="true"
     inkscape:snap-bbox-midpoints="false"
     inkscape:showpageshadow="2"
     inkscape:deskcolor="#d1d1d1" /><rect
     style="display:inline;fill:#ffffff;fill-opacity:1;stroke:#000000;stroke-width:2;stroke-linecap:round;stroke-linejoin:round;stroke-miterlimit:4;stroke-dasharray:none;stroke-opacity:1"
     id="rect3174"
     width="573"
     height="573"
     x="0.67799997"
     y="0.45100001"
     ry="40.973492"
     inkscape:label="rect3" /><rect
     style="fill:#0056a4;fill-opacity:1;stroke:none;stroke-width:1.99651;stroke-linecap:round;stroke-linejoin:round;stroke-miterlimit:4;stroke-dasharray:none;stroke-opacity:1"
     id="rect4516"
     width="518.10187"
     height="518.10187"
     x="28.127026"
     y="27.900026"
     ry="13.524467"
     inkscape:label="rect5" /><path
     id="polygon10"
     style="fill:#ffffff;stroke-width:1.05796"
     d="M 523.97925,482.27014 H 50.376745 L 287.17801,72.119159 Z"
     inkscape:label="polygon7" /><path
     style="opacity:0.5;fill:#ffaaaa;fill-rule:evenodd;stroke-width:0.327358;stroke-linecap:round;stroke-linejoin:round"
     d="m -775.18528,2062.3768 c -64.7229,0 -116.93945,52.2165 -116.93945,116.9394 0,10.9465 1.5252,21.5217 4.32031,31.5606 h 225.23633 c 2.79514,-10.0389 4.32226,-20.6141 4.32226,-31.5606 0,-64.7229 -52.21655,-116.9394 -116.93945,-116.9394 z"
     id="path20114" /><path
     style="opacity:0.5;fill:#ffaaaa;fill-rule:evenodd;stroke-width:0.327358;stroke-linecap:round;stroke-linejoin:round"
     d="m -1613.1853,2062.3768 c -64.7228,0 -116.9394,52.2166 -116.9394,116.9394 0,10.9465 1.5252,21.5217 4.3203,31.5606 h 225.2363 c 2.7951,-10.0389 4.3223,-20.6141 4.3223,-31.5606 0,-64.7228 -52.2166,-116.9394 -116.9395,-116.9394 z"
     id="path20112" /><path
     id="rect19538"
     style="opacity:1;fill:#000000;fill-rule:evenodd;stroke-width:0.0629251;stroke-linecap:round;stroke-linejoin:round"
     d="m 133.99011,353.52163 v 18.30314 h 3.10516 0.94272 c 0.87539,0 1.58023,0.7048 1.58023,1.5802 0,0.11962 -0.0426,0.22488 -0.0675,0.33677 l 0.0299,0.008 -0.99153,3.70028 c 0,0 -6.61038,22.24736 -7.77069,28.56862 h -3.76038 c -3.1947,0 -5.76663,2.57193 -5.76663,5.76667 v 37.2749 c 0,3.19473 2.57193,5.76666 5.76663,5.76666 h 43.41815 c -0.45053,-1.9516 -0.69645,-3.9804 -0.69645,-6.06664 0,-14.87544 12.10732,-26.98276 26.98281,-26.98276 14.87543,0 26.98276,12.10732 26.98276,26.98276 0,2.08624 -0.24592,4.11504 -0.6964,6.06664 h 108.50928 c -0.45053,-1.9516 -0.69644,-3.9804 -0.69644,-6.06664 0,-14.87546 12.10732,-26.98276 26.98275,-26.98276 14.8755,0 26.98281,12.1073 26.98281,26.98276 0,2.08624 -0.24591,4.11504 -0.69644,6.06664 h 20.36088 27.29252 5.76664 v -5.76666 -6.92262 -30.35228 -5.76667 -45.57462 c 0,-3.83511 -3.08754,-6.92263 -6.92257,-6.92263 h -53.09469 -25.85231 z m 12.13057,18.33656 h 14.46958 c 1.57214,0 2.83795,1.26545 2.83795,2.83752 v 28.83705 c 0,1.57207 -1.26581,2.83789 -2.83795,2.83789 H 138.0474 c -1.57209,0 -3.26173,-1.32403 -2.8379,-2.83789 l 8.07329,-28.83705 c 0.42384,-1.51387 1.26587,-2.83752 2.83789,-2.83752 z m 25.74011,0 h 55.14218 c 1.57208,0 2.83788,1.26545 2.83788,2.83752 v 28.83705 c 0,1.57207 -1.2658,2.83789 -2.83788,2.83789 h -55.14218 c -1.57197,0 -2.83789,-1.26582 -2.83789,-2.83789 v -28.83705 c 0,-1.57207 1.26592,-2.83752 2.83789,-2.83752 z m 66.41269,0 h 55.14218 c 1.57209,0 2.8379,1.26545 2.8379,2.83752 v 28.83705 c 0,1.57207 -1.26581,2.83789 -2.8379,2.83789 h -55.14218 c -1.57196,0 -2.83788,-1.26582 -2.83788,-2.83789 v -28.83705 c 0,-1.57207 1.26592,-2.83752 2.83788,-2.83752 z m 66.4127,0 h 55.14213 c 1.57208,0 2.83795,1.26545 2.83795,2.83752 v 28.83705 c 0,1.57207 -1.26587,2.83789 -2.83795,2.83789 h -55.14213 c -1.57202,0 -2.83789,-1.26582 -2.83789,-2.83789 v -28.83705 c 0,-1.57207 1.26587,-2.83752 2.83789,-2.83752 z m 66.41264,0 h 55.14219 c 1.57208,0 2.83789,1.26545 2.83789,2.83752 v 28.83705 c 0,1.57207 -1.26581,2.83789 -2.83789,2.83789 h -55.14219 c -1.57202,0 -2.83788,-1.26582 -2.83788,-2.83789 v -28.83705 c 0,-1.57207 1.26586,-2.83752 2.83788,-2.83752 z m -174.33625,52.17173 a 24.730637,24.730637 0 0 0 -24.73054,24.73056 24.730637,24.730637 0 0 0 24.73054,24.73055 24.730637,24.730637 0 0 0 24.73054,-24.73055 24.730637,24.730637 0 0 0 -24.73054,-24.73056 z m 161.08195,0 a 24.730637,24.730637 0 0 0 -24.73054,24.73056 24.730637,24.730637 0 0 0 24.73054,24.73055 24.730637,24.730637 0 0 0 24.73059,-24.73055 24.730637,24.730637 0 0 0 -24.73059,-24.73056 z" /><g
     id="path19729"
     style="opacity:0.5" /><g
     id="circle20094"
     style="opacity:0.5" /></svg>
