<?xml version="1.0" encoding="UTF-8" standalone="no"?>
<!-- Created with Inkscape (http://www.inkscape.org/) -->

<svg
   xmlns:dc="http://purl.org/dc/elements/1.1/"
   xmlns:cc="http://creativecommons.org/ns#"
   xmlns:rdf="http://www.w3.org/1999/02/22-rdf-syntax-ns#"
   xmlns:svg="http://www.w3.org/2000/svg"
   xmlns="http://www.w3.org/2000/svg"
   xmlns:sodipodi="http://sodipodi.sourceforge.net/DTD/sodipodi-0.dtd"
   xmlns:inkscape="http://www.inkscape.org/namespaces/inkscape"
   width="210.88048mm"
   height="210.88048mm"
   viewBox="0 0 747.21429 747.21429"
   id="svg6728"
   version="1.1"
   inkscape:version="0.91 r13725"
   sodipodi:docname="c23.svg">
  <defs
     id="defs6730" />
  <sodipodi:namedview
     id="base"
     pagecolor="#ffffff"
     bordercolor="#666666"
     borderopacity="1.0"
     inkscape:pageopacity="0.0"
     inkscape:pageshadow="2"
     inkscape:zoom="0.71331612"
     inkscape:cx="373.60715"
     inkscape:cy="373.60715"
     inkscape:document-units="px"
     inkscape:current-layer="layer1"
     showgrid="false"
     fit-margin-top="0"
     fit-margin-left="0"
     fit-margin-right="0"
     fit-margin-bottom="0"
     showguides="true"
     inkscape:guide-bbox="true"
     inkscape:window-width="1366"
     inkscape:window-height="716"
     inkscape:window-x="-8"
     inkscape:window-y="-8"
     inkscape:window-maximized="1">
    <inkscape:grid
       type="xygrid"
       id="grid8375" />
    <sodipodi:guide
       position="0,747.30666"
       orientation="0.70710678,0.70710678"
       id="guide8445" />
    <sodipodi:guide
       position="747.82889,747.56777"
       orientation="-0.70710678,0.70710678"
       id="guide8447" />
    <sodipodi:guide
       position="373.78389,373.52277"
       orientation="1,0"
       id="guide8449" />
    <sodipodi:guide
       position="373.78389,373.52277"
       orientation="0,1"
       id="guide8451" />
  </sodipodi:namedview>
  <metadata
     id="metadata6733">
    <rdf:RDF>
      <cc:Work
         rdf:about="">
        <dc:format>image/svg+xml</dc:format>
        <dc:type
           rdf:resource="http://purl.org/dc/dcmitype/StillImage" />
        <dc:title></dc:title>
      </cc:Work>
    </rdf:RDF>
  </metadata>
  <g
     inkscape:label="Calque 1"
     inkscape:groupmode="layer"
     id="layer1"
     transform="translate(355.03571,-137.32649)">
    <rect
       style="opacity:1;fill:#ffffff;fill-opacity:1;stroke:#1a1a1a;stroke-width:1.5;stroke-linecap:round;stroke-linejoin:bevel;stroke-miterlimit:4;stroke-dasharray:none;stroke-opacity:1"
       id="rect7276"
       width="745.71429"
       height="745.71429"
       x="-354.28571"
       y="138.07649"
       ry="33.305611" />
    <rect
       style="opacity:1;fill:#003eaf;fill-opacity:1;stroke:none;stroke-width:5;stroke-linecap:round;stroke-linejoin:bevel;stroke-miterlimit:4;stroke-dasharray:none;stroke-opacity:1"
       id="rect7276-2"
       width="667.01776"
       height="667.01776"
       x="-314.85776"
       y="177.53104"
       ry="18.188385" />
    <path
       inkscape:connector-curvature="0"
       style="fill:#ffffff;stroke:none;stroke-width:0.7087;stroke-linecap:round;stroke-linejoin:round"
       d="m -156.36051,583.5532 0.032,-111.92895 c -0.35135,-118.05549 296.20113,-119.04176 296.1765,-0.0133 l -0.009,111.95081 -103.011222,-0.002 c -17.574785,-41.19922 -66.63775,-41.19922 -82.381856,-0.002 z"
       id="path7599"
       sodipodi:nodetypes="ccccccc" />
    <path
       inkscape:connector-curvature="0"
       style="fill:#003eaf;fill-opacity:1;stroke:none;stroke-opacity:1"
       d="m -133.21199,541.21433 c -0.39141,39.47166 64.373923,39.47166 64.250369,0 l -0.219847,-69.64328 c 0.343401,-40.44759 -64.421932,-40.44759 -63.939862,-0.0509 z"
       id="path7609"
       sodipodi:nodetypes="ccccc" />
    <circle
       style="opacity:1;fill:#ffffff;fill-opacity:1;stroke:none;stroke-width:7.5;stroke-linecap:round;stroke-linejoin:round;stroke-miterlimit:8.80000019;stroke-dasharray:none;stroke-opacity:1"
       id="path8385"
       cx="-5.2782178"
       cy="596.1828"
       r="31.488174" />
    <path
       style="fill:none;fill-rule:evenodd;stroke:#ffffff;stroke-width:10.98597145;stroke-linecap:butt;stroke-linejoin:round;stroke-miterlimit:4;stroke-dasharray:none;stroke-opacity:1"
       d="m 138.13426,577.95659 47.97706,-0.24077 c 6.4428,-0.16487 7.59372,1.64918 5.1802,7.69074 l -16.07874,48.1463 -332.27198,0 0,0 0,0"
       id="path8397"
       inkscape:connector-curvature="0"
       sodipodi:nodetypes="ccccccc" />
    <path
       style="fill:none;fill-rule:evenodd;stroke:#ffffff;stroke-width:10.98597145;stroke-linecap:butt;stroke-linejoin:miter;stroke-miterlimit:4;stroke-dasharray:none;stroke-opacity:1"
       d="m 158.45114,633.43551 41.7082,0"
       id="path8399"
       inkscape:connector-curvature="0" />
    <path
       style="fill:none;fill-rule:evenodd;stroke:#ffffff;stroke-width:10.98597145;stroke-linecap:butt;stroke-linejoin:miter;stroke-miterlimit:4;stroke-dasharray:none;stroke-opacity:1"
       d="m -127.78365,581.46202 0,50.20553"
       id="path8431"
       inkscape:connector-curvature="0" />
    <path
       inkscape:connector-curvature="0"
       style="fill:#ffffff;stroke:none;stroke-width:0.7087;stroke-linecap:round;stroke-linejoin:round"
       d="m -81.97649,472.62461 c 0,-11.01586 -8.931472,-19.94733 -19.94857,-19.94733 -11.0171,0 -19.94733,8.93023 -19.94733,19.94733 0,11.0171 8.93023,19.94857 19.94733,19.94857 11.017098,0 19.94857,-8.93147 19.94857,-19.94857 l 0,0 0,0 z"
       id="path7603" />
    <rect
       style="opacity:1;fill:#003eaf;fill-opacity:1;stroke:none;stroke-width:8.82299995;stroke-linecap:round;stroke-linejoin:round;stroke-miterlimit:4;stroke-dasharray:none;stroke-opacity:0"
       id="rect8439"
       width="116.13966"
       height="51.995319"
       x="-5.2782178"
       y="440.56409"
       ry="25.99766"
       rx="27.964125" />
    <g
       style="font-style:normal;font-weight:normal;font-size:40px;line-height:125%;font-family:sans-serif;text-align:center;letter-spacing:0px;word-spacing:0px;text-anchor:middle;fill:#000000;fill-opacity:1;stroke:none;stroke-width:1px;stroke-linecap:butt;stroke-linejoin:miter;stroke-opacity:1"
       id="text8453">
      <path
         d="m -114.10094,223.18207 q 8.52539,1.40625 10.45898,10.72265 l 0.26367,2.25586 -7.52929,0.58594 q -0.38086,-4.62891 -3.19336,-5.88867 -2.8125,-1.25977 -6.09375,0.61523 -2.19727,1.37696 -3.48633,3.16407 -1.28906,1.75781 -2.75391,6.91406 -1.8164,7.26562 -0.0879,12.89062 1.28906,4.10157 6.18164,3.33985 5.27344,-1.34766 6.65039,-6.15235 l 7.76368,0 q -1.08399,6.18164 -6.32813,10.25391 -2.66602,2.60742 -7.99805,3.48633 -0.70312,0.0293 -1.37695,0.0293 -6.5918,0 -10.22461,-5.18554 -2.95898,-4.80469 -2.95898,-11.2793 0,-2.8418 0.58593,-6.03516 1.64063,-9.52148 6.47461,-14.76562 2.49024,-2.8418 5.88868,-4.13086 2.66601,-0.9375 5.44921,-0.9375 l 0.32227,0 q 0.9668,0 1.99219,0.11719 z"
         style="font-style:italic;font-variant:normal;font-weight:500;font-stretch:normal;font-size:60px;font-family:'Caracteres L4';-inkscape-font-specification:'Caracteres L4 Medium Italic';letter-spacing:3.99999952px;fill:#ffffff"
         id="path8707" />
      <path
         d="m -74.856802,241.05316 q 1.083984,2.49024 1.083984,5.97656 0,1.61133 -0.234375,3.42774 -0.966797,6.70898 -4.160156,10.3125 -3.603516,4.10156 -7.998047,4.54101 -0.908203,0.0586 -1.494141,0.0586 -0.791015,0 -1.669922,-0.0879 -3.632812,-0.26367 -6.474609,-4.51172 -1.552734,-2.57813 -1.552734,-6.79688 0,-1.23047 0.146484,-2.60742 0.703125,-7.61719 5.185547,-12.04101 3.076172,-2.95899 5.888672,-3.28125 1.230468,-0.20508 2.402343,-0.20508 l 0.263672,0 q 5.683594,0 8.613282,5.21484 z m -12.158204,19.24805 q 2.34375,0.0879 3.867188,-2.16797 1.435547,-2.25586 2.34375,-6.50391 0.9375,-4.83398 -0.146484,-8.23242 -0.9375,-2.72461 -2.988282,-2.37305 -2.548828,-0.35156 -4.511718,2.98829 -1.464844,2.7832 -2.021485,6.32812 -0.498047,4.24805 -0.05859,6.50391 0.761719,4.01367 3.515625,3.45703 z"
         style="font-style:italic;font-variant:normal;font-weight:500;font-stretch:normal;font-size:60px;font-family:'Caracteres L4';-inkscape-font-specification:'Caracteres L4 Medium Italic';letter-spacing:3.99999952px;fill:#ffffff"
         id="path8709" />
      <path
         d="m -63.00524,235.95551 6.738281,0 -0.55664,4.89257 q 3.193359,-4.36523 6.416015,-5.00976 0.820313,-0.0879 1.523438,-0.0879 2.050781,0 3.046875,0.70312 2.695312,1.72852 2.8125,5.71289 4.863281,-5.94726 7.675781,-6.09375 0.820313,-0.23437 1.523438,-0.23437 2.050781,0 3.134765,0.70312 2.021485,1.34766 2.666016,3.51563 0.439453,1.69922 0.439453,3.7207 0,1.49414 -0.263672,3.16406 l -3.398437,18.07618 -7.207032,0 3.369141,-17.75391 q 0.556641,-2.98828 -0.46875,-4.6582 -2.402344,-1.46485 -5.214844,0.76171 -1.904297,1.81641 -2.988281,6.41602 l -2.548828,15.17578 -7.207031,0 3.36914,-17.7539 q 0.556641,-2.98829 -0.703125,-4.42383 -2.167969,-1.69922 -4.658203,0.52734 -1.904297,1.81641 -2.988281,6.41602 l -2.8125,15.23437 -6.796875,0 4.6875,-25.48828 0.410156,-3.51562 z"
         style="letter-spacing:4.98000002px;fill:#ffffff"
         id="path8711" />
      <path
         d="m -16.540869,235.95551 6.738281,0 -0.556641,4.89257 q 3.1933598,-4.36523 6.416016,-5.00976 0.8203125,-0.0879 1.5234375,-0.0879 2.05078126,0 3.04687501,0.70312 2.69531249,1.72852 2.81249999,5.71289 4.8632813,-5.94726 7.6757815,-6.09375 0.820312,-0.23437 1.523437,-0.23437 2.050782,0 3.134766,0.70312 2.021484,1.34766 2.666016,3.51563 0.439453,1.69922 0.439453,3.7207 0,1.49414 -0.263672,3.16406 l -3.398438,18.07618 -7.207031,0 3.369141,-17.75391 q 0.55664,-2.98828 -0.46875,-4.6582 -2.4023441,-1.46485 -5.2148441,0.76171 -1.9042969,1.81641 -2.9882813,6.41602 l -2.54882809,15.17578 -7.20703121,0 3.3691406,-17.7539 q 0.5566406,-2.98829 -0.703125,-4.42383 -2.1679688,-1.69922 -4.6582031,0.52734 -1.9042968,1.81641 -2.9882808,6.41602 l -2.8125,15.23437 -6.796875,0 4.6875,-25.48828 0.410156,-3.51562 z"
         style="letter-spacing:4.98000002px;fill:#ffffff"
         id="path8713" />
      <path
         d="m 45.421548,265.0473 -6.738281,0 0.556641,-4.89258 q -3.19336,4.36524 -6.416016,5.00977 -0.820312,0.0879 -1.523437,0.0879 -2.050782,0 -3.046875,-0.70312 -2.021485,-1.20118 -2.578125,-3.54493 -0.439454,-1.69922 -0.439454,-3.7207 0,-1.49414 0.263672,-3.16406 l 3.222657,-18.07617 7.207031,0 -3.369141,17.7539 q -0.55664,2.98828 0.703125,4.42383 2.167969,1.69922 4.658203,-0.52734 1.904297,-1.81641 2.988282,-6.41602 l 2.8125,-15.23437 6.796875,0 -4.6875,25.48828 -0.410157,3.51562 z"
         style="font-style:italic;font-variant:normal;font-weight:500;font-stretch:normal;font-size:60px;font-family:'Caracteres L4';-inkscape-font-specification:'Caracteres L4 Medium Italic';letter-spacing:3.99999952px;fill:#ffffff"
         id="path8715" />
      <path
         d="m 61.521158,235.95551 6.738281,0 -0.556641,4.89257 q 3.19336,-4.36523 6.416016,-5.00976 0.820312,-0.0879 1.523437,-0.0879 2.050782,0 3.046875,0.70312 2.021485,1.20117 2.578125,3.54492 0.439454,1.69922 0.439454,3.72071 0,1.49414 -0.263672,3.16406 l -3.222657,18.07617 -7.207031,0 3.369141,-17.7539 q 0.55664,-2.98829 -0.703125,-4.42383 -2.167969,-1.69922 -4.658203,0.52734 -1.904297,1.81641 -2.988282,6.41602 l -2.8125,15.23437 -6.796875,0 4.6875,-25.48828 0.410157,-3.51562 z"
         style="font-style:italic;font-variant:normal;font-weight:500;font-stretch:normal;font-size:60px;font-family:'Caracteres L4';-inkscape-font-specification:'Caracteres L4 Medium Italic';letter-spacing:3.99999952px;fill:#ffffff"
         id="path8717" />
      <path
         d="m 101.99577,235.57465 q 4.86328,0 6.94336,2.37304 2.22656,2.10938 2.40234,6.67969 0.0293,0.61523 0.0293,1.20117 -0.0586,3.48633 -0.79102,6.6211 l -15.26367,0 q -1.113282,5.39062 1.230468,7.14843 1.552735,0.9961 3.339844,-0.11718 1.992188,-1.52344 2.724608,-4.51172 l 7.4707,0 q -1.31835,5.39062 -5.65429,8.46679 -2.8125,1.66993 -5.947268,1.66993 -2.636719,0 -5.537109,-1.17188 -4.892578,-2.98828 -4.892578,-9.63867 0,-0.58594 0.0293,-1.20117 0.908204,-8.93555 4.628907,-13.38867 3.251953,-3.89649 9.287112,-4.13086 z m -5.683597,11.33789 8.320317,0 q 0.41015,-3.92578 -0.52735,-5.41993 -2.37304,-2.60742 -5.771482,0.35157 -1.669922,1.93359 -2.021485,5.06836 z"
         style="font-style:italic;font-variant:normal;font-weight:500;font-stretch:normal;font-size:60px;font-family:'Caracteres L4';-inkscape-font-specification:'Caracteres L4 Medium Italic';letter-spacing:3.99999952px;fill:#ffffff"
         id="path8719" />
      <path
         d="m 158.54069,265.28168 -6.65039,0 0.61523,-3.7793 q -1.61133,3.16406 -4.10156,3.95508 -1.28906,0.35156 -3.16406,0.46875 -2.8125,-0.38086 -3.7793,-1.875 -2.66601,-2.66602 -3.10547,-7.73438 -0.0879,-1.17187 -0.0879,-2.31445 0,-3.63281 1.23047,-7.5 1.46484,-4.21875 3.7207,-6.5625 3.31055,-3.80859 6.21094,-3.86719 5.30274,-0.49804 6.88477,4.39453 l 2.7539,-15.23437 6.94336,0 -7.4707,40.04883 z m -6.76758,-24.02344 q -3.54492,0.20508 -6.73828,10.48828 -0.17578,8.29102 3.07617,8.67188 5.53711,-0.87891 6.41602,-10.04883 1.43554,-8.75977 -2.75391,-9.11133 z"
         style="font-style:italic;font-variant:normal;font-weight:500;font-stretch:normal;font-size:60px;font-family:'Caracteres L4';-inkscape-font-specification:'Caracteres L4 Medium Italic';letter-spacing:3.99999952px;fill:#ffffff"
         id="path8721" />
      <path
         d="m 183.83952,235.57465 q 4.86328,0 6.94336,2.37304 2.22656,2.10938 2.40234,6.67969 0.0293,0.61523 0.0293,1.20117 -0.0586,3.48633 -0.79102,6.6211 l -15.26367,0 q -1.11328,5.39062 1.23047,7.14843 1.55273,0.9961 3.33984,-0.11718 1.99219,-1.52344 2.72461,-4.51172 l 7.4707,0 q -1.31835,5.39062 -5.65429,8.46679 -2.8125,1.66993 -5.94727,1.66993 -2.63672,0 -5.53711,-1.17188 -4.89258,-2.98828 -4.89258,-9.63867 0,-0.58594 0.0293,-1.20117 0.9082,-8.93555 4.62891,-13.38867 3.25195,-3.89649 9.28711,-4.13086 z m -5.6836,11.33789 8.32032,0 q 0.41015,-3.92578 -0.52735,-5.41993 -2.37304,-2.60742 -5.77148,0.35157 -1.66992,1.93359 -2.02149,5.06836 z"
         style="font-style:italic;font-variant:normal;font-weight:500;font-stretch:normal;font-size:60px;font-family:'Caracteres L4';-inkscape-font-specification:'Caracteres L4 Medium Italic';letter-spacing:3.99999952px;fill:#ffffff"
         id="path8723" />
      <path
         d="m -213.69057,295.34312 11.35254,0 12.56103,36.87744 12.63428,-36.87744 11.24268,0 0,59.43603 -8.56934,0 0,-39.84375 -14.24561,39.84375 -2.19726,0 -14.17236,-39.14795 0,39.14795 -8.60596,0 0,-59.43603 z"
         style="font-style:normal;font-variant:normal;font-weight:500;font-stretch:normal;font-size:75px;font-family:'Caracteres L2';-inkscape-font-specification:'Caracteres L2 Medium';letter-spacing:11.84999943px;fill:#ffffff"
         id="path8725" />
      <path
         d="m -127.68286,295.12339 q 9.66797,1.3916 13.73291,11.24268 2.34375,6.92138 2.34375,17.50488 l 0,1.42822 q 0.0366,1.17188 0.0366,2.30713 0,14.68506 -5.41992,20.87402 -4.72412,6.48194 -13.22021,6.77491 -0.87891,0.10986 -1.72119,0.10986 -6.77491,-0.36621 -12.01172,-6.7749 -5.45655,-6.29883 -5.45655,-21.67969 0,-1.02539 0.0366,-2.16065 l 0,-0.54931 q 0,-0.58594 0.0366,-1.09863 0.36621,-14.79493 4.94384,-20.61768 3.55225,-4.98047 7.69043,-6.51855 2.63672,-0.98877 5.60303,-0.98877 l 0.65918,0 q 1.3916,0 2.74658,0.14648 z m -3.03955,51.70898 q 5.78613,-0.0732 8.34961,-7.17773 1.83106,-4.13818 1.86768,-15.19775 0.6958,-8.45948 -2.27051,-15.38086 -2.01416,-5.3833 -7.76367,-5.52979 -5.41993,-0.0366 -8.12989,6.33545 -1.31836,4.98047 -1.64795,14.39209 -0.14648,11.16943 2.16065,16.73584 2.34375,5.56641 7.43408,5.82275 z"
         style="font-style:normal;font-variant:normal;font-weight:500;font-stretch:normal;font-size:75px;font-family:'Caracteres L2';-inkscape-font-specification:'Caracteres L2 Medium';letter-spacing:11.84999943px;fill:#ffffff"
         id="path8727" />
      <path
         d="m -84.485203,295.34312 15.307617,38.52539 0,-38.52539 8.349609,0 0,59.43603 -9.008789,0 -16.003418,-39.91699 0,39.95361 -8.569336,0 0,-59.47265 9.924317,0 z"
         style="font-style:normal;font-variant:normal;font-weight:500;font-stretch:normal;font-size:75px;font-family:'Caracteres L2';-inkscape-font-specification:'Caracteres L2 Medium';letter-spacing:11.84999943px;fill:#ffffff"
         id="path8729" />
      <path
         d="m -13.052678,295.34312 0,8.60595 -11.096191,0 0,50.83008 -8.898926,0 0,-50.97656 -11.352539,0 0,-8.45947 31.347656,0 z"
         style="font-style:normal;font-variant:normal;font-weight:500;font-stretch:normal;font-size:75px;font-family:'Caracteres L2';-inkscape-font-specification:'Caracteres L2 Medium';letter-spacing:11.84999943px;fill:#ffffff"
         id="path8731" />
      <path
         d="m 21.46577,295.37974 13.586426,59.28955 -9.448242,0 -2.453613,-10.62012 -16.3696293,0 -2.6733399,10.62012 -9.5947266,0 13.7329102,-59.21631 13.2202146,-0.0732 z m -13.4033201,39.51416 13.4399411,0 -6.774902,-29.91944 -6.6650391,29.91944 z"
         style="font-style:normal;font-variant:normal;font-weight:500;font-stretch:normal;font-size:75px;font-family:'Caracteres L2';-inkscape-font-specification:'Caracteres L2 Medium';letter-spacing:11.84999943px;fill:#ffffff"
         id="path8733" />
      <path
         d="m 58.987163,295.34312 0.03662,50.72021 19.006348,0 -0.03662,8.71582 -27.575684,0 0,-59.43603 8.569336,0 z"
         style="font-style:normal;font-variant:normal;font-weight:500;font-stretch:normal;font-size:75px;font-family:'Caracteres L2';-inkscape-font-specification:'Caracteres L2 Medium';letter-spacing:11.84999943px;fill:#ffffff"
         id="path8735" />
      <path
         d="m 103.39332,295.41636 0,59.36279 -8.312987,0 0,-59.36279 8.312987,0 z"
         style="font-style:normal;font-variant:normal;font-weight:500;font-stretch:normal;font-size:75px;font-family:'Caracteres L2';-inkscape-font-specification:'Caracteres L2 Medium';letter-spacing:11.84999943px;fill:#ffffff"
         id="path8737" />
      <path
         d="m 129.19593,295.34312 11.02295,47.16797 10.32715,-47.16797 9.52149,0 -13.29346,59.39941 -13.14697,0.0732 -13.54981,-59.47265 9.11865,0 z"
         style="font-style:normal;font-variant:normal;font-weight:500;font-stretch:normal;font-size:75px;font-family:'Caracteres L2';-inkscape-font-specification:'Caracteres L2 Medium';letter-spacing:11.84999943px;fill:#ffffff"
         id="path8739" />
      <path
         d="m 205.09623,295.37974 0,8.42285 -20.61767,0 0,16.04004 13.73291,0 0,8.93555 -13.73291,0 0,16.69921 21.67968,0 0,9.30176 -30.43212,0 0.0366,-59.39941 29.33349,0 z"
         style="font-style:normal;font-variant:normal;font-weight:500;font-stretch:normal;font-size:75px;font-family:'Caracteres L2';-inkscape-font-specification:'Caracteres L2 Medium';letter-spacing:11.84999943px;fill:#ffffff"
         id="path8741" />
      <path
         d="m 253.01802,295.34312 0,8.60595 -11.0962,0 0,50.83008 -8.89892,0 0,-50.97656 -11.35254,0 0,-8.45947 31.34766,0 z"
         style="font-style:normal;font-variant:normal;font-weight:500;font-stretch:normal;font-size:75px;font-family:'Caracteres L2';-inkscape-font-specification:'Caracteres L2 Medium';letter-spacing:11.84999943px;fill:#ffffff"
         id="path8743" />
      <path
         d="m -297.05673,706.08246 7.20703,0 q -0.23437,3.45703 1.49415,5.39062 2.13867,1.55274 4.45312,1.49414 2.75391,0.11719 4.74609,-1.20117 1.72852,-1.02539 1.9043,-4.07226 -0.0293,-2.54883 -3.19336,-4.42383 -4.48242,-2.63672 -6.85547,-4.48242 -1.8164,-1.37696 -3.16406,-2.95899 -2.19727,-3.19336 -1.46484,-7.11914 0.9082,-5.12695 3.89648,-7.5293 2.72461,-2.43164 6.35742,-3.28125 2.43164,-0.38085 4.33594,-0.38085 2.19727,0 3.69141,0.52734 3.54492,0.9668 5.15625,2.95898 2.51953,3.04688 2.69531,7.76368 0,0.41015 -0.0293,0.82031 l 0,0.84961 -7.41211,0 q -0.0586,-3.98438 -2.22656,-5.39063 -4.27734,-1.875 -7.91016,1.37696 -1.75781,2.10937 -1.02539,4.57031 0.38086,0.99609 1.52344,1.78711 3.57422,2.37304 6.41602,4.18945 2.95898,1.875 4.30664,3.28125 2.72461,2.7832 2.87109,6.21094 0.0293,1.69922 -0.73242,4.24804 -1.17188,3.36915 -4.21875,5.88868 -3.31055,2.72461 -6.62109,3.28125 -1.75782,0.17578 -3.31055,0.17578 -2.8418,0 -5.06836,-0.61524 -3.69141,-1.58203 -5.30274,-3.39843 -2.51953,-2.95899 -2.51953,-8.32032 l 0,-1.64062 z"
         style="font-style:italic;font-variant:normal;font-weight:500;font-stretch:normal;font-size:60px;font-family:'Caracteres L4';-inkscape-font-specification:'Caracteres L4 Medium Italic';letter-spacing:0.74000001px;fill:#ffffff"
         id="path8745" />
      <path
         d="m -257.11751,685.57465 7.14844,-2.60743 -1.23047,7.70508 5.09766,0 -1.14258,5.18555 -5.00976,0 -2.66602,15 q -0.49805,3.04687 0.87891,3.04687 2.19726,0.20508 4.07226,-0.8789 -0.11719,1.8164 -0.26367,3.16406 -0.14648,1.34766 -0.38086,2.60742 -1.81641,1.17188 -4.74609,1.17188 -6.21094,-0.35157 -6.5625,-5.6836 0.0293,-2.87109 0.41015,-5.03906 l 2.34375,-13.44726 -4.16015,0 1.08398,-5.12696 4.18945,0 0.9375,-5.09765 z"
         style="font-style:italic;font-variant:normal;font-weight:500;font-stretch:normal;font-size:60px;font-family:'Caracteres L4';-inkscape-font-specification:'Caracteres L4 Medium Italic';letter-spacing:0.74000001px;fill:#ffffff"
         id="path8747" />
      <path
         d="m -234.40485,699.93011 -6.47461,-0.17578 q 0.17578,-4.16015 4.42383,-7.03125 3.80859,-2.13867 7.67578,-2.13867 l 0.32226,0 q 4.95118,0.38086 7.14844,3.54492 0.9082,1.58203 0.9082,3.75 0,0.29297 -0.0293,0.61524 0,1.90429 -0.49805,4.16015 l -3.01758,17.02149 -6.97265,0 0.73242,-3.42774 q -2.40235,3.7793 -6.67969,3.8086 -6.79687,-0.0879 -7.20703,-7.44141 0.26367,-6.73828 6.09375,-9.3164 3.83789,-1.55274 10.3125,-1.58204 l 0.35156,-2.43164 q 0.32227,-3.31054 -2.7832,-3.51562 -3.04688,0.0293 -4.30664,4.16015 z m 5.85937,6.6504 -2.28515,-0.0293 q -7.03125,1.02539 -6.97266,6.06445 0.52734,2.7832 2.92969,2.72461 4.6289,-0.76172 6.32812,-8.75976 z"
         style="font-style:italic;font-variant:normal;font-weight:500;font-stretch:normal;font-size:60px;font-family:'Caracteres L4';-inkscape-font-specification:'Caracteres L4 Medium Italic';letter-spacing:0.74000001px;fill:#ffffff"
         id="path8749" />
      <path
         d="m -211.22344,685.57465 7.14843,-2.60743 -1.23047,7.70508 5.09766,0 -1.14258,5.18555 -5.00976,0 -2.66602,15 q -0.49805,3.04687 0.87891,3.04687 2.19726,0.20508 4.07226,-0.8789 -0.11718,1.8164 -0.26367,3.16406 -0.14648,1.34766 -0.38086,2.60742 -1.8164,1.17188 -4.74609,1.17188 -6.21094,-0.35157 -6.5625,-5.6836 0.0293,-2.87109 0.41015,-5.03906 l 2.34375,-13.44726 -4.16015,0 1.08398,-5.12696 4.18946,0 0.9375,-5.09765 z"
         style="font-style:italic;font-variant:normal;font-weight:500;font-stretch:normal;font-size:60px;font-family:'Caracteres L4';-inkscape-font-specification:'Caracteres L4 Medium Italic';letter-spacing:0.74000001px;fill:#ffffff"
         id="path8751" />
      <path
         d="m -192.29009,690.96527 7.06055,0 -5.6543,28.74024 -7.17773,0 5.77148,-28.74024 z m 2.13868,-11.04492 6.79687,0 -1.14258,6.5918 -6.79687,0 1.14258,-6.5918 z"
         style="font-style:italic;font-variant:normal;font-weight:500;font-stretch:normal;font-size:60px;font-family:'Caracteres L4';-inkscape-font-specification:'Caracteres L4 Medium Italic';letter-spacing:0.74000001px;fill:#ffffff"
         id="path8753" />
      <path
         d="m -159.79228,695.74066 q 1.08399,2.49024 1.08399,5.97656 0,1.61133 -0.23438,3.42774 -0.96679,6.70898 -4.16015,10.3125 -3.60352,4.10156 -7.99805,4.54101 -0.9082,0.0586 -1.49414,0.0586 -0.79102,0 -1.66992,-0.0879 -3.63282,-0.26367 -6.47461,-4.51172 -1.55274,-2.57813 -1.55274,-6.79688 0,-1.23047 0.14649,-2.60742 0.70312,-7.61719 5.18554,-12.04101 3.07618,-2.95899 5.88868,-3.28125 1.23047,-0.20508 2.40234,-0.20508 l 0.26367,0 q 5.6836,0 8.61328,5.21484 z m -12.1582,19.24805 q 2.34375,0.0879 3.86719,-2.16797 1.43554,-2.25586 2.34375,-6.50391 0.9375,-4.83398 -0.14649,-8.23242 -0.9375,-2.72461 -2.98828,-2.37305 -2.54883,-0.35156 -4.51172,2.98829 -1.46484,2.7832 -2.02148,6.32812 -0.49805,4.24805 -0.0586,6.50391 0.76171,4.01367 3.51562,3.45703 z"
         style="font-style:italic;font-variant:normal;font-weight:500;font-stretch:normal;font-size:60px;font-family:'Caracteres L4';-inkscape-font-specification:'Caracteres L4 Medium Italic';letter-spacing:0.74000001px;fill:#ffffff"
         id="path8755" />
      <path
         d="m -150.79055,690.64301 6.73828,0 -0.55664,4.89257 q 3.19336,-4.36523 6.41601,-5.00976 0.82032,-0.0879 1.52344,-0.0879 2.05078,0 3.04688,0.70312 2.02148,1.20117 2.57812,3.54492 0.43945,1.69922 0.43945,3.72071 0,1.49414 -0.26367,3.16406 l -3.22265,18.07617 -7.20703,0 3.36914,-17.7539 q 0.55664,-2.98829 -0.70313,-4.42383 -2.16797,-1.69922 -4.6582,0.52734 -1.9043,1.81641 -2.98828,6.41602 l -2.8125,15.23437 -6.79688,0 4.6875,-25.48828 0.41016,-3.51562 z"
         style="font-style:italic;font-variant:normal;font-weight:500;font-stretch:normal;font-size:60px;font-family:'Caracteres L4';-inkscape-font-specification:'Caracteres L4 Medium Italic';letter-spacing:0.74000001px;fill:#ffffff"
         id="path8757" />
      <path
         d="m -122.62869,690.64301 6.73828,0 -0.55664,4.89257 q 3.19336,-4.36523 6.41602,-5.00976 0.82031,-0.0879 1.52344,-0.0879 2.05078,0 3.04687,0.70312 2.02149,1.20117 2.57813,3.54492 0.43945,1.69922 0.43945,3.72071 0,1.49414 -0.26367,3.16406 l -3.22266,18.07617 -7.20703,0 3.36914,-17.7539 q 0.55664,-2.98829 -0.70312,-4.42383 -2.16797,-1.69922 -4.65821,0.52734 -1.90429,1.81641 -2.98828,6.41602 l -2.8125,15.23437 -6.79687,0 4.6875,-25.48828 0.41015,-3.51562 z"
         style="font-style:italic;font-variant:normal;font-weight:500;font-stretch:normal;font-size:60px;font-family:'Caracteres L4';-inkscape-font-specification:'Caracteres L4 Medium Italic';letter-spacing:0.74000001px;fill:#ffffff"
         id="path8759" />
      <path
         d="m -85.414072,690.26215 q 4.863281,0 6.943359,2.37304 2.226563,2.10938 2.402344,6.67969 0.0293,0.61523 0.0293,1.20117 -0.05859,3.48633 -0.791016,6.6211 l -15.263671,0 q -1.113282,5.39062 1.230468,7.14843 1.552735,0.9961 3.339844,-0.11718 1.992188,-1.52344 2.724609,-4.51172 l 7.470704,0 q -1.31836,5.39062 -5.654297,8.46679 -2.8125,1.66993 -5.947266,1.66993 -2.636719,0 -5.537109,-1.17188 -4.892578,-2.98828 -4.892578,-9.63867 0,-0.58594 0.0293,-1.20117 0.908204,-8.93555 4.628907,-13.38867 3.251953,-3.89649 9.287109,-4.13086 z m -5.683594,11.33789 8.320313,0 q 0.410156,-3.92578 -0.527344,-5.41993 -2.373047,-2.60742 -5.771484,0.35157 -1.669922,1.93359 -2.021485,5.06836 z"
         style="font-style:italic;font-variant:normal;font-weight:500;font-stretch:normal;font-size:60px;font-family:'Caracteres L4';-inkscape-font-specification:'Caracteres L4 Medium Italic';letter-spacing:0.74000001px;fill:#ffffff"
         id="path8761" />
      <path
         d="m -68.355707,690.64301 6.738281,0 -0.55664,4.89257 q 3.193359,-4.36523 6.416015,-5.00976 0.820313,-0.0879 1.523438,-0.0879 2.050781,0 3.046875,0.70312 2.695312,1.72852 2.8125,5.71289 4.863281,-5.94726 7.675781,-6.09375 0.820312,-0.23437 1.523437,-0.23437 2.050782,0 3.134766,0.70312 2.021484,1.34766 2.666016,3.51563 0.439453,1.69922 0.439453,3.7207 0,1.49414 -0.263672,3.16406 l -3.398438,18.07618 -7.207031,0 3.369141,-17.75391 q 0.55664,-2.98828 -0.46875,-4.6582 -2.402344,-1.46485 -5.214844,0.76171 -1.904297,1.81641 -2.988281,6.41602 l -2.548828,15.17578 -7.207032,0 3.369141,-17.7539 q 0.556641,-2.98829 -0.703125,-4.42383 -2.167969,-1.69922 -4.658203,0.52734 -1.904297,1.81641 -2.988281,6.41602 l -2.8125,15.23437 -6.796875,0 4.6875,-25.48828 0.410156,-3.51562 z"
         style="font-style:italic;font-variant:normal;font-weight:500;font-stretch:normal;font-size:60px;font-family:'Caracteres L4';-inkscape-font-specification:'Caracteres L4 Medium Italic';letter-spacing:0.74000001px;fill:#ffffff"
         id="path8763" />
      <path
         d="m -16.668451,690.26215 q 4.863281,0 6.9433592,2.37304 2.2265625,2.10938 2.4023437,6.67969 0.029297,0.61523 0.029297,1.20117 -0.058594,3.48633 -0.7910156,6.6211 l -15.2636722,0 q -1.113281,5.39062 1.230469,7.14843 1.552734,0.9961 3.339844,-0.11718 1.992187,-1.52344 2.724609,-4.51172 l 7.4707033,0 q -1.3183594,5.39062 -5.6542973,8.46679 -2.8125,1.66993 -5.947265,1.66993 -2.636719,0 -5.53711,-1.17188 -4.892578,-2.98828 -4.892578,-9.63867 0,-0.58594 0.0293,-1.20117 0.908203,-8.93555 4.628906,-13.38867 3.251954,-3.89649 9.28711,-4.13086 z m -5.683594,11.33789 8.320313,0 q 0.410156,-3.92578 -0.527344,-5.41993 -2.373047,-2.60742 -5.771485,0.35157 -1.669921,1.93359 -2.021484,5.06836 z"
         style="font-style:italic;font-variant:normal;font-weight:500;font-stretch:normal;font-size:60px;font-family:'Caracteres L4';-inkscape-font-specification:'Caracteres L4 Medium Italic';letter-spacing:0.74000001px;fill:#ffffff"
         id="path8765" />
      <path
         d="m 0.80008519,690.64301 6.73828121,0 -0.5566406,4.89257 q 3.1933592,-4.36523 6.4160152,-5.00976 0.820313,-0.0879 1.523438,-0.0879 2.050781,0 3.046875,0.70312 2.021484,1.20117 2.578125,3.54492 0.439453,1.69922 0.439453,3.72071 0,1.49414 -0.263672,3.16406 l -3.222656,18.07617 -7.207031,0 3.36914,-17.7539 q 0.556641,-2.98829 -0.703125,-4.42383 -2.167968,-1.69922 -4.6582028,0.52734 -1.9042969,1.81641 -2.9882813,6.41602 l -2.8125,15.23437 -6.796875,0 4.68750004,-25.48828 0.41015625,-3.51562 z"
         style="font-style:italic;font-variant:normal;font-weight:500;font-stretch:normal;font-size:60px;font-family:'Caracteres L4';-inkscape-font-specification:'Caracteres L4 Medium Italic';letter-spacing:0.74000001px;fill:#ffffff"
         id="path8767" />
      <path
         d="m 30.28031,685.57465 7.148437,-2.60743 -1.230468,7.70508 5.097656,0 -1.142578,5.18555 -5.009766,0 -2.666016,15 q -0.498046,3.04687 0.878907,3.04687 2.197265,0.20508 4.072265,-0.8789 -0.117187,1.8164 -0.263672,3.16406 -0.146484,1.34766 -0.380859,2.60742 -1.816406,1.17188 -4.746094,1.17188 -6.210937,-0.35157 -6.5625,-5.6836 0.0293,-2.87109 0.410157,-5.03906 l 2.34375,-13.44726 -4.160157,0 1.083985,-5.12696 4.189453,0 0.9375,-5.09765 z"
         style="font-style:italic;font-variant:normal;font-weight:500;font-stretch:normal;font-size:60px;font-family:'Caracteres L4';-inkscape-font-specification:'Caracteres L4 Medium Italic';letter-spacing:0.74000001px;fill:#ffffff"
         id="path8769" />
      <path
         d="m 68.79154,677.89886 14.208985,0 q 5.24414,0 7.734375,2.46094 2.548828,2.54883 2.548828,6.65039 l 0,0.49805 q -0.322266,4.18945 -2.373047,7.03125 -2.373047,3.33984 -5.976563,4.51172 l 1.171875,0.58594 q 2.050782,0.76171 2.285157,3.80859 0.351562,3.36914 0.175781,7.44141 -0.175781,4.07226 0.439453,8.75976 l -7.529297,0 q -0.439453,-6.09375 -0.292969,-9.25781 0.175782,-3.16406 0.05859,-5.27344 -0.439453,-1.8164 -2.695312,-2.16797 l -7.03125,-0.0586 -3.134766,16.81641 -7.646484,0 8.05664,-41.80665 z m 12.480469,6.24024 -5.947266,0 -2.43164,11.83594 4.951172,0 q 5.24414,-0.46875 6.708984,-3.39844 2.34375,-3.89649 0.673828,-6.82617 -1.259765,-1.81641 -3.955078,-1.61133 z"
         style="font-style:italic;font-variant:normal;font-weight:500;font-stretch:normal;font-size:60px;font-family:'Caracteres L4';-inkscape-font-specification:'Caracteres L4 Medium Italic';letter-spacing:0.74000001px;fill:#ffffff"
         id="path8771" />
      <path
         d="m 111.86555,679.36371 7.14843,-0.0293 -7.99804,9.31641 -4.42383,0 5.27344,-9.28711 z M 110.43,690.26215 q 4.86328,0 6.94336,2.37304 2.22656,2.10938 2.40234,6.67969 0.0293,0.61523 0.0293,1.20117 -0.0586,3.48633 -0.79102,6.6211 l -15.26367,0 q -1.11328,5.39062 1.23047,7.14843 1.55273,0.9961 3.33984,-0.11718 1.99219,-1.52344 2.72461,-4.51172 l 7.47071,0 q -1.31836,5.39062 -5.6543,8.46679 -2.8125,1.66993 -5.94727,1.66993 -2.63672,0 -5.53711,-1.17188 -4.892574,-2.98828 -4.892574,-9.63867 0,-0.58594 0.0293,-1.20117 0.908203,-8.93555 4.628907,-13.38867 3.25195,-3.89649 9.28711,-4.13086 z m -5.6836,11.33789 8.32032,0 q 0.41015,-3.92578 -0.52735,-5.41993 -2.37304,-2.60742 -5.77148,0.35157 -1.66992,1.93359 -2.02149,5.06836 z"
         style="font-style:italic;font-variant:normal;font-weight:500;font-stretch:normal;font-size:60px;font-family:'Caracteres L4';-inkscape-font-specification:'Caracteres L4 Medium Italic';letter-spacing:0.74000001px;fill:#ffffff"
         id="path8773" />
      <path
         d="m 141.49225,694.56879 0.64454,-3.57422 6.88476,0 -5.21484,28.50586 q -1.58203,7.61718 -4.92188,10.45898 -2.84179,2.69531 -7.4707,2.92969 -0.99609,0.0293 -1.43555,0.0293 l -0.32226,0 q -3.8086,0 -6.12305,-2.37305 -1.9043,-2.37305 -2.19727,-7.14844 l 0.14649,-1.43555 6.73828,0.0293 q -0.11719,3.51563 1.31836,4.77539 2.31445,1.20117 4.83398,-0.61523 2.25586,-2.13867 2.78321,-9.78516 -1.64063,3.01758 -6.00586,3.42774 -4.95117,-0.41016 -7.03125,-5.94727 -1.31836,-5.03906 -0.26367,-10.89844 1.93359,-8.34961 6.67968,-11.51367 1.72852,-1.25976 4.04297,-1.25976 0.49805,0 1.02539,0.0586 1.08399,0 1.9043,0.35156 2.43164,0.9375 3.98437,3.98438 z m -5.44921,0.84961 q -4.59961,0.61523 -5.77149,11.25 -0.82031,7.35351 3.51563,7.23632 4.6875,-0.29296 5.88867,-10.45898 0.61523,-7.55859 -3.63281,-8.02734 z"
         style="font-style:italic;font-variant:normal;font-weight:500;font-stretch:normal;font-size:60px;font-family:'Caracteres L4';-inkscape-font-specification:'Caracteres L4 Medium Italic';letter-spacing:0.74000001px;fill:#ffffff"
         id="path8775" />
      <path
         d="m 166.54865,678.89496 -7.73437,40.72265 -6.91407,0 7.82227,-40.72265 6.82617,0 z"
         style="font-style:italic;font-variant:normal;font-weight:500;font-stretch:normal;font-size:60px;font-family:'Caracteres L4';-inkscape-font-specification:'Caracteres L4 Medium Italic';letter-spacing:0.74000001px;fill:#ffffff"
         id="path8777" />
      <path
         d="m 181.90781,690.26215 q 4.86328,0 6.94336,2.37304 2.22656,2.10938 2.40235,6.67969 0.0293,0.61523 0.0293,1.20117 -0.0586,3.48633 -0.79101,6.6211 l -15.26368,0 q -1.11328,5.39062 1.23047,7.14843 1.55274,0.9961 3.33985,-0.11718 1.99218,-1.52344 2.72461,-4.51172 l 7.4707,0 q -1.31836,5.39062 -5.6543,8.46679 -2.8125,1.66993 -5.94726,1.66993 -2.63672,0 -5.53711,-1.17188 -4.89258,-2.98828 -4.89258,-9.63867 0,-0.58594 0.0293,-1.20117 0.9082,-8.93555 4.6289,-13.38867 3.25196,-3.89649 9.28711,-4.13086 z m -5.68359,11.33789 8.32031,0 q 0.41016,-3.92578 -0.52734,-5.41993 -2.37305,-2.60742 -5.77149,0.35157 -1.66992,1.93359 -2.02148,5.06836 z"
         style="font-style:italic;font-variant:normal;font-weight:500;font-stretch:normal;font-size:60px;font-family:'Caracteres L4';-inkscape-font-specification:'Caracteres L4 Medium Italic';letter-spacing:0.74000001px;fill:#ffffff"
         id="path8779" />
      <path
         d="m 198.96616,690.64301 6.73828,0 -0.55664,4.89257 q 3.19336,-4.36523 6.41602,-5.00976 0.82031,-0.0879 1.52344,-0.0879 2.05078,0 3.04687,0.70312 2.69531,1.72852 2.8125,5.71289 4.86328,-5.94726 7.67578,-6.09375 0.82031,-0.23437 1.52344,-0.23437 2.05078,0 3.13476,0.70312 2.02149,1.34766 2.66602,3.51563 0.43945,1.69922 0.43945,3.7207 0,1.49414 -0.26367,3.16406 l -3.39844,18.07618 -7.20703,0 3.36914,-17.75391 q 0.55664,-2.98828 -0.46875,-4.6582 -2.40234,-1.46485 -5.21484,0.76171 -1.9043,1.81641 -2.98828,6.41602 l -2.54883,15.17578 -7.20703,0 3.36914,-17.7539 q 0.55664,-2.98829 -0.70313,-4.42383 -2.16796,-1.69922 -4.6582,0.52734 -1.9043,1.81641 -2.98828,6.41602 l -2.8125,15.23437 -6.79687,0 4.6875,-25.48828 0.41015,-3.51562 z"
         style="font-style:italic;font-variant:normal;font-weight:500;font-stretch:normal;font-size:60px;font-family:'Caracteres L4';-inkscape-font-specification:'Caracteres L4 Medium Italic';letter-spacing:0.74000001px;fill:#ffffff"
         id="path8781" />
      <path
         d="m 250.65342,690.26215 q 4.86328,0 6.94336,2.37304 2.22656,2.10938 2.40234,6.67969 0.0293,0.61523 0.0293,1.20117 -0.0586,3.48633 -0.79102,6.6211 l -15.26367,0 q -1.11328,5.39062 1.23047,7.14843 1.55273,0.9961 3.33984,-0.11718 1.99219,-1.52344 2.72461,-4.51172 l 7.47071,0 q -1.31836,5.39062 -5.6543,8.46679 -2.8125,1.66993 -5.94727,1.66993 -2.63672,0 -5.53711,-1.17188 -4.89257,-2.98828 -4.89257,-9.63867 0,-0.58594 0.0293,-1.20117 0.90821,-8.93555 4.62891,-13.38867 3.25195,-3.89649 9.28711,-4.13086 z m -5.6836,11.33789 8.32032,0 q 0.41015,-3.92578 -0.52735,-5.41993 -2.37304,-2.60742 -5.77148,0.35157 -1.66992,1.93359 -2.02149,5.06836 z"
         style="font-style:italic;font-variant:normal;font-weight:500;font-stretch:normal;font-size:60px;font-family:'Caracteres L4';-inkscape-font-specification:'Caracteres L4 Medium Italic';letter-spacing:0.74000001px;fill:#ffffff"
         id="path8783" />
      <path
         d="m 268.12192,690.64301 6.73828,0 -0.55664,4.89257 q 3.19336,-4.36523 6.41602,-5.00976 0.82031,-0.0879 1.52344,-0.0879 2.05078,0 3.04687,0.70312 2.02149,1.20117 2.57813,3.54492 0.43945,1.69922 0.43945,3.72071 0,1.49414 -0.26367,3.16406 l -3.22266,18.07617 -7.20703,0 3.36914,-17.7539 q 0.55664,-2.98829 -0.70312,-4.42383 -2.16797,-1.69922 -4.65821,0.52734 -1.90429,1.81641 -2.98828,6.41602 l -2.8125,15.23437 -6.79687,0 4.6875,-25.48828 0.41015,-3.51562 z"
         style="font-style:italic;font-variant:normal;font-weight:500;font-stretch:normal;font-size:60px;font-family:'Caracteres L4';-inkscape-font-specification:'Caracteres L4 Medium Italic';letter-spacing:0.74000001px;fill:#ffffff"
         id="path8785" />
      <path
         d="m 297.60221,685.57465 7.14844,-2.60743 -1.23047,7.70508 5.09765,0 -1.14257,5.18555 -5.00977,0 -2.66602,15 q -0.49804,3.04687 0.87891,3.04687 2.19727,0.20508 4.07227,-0.8789 -0.11719,1.8164 -0.26368,3.16406 -0.14648,1.34766 -0.38085,2.60742 -1.81641,1.17188 -4.7461,1.17188 -6.21094,-0.35157 -6.5625,-5.6836 0.0293,-2.87109 0.41016,-5.03906 l 2.34375,-13.44726 -4.16016,0 1.08399,-5.12696 4.18945,0 0.9375,-5.09765 z"
         style="font-style:italic;font-variant:normal;font-weight:500;font-stretch:normal;font-size:60px;font-family:'Caracteres L4';-inkscape-font-specification:'Caracteres L4 Medium Italic';letter-spacing:0.74000001px;fill:#ffffff"
         id="path8787" />
      <path
         d="m 326.4965,679.36371 7.14843,-0.0293 -7.99804,9.31641 -4.42383,0 5.27344,-9.28711 z m -1.43555,10.89844 q 4.86328,0 6.94336,2.37304 2.22656,2.10938 2.40234,6.67969 0.0293,0.61523 0.0293,1.20117 -0.0586,3.48633 -0.79102,6.6211 l -15.26367,0 q -1.11328,5.39062 1.23047,7.14843 1.55274,0.9961 3.33984,-0.11718 1.99219,-1.52344 2.72461,-4.51172 l 7.47071,0 q -1.31836,5.39062 -5.6543,8.46679 -2.8125,1.66993 -5.94727,1.66993 -2.63671,0 -5.5371,-1.17188 -4.89258,-2.98828 -4.89258,-9.63867 0,-0.58594 0.0293,-1.20117 0.90821,-8.93555 4.62891,-13.38867 3.25195,-3.89649 9.28711,-4.13086 z m -5.68359,11.33789 8.32031,0 q 0.41015,-3.92578 -0.52735,-5.41993 -2.37304,-2.60742 -5.77148,0.35157 -1.66992,1.93359 -2.02148,5.06836 z"
         style="font-style:italic;font-variant:normal;font-weight:500;font-stretch:normal;font-size:60px;font-family:'Caracteres L4';-inkscape-font-specification:'Caracteres L4 Medium Italic';letter-spacing:0.74000001px;fill:#ffffff"
         id="path8789" />
      <path
         d="m -237.43001,781.08246 7.20703,0 q -0.23437,3.45703 1.49414,5.39062 2.13868,1.55274 4.45313,1.49414 2.75391,0.11719 4.74609,-1.20117 1.72852,-1.02539 1.9043,-4.07226 -0.0293,-2.54883 -3.19336,-4.42383 -4.48242,-2.63672 -6.85547,-4.48242 -1.8164,-1.37696 -3.16406,-2.95899 -2.19727,-3.19336 -1.46484,-7.11914 0.9082,-5.12695 3.89648,-7.5293 2.72461,-2.43164 6.35742,-3.28125 2.43164,-0.38085 4.33594,-0.38085 2.19726,0 3.69141,0.52734 3.54492,0.9668 5.15625,2.95898 2.51953,3.04688 2.69531,7.76368 0,0.41015 -0.0293,0.82031 l 0,0.84961 -7.41211,0 q -0.0586,-3.98438 -2.22656,-5.39063 -4.27734,-1.875 -7.91016,1.37696 -1.75781,2.10937 -1.02539,4.57031 0.38086,0.99609 1.52344,1.78711 3.57422,2.37304 6.41602,4.18945 2.95898,1.875 4.30664,3.28125 2.72461,2.7832 2.87109,6.21094 0.0293,1.69922 -0.73242,4.24804 -1.17188,3.36915 -4.21875,5.88868 -3.31055,2.72461 -6.6211,3.28125 -1.75781,0.17578 -3.31054,0.17578 -2.8418,0 -5.06836,-0.61524 -3.69141,-1.58203 -5.30274,-3.39843 -2.51953,-2.95899 -2.51953,-8.32032 l 0,-1.64062 z"
         style="font-style:italic;font-variant:normal;font-weight:500;font-stretch:normal;font-size:60px;font-family:'Caracteres L4';-inkscape-font-specification:'Caracteres L4 Medium Italic';letter-spacing:0.74000001px;fill:#ffffff"
         id="path8791" />
      <path
         d="m -199.74665,753.19183 7.11914,0 -6.21093,10.72266 -4.45313,0 3.54492,-10.72266 z"
         style="font-style:italic;font-variant:normal;font-weight:500;font-stretch:normal;font-size:60px;font-family:'Caracteres L4';-inkscape-font-specification:'Caracteres L4 Medium Italic';letter-spacing:0.74000001px;fill:#ffffff"
         id="path8793" />
      <path
         d="m -183.97735,774.93011 -6.47461,-0.17578 q 0.17578,-4.16015 4.42383,-7.03125 3.80859,-2.13867 7.67578,-2.13867 l 0.32226,0 q 4.95118,0.38086 7.14844,3.54492 0.9082,1.58203 0.9082,3.75 0,0.29297 -0.0293,0.61524 0,1.90429 -0.49805,4.16015 l -3.01758,17.02149 -6.97265,0 0.73242,-3.42774 q -2.40235,3.7793 -6.67969,3.8086 -6.79687,-0.0879 -7.20703,-7.44141 0.26367,-6.73828 6.09375,-9.3164 3.83789,-1.55274 10.3125,-1.58204 l 0.35156,-2.43164 q 0.32227,-3.31054 -2.7832,-3.51562 -3.04688,0.0293 -4.30664,4.16015 z m 5.85937,6.6504 -2.28515,-0.0293 q -7.03125,1.02539 -6.97266,6.06445 0.52734,2.7832 2.92969,2.72461 4.6289,-0.76172 6.32812,-8.75976 z"
         style="font-style:italic;font-variant:normal;font-weight:500;font-stretch:normal;font-size:60px;font-family:'Caracteres L4';-inkscape-font-specification:'Caracteres L4 Medium Italic';letter-spacing:0.74000001px;fill:#ffffff"
         id="path8795" />
      <path
         d="m -147.1143,794.96918 -6.65039,0 0.61523,-3.7793 q -1.61133,3.16406 -4.10156,3.95508 -1.28906,0.35156 -3.16406,0.46875 -2.8125,-0.38086 -3.7793,-1.875 -2.66602,-2.66602 -3.10547,-7.73438 -0.0879,-1.17187 -0.0879,-2.31445 0,-3.63281 1.23047,-7.5 1.46484,-4.21875 3.7207,-6.5625 3.31055,-3.80859 6.21094,-3.86719 5.30273,-0.49804 6.88476,4.39453 l 2.75391,-15.23437 6.94336,0 -7.4707,40.04883 z m -6.76758,-24.02344 q -3.54492,0.20508 -6.73828,10.48828 -0.17578,8.29102 3.07617,8.67188 5.53711,-0.87891 6.41601,-10.04883 1.43555,-8.75977 -2.7539,-9.11133 z"
         style="font-style:italic;font-variant:normal;font-weight:500;font-stretch:normal;font-size:60px;font-family:'Caracteres L4';-inkscape-font-specification:'Caracteres L4 Medium Italic';letter-spacing:0.74000001px;fill:#ffffff"
         id="path8797" />
      <path
         d="m -134.45048,765.64301 6.73828,0 -0.55664,4.07226 q 2.16797,-3.28125 4.30664,-4.04297 0.9668,-0.26367 1.81641,-0.26367 0.70313,0 1.81641,0.23438 l -1.75782,7.58789 q -2.37304,-0.82032 -4.13086,0.49804 -2.22656,1.28907 -3.86718,6.35742 l -2.66602,14.56055 -6.79687,0 5.09765,-29.0039 z"
         style="font-style:italic;font-variant:normal;font-weight:500;font-stretch:normal;font-size:60px;font-family:'Caracteres L4';-inkscape-font-specification:'Caracteres L4 Medium Italic';letter-spacing:0.74000001px;fill:#ffffff"
         id="path8799" />
      <path
         d="m -103.94485,765.26215 q 4.863277,0 6.943355,2.37304 2.226562,2.10938 2.402344,6.67969 0.0293,0.61523 0.0293,1.20117 -0.05859,3.48633 -0.791016,6.6211 l -15.26367,0 q -1.11328,5.39062 1.23047,7.14843 1.55273,0.9961 3.33984,-0.11718 1.99219,-1.52344 2.72461,-4.51172 l 7.470703,0 q -1.318359,5.39062 -5.654293,8.46679 -2.8125,1.66993 -5.94727,1.66993 -2.63672,0 -5.53711,-1.17188 -4.89258,-2.98828 -4.89258,-9.63867 0,-0.58594 0.0293,-1.20117 0.9082,-8.93555 4.62891,-13.38867 3.25195,-3.89649 9.28711,-4.13086 z m -5.6836,11.33789 8.32031,0 q 0.41016,-3.92578 -0.52734,-5.41993 -2.37305,-2.60742 -5.77148,0.35157 -1.66993,1.93359 -2.02149,5.06836 z"
         style="font-style:italic;font-variant:normal;font-weight:500;font-stretch:normal;font-size:60px;font-family:'Caracteres L4';-inkscape-font-specification:'Caracteres L4 Medium Italic';letter-spacing:0.74000001px;fill:#ffffff"
         id="path8801" />
      <path
         d="m -91.896255,785.3891 6.416015,0 q -0.615234,2.49023 0.732422,3.83789 1.582032,1.17187 4.160157,0.41016 2.578125,-0.76172 2.373046,-3.36914 0.0293,-1.69922 -2.402343,-3.04688 -3.134766,-1.37695 -5.771485,-3.63281 -2.724609,-2.19727 -1.96289,-6.94336 0.55664,-2.98828 3.105468,-5.06836 1.875,-1.58203 4.716797,-1.93359 1.376953,-0.0879 2.460938,-0.0879 1.816406,0 2.753906,0.26368 2.373047,0.49804 3.896484,2.13867 1.669922,1.93359 1.669922,5.12695 0,0.67383 -0.08789,1.43555 l -6.796875,0 q 0.820312,-2.8711 -0.84961,-3.86719 -3.046875,-0.82031 -4.30664,0.9082 -1.728516,2.49024 0.55664,3.95508 6.767578,3.45703 7.96875,5.15625 1.464844,1.72852 1.435547,4.57031 -0.117187,2.28516 -0.878906,3.98438 -1.083984,1.96289 -2.871094,3.57422 -2.226562,1.75781 -4.541015,2.10937 -1.201172,0.14649 -2.285157,0.14649 -1.96289,0 -3.720703,-0.29297 -2.314453,-0.76172 -4.130859,-2.75391 -1.611328,-1.66992 -1.699219,-5.00976 l 0.05859,-1.61133 z"
         style="font-style:italic;font-variant:normal;font-weight:500;font-stretch:normal;font-size:60px;font-family:'Caracteres L4';-inkscape-font-specification:'Caracteres L4 Medium Italic';letter-spacing:0.74000001px;fill:#ffffff"
         id="path8803" />
      <path
         d="m -67.601577,785.3891 6.416015,0 q -0.615234,2.49023 0.732422,3.83789 1.582031,1.17187 4.160156,0.41016 2.578125,-0.76172 2.373047,-3.36914 0.0293,-1.69922 -2.402344,-3.04688 -3.134765,-1.37695 -5.771484,-3.63281 -2.724609,-2.19727 -1.962891,-6.94336 0.556641,-2.98828 3.105469,-5.06836 1.875,-1.58203 4.716797,-1.93359 1.376953,-0.0879 2.460938,-0.0879 1.816406,0 2.753906,0.26368 2.373047,0.49804 3.896484,2.13867 1.669922,1.93359 1.669922,5.12695 0,0.67383 -0.08789,1.43555 l -6.796875,0 q 0.820313,-2.8711 -0.849609,-3.86719 -3.046875,-0.82031 -4.306641,0.9082 -1.728515,2.49024 0.556641,3.95508 6.767578,3.45703 7.96875,5.15625 1.464844,1.72852 1.435547,4.57031 -0.117188,2.28516 -0.878906,3.98438 -1.083985,1.96289 -2.871094,3.57422 -2.226563,1.75781 -4.541016,2.10937 -1.201172,0.14649 -2.285156,0.14649 -1.962891,0 -3.720703,-0.29297 -2.314453,-0.76172 -4.130859,-2.75391 -1.611329,-1.66992 -1.699219,-5.00976 l 0.05859,-1.61133 z"
         style="font-style:italic;font-variant:normal;font-weight:500;font-stretch:normal;font-size:60px;font-family:'Caracteres L4';-inkscape-font-specification:'Caracteres L4 Medium Italic';letter-spacing:0.74000001px;fill:#ffffff"
         id="path8805" />
      <path
         d="m -28.834228,765.26215 q 4.863281,0 6.943359,2.37304 2.226563,2.10938 2.402344,6.67969 0.0293,0.61523 0.0293,1.20117 -0.05859,3.48633 -0.791016,6.6211 l -15.263672,0 q -1.113281,5.39062 1.230469,7.14843 1.552734,0.9961 3.339844,-0.11718 1.992187,-1.52344 2.724609,-4.51172 l 7.470703,0 q -1.318359,5.39062 -5.654297,8.46679 -2.8125,1.66993 -5.947265,1.66993 -2.636719,0 -5.53711,-1.17188 -4.892578,-2.98828 -4.892578,-9.63867 0,-0.58594 0.0293,-1.20117 0.908203,-8.93555 4.628906,-13.38867 3.251954,-3.89649 9.28711,-4.13086 z m -5.683594,11.33789 8.320313,0 q 0.410156,-3.92578 -0.527344,-5.41993 -2.373047,-2.60742 -5.771485,0.35157 -1.669921,1.93359 -2.021484,5.06836 z"
         style="font-style:italic;font-variant:normal;font-weight:500;font-stretch:normal;font-size:60px;font-family:'Caracteres L4';-inkscape-font-specification:'Caracteres L4 Medium Italic';letter-spacing:0.74000001px;fill:#ffffff"
         id="path8807" />
      <path
         d="m -11.687973,765.64301 6.7382816,0 -0.5566406,4.07226 q 2.1679687,-3.28125 4.3066406,-4.04297 0.96679686,-0.26367 1.81640624,-0.26367 0.70312496,0 1.81640626,0.23438 l -1.75781251,7.58789 q -2.37304689,-0.82032 -4.13085939,0.49804 -2.2265625,1.28907 -3.8671875,6.35742 l -2.6660156,14.56055 -6.7968751,0 5.097656,-29.0039 z"
         style="font-style:italic;font-variant:normal;font-weight:500;font-stretch:normal;font-size:60px;font-family:'Caracteres L4';-inkscape-font-specification:'Caracteres L4 Medium Italic';letter-spacing:0.74000001px;fill:#ffffff"
         id="path8809" />
      <path
         d="m 31.68657,774.93011 -6.47461,-0.17578 q 0.175781,-4.16015 4.423828,-7.03125 3.808594,-2.13867 7.675782,-2.13867 l 0.322265,0 q 4.951172,0.38086 7.148438,3.54492 0.908203,1.58203 0.908203,3.75 0,0.29297 -0.0293,0.61524 0,1.90429 -0.498047,4.16015 l -3.017578,17.02149 -6.972656,0 0.732422,-3.42774 q -2.402344,3.7793 -6.679688,3.8086 -6.796875,-0.0879 -7.207031,-7.44141 0.263672,-6.73828 6.09375,-9.3164 3.83789,-1.55274 10.3125,-1.58204 l 0.351562,-2.43164 q 0.322266,-3.31054 -2.783203,-3.51562 -3.046875,0.0293 -4.30664,4.16015 z m 5.859375,6.6504 -2.285157,-0.0293 q -7.03125,1.02539 -6.972656,6.06445 0.527344,2.7832 2.929688,2.72461 4.628906,-0.76172 6.328125,-8.75976 z m 4.335937,-17.92969 -4.248047,-0.0586 -4.189453,-9.46289 6.503906,-0.0293 1.933594,9.55078 z"
         style="font-style:italic;font-variant:normal;font-weight:500;font-stretch:normal;font-size:60px;font-family:'Caracteres L4';-inkscape-font-specification:'Caracteres L4 Medium Italic';letter-spacing:0.74000001px;fill:#ffffff"
         id="path8811" />
      <path
         d="m 80.363816,753.89496 -7.734375,40.72265 -6.914063,0 7.822266,-40.72265 6.826172,0 z"
         style="font-style:italic;font-variant:normal;font-weight:500;font-stretch:normal;font-size:60px;font-family:'Caracteres L4';-inkscape-font-specification:'Caracteres L4 Medium Italic';letter-spacing:0.74000001px;fill:#ffffff"
         id="path8813" />
      <path
         d="m 91.621384,774.93011 -6.474609,-0.17578 q 0.175781,-4.16015 4.423828,-7.03125 3.808594,-2.13867 7.675781,-2.13867 l 0.322266,0 q 4.95117,0.38086 7.14844,3.54492 0.9082,1.58203 0.9082,3.75 0,0.29297 -0.0293,0.61524 0,1.90429 -0.49804,4.16015 l -3.01758,17.02149 -6.972658,0 0.732422,-3.42774 q -2.402344,3.7793 -6.679687,3.8086 -6.796875,-0.0879 -7.207032,-7.44141 0.263672,-6.73828 6.09375,-9.3164 3.837891,-1.55274 10.3125,-1.58204 l 0.351563,-2.43164 q 0.322265,-3.31054 -2.783203,-3.51562 -3.046875,0.0293 -4.306641,4.16015 z m 5.859375,6.6504 -2.285156,-0.0293 q -7.03125,1.02539 -6.972656,6.06445 0.527343,2.7832 2.929687,2.72461 4.628906,-0.76172 6.328125,-8.75976 z"
         style="font-style:italic;font-variant:normal;font-weight:500;font-stretch:normal;font-size:60px;font-family:'Caracteres L4';-inkscape-font-specification:'Caracteres L4 Medium Italic';letter-spacing:0.74000001px;fill:#ffffff"
         id="path8815" />
      <path
         d="m 133.76546,752.89886 10.66406,0.0586 2.16797,32.8125 14.85351,-32.8125 10.81055,-0.0586 -7.32422,41.80665 -7.52929,0 7.4707,-35.24415 -16.55274,35.30274 -6.94335,0 -3.07618,-33.60352 -5.77148,33.54493 -6.50391,-0.0586 7.73438,-41.74805 z"
         style="font-style:italic;font-variant:normal;font-weight:500;font-stretch:normal;font-size:60px;font-family:'Caracteres L4';-inkscape-font-specification:'Caracteres L4 Medium Italic';letter-spacing:0.74000001px;fill:#ffffff"
         id="path8817" />
      <path
         d="m 182.61092,774.93011 -6.47461,-0.17578 q 0.17578,-4.16015 4.42383,-7.03125 3.80859,-2.13867 7.67578,-2.13867 l 0.32226,0 q 4.95117,0.38086 7.14844,3.54492 0.9082,1.58203 0.9082,3.75 0,0.29297 -0.0293,0.61524 0,1.90429 -0.49805,4.16015 l -3.01758,17.02149 -6.97266,0 0.73243,-3.42774 q -2.40235,3.7793 -6.67969,3.8086 -6.79688,-0.0879 -7.20703,-7.44141 0.26367,-6.73828 6.09375,-9.3164 3.83789,-1.55274 10.3125,-1.58204 l 0.35156,-2.43164 q 0.32227,-3.31054 -2.7832,-3.51562 -3.04688,0.0293 -4.30664,4.16015 z m 5.85937,6.6504 -2.28515,-0.0293 q -7.03125,1.02539 -6.97266,6.06445 0.52734,2.7832 2.92969,2.72461 4.6289,-0.76172 6.32812,-8.75976 z"
         style="font-style:italic;font-variant:normal;font-weight:500;font-stretch:normal;font-size:60px;font-family:'Caracteres L4';-inkscape-font-specification:'Caracteres L4 Medium Italic';letter-spacing:0.74000001px;fill:#ffffff"
         id="path8819" />
      <path
         d="m 205.00133,765.96527 7.06054,0 -5.65429,28.74024 -7.17774,0 5.77149,-28.74024 z m 2.13867,-11.04492 6.79687,0 -1.14257,6.5918 -6.79688,0 1.14258,-6.5918 z"
         style="font-style:italic;font-variant:normal;font-weight:500;font-stretch:normal;font-size:60px;font-family:'Caracteres L4';-inkscape-font-specification:'Caracteres L4 Medium Italic';letter-spacing:0.74000001px;fill:#ffffff"
         id="path8821" />
      <path
         d="m 219.65733,765.64301 6.73828,0 -0.55664,4.07226 q 2.16797,-3.28125 4.30664,-4.04297 0.9668,-0.26367 1.81641,-0.26367 0.70313,0 1.81641,0.23438 l -1.75782,7.58789 q -2.37304,-0.82032 -4.13085,0.49804 -2.22657,1.28907 -3.86719,6.35742 l -2.66602,14.56055 -6.79687,0 5.09765,-29.0039 z"
         style="font-style:italic;font-variant:normal;font-weight:500;font-stretch:normal;font-size:60px;font-family:'Caracteres L4';-inkscape-font-specification:'Caracteres L4 Medium Italic';letter-spacing:0.74000001px;fill:#ffffff"
         id="path8823" />
      <path
         d="m 241.63756,765.96527 7.06055,0 -5.6543,28.74024 -7.17774,0 5.77149,-28.74024 z m 2.13867,-11.04492 6.79688,0 -1.14258,6.5918 -6.79688,0 1.14258,-6.5918 z"
         style="font-style:italic;font-variant:normal;font-weight:500;font-stretch:normal;font-size:60px;font-family:'Caracteres L4';-inkscape-font-specification:'Caracteres L4 Medium Italic';letter-spacing:0.74000001px;fill:#ffffff"
         id="path8825" />
      <path
         d="m 265.66859,765.26215 q 4.86329,0 6.94336,2.37304 2.22657,2.10938 2.40235,6.67969 0.0293,0.61523 0.0293,1.20117 -0.0586,3.48633 -0.79101,6.6211 l -15.26367,0 q -1.11328,5.39062 1.23047,7.14843 1.55273,0.9961 3.33984,-0.11718 1.99219,-1.52344 2.72461,-4.51172 l 7.4707,0 q -1.31836,5.39062 -5.65429,8.46679 -2.8125,1.66993 -5.94727,1.66993 -2.63672,0 -5.53711,-1.17188 -4.89258,-2.98828 -4.89258,-9.63867 0,-0.58594 0.0293,-1.20117 0.9082,-8.93555 4.62891,-13.38867 3.25195,-3.89649 9.2871,-4.13086 z m -5.68359,11.33789 8.32031,0 q 0.41016,-3.92578 -0.52734,-5.41993 -2.37305,-2.60742 -5.77148,0.35157 -1.66993,1.93359 -2.02149,5.06836 z"
         style="font-style:italic;font-variant:normal;font-weight:500;font-stretch:normal;font-size:60px;font-family:'Caracteres L4';-inkscape-font-specification:'Caracteres L4 Medium Italic';letter-spacing:0.74000001px;fill:#ffffff"
         id="path8827" />
    </g>
  </g>
</svg>
