<?xml version="1.0" encoding="utf-8"?>
<!-- Generator: Adobe Illustrator 13.0.0, SVG Export Plug-In  -->
<!DOCTYPE svg PUBLIC "-//W3C//DTD SVG 1.1//EN" "http://www.w3.org/Graphics/SVG/1.1/DTD/svg11.dtd" [
	<!ENTITY ns_flows "http://ns.adobe.com/Flows/1.0/">
]>
<svg version="1.1"
	 xmlns="http://www.w3.org/2000/svg" xmlns:xlink="http://www.w3.org/1999/xlink" xmlns:a="http://ns.adobe.com/AdobeSVGViewerExtensions/3.0/"
	 x="0px" y="0px" width="598px" height="600px" viewBox="0 -0.031 598 600" enable-background="new 0 -0.031 598 600"
	 xml:space="preserve">
<defs>
</defs>
<path fill="#FFFFFF" stroke="#000000" stroke-width="2" stroke-linecap="round" stroke-linejoin="round" d="M43.515,598.938h510.183
	c11.275,0,22.089-4.498,30.063-12.508c7.973-8.011,12.452-18.873,12.452-30.201V43.71c0-11.327-4.479-22.191-12.452-30.2
	C575.787,5.5,564.974,1,553.698,1H43.515C32.24,1,21.425,5.5,13.453,13.51C5.479,21.519,1,32.383,1,43.71v512.519
	c0,11.328,4.479,22.19,12.453,30.201C21.425,594.439,32.24,598.938,43.515,598.938z"/>
<polyline fill="#0000FF" stroke="#000000" points="33.256,563.212 563.744,563.212 563.744,32.725 33.256,32.725 33.256,563.212 "/>
<polyline fill="#FFFFFF" points="286.265,364.253 174.719,170.61 198.397,156.97 158.199,133.708 118.001,110.446 117.956,156.89 
	117.91,203.333 141.791,189.578 253.004,382.644 "/>
<polyline fill="#FFFFFF" points="247.967,363.079 247.967,519.051 285.967,519.051 285.967,363.746 "/>
<polygon fill="#FFFFFF" points="415.071,102.051 391.851,61.829 368.629,102.051 345.407,142.272 372.967,142.272 372.967,521.051 
	410.967,521.051 410.967,142.272 438.293,142.272 "/>
</svg>
