<?xml version="1.0" encoding="UTF-8" standalone="no"?>
<!-- Generator: Adobe Illustrator 13.0.0, SVG Export Plug-In  -->

<svg
   xmlns:dc="http://purl.org/dc/elements/1.1/"
   xmlns:cc="http://creativecommons.org/ns#"
   xmlns:rdf="http://www.w3.org/1999/02/22-rdf-syntax-ns#"
   xmlns:svg="http://www.w3.org/2000/svg"
   xmlns="http://www.w3.org/2000/svg"
   xmlns:sodipodi="http://sodipodi.sourceforge.net/DTD/sodipodi-0.dtd"
   xmlns:inkscape="http://www.inkscape.org/namespaces/inkscape"
   version="1.1"
   x="0px"
   y="0px"
   width="597.21875"
   height="599.9375"
   viewBox="0 -0.031 597.21875 599.9375"
   enable-background="new 0 -0.031 598 600"
   xml:space="preserve"
   id="svg2"
   inkscape:version="0.48.1 "
   sodipodi:docname="AJAX.svg"><metadata
   id="metadata32"><rdf:RDF><cc:Work
       rdf:about=""><dc:format>image/svg+xml</dc:format><dc:type
         rdf:resource="http://purl.org/dc/dcmitype/StillImage" /></cc:Work></rdf:RDF></metadata><sodipodi:namedview
   pagecolor="#ffffff"
   bordercolor="#666666"
   borderopacity="1"
   objecttolerance="10"
   gridtolerance="10"
   guidetolerance="10"
   inkscape:pageopacity="0"
   inkscape:pageshadow="2"
   inkscape:window-width="1280"
   inkscape:window-height="1004"
   id="namedview30"
   showgrid="false"
   fit-margin-top="0"
   fit-margin-left="0"
   fit-margin-right="0"
   fit-margin-bottom="0"
   inkscape:zoom="0.87"
   inkscape:cx="762.48424"
   inkscape:cy="253.44954"
   inkscape:window-x="-8"
   inkscape:window-y="-8"
   inkscape:window-maximized="1"
   inkscape:current-layer="svg2" />
<defs
   id="defs4">
</defs>
<path
   d="m 43.515,598.90825 h 510.183 c 11.275,0 22.089,-4.498 30.063,-12.508 7.973,-8.011 12.452,-18.873 12.452,-30.201 v -512.519 c 0,-11.327 -4.479,-22.191 -12.452,-30.2 -7.974,-8.01 -18.787,-12.51 -30.063,-12.51 H 43.515 c -11.275,0 -22.09,4.5 -30.062,12.51 C 5.479,21.48925 1,32.35325 1,43.68025 v 512.519 c 0,11.328 4.479,22.19 12.453,30.201 7.972,8.009 18.787,12.508 30.062,12.508 z"
   id="path6"
   style="fill:#ffffff;stroke:#000000;stroke-width:2;stroke-linecap:round;stroke-linejoin:round;stroke-opacity:1"
   inkscape:connector-curvature="0" />
<polyline
   points="33.256,563.212 563.744,563.212 563.744,32.725 33.256,32.725 33.256,563.212 "
   id="polyline8"
   style="fill:#003399;fill-opacity:1;stroke:none"
   transform="translate(0,-0.02975)" />
<polyline
   points="119,311.323 419.018,311.323 419.018,338.883 459.239,315.661 499.461,292.439 459.239,269.219   419.018,245.997 419.018,273.323 119,273.323 "
   id="polyline10"
   style="fill:#ffffff;stroke:none"
   transform="translate(0,-0.02975)" />
<polygon
   points="153.071,106.051 129.851,65.829 106.629,106.051 83.407,146.272 110.967,146.272 110.967,525.051 148.967,525.051 148.967,146.272 176.293,146.272 "
   id="polygon12"
   style="fill:#ffffff;stroke:none"
   transform="translate(0,-0.02975)" />
<path
   d="m 211.051,338.01325 64.001,-110.854 c 1.383,-2.396 3.938,-3.871 6.704,-3.871 2.766,0 5.321,1.475 6.704,3.871 l 64.001,110.854 c 1.383,2.395 1.383,5.346 0,7.74 -1.383,2.396 -3.938,3.871 -6.703,3.871 H 217.755 c -2.766,0 -5.321,-1.476 -6.704,-3.871 -1.383,-2.394 -1.383,-5.345 0,-7.74 z"
   id="path14"
   style="fill:#ffffff;stroke:none"
   inkscape:connector-curvature="0" />
<path
   d="M 217.732,346.52825 H 345.78 c 1.654,0 3.184,-0.883 4.011,-2.315 0.828,-1.434 0.828,-3.199 0,-4.632 l -64.023,-110.893 c -0.828,-1.433 -2.357,-2.315 -4.012,-2.315 -1.655,0 -3.184,0.882 -4.011,2.315 l -64.024,110.892 c -0.827,1.433 -0.827,3.198 0,4.632 0.828,1.433 2.356,2.316 4.011,2.316 z"
   id="path16"
   style="fill:#d40000;fill-opacity:1;stroke:none"
   inkscape:connector-curvature="0" />
<polygon
   points="281.756,240.349 337.713,337.269 225.799,337.269 "
   id="polygon18"
   style="fill:#ffffff;stroke:none"
   transform="translate(0,-0.02975)" />
<polygon
   points="297,329.079 296.964,323.646 301.805,323.651 301.805,329.079 308.896,329.079 308.86,323.657 312.814,323.661 312.814,318.39 308.824,318.39 308.693,298.762 312.853,298.762 308.656,293.166 305.182,288.324 301.805,292.862 301.805,293.127 296.71,293.098 293.285,288.324 289.909,292.862 289.909,293.059 285.361,293.031 281.983,288.324 278.607,292.862 278.607,292.992 273.896,292.965 270.564,288.324 267.188,292.862 267.188,292.927 262.714,292.901 259.43,288.324 256.054,292.862 251.681,298.762 256.054,298.762 256.054,318.39 252.487,318.39 252.487,323.606 256.054,323.609 256.054,329.079 263.145,329.079 263.108,323.615 267.188,323.62 267.188,329.079 274.28,329.079 274.243,323.626 278.607,323.63 278.607,329.079 285.699,329.079 285.662,323.637 289.909,323.641 289.909,329.079 "
   id="polygon20"
   style="fill:#000000;stroke:none"
   transform="translate(0,-0.02975)" />
<polygon
   points="296.797,298.762 296.929,318.39 301.805,318.39 301.805,298.762 "
   id="polygon22"
   style="fill:#ffffff;stroke:none"
   transform="translate(0,-0.02975)" />
<polygon
   points="285.496,298.762 285.627,318.39 289.909,318.39 289.909,298.762 "
   id="polygon24"
   style="fill:#ffffff;stroke:none"
   transform="translate(0,-0.02975)" />
<polygon
   points="274.077,298.762 274.208,318.39 278.607,318.39 278.607,298.762 "
   id="polygon26"
   style="fill:#ffffff;stroke:none"
   transform="translate(0,-0.02975)" />
<polygon
   points="262.941,298.762 263.073,318.39 267.188,318.39 267.188,298.762 "
   id="polygon28"
   style="fill:#ffffff;stroke:none"
   transform="translate(0,-0.02975)" />
</svg>