<?xml version="1.0" encoding="UTF-8" standalone="no"?>
<!-- Generator: Adobe Illustrator 16.0.2, SVG Export Plug-In . SVG Version: 6.00 Build 0)  -->

<svg
   xmlns:dc="http://purl.org/dc/elements/1.1/"
   xmlns:cc="http://creativecommons.org/ns#"
   xmlns:rdf="http://www.w3.org/1999/02/22-rdf-syntax-ns#"
   xmlns:svg="http://www.w3.org/2000/svg"
   xmlns="http://www.w3.org/2000/svg"
   xmlns:sodipodi="http://sodipodi.sourceforge.net/DTD/sodipodi-0.dtd"
   xmlns:inkscape="http://www.inkscape.org/namespaces/inkscape"
   version="1.1"
   id="svg2448"
   sodipodi:docname="C25a.svg"
   inkscape:version="0.48.2 r9819"
   x="0px"
   y="0px"
   width="302.27499"
   height="442.16687"
   viewBox="0 0 302.275 442.16688"
   xml:space="preserve"><metadata
   id="metadata3103"><rdf:RDF><cc:Work
       rdf:about=""><dc:format>image/svg+xml</dc:format><dc:type
         rdf:resource="http://purl.org/dc/dcmitype/StillImage" /><dc:title></dc:title></cc:Work></rdf:RDF></metadata><defs
   id="defs3101" />
<sodipodi:namedview
   id="namedview46"
   inkscape:current-layer="g3840"
   inkscape:window-y="-8"
   inkscape:window-x="-8"
   fit-margin-bottom="0"
   fit-margin-right="0"
   inkscape:window-height="1028"
   inkscape:window-width="1920"
   inkscape:pageshadow="2"
   inkscape:pageopacity="0"
   inkscape:window-maximized="1"
   objecttolerance="10"
   fit-margin-top="0"
   inkscape:cy="320.74553"
   borderopacity="1"
   showgrid="false"
   inkscape:cx="435.82631"
   bordercolor="#666666"
   pagecolor="#ffffff"
   inkscape:zoom="1.6358721"
   guidetolerance="10"
   fit-margin-left="0"
   gridtolerance="10"
   showguides="true"
   inkscape:guide-bbox="true">
	<sodipodi:guide
   orientation="1,0"
   position="632.90135,438.34304"
   id="guide3113" /><sodipodi:guide
   orientation="1,0"
   position="612.72862,460.96095"
   id="guide3115" /><sodipodi:guide
   orientation="1,0"
   position="387.77216,297.13396"
   id="guide3963" /></sodipodi:namedview>
<g
   id="g3840"
   transform="translate(340.84118,2.1838798)">
	<path
   id="rect3748"
   style="fill:#ffffff;stroke:#333333;stroke-width:0.70000005;stroke-miterlimit:4;stroke-dasharray:none"
   d="m -327.88518,-1.8338843 h 276.364002 c 6.962,0 12.605,5.5496908 12.605,12.3953583 V 427.23765 c 0,6.84666 -5.644,12.39536 -12.605,12.39536 H -327.88518 c -6.962,9.8e-4 -12.606,-5.5487 -12.606,-12.39536 V 10.561474 c 0,-6.8456675 5.644,-12.3953583 12.606,-12.3953583 z"
   inkscape:connector-curvature="0" />
	<path
   style="fill:#003cb0;fill-opacity:1;stroke:#ffffff;stroke-width:3.96815705"
   d="m -334.45132,4.0314023 289.446822,0 0,429.6887077 -289.446822,0 z"
   id="rect3746"
   inkscape:connector-curvature="0" />
	<path
   style="fill:#ffffff"
   d="m -312.37018,303.74211 243.394002,0 0,106.666 -243.394002,0 z"
   id="rect3754"
   inkscape:connector-curvature="0" />
	<g
   id="g3327"
   transform="matrix(0.9251501,0,0,0.9251501,-325.04904,13.764026)">
		<path
   id="rect2208"
   style="fill:none"
   d="m 186.988,341.753 h 57.004 c 1.637,0 2.965,2.157 2.965,4.818 v 53.298 c 0,2.661 -1.328,4.818 -2.965,4.818 h -57.004 c -1.637,0 -2.964,-2.157 -2.964,-4.818 V 346.57 c 0,-2.661 1.327,-4.817 2.964,-4.817 z"
   inkscape:connector-curvature="0" />
		<path
   id="rect4887"
   inkscape:connector-curvature="0"
   style="fill:#003cb0;fill-opacity:1;stroke:none"
   d="m 187.58,345.309 h 55.821 V 401.13 H 187.58 v -55.821 z" />
		<path
   id="path7442"
   inkscape:connector-curvature="0"
   style="fill:#ffffff"
   d="m 207.198,347.885 -1.959,13.275 h 6.925 v -13.275 h -4.966 z m 11.518,0 v 13.275 h 6.891 l -1.925,-13.275 h -4.966 z m -28.779,16.382 v 3.682 c 5.073,0 5.067,0.006 5.067,6.992 h 3.783 c 0,-7.005 0.002,-6.992 5.067,-6.992 h 23.476 c 4.742,0 4.763,-0.013 4.763,6.992 h 3.749 c 0,-7.005 0.002,-6.992 5.067,-6.992 v -3.682 h -50.972 z m 13.376,6.35 -4.425,27.833 h 13.275 v -27.833 h -8.85 z m 15.403,0 v 27.833 h 13.275 l -4.425,-27.833 h -8.85 z" />
	</g>
	
	<path
   style="fill:#ffffff"
   d="m -312.37018,189.74212 243.394002,0 0,106.667 -243.394002,0 z"
   id="rect3752"
   inkscape:connector-curvature="0" />
	
	<path
   style="fill:#ffffff"
   d="m -312.37018,75.742112 243.394002,0 0,106.667008 -243.394002,0 z"
   id="rect3750"
   inkscape:connector-curvature="0" />
	
	<g
   id="g2679"
   transform="matrix(1.9954571,0,0,2.3500889,-388.14055,-193.82084)"
   style="fill:#ffffff">
		
		
		
		
		
		
	<g
   transform="scale(1.0852279,0.92146544)"
   style="font-size:22.71174812px;font-style:normal;font-variant:normal;font-weight:normal;font-stretch:normal;line-height:125%;letter-spacing:0px;word-spacing:0px;fill:#ffffff;fill-opacity:1;stroke:none;font-family:DinC;-inkscape-font-specification:DinC"
   id="text3105"><path
     d="m 56.057939,98.790862 0,2.672618 -6.243512,0 0,4.95711 4.158645,0 0,2.56173 -4.158645,0 0,7.79607 -2.650444,0 0,-17.987528 z"
     style="letter-spacing:3.6679492px;fill:#ffffff;font-family:Caracteres L2;-inkscape-font-specification:Caracteres L2"
     id="path4010"
     inkscape:connector-curvature="0" /><path
     d="m 66.102478,98.757593 c 1.515587,0.07395 2.890711,0.750421 4.125376,2.029417 0.909346,1.19031 1.3899,2.34364 1.441664,3.45999 0.06653,0.96113 -0.02958,1.98138 -0.288333,3.06077 -0.487959,1.4121 -1.360349,2.42496 -2.617174,3.03858 l 3.105122,6.40986 -3.138391,0 -2.572816,-5.51159 -2.517366,0 0,5.53377 -2.606085,0 0.01109,-18.020797 z m -0.465769,9.947477 c 1.101573,-0.13307 1.996143,-0.61362 2.683713,-1.44166 0.495332,-0.57666 0.739306,-1.31597 0.731921,-2.21795 -0.01479,-0.93891 -0.292037,-1.73368 -0.831729,-2.38429 -0.820646,-0.74669 -1.596926,-1.13483 -2.328841,-1.16442 l -2.262303,0 -0.02218,7.20832 z"
     style="letter-spacing:3.6679492px;fill:#ffffff;font-family:Caracteres L2;-inkscape-font-specification:Caracteres L2"
     id="path4012"
     inkscape:connector-curvature="0" /><path
     d="m 84.464306,98.790862 4.114287,17.954258 -2.861148,0 -0.743012,-3.21602 -4.957105,0 -0.809549,3.21602 -2.905507,0 4.158645,-17.932079 z m -4.058838,11.965808 4.069928,0 -2.051598,-9.0603 z"
     style="letter-spacing:3.6679492px;fill:#ffffff;font-family:Caracteres L2;-inkscape-font-specification:Caracteres L2"
     id="path4014"
     inkscape:connector-curvature="0" /><path
     d="m 96.560445,98.779772 4.635505,11.666388 0,-11.666388 2.52845,0 0,17.998618 -2.72807,0 -4.846204,-12.0878 0,12.09889 -2.594995,0 0,-18.009708 z"
     style="letter-spacing:3.6679492px;fill:#ffffff;font-family:Caracteres L2;-inkscape-font-specification:Caracteres L2"
     id="path4016"
     inkscape:connector-curvature="0" /><path
     d="m 115.89817,98.779772 c 1.96657,0.347496 3.37496,1.741098 4.22518,4.180828 l 0.13308,0.66538 -2.45083,0.66538 c -0.47317,-1.33814 -1.06647,-2.22347 -1.7799,-2.65598 -0.71345,-0.43249 -1.462,-0.44173 -2.24567,-0.0277 -0.66539,0.41403 -1.15518,1.0369 -1.46939,1.86862 -0.31421,0.83174 -0.47131,2.18284 -0.47131,4.05329 -0.0739,1.18291 0.007,2.36582 0.24397,3.54871 0.23658,1.18291 0.65614,2.01649 1.25869,2.50073 0.60253,0.48426 1.39545,0.62288 2.37874,0.41587 0.89456,-0.34748 1.58582,-1.24574 2.07378,-2.6948 l 2.46192,0.72083 c -0.37706,1.5082 -1.17922,2.82788 -2.40647,3.95903 -0.79108,0.57666 -1.75958,0.865 -2.90551,0.865 -0.14047,0.0148 -0.27725,0.0222 -0.41032,0.0222 l -0.2107,0 c -1.74479,-0.0813 -3.09404,-1.04613 -4.04775,-2.89442 -0.68756,-1.17551 -1.05722,-3.26407 -1.10897,-6.26569 -0.007,-0.19961 -0.0111,-0.39922 -0.0111,-0.59885 0.0148,-2.55801 0.41401,-4.50611 1.19769,-5.84428 0.7541,-1.15331 1.62649,-1.885236 2.61717,-2.195765 0.57666,-0.22917 1.19029,-0.343763 1.84089,-0.343781 0.0887,1.8e-5 0.18113,0.0037 0.27725,0.01109 0.25875,1.8e-5 0.5286,0.01481 0.80955,0.04436 z"
     style="letter-spacing:3.6679492px;fill:#ffffff;font-family:Caracteres L2;-inkscape-font-specification:Caracteres L2"
     id="path4018"
     inkscape:connector-curvature="0" /><path
     d="m 134.34871,98.790862 0,2.550638 -6.24351,0 0,4.8573 4.15865,0 0,2.70589 -4.15865,0 0,5.05691 6.56512,0 0,2.81679 -9.21556,0 0.0111,-17.987528 z"
     style="letter-spacing:3.6679492px;fill:#ffffff;font-family:Caracteres L2;-inkscape-font-specification:Caracteres L2"
     id="path4020"
     inkscape:connector-curvature="0" /></g></g>
	<path
   id="path3740"
   inkscape:connector-curvature="0"
   style="stroke:#000000"
   d="m -171.12818,143.09612 76.110002,-0.343 v -22.285 l -5.828002,-4.8 -6.514,5.143 v 10.971 h -2.4 v -4.457 l -5.485,-5.143 -5.485,5.485 v 5.143 h -2.057 v -4.457 l -4.8,-6.171 h -5.143 l -4.8,5.485 v 6.514 l -2.057,0.343 v -5.829 l -5.486,-11.999 -6.171,12.342 v 5.486 l -2.057,0.343 v -5.485 l -8.229,-6.857 -9.942,6.857 0.344,13.714 0,0 z" />
	<path
   id="path3742"
   inkscape:connector-curvature="0"
   style="stroke:#000000"
   d="m -171.12818,256.91812 76.110002,-0.342 v -22.285 l -5.828002,-4.8 -6.514,5.143 v 10.972 h -2.4 v -4.457 l -5.485,-5.143 -5.485,5.484 v 5.143 h -2.057 v -4.457 l -4.8,-6.17 h -5.143 l -4.8,5.484 v 6.515 l -2.057,0.343 v -5.828 l -5.486,-12 -6.171,12.343 v 5.485 l -2.057,0.343 v -5.485 l -8.229,-6.857 -9.942,6.857 0.344,13.712 0,0 z" />
	<path
   id="path3744"
   inkscape:connector-curvature="0"
   style="fill:none;stroke:#aa0000;stroke-width:10.69999981;stroke-opacity:1"
   d="m -151.55765,263.96971 40.42547,-36.87759"
   sodipodi:nodetypes="cc" />
	
</g>






<path
   style="fill:none;stroke:#aa0000;stroke-width:14.09500027;stroke-miterlimit:4"
   d="m 131.50586,358.58306 c 0,21.28097 -17.25164,38.53261 -38.53261,38.53261 -21.28097,0 -38.53261,-17.25164 -38.53261,-38.53261 0,-21.28098 17.25164,-38.53261 38.53261,-38.53261 21.28097,0 38.53261,17.25163 38.53261,38.53261 z"
   id="circle3503-8"
   inkscape:connector-curvature="0" /><g
   style="font-size:34.13026047px;font-style:normal;font-variant:normal;font-weight:normal;font-stretch:normal;line-height:125%;letter-spacing:0px;word-spacing:0px;fill:#000000;fill-opacity:1;stroke:none;font-family:DinC;-inkscape-font-specification:DinC"
   id="text3109-8"
   transform="translate(-0.39999998,-0.40000448)"><path
     d="m 76.665159,346.41084 0,24.48113 -4.649582,0 0.01667,-17.28178 -0.06666,0 c -0.03334,0.14445 -0.433304,0.46109 -1.199892,0.94991 l -1.449869,0.7666 -1.299883,0.49996 c -0.522181,0.11111 -0.805488,0.19444 -0.849924,0.24997 l 0,-5.1662 1.03324,-0.48329 c 1.72206,-1.09988 2.960836,-2.43864 3.716332,-4.0163 z"
     style="font-family:Caracteres L1;-inkscape-font-specification:Caracteres L1"
     id="path4002"
     inkscape:connector-curvature="0" /><path
     d="m 93.79695,346.36084 c 0.911017,0.1889 1.777604,0.55553 2.599766,1.0999 l 1.133232,0.96658 c 0.499938,0.59997 0.822131,1.02216 0.966579,1.26656 l 0.51662,1.03324 c 0.288846,0.84438 0.444387,1.70542 0.466625,2.5831 l -0.08333,1.26655 -0.283308,0.93325 c -0.32221,0.79994 -0.822164,1.61098 -1.499865,2.43311 l 0.08333,0.21665 0.799928,0.88325 0.51662,0.78327 0.466625,1.16656 c 0.255515,0.81105 0.383281,1.60542 0.383299,2.38312 -1.8e-5,1.57764 -0.527748,3.0775 -1.583191,4.49959 -1.599871,1.92205 -3.671904,2.92752 -6.216107,3.0164 -0.922148,0 -1.68319,-0.0556 -2.283128,-0.16665 -0.777715,-0.2111 -1.327664,-0.38886 -1.649851,-0.53329 l -0.99991,-0.49995 -0.849924,-0.61662 -0.766597,-0.68327 -0.783263,-1.01657 c -0.455517,-0.74438 -0.77771,-1.44987 -0.96658,-2.11648 l -0.01667,-0.14998 4.382939,-1.1999 c 0.211086,0.83327 0.738815,1.46654 1.583191,1.89983 0.522167,0.2111 1.294318,0.32776 2.316458,0.34997 l 0.783263,-0.0833 0.633276,-0.19998 0.48329,-0.28331 c 0.333291,-0.22219 0.633263,-0.54994 0.899919,-0.98324 0.133308,-0.27775 0.233299,-0.65549 0.299973,-1.13323 0.02221,-0.38885 -1.4e-5,-0.61105 -0.06666,-0.66661 0.02221,-0.17775 -0.05556,-0.44995 -0.233312,-0.81659 l -0.41663,-0.58328 c -0.299985,-0.29997 -0.561072,-0.5055 -0.783262,-0.61661 -0.277765,-0.15553 -0.649953,-0.2833 -1.116566,-0.3833 l -1.816504,-0.05 0,-4.51626 c 0.244414,0.0222 0.727703,-0.0111 1.44987,-0.1 l 0.03333,0.0333 c 1.322092,-0.15552 2.155349,-0.87768 2.499775,-2.16647 l -0.03333,-0.74993 0.03333,-0.11666 -0.06666,-0.23331 -0.316638,-0.61661 c -0.311095,-0.38884 -0.594402,-0.64437 -0.849923,-0.7666 -0.04445,-0.0333 -0.422195,-0.1333 -1.133231,-0.29997 l -1.049906,0.0333 0,-0.0333 -1.03324,0.16665 -0.733268,0.31664 -0.299973,0.23331 -0.333303,0.48329 -0.249977,0.61661 -4.332944,-1.29988 0.283308,-0.74993 0.09999,-0.1 c -0.02222,-0.0555 0.105543,-0.33328 0.383299,-0.83325 l 0.466625,-0.74994 0.666606,-0.76659 c 0.244418,-0.1333 0.366629,-0.23329 0.366634,-0.29998 l 0.349968,-0.24997 c 0.866583,-0.64437 1.877602,-1.05544 3.033061,-1.23323 0.577717,-0.0888 1.272098,-0.13329 2.083146,-0.13332 0.588825,3e-5 1.183215,0.0445 1.783172,0.13332 z"
     style="font-family:Caracteres L1;-inkscape-font-specification:Caracteres L1"
     id="path4004"
     inkscape:connector-curvature="0" /><path
     d="m 110.96207,366.29238 c 0.68882,0.0445 1.11656,0.0333 1.28322,-0.0333 l 0.0167,0.0333 0.91659,-0.19998 c 0.73325,-0.24442 1.29431,-0.77215 1.68318,-1.58319 0.29996,-0.81103 0.52216,-1.77761 0.66661,-2.89974 l 0.0833,-3.76633 -0.05,-1.76651 -0.16666,-1.31654 -0.0667,-0.0667 -0.21664,-0.93325 -0.0667,-0.0333 c -0.16667,-0.66659 -0.48331,-1.2832 -0.94992,-1.84984 -0.35553,-0.28884 -0.63884,-0.47771 -0.84992,-0.56661 l -0.96658,-0.23331 -1.01658,-0.05 c -0.45552,-0.0111 -0.96103,0.0833 -1.51653,0.28331 -0.51107,0.24444 -0.93881,0.68329 -1.28322,1.31655 -0.24442,0.58885 -0.46663,1.32767 -0.6666,2.21646 l 0.0333,0.1 c -0.0667,0.0556 -0.10555,0.23889 -0.11666,0.54995 -0.15555,1.2999 -0.17221,3.20528 -0.05,5.71616 l 0.26664,1.8165 0.34997,1.28322 c 0.25552,0.66661 0.60549,1.1499 1.0499,1.44987 0.39996,0.25553 0.94435,0.4333 1.63319,0.53328 z m -8.29925,-5.03288 c -0.0333,-0.62215 -0.05,-1.23321 -0.05,-1.83317 0,-0.29996 0.006,-0.59993 0.0167,-0.89992 0.0333,-1.17765 0.12776,-2.32199 0.2833,-3.43302 l 0,-0.11666 0.0667,-0.14998 0.11666,-1.1499 0.0833,-0.16665 0.16665,-0.93325 0.0667,-0.1 c 0.16665,-0.79991 0.52773,-1.69983 1.08323,-2.69976 l 0.48329,-0.73327 0.93325,-0.94991 c 0.9888,-0.7999 2.27202,-1.37207 3.84966,-1.71651 0.49994,-0.0889 1.01656,-0.1333 1.54986,-0.13332 l 0.13332,0 c 0.83325,0.0222 1.70539,0.16112 2.61643,0.41663 0.37773,0.0445 0.98323,0.29444 1.8165,0.74993 0.85547,0.53331 1.63317,1.26102 2.33313,2.18314 l 0.53328,0.81659 0.4333,0.91658 0.18331,0.66661 0.05,0.05 0,0.16666 c 0.11108,0.23333 0.17774,0.41664 0.19998,0.54995 l 0.0667,0.0833 0.28331,1.4832 0.05,0.0333 -0.0333,0.21665 0.0667,0.13332 0.16665,1.78317 0.0667,0.16666 -0.05,0.0167 0.11666,1.04991 -0.0333,0.0333 c 0.0444,0.11111 0.0444,0.17777 0,0.19998 l 0.05,0.16665 -0.0333,0.05 0.0833,1.13323 -0.0333,0.0333 0.05,0.48329 -0.0167,0.0333 0,0.6666 c -0.0111,0.41109 -0.0445,0.90549 -0.1,1.4832 l -0.0833,0.61662 0.0333,0.0333 -0.0833,0.16665 c -0.0333,0.41108 -0.12779,0.89992 -0.28331,1.46653 l -0.1,0.31664 -0.0167,0.18332 -0.43329,1.23322 -0.0833,0.0667 c -2e-5,0.11111 -0.14445,0.44996 -0.43329,1.01658 l -0.79993,1.14989 c -0.87771,1.01102 -1.84985,1.74984 -2.9164,2.21647 -0.69995,0.27775 -1.40545,0.46107 -2.11648,0.54995 l -1.28322,0.0833 -0.29997,-0.0167 c -2.53311,-0.0667 -4.57737,-0.88881 -6.13278,-2.46644 -0.7666,-0.85548 -1.34433,-1.84983 -1.73318,-2.98307 -0.44441,-1.15544 -0.7166,-2.372 -0.81659,-3.64967 z"
     style="font-family:Caracteres L1;-inkscape-font-specification:Caracteres L1"
     id="path4006"
     inkscape:connector-curvature="0" /></g><path
   style="fill:none;stroke:#aa0000;stroke-width:14.09500027;stroke-miterlimit:4"
   d="m 131.50586,245.80565 c 0,21.28097 -17.25164,38.53261 -38.53261,38.53261 -21.28097,0 -38.53261,-17.25164 -38.53261,-38.53261 0,-21.28098 17.25164,-38.53261 38.53261,-38.53261 21.28097,0 38.53261,17.25163 38.53261,38.53261 z"
   id="circle3503-8-4"
   inkscape:connector-curvature="0" /><g
   style="font-size:34.13026047px;font-style:normal;font-variant:normal;font-weight:normal;font-stretch:normal;text-align:center;line-height:125%;letter-spacing:0px;word-spacing:0px;text-anchor:middle;fill:#000000;fill-opacity:1;stroke:none;font-family:DinC;-inkscape-font-specification:DinC"
   id="text3109-8-5"
   transform="translate(-0.39999998,-0.40000448)"><path
     d="m 85.281406,233.58347 c 1.655393,0.32222 3.04971,1.21102 4.182957,2.66643 1.133214,1.45544 1.599838,3.24417 1.399874,5.36618 -0.29999,1.45544 -0.899936,2.67199 -1.799838,3.64967 1.488737,1.72208 2.233114,3.53302 2.233132,5.43284 -1.8e-5,1.09991 -0.25555,2.22759 -0.766598,3.38303 -1.577651,2.72198 -3.905217,4.14963 -6.982704,4.28295 -2.544223,-0.0333 -4.560706,-0.80548 -6.049456,-2.31646 -1.266555,-1.37765 -1.988712,-2.91084 -2.166471,-4.59958 -0.01111,-0.18887 -0.01667,-0.38329 -0.01667,-0.58328 -2e-6,-2.1998 0.744374,-4.03296 2.233132,-5.49951 -1.244335,-1.68872 -1.866501,-3.12748 -1.866499,-4.31628 0.01111,-2.13312 0.588833,-3.84407 1.733178,-5.13287 1.199886,-1.27764 2.466438,-2.04423 3.799658,-2.29979 0.699928,-0.1333 1.405419,-0.19996 2.116476,-0.19998 0.633265,2e-5 1.283206,0.0556 1.949824,0.16665 z m -2.183137,20.16485 c 2.12202,-0.0556 3.355241,-0.96102 3.699667,-2.71642 0.04443,-1.99981 -0.972147,-3.17193 -3.049725,-3.51635 -2.21092,-0.11109 -3.516357,0.82216 -3.916314,2.79975 -0.06667,2.01093 1.022122,3.15527 3.266372,3.43302 z m -0.249977,-10.68237 c 2.010918,0.0778 3.183034,-0.7277 3.51635,-2.41645 -0.122224,-1.61095 -1.055473,-2.46087 -2.799748,-2.54977 -2.022048,2e-5 -3.121948,0.74995 -3.299703,2.2498 0.04443,1.48877 0.905466,2.39424 2.583101,2.71642 z"
     style="font-family:Caracteres L1;-inkscape-font-specification:Caracteres L1"
     id="path3996"
     inkscape:connector-curvature="0" /><path
     d="m 102.39653,253.51501 c 0.68882,0.0444 1.11656,0.0333 1.28322,-0.0333 l 0.0167,0.0333 0.91659,-0.19998 c 0.73325,-0.24442 1.29431,-0.77215 1.68318,-1.5832 0.29996,-0.81103 0.52216,-1.7776 0.66661,-2.89973 l 0.0833,-3.76633 -0.05,-1.76651 -0.16665,-1.31655 -0.0667,-0.0667 -0.21664,-0.93325 -0.0667,-0.0333 c -0.16667,-0.66659 -0.48331,-1.2832 -0.94992,-1.84983 -0.35553,-0.28884 -0.63884,-0.47772 -0.84992,-0.56662 l -0.96658,-0.23331 -1.01658,-0.05 c -0.45552,-0.0111 -0.96103,0.0833 -1.51653,0.2833 -0.51107,0.24444 -0.93881,0.68329 -1.283214,1.31655 -0.244429,0.58885 -0.466631,1.32768 -0.666607,2.21647 l 0.03333,0.1 c -0.06667,0.0556 -0.105552,0.23888 -0.116656,0.54995 -0.155548,1.2999 -0.172213,3.20528 -0.05,5.71615 l 0.266643,1.81651 0.349968,1.28321 c 0.255526,0.66662 0.605496,1.1499 1.049906,1.44987 0.39996,0.25554 0.94436,0.4333 1.63319,0.53329 z m -8.299252,-5.03288 c -0.03333,-0.62216 -0.05,-1.23321 -0.05,-1.83317 -1e-6,-0.29996 0.0056,-0.59993 0.01667,-0.89992 0.03333,-1.17766 0.127765,-2.322 0.283308,-3.43302 l 0,-0.11666 0.06666,-0.14999 0.116656,-1.14989 0.08333,-0.16665 0.166652,-0.93325 0.06666,-0.1 c 0.166649,-0.7999 0.527728,-1.69982 1.083235,-2.69975 l 0.48329,-0.73327 0.93325,-0.94991 c 0.988794,-0.79991 2.272011,-1.37208 3.849651,-1.71652 0.49995,-0.0889 1.01656,-0.13329 1.54986,-0.13332 l 0.13332,0 c 0.83325,0.0222 1.70539,0.16112 2.61643,0.41663 0.37773,0.0445 0.98323,0.29444 1.8165,0.74993 0.85547,0.53331 1.63318,1.26102 2.33313,2.18314 l 0.53328,0.81659 0.4333,0.91659 0.18331,0.6666 0.05,0.05 0,0.16665 c 0.11108,0.23333 0.17774,0.41665 0.19998,0.54995 l 0.0667,0.0833 0.28331,1.4832 0.05,0.0333 -0.0333,0.21665 0.0667,0.13332 0.16665,1.78317 0.0667,0.16665 -0.05,0.0167 0.11666,1.0499 -0.0333,0.0333 c 0.0444,0.11112 0.0444,0.17778 0,0.19998 l 0.05,0.16666 -0.0333,0.05 0.0833,1.13323 -0.0333,0.0333 0.05,0.48329 -0.0167,0.0333 0,0.66661 c -0.0111,0.41108 -0.0445,0.90548 -0.1,1.4832 l -0.0833,0.61661 0.0333,0.0333 -0.0833,0.16665 c -0.0333,0.41108 -0.12779,0.89993 -0.28331,1.46654 l -0.1,0.31664 -0.0167,0.18331 -0.43329,1.23322 -0.0833,0.0667 c -1e-5,0.1111 -0.14445,0.44996 -0.43329,1.01657 l -0.79993,1.1499 c -0.87771,1.01102 -1.84985,1.74984 -2.9164,2.21646 -0.69995,0.27776 -1.40544,0.46107 -2.11648,0.54995 l -1.28322,0.0833 -0.29997,-0.0167 c -2.53311,-0.0667 -4.577367,-0.88881 -6.132778,-2.46645 -0.7666,-0.85547 -1.344325,-1.84983 -1.733177,-2.98306 -0.444406,-1.15545 -0.716603,-2.372 -0.816593,-3.64968 z"
     style="font-family:Caracteres L1;-inkscape-font-specification:Caracteres L1"
     id="path3998"
     inkscape:connector-curvature="0" /></g><path
   style="fill:none;stroke:#aa0000;stroke-width:14.09500027;stroke-miterlimit:4"
   d="m 131.81151,130.58306 c 0,21.28097 -17.25164,38.53261 -38.53261,38.53261 -21.28098,0 -38.53261,-17.25164 -38.53261,-38.53261 0,-21.28098 17.25163,-38.532613 38.53261,-38.532613 21.28097,0 38.53261,17.251633 38.53261,38.532613 z"
   id="circle3503-8-4-1"
   inkscape:connector-curvature="0" /><g
   style="font-size:34.13026047px;font-style:normal;font-variant:normal;font-weight:normal;font-stretch:normal;line-height:125%;letter-spacing:0px;word-spacing:0px;fill:#000000;fill-opacity:1;stroke:none;font-family:DinC;-inkscape-font-specification:DinC"
   id="text3109-8-5-7"
   transform="translate(-0.39999998,-0.40000448)"><path
     d="m 91.109266,118.3942 -0.01667,4.68292 -8.232592,0 -0.566616,4.16629 c 0.777699,-0.22219 1.599846,-0.31663 2.466445,-0.28331 0.811027,-0.0222 1.638729,0.0667 2.48311,0.26664 1.222097,0.38887 2.310887,1.07214 3.266372,2.04982 1.322086,1.44432 2.072017,3.04418 2.249798,4.79957 0.01109,0.25554 0.01665,0.50551 0.01667,0.74993 -1.9e-5,1.06658 -0.138895,1.98871 -0.416629,2.76642 -0.511083,1.18878 -1.211019,2.25535 -2.099811,3.19971 -1.46655,1.37765 -3.255276,2.06648 -5.366184,2.06648 l -0.333303,0 -1.533195,-0.1 c -1.599864,-0.17776 -2.988626,-0.73882 -4.166292,-1.68318 -1.522088,-1.39988 -2.460892,-2.83863 -2.816413,-4.31628 l 4.799568,-1.21656 c 0.144424,0.6555 0.522168,1.24434 1.133231,1.76651 0.922131,0.67772 2.222012,0.8166 3.899649,0.41663 1.388751,-0.56661 2.038692,-1.55541 1.949825,-2.9664 0.03332,-1.27766 -0.544409,-2.18313 -1.733178,-2.71642 -0.822159,-0.24442 -1.749853,-0.31108 -2.783083,-0.19999 -0.788826,0.16667 -1.494317,0.47219 -2.116476,0.91659 l -4.149626,-3.24971 1.233222,-11.11567 z"
     style="font-family:Caracteres L1;-inkscape-font-specification:Caracteres L1"
     id="path3990"
     inkscape:connector-curvature="0" /><path
     d="m 102.99153,138.29241 c 0.68882,0.0445 1.11656,0.0333 1.28322,-0.0333 l 0.0167,0.0333 0.91659,-0.19998 c 0.73325,-0.24442 1.29431,-0.77215 1.68318,-1.58319 0.29996,-0.81103 0.52216,-1.77761 0.66661,-2.89974 l 0.0833,-3.76633 -0.05,-1.7665 -0.16666,-1.31655 -0.0667,-0.0667 -0.21664,-0.93325 -0.0667,-0.0333 c -0.16667,-0.66659 -0.48331,-1.2832 -0.94992,-1.84984 -0.35553,-0.28884 -0.63884,-0.47771 -0.84992,-0.56661 l -0.96658,-0.23331 -1.01658,-0.05 c -0.45552,-0.0111 -0.96103,0.0834 -1.51653,0.28331 -0.51107,0.24444 -0.93881,0.68329 -1.28321,1.31655 -0.24443,0.58885 -0.46664,1.32767 -0.666611,2.21646 l 0.03333,0.1 c -0.06667,0.0556 -0.105552,0.23889 -0.116656,0.54995 -0.155548,1.2999 -0.172213,3.20528 -0.05,5.71616 l 0.266643,1.8165 0.349974,1.28322 c 0.25552,0.66661 0.60549,1.1499 1.0499,1.44987 0.39996,0.25553 0.94435,0.4333 1.63319,0.53328 z m -8.299252,-5.03288 c -0.03333,-0.62215 -0.05,-1.23321 -0.05,-1.83317 -10e-7,-0.29996 0.0056,-0.59993 0.01667,-0.89992 0.03333,-1.17765 0.127765,-2.32199 0.283308,-3.43302 l 0,-0.11666 0.06666,-0.14998 0.116656,-1.1499 0.08333,-0.16665 0.166651,-0.93325 0.06666,-0.1 c 0.16665,-0.79991 0.527728,-1.69983 1.083236,-2.69976 l 0.48329,-0.73326 0.933249,-0.94992 c 0.988795,-0.7999 2.272012,-1.37207 3.849652,-1.71651 0.49994,-0.0889 1.01656,-0.1333 1.54986,-0.13332 l 0.13332,0 c 0.83325,0.0222 1.70539,0.16112 2.61643,0.41663 0.37773,0.0445 0.98323,0.29444 1.8165,0.74993 0.85547,0.53331 1.63317,1.26102 2.33313,2.18314 l 0.53328,0.81659 0.4333,0.91658 0.18331,0.66661 0.05,0.05 0,0.16665 c 0.11108,0.23333 0.17774,0.41664 0.19998,0.54995 l 0.0667,0.0833 0.28331,1.4832 0.05,0.0333 -0.0333,0.21665 0.0667,0.13332 0.16665,1.78317 0.0667,0.16666 -0.05,0.0167 0.11666,1.04991 -0.0333,0.0333 c 0.0444,0.11111 0.0444,0.17777 0,0.19998 l 0.05,0.16665 -0.0333,0.05 0.0833,1.13323 -0.0333,0.0333 0.05,0.48329 -0.0167,0.0333 0,0.6666 c -0.0111,0.41109 -0.0445,0.90549 -0.1,1.4832 l -0.0833,0.61662 0.0333,0.0333 -0.0833,0.16665 c -0.0333,0.41108 -0.12779,0.89992 -0.28331,1.46653 l -0.1,0.31664 -0.0167,0.18332 -0.43329,1.23322 -0.0833,0.0667 c -1e-5,0.11111 -0.14445,0.44996 -0.43329,1.01658 l -0.79993,1.14989 c -0.87771,1.01102 -1.84985,1.74985 -2.9164,2.21647 -0.69995,0.27775 -1.40544,0.46107 -2.11648,0.54995 l -1.28322,0.0833 -0.29997,-0.0167 c -2.53311,-0.0667 -4.577368,-0.88881 -6.132778,-2.46644 -0.766601,-0.85548 -1.344326,-1.84983 -1.733178,-2.98307 -0.444406,-1.15544 -0.716603,-2.372 -0.816593,-3.64967 z"
     style="font-family:Caracteres L1;-inkscape-font-specification:Caracteres L1"
     id="path3992"
     inkscape:connector-curvature="0" /></g></svg>