<?xml version="1.0" encoding="UTF-8" standalone="no"?>
<!-- Generator: Adobe Illustrator 16.0.2, SVG Export Plug-In . SVG Version: 6.00 Build 0)  -->

<svg
   xmlns:dc="http://purl.org/dc/elements/1.1/"
   xmlns:cc="http://creativecommons.org/ns#"
   xmlns:rdf="http://www.w3.org/1999/02/22-rdf-syntax-ns#"
   xmlns:svg="http://www.w3.org/2000/svg"
   xmlns="http://www.w3.org/2000/svg"
   xmlns:sodipodi="http://sodipodi.sourceforge.net/DTD/sodipodi-0.dtd"
   xmlns:inkscape="http://www.inkscape.org/namespaces/inkscape"
   version="1.1"
   id="svg2"
   sodipodi:docname="AJAX1.svg"
   inkscape:version="0.48.2 r9819"
   x="0px"
   y="0px"
   width="597.49597"
   height="871.90222"
   viewBox="0 0 597.49596 871.90221"
   xml:space="preserve"><metadata
   id="metadata73"><rdf:RDF><cc:Work
       rdf:about=""><dc:format>image/svg+xml</dc:format><dc:type
         rdf:resource="http://purl.org/dc/dcmitype/StillImage" /></cc:Work></rdf:RDF></metadata><defs
   id="defs71" />
<sodipodi:namedview
   id="namedview108"
   inkscape:window-height="1004"
   inkscape:window-width="1280"
   inkscape:pageshadow="2"
   inkscape:pageopacity="0"
   inkscape:window-x="-8"
   fit-margin-bottom="0.2"
   fit-margin-right="0.2"
   inkscape:current-layer="svg2"
   inkscape:window-y="-8"
   inkscape:window-maximized="1"
   inkscape:zoom="0.84561223"
   inkscape:cx="111.15336"
   bordercolor="#666666"
   fit-margin-left="0.2"
   showgrid="false"
   gridtolerance="10"
   pagecolor="#ffffff"
   guidetolerance="10"
   objecttolerance="10"
   fit-margin-top="0.2"
   inkscape:cy="576.16447"
   borderopacity="1">
	</sodipodi:namedview>
<polygon
   id="polygon6"
   style="fill:#ffffff;stroke:#000000;stroke-width:2;stroke-linecap:round;stroke-linejoin:round"
   points="586.102,863.248 582.487,865.923 578.486,867.895 574.222,869.102 569.823,869.507 25.373,869.507 20.976,869.102 16.712,867.895 12.712,865.923 9.095,863.248 5.974,859.951 3.443,856.131 1.577,851.904 0.435,847.399 0.05,842.753 0.05,26.756 0.435,22.11 1.577,17.606 3.443,13.379 5.974,9.559 9.095,6.261 12.712,3.586 16.712,1.616 20.976,0.409 25.373,0.002 569.823,0.002 574.222,0.409 578.486,1.616 582.487,3.586 586.102,6.261 589.224,9.559 591.755,13.379 593.619,17.606 594.763,22.11 595.148,26.756 595.148,842.753 594.763,847.399 593.619,851.904 591.755,856.131 589.224,859.951 "
   transform="translate(1.1385973,1.2010991)" />
<polyline
   id="polyline8"
   style="fill:#003399"
   points="19.606,15.547 19.606,852.461 575.593,852.461 575.593,15.547   19.606,15.547 "
   transform="translate(1.1385973,1.2010991)" />
<polyline
   id="polyline10"
   style="fill:#ffffff"
   points="59.492,544.15 535.739,544.15 535.739,808.253 59.492,808.253   59.492,544.15 "
   transform="translate(1.1385973,1.2010991)" />
<polyline
   id="polyline12"
   style="fill:#ffffff"
   points="59.703,235.254 539.65,235.254 539.65,510.204 59.703,510.204   59.703,235.254 "
   transform="translate(1.1385973,1.2010991)" />
<polyline
   id="polyline14"
   style="fill:#003399;stroke:#ffffff;stroke-width:3;stroke-linecap:round"
   points="224.819,199.313   355.402,199.313 355.402,68.732 224.819,68.732 224.819,199.313 "
   transform="translate(1.1385973,1.2010991)" />
<polyline
   id="polyline16"
   style="fill:#ffffff"
   points="294.183,126.849 316.761,126.849 329.427,189.96 296.331,189.96   294.183,126.849 "
   transform="translate(1.1385973,1.2010991)" />
<polyline
   id="polyline18"
   style="fill:#ffffff"
   points="291.769,75.327 308.613,75.327 314.571,106.431 293.722,106.431   291.769,75.327 "
   transform="translate(1.1385973,1.2010991)" />
<polyline
   id="polyline20"
   style="fill:#ffffff"
   points="286.038,126.849 263.46,126.849 250.794,189.96 283.89,189.96   286.038,126.849 "
   transform="translate(1.1385973,1.2010991)" />
<polyline
   id="polyline22"
   style="fill:#ffffff"
   points="288.452,75.327 271.609,75.327 265.651,106.431 286.499,106.431   288.452,75.327 "
   transform="translate(1.1385973,1.2010991)" />
<polyline
   id="polyline24"
   style="fill:#ffffff"
   points="290.112,111.834 349.167,111.834 349.167,121.219 338.167,121.219   338.167,138 324.382,138 324.382,122.61 290.112,122.47 255.84,122.61 255.84,138 242.054,138 242.054,121.219 231.054,121.219   231.054,111.834 290.112,111.834 "
   transform="translate(1.1385973,1.2010991)" />
<path
   id="path28"
   inkscape:connector-curvature="0"
   style="fill:#d40000"
   d="m 385.1506,377.5341 c 0,-46.05 -37.331,-83.379 -83.378,-83.379 -46.05,0 -83.379,37.329 -83.379,83.379 0,46.049 37.329,83.379 83.379,83.379 46.047,-10e-4 83.378,-37.331 83.378,-83.379 l 0,0 0,0 z" />
<path
   id="path30"
   inkscape:connector-curvature="0"
   style="fill:#ffffff"
   d="m 360.8646,377.5341 c 0,-32.635 -26.455,-59.092 -59.092,-59.092 -32.637,0 -59.093,26.457 -59.093,59.092 0,32.636 26.456,59.093 59.093,59.093 32.637,-10e-4 59.092,-26.457 59.092,-59.093 l 0,0 0,0 z" />
<path
   id="path40"
   inkscape:connector-curvature="0"
   style="fill:#d40000"
   d="m 268.0746,670.0871 c 0,-46.05 -37.332,-83.379 -83.378,-83.379 -46.05,0 -83.379,37.329 -83.379,83.379 0,46.048 37.329,83.38 83.379,83.38 46.047,0 83.378,-37.331 83.378,-83.38 l 0,0 0,0 z" />
<path
   id="path42"
   inkscape:connector-curvature="0"
   style="fill:#ffffff"
   d="m 243.7886,670.0871 c 0,-32.637 -26.454,-59.093 -59.092,-59.093 -32.636,0 -59.093,26.456 -59.093,59.093 0,32.638 26.457,59.094 59.093,59.094 32.638,-10e-4 59.092,-26.457 59.092,-59.094 l 0,0 0,0 z" />
<path
   id="path50"
   inkscape:connector-curvature="0"
   style="fill:none;stroke:#000000;stroke-width:4;stroke-linecap:round;stroke-linejoin:round"
   d="m 336.1436,618.3771 c -9.774,-3.023 -9.46,21.583 0.813,24.52 5.367,1.533 10.11,2.48 15.704,2.48 6.84,0 10.302,-1.91 16.481,-5 0,3.743 -0.87,11.397 2.094,13.938 5.761,4.938 7.833,5.255 15.477,6.02 6.648,0.665 7.865,2.27 14.261,-0.289 6.164,-2.466 5.17,-7.401 5.17,-13.668 2.772,5.547 3.169,8.936 10,9 7.048,0.067 7.798,-2.396 11,-8 3.611,6.623 5.134,10.505 11.611,14.207 4.166,2.381 13.125,0.793 17.891,0.793 4.021,0 5.632,-13.405 10.887,-11.495 7.565,2.751 13.213,3.772 21.26,4.393 3.375,0.259 13.86,-3.095 14.73,-6.285 1.983,-7.277 2.621,-12.688 2.621,-20.234 0,-11.265 -19.794,-18.729 -28,-22.377 2.992,-4.188 6.924,-8.299 5,-14 -1.566,-4.642 -7.889,-9 -12.375,-9 -4.627,0 -8.943,-0.341 -13.182,1.777 -6.436,3.219 -6.443,6.285 -6.443,13.223 -4.127,-7.223 -8.741,-13.828 -15.753,-18.502 -4.184,-2.788 -8.3,-5.022 -12.805,-7.275 -3.499,-1.75 -10.99,-0.223 -14.875,-0.223 -8.756,0 -18.567,1.969 -18.567,12.5 0,8.834 -1.549,17.793 -3,26.5 -1.354,-11.503 -0.693,-23.77 -10.47,-31.102 -13.813,-10.359 -16.441,8.546 -14.53,18.102 -8.533,-1.623 -15.335,-6.617 -23.245,-0.968 -8.226,5.874 1.819,15.909 6.245,20.968 -2.667,-0.003 -5.333,-0.003 -8,-0.003" />
<line
   id="line52"
   style="fill:none;stroke:#000000;stroke-width:4;stroke-linecap:round;stroke-linejoin:round"
   x1="322.14362"
   y1="692.37714"
   x2="299.14362"
   y2="716.37714" />
<line
   id="line54"
   style="fill:none;stroke:#000000;stroke-width:4;stroke-linecap:round;stroke-linejoin:round"
   x1="360.14362"
   y1="674.37714"
   x2="337.14362"
   y2="698.37714" />
<line
   id="line56"
   style="fill:none;stroke:#000000;stroke-width:4;stroke-linecap:round;stroke-linejoin:round"
   x1="330.14362"
   y1="705.37714"
   x2="307.14362"
   y2="729.37714" />
<line
   id="line58"
   style="fill:none;stroke:#000000;stroke-width:4;stroke-linecap:round;stroke-linejoin:round"
   x1="297.14362"
   y1="740.37714"
   x2="274.14362"
   y2="764.37714" />
<line
   id="line60"
   style="fill:none;stroke:#000000;stroke-width:4;stroke-linecap:round;stroke-linejoin:round"
   x1="357.14362"
   y1="697.37714"
   x2="334.14362"
   y2="721.37714" />
<line
   id="line62"
   style="fill:none;stroke:#000000;stroke-width:4;stroke-linecap:round;stroke-linejoin:round"
   x1="327.14362"
   y1="728.37714"
   x2="304.14362"
   y2="752.37714" />
<line
   id="line64"
   style="fill:none;stroke:#000000;stroke-width:4;stroke-linecap:round;stroke-linejoin:round"
   x1="294.14362"
   y1="763.37714"
   x2="271.14362"
   y2="787.37714" />
<line
   id="line66"
   style="fill:none;stroke:#000000;stroke-width:4;stroke-linecap:round;stroke-linejoin:round"
   x1="397.14362"
   y1="676.37714"
   x2="374.14362"
   y2="700.37714" />
<line
   id="line68"
   style="fill:none;stroke:#000000;stroke-width:4;stroke-linecap:round;stroke-linejoin:round"
   x1="367.14362"
   y1="707.37714"
   x2="344.14362"
   y2="731.37714" />
<line
   id="line70"
   style="fill:none;stroke:#000000;stroke-width:4;stroke-linecap:round;stroke-linejoin:round"
   x1="334.14362"
   y1="742.37714"
   x2="311.14362"
   y2="766.37714" />
<line
   id="line72"
   style="fill:none;stroke:#000000;stroke-width:4;stroke-linecap:round;stroke-linejoin:round"
   x1="399.14362"
   y1="692.37714"
   x2="376.14362"
   y2="716.37714" />
<line
   id="line74"
   style="fill:none;stroke:#000000;stroke-width:4;stroke-linecap:round;stroke-linejoin:round"
   x1="369.14362"
   y1="723.37714"
   x2="346.14362"
   y2="747.37714" />
<line
   id="line76"
   style="fill:none;stroke:#000000;stroke-width:4;stroke-linecap:round;stroke-linejoin:round"
   x1="336.14362"
   y1="758.37714"
   x2="313.14362"
   y2="782.37714" />
<line
   id="line78"
   style="fill:none;stroke:#000000;stroke-width:4;stroke-linecap:round;stroke-linejoin:round"
   x1="435.14362"
   y1="673.37714"
   x2="412.14362"
   y2="697.37714" />
<line
   id="line80"
   style="fill:none;stroke:#000000;stroke-width:4;stroke-linecap:round;stroke-linejoin:round"
   x1="405.14362"
   y1="704.37714"
   x2="382.14362"
   y2="728.37714" />
<line
   id="line82"
   style="fill:none;stroke:#000000;stroke-width:4;stroke-linecap:round;stroke-linejoin:round"
   x1="372.14362"
   y1="739.37714"
   x2="349.14362"
   y2="763.37714" />
<line
   id="line84"
   style="fill:none;stroke:#000000;stroke-width:4;stroke-linecap:round;stroke-linejoin:round"
   x1="438.14362"
   y1="689.37714"
   x2="415.14362"
   y2="713.37714" />
<line
   id="line86"
   style="fill:none;stroke:#000000;stroke-width:4;stroke-linecap:round;stroke-linejoin:round"
   x1="408.14362"
   y1="720.37714"
   x2="385.14362"
   y2="744.37714" />
<line
   id="line88"
   style="fill:none;stroke:#000000;stroke-width:4;stroke-linecap:round;stroke-linejoin:round"
   x1="375.14362"
   y1="755.37714"
   x2="352.14362"
   y2="779.37714" />
<line
   id="line90"
   style="fill:none;stroke:#000000;stroke-width:4;stroke-linecap:round;stroke-linejoin:round"
   x1="473.14362"
   y1="673.37714"
   x2="450.14362"
   y2="697.37714" />
<line
   id="line92"
   style="fill:none;stroke:#000000;stroke-width:4;stroke-linecap:round;stroke-linejoin:round"
   x1="443.14362"
   y1="704.37714"
   x2="420.14362"
   y2="728.37714" />
<line
   id="line94"
   style="fill:none;stroke:#000000;stroke-width:4;stroke-linecap:round;stroke-linejoin:round"
   x1="410.14362"
   y1="739.37714"
   x2="387.14362"
   y2="763.37714" />
<line
   id="line96"
   style="fill:none;stroke:#000000;stroke-width:4;stroke-linecap:round;stroke-linejoin:round"
   x1="475.14362"
   y1="689.37714"
   x2="452.14362"
   y2="713.37714" />
<line
   id="line98"
   style="fill:none;stroke:#000000;stroke-width:4;stroke-linecap:round;stroke-linejoin:round"
   x1="445.14362"
   y1="720.37714"
   x2="422.14362"
   y2="744.37714" />
<line
   id="line100"
   style="fill:none;stroke:#000000;stroke-width:4;stroke-linecap:round;stroke-linejoin:round"
   x1="412.14362"
   y1="755.37714"
   x2="389.14362"
   y2="779.37714" />
<line
   id="line102"
   style="fill:none;stroke:#000000;stroke-width:4;stroke-linecap:round;stroke-linejoin:round"
   x1="510.14362"
   y1="673.37714"
   x2="487.14362"
   y2="697.37714" />
<line
   id="line104"
   style="fill:none;stroke:#000000;stroke-width:4;stroke-linecap:round;stroke-linejoin:round"
   x1="480.14362"
   y1="704.37714"
   x2="457.14362"
   y2="728.37714" />
<line
   id="line106"
   style="fill:none;stroke:#000000;stroke-width:4;stroke-linecap:round;stroke-linejoin:round"
   x1="447.14362"
   y1="739.37714"
   x2="424.14362"
   y2="763.37714" />
<g
   id="g47"
   transform="translate(1.1385973,1.2010991)">
	<rect
   x="239.56599"
   y="352.75101"
   style="fill:none"
   width="117.964"
   height="83"
   id="rect49" />
	<path
   d="m 269.929,352.817 v 48.775 h -9.264 l 0.033,-34.432 h -0.133 c -0.066,0.288 -0.863,0.919 -2.391,1.893 l -2.889,1.527 -2.59,0.996 c -1.041,0.222 -1.605,0.388 -1.693,0.498 v -10.293 l 2.059,-0.963 c 3.431,-2.191 5.899,-4.858 7.404,-8.002 h 9.464 z"
   id="path51"
   inkscape:connector-curvature="0" />
	<path
   d="m 299.199,352.718 c 1.814,0.376 3.541,1.107 5.18,2.191 l 2.258,1.926 c 0.996,1.195 1.638,2.037 1.926,2.523 l 1.029,2.059 c 0.575,1.683 0.885,3.398 0.93,5.146 l -0.166,2.523 -0.564,1.859 c -0.643,1.594 -1.639,3.21 -2.988,4.848 l 0.166,0.432 1.594,1.76 1.029,1.561 0.93,2.324 c 0.509,1.616 0.764,3.199 0.764,4.748 0,3.144 -1.052,6.132 -3.154,8.965 -3.188,3.83 -7.316,5.833 -12.385,6.01 -1.837,0 -3.354,-0.11 -4.549,-0.332 -1.55,-0.42 -2.646,-0.774 -3.287,-1.063 l -1.992,-0.996 -1.693,-1.229 -1.527,-1.361 -1.561,-2.025 c -0.908,-1.483 -1.55,-2.889 -1.926,-4.217 l -0.033,-0.299 8.732,-2.391 c 0.42,1.66 1.472,2.922 3.154,3.785 1.04,0.421 2.579,0.653 4.615,0.697 l 1.561,-0.166 1.262,-0.398 0.963,-0.564 c 0.664,-0.442 1.262,-1.096 1.793,-1.959 0.266,-0.553 0.465,-1.306 0.598,-2.258 0.044,-0.774 0,-1.217 -0.133,-1.328 0.044,-0.354 -0.111,-0.896 -0.465,-1.627 l -0.83,-1.162 c -0.598,-0.598 -1.118,-1.007 -1.561,-1.229 -0.554,-0.31 -1.295,-0.564 -2.225,-0.764 l -3.619,-0.1 v -8.998 c 0.487,0.044 1.45,-0.022 2.889,-0.199 l 0.066,0.066 c 2.634,-0.31 4.294,-1.749 4.981,-4.316 l -0.066,-1.494 0.066,-0.232 -0.133,-0.465 -0.631,-1.229 c -0.62,-0.774 -1.185,-1.284 -1.693,-1.527 -0.089,-0.066 -0.842,-0.266 -2.258,-0.598 l -2.092,0.066 v -0.066 l -2.059,0.332 -1.461,0.631 -0.598,0.465 -0.664,0.963 -0.498,1.229 -8.633,-2.59 0.564,-1.494 0.199,-0.199 c -0.044,-0.11 0.21,-0.664 0.764,-1.66 l 0.93,-1.494 1.328,-1.527 c 0.487,-0.266 0.73,-0.465 0.73,-0.598 l 0.697,-0.498 c 1.727,-1.284 3.741,-2.103 6.043,-2.457 1.151,-0.177 2.534,-0.266 4.15,-0.266 1.173,0 2.358,0.089 3.553,0.266 z"
   id="path53"
   inkscape:connector-curvature="0" />
	<path
   d="m 318.699,382.401 c -0.066,-1.239 -0.1,-2.457 -0.1,-3.652 0,-0.598 0.011,-1.195 0.033,-1.793 0.066,-2.346 0.254,-4.626 0.564,-6.84 v -0.232 l 0.133,-0.299 0.232,-2.291 0.166,-0.332 0.332,-1.859 0.133,-0.199 c 0.332,-1.594 1.051,-3.387 2.158,-5.379 l 0.963,-1.461 1.859,-1.893 c 1.97,-1.594 4.526,-2.733 7.67,-3.42 0.996,-0.177 2.025,-0.266 3.088,-0.266 h 0.266 c 1.66,0.044 3.397,0.321 5.213,0.83 0.752,0.089 1.959,0.587 3.619,1.494 1.704,1.063 3.254,2.513 4.648,4.35 l 1.063,1.627 0.863,1.826 0.365,1.328 0.1,0.1 v 0.332 c 0.221,0.465 0.354,0.83 0.398,1.096 l 0.133,0.166 0.564,2.955 0.1,0.066 -0.066,0.432 0.133,0.266 0.332,3.553 0.133,0.332 -0.1,0.033 0.232,2.092 -0.066,0.066 c 0.088,0.222 0.088,0.354 0,0.398 l 0.1,0.332 -0.066,0.1 0.166,2.258 -0.066,0.066 0.1,0.963 -0.033,0.066 v 1.328 c -0.022,0.819 -0.089,1.804 -0.199,2.955 l -0.166,1.229 0.066,0.066 -0.166,0.332 c -0.066,0.819 -0.255,1.793 -0.564,2.922 l -0.199,0.631 -0.033,0.365 -0.863,2.457 -0.166,0.133 c 0,0.222 -0.288,0.896 -0.863,2.025 l -1.594,2.291 c -1.749,2.015 -3.686,3.486 -5.811,4.416 -1.395,0.554 -2.801,0.918 -4.217,1.096 l -2.557,0.166 -0.598,-0.033 c -5.047,-0.133 -9.12,-1.771 -12.219,-4.914 -1.527,-1.704 -2.679,-3.686 -3.453,-5.943 -0.886,-2.302 -1.428,-4.726 -1.627,-7.271 l -0.133,-1.462 z m 16.536,10.028 c 1.372,0.089 2.225,0.066 2.557,-0.066 l 0.033,0.066 1.826,-0.398 c 1.461,-0.487 2.578,-1.538 3.354,-3.154 0.598,-1.616 1.04,-3.542 1.328,-5.777 l 0.166,-7.504 -0.1,-3.52 -0.332,-2.623 -0.133,-0.133 -0.432,-1.859 -0.133,-0.066 c -0.332,-1.328 -0.963,-2.557 -1.893,-3.686 -0.709,-0.575 -1.273,-0.952 -1.693,-1.129 l -1.926,-0.465 -2.025,-0.1 c -0.908,-0.022 -1.915,0.166 -3.021,0.564 -1.019,0.487 -1.871,1.361 -2.557,2.623 -0.487,1.173 -0.93,2.646 -1.328,4.416 l 0.066,0.199 c -0.133,0.111 -0.211,0.476 -0.232,1.096 -0.311,2.59 -0.344,6.386 -0.1,11.389 l 0.531,3.619 0.697,2.557 c 0.509,1.328 1.206,2.291 2.092,2.889 0.798,0.508 1.882,0.862 3.255,1.062 z"
   id="path55"
   inkscape:connector-curvature="0" />
</g>
<g
   id="g57"
   transform="translate(1.1385973,1.2010991)">
</g>
<g
   id="g59"
   transform="translate(1.1385973,1.2010991)">
</g>
<g
   id="g61"
   transform="translate(1.1385973,1.2010991)">
	<rect
   x="121.602"
   y="649.67603"
   style="fill:none"
   width="117.964"
   height="83"
   id="rect63" />
	<path
   d="m 152.015,649.742 v 48.775 h -9.264 l 0.033,-34.432 h -0.133 c -0.066,0.288 -0.863,0.919 -2.391,1.893 l -2.889,1.527 -2.59,0.996 c -1.041,0.222 -1.605,0.388 -1.693,0.498 v -10.293 l 2.059,-0.963 c 3.431,-2.191 5.899,-4.858 7.404,-8.002 h 9.464 z"
   id="path65"
   inkscape:connector-curvature="0" />
	<path
   d="m 186.198,649.742 v 48.775 h -9.263 l 0.033,-34.432 h -0.133 c -0.066,0.288 -0.863,0.919 -2.391,1.893 l -2.889,1.527 -2.59,0.996 c -1.041,0.222 -1.605,0.388 -1.693,0.498 v -10.293 l 2.059,-0.963 c 3.431,-2.191 5.899,-4.858 7.404,-8.002 h 9.463 z"
   id="path67"
   inkscape:connector-curvature="0" />
	<path
   d="m 200.686,679.326 c -0.066,-1.239 -0.1,-2.457 -0.1,-3.652 0,-0.598 0.011,-1.195 0.033,-1.793 0.066,-2.347 0.254,-4.626 0.564,-6.84 v -0.232 l 0.133,-0.299 0.232,-2.291 0.166,-0.332 0.332,-1.859 0.133,-0.199 c 0.332,-1.594 1.051,-3.387 2.158,-5.379 l 0.963,-1.461 1.859,-1.893 c 1.97,-1.594 4.526,-2.733 7.67,-3.42 0.996,-0.177 2.025,-0.266 3.088,-0.266 h 0.266 c 1.66,0.044 3.397,0.321 5.213,0.83 0.752,0.089 1.959,0.587 3.619,1.494 1.704,1.063 3.254,2.513 4.648,4.35 l 1.063,1.627 0.863,1.826 0.365,1.328 0.1,0.1 v 0.332 c 0.221,0.465 0.354,0.83 0.398,1.096 l 0.133,0.166 0.564,2.955 0.1,0.066 -0.066,0.432 0.133,0.266 0.332,3.553 0.133,0.332 -0.1,0.033 0.232,2.092 -0.066,0.066 c 0.088,0.222 0.088,0.354 0,0.398 l 0.1,0.332 -0.066,0.1 0.166,2.258 -0.066,0.066 0.1,0.963 -0.033,0.066 v 1.328 c -0.022,0.819 -0.089,1.804 -0.199,2.955 l -0.166,1.229 0.066,0.066 -0.166,0.332 c -0.066,0.819 -0.255,1.793 -0.564,2.922 l -0.2,0.631 -0.033,0.365 -0.863,2.457 -0.166,0.133 c 0,0.222 -0.288,0.896 -0.863,2.025 l -1.594,2.291 c -1.749,2.015 -3.686,3.486 -5.811,4.416 -1.395,0.554 -2.801,0.919 -4.217,1.096 l -2.557,0.166 -0.598,-0.033 c -5.047,-0.133 -9.12,-1.771 -12.219,-4.914 -1.527,-1.704 -2.679,-3.686 -3.453,-5.943 -0.886,-2.302 -1.428,-4.726 -1.627,-7.271 l -0.132,-1.462 z m 16.535,10.028 c 1.372,0.089 2.225,0.066 2.557,-0.066 l 0.033,0.066 1.826,-0.398 c 1.461,-0.487 2.578,-1.538 3.354,-3.154 0.598,-1.616 1.04,-3.542 1.328,-5.777 l 0.166,-7.504 -0.1,-3.52 -0.332,-2.623 -0.133,-0.133 -0.432,-1.859 -0.133,-0.066 c -0.332,-1.328 -0.963,-2.557 -1.893,-3.686 -0.709,-0.575 -1.273,-0.952 -1.693,-1.129 l -1.926,-0.465 -2.025,-0.1 c -0.908,-0.022 -1.915,0.166 -3.021,0.564 -1.019,0.487 -1.871,1.361 -2.557,2.623 -0.487,1.173 -0.93,2.646 -1.328,4.416 l 0.066,0.199 c -0.133,0.11 -0.211,0.476 -0.232,1.096 -0.311,2.59 -0.344,6.386 -0.1,11.389 l 0.531,3.619 0.697,2.557 c 0.509,1.328 1.206,2.291 2.092,2.889 0.798,0.508 1.882,0.862 3.255,1.062 z"
   id="path69"
   inkscape:connector-curvature="0" />
</g>
</svg>