<?xml version="1.0" encoding="UTF-8" standalone="no"?>
<!-- Generator: Adobe Illustrator 13.0.0, SVG Export Plug-In  -->

<svg
   xmlns:dc="http://purl.org/dc/elements/1.1/"
   xmlns:cc="http://creativecommons.org/ns#"
   xmlns:rdf="http://www.w3.org/1999/02/22-rdf-syntax-ns#"
   xmlns:svg="http://www.w3.org/2000/svg"
   xmlns="http://www.w3.org/2000/svg"
   xmlns:sodipodi="http://sodipodi.sourceforge.net/DTD/sodipodi-0.dtd"
   xmlns:inkscape="http://www.inkscape.org/namespaces/inkscape"
   version="1.1"
   x="0px"
   y="0px"
   width="597.21875"
   height="599.9375"
   viewBox="0 -0.031 597.21875 599.9375"
   enable-background="new 0 -0.031 598 600"
   xml:space="preserve"
   id="svg2"
   inkscape:version="0.48.1 "
   sodipodi:docname="AJAX.svg"><metadata
   id="metadata38"><rdf:RDF><cc:Work
       rdf:about=""><dc:format>image/svg+xml</dc:format><dc:type
         rdf:resource="http://purl.org/dc/dcmitype/StillImage" /></cc:Work></rdf:RDF></metadata><sodipodi:namedview
   pagecolor="#ffffff"
   bordercolor="#666666"
   borderopacity="1"
   objecttolerance="10"
   gridtolerance="10"
   guidetolerance="10"
   inkscape:pageopacity="0"
   inkscape:pageshadow="2"
   inkscape:window-width="1280"
   inkscape:window-height="1004"
   id="namedview36"
   showgrid="false"
   fit-margin-top="0"
   fit-margin-left="0"
   fit-margin-right="0"
   fit-margin-bottom="0"
   inkscape:zoom="0.87"
   inkscape:cx="350.9375"
   inkscape:cy="303.17772"
   inkscape:window-x="-8"
   inkscape:window-y="-8"
   inkscape:window-maximized="1"
   inkscape:current-layer="svg2" />
<defs
   id="defs4">
</defs>
<path
   d="m 43.515,598.90775 h 510.183 c 11.275,0 22.089,-4.498 30.063,-12.508 7.973,-8.011 12.452,-18.873 12.452,-30.201 v -512.519 c 0,-11.327 -4.479,-22.191 -12.452,-30.2 -7.974,-8.01 -18.787,-12.51 -30.063,-12.51 H 43.515 c -11.275,0 -22.09,4.5 -30.062,12.51 C 5.479,21.48875 1,32.35275 1,43.67975 v 512.519 c 0,11.328 4.479,22.19 12.453,30.201 7.972,8.009 18.787,12.508 30.062,12.508 z"
   id="path6"
   inkscape:connector-curvature="0"
   style="fill:#ffffff;stroke:#000000;stroke-width:2;stroke-linecap:round;stroke-linejoin:round" />
<polyline
   points="43.458,553.011 553.542,553.011 553.542,42.927 43.458,42.927 43.458,553.011 "
   id="polyline8"
   style="fill:#003399;fill-opacity:1;stroke:none"
   transform="translate(0,-0.03025)" />
<path
   d="m 346,232.04875 v 172.363 l -3,-13.363 c -32.987,-118.685 -89.874,-229.989 -174.077,-320 H 63.5 l 4.5,4 c 123.847,123.603 193.397,290.607 217.574,462 H 385 v -305 h -39 z"
   id="path10"
   style="fill:#ffffff;stroke:none"
   inkscape:connector-curvature="0" />
<rect
   x="327.33301"
   y="100.71575"
   width="77.334"
   height="140.66701"
   id="rect12"
   style="fill:#ffffff;stroke:none" />
<rect
   x="335"
   y="129.72572"
   width="19.334"
   height="17.311001"
   id="rect14"
   style="fill:#d40000;fill-opacity:1;stroke:#d40000;stroke-width:1;stroke-opacity:1" />
<rect
   x="335"
   y="164.02673"
   width="19.334"
   height="15.979"
   id="rect16"
   style="fill:#d40000;fill-opacity:1;stroke:#d40000;stroke-width:1;stroke-opacity:1" />
<rect
   x="335"
   y="195.73672"
   width="19.334"
   height="17.312"
   id="rect18"
   style="fill:#d40000;fill-opacity:1;stroke:#d40000;stroke-width:1;stroke-opacity:1" />
<rect
   x="376.33301"
   y="129.72572"
   width="19.334"
   height="17.311001"
   id="rect20"
   style="fill:#d40000;fill-opacity:1;stroke:#d40000;stroke-width:1;stroke-opacity:1" />
<rect
   x="376.33301"
   y="164.02673"
   width="19.334"
   height="15.979"
   id="rect22"
   style="fill:#d40000;fill-opacity:1;stroke:#d40000;stroke-width:1;stroke-opacity:1" />
<rect
   x="376.33301"
   y="195.73573"
   width="19.334"
   height="17.312"
   id="rect24"
   style="fill:#d40000;fill-opacity:1;stroke:#d40000;stroke-width:1;stroke-opacity:1" />
<rect
   x="356.33401"
   y="109.72575"
   width="19.334"
   height="17.978001"
   id="rect26"
   style="fill:#d40000;fill-opacity:1;stroke:#d40000;stroke-width:1;stroke-opacity:1" />
<rect
   x="355.66699"
   y="147.34973"
   width="19.334"
   height="16.646"
   id="rect28"
   style="fill:#d40000;fill-opacity:1;stroke:#d40000;stroke-width:1;stroke-opacity:1" />
<rect
   x="355.66699"
   y="179.72572"
   width="19.334"
   height="15.979"
   id="rect30"
   style="fill:#d40000;fill-opacity:1;stroke:#d40000;stroke-width:1;stroke-opacity:1" />
<rect
   x="356.33401"
   y="213.72572"
   width="19.334"
   height="17.979"
   id="rect32"
   style="fill:#d40000;fill-opacity:1;stroke:#d40000;stroke-width:1;stroke-opacity:1" />
<rect
   x="334.668"
   y="109.04875"
   width="61.333"
   height="122.667"
   id="rect34"
   style="fill:none;stroke:#d40000;stroke-width:4;stroke-opacity:1" />
</svg>