<?xml version="1.0" encoding="UTF-8" standalone="no"?>
<!-- Generator: Adobe Illustrator 13.0.0, SVG Export Plug-In  -->

<svg
   xmlns:dc="http://purl.org/dc/elements/1.1/"
   xmlns:cc="http://creativecommons.org/ns#"
   xmlns:rdf="http://www.w3.org/1999/02/22-rdf-syntax-ns#"
   xmlns:svg="http://www.w3.org/2000/svg"
   xmlns="http://www.w3.org/2000/svg"
   xmlns:sodipodi="http://sodipodi.sourceforge.net/DTD/sodipodi-0.dtd"
   xmlns:inkscape="http://www.inkscape.org/namespaces/inkscape"
   version="1.1"
   x="0px"
   y="0px"
   width="597.21875"
   height="599.9375"
   viewBox="0 -0.031 597.21875 599.9375"
   enable-background="new 0 -0.031 598 600"
   xml:space="preserve"
   id="svg2"
   inkscape:version="0.48.1 "
   sodipodi:docname="AJAX.svg"><metadata
   id="metadata38"><rdf:RDF><cc:Work
       rdf:about=""><dc:format>image/svg+xml</dc:format><dc:type
         rdf:resource="http://purl.org/dc/dcmitype/StillImage" /></cc:Work></rdf:RDF></metadata><sodipodi:namedview
   pagecolor="#ffffff"
   bordercolor="#666666"
   borderopacity="1"
   objecttolerance="10"
   gridtolerance="10"
   guidetolerance="10"
   inkscape:pageopacity="0"
   inkscape:pageshadow="2"
   inkscape:window-width="1280"
   inkscape:window-height="1004"
   id="namedview36"
   showgrid="false"
   fit-margin-top="0"
   fit-margin-left="0"
   fit-margin-right="0"
   fit-margin-bottom="0"
   inkscape:zoom="0.87"
   inkscape:cx="350.9375"
   inkscape:cy="303.17747"
   inkscape:window-x="-8"
   inkscape:window-y="-8"
   inkscape:window-maximized="1"
   inkscape:current-layer="svg2" />
<defs
   id="defs4">
</defs>
<path
   d="M 553.698,598.908 H 43.515 C 32.24,598.908 21.426,594.41 13.452,586.4 5.479,578.389 1,567.527 1,556.199 V 43.68 C 1,32.353 5.479,21.489 13.452,13.48 21.426,5.47 32.239,0.97 43.515,0.97 h 510.183 c 11.275,0 22.09,4.5 30.062,12.51 7.974,8.009 12.453,18.873 12.453,30.2 v 512.519 c 0,11.328 -4.479,22.19 -12.453,30.201 -7.972,8.009 -18.787,12.508 -30.062,12.508 z"
   id="path6"
   inkscape:connector-curvature="0"
   style="fill:#ffffff;stroke:#000000;stroke-width:2;stroke-linecap:round;stroke-linejoin:round" />
<polyline
   points="43.458,553.011 553.542,553.011 553.542,42.927 43.458,42.927 43.458,553.011 "
   id="polyline8"
   style="fill:#003399;fill-opacity:1;stroke:none"
   transform="matrix(-1,0,0,1,597.213,-0.03)" />
<path
   d="m 251.213,232.049 v 172.363 l 3,-13.363 C 287.2,272.364 344.087,161.06 428.29,71.049 h 105.423 l -4.5,4 c -123.847,123.603 -193.397,290.607 -217.574,462 h -99.426 v -305 h 39 z"
   id="path10"
   style="fill:#ffffff;stroke:none"
   inkscape:connector-curvature="0" />
<rect
   x="-269.88"
   y="100.716"
   width="77.334"
   height="140.66701"
   id="rect12"
   style="fill:#ffffff;stroke:none"
   transform="scale(-1,1)" />
<rect
   x="-262.21301"
   y="129.72597"
   width="19.334"
   height="17.311001"
   id="rect14"
   style="fill:#d40000;fill-opacity:1;stroke:#d40000;stroke-width:1;stroke-opacity:1"
   transform="scale(-1,1)" />
<rect
   x="-262.21301"
   y="164.02698"
   width="19.334"
   height="15.979"
   id="rect16"
   style="fill:#d40000;fill-opacity:1;stroke:#d40000;stroke-width:1;stroke-opacity:1"
   transform="scale(-1,1)" />
<rect
   x="-262.21301"
   y="195.73697"
   width="19.334"
   height="17.312"
   id="rect18"
   style="fill:#d40000;fill-opacity:1;stroke:#d40000;stroke-width:1;stroke-opacity:1"
   transform="scale(-1,1)" />
<rect
   x="-220.87999"
   y="129.72597"
   width="19.334"
   height="17.311001"
   id="rect20"
   style="fill:#d40000;fill-opacity:1;stroke:#d40000;stroke-width:1;stroke-opacity:1"
   transform="scale(-1,1)" />
<rect
   x="-220.87999"
   y="164.02698"
   width="19.334"
   height="15.979"
   id="rect22"
   style="fill:#d40000;fill-opacity:1;stroke:#d40000;stroke-width:1;stroke-opacity:1"
   transform="scale(-1,1)" />
<rect
   x="-220.87999"
   y="195.73598"
   width="19.334"
   height="17.312"
   id="rect24"
   style="fill:#d40000;fill-opacity:1;stroke:#d40000;stroke-width:1;stroke-opacity:1"
   transform="scale(-1,1)" />
<rect
   x="-240.87898"
   y="109.72601"
   width="19.334"
   height="17.978001"
   id="rect26"
   style="fill:#d40000;fill-opacity:1;stroke:#d40000;stroke-width:1;stroke-opacity:1"
   transform="scale(-1,1)" />
<rect
   x="-241.54601"
   y="147.34998"
   width="19.334"
   height="16.646"
   id="rect28"
   style="fill:#d40000;fill-opacity:1;stroke:#d40000;stroke-width:1;stroke-opacity:1"
   transform="scale(-1,1)" />
<rect
   x="-241.54601"
   y="179.72597"
   width="19.334"
   height="15.979"
   id="rect30"
   style="fill:#d40000;fill-opacity:1;stroke:#d40000;stroke-width:1;stroke-opacity:1"
   transform="scale(-1,1)" />
<rect
   x="-240.87898"
   y="213.72597"
   width="19.334"
   height="17.979"
   id="rect32"
   style="fill:#d40000;fill-opacity:1;stroke:#d40000;stroke-width:1;stroke-opacity:1"
   transform="scale(-1,1)" />
<rect
   x="-262.54501"
   y="109.049"
   width="61.333"
   height="122.667"
   id="rect34"
   style="fill:none;stroke:#d40000;stroke-width:4;stroke-opacity:1"
   transform="scale(-1,1)" />
</svg>