<?xml version="1.0" encoding="UTF-8" standalone="no"?>
<!-- Created with Inkscape (http://www.inkscape.org/) -->

<svg
   xmlns:dc="http://purl.org/dc/elements/1.1/"
   xmlns:cc="http://creativecommons.org/ns#"
   xmlns:rdf="http://www.w3.org/1999/02/22-rdf-syntax-ns#"
   xmlns:svg="http://www.w3.org/2000/svg"
   xmlns="http://www.w3.org/2000/svg"
   xmlns:sodipodi="http://sodipodi.sourceforge.net/DTD/sodipodi-0.dtd"
   xmlns:inkscape="http://www.inkscape.org/namespaces/inkscape"
   width="578.33698"
   height="578.33801"
   id="svg2"
   version="1.1"
   inkscape:version="0.92.1 r15371"
   sodipodi:docname="France_road_sign_C27.svg">
  <defs
     id="defs4" />
  <sodipodi:namedview
     id="base"
     pagecolor="#ffffff"
     bordercolor="#666666"
     borderopacity="1.0"
     inkscape:pageopacity="0.0"
     inkscape:pageshadow="2"
     inkscape:zoom="0.70710678"
     inkscape:cx="470.87611"
     inkscape:cy="323.27437"
     inkscape:document-units="px"
     inkscape:current-layer="g3030"
     showgrid="false"
     inkscape:window-width="1920"
     inkscape:window-height="1057"
     inkscape:window-x="-8"
     inkscape:window-y="-8"
     inkscape:window-maximized="1"
     fit-margin-top="0"
     fit-margin-left="0"
     fit-margin-right="0"
     fit-margin-bottom="0" />
  <metadata
     id="metadata7">
    <rdf:RDF>
      <cc:Work
         rdf:about="">
        <dc:format>image/svg+xml</dc:format>
        <dc:type
           rdf:resource="http://purl.org/dc/dcmitype/StillImage" />
        <dc:title></dc:title>
      </cc:Work>
    </rdf:RDF>
  </metadata>
  <g
     inkscape:label="Calque 1"
     inkscape:groupmode="layer"
     id="layer1"
     transform="translate(-1128.995,-329.38179)">
    <g
       id="g3815">
      <g
         transform="translate(-777.81746,155.56349)"
         id="g3030"
         style="stroke:none">
        <path
           style="fill:#ffffff;stroke:#000000;stroke-width:4;stroke-linecap:round;stroke-linejoin:round;stroke-miterlimit:4;stroke-dasharray:none;stroke-opacity:1"
           inkscape:connector-curvature="0"
           d="m 1950.0085,749.95628 h 491.946 c 10.872,0 21.3,-4.318 28.988,-12.007 7.688,-7.688 12.007,-18.115 12.007,-28.988 v -491.947 c 0,-10.873 -4.319,-21.3 -12.007,-28.988 -7.688,-7.689 -18.116,-12.008 -28.988,-12.008 h -491.946 c -10.873,0 -21.301,4.319 -28.988,12.007 -7.69,7.688 -12.008,18.116 -12.008,28.989 v 491.947 c 0,10.873 4.318,21.3 12.008,28.988 7.687,7.688 18.115,12.007 28.988,12.007 z"
           id="path2989" />
        <path
           style="fill:#003399;fill-opacity:1;stroke:none"
           inkscape:connector-curvature="0"
           d="m 2453.4315,705.23828 c 0,6.744 -5.468,12.214 -12.214,12.214 h -490.047 c -6.745,0 -12.213,-5.47 -12.213,-12.214 v -488.547 c 0,-6.746 5.468,-12.214 12.213,-12.214 h 490.047 c 6.746,0 12.214,5.469 12.214,12.214 z"
           id="path2991" />
      </g>
      <path
         sodipodi:nodetypes="cccc"
         inkscape:connector-curvature="0"
         id="rect3034"
         d="m 1416.2646,403.20093 235.4777,410.86681 h -473.7317 z"
         style="fill:#ffffff;fill-opacity:1;stroke:none" />
      <path
         sodipodi:nodetypes="cccccccczc"
         inkscape:connector-curvature="0"
         id="rect3805"
         d="m 1264.6697,771.19202 h -28.3437 v 19.90625 h 183.8437 0.031 183.8437 v -19.90625 h -28.3437 c -80.7914,-11.77438 -88.4328,-55.24285 -155.531,-55.6875 -67.0982,-0.44465 -109.1132,52.49279 -155.5,55.6875 z"
         style="fill:#000000;fill-opacity:1;stroke:none" />
    </g>
  </g>
</svg>
