<?xml version="1.0" encoding="utf-8"?>
<!-- Generator: Adobe Illustrator 13.0.0, SVG Export Plug-In . SVG Version: 6.00 Build 14948)  -->
<!DOCTYPE svg PUBLIC "-//W3C//DTD SVG 1.1//EN" "http://www.w3.org/Graphics/SVG/1.1/DTD/svg11.dtd">
<svg version="1.1" id="Calque_1" xmlns="http://www.w3.org/2000/svg" xmlns:xlink="http://www.w3.org/1999/xlink" x="0px" y="0px"
	 width="576px" height="576px" viewBox="0 0 576 576" enable-background="new 0 0 576 576" xml:space="preserve">
<path fill="#FFFFFF" stroke="#000000" stroke-linecap="round" stroke-linejoin="round" d="M41.496,574.438h491.947
	c10.872,0,21.3-4.317,28.988-12.007c7.688-7.688,12.007-18.114,12.007-28.987V41.496c0-10.873-4.319-21.301-12.007-28.988
	C554.742,4.819,544.314,0.5,533.442,0.5H41.496c-10.873,0-21.3,4.318-28.988,12.007C4.82,20.195,0.5,30.623,0.5,41.496v491.946
	c0,10.873,4.319,21.3,12.007,28.987C20.195,570.118,30.623,574.438,41.496,574.438z"/>
<path fill="#0000FF" d="M544.921,529.72c0,6.744-5.47,12.214-12.216,12.214H42.659c-6.746,0-12.214-5.47-12.214-12.214V41.173
	c0-6.746,5.468-12.214,12.214-12.214h490.046c6.746,0,12.216,5.469,12.216,12.214V529.72L544.921,529.72z"/>
<g>
	<polygon fill="#FFFFFF" points="468.574,97.969 445.354,57.747 422.133,97.969 398.91,138.19 426.47,138.19 426.47,516.969 
		464.47,516.969 464.47,138.19 491.797,138.19 	"/>
	<polygon fill="#FFFFFF" points="338.574,97.969 315.354,57.747 292.133,97.969 268.91,138.19 296.47,138.19 296.47,516.969 
		334.47,516.969 334.47,138.19 361.797,138.19 	"/>
	<polygon fill="#FFFFFF" points="224.574,97.969 201.354,57.747 178.133,97.969 154.91,138.19 182.47,138.19 182.47,516.969 
		220.47,516.969 220.47,138.19 247.797,138.19 	"/>
	<polyline fill="#FFFFFF" points="78.47,338.5 78.47,516.969 116.47,516.969 116.47,336.5 	"/>
	<polyline fill="#FFFFFF" points="184.787,196.553 78.445,339.879 108.963,362.522 216.496,217.59 	"/>
</g>
</svg>
