<?xml version="1.0" encoding="utf-8"?>
<!-- Generator: Adobe Illustrator 13.0.0, SVG Export Plug-In  -->
<!DOCTYPE svg PUBLIC "-//W3C//DTD SVG 1.1//EN" "http://www.w3.org/Graphics/SVG/1.1/DTD/svg11.dtd" [
	<!ENTITY ns_flows "http://ns.adobe.com/Flows/1.0/">
]>
<svg version="1.1"
	 xmlns="http://www.w3.org/2000/svg" xmlns:xlink="http://www.w3.org/1999/xlink" xmlns:a="http://ns.adobe.com/AdobeSVGViewerExtensions/3.0/"
	 x="0px" y="0px" width="576px" height="576px" viewBox="-0.825 -0.552 576 576" enable-background="new -0.825 -0.552 576 576"
	 xml:space="preserve">
<defs>
</defs>
<path fill="#FFFFFF" stroke="#000000" stroke-linecap="round" stroke-linejoin="round" d="M41.496,574.438h491.946
	c10.872,0,21.3-4.318,28.988-12.007c7.688-7.688,12.007-18.115,12.007-28.988V41.496c0-10.873-4.319-21.3-12.007-28.988
	C554.742,4.819,544.314,0.5,533.442,0.5H41.496c-10.873,0-21.301,4.319-28.988,12.007C4.818,20.195,0.5,30.623,0.5,41.496v491.947
	c0,10.873,4.318,21.3,12.008,28.988C20.195,570.119,30.623,574.438,41.496,574.438z"/>
<path fill="#0000FF" stroke="#000000" d="M544.919,529.72c0,6.744-5.468,12.214-12.214,12.214H42.658
	c-6.745,0-12.213-5.47-12.213-12.214V41.173c0-6.746,5.468-12.214,12.213-12.214h490.047c6.746,0,12.214,5.469,12.214,12.214V529.72
	z"/>
<polygon fill="#FFFFFF" points="490.072,95.469 466.85,55.247 443.628,95.469 420.408,135.69 447.966,135.69 447.966,514.469 
	485.966,514.469 485.966,135.69 513.292,135.69 "/>
<polygon fill="#FFFFFF" points="255.68,434.229 255.68,185.451 219.68,185.451 219.68,434.229 189.121,434.229 212.342,474.451 
	235.563,514.673 258.785,474.451 282.006,434.229 "/>
<polygon fill="#FFFFFF" points="142.179,434.729 142.179,185.951 106.179,185.951 106.179,434.729 75.621,434.729 98.841,474.951 
	122.063,515.173 145.285,474.951 168.505,434.729 "/>
<polygon fill="#FFFFFF" points="373.571,97.472 350.35,57.25 327.128,97.472 303.907,137.694 331.466,137.694 331.466,516.472 
	369.466,516.472 369.466,137.694 396.792,137.694 "/>
</svg>
