<?xml version="1.0" encoding="utf-8"?>
<!-- Generator: Adobe Illustrator 13.0.0, SVG Export Plug-In  -->
<!DOCTYPE svg PUBLIC "-//W3C//DTD SVG 1.1//EN" "http://www.w3.org/Graphics/SVG/1.1/DTD/svg11.dtd" [
	<!ENTITY ns_flows "http://ns.adobe.com/Flows/1.0/">
]>
<svg version="1.1"
	 xmlns="http://www.w3.org/2000/svg" xmlns:xlink="http://www.w3.org/1999/xlink" xmlns:a="http://ns.adobe.com/AdobeSVGViewerExtensions/3.0/"
	 x="0px" y="0px" width="576px" height="576px" viewBox="0 0 576 576" enable-background="new 0 0 576 576" xml:space="preserve">
<defs>
</defs>
<path fill="#FFFFFF" stroke="#000000" stroke-linecap="round" stroke-linejoin="round" d="M41.496,574.438h491.947
	c10.872,0,21.3-4.317,28.988-12.007c7.688-7.688,12.007-18.114,12.007-28.987V41.496c0-10.873-4.319-21.3-12.007-28.988
	C554.742,4.819,544.314,0.5,533.442,0.5H41.496c-10.873,0-21.3,4.319-28.988,12.007S0.5,30.623,0.5,41.496v491.947
	c0,10.873,4.319,21.3,12.007,28.987C20.195,570.119,30.623,574.438,41.496,574.438z"/>
<path fill="#0000FF" stroke="#000000" d="M544.92,529.72c0,6.744-5.469,12.214-12.215,12.214H42.659
	c-6.746,0-12.214-5.47-12.214-12.214V41.173c0-6.746,5.468-12.214,12.214-12.214h490.046c6.746,0,12.215,5.469,12.215,12.214V529.72
	z"/>
<polygon fill="#FFFFFF" points="188.47,439.247 188.47,190.469 152.47,190.469 152.47,439.247 121.91,439.247 145.13,479.469 
	168.354,519.69 191.575,479.469 214.795,439.247 "/>
<polygon fill="#FFFFFF" points="338.911,135.469 315.69,95.247 292.47,55.025 269.247,95.247 246.026,135.469 273.585,135.469 
	273.585,514.247 311.586,514.247 311.586,135.469 "/>
<polygon fill="#FFFFFF" points="440.574,96.969 417.354,56.747 394.132,96.969 370.91,137.19 398.47,137.19 398.47,515.969 
	436.47,515.969 436.47,137.19 463.796,137.19 "/>
</svg>
