<?xml version="1.0" encoding="utf-8"?>
<!-- Generator: Adobe Illustrator 13.0.0, SVG Export Plug-In  -->
<!DOCTYPE svg PUBLIC "-//W3C//DTD SVG 1.1//EN" "http://www.w3.org/Graphics/SVG/1.1/DTD/svg11.dtd" [
	<!ENTITY ns_flows "http://ns.adobe.com/Flows/1.0/">
]>
<svg version="1.1"
	 xmlns="http://www.w3.org/2000/svg" xmlns:xlink="http://www.w3.org/1999/xlink" xmlns:a="http://ns.adobe.com/AdobeSVGViewerExtensions/3.0/"
	 x="0px" y="0px" width="576px" height="576px" viewBox="-0.322 -0.549 576 576" enable-background="new -0.322 -0.549 576 576"
	 xml:space="preserve">
<defs>
</defs>
<path fill="#FFFFFF" stroke="#000000" stroke-linecap="round" stroke-linejoin="round" d="M41.496,574.438h491.946
	c10.872,0,21.3-4.318,28.988-12.007c7.688-7.688,12.007-18.115,12.007-28.988V41.496c0-10.873-4.319-21.3-12.007-28.988
	C554.742,4.819,544.314,0.5,533.442,0.5H41.496c-10.873,0-21.301,4.319-28.988,12.007C4.818,20.195,0.5,30.623,0.5,41.496v491.947
	c0,10.873,4.318,21.3,12.008,28.988C20.195,570.119,30.623,574.438,41.496,574.438z"/>
<path fill="#0000FF" stroke="#000000" d="M544.919,529.72c0,6.744-5.468,12.214-12.214,12.214H42.658
	c-6.745,0-12.213-5.47-12.213-12.214V41.173c0-6.746,5.468-12.214,12.213-12.214h490.047c6.746,0,12.214,5.469,12.214,12.214V529.72
	z"/>
<polygon fill="#FFFFFF" points="440.574,96.969 417.353,56.747 394.131,96.969 370.91,137.19 398.469,137.19 398.469,515.969 
	436.469,515.969 436.469,137.19 463.795,137.19 "/>
<polygon fill="#FFFFFF" points="173.678,433.229 173.678,184.451 137.678,184.451 137.678,433.229 107.119,433.229 130.34,473.451 
	153.562,513.673 176.783,473.451 200.004,433.229 "/>
<rect x="263.678" y="385.451" fill="#FFFFFF" width="36" height="132"/>
<rect x="331.237" y="177.94" transform="matrix(0.8127 0.5827 -0.5827 0.8127 239.9171 -147.4075)" fill="#FFFFFF" width="36" height="243.048"/>
</svg>
