<?xml version="1.0" encoding="utf-8"?>
<!-- Generator: Adobe Illustrator 16.0.2, SVG Export Plug-In . SVG Version: 6.00 Build 0)  -->
<!DOCTYPE svg PUBLIC "-//W3C//DTD SVG 1.1//EN" "http://www.w3.org/Graphics/SVG/1.1/DTD/svg11.dtd">
<svg version="1.1" id="Ebene_1" xmlns="http://www.w3.org/2000/svg" xmlns:xlink="http://www.w3.org/1999/xlink" x="0px" y="0px"
	 width="598px" height="600px" viewBox="0 0 598 600" style="enable-background:new 0 0 598 600;" xml:space="preserve">
<line style="fill:none;stroke:#000000;stroke-width:0.7087;stroke-linecap:round;stroke-linejoin:round;" x1="596.049" y1="554.011" x2="596.049" y2="43.927"/>
<polyline style="fill:none;stroke:#000000;stroke-width:0.7087;stroke-linecap:round;stroke-linejoin:round;" points="
	596.049,43.927 595.403,36.545 593.485,29.389 590.354,22.673 586.104,16.604 580.865,11.364 574.796,7.115 568.079,3.983 
	560.923,2.065 553.541,1.42 "/>
<polyline style="fill:none;stroke:#000000;stroke-width:0.7087;stroke-linecap:round;stroke-linejoin:round;" points="43.458,1.42 
	36.077,2.065 28.92,3.983 22.205,7.115 16.135,11.364 10.896,16.604 6.646,22.673 3.515,29.389 1.597,36.545 0.951,43.927 "/>
<line style="fill:none;stroke:#000000;stroke-width:0.7087;stroke-linecap:round;stroke-linejoin:round;" x1="0.951" y1="43.927" x2="0.951" y2="554.011"/>
<path style="fill:#FFFFFF;stroke:#000000;stroke-width:2;stroke-linecap:round;stroke-linejoin:round;" d="M43.515,598.938h510.183
	c11.275,0,22.089-4.497,30.063-12.508c7.973-8.011,12.452-18.873,12.452-30.201V43.71c0-11.327-4.479-22.191-12.452-30.2
	C575.786,5.5,564.974,1,553.698,1H43.515C32.24,1,21.425,5.5,13.453,13.51C5.479,21.519,1,32.383,1,43.71v512.519
	c0,11.328,4.479,22.19,12.453,30.201C21.425,594.439,32.24,598.938,43.515,598.938z"/>
<polyline style="fill:#0000FF;stroke:#0000FF;stroke-width:0.7087;stroke-linecap:round;stroke-linejoin:round;" points="
	43.458,554.011 553.541,554.011 553.541,43.927 43.458,43.927 43.458,554.011 "/>
<g>
	<rect x="-106.22" y="174.432" style="fill:none;" width="571.148" height="432.506"/>
	<path style="fill:#FFFFFF;" d="M260.478,174.603l-0.187,48.022H168.27l-6.334,42.725c8.691-2.278,17.883-3.247,27.569-2.905
		c9.063-0.227,18.316,0.684,27.756,2.734c13.659,3.989,25.829,10.996,36.511,21.021c14.777,14.813,23.16,31.219,25.147,49.219
		c0.122,2.622,0.187,5.186,0.187,7.69c0,10.938-1.555,20.396-4.657,28.369c-5.713,12.192-13.537,23.13-23.471,32.813
		c-16.393,14.128-36.389,21.191-59.982,21.191h-3.726l-17.138-1.025c-17.883-1.821-33.408-7.575-46.569-17.261
		c-17.016-14.355-27.508-29.109-31.481-44.263l53.648-12.476c1.612,6.724,5.836,12.762,12.667,18.115
		c10.307,6.951,24.836,8.374,43.59,4.272c15.521-5.811,22.787-15.95,21.794-30.42c0.373-13.101-6.086-22.388-19.373-27.856
		c-9.191-2.505-19.56-3.188-31.108-2.051c-8.819,1.709-16.704,4.844-23.657,9.399l-46.384-33.325l13.785-113.989H260.478z"/>
</g>
<g>
	<rect x="139.78" y="167.494" style="fill:none;" width="571.148" height="432.506"/>
	<path style="fill:#FFFFFF;" d="M327.464,320.106c-0.372-6.38-0.559-12.646-0.559-18.799c0-3.076,0.061-6.152,0.187-9.229
		c0.372-12.075,1.426-23.811,3.166-35.205v-1.196l0.745-1.538l1.305-11.792l0.931-1.709l1.863-9.57l0.745-1.025
		c1.862-8.203,5.896-17.432,12.108-27.686l5.401-7.52l10.432-9.741c11.052-8.203,25.396-14.07,43.031-17.603
		c5.588-0.911,11.362-1.367,17.323-1.367h1.49c9.314,0.229,19.063,1.653,29.246,4.272c4.221,0.457,10.991,3.02,20.305,7.69
		c9.562,5.469,18.255,12.932,26.079,22.388l5.961,8.374l4.844,9.399l2.049,6.836l0.559,0.513v1.709
		c1.24,2.393,1.985,4.272,2.235,5.64l0.745,0.854l3.167,15.21l0.559,0.342l-0.372,2.222l0.744,1.367l1.863,18.286l0.745,1.709
		l-0.559,0.171l1.304,10.767l-0.373,0.342c0.495,1.14,0.495,1.824,0,2.051l0.56,1.709l-0.373,0.513l0.932,11.621l-0.372,0.342
		l0.559,4.956l-0.187,0.342v6.836c-0.125,4.216-0.498,9.287-1.118,15.21l-0.931,6.323l0.372,0.342l-0.932,1.709
		c-0.372,4.216-1.429,9.229-3.166,15.039l-1.118,3.247l-0.187,1.88l-4.843,12.646l-0.932,0.684c0,1.14-1.615,4.614-4.843,10.425
		l-8.941,11.792c-9.812,10.368-20.678,17.944-32.6,22.729c-7.823,2.85-15.711,4.727-23.657,5.64l-14.343,0.854l-3.354-0.171
		c-28.314-0.684-51.166-9.114-68.551-25.293c-8.569-8.772-15.027-18.97-19.373-30.591c-4.969-11.848-8.01-24.324-9.128-37.427
		L327.464,320.106z M420.232,371.718c7.698,0.456,12.48,0.342,14.344-0.342l0.186,0.342l10.246-2.051
		c8.195-2.505,14.465-7.917,18.813-16.235c3.354-8.315,5.836-18.228,7.451-29.736l0.932-38.623l-0.559-18.115l-1.863-13.501
		l-0.745-0.684l-2.422-9.57l-0.744-0.342c-1.863-6.836-5.402-13.159-10.618-18.97c-3.977-2.961-7.143-4.897-9.501-5.811
		l-10.804-2.393l-11.363-0.513c-5.094-0.112-10.743,0.854-16.951,2.905c-5.714,2.507-10.496,7.007-14.344,13.501
		c-2.733,6.04-5.216,13.616-7.451,22.729l0.373,1.025c-0.745,0.571-1.183,2.451-1.305,5.64c-1.74,13.33-1.927,32.871-0.559,58.618
		l2.98,18.628l3.912,13.159c2.855,6.836,6.767,11.792,11.735,14.868C406.447,368.871,412.53,370.692,420.232,371.718z"/>
</g>
</svg>
