<?xml version="1.0" encoding="utf-8"?>
<!-- Generator: Adobe Illustrator 16.0.2, SVG Export Plug-In . SVG Version: 6.00 Build 0)  -->
<!DOCTYPE svg PUBLIC "-//W3C//DTD SVG 1.1//EN" "http://www.w3.org/Graphics/SVG/1.1/DTD/svg11.dtd">
<svg version="1.1" id="Ebene_1" xmlns="http://www.w3.org/2000/svg" xmlns:xlink="http://www.w3.org/1999/xlink" x="0px" y="0px"
	 width="598px" height="600px" viewBox="0 0 598 600" style="enable-background:new 0 0 598 600;" xml:space="preserve">
<line style="fill:none;stroke:#000000;stroke-width:0.7087;stroke-linecap:round;stroke-linejoin:round;" x1="596.049" y1="554.011" x2="596.049" y2="43.927"/>
<polyline style="fill:none;stroke:#000000;stroke-width:0.7087;stroke-linecap:round;stroke-linejoin:round;" points="
	596.049,43.927 595.403,36.545 593.485,29.389 590.354,22.673 586.104,16.604 580.865,11.364 574.796,7.115 568.079,3.983 
	560.923,2.065 553.541,1.42 "/>
<polyline style="fill:none;stroke:#000000;stroke-width:0.7087;stroke-linecap:round;stroke-linejoin:round;" points="43.458,1.42 
	36.077,2.065 28.92,3.983 22.205,7.115 16.135,11.364 10.896,16.604 6.646,22.673 3.515,29.389 1.597,36.545 0.951,43.927 "/>
<line style="fill:none;stroke:#000000;stroke-width:0.7087;stroke-linecap:round;stroke-linejoin:round;" x1="0.951" y1="43.927" x2="0.951" y2="554.011"/>
<path style="fill:#FFFFFF;stroke:#000000;stroke-width:2;stroke-linecap:round;stroke-linejoin:round;" d="M43.515,598.938h510.183
	c11.275,0,22.089-4.497,30.063-12.508c7.973-8.011,12.452-18.873,12.452-30.201V43.71c0-11.327-4.479-22.191-12.452-30.2
	C575.786,5.5,564.974,1,553.698,1H43.515C32.24,1,21.425,5.5,13.453,13.51C5.479,21.519,1,32.383,1,43.71v512.519
	c0,11.328,4.479,22.19,12.453,30.201C21.425,594.439,32.24,598.938,43.515,598.938z"/>
<polyline style="fill:#0000FF;stroke:#0000FF;stroke-width:0.7087;stroke-linecap:round;stroke-linejoin:round;" points="
	33.256,564.212 563.743,564.212 563.743,33.725 33.256,33.725 33.256,564.212 "/>
<g>
	<rect x="12.926" y="227.573" style="fill:none;" width="571.148" height="269.433"/>
	<path style="fill:#FFFFFF;" d="M137.852,227.933v25.336h-28.693v106.465H82.521V252.999H51.869v-25.066H137.852z"/>
	<path style="fill:#FFFFFF;" d="M205.518,227.843l37.017,131.621h-28.106l-6.169-22.371h-39.662l-6.267,22.371h-28.4l36.626-131.621
		H205.518z M173.985,312.026h28.302l-13.71-51.391L173.985,312.026z"/>
	<path style="fill:#FFFFFF;" d="M293.553,227.933l26.54,40.609l26.539-40.43h31.631l-43.971,65.227l44.362,66.215h-31.533
		l-27.42-40.16l-25.952,40.07l-34.765,0.09l44.265-66.305l-44.167-65.316H293.553z"/>
	<path style="fill:#FFFFFF;" d="M426.931,228.022v131.711h-27.225V228.022H426.931z"/>
	<path style="fill:#FFFFFF;" d="M449.255,332.87v-0.18c0-0.658,0.75-1.107,2.252-1.348c11.556-3.414,19.063-5.869,22.524-7.367
		c1.763,2.217,4.079,4.223,6.953,6.02c4.635,2.516,9.597,4.043,14.885,4.582c5.614,0.12,9.107,0,10.479-0.359
		c6.464-1.677,10.445-3.384,11.947-5.121c1.501-1.197,2.807-4.103,3.917-8.715c0.261-1.797,0-3.803-0.783-6.02
		c-0.979-1.497-2.024-2.755-3.134-3.773l-3.329-2.336l-3.722-1.527c-20.696-5.93-32.089-9.403-34.178-10.422
		c-9.597-3.533-16.746-9.373-21.446-17.52c-3.069-5.45-4.44-12.068-4.113-19.855c1.239-9.703,5.582-17.399,13.025-23.09
		c8.355-5.57,17.071-8.594,26.146-9.074h2.547c6.463,0,11.815,0.449,16.06,1.348c8.618,2.217,15.342,5.301,20.174,9.254
		c4.831,3.654,8.813,8.625,11.947,14.914l-0.294,0.988l-20.173,8.895l-0.979-0.449c-1.241-3.653-4.734-6.618-10.479-8.895
		c-6.463-2.215-14.037-2.275-22.72-0.18c-3.722,1.139-6.333,2.605-7.834,4.402c-0.523,0.48-1.209,1.977-2.057,4.492
		c-0.132,2.936,0,4.643,0.392,5.121c0.848,2.037,2.546,3.863,5.092,5.48l2.547,0.988c18.541,5.031,31.107,8.686,37.703,10.961
		c5.68,2.396,10.021,5.031,13.024,7.906l5.483,6.828c4.048,6.17,6.202,12.908,6.464,20.215c0.064,0.479,0.098,1.049,0.098,1.707
		c0,2.336-0.392,5.48-1.175,9.434c-1.633,5.57-3.592,9.674-5.876,12.309c-3.917,4.433-6.757,7.098-8.52,7.996
		c-9.598,6.05-19.488,9.313-29.673,9.793h-8.912c-6.659-0.599-12.274-1.797-16.844-3.594c-7.313-3.114-13.221-6.588-17.725-10.422
		C455.229,343.143,451.997,338.681,449.255,332.87z"/>
</g>
</svg>
