<?xml version="1.0" encoding="utf-8"?>
<!-- Generator: Adobe Illustrator 16.0.2, SVG Export Plug-In . SVG Version: 6.00 Build 0)  -->
<!DOCTYPE svg PUBLIC "-//W3C//DTD SVG 1.1//EN" "http://www.w3.org/Graphics/SVG/1.1/DTD/svg11.dtd">
<svg version="1.1" id="Ebene_1" xmlns="http://www.w3.org/2000/svg" xmlns:xlink="http://www.w3.org/1999/xlink" x="0px" y="0px"
	 width="598px" height="600px" viewBox="0 0 598 600" style="enable-background:new 0 0 598 600;" xml:space="preserve">
<path style="fill:#FFFFFF;stroke:#000000;stroke-width:2;stroke-linecap:round;stroke-linejoin:round;" d="M43.515,598.938h510.183
	c11.275,0,22.089-4.497,30.063-12.508c7.973-8.011,12.452-18.873,12.452-30.201V43.71c0-11.327-4.479-22.191-12.452-30.2
	C575.786,5.5,564.974,1,553.698,1H43.515C32.24,1,21.425,5.5,13.453,13.51C5.479,21.519,1,32.383,1,43.71v512.519
	c0,11.328,4.479,22.19,12.453,30.201C21.425,594.439,32.24,598.938,43.515,598.938z"/>
<polyline style="fill:#0000FF;" points="33.256,563.212 563.743,563.212 563.743,32.725 33.256,32.725 33.256,563.212 "/>
<g>
	<rect x="15.19" y="87.212" style="fill:none;" width="567.622" height="489"/>
	<path style="fill:#FFFFFF;" d="M185.646,87.358l19.749,71.533H190.4l-3.292-12.158h-21.16l-3.344,12.158h-15.151l19.54-71.533
		H185.646z M168.823,133.11h15.099l-7.314-27.93L168.823,133.11z"/>
	<path style="fill:#FFFFFF;" d="M242.859,87.212c8.046,0,14.333,2.702,18.861,8.105c3.971,4.753,5.956,10.107,5.956,16.064
		c0,1.074-0.07,2.344-0.209,3.809c-0.836,7.259-4.72,13.265-11.651,18.018l12.748,25.781h-16.51l-10.919-21.338h-9.457v21.484
		h-14.472l0.052-71.924H242.859z M240.769,123.882l4.284-0.488c2.438-0.618,4.475-1.904,6.113-3.857
		c1.393-1.92,2.229-4.215,2.508-6.885c0.139-3.32-0.906-6.217-3.135-8.691c-1.881-2.018-4.616-3.157-8.203-3.418h-10.501v23.34
		H240.769z"/>
	<path style="fill:#FFFFFF;" d="M305.715,87.212c8.046,0,14.332,2.702,18.86,8.105c3.971,4.753,5.956,10.107,5.956,16.064
		c0,1.074-0.07,2.344-0.209,3.809c-0.836,7.259-4.72,13.265-11.65,18.018l12.748,25.781h-16.51l-10.92-21.338h-9.457v21.484h-14.472
		l0.052-71.924H305.715z M303.625,123.882l4.284-0.488c2.438-0.618,4.475-1.904,6.112-3.857c1.393-1.92,2.229-4.215,2.508-6.885
		c0.139-3.32-0.906-6.217-3.135-8.691c-1.881-2.018-4.615-3.157-8.202-3.418h-10.502v23.34H303.625z"/>
	<path style="fill:#FFFFFF;" d="M389.313,87.505v13.086h-31.661v15.625h23.197v13.232h-23.197v16.357h33.02v13.232h-47.753
		l0.052-71.533H389.313z M371.601,69.585l-7.889,14.844h-16.614l6.844-14.844H371.601z M379.229,69.585l6.845,14.844h-16.614
		l-7.785-14.844H379.229z"/>
	<path style="fill:#FFFFFF;" d="M449.817,87.407v13.77h-15.308v57.861h-14.211V101.03h-16.354V87.407H449.817z"/>
	<path style="fill:#FFFFFF;" d="M101.341,200.358l19.749,71.533h-14.995l-3.292-12.158h-21.16l-3.344,12.158H63.149l19.54-71.533
		H101.341z M84.518,246.11h15.099l-7.314-27.93L84.518,246.11z"/>
	<path style="fill:#FFFFFF;" d="M149.098,200.554v48.438c0.661,6.185,4.389,9.636,11.181,10.352
		c6.688-0.684,10.449-4.085,11.285-10.205v-48.584h14.786v52.197c-1.289,6.38-4.511,11.345-9.666,14.893
		c-4.598,3.027-9.3,4.622-14.106,4.785c-0.767,0.065-1.515,0.098-2.247,0.098c-7.141,0-13.044-1.937-17.711-5.811
		c-5.329-4.817-8.15-9.733-8.464-14.746v-51.416H149.098z"/>
	<path style="fill:#FFFFFF;" d="M246.331,200.407v13.77h-15.308v57.861h-14.211V214.03h-16.353v-13.623H246.331z"/>
	<path style="fill:#FFFFFF;" d="M290.64,199.577c8.429,1.205,14.663,5.859,18.704,13.965c3.448,5.99,5.173,13.347,5.173,22.07v0.879
		c0,10.905-2.84,20.183-8.517,27.832c-4.041,5.144-9.753,8.024-17.137,8.643c-0.767,0.065-1.515,0.098-2.247,0.098
		c-7.663,0-14.089-3.027-19.279-9.082c-5.364-8.073-8.081-16.357-8.15-24.854c-0.035-0.716-0.052-1.432-0.052-2.148
		c0-11.491,2.734-20.996,8.203-28.516c3.657-4.102,7.471-6.722,11.442-7.861c2.751-0.813,5.503-1.221,8.255-1.221
		C288.254,199.382,289.455,199.447,290.64,199.577z M286.617,260.563c4.04-0.195,7.453-2.783,10.24-7.764
		c2.02-3.32,3.292-8.203,3.814-14.648c0.104-8.203-1.446-14.925-4.65-20.166c-2.612-3.646-5.504-5.68-8.673-6.104
		c-4.18,0.195-7.663,2.751-10.449,7.666c-1.985,3.451-3.274,8.398-3.866,14.844c-0.07,8.203,1.515,14.909,4.754,20.117
		C280.365,258.155,283.307,260.173,286.617,260.563z"/>
	<path style="fill:#FFFFFF;" d="M353.391,200.212c8.046,0,14.333,2.702,18.861,8.105c3.971,4.753,5.956,10.107,5.956,16.064
		c0,1.074-0.07,2.344-0.209,3.809c-0.836,7.259-4.721,13.265-11.651,18.018l12.748,25.781h-16.51l-10.919-21.338h-9.457v21.484
		h-14.472l0.052-71.924H353.391z M351.301,236.882l4.284-0.488c2.438-0.618,4.476-1.904,6.113-3.857
		c1.393-1.92,2.229-4.215,2.508-6.885c0.139-3.32-0.906-6.217-3.135-8.691c-1.881-2.018-4.616-3.157-8.203-3.418h-10.501v23.34
		H351.301z"/>
	<path style="fill:#FFFFFF;" d="M407,200.456v71.582h-14.524v-71.582H407z"/>
	<path style="fill:#FFFFFF;" d="M421.371,257.438v-0.098c0-0.358,0.399-0.602,1.201-0.732c6.165-1.855,10.17-3.19,12.017-4.004
		c0.94,1.205,2.177,2.295,3.71,3.271c2.473,1.367,5.12,2.197,7.941,2.49c2.995,0.065,4.858,0,5.59-0.195
		c3.448-0.911,5.572-1.839,6.374-2.783c0.801-0.651,1.497-2.229,2.09-4.736c0.139-0.977,0-2.067-0.418-3.271
		c-0.522-0.813-1.08-1.497-1.672-2.051l-1.776-1.27l-1.985-0.83c-11.042-3.223-17.119-5.11-18.233-5.664
		c-5.12-1.92-8.935-5.094-11.442-9.521c-1.638-2.962-2.369-6.559-2.194-10.791c0.661-5.273,2.979-9.456,6.949-12.549
		c4.458-3.027,9.107-4.671,13.949-4.932h1.358c3.448,0,6.304,0.244,8.568,0.732c4.598,1.205,8.185,2.881,10.763,5.029
		c2.577,1.986,4.702,4.688,6.374,8.105l-0.156,0.537l-10.763,4.834l-0.522-0.244c-0.662-1.985-2.526-3.597-5.591-4.834
		c-3.448-1.204-7.489-1.237-12.121-0.098c-1.985,0.619-3.379,1.416-4.18,2.393c-0.279,0.261-0.645,1.074-1.097,2.441
		c-0.07,1.595,0,2.523,0.209,2.783c0.452,1.107,1.358,2.1,2.717,2.979l1.358,0.537c9.892,2.734,16.596,4.72,20.114,5.957
		c3.03,1.302,5.347,2.734,6.949,4.297l2.926,3.711c2.159,3.353,3.309,7.015,3.448,10.986c0.034,0.261,0.052,0.57,0.052,0.928
		c0,1.27-0.209,2.979-0.627,5.127c-0.871,3.027-1.916,5.257-3.135,6.689c-2.09,2.409-3.604,3.857-4.545,4.346
		c-5.12,3.288-10.397,5.062-15.831,5.322h-4.754c-3.553-0.325-6.549-0.977-8.986-1.953c-3.901-1.692-7.054-3.581-9.457-5.664
		C424.558,263.021,422.834,260.596,421.371,257.438z"/>
	<path style="fill:#FFFFFF;" d="M532.607,200.505v13.086h-31.661v15.625h23.197v13.232h-23.197v16.357h33.02v13.232h-47.753v-71.533
		H532.607z M521.582,182.585l-8.098,14.844H497.34l6.636-14.844H521.582z"/>
	<path style="fill:#FFFFFF;" d="M208.01,370.438v-0.098c0-0.357,0.4-0.602,1.202-0.732c6.165-1.855,10.17-3.189,12.017-4.004
		c0.94,1.205,2.176,2.295,3.709,3.271c2.473,1.367,5.12,2.197,7.941,2.49c2.995,0.065,4.859,0,5.59-0.195
		c3.448-0.911,5.572-1.839,6.374-2.783c0.801-0.65,1.497-2.229,2.09-4.736c0.139-0.977,0-2.066-0.418-3.271
		c-0.522-0.813-1.08-1.497-1.672-2.051l-1.776-1.27l-1.985-0.83c-11.042-3.223-17.12-5.11-18.234-5.664
		c-5.12-1.92-8.934-5.094-11.442-9.521c-1.638-2.962-2.369-6.559-2.194-10.791c0.661-5.273,2.978-9.456,6.949-12.549
		c4.458-3.027,9.108-4.671,13.95-4.932h1.358c3.448,0,6.304,0.244,8.568,0.732c4.598,1.205,8.185,2.881,10.763,5.029
		c2.577,1.986,4.702,4.688,6.374,8.105l-0.157,0.537l-10.763,4.834l-0.522-0.244c-0.662-1.985-2.526-3.597-5.59-4.834
		c-3.448-1.204-7.489-1.236-12.121-0.098c-1.985,0.619-3.379,1.416-4.18,2.393c-0.279,0.261-0.645,1.074-1.097,2.441
		c-0.07,1.596,0,2.523,0.209,2.783c0.452,1.107,1.358,2.1,2.717,2.979l1.358,0.537c9.892,2.734,16.596,4.721,20.115,5.957
		c3.03,1.303,5.346,2.734,6.949,4.297l2.926,3.711c2.159,3.354,3.309,7.016,3.448,10.986c0.034,0.261,0.052,0.57,0.052,0.928
		c0,1.27-0.209,2.979-0.627,5.127c-0.871,3.027-1.916,5.258-3.135,6.689c-2.09,2.409-3.605,3.857-4.545,4.346
		c-5.12,3.288-10.397,5.062-15.831,5.322h-4.754c-3.553-0.325-6.549-0.977-8.986-1.953c-3.901-1.692-7.053-3.58-9.457-5.664
		C211.198,376.021,209.473,373.597,208.01,370.438z"/>
	<path style="fill:#FFFFFF;" d="M289.048,313.554v48.438c0.661,6.186,4.389,9.636,11.181,10.352
		c6.688-0.684,10.449-4.085,11.285-10.205v-48.584H326.3v52.197c-1.289,6.381-4.512,11.345-9.666,14.893
		c-4.598,3.027-9.3,4.622-14.106,4.785c-0.767,0.064-1.515,0.098-2.246,0.098c-7.141,0-13.045-1.937-17.712-5.811
		c-5.329-4.817-8.15-9.732-8.464-14.746v-51.416H289.048z"/>
	<path style="fill:#FFFFFF;" d="M365.593,313.212c8.046,0,14.333,2.702,18.861,8.105c3.971,4.753,5.956,10.107,5.956,16.064
		c0,1.074-0.07,2.344-0.209,3.809c-0.836,7.26-4.721,13.266-11.651,18.018l12.748,25.781h-16.51l-10.919-21.338h-9.457v21.484
		h-14.472l0.052-71.924H365.593z M363.503,349.882l4.284-0.488c2.438-0.618,4.476-1.904,6.113-3.857
		c1.393-1.92,2.229-4.215,2.508-6.885c0.139-3.32-0.906-6.217-3.135-8.691c-1.881-2.018-4.616-3.157-8.203-3.418H354.57v23.34
		H363.503z"/>
	<path style="fill:#FFFFFF;" d="M116.257,426.407v13.77h-15.308v57.861H86.738V440.03H70.385v-13.623H116.257z"/>
	<path style="fill:#FFFFFF;" d="M154.557,426.212c8.046,0,14.333,2.702,18.861,8.105c3.971,4.753,5.956,10.107,5.956,16.064
		c0,1.074-0.07,2.344-0.209,3.809c-0.836,7.26-4.72,13.266-11.651,18.018l12.748,25.781h-16.51l-10.919-21.338h-9.457v21.484
		h-14.472l0.052-71.924H154.557z M152.468,462.882l4.284-0.488c2.438-0.618,4.475-1.904,6.113-3.857
		c1.393-1.92,2.229-4.215,2.508-6.885c0.139-3.32-0.906-6.217-3.135-8.691c-1.881-2.018-4.616-3.157-8.203-3.418h-10.501v23.34
		H152.468z"/>
	<path style="fill:#FFFFFF;" d="M223.421,425.577c8.429,1.205,14.663,5.859,18.704,13.965c3.448,5.99,5.172,13.347,5.172,22.07
		v0.879c0,10.905-2.839,20.183-8.516,27.832c-4.041,5.144-9.753,8.023-17.137,8.643c-0.767,0.064-1.515,0.098-2.247,0.098
		c-7.663,0-14.089-3.027-19.279-9.082c-5.364-8.072-8.081-16.357-8.15-24.854c-0.035-0.716-0.052-1.432-0.052-2.148
		c0-11.49,2.734-20.996,8.203-28.516c3.657-4.102,7.471-6.722,11.442-7.861c2.751-0.813,5.503-1.221,8.255-1.221
		C221.035,425.382,222.237,425.447,223.421,425.577z M219.398,486.563c4.04-0.195,7.453-2.783,10.24-7.764
		c2.02-3.32,3.292-8.203,3.814-14.648c0.104-8.203-1.446-14.925-4.65-20.166c-2.612-3.646-5.504-5.68-8.673-6.104
		c-4.18,0.195-7.663,2.751-10.449,7.666c-1.985,3.451-3.274,8.398-3.866,14.844c-0.07,8.203,1.515,14.909,4.754,20.117
		C213.146,484.155,216.089,486.173,219.398,486.563z"/>
	<path style="fill:#FFFFFF;" d="M306.863,426.407v13.77h-15.309v57.861h-14.211V440.03H260.99v-13.623H306.863z"/>
	<path style="fill:#FFFFFF;" d="M365.852,426.407v13.77h-15.308v57.861h-14.211V440.03H319.98v-13.623H365.852z"/>
	<path style="fill:#FFFFFF;" d="M410.161,425.577c8.429,1.205,14.663,5.859,18.704,13.965c3.448,5.99,5.172,13.347,5.172,22.07
		v0.879c0,10.905-2.839,20.183-8.516,27.832c-4.041,5.144-9.753,8.023-17.137,8.643c-0.767,0.064-1.516,0.098-2.247,0.098
		c-7.663,0-14.089-3.027-19.278-9.082c-5.364-8.072-8.081-16.357-8.15-24.854c-0.035-0.716-0.053-1.432-0.053-2.148
		c0-11.49,2.734-20.996,8.203-28.516c3.657-4.102,7.471-6.722,11.441-7.861c2.751-0.813,5.503-1.221,8.255-1.221
		C407.775,425.382,408.977,425.447,410.161,425.577z M406.138,486.563c4.04-0.195,7.453-2.783,10.24-7.764
		c2.02-3.32,3.292-8.203,3.814-14.648c0.104-8.203-1.446-14.925-4.65-20.166c-2.612-3.646-5.504-5.68-8.673-6.104
		c-4.18,0.195-7.663,2.751-10.449,7.666c-1.985,3.451-3.274,8.398-3.866,14.844c-0.07,8.203,1.516,14.909,4.755,20.117
		C399.886,484.155,402.828,486.173,406.138,486.563z"/>
	<path style="fill:#FFFFFF;" d="M463.665,426.456v71.582h-14.524v-71.582H463.665z"/>
	<path style="fill:#FFFFFF;" d="M504.107,426.212c8.046,0,14.333,2.702,18.861,8.105c3.971,4.753,5.956,10.107,5.956,16.064
		c0,1.074-0.07,2.344-0.209,3.809c-0.836,7.26-4.721,13.266-11.651,18.018l12.748,25.781h-16.51l-10.919-21.338h-9.457v21.484
		h-14.472l0.052-71.924H504.107z M502.017,462.882l4.284-0.488c2.438-0.618,4.476-1.904,6.113-3.857
		c1.393-1.92,2.229-4.215,2.508-6.885c0.139-3.32-0.906-6.217-3.135-8.691c-1.881-2.018-4.616-3.157-8.203-3.418h-10.501v23.34
		H502.017z"/>
</g>
</svg>
