<?xml version="1.0" encoding="utf-8"?>
<!-- Generator: Adobe Illustrator 16.0.2, SVG Export Plug-In . SVG Version: 6.00 Build 0)  -->
<!DOCTYPE svg PUBLIC "-//W3C//DTD SVG 1.1//EN" "http://www.w3.org/Graphics/SVG/1.1/DTD/svg11.dtd">
<svg version="1.1" id="Ebene_1" xmlns="http://www.w3.org/2000/svg" xmlns:xlink="http://www.w3.org/1999/xlink" x="0px" y="0px"
	 width="598px" height="600px" viewBox="0 0 598 600" style="enable-background:new 0 0 598 600;" xml:space="preserve">
<path style="fill:#FFFFFF;stroke:#000000;stroke-width:2;stroke-linecap:round;stroke-linejoin:round;" d="M43.515,598.938h510.183
	c11.275,0,22.089-4.497,30.063-12.508c7.973-8.011,12.452-18.873,12.452-30.201V43.71c0-11.327-4.479-22.191-12.452-30.2
	C575.786,5.5,564.974,1,553.698,1H43.515C32.24,1,21.425,5.5,13.453,13.51C5.479,21.519,1,32.383,1,43.71v512.519
	c0,11.328,4.479,22.19,12.453,30.201C21.425,594.439,32.24,598.938,43.515,598.938z"/>
<polyline style="fill:#0000FF;" points="33.256,563.212 563.743,563.212 563.743,32.725 33.256,32.725 33.256,563.212 "/>
<g>
	<rect x="14.689" y="109.938" style="fill:none;" width="567.622" height="489"/>
	<path style="fill:#FFFFFF;" d="M97.446,167.164v-0.098c0-0.358,0.4-0.602,1.202-0.732c6.165-1.855,10.17-3.19,12.017-4.004
		c0.94,1.205,2.176,2.295,3.709,3.271c2.473,1.367,5.12,2.197,7.941,2.49c2.995,0.065,4.859,0,5.59-0.195
		c3.448-0.911,5.572-1.839,6.374-2.783c0.801-0.651,1.497-2.229,2.09-4.736c0.139-0.977,0-2.067-0.418-3.271
		c-0.522-0.813-1.08-1.497-1.672-2.051l-1.776-1.27l-1.985-0.83c-11.042-3.223-17.12-5.11-18.234-5.664
		c-5.12-1.92-8.934-5.094-11.442-9.521c-1.638-2.962-2.369-6.559-2.194-10.791c0.661-5.273,2.978-9.456,6.949-12.549
		c4.458-3.027,9.108-4.671,13.95-4.932h1.358c3.448,0,6.304,0.244,8.568,0.732c4.598,1.205,8.185,2.881,10.763,5.029
		c2.577,1.986,4.702,4.688,6.374,8.105l-0.157,0.537l-10.763,4.834l-0.522-0.244c-0.662-1.985-2.526-3.597-5.59-4.834
		c-3.448-1.204-7.489-1.237-12.121-0.098c-1.985,0.619-3.379,1.416-4.18,2.393c-0.279,0.261-0.645,1.074-1.097,2.441
		c-0.07,1.595,0,2.523,0.209,2.783c0.452,1.107,1.358,2.1,2.717,2.979l1.358,0.537c9.892,2.734,16.596,4.72,20.115,5.957
		c3.03,1.302,5.346,2.734,6.949,4.297l2.926,3.711c2.159,3.353,3.309,7.015,3.448,10.986c0.034,0.261,0.052,0.57,0.052,0.928
		c0,1.27-0.209,2.979-0.627,5.127c-0.871,3.027-1.916,5.257-3.135,6.689c-2.09,2.409-3.605,3.857-4.545,4.346
		c-5.12,3.288-10.397,5.062-15.831,5.322h-4.754c-3.553-0.325-6.549-0.977-8.986-1.953c-3.901-1.692-7.053-3.581-9.457-5.664
		C100.633,172.747,98.908,170.322,97.446,167.164z"/>
	<path style="fill:#FFFFFF;" d="M208.681,110.23v13.086H177.02v15.625h23.197v13.232H177.02v16.357h33.02v13.232h-47.753
		l0.052-71.533H208.681z"/>
	<path style="fill:#FFFFFF;" d="M254.452,109.303c10.136,1.628,16.771,7.275,19.906,16.943l0.47,2.393l-13.218,2.588
		c-1.08-4.167-2.926-6.934-5.538-8.301s-5.678-1.237-9.195,0.391c-2.334,1.855-4.276,4.395-5.825,7.617
		c-1.55,3.223-2.569,7.585-3.057,13.086c-0.209,5.859,0.609,10.946,2.456,15.259c1.846,4.313,4.083,7.17,6.714,8.569
		c2.629,1.4,5.32,1.595,8.072,0.586c2.751-0.651,4.945-3.304,6.583-7.959l13.218,3.809c-1.776,6.543-5.208,11.279-10.292,14.209
		c-3.728,2.214-8.116,3.467-13.166,3.76c-9.509-0.195-16.614-3.825-21.316-10.889c-4.946-7.682-7.489-15.999-7.628-24.951
		c0.069-11.198,2.646-20.361,7.732-27.49c3.204-3.938,6.792-6.657,10.763-8.154c2.995-1.106,6.251-1.66,9.77-1.66
		C252.049,109.107,253.233,109.173,254.452,109.303z"/>
	<path style="fill:#FFFFFF;" d="M332.878,110.133v13.77H317.57v57.861h-14.211v-58.008h-16.353v-13.623H332.878z"/>
	<path style="fill:#FFFFFF;" d="M361.931,110.182v71.582h-14.524v-71.582H361.931z"/>
	<path style="fill:#FFFFFF;" d="M408.382,109.303c8.429,1.205,14.663,5.859,18.704,13.965c3.448,5.99,5.172,13.347,5.172,22.07
		v0.879c0,10.905-2.839,20.183-8.516,27.832c-4.041,5.144-9.753,8.024-17.137,8.643c-0.767,0.065-1.516,0.098-2.247,0.098
		c-7.663,0-14.089-3.027-19.278-9.082c-5.364-8.073-8.081-16.357-8.15-24.854c-0.035-0.716-0.053-1.432-0.053-2.148
		c0-11.491,2.734-20.996,8.203-28.516c3.657-4.102,7.471-6.722,11.441-7.861c2.751-0.813,5.503-1.221,8.255-1.221
		C405.995,109.107,407.198,109.173,408.382,109.303z M404.359,170.289c4.04-0.195,7.453-2.783,10.24-7.764
		c2.02-3.32,3.292-8.203,3.814-14.648c0.104-8.203-1.446-14.925-4.65-20.166c-2.612-3.646-5.504-5.68-8.673-6.104
		c-4.18,0.195-7.663,2.751-10.449,7.666c-1.985,3.451-3.274,8.398-3.866,14.844c-0.07,8.203,1.516,14.909,4.755,20.117
		C398.107,167.88,401.049,169.898,404.359,170.289z"/>
	<path style="fill:#FFFFFF;" d="M464.811,110.084l19.227,38.184v-38.184h14.211l0.052,71.68h-13.949l-23.354-45.166l-0.052,45.215
		h-14.368v-71.729H464.811z"/>
	<path style="fill:#FFFFFF;" d="M83.1,268.084l19.749,71.533H87.855l-3.292-12.158h-21.16l-3.344,12.158H44.908l19.54-71.533H83.1z
		 M79.025,250.311l6.844,14.844H69.255l-8.359-14.844H79.025z M66.277,313.836h15.099l-7.314-27.93L66.277,313.836z"/>
	<path style="fill:#FFFFFF;" d="M168.269,268.133l15.517,51.465l13.323-51.465h14.89l-18.547,71.582h-19.383l-20.533-71.582H168.269
		z"/>
	<path style="fill:#FFFFFF;" d="M240.268,268.182v71.582h-14.524v-71.582H240.268z"/>
	<path style="fill:#FFFFFF;" d="M301.4,268.133v13.77h-15.308v57.861h-14.211v-58.008h-16.353v-13.623H301.4z"/>
	<path style="fill:#FFFFFF;" d="M360.442,268.23v13.086h-31.661v15.625h23.197v13.232h-23.197v16.357h33.02v13.232h-47.753
		l0.052-71.533H360.442z"/>
	<path style="fill:#FFFFFF;" d="M374.187,325.164v-0.098c0-0.357,0.399-0.602,1.201-0.732c6.165-1.855,10.17-3.189,12.017-4.004
		c0.94,1.205,2.177,2.295,3.71,3.271c2.473,1.367,5.12,2.197,7.941,2.49c2.995,0.065,4.858,0,5.59-0.195
		c3.448-0.911,5.572-1.839,6.374-2.783c0.801-0.65,1.497-2.229,2.09-4.736c0.139-0.977,0-2.066-0.418-3.271
		c-0.522-0.813-1.08-1.497-1.672-2.051l-1.776-1.27l-1.985-0.83c-11.042-3.223-17.119-5.11-18.233-5.664
		c-5.12-1.92-8.935-5.094-11.442-9.521c-1.638-2.962-2.369-6.559-2.194-10.791c0.661-5.273,2.979-9.456,6.949-12.549
		c4.458-3.027,9.107-4.671,13.949-4.932h1.358c3.448,0,6.304,0.244,8.568,0.732c4.598,1.205,8.185,2.881,10.763,5.029
		c2.577,1.986,4.702,4.688,6.374,8.105l-0.156,0.537l-10.763,4.834l-0.522-0.244c-0.662-1.985-2.526-3.597-5.591-4.834
		c-3.448-1.204-7.489-1.237-12.121-0.098c-1.985,0.619-3.379,1.416-4.18,2.393c-0.279,0.261-0.645,1.074-1.097,2.441
		c-0.07,1.595,0,2.523,0.209,2.783c0.452,1.107,1.358,2.1,2.717,2.979l1.358,0.537c9.892,2.734,16.596,4.72,20.114,5.957
		c3.03,1.302,5.347,2.734,6.949,4.297l2.926,3.711c2.159,3.354,3.309,7.016,3.448,10.986c0.034,0.261,0.052,0.57,0.052,0.928
		c0,1.27-0.209,2.979-0.627,5.127c-0.871,3.027-1.916,5.258-3.135,6.689c-2.09,2.409-3.604,3.857-4.545,4.346
		c-5.12,3.288-10.397,5.062-15.831,5.322h-4.754c-3.553-0.325-6.549-0.977-8.986-1.953c-3.901-1.692-7.054-3.58-9.457-5.664
		C377.373,330.747,375.65,328.322,374.187,325.164z"/>
	<path style="fill:#FFFFFF;" d="M438.61,325.164v-0.098c0-0.357,0.399-0.602,1.201-0.732c6.165-1.855,10.17-3.189,12.017-4.004
		c0.94,1.205,2.177,2.295,3.71,3.271c2.473,1.367,5.12,2.197,7.941,2.49c2.995,0.065,4.858,0,5.59-0.195
		c3.448-0.911,5.572-1.839,6.374-2.783c0.801-0.65,1.497-2.229,2.09-4.736c0.139-0.977,0-2.066-0.418-3.271
		c-0.522-0.813-1.08-1.497-1.672-2.051l-1.776-1.27l-1.985-0.83c-11.042-3.223-17.119-5.11-18.233-5.664
		c-5.12-1.92-8.935-5.094-11.442-9.521c-1.638-2.962-2.369-6.559-2.194-10.791c0.661-5.273,2.979-9.456,6.949-12.549
		c4.458-3.027,9.107-4.671,13.949-4.932h1.358c3.448,0,6.304,0.244,8.568,0.732c4.598,1.205,8.185,2.881,10.763,5.029
		c2.577,1.986,4.702,4.688,6.374,8.105l-0.156,0.537l-10.763,4.834l-0.522-0.244c-0.662-1.985-2.526-3.597-5.591-4.834
		c-3.448-1.204-7.489-1.237-12.121-0.098c-1.985,0.619-3.379,1.416-4.18,2.393c-0.279,0.261-0.645,1.074-1.097,2.441
		c-0.07,1.595,0,2.523,0.209,2.783c0.452,1.107,1.358,2.1,2.717,2.979l1.358,0.537c9.892,2.734,16.596,4.72,20.114,5.957
		c3.03,1.302,5.347,2.734,6.949,4.297l2.926,3.711c2.159,3.354,3.309,7.016,3.448,10.986c0.034,0.261,0.052,0.57,0.052,0.928
		c0,1.27-0.209,2.979-0.627,5.127c-0.871,3.027-1.916,5.258-3.135,6.689c-2.09,2.409-3.604,3.857-4.545,4.346
		c-5.12,3.288-10.397,5.062-15.831,5.322h-4.754c-3.553-0.325-6.549-0.977-8.986-1.953c-3.901-1.692-7.054-3.58-9.457-5.664
		C441.796,330.747,440.073,328.322,438.61,325.164z"/>
	<path style="fill:#FFFFFF;" d="M549.846,268.23v13.086h-31.661v15.625h23.197v13.232h-23.197v16.357h33.02v13.232h-47.753
		l0.052-71.533H549.846z"/>
	<path style="fill:#FFFFFF;" d="M112.649,425.938c8.046,0,14.333,2.702,18.861,8.105c3.971,4.753,5.956,10.107,5.956,16.064
		c0,1.074-0.07,2.344-0.209,3.809c-0.836,7.26-4.72,13.266-11.651,18.018l12.748,25.781h-16.51l-10.919-21.338h-9.457v21.484H86.996
		l0.052-71.924H112.649z M110.559,462.607l4.284-0.488c2.438-0.618,4.475-1.904,6.113-3.857c1.393-1.92,2.229-4.215,2.508-6.885
		c0.139-3.32-0.906-6.217-3.135-8.691c-1.881-2.018-4.616-3.157-8.203-3.418h-10.501v23.34H110.559z"/>
	<path style="fill:#FFFFFF;" d="M196.247,426.23v13.086h-31.661v15.625h23.197v13.232h-23.197v16.357h33.02v13.232h-47.753V426.23
		H196.247z M185.223,408.311l-8.516,14.844h-16.98l6.949-14.844H185.223z"/>
	<path style="fill:#FFFFFF;" d="M240.921,425.205c9.996,0.977,17.102,7.178,21.316,18.604l-13.584,3.32
		c-2.438-5.013-5.225-8.023-8.359-9.033c-4.075-1.432-8.012,0.57-11.808,6.006c-2.369,3.646-3.832,8.969-4.389,15.967
		c-0.104,7.715,1.193,13.876,3.893,18.481c2.699,4.606,5.877,7.153,9.535,7.642c5.852-0.26,10.205-5.143,13.062-14.648h-12.382
		v-13.037h27.272v0.586c0.034,0.781,0.052,1.579,0.052,2.393c0,11.752-2.909,21.322-8.725,28.711
		c-3.901,5.014-9.613,7.813-17.137,8.398h-1.149c-16.719,0-26.158-11.263-28.317-33.789c-0.035-0.65-0.052-1.318-0.052-2.002
		c0-11.426,2.769-20.996,8.307-28.711c3.273-3.906,6.809-6.429,10.606-7.568c2.995-0.911,6.13-1.367,9.404-1.367
		C239.266,425.156,240.085,425.173,240.921,425.205z"/>
	<path style="fill:#FFFFFF;" d="M293.798,426.279v48.438c0.661,6.186,4.389,9.636,11.181,10.352
		c6.688-0.684,10.449-4.085,11.285-10.205v-48.584h14.785v52.197c-1.289,6.381-4.511,11.345-9.665,14.893
		c-4.598,3.027-9.3,4.622-14.106,4.785c-0.767,0.064-1.516,0.098-2.247,0.098c-7.141,0-13.044-1.937-17.711-5.811
		c-5.329-4.817-8.15-9.732-8.464-14.746v-51.416H293.798z"/>
	<path style="fill:#FFFFFF;" d="M359.946,426.084l0.052,58.887h29.624l-0.053,12.793h-44.096v-71.68H359.946z"/>
	<path style="fill:#FFFFFF;" d="M448.507,426.23v13.086h-31.661v15.625h23.197v13.232h-23.197v16.357h33.02v13.232h-47.753V426.23
		H448.507z M437.483,408.311l-8.516,14.844h-16.98l6.949-14.844H437.483z"/>
	<path style="fill:#FFFFFF;" d="M509.064,426.23v13.086h-31.661v15.625H500.6v13.232h-23.197v16.357h33.02v13.232h-47.753
		l0.052-71.533H509.064z"/>
</g>
</svg>
