<?xml version="1.0" encoding="utf-8"?>
<!-- Generator: Adobe Illustrator 16.0.2, SVG Export Plug-In . SVG Version: 6.00 Build 0)  -->
<!DOCTYPE svg PUBLIC "-//W3C//DTD SVG 1.1//EN" "http://www.w3.org/Graphics/SVG/1.1/DTD/svg11.dtd">
<svg version="1.1" id="Ebene_1" xmlns="http://www.w3.org/2000/svg" xmlns:xlink="http://www.w3.org/1999/xlink" x="0px" y="0px"
	 width="598px" height="600px" viewBox="0 0 598 600" style="enable-background:new 0 0 598 600;" xml:space="preserve">
<path style="fill:#FFFFFF;stroke:#000000;stroke-width:2;stroke-linecap:round;stroke-linejoin:round;" d="M43.515,598.938h510.183
	c11.275,0,22.089-4.497,30.063-12.508c7.973-8.011,12.452-18.873,12.452-30.201V43.71c0-11.327-4.479-22.191-12.452-30.2
	C575.786,5.5,564.974,1,553.698,1H43.515C32.24,1,21.425,5.5,13.453,13.51C5.479,21.519,1,32.383,1,43.71v512.519
	c0,11.328,4.479,22.19,12.453,30.201C21.425,594.439,32.24,598.938,43.515,598.938z"/>
<polyline style="fill:#0000FF;" points="33.256,563.212 563.743,563.212 563.743,32.725 33.256,32.725 33.256,563.212 "/>
<g>
	<rect x="15.19" y="87.212" style="fill:none;" width="567.622" height="489"/>
	<path style="fill:#FFFFFF;" d="M190.555,87.358v13.086h-31.661v15.625h23.197v13.281h-23.197l-0.052,29.59h-14.733l0.052-71.582
		H190.555z"/>
	<path style="fill:#FFFFFF;" d="M219.085,87.456v71.582h-14.524V87.456H219.085z"/>
	<path style="fill:#FFFFFF;" d="M253.205,87.358l19.227,38.184V87.358h14.211l0.052,71.68h-13.95l-23.354-45.166l-0.052,45.215
		h-14.368V87.358H253.205z"/>
	<path style="fill:#FFFFFF;" d="M372.439,87.212c5.016,0.554,9.273,2.425,12.773,5.615c3.501,3.19,6.035,6.966,7.603,11.328
		c0.731,1.921,1.271,4.443,1.619,7.568v21.973c-0.522,7.422-3.022,13.412-7.497,17.969c-4.477,4.558-9.919,6.982-16.327,7.275
		h-30.303l0.053-71.729H372.439z M355.302,144.829h12.226c2.473-0.358,4.579-1.212,6.321-2.563c1.741-1.351,3.222-3.719,4.441-7.104
		c0.661-2.083,0.853-9.668,0.574-22.754c-1.638-6.771-5.416-10.661-11.337-11.67h-12.226V144.829z"/>
	<path style="fill:#FFFFFF;" d="M453.424,87.505v13.086h-31.661v15.625h23.197v13.232h-23.197v16.357h33.02v13.232H407.03
		l0.052-71.533H453.424z"/>
	<path style="fill:#FFFFFF;" d="M97.947,257.438v-0.098c0-0.358,0.4-0.602,1.202-0.732c6.165-1.855,10.17-3.19,12.017-4.004
		c0.94,1.205,2.176,2.295,3.709,3.271c2.473,1.367,5.12,2.197,7.941,2.49c2.995,0.065,4.859,0,5.59-0.195
		c3.448-0.911,5.572-1.839,6.374-2.783c0.801-0.651,1.497-2.229,2.09-4.736c0.139-0.977,0-2.067-0.418-3.271
		c-0.522-0.813-1.08-1.497-1.672-2.051l-1.776-1.27l-1.985-0.83c-11.042-3.223-17.12-5.11-18.234-5.664
		c-5.12-1.92-8.934-5.094-11.442-9.521c-1.638-2.962-2.369-6.559-2.194-10.791c0.661-5.273,2.978-9.456,6.949-12.549
		c4.458-3.027,9.108-4.671,13.95-4.932h1.358c3.448,0,6.304,0.244,8.568,0.732c4.598,1.205,8.185,2.881,10.763,5.029
		c2.577,1.986,4.702,4.688,6.374,8.105l-0.157,0.537l-10.763,4.834l-0.522-0.244c-0.662-1.985-2.526-3.597-5.59-4.834
		c-3.448-1.204-7.489-1.237-12.121-0.098c-1.985,0.619-3.379,1.416-4.18,2.393c-0.279,0.261-0.645,1.074-1.097,2.441
		c-0.07,1.595,0,2.523,0.209,2.783c0.452,1.107,1.358,2.1,2.717,2.979l1.358,0.537c9.892,2.734,16.596,4.72,20.115,5.957
		c3.03,1.302,5.346,2.734,6.949,4.297l2.926,3.711c2.159,3.353,3.309,7.015,3.448,10.986c0.034,0.261,0.052,0.57,0.052,0.928
		c0,1.27-0.209,2.979-0.627,5.127c-0.871,3.027-1.916,5.257-3.135,6.689c-2.09,2.409-3.605,3.857-4.545,4.346
		c-5.12,3.288-10.397,5.062-15.831,5.322h-4.754c-3.553-0.325-6.549-0.977-8.986-1.953c-3.901-1.692-7.053-3.581-9.457-5.664
		C101.134,263.021,99.409,260.596,97.947,257.438z"/>
	<path style="fill:#FFFFFF;" d="M209.182,200.505v13.086h-31.661v15.625h23.197v13.232h-23.197v16.357h33.02v13.232h-47.753
		l0.052-71.533H209.182z"/>
	<path style="fill:#FFFFFF;" d="M254.953,199.577c10.136,1.628,16.771,7.275,19.906,16.943l0.47,2.393l-13.218,2.588
		c-1.08-4.167-2.926-6.934-5.538-8.301s-5.678-1.237-9.195,0.391c-2.334,1.855-4.276,4.395-5.825,7.617
		c-1.55,3.223-2.569,7.585-3.057,13.086c-0.209,5.859,0.609,10.946,2.456,15.259c1.846,4.313,4.083,7.17,6.714,8.569
		c2.629,1.4,5.32,1.595,8.072,0.586c2.751-0.651,4.945-3.304,6.583-7.959l13.218,3.809c-1.776,6.543-5.208,11.279-10.292,14.209
		c-3.728,2.214-8.116,3.467-13.166,3.76c-9.509-0.195-16.614-3.825-21.316-10.889c-4.946-7.682-7.489-15.999-7.628-24.951
		c0.069-11.198,2.646-20.361,7.732-27.49c3.204-3.938,6.792-6.657,10.763-8.154c2.995-1.106,6.251-1.66,9.77-1.66
		C252.55,199.382,253.734,199.447,254.953,199.577z"/>
	<path style="fill:#FFFFFF;" d="M333.379,200.407v13.77h-15.309v57.861H303.86V214.03h-16.353v-13.623H333.379z"/>
	<path style="fill:#FFFFFF;" d="M362.432,200.456v71.582h-14.524v-71.582H362.432z"/>
	<path style="fill:#FFFFFF;" d="M408.883,199.577c8.429,1.205,14.663,5.859,18.704,13.965c3.448,5.99,5.172,13.347,5.172,22.07
		v0.879c0,10.905-2.839,20.183-8.516,27.832c-4.041,5.144-9.753,8.024-17.137,8.643c-0.767,0.065-1.516,0.098-2.247,0.098
		c-7.663,0-14.089-3.027-19.278-9.082c-5.364-8.073-8.081-16.357-8.15-24.854c-0.035-0.716-0.053-1.432-0.053-2.148
		c0-11.491,2.734-20.996,8.203-28.516c3.657-4.102,7.471-6.722,11.441-7.861c2.751-0.813,5.503-1.221,8.255-1.221
		C406.496,199.382,407.698,199.447,408.883,199.577z M404.86,260.563c4.04-0.195,7.453-2.783,10.24-7.764
		c2.02-3.32,3.292-8.203,3.814-14.648c0.104-8.203-1.446-14.925-4.65-20.166c-2.612-3.646-5.504-5.68-8.673-6.104
		c-4.18,0.195-7.663,2.751-10.449,7.666c-1.985,3.451-3.274,8.398-3.866,14.844c-0.07,8.203,1.516,14.909,4.755,20.117
		C398.608,258.155,401.55,260.173,404.86,260.563z"/>
	<path style="fill:#FFFFFF;" d="M465.312,200.358l19.227,38.184v-38.184h14.211l0.052,71.68h-13.949l-23.354-45.166l-0.052,45.215
		h-14.368v-71.729H465.312z"/>
	<path style="fill:#FFFFFF;" d="M83.601,313.358l19.749,71.533H88.356l-3.292-12.158h-21.16l-3.344,12.158H45.409l19.54-71.533
		H83.601z M79.526,295.585l6.844,14.844H69.756l-8.359-14.844H79.526z M66.778,359.11h15.099l-7.314-27.93L66.778,359.11z"/>
	<path style="fill:#FFFFFF;" d="M168.77,313.407l15.517,51.465l13.323-51.465h14.89l-18.547,71.582h-19.383l-20.533-71.582H168.77z"
		/>
	<path style="fill:#FFFFFF;" d="M240.769,313.456v71.582h-14.524v-71.582H240.769z"/>
	<path style="fill:#FFFFFF;" d="M301.901,313.407v13.77h-15.308v57.861h-14.211V327.03h-16.353v-13.623H301.901z"/>
	<path style="fill:#FFFFFF;" d="M360.943,313.505v13.086h-31.661v15.625h23.197v13.232h-23.197v16.357h33.02v13.232h-47.753
		l0.052-71.533H360.943z"/>
	<path style="fill:#FFFFFF;" d="M374.688,370.438v-0.098c0-0.357,0.399-0.602,1.201-0.732c6.165-1.855,10.17-3.189,12.017-4.004
		c0.94,1.205,2.177,2.295,3.71,3.271c2.473,1.367,5.12,2.197,7.941,2.49c2.995,0.065,4.858,0,5.59-0.195
		c3.448-0.911,5.572-1.839,6.374-2.783c0.801-0.65,1.497-2.229,2.09-4.736c0.139-0.977,0-2.066-0.418-3.271
		c-0.522-0.813-1.08-1.497-1.672-2.051l-1.776-1.27l-1.985-0.83c-11.042-3.223-17.119-5.11-18.233-5.664
		c-5.12-1.92-8.935-5.094-11.442-9.521c-1.638-2.962-2.369-6.559-2.194-10.791c0.661-5.273,2.979-9.456,6.949-12.549
		c4.458-3.027,9.107-4.671,13.949-4.932h1.358c3.448,0,6.304,0.244,8.568,0.732c4.598,1.205,8.185,2.881,10.763,5.029
		c2.577,1.986,4.702,4.688,6.374,8.105l-0.156,0.537l-10.763,4.834l-0.522-0.244c-0.662-1.985-2.526-3.597-5.591-4.834
		c-3.448-1.204-7.489-1.236-12.121-0.098c-1.985,0.619-3.379,1.416-4.18,2.393c-0.279,0.261-0.645,1.074-1.097,2.441
		c-0.07,1.596,0,2.523,0.209,2.783c0.452,1.107,1.358,2.1,2.717,2.979l1.358,0.537c9.892,2.734,16.596,4.721,20.114,5.957
		c3.03,1.303,5.347,2.734,6.949,4.297l2.926,3.711c2.159,3.354,3.309,7.016,3.448,10.986c0.034,0.261,0.052,0.57,0.052,0.928
		c0,1.27-0.209,2.979-0.627,5.127c-0.871,3.027-1.916,5.258-3.135,6.689c-2.09,2.409-3.604,3.857-4.545,4.346
		c-5.12,3.288-10.397,5.062-15.831,5.322h-4.754c-3.553-0.325-6.549-0.977-8.986-1.953c-3.901-1.692-7.054-3.58-9.457-5.664
		C377.874,376.021,376.151,373.597,374.688,370.438z"/>
	<path style="fill:#FFFFFF;" d="M439.111,370.438v-0.098c0-0.357,0.399-0.602,1.201-0.732c6.165-1.855,10.17-3.189,12.017-4.004
		c0.94,1.205,2.177,2.295,3.71,3.271c2.473,1.367,5.12,2.197,7.941,2.49c2.995,0.065,4.858,0,5.59-0.195
		c3.448-0.911,5.572-1.839,6.374-2.783c0.801-0.65,1.497-2.229,2.09-4.736c0.139-0.977,0-2.066-0.418-3.271
		c-0.522-0.813-1.08-1.497-1.672-2.051l-1.776-1.27l-1.985-0.83c-11.042-3.223-17.119-5.11-18.233-5.664
		c-5.12-1.92-8.935-5.094-11.442-9.521c-1.638-2.962-2.369-6.559-2.194-10.791c0.661-5.273,2.979-9.456,6.949-12.549
		c4.458-3.027,9.107-4.671,13.949-4.932h1.358c3.448,0,6.304,0.244,8.568,0.732c4.598,1.205,8.185,2.881,10.763,5.029
		c2.577,1.986,4.702,4.688,6.374,8.105l-0.156,0.537l-10.763,4.834l-0.522-0.244c-0.662-1.985-2.526-3.597-5.591-4.834
		c-3.448-1.204-7.489-1.236-12.121-0.098c-1.985,0.619-3.379,1.416-4.18,2.393c-0.279,0.261-0.645,1.074-1.097,2.441
		c-0.07,1.596,0,2.523,0.209,2.783c0.452,1.107,1.358,2.1,2.717,2.979l1.358,0.537c9.892,2.734,16.596,4.721,20.114,5.957
		c3.03,1.303,5.347,2.734,6.949,4.297l2.926,3.711c2.159,3.354,3.309,7.016,3.448,10.986c0.034,0.261,0.052,0.57,0.052,0.928
		c0,1.27-0.209,2.979-0.627,5.127c-0.871,3.027-1.916,5.258-3.135,6.689c-2.09,2.409-3.604,3.857-4.545,4.346
		c-5.12,3.288-10.397,5.062-15.831,5.322h-4.754c-3.553-0.325-6.549-0.977-8.986-1.953c-3.901-1.692-7.054-3.58-9.457-5.664
		C442.297,376.021,440.573,373.597,439.111,370.438z"/>
	<path style="fill:#FFFFFF;" d="M550.347,313.505v13.086h-31.661v15.625h23.197v13.232h-23.197v16.357h33.02v13.232h-47.753
		l0.052-71.533H550.347z"/>
	<path style="fill:#FFFFFF;" d="M113.15,426.212c8.046,0,14.333,2.702,18.861,8.105c3.971,4.753,5.956,10.107,5.956,16.064
		c0,1.074-0.07,2.344-0.209,3.809c-0.836,7.26-4.72,13.266-11.651,18.018l12.748,25.781h-16.51l-10.919-21.338h-9.457v21.484H87.497
		l0.052-71.924H113.15z M111.06,462.882l4.284-0.488c2.438-0.618,4.475-1.904,6.113-3.857c1.393-1.92,2.229-4.215,2.508-6.885
		c0.139-3.32-0.906-6.217-3.135-8.691c-1.881-2.018-4.616-3.157-8.203-3.418h-10.501v23.34H111.06z"/>
	<path style="fill:#FFFFFF;" d="M196.748,426.505v13.086h-31.661v15.625h23.197v13.232h-23.197v16.357h33.02v13.232h-47.753v-71.533
		H196.748z M185.724,408.585l-8.516,14.844h-16.98l6.949-14.844H185.724z"/>
	<path style="fill:#FFFFFF;" d="M241.422,425.479c9.996,0.977,17.102,7.178,21.316,18.604l-13.584,3.32
		c-2.438-5.013-5.225-8.023-8.359-9.033c-4.075-1.432-8.012,0.57-11.808,6.006c-2.369,3.646-3.832,8.969-4.389,15.967
		c-0.104,7.715,1.193,13.876,3.893,18.481c2.699,4.606,5.877,7.153,9.535,7.642c5.852-0.26,10.205-5.143,13.062-14.648h-12.382
		V458.78h27.272v0.586c0.034,0.781,0.052,1.579,0.052,2.393c0,11.752-2.909,21.322-8.725,28.711
		c-3.901,5.014-9.613,7.813-17.137,8.398h-1.149c-16.719,0-26.158-11.263-28.317-33.789c-0.035-0.65-0.052-1.318-0.052-2.002
		c0-11.426,2.769-20.996,8.307-28.711c3.273-3.906,6.809-6.429,10.606-7.568c2.995-0.911,6.13-1.367,9.404-1.367
		C239.767,425.431,240.586,425.447,241.422,425.479z"/>
	<path style="fill:#FFFFFF;" d="M294.299,426.554v48.438c0.661,6.186,4.389,9.636,11.181,10.352
		c6.688-0.684,10.449-4.085,11.285-10.205v-48.584h14.785v52.197c-1.289,6.381-4.511,11.345-9.665,14.893
		c-4.598,3.027-9.3,4.622-14.106,4.785c-0.767,0.064-1.516,0.098-2.247,0.098c-7.141,0-13.044-1.937-17.711-5.811
		c-5.329-4.817-8.15-9.732-8.464-14.746v-51.416H294.299z"/>
	<path style="fill:#FFFFFF;" d="M360.447,426.358l0.052,58.887h29.624l-0.053,12.793h-44.096v-71.68H360.447z"/>
	<path style="fill:#FFFFFF;" d="M449.008,426.505v13.086h-31.661v15.625h23.197v13.232h-23.197v16.357h33.02v13.232h-47.753v-71.533
		H449.008z M437.984,408.585l-8.516,14.844h-16.98l6.949-14.844H437.984z"/>
	<path style="fill:#FFFFFF;" d="M509.565,426.505v13.086h-31.661v15.625h23.197v13.232h-23.197v16.357h33.02v13.232H463.17
		l0.052-71.533H509.565z"/>
</g>
</svg>
