<?xml version="1.0" encoding="utf-8"?>
<!-- Generator: Adobe Illustrator 13.0.0, SVG Export Plug-In  -->
<!DOCTYPE svg PUBLIC "-//W3C//DTD SVG 1.1//EN" "http://www.w3.org/Graphics/SVG/1.1/DTD/svg11.dtd" [
	<!ENTITY ns_flows "http://ns.adobe.com/Flows/1.0/">
]>
<svg version="1.1"
	 xmlns="http://www.w3.org/2000/svg" xmlns:xlink="http://www.w3.org/1999/xlink" xmlns:a="http://ns.adobe.com/AdobeSVGViewerExtensions/3.0/"
	 x="0px" y="0px" width="598px" height="600px" viewBox="0 -0.031 598 600" enable-background="new 0 -0.031 598 600"
	 xml:space="preserve">
<defs>
</defs>
<path fill="#FFFFFF" stroke="#000000" stroke-width="2" stroke-linecap="round" stroke-linejoin="round" d="M43.515,598.938h510.183
	c11.275,0,22.089-4.498,30.063-12.508c7.973-8.011,12.452-18.873,12.452-30.201V43.71c0-11.327-4.479-22.191-12.452-30.2
	C575.787,5.5,564.974,1,553.698,1H43.515C32.24,1,21.425,5.5,13.453,13.51C5.479,21.519,1,32.383,1,43.71v512.519
	c0,11.328,4.479,22.19,12.453,30.201C21.425,594.439,32.24,598.938,43.515,598.938z"/>
<polyline fill="#0000FF" stroke="#000000" points="27.951,568.517 569.048,568.517 569.048,27.42 27.951,27.42 27.951,568.517 "/>
<rect x="56.993" y="50.065" fill="#FFFFFF" width="110.994" height="367.481"/>
<polygon fill="#0000FF" points="151.14,124.492 115.489,103.909 79.838,83.325 79.838,124.492 79.838,165.658 115.489,145.075 "/>
<polygon fill="#0000FF" points="148.14,254.985 112.489,234.402 76.838,213.819 76.838,254.985 76.838,296.152 112.489,275.568 "/>
<path fill="#FFFFFF" d="M540.719,344.05c0,6.627-5.373,12-12,12H275.232c-6.628,0-12-5.373-12-12v-65.995c0-6.627,5.372-12,12-12
	h253.486c6.627,0,12,5.373,12,12V344.05z"/>
<path fill="#FFFFFF" d="M528.719,410.048c0,6.627-5.373,12-12,12h-20.998c-6.627,0-12-5.373-12-12v-56.996c0-6.627,5.373-12,12-12
	h20.998c6.627,0,12,5.373,12,12V410.048z"/>
<path fill="#FFFFFF" d="M320.229,407.048c0,6.627-5.373,12-12,12h-20.998c-6.628,0-12-5.373-12-12v-56.996c0-6.627,5.372-12,12-12
	h20.998c6.627,0,12,5.373,12,12V407.048z"/>
<path fill="#FFFFFF" d="M383.227,257.056c0,5.611-4.029,10.16-9,10.16H234.733c-4.97,0-8.999-4.549-8.999-10.16l0,0
	c0-5.611,4.029-10.16,8.999-10.16h139.493C379.197,246.896,383.227,251.445,383.227,257.056L383.227,257.056z"/>
<path fill="#FFFFFF" d="M215.234,256.305c0,4.194-3.021,7.594-6.75,7.594h-28.498c-3.728,0-6.75-3.4-6.75-7.594l0,0
	c0-4.193,3.022-7.593,6.75-7.593h28.498C212.213,248.712,215.234,252.112,215.234,256.305L215.234,256.305z"/>
<ellipse fill="#FFFFFF" cx="345.729" cy="222.557" rx="18.749" ry="17.25"/>
<rect x="338.229" y="234.557" fill="#FFFFFF" width="16.499" height="17.999"/>
<path fill="#FFFFFF" d="M525.561,270.184l-19.568-75.27l-0.471,0.122c-2.146-9.361-11.313-16.529-22.55-17.228v-0.249H327.476
	c-0.911-0.088-1.832-0.147-2.771-0.147c-0.97,0-1.925,0.053-2.866,0.147h-0.859v0.095c-11.396,1.485-20.25,9.675-21.042,19.782
	l-19.765,71.84l16.68,4.09l20.114-73.11l0.028-0.019c0.25-1.407,0.98-2.75,2.167-3.761c0.559-0.477,1.174-0.84,1.817-1.095v0.178
	h161.992v-0.282c1.323,0.089,2.641,0.595,3.739,1.532c0.882,0.751,1.509,1.686,1.877,2.693l19.553,75.211L525.561,270.184z"/>
<path fill="#FFFFFF" d="M181.353,541.157h-14.746l12.5-59.619H158.11l2.49-11.963h56.396l-2.49,11.963h-20.703L181.353,541.157z"/>
<path fill="#FFFFFF" d="M220.22,489.302h14.014l-10.84,51.855H209.38L220.22,489.302z M224.321,469.575h14.014l-2.637,12.695
	h-14.014L224.321,469.575z"/>
<path fill="#FFFFFF" d="M272.319,521.626l13.623,2.197c-2.246,6.055-5.566,10.661-9.961,13.818
	c-4.395,3.158-9.489,4.736-15.283,4.736c-6.608,0-11.85-1.969-15.723-5.908c-3.874-3.938-5.811-9.358-5.811-16.26
	c0-5.631,1.172-10.953,3.516-15.967c2.344-5.013,5.875-8.96,10.596-11.841c4.72-2.881,9.896-4.321,15.527-4.321
	c6.119,0,11.002,1.596,14.648,4.785c3.646,3.19,5.696,7.39,6.152,12.598l-13.33,1.416c-0.326-2.896-1.213-5.029-2.661-6.396
	c-1.449-1.367-3.345-2.051-5.688-2.051c-2.702,0-5.225,1.01-7.568,3.027c-2.344,2.019-4.143,5.038-5.396,9.058
	c-1.254,4.021-1.88,7.788-1.88,11.304c0,3.061,0.748,5.42,2.246,7.08c1.497,1.66,3.369,2.49,5.615,2.49s4.41-0.813,6.494-2.441
	C269.52,527.323,271.147,524.882,272.319,521.626z"/>
<path fill="#FFFFFF" d="M292.534,541.157l14.99-71.582h14.014l-7.813,37.256l18.262-17.529H350.2l-20.85,18.848l11.084,33.008
	h-14.014l-7.129-23.975l-9.473,8.398l-3.271,15.576H292.534z"/>
<path fill="#FFFFFF" d="M398.882,519.575h-35.156c-0.033,0.554-0.049,0.977-0.049,1.27c0,3.451,0.984,6.234,2.954,8.35
	c1.969,2.116,4.37,3.174,7.202,3.174c4.654,0,8.284-2.408,10.889-7.227l12.549,2.1c-2.441,5.046-5.705,8.83-9.79,11.353
	c-4.086,2.523-8.667,3.784-13.745,3.784c-6.967,0-12.631-2.205-16.992-6.616c-4.362-4.41-6.543-10.245-6.543-17.505
	c0-7.096,1.969-13.411,5.908-18.945c5.371-7.486,13.037-11.23,22.998-11.23c6.348,0,11.393,1.962,15.137,5.884
	c3.743,3.923,5.615,9.416,5.615,16.479C399.858,513.83,399.532,516.874,398.882,519.575z M387.065,511.03
	c0.032-0.618,0.049-1.09,0.049-1.416c0-3.841-0.863-6.722-2.588-8.643c-1.726-1.92-4.037-2.881-6.934-2.881
	c-2.897,0-5.493,1.091-7.788,3.271c-2.295,2.182-3.85,5.404-4.663,9.668H387.065z"/>
<path fill="#FFFFFF" d="M407.524,499.702l2.148-10.4h6.836l1.709-8.301l16.064-9.668l-3.76,17.969h8.545l-2.148,10.4h-8.594
	l-4.541,21.729c-0.814,3.939-1.221,6.186-1.221,6.738c0,1.074,0.342,1.913,1.025,2.515c0.684,0.603,1.92,0.903,3.711,0.903
	c0.618,0,2.164-0.113,4.639-0.342l-2.197,10.4c-2.409,0.488-4.883,0.732-7.422,0.732c-4.948,0-8.545-0.952-10.791-2.856
	s-3.369-4.549-3.369-7.935c0-1.595,0.602-5.273,1.807-11.035l4.346-20.85H407.524z"/>
</svg>
