<?xml version="1.0" encoding="UTF-8" standalone="no"?>
<!-- Generator: Adobe Illustrator 13.0.0, SVG Export Plug-In . SVG Version: 6.00 Build 14948)  -->

<svg
   version="1.1"
   id="Calque_1"
   x="0px"
   y="0px"
   width="575.09998"
   height="575.09998"
   viewBox="-0.322 -0.549 575.09998 575.09998"
   enable-background="new -0.322 -0.549 576 576"
   xml:space="preserve"
   inkscape:version="1.2.2 (732a01da63, 2022-12-09)"
   sodipodi:docname="France_road_sign_C207.svg"
   xmlns:inkscape="http://www.inkscape.org/namespaces/inkscape"
   xmlns:sodipodi="http://sodipodi.sourceforge.net/DTD/sodipodi-0.dtd"
   xmlns="http://www.w3.org/2000/svg"
   xmlns:svg="http://www.w3.org/2000/svg"
   xmlns:rdf="http://www.w3.org/1999/02/22-rdf-syntax-ns#"
   xmlns:cc="http://creativecommons.org/ns#"
   xmlns:dc="http://purl.org/dc/elements/1.1/"><metadata
     id="metadata45"><rdf:RDF><cc:Work
         rdf:about=""><dc:format>image/svg+xml</dc:format><dc:type
           rdf:resource="http://purl.org/dc/dcmitype/StillImage" /></cc:Work></rdf:RDF></metadata><defs
     id="defs43"><inkscape:perspective
       id="perspective4308"
       inkscape:persp3d-origin="195 : 65.099976 : 1"
       inkscape:vp_z="390 : 98.099976 : 1"
       inkscape:vp_y="0 : 1000 : 0"
       inkscape:vp_x="0 : 98.099976 : 1"
       sodipodi:type="inkscape:persp3d" /></defs><sodipodi:namedview
     pagecolor="#ffffff"
     bordercolor="#666666"
     borderopacity="1"
     objecttolerance="10"
     gridtolerance="10"
     guidetolerance="10"
     inkscape:pageopacity="0"
     inkscape:pageshadow="2"
     inkscape:window-width="1920"
     inkscape:window-height="991"
     id="namedview41"
     showgrid="false"
     inkscape:zoom="1.3547826"
     inkscape:cx="305.58409"
     inkscape:cy="-11.44095"
     inkscape:window-x="-9"
     inkscape:window-y="-9"
     inkscape:window-maximized="1"
     inkscape:current-layer="Calque_1"
     inkscape:pagecheckerboard="false"
     inkscape:snap-intersection-paths="false"
     inkscape:snap-smooth-nodes="false"
     inkscape:object-paths="false"
     inkscape:snap-bbox="false"
     inkscape:snap-bbox-edge-midpoints="false"
     inkscape:bbox-nodes="false"
     showguides="true"
     inkscape:guide-bbox="true"
     inkscape:snap-bbox-midpoints="false"
     inkscape:showpageshadow="2"
     inkscape:deskcolor="#d1d1d1" /><rect
     style="display:inline;fill:#ffffff;fill-opacity:1;stroke:#000000;stroke-width:2;stroke-linecap:round;stroke-linejoin:round;stroke-miterlimit:4;stroke-dasharray:none;stroke-opacity:1"
     id="rect3174"
     width="573"
     height="573"
     x="0.72799993"
     y="0.50099993"
     ry="40.973492"
     inkscape:label="rect3"
     rx="40.973492" /><path
     id="rect4516"
     style="fill:#0000ff;fill-opacity:1;stroke:none;stroke-width:1.99651;stroke-linecap:round;stroke-linejoin:round;stroke-miterlimit:4;stroke-dasharray:none;stroke-opacity:1"
     inkscape:label="rect5"
     d="M 41.701437 27.951 C 34.20889 27.951 28.178 33.98189 28.178 41.474438 L 28.178 532.52717 C 28.178 540.01972 34.20889 546.05256 41.701437 546.05256 L 532.75417 546.05256 C 540.24672 546.05256 546.27956 540.01972 546.27956 532.52717 L 546.27956 41.474438 C 546.27956 33.98189 540.24672 27.951 532.75417 27.951 L 41.701437 27.951 z " /><path
     fill="#ffffff"
     d="m 441.01838,473.44721 -6.58323,-6.65875 -62.28021,61.59293 -37.2129,-37.62871 5.90359,-5.83859 -26.13983,-1.3067 6.99426,7.07265 -33.51646,33.14557 -35.28008,-35.67295 17.58652,-17.39247 -9.92886,-3.34849 -14.24089,14.08317 -28.07551,-28.3881 -22.79135,-7.90141 -30.75203,30.41173 -36.86972,-37.28172 12.57286,-12.43329 -9.63541,-3.64005 -9.52164,9.4165 -20.54117,-20.77059 -21.019118,-7.93964 34.903448,35.29346 -34.441752,34.06323 -34.903458,-35.29442 34.443674,-34.06323 -7.948246,-5.30711 -33.078659,32.7135 -10.485184,-10.6018 v 13.31654 l 3.827392,3.86945 -3.827392,3.78534 v 13.16837 l 10.41158,-10.29592 34.903458,35.29347 -33.885433,33.51167 -11.429605,-11.55769 v 13.31559 l 4.771814,4.82534 -4.771814,4.71923 v 13.16838 l 11.355047,-11.22983 19.993446,20.21618 h 13.168374 l -26.504986,-26.80036 33.885432,-33.51168 36.869722,37.28172 -23.287451,23.03032 h 13.315581 l 16.55606,-16.37348 16.19187,16.37348 h 13.16741 l -22.70245,-22.95671 34.44368,-34.06323 36.7101,37.12016 -20.12155,19.89882 h 13.3156 l 13.39014,-13.24293 5.26028,5.31954 6.65779,-6.58419 -5.26123,-5.31859 31.66776,-31.3179 35.27912,35.6739 -15.64222,15.46921 h 13.31558 l 8.90987,-8.81141 8.71392,8.81141 h 13.16837 l -15.22641,-15.39465 33.51646,-33.14652 37.21385,37.62776 -11.03578,10.91341 h 13.31654 l 4.30247,-4.25468 4.20784,4.25468 h 13.16838 L 378.73625,535.03632 Z M 123.60185,516.26354 86.732129,478.98182 121.1758,444.9186 l 36.86973,37.28076 z m 84.39576,3.13055 -36.7101,-37.12113 31.66681,-31.31695 36.7101,37.12113 z"
     id="path45462"
     style="stroke-width:0.955893" /><path
     fill="#ffffff"
     d="M 163.38926,242.35563 C 113.39363,221.16445 66.625062,205.69793 27.391025,196.8572 v 33.5995 c 31.382676,6.01017 68.269937,16.86473 107.990585,32.04478 8.19665,-8.05151 17.63497,-14.86987 28.00765,-20.14585 z"
     id="path45464"
     style="stroke-width:0.948576" /><path
     fill="#ffffff"
     d="m 327.07643,327.80048 c 0.57388,4.56075 0.87363,9.20593 0.87363,13.92035 0,6.33553 -0.53404,12.54775 -1.55945,18.59492 38.6924,25.71589 69.82749,51.35209 90.2342,74.13214 l 7.34577,6.71022 3.94608,4.9326 2.95955,4.93259 1.97304,8.87867 v 7.8912 l -3.94607,2.95955 -7.89121,2.95956 -8.06479,1.29481 C 350.28048,481.15196 230.46495,451.40747 101.57533,393.88679 75.661193,382.32081 50.834123,370.2777 27.391025,358.00692 v 23.67645 c 23.443098,12.27172 48.270168,24.31389 74.184305,35.87987 175.11655,78.1503 333.4822,105.0263 354.52635,60.28483 l 4.62431,-4.61862 C 474.88822,444.4269 418.98202,386.23369 327.07643,327.80048 Z"
     id="path45466"
     style="stroke-width:0.948576" /><ellipse
     fill="#ffffff"
     cx="482.2558"
     cy="151.12164"
     rx="82.94725"
     ry="87.800156"
     id="ellipse45468"
     style="stroke-width:0.948576" /><path
     d="m 498.63012,197.50887 -21.52318,0.57958 -10.51591,-3.40538 c -11.07746,-6.80888 -15.43712,-21.74325 -12.28215,-37.37673 l 34.71217,19.72089 10.31766,-2.46156 -5.49225,-11.70352 L 459.0897,143.478 c 0.47713,-0.95711 0.97324,-1.91232 1.51108,-2.85616 0.89545,-1.57653 1.85636,-3.07623 2.8628,-4.51617 l 38.38791,21.8106 10.31765,-2.4606 -5.4932,-11.70353 -33.16315,-18.49627 c 11.32599,-9.1253 25.05188,-11.67128 35.54218,-5.22001 l 8.54762,7.87981 5.94851,12.67866 16.63992,-25.65802 C 526.53532,103.2897 517.63009,93.316373 499.6432,91.41353 c -17.13791,-1.814625 -35.00433,8.76295 -47.47336,19.85179 -0.47334,0.42117 -0.93719,0.86036 -1.39725,1.30904 l -8.51821,-4.75047 -7.34008,12.06114 7.0574,4.01058 c -1.47788,2.45871 -2.82675,5.06919 -4.04567,7.78117 l -8.50114,-4.74099 -7.34197,12.06019 11.10497,6.30898 c -3.31432,13.06853 -3.4642,26.85702 0.88882,37.57024 7.84756,19.32343 31.56385,30.55172 49.33826,38.43438 z"
     id="path45470"
     style="stroke-width:0.948576" /><path
     id="path45472"
     style="stroke-width:0.948576;fill:#ffffff"
     d="M 209.40456 251.74592 C 207.5091 251.74592 205.63169 251.81775 203.76394 251.92756 C 218.88629 274.50681 244.26574 289.31038 273.03347 289.31038 C 276.82813 289.31038 280.55579 289.02793 284.21706 288.52913 C 266.99888 266.17399 239.90227 251.74592 209.40456 251.74592 z M 199.49245 252.26545 C 152.12022 257.19375 115.19167 297.03755 115.19167 345.46663 C 115.19167 349.74279 115.48447 353.94771 116.04128 358.07209 L 118.2737 359.78498 C 160.91779 392.51363 212.71785 410.90522 266.12917 416.03889 L 270.8655 416.49592 C 290.9193 399.30966 303.6155 373.86408 303.6155 345.46663 C 303.6155 325.58826 297.37545 307.16791 286.76394 292.00178 C 282.28933 292.72183 277.70572 293.1053 273.03347 293.1053 C 242.22239 293.1053 215.14067 276.83306 199.49245 252.26545 z " /><path
     d="m 198.66964,373.66411 -15.16773,-9.3928 -5.73035,-7.14277 c -4.56929,-9.7542 -0.79111,-22.0743 8.51063,-31.45666 l 15.05674,29.44568 8.26399,2.99181 1.52436,-10.59939 -15.24171,-29.23225 c 0.76645,-0.44394 1.54428,-0.87933 2.34678,-1.28722 1.33749,-0.68582 2.68636,-1.28437 4.03808,-1.82316 l 16.65035,32.56365 8.26304,2.99086 1.52436,-10.59938 -14.54261,-27.89287 c 11.99474,-1.16106 22.65673,3.32476 26.98508,12.56199 l 2.33065,9.34442 -1.65242,11.48156 23.20216,-10.18486 c -4.15381,-14.27512 -5.78062,-25.22927 -17.36842,-34.73305 -11.04237,-9.05605 -28.22676,-9.86518 -41.90712,-7.86559 -0.51792,0.0759 -1.04059,0.1698 -1.56325,0.27035 l -3.73644,-7.16365 -10.57283,5.00564 3.06201,5.98836 c -2.14189,1.03015 -4.26385,2.22061 -6.34313,3.54293 l -3.72886,-7.15132 -10.57187,5.00564 4.81686,9.4203 c -8.24312,7.53644 -14.62324,17.01176 -16.48719,26.4074 -3.36175,16.94346 7.94811,35.50898 16.66742,49.05274 z"
     id="path45476"
     style="stroke-width:0.948576" /><g
     id="ellipse45478"><path
       id="path45737"
       style="color:#000000;fill:#ffffff;stroke-width:3.7943;-inkscape-stroke:none"
       d="M 273.03347 117.50569 C 226.68142 117.50569 189.10378 155.9197 189.10378 203.40803 C 189.10378 250.89637 226.68142 289.31038 273.03347 289.31038 C 319.38552 289.31038 356.96511 250.89637 356.96511 203.40803 C 356.96511 155.9197 319.38552 117.50569 273.03347 117.50569 z " /></g><path
     d="m 311.5084,212.28578 -7.89215,18.74386 -6.91322,7.66734 c -9.95435,6.77757 -24.03026,4.50288 -35.76319,-4.52092 l 29.85262,-21.89122 1.97304,-9.86519 h -11.83823 l -29.58892,22.06671 c -0.60803,-0.7968 -1.20564,-1.60878 -1.77952,-2.45112 -0.95807,-1.40673 -1.82791,-2.83908 -2.6304,-4.28471 l 33.01327,-24.2086 1.97304,-9.86519 h -11.83822 l -28.23436,21.05648 c -3.15875,-13.42139 0.0711,-26.25277 9.49714,-32.66989 l 9.85855,-4.16994 h 12.82474 l -14.79778,-24.66296 c -14.96757,7.04412 -26.69861,10.67716 -35.27278,25.37629 -8.17009,14.00667 -6.35261,33.63744 -2.01098,48.83362 0.16505,0.57579 0.34907,1.15347 0.54163,1.73021 l -7.25186,5.40783 7.14278,11.17991 6.06993,-4.45167 c 1.46365,2.26141 3.10279,4.47538 4.87663,6.61821 l -7.23763,5.3974 7.14277,11.17991 9.54931,-7.00333 c 9.54552,8.12265 20.91704,13.81505 31.49271,14.39653 19.07207,1.04818 37.60534,-14.8158 51.05424,-26.91963 z"
     id="path45480"
     style="stroke-width:0.948576" /></svg>
