<?xml version="1.0" encoding="utf-8"?>
<!-- Generator: Adobe Illustrator 15.0.0, SVG Export Plug-In  -->
<!DOCTYPE svg PUBLIC "-//W3C//DTD SVG 1.1//EN" "http://www.w3.org/Graphics/SVG/1.1/DTD/svg11.dtd" [
	<!ENTITY ns_flows "http://ns.adobe.com/Flows/1.0/">
]>
<svg version="1.1"
	 xmlns="http://www.w3.org/2000/svg" xmlns:xlink="http://www.w3.org/1999/xlink" xmlns:a="http://ns.adobe.com/AdobeSVGViewerExtensions/3.0/"
	 x="0px" y="0px" width="568px" height="564px" viewBox="-0.4 -0.667 568 564" enable-background="new -0.4 -0.667 568 564"
	 xml:space="preserve">
<defs>
</defs>
<path fill="#FFFFFF" stroke="#000000" stroke-width="2" stroke-linecap="round" stroke-linejoin="round" d="M565.667,549.13
	c0,6.924-5.863,12.537-13.098,12.537H14.098C6.864,561.667,1,556.054,1,549.13V13.537C1,6.613,6.864,1,14.098,1h538.471
	c7.234,0,13.098,5.613,13.098,12.537V549.13z"/>
<rect x="33.934" y="30.333" fill="#0000FF" width="500" height="502.167"/>
<path fill="#FFFFFF" d="M255.6,315.333c-14.171,2.752-19.987-8.642-22.056-21.5h5.169l8.386-13.622v-1.378h-14.537
	c0.033-2.526,0.152-4.897,0.314-7h20.106L263.6,256.85v-1.516h-29.504c0.759-5.507,2.549-10.629,7.504-14
	c6.732-4.581,18.938-4.289,23.5,3.5l2,2.5l11-15.5l-2-2c-9.503-14.782-29.43-15.045-43.5-6c-10.256,6.593-16.331,19.011-18.977,31.5
	h-9.796l-9.228,15.225v1.275h17.373c-0.056,2.293-0.089,4.633-0.082,7h-12.002l-7.289,13.841v1.159h20.175
	c1.076,8.219,3.336,16.15,7.88,22.814c12.804,18.779,28.671,21.978,48.944,12.686l-1.5-26.5L255.6,315.333z"/>
<path fill="#FFFFFF" d="M369.284,421.372c-8.701,1.301-12.272-4.085-13.543-10.162h3.175l5.148-6.438v-0.652h-8.925
	c0.02-1.193,0.093-2.314,0.192-3.308h12.346l6.519-7.083v-0.717h-18.115c0.466-2.603,1.564-5.025,4.607-6.618
	c4.134-2.164,11.629-2.027,14.43,1.654l1.229,1.183l6.754-7.326l-1.228-0.945c-5.835-6.987-18.072-7.112-26.711-2.837
	c-6.297,3.117-10.027,8.985-11.652,14.89h-6.015l-5.667,7.196v0.604h10.669c-0.036,1.082-0.057,2.189-0.051,3.308h-7.37
	l-4.476,6.542v0.549h12.389c0.66,3.884,2.048,7.634,4.839,10.783c7.861,8.877,17.604,10.389,30.054,5.996l-0.921-12.526
	L369.284,421.372z"/>
<path fill="#FFFFFF" d="M363.1,345.833c-32.309,0-58.5,26.303-58.5,58.75s26.191,58.75,58.5,58.75s58.5-26.303,58.5-58.75
	S395.409,345.833,363.1,345.833z M362.85,447.333c-23.885,0-43.25-19.14-43.25-42.75s19.365-42.75,43.25-42.75
	s43.25,19.14,43.25,42.75S386.735,447.333,362.85,447.333z"/>
<path fill="#FFFFFF" d="M470.6,385.484c-20.678,0-37.439,16.833-37.439,37.6s16.762,37.6,37.439,37.6s37.439-16.833,37.439-37.6
	S491.278,385.484,470.6,385.484z M470.44,450.444c-15.286,0-27.68-12.249-27.68-27.36s12.394-27.36,27.68-27.36
	c15.287,0,27.681,12.249,27.681,27.36S485.727,450.444,470.44,450.444z"/>
<path fill="#FFFFFF" d="M283.939,88.169L53.098,322.524l140.477,138.37l230.841-234.356L283.939,88.169z M81.991,322.121
	l203.706-206.806l112.267,110.582L194.258,432.705L81.991,322.121z"/>
</svg>
