<?xml version="1.0" encoding="UTF-8" standalone="no"?>
<!-- Generator: Adobe Illustrator 16.0.2, SVG Export Plug-In . SVG Version: 6.00 Build 0)  -->

<svg
   xmlns:dc="http://purl.org/dc/elements/1.1/"
   xmlns:cc="http://creativecommons.org/ns#"
   xmlns:rdf="http://www.w3.org/1999/02/22-rdf-syntax-ns#"
   xmlns:svg="http://www.w3.org/2000/svg"
   xmlns="http://www.w3.org/2000/svg"
   xmlns:sodipodi="http://sodipodi.sourceforge.net/DTD/sodipodi-0.dtd"
   xmlns:inkscape="http://www.inkscape.org/namespaces/inkscape"
   version="1.1"
   id="Ebene_1"
   x="0px"
   y="0px"
   width="545.82385"
   height="730.83008"
   viewBox="0 0 545.82385 730.83008"
   xml:space="preserve"
   sodipodi:docname="France_road_sign_C65a.svg"
   inkscape:version="0.92.4 (5da689c313, 2019-01-14)"><metadata
   id="metadata227"><rdf:RDF><cc:Work
       rdf:about=""><dc:format>image/svg+xml</dc:format><dc:type
         rdf:resource="http://purl.org/dc/dcmitype/StillImage" /><dc:title /></cc:Work></rdf:RDF></metadata><defs
   id="defs225"><clipPath
     id="clip0_5954_3589"><rect
       id="rect4097"
       height="139"
       width="457"
       x="0"
       y="0"
       style="fill:#ffffff" /></clipPath></defs><sodipodi:namedview
   pagecolor="#ffffff"
   bordercolor="#666666"
   borderopacity="1"
   objecttolerance="10"
   gridtolerance="10"
   guidetolerance="10"
   inkscape:pageopacity="0"
   inkscape:pageshadow="2"
   inkscape:window-width="640"
   inkscape:window-height="480"
   id="namedview223"
   showgrid="false"
   inkscape:zoom="1.1428571"
   inkscape:cx="-22.914828"
   inkscape:cy="376.45384"
   inkscape:current-layer="Ebene_1"
   fit-margin-top="0"
   fit-margin-left="0"
   fit-margin-right="0"
   fit-margin-bottom="0" />

<polyline
   style="fill:#0000ff;stroke:#0000ff;stroke-width:0.7087;stroke-linecap:round;stroke-linejoin:round"
   points="  26.007,20.309 26.007,804.698 571.092,804.698 571.092,20.309 26.007,20.309 "
   id="polyline4"
   transform="matrix(1.000046,0,0,0.93087189,-25.648783,-18.570525)" />
<polyline
   style="fill:#ffffff;stroke:#000000;stroke-width:0.7087;stroke-linecap:round;stroke-linejoin:round"
   points="  97.468,200.223 97.468,325.701 494.181,325.701 494.181,200.223 97.468,200.223 "
   id="polyline6"
   transform="translate(-20.457014,25.539063)" />





































































<g
   aria-label="paiement
péage flux libre"
   style="font-style:normal;font-variant:normal;font-weight:normal;font-stretch:normal;font-size:64px;line-height:1.25;font-family:'Caracteres L4';-inkscape-font-specification:'Caracteres L4';text-align:center;letter-spacing:0px;word-spacing:0px;text-anchor:middle;fill:#ffffff;fill-opacity:1;stroke:none"
   id="text231"><path
     d="m 161.77121,37.601562 h 7.09375 l -0.65625,4.03125 q 1.71875,-3.375 4.375,-4.21875 1.375,-0.375 3.375,-0.5 3,0.40625 4.03125,2 2.84375,2.84375 3.3125,8.25 0.0937,1.25 0.0937,2.46875 0,3.875 -1.3125,8 -1.5625,4.5 -3.96875,7 -3.53125,4.0625 -6.625,4.125 -5.65625,0.53125 -7.34375,-4.6875 l -2.9375,16.25 h -7.40625 z m 7.21875,25.625 q 3.78125,-0.21875 7.1875,-11.1875 0.1875,-8.84375 -3.28125,-9.25 -5.90625,0.9375 -6.84375,10.71875 -1.53125,9.34375 2.9375,9.71875 z"
     style=""
     id="path4255" /><path
     d="m 195.36496,47.320312 -6.90625,-0.1875 q 0.1875,-4.4375 4.71875,-7.5 4.0625,-2.28125 8.1875,-2.28125 h 0.34375 q 5.28125,0.40625 7.625,3.78125 0.96875,1.6875 0.96875,4 0,0.3125 -0.0312,0.65625 0,2.03125 -0.53125,4.4375 l -3.21875,18.15625 h -7.4375 l 0.78125,-3.65625 q -2.5625,4.03125 -7.125,4.0625 -7.25,-0.09375 -7.6875,-7.9375 0.28125,-7.1875 6.5,-9.9375 4.09375,-1.65625 11,-1.6875 l 0.375,-2.59375 q 0.34375,-3.53125 -2.96875,-3.75 -3.25,0.03125 -4.59375,4.4375 z m 6.25,7.09375 -2.4375,-0.03125 q -7.5,1.09375 -7.4375,6.46875 0.5625,2.96875 3.125,2.90625 4.9375,-0.8125 6.75,-9.34375 z"
     style=""
     id="path4257" /><path
     d="m 218.45871,37.757812 h 7.53125 l -6.03125,30.65625 h -7.65625 z m 2.28125,-11.78125 h 7.25 l -1.21875,7.03125 h -7.25 z"
     style=""
     id="path4259" /><path
     d="m 243.30246,37.007812 q 5.1875,0 7.40625,2.53125 2.375,2.25 2.5625,7.125 0.0312,0.65625 0.0312,1.28125 -0.0625,3.71875 -0.84375,7.0625 h -16.28125 q -1.1875,5.75 1.3125,7.625 1.65625,1.0625 3.5625,-0.125 2.125,-1.625 2.90625,-4.8125 h 7.96875 q -1.40625,5.75 -6.03125,9.03125 -3,1.78125 -6.34375,1.78125 -2.8125,0 -5.90625,-1.25 -5.21875,-3.1875 -5.21875,-10.28125 0,-0.625 0.0312,-1.28125 0.96875,-9.53125 4.9375,-14.28125 3.46875,-4.15625 9.90625,-4.40625 z m -6.0625,12.09375 h 8.875 q 0.4375,-4.1875 -0.5625,-5.78125 -2.53125,-2.78125 -6.15625,0.375 -1.78125,2.0625 -2.15625,5.40625 z"
     style=""
     id="path4261" /><path
     d="m 260.70871,37.414062 h 7.1875 l -0.59375,5.21875 q 3.40625,-4.65625 6.84375,-5.34375 0.875,-0.09375 1.625,-0.09375 2.1875,0 3.25,0.75 2.875,1.84375 3,6.09375 5.1875,-6.34375 8.1875,-6.5 0.875,-0.25 1.625,-0.25 2.1875,0 3.34375,0.75 2.15625,1.4375 2.84375,3.75 0.46875,1.8125 0.46875,3.96875 0,1.59375 -0.28125,3.375 l -3.625,19.28125 h -7.6875 l 3.59375,-18.9375 q 0.59375,-3.1875 -0.5,-4.96875 -2.5625,-1.5625 -5.5625,0.8125 -2.03125,1.9375 -3.1875,6.84375 l -2.71875,16.1875 h -7.6875 l 3.59375,-18.9375 q 0.59375,-3.1875 -0.75,-4.71875 -2.3125,-1.8125 -4.96875,0.5625 -2.03125,1.9375 -3.1875,6.84375 l -3,16.25 h -7.25 l 5,-27.1875 z"
     style=""
     id="path4263" /><path
     d="m 315.05246,37.007812 q 5.1875,0 7.40625,2.53125 2.375,2.25 2.5625,7.125 0.0312,0.65625 0.0312,1.28125 -0.0625,3.71875 -0.84375,7.0625 h -16.28125 q -1.1875,5.75 1.3125,7.625 1.65625,1.0625 3.5625,-0.125 2.125,-1.625 2.90625,-4.8125 h 7.96875 q -1.40625,5.75 -6.03125,9.03125 -3,1.78125 -6.34375,1.78125 -2.8125,0 -5.90625,-1.25 -5.21875,-3.1875 -5.21875,-10.28125 0,-0.625 0.0312,-1.28125 0.96875,-9.53125 4.9375,-14.28125 3.46875,-4.15625 9.90625,-4.40625 z m -6.0625,12.09375 h 8.875 q 0.4375,-4.1875 -0.5625,-5.78125 -2.53125,-2.78125 -6.15625,0.375 -1.78125,2.0625 -2.15625,5.40625 z"
     style=""
     id="path4265" /><path
     d="m 332.89621,37.414062 h 7.1875 l -0.59375,5.21875 q 3.40625,-4.65625 6.84375,-5.34375 0.875,-0.09375 1.625,-0.09375 2.1875,0 3.25,0.75 2.15625,1.28125 2.75,3.78125 0.46875,1.8125 0.46875,3.96875 0,1.59375 -0.28125,3.375 l -3.4375,19.28125 h -7.6875 l 3.59375,-18.9375 q 0.59375,-3.1875 -0.75,-4.71875 -2.3125,-1.8125 -4.96875,0.5625 -2.03125,1.9375 -3.1875,6.84375 l -3,16.25 h -7.25 l 5,-27.1875 z"
     style=""
     id="path4267" /><path
     d="m 363.55246,32.007812 7.625,-2.78125 -1.3125,8.21875 h 5.4375 l -1.21875,5.53125 h -5.34375 l -2.84375,16 q -0.53125,3.25 0.9375,3.25 2.34375,0.21875 4.34375,-0.9375 -0.125,1.9375 -0.28125,3.375 -0.15625,1.4375 -0.40625,2.78125 -1.9375,1.25 -5.0625,1.25 -6.625,-0.375 -7,-6.0625 0.0312,-3.0625 0.4375,-5.375 l 2.5,-14.34375 h -4.4375 l 1.15625,-5.46875 h 4.46875 z"
     style=""
     id="path4269" /><path
     d="m 79.14621,117.60156 h 7.09375 l -0.65625,4.03125 q 1.71875,-3.375 4.375,-4.21875 1.375,-0.375 3.375,-0.5 3,0.40625 4.03125,2 2.84375,2.84375 3.3125,8.25 0.0937,1.25 0.0937,2.46875 0,3.875 -1.3125,8 -1.5625,4.5 -3.96875,7 -3.53125,4.0625 -6.625,4.125 -5.65625,0.53125 -7.34375,-4.6875 l -2.9375,16.25 h -7.40625 z m 7.21875,25.625 q 3.78125,-0.21875 7.1875,-11.1875 0.1875,-8.84375 -3.28125,-9.25 -5.90625,0.9375 -6.84375,10.71875 -1.53125,9.34375 2.9375,9.71875 z"
     style=""
     id="path4271" /><path
     d="m 119.33371,105.38281 7.625,-0.0312 -8.53125,9.9375 h -4.71875 z m -1.53125,11.625 q 5.1875,0 7.40625,2.53125 2.375,2.25 2.5625,7.125 0.0312,0.65625 0.0312,1.28125 -0.0625,3.71875 -0.84375,7.0625 h -16.28125 q -1.1875,5.75 1.3125,7.625 1.65625,1.0625 3.5625,-0.125 2.125,-1.625 2.90625,-4.8125 h 7.96875 q -1.40625,5.75 -6.03125,9.03125 -3,1.78125 -6.34375,1.78125 -2.8125,0 -5.90625,-1.25 -5.21875,-3.1875 -5.21875,-10.28125 0,-0.625 0.0312,-1.28125 0.96875,-9.53125 4.9375,-14.28125 3.46875,-4.15625 9.90625,-4.40625 z m -6.0625,12.09375 h 8.875 q 0.4375,-4.1875 -0.5625,-5.78125 -2.53125,-2.78125 -6.15625,0.375 -1.78125,2.0625 -2.15625,5.40625 z"
     style=""
     id="path4273" /><path
     d="m 140.48996,127.32031 -6.90625,-0.1875 q 0.1875,-4.4375 4.71875,-7.5 4.0625,-2.28125 8.1875,-2.28125 h 0.34375 q 5.28125,0.40625 7.625,3.78125 0.96875,1.6875 0.96875,4 0,0.3125 -0.0312,0.65625 0,2.03125 -0.53125,4.4375 l -3.21875,18.15625 h -7.4375 l 0.78125,-3.65625 q -2.5625,4.03125 -7.125,4.0625 -7.25,-0.0937 -7.6875,-7.9375 0.28125,-7.1875 6.5,-9.9375 4.09375,-1.65625 11,-1.6875 l 0.375,-2.59375 q 0.34375,-3.53125 -2.96875,-3.75 -3.25,0.0312 -4.59375,4.4375 z m 6.25,7.09375 -2.4375,-0.0312 q -7.5,1.09375 -7.4375,6.46875 0.5625,2.96875 3.125,2.90625 4.9375,-0.8125 6.75,-9.34375 z"
     style=""
     id="path4275" /><path
     d="m 177.27121,121.60156 0.6875,-3.8125 h 7.34375 l -5.5625,30.40625 q -1.6875,8.125 -5.25,11.15625 -3.03125,2.875 -7.96875,3.125 -1.0625,0.0312 -1.53125,0.0312 h -0.34375 q -4.0625,0 -6.53125,-2.53125 -2.03125,-2.53125 -2.34375,-7.625 l 0.15625,-1.53125 7.1875,0.0312 q -0.125,3.75 1.40625,5.09375 2.46875,1.28125 5.15625,-0.65625 2.40625,-2.28125 2.96875,-10.4375 -1.75,3.21875 -6.40625,3.65625 -5.28125,-0.4375 -7.5,-6.34375 -1.40625,-5.375 -0.28125,-11.625 2.0625,-8.90625 7.125,-12.28125 1.84375,-1.34375 4.3125,-1.34375 0.53125,0 1.09375,0.0625 1.15625,0 2.03125,0.375 2.59375,1 4.25,4.25 z m -5.8125,0.90625 q -4.90625,0.65625 -6.15625,12 -0.875,7.84375 3.75,7.71875 5,-0.3125 6.28125,-11.15625 0.65625,-8.0625 -3.875,-8.5625 z"
     style=""
     id="path4277" /><path
     d="m 203.05246,117.00781 q 5.1875,0 7.40625,2.53125 2.375,2.25 2.5625,7.125 0.0312,0.65625 0.0312,1.28125 -0.0625,3.71875 -0.84375,7.0625 h -16.28125 q -1.1875,5.75 1.3125,7.625 1.65625,1.0625 3.5625,-0.125 2.125,-1.625 2.90625,-4.8125 h 7.96875 q -1.40625,5.75 -6.03125,9.03125 -3,1.78125 -6.34375,1.78125 -2.8125,0 -5.90625,-1.25 -5.21875,-3.1875 -5.21875,-10.28125 0,-0.625 0.0312,-1.28125 0.96875,-9.53125 4.9375,-14.28125 3.46875,-4.15625 9.90625,-4.40625 z m -6.0625,12.09375 h 8.875 q 0.4375,-4.1875 -0.5625,-5.78125 -2.53125,-2.78125 -6.15625,0.375 -1.78125,2.0625 -2.15625,5.40625 z"
     style=""
     id="path4279" /><path
     d="m 254.77121,103.82031 -1.03125,5.90625 q -1.53125,-0.46875 -3.25,0 -2.3125,0.6875 -2.875,4.375 l -0.65625,3.40625 h 4.84375 l -1.09375,5.8125 h -4.8125 l -4.5625,25.25 h -7.5 l 4.46875,-25.40625 h -4.34375 l 1.1875,-5.53125 h 4.09375 l 0.6875,-4.40625 q 1.40625,-6.5 5.46875,-8.46875 2.84375,-1.25 6.0625,-1.25 1.59375,0 3.3125,0.3125 z"
     style=""
     id="path4281" /><path
     d="m 269.27121,104.88281 -8.25,43.4375 h -7.375 l 8.34375,-43.4375 z"
     style=""
     id="path4283" /><path
     d="m 290.95871,148.44531 h -7.1875 l 0.59375,-5.21875 q -3.40625,4.65625 -6.84375,5.34375 -0.875,0.0937 -1.625,0.0937 -2.1875,0 -3.25,-0.75 -2.15625,-1.28125 -2.75,-3.78125 -0.46875,-1.8125 -0.46875,-3.96875 0,-1.59375 0.28125,-3.375 l 3.4375,-19.28125 h 7.6875 l -3.59375,18.9375 q -0.59375,3.1875 0.75,4.71875 2.3125,1.8125 4.96875,-0.5625 2.03125,-1.9375 3.1875,-6.84375 l 3,-16.25 h 7.25 l -5,27.1875 z"
     style=""
     id="path4285" /><path
     d="m 312.27121,117.66406 2.75,9.09375 6.25,-9.09375 h 9 l -12.21875,15.5 5.21875,15.1875 h -7.8125 l -2.59375,-10.21875 -6.5,10.1875 h -8.8125 l 12.25,-15.75 -5.15625,-14.90625 z"
     style=""
     id="path4287" /><path
     d="m 365.08371,104.88281 -8.25,43.4375 h -7.375 l 8.34375,-43.4375 z"
     style=""
     id="path4289" /><path
     d="m 371.58371,117.75781 h 7.53125 l -6.03125,30.65625 h -7.65625 z m 2.28125,-11.78125 h 7.25 l -1.21875,7.03125 h -7.25 z"
     style=""
     id="path4291" /><path
     d="m 389.36496,105.66406 h 7 l -3.03125,15.4375 q 2.59375,-3.9375 6.8125,-3.875 4.84375,0.0625 7.40625,6.25 0.59375,2.4375 0.59375,4.96875 v 0.6875 q 0,4.90625 -2,10.0625 -2.09375,5.40625 -5.84375,8.25 -2.59375,1.375 -5.09375,1.375 -1.3125,0 -2.59375,-0.375 -2.875,-1 -3.875,-4.09375 l -0.5625,4.03125 h -7.09375 z m 8.34375,17.4375 q -5.3125,0.5 -6.875,9.5625 -1.90625,10.8125 2.9375,10.53125 4.78125,-0.0625 6.875,-11.28125 1,-7.9375 -2.9375,-8.8125 z"
     style=""
     id="path4293" /><path
     d="m 415.42746,117.41406 h 7.1875 l -0.59375,4.34375 q 2.3125,-3.5 4.59375,-4.3125 1.03125,-0.28125 1.9375,-0.28125 0.75,0 1.9375,0.25 l -1.875,8.09375 q -2.53125,-0.875 -4.40625,0.53125 -2.375,1.375 -4.125,6.78125 l -2.84375,15.53125 h -7.25 z"
     style=""
     id="path4295" /><path
     d="m 447.17746,117.00781 q 5.1875,0 7.40625,2.53125 2.375,2.25 2.5625,7.125 0.0312,0.65625 0.0312,1.28125 -0.0625,3.71875 -0.84375,7.0625 h -16.28125 q -1.1875,5.75 1.3125,7.625 1.65625,1.0625 3.5625,-0.125 2.125,-1.625 2.90625,-4.8125 h 7.96875 q -1.40625,5.75 -6.03125,9.03125 -3,1.78125 -6.34375,1.78125 -2.8125,0 -5.90625,-1.25 -5.21875,-3.1875 -5.21875,-10.28125 0,-0.625 0.0312,-1.28125 0.96875,-9.53125 4.9375,-14.28125 3.46875,-4.15625 9.90625,-4.40625 z m -6.0625,12.09375 h 8.875 q 0.4375,-4.1875 -0.5625,-5.78125 -2.53125,-2.78125 -6.15625,0.375 -1.78125,2.0625 -2.15625,5.40625 z"
     style=""
     id="path4297" /></g>
<polyline
   transform="translate(-20.457014,192.43432)"
   style="fill:#ffffff;stroke:#000000;stroke-width:0.7087;stroke-linecap:round;stroke-linejoin:round"
   points="  97.468,200.223 97.468,325.701 494.181,325.701 494.181,200.223 97.468,200.223 "
   id="polyline6-4" /><polyline
   transform="translate(-20.457014,359.32958)"
   style="fill:#ffffff;stroke:#000000;stroke-width:0.7087;stroke-linecap:round;stroke-linejoin:round"
   points="  97.468,200.223 97.468,325.701 494.181,325.701 494.181,200.223 97.468,200.223 "
   id="polyline6-7" /><g
   id="g4036"
   transform="translate(-751.71368,-390.64705)"><g
     id="g4071"><rect
       style="stroke:#000000;stroke-width:0.27664074"
       x="967.94958"
       y="955.05194"
       width="118.25811"
       height="115.76834"
       id="rect4019" /><path
       style="fill:#ffc800;stroke-width:0.27664074"
       inkscape:connector-curvature="0"
       d="m 1045.2637,1061.8302 c -13.6353,2.8707 -24.1562,7.1456 -36.9296,-0.8296 -12.11461,-7.5645 -7.9216,-24.3676 -4.1493,-35.685 l 3.4613,-8.4376 c 10.2272,-6.1367 18.5443,-6.2243 30.2906,-6.2243 l -5.1212,17.9813 c -2.5061,10.0234 -2.1291,14.938 9.1286,14.938 l 10.7884,-2.4898 z"
       id="path4021" /><polygon
       style="fill:#ffc800"
       points="361.748,194.178 385.597,114.682 277.602,140.18 258.735,194.178 191.863,194.178 160.68,282.674 415.944,282.674 444.757,194.178 "
       id="polygon4023"
       transform="matrix(0.27664074,0,0,0.27664074,945.64928,929.68999)" /></g></g><g
   aria-label="site.com"
   style="font-style:normal;font-variant:normal;font-weight:normal;font-stretch:normal;font-size:74.66666412px;line-height:1.25;font-family:'Caracteres L4';-inkscape-font-specification:'Caracteres L4';letter-spacing:0px;word-spacing:0px;fill:#000000;fill-opacity:1;stroke:none"
   id="text4079"
   transform="translate(-25.635037,-19.960937)"><path
     d="m 185.60937,321.40219 h 7.98438 q -0.76563,3.09896 0.91146,4.77604 1.96875,1.45834 5.17708,0.51042 3.20833,-0.94792 2.95313,-4.19271 0.0365,-2.11458 -2.98959,-3.79167 -3.90104,-1.71354 -7.18229,-4.52083 -3.39062,-2.73437 -2.44271,-8.64062 0.69271,-3.71875 3.86459,-6.30729 2.33333,-1.96875 5.86979,-2.40625 1.71354,-0.10938 3.0625,-0.10938 2.26041,0 3.42708,0.32813 2.95313,0.61979 4.84896,2.66145 2.07812,2.40625 2.07812,6.38021 0,0.83854 -0.10937,1.78646 h -8.45833 q 1.02083,-3.57292 -1.0573,-4.8125 -3.79166,-1.02083 -5.35937,1.13021 -2.15104,3.09896 0.69271,4.92187 8.42187,4.30209 9.91666,6.41667 1.82292,2.15104 1.78646,5.6875 -0.14583,2.84375 -1.09375,4.95833 -1.34896,2.44271 -3.57291,4.44792 -2.77084,2.1875 -5.65105,2.625 -1.49479,0.18229 -2.84375,0.18229 -2.4427,0 -4.6302,-0.36458 -2.88021,-0.94792 -5.14063,-3.42709 -2.00521,-2.07812 -2.11458,-6.23437 z"
     id="path4120"
     inkscape:connector-curvature="0" /><path
     d="m 222.32291,297.23032 h 8.78646 l -7.03646,35.76562 h -8.93229 z m 2.66146,-13.74479 h 8.45834 l -1.42188,8.20312 h -8.45833 z"
     id="path4122"
     inkscape:connector-curvature="0" /><path
     d="m 241.68229,290.52198 8.89583,-3.24479 -1.53125,9.58854 h 6.34375 l -1.42187,6.45313 h -6.23438 l -3.3177,18.66666 q -0.6198,3.79167 1.09375,3.79167 2.73437,0.25521 5.0677,-1.09375 -0.14583,2.26042 -0.32812,3.9375 -0.18229,1.67708 -0.47396,3.24479 -2.26042,1.45834 -5.90625,1.45834 -7.72917,-0.4375 -8.16667,-7.07292 0.0365,-3.57292 0.51042,-6.27083 l 2.91667,-16.73438 h -5.17709 l 1.34896,-6.38021 h 5.21354 z"
     id="path4124"
     inkscape:connector-curvature="0" /><path
     d="m 274.93229,296.35532 q 6.05208,0 8.64063,2.95312 2.77083,2.625 2.98958,8.3125 0.0365,0.76563 0.0365,1.49479 -0.0729,4.33855 -0.98438,8.23959 h -18.99479 q -1.38542,6.70833 1.53125,8.89583 1.93229,1.23958 4.15625,-0.14583 2.47917,-1.89584 3.39063,-5.61459 h 9.29687 q -1.64062,6.70834 -7.03646,10.53646 -3.5,2.07813 -7.40104,2.07813 -3.28125,0 -6.89062,-1.45834 -6.08855,-3.71875 -6.08855,-11.99479 0,-0.72917 0.0365,-1.49479 1.13021,-11.11979 5.76042,-16.66146 4.04687,-4.84896 11.55729,-5.14062 z m -7.07292,14.10937 h 10.35417 q 0.51042,-4.88541 -0.65625,-6.74479 -2.95312,-3.24479 -7.18229,0.4375 -2.07813,2.40625 -2.51563,6.30729 z"
     id="path4126"
     inkscape:connector-curvature="0" /><path
     d="m 298.11979,332.99594 h -8.89584 l 1.89584,-8.67708 h 8.89583 z"
     id="path4128"
     inkscape:connector-curvature="0" /><path
     d="m 319.44791,296.82928 q 5.6875,0.21875 8.56771,3.17187 3.97396,3.60938 3.97396,9.84375 0,0.83854 -0.0729,1.75 h -8.23958 q 0.65625,-8.75 -3.75521,-8.13021 -5.97917,-0.40104 -8.16667,10.9375 -1.53125,13.125 3.82813,12.50521 4.66666,-0.21875 6.45312,-5.83333 h 8.53125 q -2.44271,8.20312 -10.90104,11.8125 -2.80729,0.47395 -4.92187,0.47395 -2.47917,0 -3.9375,-0.65625 -7.6198,-2.29687 -8.02084,-13.59895 0.32813,-10.9375 5.65104,-16.69792 5.03125,-5.17708 11.01042,-5.57812 z"
     id="path4130"
     inkscape:connector-curvature="0" /><path
     d="m 362.61458,303.17303 q 1.34896,3.09895 1.34896,7.4375 0,2.0052 -0.29167,4.26562 -1.20313,8.34896 -5.17708,12.83333 -4.48438,5.10417 -9.95313,5.65104 -1.13021,0.0729 -1.85937,0.0729 -0.98438,0 -2.07813,-0.10937 -4.52083,-0.32813 -8.05729,-5.61459 -1.93229,-3.20833 -1.93229,-8.45833 0,-1.53125 0.18229,-3.24479 0.875,-9.47917 6.45312,-14.98438 3.82813,-3.68229 7.32813,-4.08333 1.53125,-0.25521 2.98958,-0.25521 h 0.32813 q 7.07291,0 10.71875,6.48959 z m -15.13021,23.95312 q 2.91667,0.10937 4.8125,-2.69792 1.78646,-2.80729 2.91667,-8.09375 1.16666,-6.01562 -0.1823,-10.24479 -1.16666,-3.39062 -3.71875,-2.95312 -3.17187,-0.4375 -5.61458,3.71875 -1.82292,3.46354 -2.51562,7.875 -0.6198,5.28645 -0.0729,8.09375 0.94792,4.99479 4.375,4.30208 z"
     id="path4132"
     inkscape:connector-curvature="0" /><path
     d="m 372.38541,296.82928 h 8.38541 l -0.69271,6.08854 q 3.97396,-5.43229 7.98438,-6.23438 1.02083,-0.10937 1.89583,-0.10937 2.55209,0 3.79167,0.875 3.35417,2.15104 3.5,7.10937 6.05208,-7.40104 9.55208,-7.58333 1.02084,-0.29167 1.89584,-0.29167 2.55208,0 3.90104,0.875 2.51562,1.67709 3.3177,4.375 0.54688,2.11459 0.54688,4.63021 0,1.85938 -0.32813,3.9375 l -4.22916,22.49479 h -8.96875 l 4.19271,-22.09375 q 0.69271,-3.71875 -0.58334,-5.79687 -2.98958,-1.82292 -6.48958,0.94791 -2.36979,2.26042 -3.71875,7.98438 l -3.17187,18.88541 h -8.96875 l 4.1927,-22.09374 q 0.69271,-3.71875 -0.875,-5.50521 -2.69791,-2.11459 -5.79687,0.65625 -2.36979,2.26041 -3.71875,7.98437 l -3.5,18.95833 h -8.45833 l 5.83333,-31.71874 z"
     id="path4134"
     inkscape:connector-curvature="0" /></g><g
   style="fill:none"
   id="g4118"
   transform="matrix(0.50596819,0,0,0.50596819,159.92612,420.4443)"><g
     id="g4095"
     clip-path="url(#clip0_5954_3589)"><path
       id="path4081"
       d="m 109.879,63.621 c 1.171,-1.172 1.171,-3.071 0,-4.243 L 57.621,7.12131 c -1.171,-1.1716 -3.071,-1.1716 -4.242,0 L 1.12134,59.378 c -1.1715017,1.172 -1.1716017,3.071 0,4.243 L 53.379,115.879 c 1.171,1.171 3.071,1.171 4.242,0 z"
       inkscape:connector-curvature="0"
       style="clip-rule:evenodd;fill:#279af2;fill-rule:evenodd" /><path
       id="path4083"
       d="m 78.092,107 -21.167,21.504 c -0.783,0.796 -2.067,0.796 -2.85,0 L 32.908,107 H 24 l 30.075,30.552 c 0.783,0.796 2.067,0.796 2.85,0 L 87,107 Z"
       inkscape:connector-curvature="0"
       style="clip-rule:evenodd;fill:#279af2;fill-rule:evenodd" /><path
       id="path4085"
       d="m 140,28.64 h 24.129 v 8.316 h 0.528 c 4.614,-6.995 11.207,-10.163 21.36,-10.163 17.8,0 28.084,11.614 28.084,29.43 v 45.93 H 189.577 V 65.727 c 0,-9.371 -3.296,-16.894 -12.396,-16.894 -8.436,0 -12.655,6.599 -12.655,18.347 v 34.973 H 140 Z"
       inkscape:connector-curvature="0"
       style="clip-rule:evenodd;fill:#23257d;fill-rule:evenodd" /><path
       id="path4087"
       d="m 231.247,102.153 h 24.525 V 46.64 c 0,-9.942 -8.059,-18 -18,-18 h -6.525 z M 230.853,12.6706 C 230.853,5.8086 236.522,0 243.51,0 c 6.988,0 12.659,5.8086 12.659,12.6706 0,6.9947 -5.671,12.6694 -12.659,12.6694 -6.988,0 -12.657,-5.6747 -12.657,-12.6694 z"
       inkscape:connector-curvature="0"
       style="clip-rule:evenodd;fill:#23257d;fill-rule:evenodd" /><path
       id="path4089"
       d="m 266.983,28.64 h 35.335 v 11.219 h 0.528 c 4.351,-9.239 13.318,-13.066 23.998,-13.066 v 23.493 c -15.295,0 -24.13,4.487 -24.13,22.434 v 29.433 H 278.189 V 47.908 h -11.206 z"
       inkscape:connector-curvature="0"
       style="clip-rule:evenodd;fill:#23257d;fill-rule:evenodd" /><path
       id="path4091"
       d="m 338.715,102.153 h 24.524 V 28.64 h -6.524 c -9.942,0 -18,8.058 -18,18 z M 338.32,12.6706 C 338.32,5.8086 343.989,0 350.977,0 c 6.989,0 12.658,5.8086 12.658,12.6706 0,6.9947 -5.669,12.6694 -12.658,12.6694 -6.988,0 -12.657,-5.6747 -12.657,-12.6694 z"
       inkscape:connector-curvature="0"
       style="clip-rule:evenodd;fill:#23257d;fill-rule:evenodd" /><path
       id="path4093"
       d="m 431.54,65.33 c 0,-10.029 -6.46,-16.497 -15.164,-16.497 -8.834,0 -15.293,6.468 -15.293,16.497 0,9.768 6.459,16.63 15.293,16.63 8.704,0 15.164,-6.862 15.164,-16.63 z m -54.983,0.134 c 0,-22.306 16.087,-38.671 39.819,-38.671 23.733,0 39.69,16.365 39.69,38.671 0,22.303 -15.957,38.536 -39.69,38.536 -23.732,0 -39.819,-16.233 -39.819,-38.536 z"
       inkscape:connector-curvature="0"
       style="clip-rule:evenodd;fill:#23257d;fill-rule:evenodd" /></g></g></svg>