<?xml version="1.0" encoding="UTF-8" standalone="no"?>
<!-- Generator: Adobe Illustrator 16.0.2, SVG Export Plug-In . SVG Version: 6.00 Build 0)  -->

<svg
   xmlns:dc="http://purl.org/dc/elements/1.1/"
   xmlns:cc="http://creativecommons.org/ns#"
   xmlns:rdf="http://www.w3.org/1999/02/22-rdf-syntax-ns#"
   xmlns:svg="http://www.w3.org/2000/svg"
   xmlns="http://www.w3.org/2000/svg"
   xmlns:sodipodi="http://sodipodi.sourceforge.net/DTD/sodipodi-0.dtd"
   xmlns:inkscape="http://www.inkscape.org/namespaces/inkscape"
   version="1.1"
   id="Ebene_1"
   x="0px"
   y="0px"
   width="546.16833"
   height="182.92441"
   viewBox="0 0 546.16833 182.92441"
   xml:space="preserve"
   sodipodi:docname="France_road_sign_C65c.svg"
   inkscape:version="0.92.4 (5da689c313, 2019-01-14)"><metadata
   id="metadata227"><rdf:RDF><cc:Work
       rdf:about=""><dc:format>image/svg+xml</dc:format><dc:type
         rdf:resource="http://purl.org/dc/dcmitype/StillImage" /><dc:title /></cc:Work></rdf:RDF></metadata><defs
   id="defs225" /><sodipodi:namedview
   pagecolor="#ffffff"
   bordercolor="#666666"
   borderopacity="1"
   objecttolerance="10"
   gridtolerance="10"
   guidetolerance="10"
   inkscape:pageopacity="0"
   inkscape:pageshadow="2"
   inkscape:window-width="640"
   inkscape:window-height="480"
   id="namedview223"
   showgrid="false"
   fit-margin-top="0"
   fit-margin-left="0"
   fit-margin-right="0"
   fit-margin-bottom="0"
   inkscape:zoom="3.2324881"
   inkscape:cx="258.67029"
   inkscape:cy="54.430642"
   inkscape:current-layer="text231" />

<polyline
   style="fill:#0000ff;stroke:#0000ff;stroke-width:0.7087;stroke-linecap:round;stroke-linejoin:round"
   points="  26.007,20.309 26.007,804.698 571.092,804.698 571.092,20.309 26.007,20.309 "
   id="polyline4"
   transform="matrix(1.0006772,0,0,0.23299423,-25.664972,-4.6481424)" />






































































<g
   aria-label="Pensez à payer votre péage"
   style="font-style:normal;font-variant:normal;font-weight:normal;font-stretch:normal;font-size:64px;line-height:1.25;font-family:'Caracteres L4';-inkscape-font-specification:'Caracteres L4';text-align:center;letter-spacing:0px;word-spacing:0px;text-anchor:middle;fill:#ffffff;fill-opacity:1;stroke:none"
   id="text231"><path
     d="m 140.9592,35.259079 q 5.1875,0 7.40625,2.53125 2.375,2.25 2.5625,7.125 0.0312,0.65625 0.0312,1.28125 -0.0625,3.71875 -0.84375,7.0625 H 133.8342 q -1.1875,5.75 1.3125,7.625 1.65625,1.0625 3.5625,-0.125 2.125,-1.625 2.90625,-4.8125 h 7.96875 q -1.40625,5.75 -6.03125,9.03125 -3,1.78125 -6.34375,1.78125 -2.8125,0 -5.90625,-1.25 -5.21875,-3.1875 -5.21875,-10.28125 0,-0.625 0.0312,-1.28125 0.96875,-9.53125 4.9375,-14.28125 3.46875,-4.15625 9.90625,-4.40625 z m -6.0625,12.09375 h 8.875 q 0.4375,-4.1875 -0.5625,-5.78125 -2.53125,-2.78125 -6.15625,0.375 -1.78125,2.0625 -2.15625,5.40625 z"
     style=""
     id="path3940" /><path
     d="m 158.8342,35.665329 h 7.1875 l -0.59375,5.21875 q 3.40625,-4.65625 6.84375,-5.34375 0.875,-0.09375 1.625,-0.09375 2.1875,0 3.25,0.75 2.15625,1.28125 2.75,3.78125 0.46875,1.8125 0.46875,3.96875 0,1.59375 -0.28125,3.375 l -3.4375,19.28125 h -7.6875 l 3.59375,-18.9375 q 0.59375,-3.1875 -0.75,-4.71875 -2.3125,-1.8125 -4.96875,0.5625 -2.03125,1.9375 -3.1875,6.84375 l -3,16.25 h -7.25 l 5,-27.1875 z"
     style=""
     id="path3942" /><path
     d="m 182.30295,56.727829 h 6.84375 q -0.65625,2.65625 0.78125,4.09375 1.6875,1.25 4.4375,0.4375 2.75,-0.8125 2.53125,-3.59375 0.0312,-1.8125 -2.5625,-3.25 -3.34375,-1.46875 -6.15625,-3.875 -2.90625,-2.34375 -2.09375,-7.40625 0.59375,-3.1875 3.3125,-5.40625 2,-1.6875 5.03125,-2.0625 1.46875,-0.09375 2.625,-0.09375 1.9375,0 2.9375,0.28125 2.53125,0.53125 4.15625,2.28125 1.78125,2.0625 1.78125,5.46875 0,0.71875 -0.0937,1.53125 h -7.25 q 0.875,-3.0625 -0.90625,-4.125 -3.25,-0.875 -4.59375,0.96875 -1.84375,2.65625 0.59375,4.21875 7.21875,3.6875 8.5,5.5 1.5625,1.84375 1.53125,4.875 -0.125,2.4375 -0.9375,4.25 -1.15625,2.09375 -3.0625,3.8125 -2.375,1.875 -4.84375,2.25 -1.28125,0.15625 -2.4375,0.15625 -2.09375,0 -3.96875,-0.3125 -2.46875,-0.8125 -4.40625,-2.9375 -1.71875,-1.78125 -1.8125,-5.34375 z"
     style=""
     id="path3944" /><path
     d="m 222.86545,35.259079 q 5.1875,0 7.40625,2.53125 2.375,2.25 2.5625,7.125 0.0312,0.65625 0.0312,1.28125 -0.0625,3.71875 -0.84375,7.0625 h -16.28125 q -1.1875,5.75 1.3125,7.625 1.65625,1.0625 3.5625,-0.125 2.125,-1.625 2.90625,-4.8125 h 7.96875 q -1.40625,5.75 -6.03125,9.03125 -3,1.78125 -6.34375,1.78125 -2.8125,0 -5.90625,-1.25 -5.21875,-3.1875 -5.21875,-10.28125 0,-0.625 0.0312,-1.28125 0.96875,-9.53125 4.9375,-14.28125 3.46875,-4.15625 9.90625,-4.40625 z m -6.0625,12.09375 h 8.875 q 0.4375,-4.1875 -0.5625,-5.78125 -2.53125,-2.78125 -6.15625,0.375 -1.78125,2.0625 -2.15625,5.40625 z"
     style=""
     id="path3946" /><path
     d="m 261.2717,35.821579 -0.5625,5.75 -16.78125,19.4375 13.75,0.03125 -1.15625,5.65625 h -21.53125 l 0.8125,-6.46875 15.875,-18.75 h -12.125 l 1,-5.65625 z"
     style=""
     id="path3948" /><path
     d="m 291.30295,45.571579 -6.90625,-0.1875 q 0.1875,-4.4375 4.71875,-7.5 4.0625,-2.28125 8.1875,-2.28125 h 0.34375 q 5.28125,0.40625 7.625,3.78125 0.96875,1.6875 0.96875,4 0,0.3125 -0.0312,0.65625 0,2.03125 -0.53125,4.4375 l -3.21875,18.15625 h -7.4375 l 0.78125,-3.65625 q -2.5625,4.03125 -7.125,4.0625 -7.25,-0.09375 -7.6875,-7.9375 0.28125,-7.1875 6.5,-9.9375 4.09375,-1.65625 11,-1.6875 l 0.375,-2.59375 q 0.34375,-3.53125 -2.96875,-3.75 -3.25,0.03125 -4.59375,4.4375 z m 6.25,7.09375 -2.4375,-0.03125 q -7.5,1.09375 -7.4375,6.46875 0.5625,2.96875 3.125,2.90625 4.9375,-0.8125 6.75,-9.34375 z m 4.625,-19.125 -4.53125,-0.0625 -4.46875,-10.09375 6.9375,-0.03125 z"
     style=""
     id="path3950" /><path
     d="m 331.5842,35.852829 h 7.09375 l -0.65625,4.03125 q 1.71875,-3.375 4.375,-4.21875 1.375,-0.375 3.375,-0.5 3,0.40625 4.03125,2 2.84375,2.84375 3.3125,8.25 0.0937,1.25 0.0937,2.46875 0,3.875 -1.3125,8 -1.5625,4.5 -3.96875,7 -3.53125,4.0625 -6.625,4.125 -5.65625,0.53125 -7.34375,-4.6875 l -2.9375,16.25 h -7.40625 z m 7.21875,25.625 q 3.78125,-0.21875 7.1875,-11.1875 0.1875,-8.84375 -3.28125,-9.25 -5.90625,0.9375 -6.84375,10.71875 -1.53125,9.34375 2.9375,9.71875 z"
     style=""
     id="path3952" /><path
     d="m 365.17795,45.571579 -6.90625,-0.1875 q 0.1875,-4.4375 4.71875,-7.5 4.0625,-2.28125 8.1875,-2.28125 h 0.34375 q 5.28125,0.40625 7.625,3.78125 0.96875,1.6875 0.96875,4 0,0.3125 -0.0312,0.65625 0,2.03125 -0.53125,4.4375 l -3.21875,18.15625 h -7.4375 l 0.78125,-3.65625 q -2.5625,4.03125 -7.125,4.0625 -7.25,-0.09375 -7.6875,-7.9375 0.28125,-7.1875 6.5,-9.9375 4.09375,-1.65625 11,-1.6875 l 0.375,-2.59375 q 0.34375,-3.53125 -2.96875,-3.75 -3.25,0.03125 -4.59375,4.4375 z m 6.25,7.09375 -2.4375,-0.03125 q -7.5,1.09375 -7.4375,6.46875 0.5625,2.96875 3.125,2.90625 4.9375,-0.8125 6.75,-9.34375 z"
     style=""
     id="path3954" /><path
     d="m 381.8342,35.852829 7.4375,-0.03125 2,22.3125 8.875,-22.28125 h 7.5 l -18.53125,41.34375 h -7.09375 l 5.125,-10.96875 z"
     style=""
     id="path3956" /><path
     d="m 423.2092,35.259079 q 5.1875,0 7.40625,2.53125 2.375,2.25 2.5625,7.125 0.0312,0.65625 0.0312,1.28125 -0.0625,3.71875 -0.84375,7.0625 H 416.0842 q -1.1875,5.75 1.3125,7.625 1.65625,1.0625 3.5625,-0.125 2.125,-1.625 2.90625,-4.8125 h 7.96875 q -1.40625,5.75 -6.03125,9.03125 -3,1.78125 -6.34375,1.78125 -2.8125,0 -5.90625,-1.25 -5.21875,-3.1875 -5.21875,-10.28125 0,-0.625 0.0312,-1.28125 0.96875,-9.53125 4.9375,-14.28125 3.46875,-4.15625 9.90625,-4.40625 z m -6.0625,12.09375 h 8.875 q 0.4375,-4.1875 -0.5625,-5.78125 -2.53125,-2.78125 -6.15625,0.375 -1.78125,2.0625 -2.15625,5.40625 z"
     style=""
     id="path3958" /><path
     d="m 440.74045,35.665329 h 7.1875 l -0.59375,4.34375 q 2.3125,-3.5 4.59375,-4.3125 1.03125,-0.28125 1.9375,-0.28125 0.75,0 1.9375,0.25 l -1.875,8.09375 q -2.53125,-0.875 -4.40625,0.53125 -2.375,1.375 -4.125,6.78125 l -2.84375,15.53125 h -7.25 z"
     style=""
     id="path3960" /><path
     d="m 139.8967,115.79033 1.0625,24.0625 10.1875,-24.0625 h 7.59375 l -15.28125,30.84375 h -7.65625 l -2.9375,-30.84375 z"
     style=""
     id="path3962" /><path
     d="m 183.3967,121.10283 q 1.15625,2.65625 1.15625,6.375 0,1.71875 -0.25,3.65625 -1.03125,7.15625 -4.4375,11 -3.84375,4.375 -8.53125,4.84375 -0.96875,0.0625 -1.59375,0.0625 -0.84375,0 -1.78125,-0.0937 -3.875,-0.28125 -6.90625,-4.8125 -1.65625,-2.75 -1.65625,-7.25 0,-1.3125 0.15625,-2.78125 0.75,-8.125 5.53125,-12.84375 3.28125,-3.15625 6.28125,-3.5 1.3125,-0.21875 2.5625,-0.21875 h 0.28125 q 6.0625,0 9.1875,5.5625 z m -12.96875,20.53125 q 2.5,0.0937 4.125,-2.3125 1.53125,-2.40625 2.5,-6.9375 1,-5.15625 -0.15625,-8.78125 -1,-2.90625 -3.1875,-2.53125 -2.71875,-0.375 -4.8125,3.1875 -1.5625,2.96875 -2.15625,6.75 -0.53125,4.53125 -0.0625,6.9375 0.8125,4.28125 3.75,3.6875 z"
     style=""
     id="path3964" /><path
     d="m 193.61545,110.25908 7.625,-2.78125 -1.3125,8.21875 h 5.4375 l -1.21875,5.53125 h -5.34375 l -2.84375,16 q -0.53125,3.25 0.9375,3.25 2.34375,0.21875 4.34375,-0.9375 -0.125,1.9375 -0.28125,3.375 -0.15625,1.4375 -0.40625,2.78125 -1.9375,1.25 -5.0625,1.25 -6.625,-0.375 -7,-6.0625 0.0312,-3.0625 0.4375,-5.375 l 2.5,-14.34375 h -4.4375 l 1.15625,-5.46875 h 4.46875 z"
     style=""
     id="path3966" /><path
     d="m 212.11545,115.66533 h 7.1875 l -0.59375,4.34375 q 2.3125,-3.5 4.59375,-4.3125 1.03125,-0.28125 1.9375,-0.28125 0.75,0 1.9375,0.25 l -1.875,8.09375 q -2.53125,-0.875 -4.40625,0.53125 -2.375,1.375 -4.125,6.78125 l -2.84375,15.53125 h -7.25 z"
     style=""
     id="path3968" /><path
     d="m 243.86545,115.25908 q 5.1875,0 7.40625,2.53125 2.375,2.25 2.5625,7.125 0.0312,0.65625 0.0312,1.28125 -0.0625,3.71875 -0.84375,7.0625 h -16.28125 q -1.1875,5.75 1.3125,7.625 1.65625,1.0625 3.5625,-0.125 2.125,-1.625 2.90625,-4.8125 h 7.96875 q -1.40625,5.75 -6.03125,9.03125 -3,1.78125 -6.34375,1.78125 -2.8125,0 -5.90625,-1.25 -5.21875,-3.1875 -5.21875,-10.28125 0,-0.625 0.0312,-1.28125 0.96875,-9.53125 4.9375,-14.28125 3.46875,-4.15625 9.90625,-4.40625 z m -6.0625,12.09375 h 8.875 q 0.4375,-4.1875 -0.5625,-5.78125 -2.53125,-2.78125 -6.15625,0.375 -1.78125,2.0625 -2.15625,5.40625 z"
     style=""
     id="path3970" /><path
     d="m 279.4592,115.85283 h 7.09375 l -0.65625,4.03125 q 1.71875,-3.375 4.375,-4.21875 1.375,-0.375 3.375,-0.5 3,0.40625 4.03125,2 2.84375,2.84375 3.3125,8.25 0.0937,1.25 0.0937,2.46875 0,3.875 -1.3125,8 -1.5625,4.5 -3.96875,7 -3.53125,4.0625 -6.625,4.125 -5.65625,0.53125 -7.34375,-4.6875 l -2.9375,16.25 h -7.40625 z m 7.21875,25.625 q 3.78125,-0.21875 7.1875,-11.1875 0.1875,-8.84375 -3.28125,-9.25 -5.90625,0.9375 -6.84375,10.71875 -1.53125,9.34375 2.9375,9.71875 z"
     style=""
     id="path3972" /><path
     d="m 319.6467,103.63408 7.625,-0.0312 -8.53125,9.9375 h -4.71875 z m -1.53125,11.625 q 5.1875,0 7.40625,2.53125 2.375,2.25 2.5625,7.125 0.0312,0.65625 0.0312,1.28125 -0.0625,3.71875 -0.84375,7.0625 h -16.28125 q -1.1875,5.75 1.3125,7.625 1.65625,1.0625 3.5625,-0.125 2.125,-1.625 2.90625,-4.8125 h 7.96875 q -1.40625,5.75 -6.03125,9.03125 -3,1.78125 -6.34375,1.78125 -2.8125,0 -5.90625,-1.25 -5.21875,-3.1875 -5.21875,-10.28125 0,-0.625 0.0312,-1.28125 0.96875,-9.53125 4.9375,-14.28125 3.46875,-4.15625 9.90625,-4.40625 z m -6.0625,12.09375 h 8.875 q 0.4375,-4.1875 -0.5625,-5.78125 -2.53125,-2.78125 -6.15625,0.375 -1.78125,2.0625 -2.15625,5.40625 z"
     style=""
     id="path3974" /><path
     d="m 340.80295,125.57158 -6.90625,-0.1875 q 0.1875,-4.4375 4.71875,-7.5 4.0625,-2.28125 8.1875,-2.28125 h 0.34375 q 5.28125,0.40625 7.625,3.78125 0.96875,1.6875 0.96875,4 0,0.3125 -0.0312,0.65625 0,2.03125 -0.53125,4.4375 l -3.21875,18.15625 h -7.4375 l 0.78125,-3.65625 q -2.5625,4.03125 -7.125,4.0625 -7.25,-0.0937 -7.6875,-7.9375 0.28125,-7.1875 6.5,-9.9375 4.09375,-1.65625 11,-1.6875 l 0.375,-2.59375 q 0.34375,-3.53125 -2.96875,-3.75 -3.25,0.0312 -4.59375,4.4375 z m 6.25,7.09375 -2.4375,-0.0312 q -7.5,1.09375 -7.4375,6.46875 0.5625,2.96875 3.125,2.90625 4.9375,-0.8125 6.75,-9.34375 z"
     style=""
     id="path3976" /><path
     d="m 377.5842,119.85283 0.6875,-3.8125 h 7.34375 l -5.5625,30.40625 q -1.6875,8.125 -5.25,11.15625 -3.03125,2.875 -7.96875,3.125 -1.0625,0.0312 -1.53125,0.0312 h -0.34375 q -4.0625,0 -6.53125,-2.53125 -2.03125,-2.53125 -2.34375,-7.625 l 0.15625,-1.53125 7.1875,0.0312 q -0.125,3.75 1.40625,5.09375 2.46875,1.28125 5.15625,-0.65625 2.40625,-2.28125 2.96875,-10.4375 -1.75,3.21875 -6.40625,3.65625 -5.28125,-0.4375 -7.5,-6.34375 -1.40625,-5.375 -0.28125,-11.625 2.0625,-8.90625 7.125,-12.28125 1.84375,-1.34375 4.3125,-1.34375 0.53125,0 1.09375,0.0625 1.15625,0 2.03125,0.375 2.59375,1 4.25,4.25 z m -5.8125,0.90625 q -4.90625,0.65625 -6.15625,12 -0.875,7.84375 3.75,7.71875 5,-0.3125 6.28125,-11.15625 0.65625,-8.0625 -3.875,-8.5625 z"
     style=""
     id="path3978" /><path
     d="m 403.36545,115.25908 q 5.1875,0 7.40625,2.53125 2.375,2.25 2.5625,7.125 0.0312,0.65625 0.0312,1.28125 -0.0625,3.71875 -0.84375,7.0625 h -16.28125 q -1.1875,5.75 1.3125,7.625 1.65625,1.0625 3.5625,-0.125 2.125,-1.625 2.90625,-4.8125 h 7.96875 q -1.40625,5.75 -6.03125,9.03125 -3,1.78125 -6.34375,1.78125 -2.8125,0 -5.90625,-1.25 -5.21875,-3.1875 -5.21875,-10.28125 0,-0.625 0.0312,-1.28125 0.96875,-9.53125 4.9375,-14.28125 3.46875,-4.15625 9.90625,-4.40625 z m -6.0625,12.09375 h 8.875 q 0.4375,-4.1875 -0.5625,-5.78125 -2.53125,-2.78125 -6.15625,0.375 -1.78125,2.0625 -2.15625,5.40625 z"
     style=""
     id="path3980" /><path
     inkscape:connector-curvature="0"
     d="m 102.303,35.852829 h 7.09375 l -0.65625,4.03125 q 1.71875,-3.375 4.375,-4.21875 1.375,-0.375 3.375,-0.5 3,0.40625 4.03125,2 2.84375,2.84375 3.3125,8.25 0.0937,1.25 0.0937,2.46875 0,3.875 -1.3125,8 -1.5625,4.5 -3.96875,7 -3.53125,4.0625 -6.625,4.125 -5.65625,0.53125 -7.34375,-4.6875 l -2.9375,16.25 H 94.3342 Z m 7.21875,25.625 q 3.78125,-0.21875 7.1875,-11.1875 0.1875,-8.84375 -3.28125,-9.25 -5.90625,0.9375 -6.84375,10.71875 -1.53125,9.34375 2.9375,9.71875 z"
     style="font-style:normal;font-variant:normal;font-weight:normal;font-stretch:normal;font-size:64px;line-height:1.25;font-family:'Caracteres L4';-inkscape-font-specification:'Caracteres L4';text-align:center;letter-spacing:0px;word-spacing:0px;text-anchor:middle;fill:#ffffff;fill-opacity:1;stroke:none"
     id="path3972-2" /></g></svg>