<?xml version="1.0" encoding="utf-8"?>
<!-- Generator: Adobe Illustrator 13.0.0, SVG Export Plug-In  -->
<!DOCTYPE svg PUBLIC "-//W3C//DTD SVG 1.1//EN" "http://www.w3.org/Graphics/SVG/1.1/DTD/svg11.dtd" [
	<!ENTITY ns_flows "http://ns.adobe.com/Flows/1.0/">
]>
<svg version="1.1"
	 xmlns="http://www.w3.org/2000/svg" xmlns:xlink="http://www.w3.org/1999/xlink" xmlns:a="http://ns.adobe.com/AdobeSVGViewerExtensions/3.0/"
	 x="0px" y="0px" width="598px" height="600px" viewBox="0 -0.031 598 600" enable-background="new 0 -0.031 598 600"
	 xml:space="preserve">
<defs>
</defs>
<path fill="#FFFFFF" stroke="#000000" stroke-width="2" stroke-linecap="round" stroke-linejoin="round" d="M43.515,598.938h510.183
	c11.275,0,22.089-4.498,30.063-12.508c7.973-8.011,12.452-18.873,12.452-30.201V43.71c0-11.327-4.479-22.191-12.452-30.2
	C575.787,5.5,564.974,1,553.698,1H43.515C32.24,1,21.425,5.5,13.453,13.51C5.479,21.519,1,32.383,1,43.71v512.519
	c0,11.328,4.479,22.19,12.453,30.201C21.425,594.439,32.24,598.938,43.515,598.938z"/>
<polyline fill="#0000FF" stroke="#0000FF" stroke-width="0.7087" stroke-linecap="round" stroke-linejoin="round" points="
	33.256,564.212 563.744,564.212 563.744,33.725 33.256,33.725 33.256,564.212 "/>
<line fill="#0000FF" stroke="#0000FF" stroke-width="0.7087" stroke-linecap="round" stroke-linejoin="round" x1="248.438" y1="204.701" x2="310.166" y2="204.701"/>
<polyline fill="#0000FF" stroke="#0000FF" stroke-width="0.7087" stroke-linecap="round" stroke-linejoin="round" points="
	310.166,294.678 318.942,293.813 327.382,291.253 335.16,287.096 341.978,281.501 347.572,274.684 351.729,266.906 354.289,258.466 
	355.154,249.689 354.289,240.913 351.729,232.473 347.572,224.695 341.978,217.878 335.16,212.283 327.382,208.126 318.942,205.565 
	310.166,204.701 248.438,204.701 248.438,294.678 310.166,294.678 "/>
<polyline fill="#FFFFFF" points="397.731,227.411 397.731,373.05 435.731,373.05 435.731,227.96 "/>
<polyline fill="#FFFFFF" points="340.732,177.413 340.732,78.079 302.732,78.079 302.732,176.079 "/>
<polyline fill="#FFFFFF" points="434.245,227.738 325.77,146.56 303.002,176.984 414.176,260.18 "/>
<polyline fill="#FFFFFF" points="340.732,421.62 340.732,523.954 302.732,523.954 302.732,422.994 "/>
<polyline fill="#FFFFFF" points="433.72,373.689 325.77,454.474 303.002,424.05 419.239,337.064 "/>
<rect x="210.229" y="78.079" fill="#FFFFFF" width="38" height="451.972"/>
<rect x="197.096" y="135.678" fill="#0000FF" stroke="#0000FF" width="61.497" height="46.498"/>
<rect x="198.596" y="408.664" fill="#0000FF" stroke="#0000FF" width="61.497" height="46.497"/>
<rect x="200.096" y="273.671" fill="#0000FF" stroke="#0000FF" width="61.497" height="46.497"/>
</svg>
