<?xml version="1.0" encoding="UTF-8" standalone="no"?>
<svg
   xmlns:dc="http://purl.org/dc/elements/1.1/"
   xmlns:cc="http://creativecommons.org/ns#"
   xmlns:rdf="http://www.w3.org/1999/02/22-rdf-syntax-ns#"
   xmlns:svg="http://www.w3.org/2000/svg"
   xmlns="http://www.w3.org/2000/svg"
   id="svg882"
   xml:space="preserve"
   enable-background="new -0.531 -0.531 576 576"
   viewBox="-0.531 -0.531 576 576"
   height="576px"
   width="576px"
   y="0px"
   x="0px"
   version="1.1"><metadata
   id="metadata886"><rdf:RDF><cc:Work
       rdf:about=""><dc:format>image/svg+xml</dc:format><dc:type
         rdf:resource="http://purl.org/dc/dcmitype/StillImage" /><dc:title></dc:title></cc:Work></rdf:RDF></metadata>
<defs
   id="defs858">
</defs>
<rect
   y="37.333637"
   x="37.333637"
   height="500.27072"
   width="500.27072"
   id="rect2277"
   style="fill:#0000ff;stroke-width:0.179;stroke-linejoin:round;stroke-miterlimit:4;stroke-dasharray:none;paint-order:stroke fill markers;stop-color:#000000" /><path
   style="fill:#ffffff"
   id="path860"
   d="M41.496,574.438h491.947  c10.872,0,21.3-4.318,28.988-12.007c7.688-7.688,12.007-18.115,12.007-28.988V41.496c0-10.873-4.319-21.3-12.007-28.988  C554.742,4.819,544.314,0.5,533.442,0.5H41.496c-10.873,0-21.3,4.319-28.988,12.007C4.819,20.195,0.5,30.623,0.5,41.496v491.947  c0,10.873,4.319,21.3,12.007,28.988C20.195,570.119,30.623,574.438,41.496,574.438z"
   stroke-linejoin="round"
   stroke-linecap="round"
   stroke="#000000"
   fill="#FFFFFF" />










<rect
   ry="11.103615"
   rx="11.103615"
   y="37.333637"
   x="37.333637"
   height="500.27072"
   width="500.18121"
   id="rect2279"
   style="fill:#0000ff;stroke-width:1.067;stroke-linejoin:round;stroke-miterlimit:4;stroke-dasharray:none;paint-order:stroke fill markers;stop-color:#000000" /><g
   transform="matrix(1.0670553,0,0,1.0670553,-18.727358,-14.806741)"
   id="g1684"><line
     fill="none"
     stroke="#0000ff"
     stroke-width="0.1764"
     stroke-linecap="round"
     stroke-linejoin="round"
     x1="94.927002"
     y1="219.959"
     x2="94.882004"
     y2="220.10699"
     id="line880"
     style="fill:#ffffff" /><path
     style="fill:#ffffff;fill-opacity:1;fill-rule:nonzero;stroke:none;stroke-width:1.05117"
     d="m 252.06025,283.25926 v 0.0161 c -3.9663,0.61499 -7.03465,3.60431 -7.86024,7.39217 h -0.0161 l -4.89046,21.51479 h -0.50034 c -3.14746,0 -5.68133,2.53386 -5.68133,5.68132 v 18.07693 c 0,2.95619 2.23695,5.36646 5.11642,5.64905 v 17.91554 c 0,1.8541 1.50305,3.35714 3.35715,3.35714 h 7.23078 c 1.8541,0 3.35714,-1.50304 3.35714,-3.35714 V 341.6219 h 54.31151 v 17.88326 c 0,1.8541 1.50306,3.35714 3.35716,3.35714 h 7.23077 c 1.85409,0 3.35714,-1.50304 3.35714,-3.35714 V 341.6219 c 3.1323,-0.0174 5.64905,-2.54476 5.64905,-5.68133 v -18.07693 c 0,-3.09843 -2.45691,-5.60407 -5.53607,-5.68132 l -4.80981,-21.09509 c -0.68166,-3.9856 -3.84448,-7.17414 -7.95708,-7.81182 v -0.0161 h -55.71571 z m 1.4849,6.64973 h 51.64839 c 1.36278,0.378 2.39235,1.45121 2.72768,2.77611 l 0.0645,0.30665 4.24485,16.05942 c 0.0282,0.15296 0.0483,0.32309 0.0483,0.48421 0,1.42623 -1.15619,2.58243 -2.58241,2.58243 h -60.62231 c -1.42623,0 -2.58242,-1.1562 -2.58242,-2.58243 0,-0.16182 0.02,-0.33063 0.0483,-0.48421 l 4.21257,-16.05942 0.12913,-0.51648 c 0.38514,-1.22965 1.37189,-2.20813 2.66312,-2.56628 z m -8.29603,31.89289 c 2.85247,0 5.16484,2.31238 5.16484,5.16483 0,2.85247 -2.31237,5.16485 -5.16484,5.16485 -2.85247,0 -5.16484,-2.31238 -5.16484,-5.16485 0,-2.85245 2.31237,-5.16483 5.16484,-5.16483 z m 68.07904,0 c 2.85247,0 5.16485,2.31238 5.16485,5.16483 0,2.85247 -2.31238,5.16485 -5.16485,5.16485 -2.85247,0 -5.16484,-2.31238 -5.16484,-5.16485 0,-2.85245 2.31237,-5.16483 5.16484,-5.16483 z"
     id="path3995" /><g
     style="fill:#ffffff"
     transform="matrix(1.0511667,0,0,1.0511667,22.743596,22.575)"
     id="g3582"><circle
       style="opacity:1;fill:#ffffff;fill-opacity:1;fill-rule:nonzero;stroke:none;stroke-width:3;stroke-linecap:butt;stroke-linejoin:miter;stroke-miterlimit:4;stroke-dasharray:none;stroke-dashoffset:0;stroke-opacity:1"
       id="path3568"
       cx="242.81813"
       cy="240.56592"
       r="7.7149267" /><circle
       r="7.7149267"
       cy="224.56592"
       cx="242.81813"
       id="circle3570"
       style="opacity:1;fill:#ffffff;fill-opacity:1;fill-rule:nonzero;stroke:none;stroke-width:3;stroke-linecap:butt;stroke-linejoin:miter;stroke-miterlimit:4;stroke-dasharray:none;stroke-dashoffset:0;stroke-opacity:1" /><circle
       style="opacity:1;fill:#ffffff;fill-opacity:1;fill-rule:nonzero;stroke:none;stroke-width:3;stroke-linecap:butt;stroke-linejoin:miter;stroke-miterlimit:4;stroke-dasharray:none;stroke-dashoffset:0;stroke-opacity:1"
       id="circle3572"
       cx="242.81813"
       cy="208.56592"
       r="7.7149267" /></g><path
     id="rect3578"
     d="m 277.98593,198.03295 c -5.71754,0 -10.32073,5.51338 -10.32073,12.36148 v 9.01293 c 0,6.8481 4.60319,12.36147 10.32073,12.36147 5.71753,0 10.32073,-5.51337 10.32073,-12.36147 v -9.01293 c 0,-6.8481 -4.6032,-12.36148 -10.32073,-12.36148 z m -0.51533,5.79374 h 1.03064 c 1.71203,0 3.08985,2.06778 3.08985,4.63581 v 12.87679 c 0,2.56803 -1.37782,4.63375 -3.08985,4.63375 h -1.03064 c -1.71202,0 -3.08985,-2.06572 -3.08985,-4.63375 V 208.4625 c 0,-2.56803 1.37783,-4.63581 3.08985,-4.63581 z"
     style="fill:#ffffff;fill-opacity:1;fill-rule:nonzero;stroke:none;stroke-width:3.1535;stroke-linecap:butt;stroke-linejoin:miter;stroke-miterlimit:4;stroke-dasharray:none;stroke-dashoffset:0;stroke-opacity:1" /><path
     id="path3589"
     d="m 283.59093,196.52969 c 0.15988,-2.15787 2.39594,-3.40351 3.95375,-5.14834 1.55782,-1.74484 3.05388,-3.26608 3.32458,-3.38056 0.27068,-0.11445 0.98448,-0.72569 1.58621,-1.35829 0.60172,-0.63261 2.28369,-1.94794 3.73772,-2.92298 1.45402,-0.97503 3.71437,-2.63669 5.023,-3.69254 3.01744,-2.43463 7.27652,-5.07443 8.98852,-5.57115 0.72701,-0.21093 1.67874,-0.69014 2.11495,-1.06489 0.43621,-0.37476 1.86379,-0.96358 3.17242,-1.30849 1.30863,-0.34492 2.73621,-0.92323 3.17242,-1.28515 0.43622,-0.36191 2.21736,-0.96423 3.9581,-1.33849 1.74074,-0.37426 3.99757,-1.1267 5.01517,-1.6721 1.0176,-0.5454 2.68646,-0.99528 3.70859,-0.99972 2.24532,-0.009 2.62392,-0.26198 3.94424,-2.6273 0.85528,-1.5322 1.03326,-2.92298 1.05747,-8.26318 0.0289,-6.38402 0.0204,-6.42964 -1.49074,-7.93936 -1.48898,-1.48759 -1.63044,-1.51691 -6.9619,-1.44332 -3.32203,0.0458 -6.43754,0.39973 -7.99741,0.90837 -1.40545,0.45827 -4.22088,1.08421 -6.25652,1.39096 -2.03563,0.30675 -4.41495,0.90292 -5.28737,1.32481 -0.87241,0.42188 -2.95431,1.02814 -4.62644,1.34726 -1.67214,0.3191 -3.04024,0.79805 -3.04024,1.06435 0,0.26628 -0.89224,0.85199 -1.98276,1.30158 -1.09053,0.44959 -2.2207,1.11254 -2.5115,1.47322 -0.29081,0.36068 -1.83736,1.47766 -3.43679,2.48218 -1.59944,1.0045 -3.14599,2.08997 -3.43679,2.41214 -0.29081,0.32217 -1.7137,1.51727 -3.16198,2.65578 -1.44828,1.13851 -4.30346,3.69597 -6.34485,5.68324 -2.04137,1.98727 -3.96652,3.77176 -4.2781,3.96553 -0.31157,0.19377 -1.0979,1.4656 -1.74739,2.82629 -1.09247,2.28872 -1.17854,3.19368 -1.14928,12.0835 0.0173,5.28522 0.16346,9.8228 0.32458,10.0835 -0.0848,7.31837 0.39469,10.94459 -3.80841,16.547 -0.25254,1.34611 -6.80672,4.63828 -8.11302,3.96735 -1.19567,0.99151 -8.22827,-0.0989 -10.68435,-1.18687 -2.91127,-1.28956 -4.98168,-4.53194 -6.80567,-10.65811 -0.34634,-1.16322 -0.93095,-2.47184 -1.29914,-2.90805 -0.92102,-1.09117 -2.86182,-7.94742 -3.51724,-12.42531 -0.86741,-5.92634 -0.13399,-23.21711 1.15609,-27.25543 0.57714,-1.80658 1.04934,-3.67361 1.04934,-4.14894 0,-0.47533 0.44082,-1.69348 0.97962,-2.70699 0.5388,-1.01351 1.27349,-3.0801 1.63266,-4.59242 0.35918,-1.51233 0.98903,-3.02854 1.39969,-3.36936 0.41066,-0.34081 0.74666,-0.82488 0.74666,-1.07571 0,-0.68789 3.22629,-5.8644 4.46492,-7.16387 0.94858,-0.99516 3.01141,-3.49778 3.9472,-4.78874 0.52704,-0.72705 5.7238,-4.91018 6.09999,-4.91018 0.19461,0 1.35888,-1.0112 2.58725,-2.24713 1.22836,-1.23592 3.23768,-2.93428 4.46511,-3.77412 1.22745,-0.83984 2.77989,-2.02949 3.44987,-2.64368 1.75052,-1.60474 4.69161,-4.08009 6.66666,-5.61096 0.93796,-0.72701 2.60937,-2.09511 3.71424,-3.04024 1.10488,-0.94511 2.27745,-1.71839 2.60571,-1.71839 0.32826,0 0.59684,-0.21947 0.59684,-0.48773 0,-0.26825 0.84464,-0.76649 1.87698,-1.1072 1.03234,-0.3407 2.49467,-1.1919 3.24963,-1.89157 0.75496,-0.69968 1.70159,-1.27213 2.10362,-1.27213 1.11122,0 7.01024,-3.16094 10.51881,-5.63641 0.89241,-0.62964 2.65322,-1.422325 3.91292,-1.761526 1.25968,-0.339201 2.60602,-0.932406 2.99184,-1.318226 1.62372,-1.623716 7.87087,-2.044992 21.61067,-1.457306 11.51401,0.492472 13.53609,0.708034 15.68201,1.671807 1.35498,0.608542 3.61532,1.257238 5.023,1.44156 1.40768,0.184311 3.15425,0.623831 3.88126,0.976701 0.727,0.35288 2.5115,0.93214 3.96552,1.28726 1.45403,0.35512 3.00058,0.94811 3.43679,1.31775 1.0026,0.84962 7.07352,3.22967 9.51727,3.73116 1.01781,0.20888 2.39599,0.7254 3.06261,1.14783 1.11453,0.70626 6.9355,2.21887 12.83685,3.3357 1.32917,0.25155 6.92055,0.7255 12.42532,1.05322 5.50474,0.32772 12.03106,0.81761 14.5029,1.08864 2.47184,0.27103 12.7029,0.74564 22.73568,1.05469 22.19748,0.68375 20.29275,-0.19269 20.85099,9.59447 0.20485,3.59161 0.72156,9.02849 1.14825,12.08194 0.42668,3.05346 1.00196,8.88278 1.2784,12.95405 0.27643,4.07127 0.85635,9.18681 1.28871,11.36784 1.15497,5.82633 2.00697,17.4399 1.33852,18.24532 -0.2986,0.35981 -2.49763,0.8247 -4.88675,1.0331 -2.38911,0.20841 -4.76036,0.60185 -5.26946,0.87431 -0.5091,0.27245 -2.8298,0.73414 -5.15711,1.02596 -2.32731,0.29182 -5.32533,0.99946 -6.66224,1.57253 -1.33693,0.57307 -2.85481,1.04194 -3.3731,1.04194 -0.51828,0 -1.50977,0.43243 -2.2033,0.96096 -0.69353,0.52852 -2.09372,1.29071 -3.11154,1.69374 -1.01781,0.40305 -2.08851,1.01416 -2.37931,1.35804 -0.64382,0.7613 -7.81308,3.08754 -12.16095,3.94589 -1.74483,0.34446 -4.12415,0.94297 -5.28737,1.33002 -1.16322,0.38705 -4.07864,0.94873 -6.47871,1.24818 -2.40006,0.29946 -4.89835,0.89173 -5.55173,1.31616 -0.65339,0.42443 -3.32936,1.04034 -5.94661,1.36869 -2.61725,0.32834 -5.94829,0.99458 -7.40232,1.48054 -3.67119,1.22694 -15.72863,1.21037 -19.82763,-0.0272 -4.38876,-1.3251 -18.23002,-2.19268 -24.25322,-1.5202 -2.72402,0.30413 -5.45988,0.88252 -6.07969,1.28532 -0.61981,0.40281 -2.73592,1.034 -4.70247,1.40267 -1.96655,0.36865 -3.69434,0.86253 -3.83956,1.09749 -0.14522,0.23495 -1.51037,0.83736 -3.03368,1.33867 -1.5233,0.5013 -3.33707,1.35226 -4.0306,1.89101 -0.69353,0.53874 -1.45263,0.97954 -1.68687,0.97954 -0.23424,0 -3.38865,1.99105 -7.00978,4.42458 -10.06772,6.76583 -12.28063,7.73636 -17.63977,7.73636 -18.18555,-3.76418 -12.57771,-13.35731 -11.97046,-21.55281 z"
     style="fill:#ffffff;stroke-width:1.05117" /><path
     style="fill:#ffffff;stroke-width:1.05117"
     d="m 218.73324,468.69287 c -1.01783,-0.22994 -4.46783,-0.87535 -7.66669,-1.43425 -3.19885,-0.55891 -6.29196,-1.27892 -6.87357,-1.60002 -0.58162,-0.3211 -2.0092,-0.82125 -3.17243,-1.11144 -2.90604,-0.72498 -8.18233,-2.80378 -9.78163,-3.85386 -0.72701,-0.47735 -1.91666,-1.04438 -2.64368,-1.26007 -0.72701,-0.21568 -1.86837,-0.81884 -2.53633,-1.34034 -0.66797,-0.5215 -1.91711,-1.1025 -2.77587,-1.29111 -0.85876,-0.18862 -1.56138,-0.55066 -1.56138,-0.80453 0,-0.25388 -2.0819,-1.42883 -4.62645,-2.61101 -2.54455,-1.18218 -4.98335,-2.3726 -5.41955,-2.64536 -2.92414,-1.82851 -7.61274,-4.27669 -8.72517,-4.5559 -0.72783,-0.18266 -2.20583,-0.78205 -3.28445,-1.33196 -1.07863,-0.54992 -2.3272,-1.00074 -2.77462,-1.00184 -0.44743,-10e-4 -2.24109,-0.71399 -3.98592,-1.58422 -1.74483,-0.87023 -3.54121,-1.58313 -3.99196,-1.58422 -0.45075,-0.001 -1.10564,-0.28809 -1.45532,-0.63777 -1.37887,-1.37887 -10.02445,-4.10576 -18.08151,-5.70306 -1.30862,-0.25944 -4.77263,-0.48588 -7.6978,-0.50322 -7.03432,-0.0416 -7.24259,-0.20511 -7.16117,-5.61909 0.0347,-2.30673 0.27916,-5.51666 0.54326,-7.13317 0.26411,-1.61651 0.75343,-7.2079 1.08738,-12.42531 0.33395,-5.21742 0.94463,-10.79483 1.35708,-12.39427 0.41245,-1.59942 1.07493,-6.98472 1.47219,-11.96731 0.90302,-11.32605 1.04282,-11.58458 7.33371,-13.56171 4.99253,-1.56908 9.88652,-2.0056 24.97986,-2.22808 13.26911,-0.19561 19.33453,0.36544 22.72118,2.10169 1.43061,0.73344 2.90932,1.33352 3.286,1.33352 0.3767,0 0.93957,0.47586 1.25084,1.05747 0.31127,0.58161 0.87759,1.05748 1.2585,1.05748 0.3809,0 1.10352,0.45412 1.60583,1.00916 0.5023,0.55504 1.66935,1.30802 2.59344,1.67329 0.9241,0.36528 2.03707,0.96051 2.47328,1.32275 0.4362,0.36225 2.17337,1.05728 3.86036,1.5445 1.68699,0.48724 3.68697,1.2074 4.44438,1.60035 0.75742,0.39295 2.93677,0.88148 4.84301,1.08563 1.90624,0.20413 4.18911,0.67334 5.07303,1.04266 2.4481,1.02289 20.41362,2.51585 38.0897,3.16533 13.07217,0.4803 20.27429,1.88114 26.58808,5.17146 3.92459,2.04523 4.86666,3.80201 4.8724,9.08608 0.003,2.68612 -0.32955,5.16211 -0.91094,6.78413 -1.01931,2.84373 -4.2749,6.60056 -6.89326,7.95457 -0.94254,0.4874 -1.71371,1.07982 -1.71371,1.31648 0,0.23666 -0.59483,0.70131 -1.32184,1.03256 -1.78879,0.81503 -1.75533,2.61094 0.0571,3.06583 2.0974,0.52643 11.71349,-0.28042 14.16498,-1.18851 1.19282,-0.44185 3.70359,-1.14867 5.57952,-1.57072 1.87591,-0.42206 3.7981,-1.11792 4.27152,-1.54635 0.47342,-0.42845 1.33066,-0.77899 1.90498,-0.77899 0.57432,0 2.2211,-0.56803 3.65953,-1.26228 1.43842,-0.69425 4.00424,-1.88028 5.70182,-2.63562 1.69757,-0.75532 3.75641,-1.9123 4.57518,-2.57106 0.81877,-0.65874 2.72131,-1.91152 4.22786,-2.78394 1.50654,-0.87241 3.0316,-1.85604 3.38901,-2.18586 0.35741,-0.3298 1.58665,-1.10875 2.73163,-1.73097 1.145,-0.62223 2.91456,-1.66352 3.93239,-2.31398 1.01781,-0.65045 2.66112,-1.656 3.65177,-2.23454 0.99067,-0.57855 2.23981,-1.46829 2.77587,-1.9772 0.53607,-0.5089 1.17786,-0.92529 1.4262,-0.92529 0.24834,0 1.09392,-0.59534 1.87907,-1.32299 0.78514,-0.72765 2.12851,-1.68548 2.98526,-2.12853 0.85674,-0.44303 1.55772,-1.01156 1.55772,-1.26336 0,-0.25182 0.57649,-0.60254 1.28109,-0.77938 0.70461,-0.17684 1.95374,-0.86621 2.77587,-1.53193 0.82213,-0.66572 2.18569,-1.51012 3.03013,-1.87646 0.84446,-0.36633 2.74791,-1.45687 4.2299,-2.42341 1.482,-0.96656 3.40833,-1.92524 4.28075,-2.13043 0.87242,-0.20518 1.97881,-0.72677 2.45865,-1.15908 0.83877,-0.7557 4.85533,-1.59241 13.98328,-2.91294 7.06862,-1.02261 16.61893,0.87755 20.00666,3.98057 1.99341,1.8259 2.01056,1.87592 1.79641,5.2391 -0.24335,3.82168 -1.26648,5.43927 -5.65637,8.94285 -1.34785,1.07571 -2.81455,2.2724 -3.25936,2.65931 -0.78381,0.68178 -2.66868,1.99388 -8.1798,5.69417 -1.45402,0.97627 -3.00058,2.08842 -3.43679,2.47146 -2.35584,2.06869 -4.29692,3.38975 -7.27013,4.94787 -1.81753,0.95248 -3.3046,1.89567 -3.3046,2.09598 0,0.20029 -2.31983,1.98964 -5.15519,3.97634 -2.83535,1.98667 -5.27415,3.78333 -5.41955,3.99256 -0.14541,0.20923 -1.573,1.3387 -3.17242,2.50992 -3.73896,2.73797 -4.54255,3.43031 -10.55868,9.09697 -2.79747,2.63496 -5.6447,4.85616 -6.45219,5.03352 -0.7949,0.17459 -1.99178,0.73341 -2.65975,1.24183 -0.66796,0.50841 -2.04725,1.24563 -3.06507,1.63826 -1.01782,0.39263 -2.13155,0.92742 -2.47498,1.18844 -0.99594,0.75691 -9.06007,4.63557 -9.63786,4.63557 -0.28836,0 -0.71456,0.32325 -0.94712,0.71833 -0.23255,0.39507 -1.31175,1.00726 -2.39822,1.36042 -1.08647,0.35315 -2.10779,0.8563 -2.26959,1.1181 -0.16181,0.26181 -1.17633,0.87917 -2.2545,1.37191 -1.07817,0.49275 -2.3172,1.17372 -2.75341,1.51328 -0.43621,0.33956 -1.62586,0.93369 -2.64368,1.32028 -1.01782,0.3866 -2.20748,0.98028 -2.64369,1.31932 -0.4362,0.33903 -1.92328,1.03331 -3.3046,1.54286 -1.38133,0.50954 -2.5115,1.11822 -2.5115,1.35261 0,0.23439 -0.80862,0.57785 -1.79694,0.76326 -0.98832,0.18541 -2.37521,0.79197 -3.08197,1.34791 -0.70676,0.55594 -1.98004,1.17647 -2.82951,1.37896 -0.84946,0.20249 -1.90137,0.66375 -2.33758,1.02504 -0.43621,0.36128 -2.10174,1.29553 -3.70116,2.07607 -2.38634,1.1646 -4.09376,1.51207 -9.51726,1.93686 -3.63507,0.28471 -8.35967,0.86508 -10.49911,1.2897 -4.24616,0.84275 -28.3193,1.01865 -31.79984,0.23237 z"
     id="path3591" /></g></svg>
