<?xml version="1.0" encoding="utf-8"?>
<!-- Generator: Adobe Illustrator 13.0.0, SVG Export Plug-In  -->
<!DOCTYPE svg PUBLIC "-//W3C//DTD SVG 1.1//EN" "http://www.w3.org/Graphics/SVG/1.1/DTD/svg11.dtd" [
	<!ENTITY ns_flows "http://ns.adobe.com/Flows/1.0/">
]>
<svg version="1.1"
	 xmlns="http://www.w3.org/2000/svg" xmlns:xlink="http://www.w3.org/1999/xlink" xmlns:a="http://ns.adobe.com/AdobeSVGViewerExtensions/3.0/"
	 x="0px" y="0px" width="576px" height="576px" viewBox="-0.531 -0.531 576 576" enable-background="new -0.531 -0.531 576 576"
	 xml:space="preserve">
<defs>
</defs>
<path fill="#FFFFFF" stroke="#000000" stroke-linecap="round" stroke-linejoin="round" d="M41.496,574.438h491.947
	c10.872,0,21.3-4.318,28.988-12.007c7.688-7.688,12.007-18.115,12.007-28.988V41.496c0-10.873-4.319-21.3-12.007-28.988
	C554.742,4.819,544.314,0.5,533.442,0.5H41.496c-10.873,0-21.3,4.319-28.988,12.007C4.819,20.195,0.5,30.623,0.5,41.496v491.947
	c0,10.873,4.319,21.3,12.007,28.988C20.195,570.119,30.623,574.438,41.496,574.438z"/>
<polygon fill="#0000FF" stroke="#0000FF" stroke-width="0.1764" stroke-linecap="round" stroke-linejoin="round" points="
	36.576,538.362 538.362,538.362 538.362,538.362 538.362,36.576 538.362,36.576 36.576,36.576 36.576,36.576 "/>
<rect x="88.762" y="88.762" fill="#FFFFFF" stroke="#0000FF" stroke-width="0.1764" stroke-linecap="round" stroke-linejoin="round" width="397.414" height="397.414"/>
<polygon fill="#FF0000" stroke="#FF0000" stroke-width="0.1764" stroke-linecap="round" stroke-linejoin="round" points="
	228.927,461.491 228.927,346.01 113.446,346.01 113.446,228.927 228.927,228.927 228.927,113.446 346.01,113.446 346.01,228.927 
	461.491,228.927 461.491,346.01 346.01,346.01 346.01,461.491 "/>
</svg>
