<?xml version="1.0" encoding="utf-8"?>
<!-- Generator: Adobe Illustrator 15.0.0, SVG Export Plug-In  -->
<!DOCTYPE svg PUBLIC "-//W3C//DTD SVG 1.1//EN" "http://www.w3.org/Graphics/SVG/1.1/DTD/svg11.dtd" [
	<!ENTITY ns_flows "http://ns.adobe.com/Flows/1.0/">
]>
<svg version="1.1"
	 xmlns="http://www.w3.org/2000/svg" xmlns:xlink="http://www.w3.org/1999/xlink" xmlns:a="http://ns.adobe.com/AdobeSVGViewerExtensions/3.0/"
	 x="0px" y="0px" width="576px" height="576px" viewBox="-0.031 -0.031 576 576" enable-background="new -0.031 -0.031 576 576"
	 xml:space="preserve">
<defs>
</defs>
<path fill="#FFFFFF" stroke="#000000" stroke-width="2" stroke-linecap="round" stroke-linejoin="round" d="M41.996,574.938h491.947
	c10.872,0,21.3-4.318,28.988-12.007c7.688-7.688,12.007-18.115,12.007-28.988V41.996c0-10.873-4.319-21.3-12.007-28.988
	C555.242,5.319,544.814,1,533.942,1H41.996c-10.873,0-21.3,4.319-28.988,12.007C5.319,20.695,1,31.123,1,41.996v491.947
	c0,10.873,4.319,21.3,12.007,28.988C20.695,570.619,31.123,574.938,41.996,574.938z"/>
<polygon fill="#0000FF" stroke="#0000FF" stroke-width="0.1764" stroke-linecap="round" stroke-linejoin="round" points="
	37.076,538.862 538.862,538.862 538.862,538.862 538.862,37.076 538.862,37.076 37.076,37.076 37.076,37.076 "/>
<rect x="89.262" y="89.262" fill="#FFFFFF" stroke="#0000FF" stroke-width="0.1764" stroke-linecap="round" stroke-linejoin="round" width="397.414" height="397.414"/>
<polygon points="423.636,170.302 376.084,170.302 354.969,105.636 297.636,105.636 275.657,170.302 229.635,170.302 
	229.635,188.969 269.313,188.969 262.969,207.636 324.969,178.302 386.969,203.636 383.051,191.636 423.636,191.636 "/>
<path d="M253.635,394.969h2c29.877,2.114,44.27,23.526,75.5,7.323l1.195-0.922c27.08-12.377,40.795,7.255,67.957,9.274h1.854
	c27.697-2.114,41.041-23.526,69.992-7.323l6.502,3.825v-9.608l-7.168-4.217c-19.894-11.133-32.423-4.513-47.299,1.407l-4.867,1.407
	l1.167-5.667l1.667-8l0.153,0.146c10.136-44.533,27.254-85.092,47.135-126.431l-2.788-1.549l-0.106-0.466l-141.561-63.867
	l-144.667,66.667c21.078,43.561,39.216,86.11,49.49,133.215c-16.62,5.813-30.247,13.031-51.49,3.455v-71.67H98.969v146h79.333
	v-7.897c29.447,12.686,44.251-7.074,73.667-9.103h2c29.877,2.114,44.27,23.526,75.5,7.323l1.195-0.922
	c27.081-12.377,40.796,7.255,67.957,9.274h1.854c27.698-2.114,41.041-23.526,69.993-7.323l8.168,4.805v-9.607l-8.835-5.197
	c-28.952-16.203-42.295,5.209-69.993,7.323h-1.854c-27.161-2.02-40.876-21.651-67.957-9.274l-1.195,0.922
	c-31.23,16.203-45.623-5.209-75.5-7.323h-2c-29.192,2.013-43.996,21.484-73,9.382v-17.333c29.004,12.104,43.808-7.369,73-9.382h2
	c29.877,2.114,44.27,23.526,75.5,7.323l1.195-0.922c27.08-12.377,40.795,7.255,67.957,9.274h1.854
	c27.697-2.114,41.041-23.526,69.992-7.323l8.835,5.197v-9.608l-9.501-5.589c-28.953-16.203-42.295,5.209-69.994,7.323h-1.854
	c-27.16-2.02-40.875-21.651-67.957-9.274l-1.195,0.922c-31.23,16.203-45.623-5.209-75.5-7.323h-2
	c-28.969,1.997-43.765,21.195-72.333,9.662v-19.972C208.868,417.503,223.67,397.034,253.635,394.969z"/>
<polygon points="377.219,300.969 379.469,298.469 379.469,295.969 371.981,268.969 279.401,268.969 272.469,293.969 
	272.469,296.469 274.719,298.969 277.969,301.719 280.639,303.636 374.066,303.636 "/>
<polygon fill="none" points="279.401,268.969 272.469,293.969 272.469,296.469 274.719,298.969 277.969,301.719 280.639,303.636 
	374.066,303.636 377.219,300.969 379.469,298.469 379.469,295.969 371.981,268.969 "/>
<path fill="#FFFFFF" d="M396.719,308.044c0-2.235-1.535-4.09-3.561-4.489l-0.439-0.586c0,0-1.25-0.75-1.5-1.5s-1-1.5-1-1.5
	l-1.25-3.25l-8.367-32.751c0.074-0.377,0.117-0.766,0.117-1.165c0-3.406-2.85-6.167-6.365-6.167h-96.686
	c-2.671,0-4.956,1.594-5.9,3.853l-0.049-0.021l-0.164,0.642l-0.058,0.229c-0.016,0.063-0.044,0.12-0.058,0.183
	c-0.008,0.037-0.011,0.076-0.019,0.113l-8.452,33.083l-1.25,3.25c0,0-0.75,0.75-1,1.5s-1.5,1.5-1.5,1.5l-1.5,2l-0.137,0.412
	c-0.906,0.838-1.488,2.049-1.488,3.413v6.1c0,0.299,0.032,0.59,0.084,0.873c-0.132,0.729-0.209,1.477-0.209,2.244v19.25
	c0,6.011,4.157,11.017,9.667,12.137v25.238c0,3.313,3.208,6,7.167,6c3.958,0,7.167-2.687,7.167-6v-25h92.667v24.333
	c0,3.313,3.208,6,7.167,6c3.958,0,7.166-2.687,7.166-6v-24.571c5.51-1.12,9.667-6.126,9.667-12.137v-19.25
	c0-0.27-0.033-0.53-0.05-0.796c0.079-0.346,0.133-0.7,0.133-1.071V308.044z M379.469,298.469l-2.25,2.5l-3.152,2.667h-93.428
	l-2.67-1.917l-3.25-2.75l-2.25-2.5v-2.5l6.933-25h92.58l7.487,27V298.469z"/>
</svg>
