<?xml version="1.0" encoding="utf-8"?>
<!-- Generator: Adobe Illustrator 15.0.0, SVG Export Plug-In  -->
<!DOCTYPE svg PUBLIC "-//W3C//DTD SVG 1.1//EN" "http://www.w3.org/Graphics/SVG/1.1/DTD/svg11.dtd" [
	<!ENTITY ns_flows "http://ns.adobe.com/Flows/1.0/">
]>
<svg version="1.1"
	 xmlns="http://www.w3.org/2000/svg" xmlns:xlink="http://www.w3.org/1999/xlink" xmlns:a="http://ns.adobe.com/AdobeSVGViewerExtensions/3.0/"
	 x="0px" y="0px" width="576px" height="576px" viewBox="-0.031 -0.031 576 576" enable-background="new -0.031 -0.031 576 576"
	 xml:space="preserve">
<defs>
</defs>
<path fill="#FFFFFF" stroke="#000000" stroke-width="2" stroke-linecap="round" stroke-linejoin="round" d="M41.996,574.938h491.947
	c10.872,0,21.3-4.318,28.988-12.007c7.688-7.688,12.007-18.115,12.007-28.988V41.996c0-10.873-4.319-21.3-12.007-28.988
	C555.242,5.319,544.814,1,533.942,1H41.996c-10.873,0-21.3,4.319-28.988,12.007C5.319,20.695,1,31.123,1,41.996v491.947
	c0,10.873,4.319,21.3,12.007,28.988C20.695,570.619,31.123,574.938,41.996,574.938z"/>
<polygon fill="#0000FF" stroke="#0000FF" stroke-width="0.1764" stroke-linecap="round" stroke-linejoin="round" points="
	37.076,538.862 538.862,538.862 538.862,538.862 538.862,37.076 538.862,37.076 37.076,37.076 37.076,37.076 "/>
<rect x="298.969" y="83.469" fill="#FFFFFF" width="198" height="408.5"/>
<rect x="82.469" y="83.469" fill="#FFFFFF" width="198" height="408.5"/>
<path d="M254.778,288.175l-37.463-85.107c-0.586-1.332-1.604-2.362-2.869-3.049c-6.174-6.026-13.987-10.335-22.477-11.816v-12.239
	c9.265-4.423,15.667-13.877,15.667-24.829c0-15.187-12.312-27.5-27.5-27.5c-15.188,0-27.5,12.313-27.5,27.5
	c0,10.819,6.25,20.174,15.333,24.664v12.462c-7.734,1.763-14.829,5.863-20.528,11.424c-1.265,0.687-2.283,1.717-2.869,3.049
	l-37.463,85.107c-1.623,3.688,0.644,8.251,5.063,10.197c4.419,1.946,9.316,0.534,10.939-3.153l29.326-66.622l5.147,1.029
	l-5.767,20.342l-29.483,104h31.301v86.002c0,5.707,5.223,10.333,11.667,10.333c6.443,0,11.667-4.626,11.667-10.333v-86.002h4.333h4
	v86.335c0,5.707,5.223,10.333,11.667,10.333c6.443,0,11.667-4.626,11.667-10.333v-86.335h31.634l-29.483-104l-5.716-20.162
	l4.379-0.876l29.326,66.623c1.623,3.688,6.52,5.1,10.939,3.152C254.134,296.426,256.401,291.863,254.778,288.175z"/>
<path d="M480.608,284.93l-34.64-78.119c-1.794-9.726-11.339-17.361-23.333-18.634v-0.208h-10v-13.069
	c8.172-4.768,13.666-13.621,13.666-23.764c0-15.187-12.312-27.5-27.501-27.5c-15.188,0-27.499,12.313-27.499,27.5
	c0,10.552,5.945,19.711,14.667,24.323v12.511h-5.144c-1.524-0.217-3.091-0.333-4.69-0.333c-13.618,0-24.895,8.177-26.861,18.842
	l-34.64,78.12c-2.054,4.634,0.602,10.306,5.931,12.669c5.33,2.364,11.316,0.522,13.371-4.11l28.479-64.225
	c1.638,0.784,3.389,1.424,5.222,1.918v71.333l-37.342,129.358c-2.098,7.266,2.767,15.049,10.863,17.386
	c8.096,2.338,16.36-1.655,18.458-8.921l36.094-125.037h6.217l36.094,125.037c2.098,7.266,10.362,11.259,18.458,8.921
	c8.097-2.337,12.961-10.12,10.863-17.386l-37.726-130.688c-0.171-0.593-0.396-1.154-0.646-1.701V230.78
	c1.339-0.427,2.633-0.928,3.859-1.515l28.479,64.225c2.055,4.633,8.041,6.475,13.371,4.109
	C480.007,295.236,482.662,289.564,480.608,284.93z"/>
</svg>
