<?xml version="1.0" encoding="utf-8"?>
<!-- Generator: Adobe Illustrator 15.0.0, SVG Export Plug-In  -->
<!DOCTYPE svg PUBLIC "-//W3C//DTD SVG 1.1//EN" "http://www.w3.org/Graphics/SVG/1.1/DTD/svg11.dtd" [
	<!ENTITY ns_flows "http://ns.adobe.com/Flows/1.0/">
]>
<svg version="1.1"
	 xmlns="http://www.w3.org/2000/svg" xmlns:xlink="http://www.w3.org/1999/xlink" xmlns:a="http://ns.adobe.com/AdobeSVGViewerExtensions/3.0/"
	 x="0px" y="0px" width="576px" height="576px" viewBox="-0.031 -0.031 576 576" enable-background="new -0.031 -0.031 576 576"
	 xml:space="preserve">
<defs>
</defs>
<path fill="#FFFFFF" stroke="#000000" stroke-width="2" stroke-linecap="round" stroke-linejoin="round" d="M41.996,574.938h491.947
	c10.872,0,21.3-4.318,28.988-12.007c7.688-7.688,12.007-18.115,12.007-28.988V41.996c0-10.873-4.319-21.3-12.007-28.988
	C555.242,5.319,544.814,1,533.942,1H41.996c-10.873,0-21.3,4.319-28.988,12.007C5.319,20.695,1,31.123,1,41.996v491.947
	c0,10.873,4.319,21.3,12.007,28.988C20.695,570.619,31.123,574.938,41.996,574.938z"/>
<polygon fill="#0000FF" stroke="#0000FF" stroke-width="0.1764" stroke-linecap="round" stroke-linejoin="round" points="
	37.076,538.862 538.862,538.862 538.862,538.862 538.862,37.076 538.862,37.076 37.076,37.076 37.076,37.076 "/>
<rect x="89.262" y="89.262" fill="#FFFFFF" stroke="#0000FF" stroke-width="0.1764" stroke-linecap="round" stroke-linejoin="round" width="397.414" height="397.414"/>
<path d="M343.177,353.969h-0.479c-8.911,31.771-37.193,55-70.73,55c-25.755,0-48.41-13.706-61.579-34.453
	c-8.354-11.74-13.281-26.067-13.281-41.547c0-13.267,3.613-25.688,9.906-36.357c5.52-10.664,13.417-19.802,22.954-26.674v-28.944
	c-35.867,15.271-61,50.701-61,91.976c0,55.228,44.995,100,100.5,100c37.732,0,70.604-20.694,87.786-51.297L343.177,353.969z"/>
<path d="M398.541,390.767l29.906-14.344l-8.331-17.37l-29.575,14.184l-40.006-87.663l-0.899,0.411v-0.682h-85.107l-0.466-19.667
	h68.24v-20.667h-68.731l-1.55-65.324c14.489-2.135,25.614-14.68,25.614-29.842c0-16.661-13.432-30.167-30-30.167
	s-30,13.506-30,30.167c0,7.052,2.413,13.534,6.445,18.67l3.302,139.136l0.252-0.006v1.033h97.776l42.193,92.457l21.039-10.101
	L398.541,390.767z"/>
</svg>
