<?xml version="1.0" encoding="UTF-8" standalone="no"?>
<!-- Generator: Adobe Illustrator 15.0.0, SVG Export Plug-In  -->

<svg
   xmlns:dc="http://purl.org/dc/elements/1.1/"
   xmlns:cc="http://creativecommons.org/ns#"
   xmlns:rdf="http://www.w3.org/1999/02/22-rdf-syntax-ns#"
   xmlns:svg="http://www.w3.org/2000/svg"
   xmlns="http://www.w3.org/2000/svg"
   xmlns:sodipodi="http://sodipodi.sourceforge.net/DTD/sodipodi-0.dtd"
   xmlns:inkscape="http://www.inkscape.org/namespaces/inkscape"
   version="1.1"
   x="0px"
   y="0px"
   width="576px"
   height="576px"
   viewBox="-0.031 -0.031 576 576"
   enable-background="new -0.031 -0.031 576 576"
   xml:space="preserve"
   id="svg2"
   inkscape:version="0.91 r13725"
   sodipodi:docname="France_road_sign_CE15i.svg"><metadata
     id="metadata28"><rdf:RDF><cc:Work
         rdf:about=""><dc:format>image/svg+xml</dc:format><dc:type
           rdf:resource="http://purl.org/dc/dcmitype/StillImage" /></cc:Work></rdf:RDF></metadata><sodipodi:namedview
     pagecolor="#ffffff"
     bordercolor="#666666"
     borderopacity="1"
     objecttolerance="10"
     gridtolerance="10"
     guidetolerance="10"
     inkscape:pageopacity="0"
     inkscape:pageshadow="2"
     inkscape:window-width="1440"
     inkscape:window-height="788"
     id="namedview26"
     showgrid="false"
     inkscape:zoom="0.68272485"
     inkscape:cx="53.915406"
     inkscape:cy="166.24445"
     inkscape:window-x="0"
     inkscape:window-y="1"
     inkscape:window-maximized="1"
     inkscape:current-layer="svg2" /><defs
     id="defs4" /><path
     d="M41.996,574.938h491.947  c10.872,0,21.3-4.318,28.988-12.007c7.688-7.688,12.007-18.115,12.007-28.988V41.996c0-10.873-4.319-21.3-12.007-28.988  C555.242,5.319,544.814,1,533.942,1H41.996c-10.873,0-21.3,4.319-28.988,12.007C5.319,20.695,1,31.123,1,41.996v491.947  c0,10.873,4.319,21.3,12.007,28.988C20.695,570.619,31.123,574.938,41.996,574.938z"
     id="path6"
     stroke-linejoin="round"
     stroke-linecap="round"
     stroke-width="2"
     stroke="#000000"
     fill="#FFFFFF" /><polygon
     points="  37.076,538.862 538.862,538.862 538.862,538.862 538.862,37.076 538.862,37.076 37.076,37.076 37.076,37.076 "
     id="polygon8"
     stroke-linejoin="round"
     stroke-linecap="round"
     stroke-width="0.1764"
     stroke="#0000FF"
     fill="#0000FF" /><rect
     x="89.262"
     y="89.262"
     fill="#FFFFFF"
     stroke="#0000FF"
     stroke-width="0.1764"
     stroke-linecap="round"
     stroke-linejoin="round"
     width="397.414"
     height="397.414"
     id="rect10" /><path
     style="fill:#000000"
     d="m 283.59047,201.15483 c -11.94062,0.0221 -23.84653,1.78961 -35.28172,5.58957 -17.3836,7.27117 -34.82543,17.27926 -44.22448,34.33507 -6.77731,11.73906 -12.5956,24.74443 -12.6762,38.50992 -1.53776,14.39836 3.59556,28.54035 6.374,42.54652 3.14407,5.87046 0.89693,9.99719 -3.23885,6.64257 l 0.17026,-0.21005 c -0.83641,-0.76032 -1.67116,-1.52121 -2.50758,-2.28157 l -0.002,-0.002 c -2.51076,-2.28234 -5.02001,-4.56474 -7.53075,-6.84733 -2.41968,-2.19967 -4.34111,-2.83585 -4.01799,-6.06287 0.32874,-3.28552 1.12925,-6.81402 0.7632,-10.11013 -0.77665,-6.98999 -6.77145,-10.14635 -11.81197,-14.34615 l -10.83077,-9.02519 c -2.60467,-2.17066 -2.66809,-0.40085 -4.90615,2.13528 -2.84149,3.22033 -2.37485,2.75619 -5.54168,0.0586 -3.52565,-3.00361 -7.04984,-6.00829 -10.57548,-9.01188 -0.53432,-0.45521 -6.15605,-5.6026 -6.46975,-5.28109 -2.374,2.43473 -4.74777,4.86995 -7.12123,7.30469 4.26112,3.87388 8.5247,7.74667 12.78526,11.62053 l 5.36883,4.87957 c 0.60172,0.54711 -1.92205,3.90997 -2.36664,4.67214 -6.43844,-5.6952 -12.87771,-11.39201 -19.31613,-17.08776 -1.1249,1.31207 -7.30567,7.20468 -6.19586,8.26997 3.67499,3.52843 7.3499,7.05558 11.02488,10.58347 1.13713,1.09145 7.61527,5.95886 6.64526,7.38182 -1.60848,2.35898 -6.46314,6.45127 -3.89302,8.64759 6.2295,5.32357 12.45908,10.64733 18.68856,15.97089 4.6717,3.99199 11.66596,2.6352 17.37227,2.63523 2.90111,0 4.1623,1.65664 6.46444,3.45957 2.53827,1.98813 5.07755,3.97621 7.61581,5.96448 7.79706,6.65493 15.67557,13.76266 26.59958,11.42375 18.60376,-2.74761 15.78628,-24.9718 11.25091,-38.10308 -4.75575,-16.74331 -7.6474,-35.43049 0.45471,-51.66479 6.70696,-14.05931 17.09339,-27.4695 31.13608,-34.75789 15.93443,-6.82321 33.74758,-9.93469 50.76333,-5.56559 21.91093,3.08967 39.58362,17.84431 56.48319,30.9845 15.03145,14.2578 33.00495,24.72613 51.90944,32.94964 10.23466,5.50993 22.02162,10.21652 28.84655,20.05272 5.42805,10.55785 -0.89821,20.03022 -10.03033,25.03065 l -0.011,-0.0128 c -6.3134,2.70585 -12.24446,3.7465 -18.52637,4.1403 a 27.594003,27.594003 0 0 0 -25.44284,-16.97869 27.594003,27.594003 0 0 0 -25.49069,17.08241 l -74.67448,0 a 27.594003,27.594003 0 0 0 -25.50133,-17.08241 27.594003,27.594003 0 0 0 -27.5941,27.59407 27.594003,27.594003 0 0 0 27.5941,27.59409 27.594003,27.594003 0 0 0 25.78319,-17.78447 l 74.12405,0 a 27.594003,27.594003 0 0 0 25.75926,17.78447 27.594003,27.594003 0 0 0 25.75663,-17.78178 c 1.47947,-0.10727 2.94183,-0.23999 4.39026,-0.40156 1.0119,0.39249 2.55528,0.2424 4.74128,-0.64086 5.9701,-0.91755 12.22086,-2.59438 18.10356,-5.10292 0.52984,-0.21983 1.0585,-0.44412 1.59016,-0.67806 l -0.011,-0.0212 c 11.64401,-5.33054 21.56844,-14.04949 24.51745,-26.84954 1.4317,-8.60715 1.09791,-18.03002 -3.31863,-25.77256 -3.92113,-10.63023 -14.29342,-16.48823 -21.9673,-24.12654 -26.57473,-21.54298 -56.25402,-38.97707 -86.22844,-55.31028 -20.0408,-10.66335 -42.96892,-16.98155 -65.76631,-16.9415 l -0.002,0 -0.002,0 z m -27.46911,134.15988 a 11.872186,11.872186 0 0 1 11.87312,11.87312 11.872186,11.872186 0 0 1 -11.87312,11.87318 11.872186,11.872186 0 0 1 -11.8705,-11.87318 11.872186,11.872186 0 0 1 11.8705,-11.87312 z m 125.6665,0 a 11.872186,11.872186 0 0 1 11.87314,11.87312 11.872186,11.872186 0 0 1 -11.87314,11.87318 11.872186,11.872186 0 0 1 -11.87313,-11.87318 11.872186,11.872186 0 0 1 11.87313,-11.87312 z"
     id="path4251"
     inkscape:connector-curvature="0" /></svg>