<?xml version="1.0" encoding="utf-8"?>
<!-- Generator: Adobe Illustrator 15.0.0, SVG Export Plug-In  -->
<!DOCTYPE svg PUBLIC "-//W3C//DTD SVG 1.1//EN" "http://www.w3.org/Graphics/SVG/1.1/DTD/svg11.dtd" [
	<!ENTITY ns_flows "http://ns.adobe.com/Flows/1.0/">
]>
<svg version="1.1"
	 xmlns="http://www.w3.org/2000/svg" xmlns:xlink="http://www.w3.org/1999/xlink" xmlns:a="http://ns.adobe.com/AdobeSVGViewerExtensions/3.0/"
	 x="0px" y="0px" width="576px" height="576px" viewBox="-0.031 -0.031 576 576" enable-background="new -0.031 -0.031 576 576"
	 xml:space="preserve">
<defs>
</defs>
<path fill="#FFFFFF" stroke="#000000" stroke-width="2" stroke-linecap="round" stroke-linejoin="round" d="M41.996,574.938h491.947
	c10.872,0,21.3-4.318,28.988-12.007c7.688-7.688,12.007-18.115,12.007-28.988V41.996c0-10.873-4.319-21.3-12.007-28.988
	C555.242,5.319,544.814,1,533.942,1H41.996c-10.873,0-21.3,4.319-28.988,12.007C5.319,20.695,1,31.123,1,41.996v491.947
	c0,10.873,4.319,21.3,12.007,28.988C20.695,570.619,31.123,574.938,41.996,574.938z"/>
<polygon fill="#0000FF" stroke="#0000FF" stroke-width="0.1764" stroke-linecap="round" stroke-linejoin="round" points="
	37.076,538.862 538.862,538.862 538.862,538.862 538.862,37.076 538.862,37.076 37.076,37.076 37.076,37.076 "/>
<rect x="89.262" y="89.262" fill="#FFFFFF" stroke="#0000FF" stroke-width="0.1764" stroke-linecap="round" stroke-linejoin="round" width="397.414" height="397.414"/>
<path d="M225.214,241.589h12.535v-0.42h-12.813v106.647h0.257c-1.272,2.731-3.912,4.609-6.967,4.609
	c-3.031,0-5.654-1.849-6.938-4.544V203.395l12.673-8.068v-39.732l-26.042,40.31v152.473h0.184
	c0.658,9.072,9.284,16.255,19.835,16.255c10.979,0,19.879-7.777,19.879-17.369c0-0.459-0.028-0.911-0.068-1.36v-92.121h-12.535
	V241.589z"/>
<rect x="248.193" y="146.995" fill="none" width="98.179" height="66.847"/>
<path d="M370.187,237.806V123.452H223.961v32.143v39.732v42.48h18.893l0.045,3.223h-17.407v0.561h-0.279v12.192h12.535h5.327
	l1.657,119.399h-20.772v24.805h146.225v-24.805h-21.689l5.426-135.375H370.187z M346.372,213.842h-98.179v-66.847h98.179V213.842z"
	/>
<path d="M206.744,458.98v-13.674h-12.371v-9.438h12.371v-13.674h8.248v13.674h12.403v9.438h-12.403v13.674H206.744z"/>
<path d="M275.268,447.209v-8.864h20.554v20.959c-1.997,2.153-4.892,4.05-8.682,5.688s-7.63,2.459-11.517,2.459
	c-4.94,0-9.246-1.154-12.918-3.464c-3.673-2.309-6.433-5.61-8.28-9.905s-2.771-8.967-2.771-14.015
	c0-5.479,1.031-10.349,3.093-14.607c2.062-4.259,5.079-7.524,9.053-9.798c3.028-1.746,6.797-2.62,11.308-2.62
	c5.863,0,10.443,1.37,13.74,4.109c3.297,2.74,5.418,6.526,6.363,11.359l-9.472,1.974c-0.666-2.584-1.917-4.624-3.753-6.119
	s-4.129-2.243-6.878-2.243c-4.167,0-7.479,1.472-9.938,4.414c-2.459,2.943-3.689,7.311-3.689,13.101
	c0,6.244,1.246,10.928,3.737,14.051c2.491,3.122,5.755,4.684,9.793,4.684c1.998,0,4-0.437,6.008-1.311
	c2.008-0.873,3.732-1.932,5.171-3.176v-6.676H275.268z"/>
<path d="M304.616,466.554v-52.614h15.303c5.799,0,9.579,0.264,11.341,0.789c2.706,0.79,4.972,2.507,6.797,5.15
	c1.825,2.645,2.738,6.06,2.738,10.247c0,3.229-0.526,5.945-1.578,8.146c-1.053,2.202-2.39,3.93-4.011,5.187
	c-1.622,1.256-3.271,2.087-4.945,2.494c-2.276,0.502-5.573,0.754-9.891,0.754h-6.218v19.847H304.616z M314.152,422.84v14.931h5.22
	c3.758,0,6.271-0.275,7.538-0.826c1.267-0.55,2.26-1.411,2.98-2.584c0.719-1.172,1.079-2.536,1.079-4.091
	c0-1.914-0.505-3.493-1.515-4.738c-1.01-1.243-2.287-2.021-3.834-2.332c-1.139-0.239-3.426-0.359-6.861-0.359H314.152z"/>
<path d="M348.881,466.554V414.37h9.536v43.318h23.711v8.865H348.881z"/>
</svg>
