<?xml version="1.0" encoding="UTF-8" standalone="no"?>
<!-- Generator: Adobe Illustrator 15.0.0, SVG Export Plug-In  -->

<svg
   xmlns:dc="http://purl.org/dc/elements/1.1/"
   xmlns:cc="http://creativecommons.org/ns#"
   xmlns:rdf="http://www.w3.org/1999/02/22-rdf-syntax-ns#"
   xmlns:svg="http://www.w3.org/2000/svg"
   xmlns="http://www.w3.org/2000/svg"
   xmlns:sodipodi="http://sodipodi.sourceforge.net/DTD/sodipodi-0.dtd"
   xmlns:inkscape="http://www.inkscape.org/namespaces/inkscape"
   version="1.1"
   x="0px"
   y="0px"
   width="576px"
   height="576px"
   viewBox="-0.031 -0.031 576 576"
   enable-background="new -0.031 -0.031 576 576"
   xml:space="preserve"
   id="svg2"
   inkscape:version="0.91 r13725"
   sodipodi:docname="France_road_sign_CE15c.svg"><metadata
     id="metadata28"><rdf:RDF><cc:Work
         rdf:about=""><dc:format>image/svg+xml</dc:format><dc:type
           rdf:resource="http://purl.org/dc/dcmitype/StillImage" /></cc:Work></rdf:RDF></metadata><sodipodi:namedview
     pagecolor="#ffffff"
     bordercolor="#666666"
     borderopacity="1"
     objecttolerance="10"
     gridtolerance="10"
     guidetolerance="10"
     inkscape:pageopacity="0"
     inkscape:pageshadow="2"
     inkscape:window-width="1440"
     inkscape:window-height="788"
     id="namedview26"
     showgrid="false"
     inkscape:zoom="0.4857449"
     inkscape:cx="315.42129"
     inkscape:cy="166.24445"
     inkscape:window-x="0"
     inkscape:window-y="1"
     inkscape:window-maximized="1"
     inkscape:current-layer="svg2" /><defs
     id="defs4" /><path
     d="M41.996,574.938h491.947  c10.872,0,21.3-4.318,28.988-12.007c7.688-7.688,12.007-18.115,12.007-28.988V41.996c0-10.873-4.319-21.3-12.007-28.988  C555.242,5.319,544.814,1,533.942,1H41.996c-10.873,0-21.3,4.319-28.988,12.007C5.319,20.695,1,31.123,1,41.996v491.947  c0,10.873,4.319,21.3,12.007,28.988C20.695,570.619,31.123,574.938,41.996,574.938z"
     id="path6"
     stroke-linejoin="round"
     stroke-linecap="round"
     stroke-width="2"
     stroke="#000000"
     fill="#FFFFFF" /><polygon
     points="  37.076,538.862 538.862,538.862 538.862,538.862 538.862,37.076 538.862,37.076 37.076,37.076 37.076,37.076 "
     id="polygon8"
     stroke-linejoin="round"
     stroke-linecap="round"
     stroke-width="0.1764"
     stroke="#0000FF"
     fill="#0000FF" /><rect
     x="89.262"
     y="89.262"
     fill="#FFFFFF"
     stroke="#0000FF"
     stroke-width="0.1764"
     stroke-linecap="round"
     stroke-linejoin="round"
     width="397.414"
     height="397.414"
     id="rect10" /><g
     id="g4308"
     transform="translate(9.9043865,-3.8543632)"><path
       inkscape:connector-curvature="0"
       id="path4251"
       d="m 283.85572,345.04322 c -8.77026,0.0162 -17.51503,1.31443 -25.91406,4.10547 -12.76807,5.34061 -25.57893,12.69144 -32.48243,25.21875 -4.97787,8.62223 -9.25134,18.17454 -9.31054,28.28515 -1.12946,10.57546 2.6409,20.96261 4.68164,31.25 2.30929,4.31178 0.65878,7.34283 -2.37891,4.87891 l 0.125,-0.1543 c -0.61434,-0.55843 -1.22746,-1.11731 -1.8418,-1.67578 l -0.002,-0.002 c -1.84413,-1.67637 -3.68714,-3.35276 -5.53125,-5.0293 -1.77725,-1.61562 -3.18852,-2.08291 -2.95117,-4.45312 0.24144,-2.41318 0.82941,-5.00482 0.56055,-7.42578 -0.57045,-5.13408 -4.97356,-7.4524 -8.67578,-10.53711 l -7.95508,-6.62891 c -1.91311,-1.59432 -1.95969,-0.29442 -3.60352,1.56836 -2.08704,2.36528 -1.7443,2.02438 -4.07031,0.043 -2.58956,-2.20612 -5.17803,-4.41303 -7.76758,-6.61914 -0.39244,-0.33433 -4.52156,-4.11504 -4.75195,-3.87891 -1.74369,1.78829 -3.4872,3.57694 -5.23047,5.36524 3.12972,2.84531 6.2613,5.68984 9.39062,8.53515 l 3.94336,3.58399 c 0.44195,0.40185 -1.41172,2.87184 -1.73828,3.43164 -4.72897,-4.18305 -9.45855,-8.36731 -14.1875,-12.55078 -0.82622,0.96371 -5.36594,5.29178 -4.55078,6.07421 2.69923,2.5916 5.39842,5.18225 8.09766,7.77344 0.8352,0.80166 5.59333,4.37673 4.88086,5.42188 -1.18141,1.73264 -4.74711,4.73841 -2.85938,6.35156 4.57551,3.91012 9.15107,7.82037 13.72656,11.73047 3.43131,2.93207 8.56853,1.93552 12.75977,1.93555 2.13081,0 3.05715,1.21677 4.74805,2.54101 1.86433,1.46027 3.72942,2.92049 5.59375,4.38086 5.72684,4.88797 11.51353,10.10854 19.53711,8.39063 13.66427,-2.01809 11.59486,-18.34153 8.26367,-27.98633 -3.49304,-12.29779 -5.61694,-26.02334 0.33398,-37.94727 4.92621,-10.32643 12.55493,-20.17607 22.86914,-25.5293 11.70369,-5.01158 24.78725,-7.29695 37.28516,-4.08789 16.09335,2.26934 29.07376,13.10647 41.48633,22.75782 11.04045,10.47219 24.24179,18.16108 38.12695,24.20117 7.51725,4.04698 16.17465,7.50392 21.1875,14.72851 3.98684,7.75464 -0.65974,14.712 -7.36719,18.38477 l -0.008,-0.01 c -4.63712,1.98742 -8.99342,2.75176 -13.60742,3.04102 a 20.267515,20.267515 0 0 0 -18.6875,-12.4707 20.267515,20.267515 0 0 0 -18.72266,12.54687 l -54.84765,0 a 20.267515,20.267515 0 0 0 -18.73047,-12.54687 20.267515,20.267515 0 0 0 -20.26758,20.26757 20.267515,20.267515 0 0 0 20.26758,20.26758 20.267515,20.267515 0 0 0 18.9375,-13.0625 l 54.44336,0 a 20.267515,20.267515 0 0 0 18.91992,13.0625 20.267515,20.267515 0 0 0 18.91797,-13.06054 c 1.08665,-0.0788 2.16075,-0.17626 3.22461,-0.29493 0.74322,0.28828 1.87683,0.17803 3.48242,-0.4707 4.38498,-0.67395 8.9761,-1.90556 13.29687,-3.74805 0.38918,-0.16146 0.77746,-0.3262 1.16797,-0.49804 l -0.008,-0.0156 c 8.55241,-3.91522 15.8418,-10.31919 18.00781,-19.7207 1.05157,-6.32187 0.80641,-13.24288 -2.4375,-18.92969 -2.88003,-7.8078 -10.49836,-12.11044 -16.13476,-17.7207 -19.51895,-15.82326 -41.3181,-28.62841 -63.33399,-40.625 -14.71976,-7.83212 -31.56024,-12.47277 -48.30469,-12.44336 l -0.002,0 -0.002,0 z m -20.17578,98.53906 a 8.7200003,8.7200003 0 0 1 8.7207,8.7207 8.7200003,8.7200003 0 0 1 -8.7207,8.72071 8.7200003,8.7200003 0 0 1 -8.71875,-8.72071 8.7200003,8.7200003 0 0 1 8.71875,-8.7207 z m 92.30078,0 a 8.7200003,8.7200003 0 0 1 8.7207,8.7207 8.7200003,8.7200003 0 0 1 -8.7207,8.72071 8.7200003,8.7200003 0 0 1 -8.7207,-8.72071 8.7200003,8.7200003 0 0 1 8.7207,-8.7207 z"
       style="fill:#000000" /><path
       transform="translate(-0.031,-0.031)"
       id="path12"
       d="m 234.59961,111.10742 0,24.13281 -19.55273,30.26368 0,114.47851 0.13867,0 c 0.49403,6.81126 6.97087,12.20313 14.89257,12.20313 8.24304,0 14.92383,-5.83934 14.92383,-13.04102 0,-0.34461 -0.0207,-0.68242 -0.0508,-1.01953 l 0,-69.16602 4,0 1.24414,89.64454 -15.5957,0 0,18.625 109.78516,0 0,-18.625 -16.28321,0 4.07227,-101.63868 12.21289,0 0,-85.85742 -109.78711,0 z m 18.19336,17.67578 73.71289,0 0,50.18946 -73.71289,0 0,-50.18946 z m -18.19336,36.28711 0,31.89453 14.18555,0 0.0332,2.41993 -13.06836,0 0,0.10351 -0.41797,0 0,80.07227 0.19336,0 c -0.95501,2.05043 -2.93873,3.45898 -5.23242,3.45898 -2.27568,0 -4.24497,-1.38674 -5.20899,-3.41015 l 0,-108.48047 9.51563,-6.0586 z m 0.94141,34.73438 0.20898,0 0,0.002 -0.20898,0 0,-0.002 z"
       style="fill:#000000"
       inkscape:connector-curvature="0" /><path
       inkscape:connector-curvature="0"
       style="fill:#000000"
       id="path18"
       d="m 164.95111,380.74964 0,-25.91804 -23.4483,0 0,-17.88902 23.4483,0 0,-25.91804 15.63347,0 0,25.91804 23.50895,0 0,17.88902 -23.50895,0 0,25.91804 -15.63347,0 z" /></g></svg>