<?xml version="1.0" encoding="utf-8"?>
<!-- Generator: Adobe Illustrator 15.0.0, SVG Export Plug-In  -->
<!DOCTYPE svg PUBLIC "-//W3C//DTD SVG 1.1//EN" "http://www.w3.org/Graphics/SVG/1.1/DTD/svg11.dtd" [
	<!ENTITY ns_flows "http://ns.adobe.com/Flows/1.0/">
]>
<svg version="1.1"
	 xmlns="http://www.w3.org/2000/svg" xmlns:xlink="http://www.w3.org/1999/xlink" xmlns:a="http://ns.adobe.com/AdobeSVGViewerExtensions/3.0/"
	 x="0px" y="0px" width="576px" height="576px" viewBox="-0.031 -0.031 576 576" enable-background="new -0.031 -0.031 576 576"
	 xml:space="preserve">
<defs>
</defs>
<path fill="#FFFFFF" stroke="#000000" stroke-width="2" stroke-linecap="round" stroke-linejoin="round" d="M41.996,574.938h491.947
	c10.872,0,21.3-4.318,28.988-12.007c7.688-7.688,12.007-18.115,12.007-28.988V41.996c0-10.873-4.319-21.3-12.007-28.988
	C555.242,5.319,544.814,1,533.942,1H41.996c-10.873,0-21.3,4.319-28.988,12.007C5.319,20.695,1,31.123,1,41.996v491.947
	c0,10.873,4.319,21.3,12.007,28.988C20.695,570.619,31.123,574.938,41.996,574.938z"/>
<polygon fill="#0000FF" stroke="#0000FF" stroke-width="0.1764" stroke-linecap="round" stroke-linejoin="round" points="
	37.076,538.862 538.862,538.862 538.862,538.862 538.862,37.076 538.862,37.076 37.076,37.076 37.076,37.076 "/>
<rect x="89.262" y="89.262" fill="#FFFFFF" stroke="#0000FF" stroke-width="0.1764" stroke-linecap="round" stroke-linejoin="round" width="397.414" height="397.414"/>
<path d="M435.273,396.127L308.751,286.248l36.511-41.671c21.766,11.58,59.739-1.317,90.055-32.077
	c14.296-14.505,24.581-30.656,30.231-45.942l-6.434-6.533l-67.479,61.611h-5.333l-1.334-2l0.334-3l64.055-66.519l-7.277-7.391
	l-67.444,63.576h-3.667l-2-2.333v-1.667l63.455-69.381l-5.474-5.559l-67.981,64.606l-2.333-0.667l-1.667-2l2-3.667l58.331-70.104
	l-4.673-4.745c-15.557,5.774-32.023,16.473-46.694,31.359c-29.701,30.137-42.166,67.385-31.471,89.191l-44.222,37.098
	l-46.904-40.734c8.983-20.493,1.458-50.601-20.399-74.23c-26.801-28.975-64.99-37.233-85.3-18.447
	c-20.308,18.785-15.044,57.502,11.755,86.476c25.737,27.823,61.968,36.528,82.79,20.538l37.172,43.918L135.75,396.361
	c-9.116,5.049-15.27,14.457-15.317,25.264c-0.071,16.2,13.6,29.393,30.538,29.467c12.069,0.053,22.533-6.571,27.58-16.242
	l109.27-124.714l109.152,128.96c5.089,9.094,14.523,15.206,25.331,15.206c16.2,0,29.332-13.729,29.332-30.666
	C451.636,411.566,444.966,401.132,435.273,396.127z"/>
</svg>
