<?xml version="1.0" encoding="utf-8"?>
<!-- Generator: Adobe Illustrator 15.0.0, SVG Export Plug-In  -->
<!DOCTYPE svg PUBLIC "-//W3C//DTD SVG 1.1//EN" "http://www.w3.org/Graphics/SVG/1.1/DTD/svg11.dtd" [
	<!ENTITY ns_flows "http://ns.adobe.com/Flows/1.0/">
]>
<svg version="1.1"
	 xmlns="http://www.w3.org/2000/svg" xmlns:xlink="http://www.w3.org/1999/xlink" xmlns:a="http://ns.adobe.com/AdobeSVGViewerExtensions/3.0/"
	 x="0px" y="0px" width="576px" height="576px" viewBox="-0.031 -0.031 576 576" enable-background="new -0.031 -0.031 576 576"
	 xml:space="preserve">
<defs>
</defs>
<path fill="#FFFFFF" stroke="#000000" stroke-width="2" stroke-linecap="round" stroke-linejoin="round" d="M41.996,574.938h491.947
	c10.872,0,21.3-4.318,28.988-12.007c7.688-7.688,12.007-18.115,12.007-28.988V41.996c0-10.873-4.319-21.3-12.007-28.988
	C555.242,5.319,544.814,1,533.942,1H41.996c-10.873,0-21.3,4.319-28.988,12.007C5.319,20.695,1,31.123,1,41.996v491.947
	c0,10.873,4.319,21.3,12.007,28.988C20.695,570.619,31.123,574.938,41.996,574.938z"/>
<polygon fill="#0000FF" stroke="#0000FF" stroke-width="0.1764" stroke-linecap="round" stroke-linejoin="round" points="
	37.076,538.862 538.862,538.862 538.862,538.862 538.862,37.076 538.862,37.076 37.076,37.076 37.076,37.076 "/>
<rect x="89.262" y="89.262" fill="#FFFFFF" stroke="#0000FF" stroke-width="0.1764" stroke-linecap="round" stroke-linejoin="round" width="397.414" height="397.414"/>
<polygon points="247.361,204.303 125.081,257.942 124.26,258.302 124.26,310.303 247.361,250.969 "/>
<polygon points="452.187,311.896 340.518,361.933 340.518,384.696 124.926,325.055 124.926,367.172 125.258,367.264 
	125.258,377.155 135.457,379.854 140.896,376.636 140.896,371.59 334.197,425.065 334.197,435.469 339.321,437.303 342.024,437.303 
	349.834,433.588 349.834,424.945 439.034,384.978 449.2,387.524 454.135,384.784 454.135,378.211 454.302,378.137 454.302,316.635 
	"/>
<path fill="none" stroke="#000000" stroke-width="2" d="M246.43,251.135c7.91,2.61,13.539,9.312,13.539,17.167
	c0,3.202-0.935,6.212-2.578,8.832l-118.647,58.265c3.434-3.268,5.532-7.634,5.532-12.43c0-9.832-8.817-17.856-19.89-18.313"/>
<line fill="none" stroke="#000000" stroke-width="2" x1="257.376" y1="277.133" x2="431.969" y2="324.969"/>
<line fill="none" stroke="#000000" stroke-width="2" x1="124.635" y1="257.969" x2="124.635" y2="377.303"/>
</svg>
