<?xml version="1.0" encoding="utf-8"?>
<!-- Generator: Adobe Illustrator 15.0.0, SVG Export Plug-In  -->
<!DOCTYPE svg PUBLIC "-//W3C//DTD SVG 1.1//EN" "http://www.w3.org/Graphics/SVG/1.1/DTD/svg11.dtd" [
	<!ENTITY ns_flows "http://ns.adobe.com/Flows/1.0/">
]>
<svg version="1.1"
	 xmlns="http://www.w3.org/2000/svg" xmlns:xlink="http://www.w3.org/1999/xlink" xmlns:a="http://ns.adobe.com/AdobeSVGViewerExtensions/3.0/"
	 x="0px" y="0px" width="576px" height="567px" viewBox="-0.031 -0.031 576 567" enable-background="new -0.031 -0.031 576 567"
	 xml:space="preserve">
<defs>
</defs>
<path fill="#FFFFFF" stroke="#000000" stroke-width="2" stroke-linecap="round" stroke-linejoin="round" d="M41.996,565.938h491.947
	c10.872,0,21.3-4.251,28.988-11.818c7.688-7.568,12.007-17.831,12.007-28.534V41.353c0-10.702-4.319-20.966-12.007-28.534
	C555.242,5.251,544.814,1,533.942,1H41.996c-10.873,0-21.3,4.251-28.988,11.819C5.319,20.387,1,30.651,1,41.353v484.232
	c0,10.703,4.319,20.966,12.007,28.534C20.695,561.687,31.123,565.938,41.996,565.938z"/>
<polygon fill="#0000FF" stroke="#0000FF" stroke-width="0.1764" stroke-linecap="round" stroke-linejoin="round" points="
	37.076,529.862 538.862,529.862 538.862,529.862 538.862,28.076 538.862,28.076 37.076,28.076 37.076,28.076 "/>
<rect x="89.262" y="80.262" fill="#FFFFFF" stroke="#0000FF" stroke-width="0.1764" stroke-linecap="round" stroke-linejoin="round" width="397.414" height="397.414"/>
<path stroke="#000000" stroke-linecap="round" stroke-linejoin="round" d="M209.219,421.719c-3.939-7.771-20.308-12.267-28.389-10.5
	c-6.735,1.473-10.774,6.515-16.045,9.122l-4.566,1.378c-11.827,2.802-15.747-7.978-26-10.25c-7.41-1.643-21.879,2.13-27,8.912
	v11.595c4.882-6.998,19.715-10.927,27.25-9.257c10.253,2.272,14.173,13.052,26,10.25l4.566-1.378
	c5.271-2.607,9.31-7.649,16.045-9.122c8.081-1.767,24.449,2.729,28.389,10.5L209.219,421.719z"/>
<polygon fill="none" points="328.136,207.469 324.969,208.136 323.636,209.302 323.969,211.802 334.643,226.456 350.427,213.7 
	331.302,207.636 "/>
<polygon fill="none" points="276.734,234.817 261.172,285.829 295.057,258.446 281.469,234.719 "/>
<path d="M457.376,152.821c-15.499-18.821-39.237-16.402-59.907-10.352l-2.5,1.25l1.75,1.25l4,1.25l3,1.75l2.5,3.5l1.5,3.5l0.5,4.5
	v3.75l-1.25,4.25l-1.5,1.75l-37.521,30.322c-19.556-7.096-45.239-18.589-63.661-11.275l-8.221-14.422
	c2.774-4.084,4.402-9.035,4.402-14.374c0-13.991-11.155-25.333-24.916-25.333c-13.762,0-24.917,11.342-24.917,25.333
	c0,13.992,11.156,25.333,24.917,25.333c0.125,0,0.249-0.008,0.374-0.01l5.248,11.771l-7.039,2.405l-6.833,3.333l-3.167,2.167
	l-1.674,1.675l-23.699,77.682l0.042,0.006c-1.04,4.005,0.129,8.348,3.399,11.103c1.439,1.212,3.113,1.973,4.857,2.3l-106.092,85.735
	l-3.25,0.75c-15.118,2.085-23.291-6.82-29.75-19.25v42.844c5.326-6.581,19.456-10.21,26.75-8.594
	c10.253,2.272,14.173,13.052,26,10.25l4.566-1.378c5.271-2.607,9.31-7.649,16.045-9.122c8.081-1.767,24.449,2.729,28.389,10.5
	l1.473,1.224l84.404-68.21l-0.064,47.777l0.047-0.002c0.188,4.253,2.855,8.429,7.258,10.594c6.195,3.046,13.456,0.963,16.22-4.654
	c0.924-1.88,1.216-3.914,0.978-5.905l0.164-0.001l0.072-52.773l16.505-28.313l3.955-3.196l37.009,75.513l0.042-0.021
	c2.046,3.731,6.281,6.302,11.188,6.302c6.903,0,12.5-5.074,12.5-11.334c0-2.094-0.637-4.048-1.729-5.73l0.147-0.072l-39.481-80.559
	l90.813-73.389l1.75-1.25C469.033,203.729,468.848,166.75,457.376,152.821z M261.172,285.829l15.563-51.012l4.734-0.099
	l13.588,23.728L261.172,285.829z M334.643,226.456l-10.674-14.653l-0.333-2.5l1.333-1.167l3.167-0.667l3.166,0.167l19.125,6.064
	L334.643,226.456z"/>
</svg>
