<?xml version="1.0" encoding="utf-8"?>
<!-- Generator: Adobe Illustrator 15.0.0, SVG Export Plug-In  -->
<!DOCTYPE svg PUBLIC "-//W3C//DTD SVG 1.1//EN" "http://www.w3.org/Graphics/SVG/1.1/DTD/svg11.dtd" [
	<!ENTITY ns_flows "http://ns.adobe.com/Flows/1.0/">
]>
<svg version="1.1"
	 xmlns="http://www.w3.org/2000/svg" xmlns:xlink="http://www.w3.org/1999/xlink" xmlns:a="http://ns.adobe.com/AdobeSVGViewerExtensions/3.0/"
	 x="0px" y="0px" width="576px" height="567px" viewBox="-0.031 -0.031 576 567" enable-background="new -0.031 -0.031 576 567"
	 xml:space="preserve">
<defs>
</defs>
<path fill="#FFFFFF" stroke="#000000" stroke-width="2" stroke-linecap="round" stroke-linejoin="round" d="M41.996,565.938h491.947
	c10.872,0,21.3-4.251,28.988-11.818c7.688-7.568,12.007-17.831,12.007-28.534V41.353c0-10.702-4.319-20.966-12.007-28.534
	C555.242,5.251,544.814,1,533.942,1H41.996c-10.873,0-21.3,4.251-28.988,11.819C5.319,20.387,1,30.651,1,41.353v484.232
	c0,10.703,4.319,20.966,12.007,28.534C20.695,561.687,31.123,565.938,41.996,565.938z"/>
<polygon fill="#0000FF" stroke="#0000FF" stroke-width="0.1764" stroke-linecap="round" stroke-linejoin="round" points="
	37.076,529.862 538.862,529.862 538.862,529.862 538.862,28.076 538.862,28.076 37.076,28.076 37.076,28.076 "/>
<rect x="89.262" y="80.262" fill="#FFFFFF" stroke="#0000FF" stroke-width="0.1764" stroke-linecap="round" stroke-linejoin="round" width="397.414" height="397.414"/>
<path d="M422.885,316.636h-61.108l-33.99-62l-20.817-37.973v-23.175l165.13-54.1l-3.736-11.403l-94.824,31.066l-5.19-7.909
	c4.328-3.295,7.121-8.411,7.121-14.173c0-9.941-8.283-18-18.5-18s-18.5,8.059-18.5,18c0,9.518,7.598,17.29,17.21,17.937l0.29,9.563
	l3.038-0.657l-30.324,9.935l-4.335-6.605c4.328-3.295,7.121-8.411,7.121-14.173c0-9.941-8.283-18-18.5-18s-18.5,8.059-18.5,18
	c0,9.518,7.598,17.29,17.21,17.937l0.253,8.33l-55.883,18.308l-4.201-6.401c4.328-3.295,7.121-8.411,7.121-14.173
	c0-9.941-8.283-18-18.5-18s-18.5,8.059-18.5,18c0,9.518,7.597,17.29,17.21,17.937l0.245,8.084l-26.598,8.714l-3.978-6.062
	c4.328-3.295,7.121-8.411,7.121-14.173c0-9.941-8.283-18-18.5-18s-18.5,8.059-18.5,18c0,9.518,7.597,17.29,17.21,17.937l0.233,7.676
	l-91.562,29.998l3.736,11.403l166.383-54.51v16.34l-18.817,34.324l-33.99,62h-61.775c-6.674,0-12.084,5.424-12.084,12.113v118.44
	c0,6.689,5.41,12.113,12.084,12.113h262.498c6.673,0,12.084-5.424,12.084-12.113v-118.44
	C434.969,322.06,429.558,316.636,422.885,316.636z M238.969,386.636h-77.333v-57.334h77.333V386.636z M327.636,386.636h-77.333
	v-57.334h77.333V386.636z M291.636,292.094H250.5l20.568-35.625l6.447-11.167h28.242l6.447,11.167l20.568,35.625H291.636z
	 M421.636,386.636h-77.333v-57.334h77.333V386.636z"/>
</svg>
