<?xml version="1.0" encoding="utf-8"?>
<!-- Generator: Adobe Illustrator 15.0.0, SVG Export Plug-In  -->
<!DOCTYPE svg PUBLIC "-//W3C//DTD SVG 1.1//EN" "http://www.w3.org/Graphics/SVG/1.1/DTD/svg11.dtd" [
	<!ENTITY ns_flows "http://ns.adobe.com/Flows/1.0/">
]>
<svg version="1.1"
	 xmlns="http://www.w3.org/2000/svg" xmlns:xlink="http://www.w3.org/1999/xlink" xmlns:a="http://ns.adobe.com/AdobeSVGViewerExtensions/3.0/"
	 x="0px" y="0px" width="576px" height="567px" viewBox="-0.031 -0.031 576 567" enable-background="new -0.031 -0.031 576 567"
	 xml:space="preserve">
<defs>
</defs>
<path fill="#FFFFFF" stroke="#000000" stroke-width="2" stroke-linecap="round" stroke-linejoin="round" d="M41.996,565.938h491.947
	c10.872,0,21.3-4.251,28.988-11.818c7.688-7.568,12.007-17.831,12.007-28.534V41.353c0-10.702-4.319-20.966-12.007-28.534
	C555.242,5.251,544.814,1,533.942,1H41.996c-10.873,0-21.3,4.251-28.988,11.819C5.319,20.387,1,30.651,1,41.353v484.232
	c0,10.703,4.319,20.966,12.007,28.534C20.695,561.687,31.123,565.938,41.996,565.938z"/>
<polygon fill="#0000FF" stroke="#0000FF" stroke-width="0.1764" stroke-linecap="round" stroke-linejoin="round" points="
	37.076,529.862 538.862,529.862 538.862,529.862 538.862,28.076 538.862,28.076 37.076,28.076 37.076,28.076 "/>
<rect x="89.262" y="80.262" fill="#FFFFFF" stroke="#0000FF" stroke-width="0.1764" stroke-linecap="round" stroke-linejoin="round" width="397.414" height="397.414"/>
<path d="M476.219,275.719l-0.25-5.25l-8.75-0.25c-0.815,16.42-9.463,29.354-22.399,38.551l-109.447,62.083l-8.153-5.634l-1.25-2.5
	l0.25-3l15.25-75l-0.75-4l-0.75-2.75l-2.5-2.5l-1.5-1.25l-1.5-1.25l-1.5-0.5l-2.25-0.5l-4.25,0.25l-48.5,2.675v-30.326
	l19.167,16.568l5,3l4.333-0.333l3.667-0.667l34.166-48.167l1.167-4.167l0.167-3.833l-3.334-5l-1.45-0.378l-2.766-4.876
	l-49.774,28.234c-3.113-3.382-6.695-7.287-10.343-11.268v-0.152l-0.986-1.06h-0.124c-5.639-6.157-11.325-12.379-15.557-17.013
	v-13.84c10.892-1.869,19.167-11.07,19.167-22.147c0-12.426-10.41-22.5-23.25-22.5s-23.25,10.074-23.25,22.5
	c0,7.883,4.193,14.815,10.535,18.833h-0.035v13.933l-14.5,11.901l-1.5,3.667l-0.519,4.667h-0.398v46.945l-13.25,7.516v-3.735l0,0
	V134.305l29.732-16.082l-0.22-0.407c10.096-4.399,18.98-8.874,30.155-10.097c-13.949-3.648-22.043-5.077-34.568,1.94l-0.009-0.017
	l-135.922,73.519v11.092l99.166-53.638v132.933l-40.46,22.951l-7.881-13.895l-6.088,3.454l7.881,13.894l-11.686,6.629l3.453,6.089
	l11.686-6.629l7.336,12.934l6.089-3.453l-7.337-12.935l37.006-20.991v6.54c-0.103,1.181-0.166,2.374-0.166,3.583
	c0,1.221,0.061,2.426,0.166,3.618v0.8h0.078c2.113,19.596,18.095,34.832,37.506,34.832c2.366,0,4.679-0.232,6.924-0.666h48.159
	v-9.334h-29.942c0.121-0.112,0.246-0.219,0.365-0.333h-20.521c-1.328,0.218-2.686,0.333-4.069,0.333
	c-13.558,0-24.793-10.848-26.833-25.026v-9.278c0-0.002,0-0.004,0-0.005v-11.682l13.25-7.516v25.257h0.191
	c0.258,9.983,8.142,18,17.851,18c0.297,0,0.591-0.012,0.884-0.026l-0.009,0.026l63.5-4.5l1-0.5l1.25,0.75l-15.5,65.25l10.373,15.176
	l-102.234,57.991l4.818,8.495l242.885-137.775l-0.19-0.336C466.106,306.021,475.373,292.744,476.219,275.719z M324.991,212.189
	l-20.189,23.113c0,0-2.166,1.5-2.666,1.667s-3.5-1.333-4-1.5c-0.103-0.034-2-2.053-4.95-5.238L324.991,212.189z"/>
</svg>
