<?xml version="1.0" encoding="utf-8"?>
<!-- Generator: Adobe Illustrator 16.0.2, SVG Export Plug-In . SVG Version: 6.00 Build 0)  -->
<!DOCTYPE svg PUBLIC "-//W3C//DTD SVG 1.1//EN" "http://www.w3.org/Graphics/SVG/1.1/DTD/svg11.dtd">
<svg version="1.1" id="Ebene_1" xmlns="http://www.w3.org/2000/svg" xmlns:xlink="http://www.w3.org/1999/xlink" x="0px" y="0px"
	 width="576px" height="576px" viewBox="0 0 576 576" style="enable-background:new 0 0 576 576;" xml:space="preserve">
<path style="fill:#FFFFFF;stroke:#000000;stroke-width:2;stroke-linecap:round;stroke-linejoin:round;" d="M41.996,574.938h491.947
	c10.872,0,21.3-4.318,28.987-12.007c7.688-7.688,12.007-18.115,12.007-28.988V41.996c0-10.873-4.318-21.301-12.007-28.988
	C555.242,5.319,544.814,1,533.942,1H41.996c-10.873,0-21.3,4.318-28.988,12.007C5.319,20.695,1,31.123,1,41.996v491.946
	c0,10.873,4.319,21.3,12.007,28.988C20.695,570.618,31.123,574.938,41.996,574.938z"/>
<polygon style="fill:#0000FF;stroke:#0000FF;stroke-width:0.1764;stroke-linecap:round;stroke-linejoin:round;" points="
	37.076,538.862 538.862,538.862 538.862,538.862 538.862,37.076 538.862,37.076 37.076,37.076 37.076,37.076 "/>
<rect x="89.262" y="89.262" style="fill:#FFFFFF;stroke:#0000FF;stroke-width:0.1764;stroke-linecap:round;stroke-linejoin:round;" width="397.414" height="397.414"/>
<g>
	<rect x="89.262" y="164.5" style="fill:none;" width="393.238" height="296"/>
	<path style="stroke:#000000;stroke-width:3;stroke-miterlimit:10;" d="M257.9,164.694v17.273h-39.023v20.625h28.591v17.531h-28.591
		l-0.064,39.059h-18.159l0.064-94.488H257.9z"/>
	<path style="stroke:#000000;stroke-width:3;stroke-miterlimit:10;" d="M283.274,164.694h24.277l18.996,50.08l19.447-50.08h24.213
		v94.617h-17.966v-59.748l-23.505,59.748h-4.7l-23.312-59.232l0.193,59.232h-17.645V164.694z"/>
	<path style="stroke:#000000;stroke-width:3;stroke-miterlimit:10;" d="M168.481,323.03v94.682h-17.966l0.064-66.838h-0.258
		c-0.128,0.559-1.674,1.783-4.636,3.674l-5.603,2.965l-5.022,1.934c-2.019,0.43-3.113,0.752-3.284,0.967v-19.98l3.992-1.869
		c6.654-4.254,11.44-9.432,14.36-15.533H168.481z"/>
	<path style="stroke:#000000;stroke-width:3;stroke-miterlimit:10;" d="M202.116,380.457c-0.129-2.406-0.193-4.77-0.193-7.09
		c0-1.16,0.021-2.32,0.064-3.48c0.129-4.554,0.493-8.98,1.095-13.277v-0.451l0.257-0.58l0.451-4.447l0.322-0.645l0.644-3.609
		l0.257-0.387c0.644-3.094,2.039-6.574,4.186-10.441l1.868-2.836l3.606-3.674c3.821-3.094,8.779-5.307,14.875-6.639
		c1.932-0.344,3.928-0.516,5.989-0.516h0.515c3.22,0.087,6.589,0.623,10.11,1.611c1.459,0.172,3.799,1.139,7.019,2.9
		c3.306,2.063,6.311,4.877,9.016,8.443l2.061,3.158l1.674,3.545l0.708,2.578l0.193,0.193v0.645c0.429,0.902,0.686,1.611,0.773,2.127
		l0.257,0.322l1.095,5.736l0.193,0.129l-0.129,0.838l0.258,0.516l0.644,6.896l0.258,0.645l-0.193,0.064l0.451,4.061l-0.128,0.129
		c0.171,0.43,0.171,0.688,0,0.773l0.193,0.645l-0.128,0.193l0.322,4.383l-0.129,0.129l0.193,1.869l-0.064,0.129v2.578
		c-0.043,1.59-0.172,3.503-0.386,5.736l-0.322,2.385l0.129,0.129l-0.322,0.645c-0.129,1.59-0.494,3.48-1.095,5.672l-0.387,1.225
		l-0.064,0.709l-1.674,4.77l-0.322,0.258c0,0.43-0.558,1.74-1.674,3.932l-3.091,4.447c-3.392,3.91-7.148,6.768-11.269,8.572
		c-2.705,1.074-5.432,1.782-8.178,2.127l-4.958,0.322l-1.159-0.064c-9.788-0.258-17.688-3.438-23.697-9.539
		c-2.962-3.309-5.195-7.154-6.697-11.537c-1.717-4.469-2.769-9.174-3.155-14.115L202.116,380.457z M234.184,399.922
		c2.662,0.172,4.314,0.129,4.958-0.129l0.064,0.129l3.542-0.773c2.833-0.944,5-2.986,6.504-6.123
		c1.159-3.136,2.017-6.874,2.576-11.215l0.322-14.566l-0.193-6.832l-0.644-5.092l-0.258-0.258l-0.837-3.609l-0.258-0.129
		c-0.644-2.578-1.867-4.963-3.67-7.154c-1.375-1.117-2.469-1.847-3.284-2.191l-3.735-0.902l-3.928-0.193
		c-1.761-0.042-3.714,0.322-5.86,1.096c-1.975,0.945-3.628,2.643-4.958,5.092c-0.945,2.278-1.803,5.135-2.576,8.572l0.129,0.387
		c-0.258,0.216-0.409,0.925-0.451,2.127c-0.602,5.027-0.667,12.397-0.193,22.107l1.03,7.025l1.352,4.963
		c0.987,2.578,2.339,4.447,4.057,5.607C229.419,398.849,231.522,399.535,234.184,399.922z"/>
	<path style="stroke:#000000;stroke-width:3;stroke-miterlimit:10;" d="M348.763,322.965v19.852
		c-9.316,9.195-17.216,22.494-23.697,39.896c-3.992,12.504-5.839,24.17-5.538,34.998H300.08
		c-0.086-25.266,8.393-50.424,25.437-75.475h-36.126v-19.271H348.763z"/>
	<path style="stroke:#000000;stroke-width:3;stroke-miterlimit:10;" d="M349.04,398.246h19.318v19.465H349.04V398.246z"/>
	<path style="stroke:#000000;stroke-width:3;stroke-miterlimit:10;" d="M451.255,322.965v19.852
		c-9.316,9.195-17.216,22.494-23.697,39.896c-3.993,12.504-5.839,24.17-5.538,34.998h-19.447
		c-0.087-25.266,8.393-50.424,25.436-75.475h-36.125v-19.271H451.255z"/>
</g>
</svg>
