<?xml version="1.0" encoding="utf-8"?>
<!-- Generator: Adobe Illustrator 15.0.0, SVG Export Plug-In  -->
<!DOCTYPE svg PUBLIC "-//W3C//DTD SVG 1.1//EN" "http://www.w3.org/Graphics/SVG/1.1/DTD/svg11.dtd" [
	<!ENTITY ns_flows "http://ns.adobe.com/Flows/1.0/">
]>
<svg version="1.1"
	 xmlns="http://www.w3.org/2000/svg" xmlns:xlink="http://www.w3.org/1999/xlink" xmlns:a="http://ns.adobe.com/AdobeSVGViewerExtensions/3.0/"
	 x="0px" y="0px" width="576px" height="567px" viewBox="-0.031 -0.031 576 567" enable-background="new -0.031 -0.031 576 567"
	 xml:space="preserve">
<defs>
</defs>
<path fill="#FFFFFF" stroke="#000000" stroke-width="2" stroke-linecap="round" stroke-linejoin="round" d="M41.996,565.938h491.947
	c10.872,0,21.3-4.251,28.988-11.818c7.688-7.568,12.007-17.831,12.007-28.534V41.353c0-10.702-4.319-20.966-12.007-28.534
	C555.242,5.251,544.814,1,533.942,1H41.996c-10.873,0-21.3,4.251-28.988,11.819C5.319,20.387,1,30.651,1,41.353v484.232
	c0,10.703,4.319,20.966,12.007,28.534C20.695,561.687,31.123,565.938,41.996,565.938z"/>
<polygon fill="#0000FF" stroke="#0000FF" stroke-width="0.1764" stroke-linecap="round" stroke-linejoin="round" points="
	37.076,529.862 538.862,529.862 538.862,529.862 538.862,28.076 538.862,28.076 37.076,28.076 37.076,28.076 "/>
<rect x="89.262" y="80.262" fill="#FFFFFF" stroke="#0000FF" stroke-width="0.1764" stroke-linecap="round" stroke-linejoin="round" width="397.414" height="397.414"/>
<path d="M454.719,339.219c0,0-8.5-25.5-12.25-36.75s-14.5-30.5-14.5-30.5l-12.75-16.25l-35.581,19.606l-0.046-0.103l-1.888,0.967
	l-47.542,24.359l0.016,0.035c-1.03,0.496-1.998,1.158-2.848,2.013c-4.091,4.111-4,10.832,0.202,15.012
	c3.122,3.106,7.634,3.93,11.426,2.465l0.055,0.119l47.831-24.508l14.625,25.535L454.719,339.219z"/>
<ellipse cx="390.844" cy="236.344" rx="21.875" ry="22.625"/>
<ellipse cx="249.844" cy="195.844" rx="21.875" ry="22.625"/>
<path d="M258.101,278.74l0.118-0.056l-26.339-48.898l-18.661-38.067l-18.5,6.25c0,0-19.5,10.25-25.25,13.5s-17,10.75-21.75,13.75
	s-14.75,8.75-14.75,8.75l53.25,19.75l27.22-12.796l25.324,47.014l0.035-0.017c0.516,1.02,1.199,1.973,2.07,2.805
	c4.195,4.006,10.912,3.776,15.004-0.511C258.913,287.028,259.645,282.501,258.101,278.74z"/>
<path d="M439.219,359.719l13.75-12.5l-91.75-29.5l-3,0.75l-2.25,3.75l-0.944,8.264l-0.832,2.36l-130.874-43.194l1.678-4.761
	l-0.32-0.113l0.293-0.806l-0.25-3.25l-1-2.5l-1-3.25l-93-35.25l-1.25,0.5l0.5,14.25l3.454,5.18l-7.426-2.451l-3.993,12.098
	l76.121,25.124l-12.545,35.601l0.039,0.014c-0.414,1.077-0.649,2.229-0.649,3.435c0,5.8,5.205,10.5,11.625,10.5
	c4.771,0,8.866-2.598,10.658-6.312l0.133,0.047l12.699-36.037l130.874,43.194l-10.628,30.159l0.039,0.014
	c-0.413,1.077-0.649,2.229-0.649,3.435c0,5.8,5.205,10.5,11.625,10.5c4.771,0,8.866-2.598,10.658-6.312l0.133,0.047l10.781-30.596
	l71.114,23.471l1.257-3.809l3.182-8.552L439.219,359.719z"/>
<polygon points="278.094,388.469 314.77,388.469 296.432,361.594 278.094,334.719 259.756,361.594 241.417,388.469 "/>
</svg>
