<?xml version="1.0" encoding="utf-8"?>
<!-- Generator: Adobe Illustrator 15.0.0, SVG Export Plug-In  -->
<!DOCTYPE svg PUBLIC "-//W3C//DTD SVG 1.1//EN" "http://www.w3.org/Graphics/SVG/1.1/DTD/svg11.dtd" [
	<!ENTITY ns_flows "http://ns.adobe.com/Flows/1.0/">
]>
<svg version="1.1"
	 xmlns="http://www.w3.org/2000/svg" xmlns:xlink="http://www.w3.org/1999/xlink" xmlns:a="http://ns.adobe.com/AdobeSVGViewerExtensions/3.0/"
	 x="0px" y="0px" width="576px" height="567px" viewBox="-0.031 -0.031 576 567" enable-background="new -0.031 -0.031 576 567"
	 xml:space="preserve">
<defs>
</defs>
<path fill="#FFFFFF" stroke="#000000" stroke-width="2" stroke-linecap="round" stroke-linejoin="round" d="M41.996,565.938h491.947
	c10.872,0,21.3-4.251,28.988-11.818c7.688-7.568,12.007-17.831,12.007-28.534V41.353c0-10.702-4.319-20.966-12.007-28.534
	C555.242,5.251,544.814,1,533.942,1H41.996c-10.873,0-21.3,4.251-28.988,11.819C5.319,20.387,1,30.651,1,41.353v484.232
	c0,10.703,4.319,20.966,12.007,28.534C20.695,561.687,31.123,565.938,41.996,565.938z"/>
<polygon fill="#0000FF" stroke="#0000FF" stroke-width="0.1764" stroke-linecap="round" stroke-linejoin="round" points="
	37.076,529.862 538.862,529.862 538.862,529.862 538.862,28.076 538.862,28.076 37.076,28.076 37.076,28.076 "/>
<rect x="89.262" y="80.262" fill="#FFFFFF" stroke="#0000FF" stroke-width="0.1764" stroke-linecap="round" stroke-linejoin="round" width="397.414" height="397.414"/>
<path d="M451.636,264.813v-85.511v-24v-1.333h-0.088c-0.749-5.999-6.477-10.667-13.436-10.667H156.495l-21.526,32.667l11.054,15.333
	h110.279v121.333h73.566c2.046,17.999,17.724,32,36.769,32c19.043,0,34.721-14.001,36.767-32h34.848L451.636,264.813z"/>
<path d="M174.662,200.636l-40.72,58.064l-0.639,0.911v0.337l-18.334,25.521l18.334,26.834h21.164
	c1.73,18.318,17.558,32.666,36.836,32.666c19.278,0,35.105-14.348,36.835-32.666h19.164V200.636H174.662z"/>
<ellipse fill="#FFFFFF" cx="192.302" cy="303.802" rx="21" ry="22.167"/>
<ellipse fill="#FFFFFF" cx="284.76" cy="278.093" rx="19.708" ry="20.125"/>
<path fill="#FFFFFF" d="M344.864,299.969c-0.363,1.633-0.562,3.333-0.562,5.083c0,12.243,9.401,22.167,21,22.167
	c11.598,0,21-9.924,21-22.167c0-1.75-0.198-3.45-0.562-5.083H344.864z"/>
<polygon fill="#FFFFFF" points="179.588,209.719 152.078,248.969 236.469,248.969 236.469,209.719 "/>
<rect x="317.469" y="182.719" fill="#FFFFFF" width="109.75" height="53.5"/>
<path stroke="#000000" stroke-linecap="round" stroke-linejoin="round" d="M325.03,368.598c-2.967-5.363-15.293-8.467-21.378-7.248
	c-5.071,1.018-8.114,4.496-12.083,6.296l-3.438,0.952c-8.906,1.933-11.858-5.507-19.58-7.075c-5.58-1.133-16.477,1.471-20.333,6.151
	v8.002c3.677-4.83,14.846-7.541,20.521-6.389c7.722,1.568,10.673,9.008,19.579,7.074l3.439-0.951
	c3.969-1.799,7.012-5.278,12.083-6.296c6.085-1.219,18.411,1.885,21.378,7.247L325.03,368.598z"/>
<path stroke="#000000" stroke-linecap="round" stroke-linejoin="round" d="M324.53,388.348c-2.967-5.363-15.293-8.467-21.378-7.248
	c-5.071,1.018-8.114,4.496-12.083,6.296l-3.438,0.952c-8.906,1.933-11.858-5.507-19.58-7.075c-5.58-1.133-16.477,1.471-20.333,6.151
	v8.002c3.677-4.83,14.846-7.541,20.521-6.389c7.722,1.568,10.673,9.008,19.579,7.074l3.439-0.951
	c3.969-1.799,7.012-5.278,12.083-6.296c6.085-1.219,18.411,1.885,21.378,7.247L324.53,388.348z"/>
<polygon points="433.219,349.219 338.219,349.219 338.219,349.22 338.219,359.469 338.219,409.386 236.219,409.386 236.219,359.469 
	236.219,349.302 236.219,349.219 141.219,349.219 141.219,359.469 225.719,359.469 225.719,419.469 225.885,419.469 
	225.885,419.636 348.718,419.636 348.718,419.387 348.719,419.387 348.719,359.469 433.219,359.469 "/>
<polygon points="286.303,319.47 316.104,319.47 301.203,339.969 286.303,360.47 271.402,339.969 256.501,319.47 "/>
</svg>
