<?xml version="1.0" encoding="utf-8"?>
<!-- Generator: Adobe Illustrator 15.0.0, SVG Export Plug-In  -->
<!DOCTYPE svg PUBLIC "-//W3C//DTD SVG 1.1//EN" "http://www.w3.org/Graphics/SVG/1.1/DTD/svg11.dtd" [
	<!ENTITY ns_flows "http://ns.adobe.com/Flows/1.0/">
]>
<svg version="1.1"
	 xmlns="http://www.w3.org/2000/svg" xmlns:xlink="http://www.w3.org/1999/xlink" xmlns:a="http://ns.adobe.com/AdobeSVGViewerExtensions/3.0/"
	 x="0px" y="0px" width="576px" height="567px" viewBox="-0.031 -0.031 576 567" enable-background="new -0.031 -0.031 576 567"
	 xml:space="preserve">
<defs>
</defs>
<path fill="#FFFFFF" stroke="#000000" stroke-width="2" stroke-linecap="round" stroke-linejoin="round" d="M41.996,565.938h491.947
	c10.872,0,21.3-4.251,28.988-11.818c7.688-7.568,12.007-17.831,12.007-28.534V41.353c0-10.702-4.319-20.966-12.007-28.534
	C555.242,5.251,544.814,1,533.942,1H41.996c-10.873,0-21.3,4.251-28.988,11.819C5.319,20.387,1,30.651,1,41.353v484.232
	c0,10.703,4.319,20.966,12.007,28.534C20.695,561.687,31.123,565.938,41.996,565.938z"/>
<polygon fill="#0000FF" stroke="#0000FF" stroke-width="0.1764" stroke-linecap="round" stroke-linejoin="round" points="
	37.076,529.862 538.862,529.862 538.862,529.862 538.862,28.076 538.862,28.076 37.076,28.076 37.076,28.076 "/>
<rect x="89.262" y="80.262" fill="#FFFFFF" stroke="#0000FF" stroke-width="0.1764" stroke-linecap="round" stroke-linejoin="round" width="397.414" height="397.414"/>
<path d="M401.719,239.969c0,6.627-5.373,12-12,12h-207.25c-6.627,0-12-5.373-12-12v-120c0-6.627,5.373-12,12-12h207.25
	c6.627,0,12,5.373,12,12V239.969z"/>
<path fill="none" stroke="#999999" stroke-width="3" stroke-linecap="round" stroke-linejoin="round" d="M382.869,402.401
	c-31.495,9.544-63.165,20.043-96.358,24.06c-34.024,4.118-72.251,5.78-106.592,6.613l-9.45-83.105
	c32.7,3.729,66.852,8.587,99.845,4.878c35.899-4.034,68.857-12.554,101.732-25.772c0,0,0.451,8.673,0.902,17.346
	c0.45,8.674,3.157,20.501,5.861,34.299C381.516,394.518,382.869,402.401,382.869,402.401z"/>
<path fill="none" stroke="#000000" stroke-width="3" stroke-linecap="round" stroke-linejoin="round" d="M188.219,343.719
	l2.014-25.25c0,0,18.125,7.521,45.314,12.894c27.188,5.372,60.922,11.819,60.922,11.819"/>
<path fill="none" stroke="#000000" stroke-width="3" stroke-linecap="round" stroke-linejoin="round" d="M387.469,356.969l25,3
	c0,0-5,13-8,30s-7.5,31-9,48.5s-1,19.5-1,19.5s-43-10-65-13s-43-5.5-43-5.5"/>
<path d="M246.59,411.874c1.379,1.095,3.379,3.095,2.379,5.095c-3,5-9,8-13.821,7.324c-2.251,0.271-4.539,0.319-6.845,0.266
	c-6.917-0.159-13.999-1.229-20.664,0.133c-2.611,0.222-5.17,0.61-7.67,1.277c0.333-2.667,0.974-5.139,1.856-7.468
	c2.072-7.767,8.357-13.399,13.75-19.216c1.798-1.938,3.496-3.898,4.906-5.963c2.487-5.354,4.487-9.354,3.487-14.354
	c0-2-1.75-3.5-4-4.125s-5-0.375-7,1.125c-4,4-10,16-15,7c-4-6,4-12,10-16c5-2.5,10.75-3.25,15.875-2.25
	c2.563,0.5,4.97,1.438,7.054,2.814c17.071,11.436,3.071,30.436-7.196,40.412c-1.761,2.023-3.4,4.023-4.733,6.023
	c4,0,7.75-0.5,11.52-0.983c3.77-0.484,7.589-0.943,11.662-0.881C244.803,411.96,246.59,411.874,246.59,411.874z"/>
<path d="M272.821,363.189c10.147-1.221,18.147,3.779,22.147,12.779c5,12,8,27-1,38c-10,13-32,7-38-8c-5-13-11-36,7.519-40.835
	C266.233,364.093,269.354,363.451,272.821,363.189z M273.631,371.803c-6.662,2.166-9.662,10.166-8.662,16.166c2,10,8,29,17,22
	c10-8,6-26-3.914-37.347C276.727,371.933,275.254,371.661,273.631,371.803z"/>
<path d="M373.303,383.969c-4.881,14.271-20.989,14.112-28.809,4.832c1.62-0.607,3.311-1.175,5.142-1.498c5.667-1,15.667-6,15.667-6
	l-0.667-6.334c0,0-4.667,2.667-13.333,5.667c-7.333,2.539-5.361,2.213-9.832,3.063c-0.567-1.459-0.969-3.037-1.168-4.729
	c1.697-0.435,3.528-0.993,5.666-1.668c6.333-2,19-8.667,19-8.667l0.334-8c0,0-9.667,4.333-19,8c-1.691,0.665-3.597,1.271-5.58,1.824
	c2.637-11.919,13.693-20.44,26.58-15.491l-0.667-12.666c-14.558,3.449-30.19,6.223-35.493,23.879
	c-0.71,2.363-1.226,4.618-1.575,6.772c-3.446,0.62-6.382,1.035-7.989,1.227c-0.686,0.081-1.132,0.122-1.275,0.122l1.333,4.333
	c0,0,2.944,0.801,7.389,1.207c0.023,1.998,0.214,3.881,0.563,5.642c-3.543,0.271-5.619,0.151-5.619,0.151l0.667,5.333
	c0,0,3.054,0.001,6.772,0.16c6.689,14.419,26.252,17.245,43.561,6.489L373.303,383.969z"/>
<path fill="none" stroke="#999999" stroke-width="3" stroke-linecap="round" stroke-linejoin="round" d="M194.969,345.219l2.75-17
	c0,0,20,6.5,34,9.25s43.75,9,43.75,9"/>
<path fill="none" stroke="#999999" stroke-width="3" stroke-linecap="round" stroke-linejoin="round" d="M312.219,433.969
	c0,0,19.5,2.25,39.75,6s34.75,8.75,34.75,8.75s-0.25-11.25,4-28s6.25-32,9.25-41.75s4.75-12.25,4.75-12.25l-15.75-1"/>
<path fill="none" stroke="#000000" stroke-width="3" stroke-linecap="round" stroke-linejoin="round" d="M394.969,407.469
	c-34.92,12.105-70.034,25.42-106.837,30.516c-37.726,5.224-76.087,5.427-114.163,6.484l-14.5-103.5
	c36.256,4.729,74.123,10.892,110.704,6.188c39.804-5.118,76.346-15.922,112.796-32.688c0,0,0.5,11,1,22s3.5,26,6.5,43.5
	S394.969,407.469,394.969,407.469z"/>
<path fill="#FFFFFF" d="M283.969,180.469h-43v-8h43v-7.816c0.237-1.025,0.375-2.087,0.375-3.184c0-7.619-6.037-13.823-13.625-14.212
	v-0.288h-62v0.019c-7.765,0.199-14,6.487-14,14.231c0,0.892,0.092,1.762,0.25,2.609v30.532c-0.158,0.847-0.25,1.717-0.25,2.609
	c0,7.745,6.235,14.032,14,14.231v0.019h62v-0.288c7.588-0.389,13.625-6.593,13.625-14.212c0-1.097-0.138-2.159-0.375-3.184V180.469z
	"/>
<path fill="#FFFFFF" d="M377.969,159.594c0-7.123-5.676-12.906-12.75-13.106v-0.019h-74.5v26.25h74.5V172.7
	C372.293,172.5,377.969,166.717,377.969,159.594z"/>
<path fill="#FFFFFF" d="M377.469,196.344c0-8.073-5.676-14.626-12.75-14.854v-0.021h-74.5v29.75h74.5v-0.021
	C371.793,210.97,377.469,204.417,377.469,196.344z"/>
<polygon points="284.844,269.469 320.77,269.469 302.807,289.344 284.844,309.219 266.881,289.344 248.917,269.469 "/>
</svg>
