<?xml version="1.0" encoding="utf-8"?>
<!-- Generator: Adobe Illustrator 15.0.0, SVG Export Plug-In  -->
<!DOCTYPE svg PUBLIC "-//W3C//DTD SVG 1.1//EN" "http://www.w3.org/Graphics/SVG/1.1/DTD/svg11.dtd" [
	<!ENTITY ns_flows "http://ns.adobe.com/Flows/1.0/">
]>
<svg version="1.1"
	 xmlns="http://www.w3.org/2000/svg" xmlns:xlink="http://www.w3.org/1999/xlink" xmlns:a="http://ns.adobe.com/AdobeSVGViewerExtensions/3.0/"
	 x="0px" y="0px" width="576px" height="567px" viewBox="-0.031 -0.031 576 567" enable-background="new -0.031 -0.031 576 567"
	 xml:space="preserve">
<defs>
</defs>
<path fill="#FFFFFF" stroke="#000000" stroke-width="2" stroke-linecap="round" stroke-linejoin="round" d="M41.996,565.938h491.947
	c10.872,0,21.3-4.251,28.988-11.818c7.688-7.568,12.007-17.831,12.007-28.534V41.353c0-10.702-4.319-20.966-12.007-28.534
	C555.242,5.251,544.814,1,533.942,1H41.996c-10.873,0-21.3,4.251-28.988,11.819C5.319,20.387,1,30.651,1,41.353v484.232
	c0,10.703,4.319,20.966,12.007,28.534C20.695,561.687,31.123,565.938,41.996,565.938z"/>
<polygon fill="#0000FF" stroke="#0000FF" stroke-width="0.1764" stroke-linecap="round" stroke-linejoin="round" points="
	37.076,529.862 538.862,529.862 538.862,529.862 538.862,28.076 538.862,28.076 37.076,28.076 37.076,28.076 "/>
<rect x="89.262" y="80.262" fill="#FFFFFF" stroke="#0000FF" stroke-width="0.1764" stroke-linecap="round" stroke-linejoin="round" width="397.414" height="397.414"/>
<path d="M415.636,276.636c0,77.427-25.996,141.547-59.923,152.875l26.151-0.812c30.124-16.72,52.438-77.111,52.438-149.063
	c0-84.868-31.042-153.667-69.332-153.667c-1.203,0-2.399,0.068-3.588,0.203C392.493,142.369,415.636,203.583,415.636,276.636z"/>
<path d="M358.222,127.777l-36.508-1.711c32.86,12.114,57.922,75.653,57.922,152.236c0,72.244-22.301,132.884-52.412,149.696
	c3.608,1.29,7.309,1.971,11.08,1.971c38.29,0,69.332-69.097,69.332-154.333C407.636,205.813,386.803,146.83,358.222,127.777z"/>
<path d="M389.97,128.636c-0.045,0-0.089,0.003-0.134,0.003c31.497,14.651,55.132,75.938,55.132,149.329
	c0,71.167-22.221,130.958-52.286,147.877c37.216-3.041,66.953-68.375,66.953-148.544
	C459.635,195.196,428.443,128.636,389.97,128.636z"/>
<path d="M306.303,132.635c-34.241,0-62,64.173-62,143.333c0,14.714,0.96,28.907,2.742,42.27c-5.916,3.962-11.076,10.73-11.076,10.73
	s-22,45.5-25.5,50.5s-7.5,5.5-7.5,5.5l-8.5,2.5l-6.5-1.5l-3.5-2.5l-4-5l-2-5.5v-21h-13.631c-0.382,6.315-1.288,25.911,1.631,33
	c3.5,8.5,10,12.5,13.5,15c3.444,2.46,13.67,3.946,24.954,3.04l10.503-4.621c0.474-0.959,0.93-1.964,2.043-2.919
	c3.5-3,5.5-6.5,5.5-6.5s21-43,25.5-51c0.521-0.927,0.992-1.715,1.433-2.409c9.784,49.413,31.358,83.743,56.401,83.743
	c34.24,0,62-64.172,62-143.334C368.303,196.808,340.543,132.635,306.303,132.635z M317.969,336.469l-12,19l12.124,9.969
	c-3.792,3.361-7.873,5.197-12.125,5.197c-13.066,0-24.521-17.281-30.923-43.214c0.142,0.016,0.281,0.035,0.424,0.048
	c5.5,0.5,10.5,6.5,10.5,6.5l13.5,10l9-8.5c0,0-4-6.5-10.5-11.5s-11.5-7.5-21-10.5c-1.666-0.525-3.298-0.858-4.902-1.051
	c-1.569-10.172-2.432-21.225-2.432-32.783c0-50.257,16.268-91,36.333-91c20.067,0,36.334,40.742,36.334,91
	c0,26.158-4.408,49.733-11.463,66.333L317.969,336.469z"/>
<ellipse fill="none" cx="172.219" cy="206.719" rx="50.4" ry="51.2"/>
<path d="M235.219,206.719c0-35.346-28.206-64-63-64s-63,28.654-63,64c0,26.321,15.646,48.921,38,58.751v71.249h51v-71.708
	C220.036,254.952,235.219,232.644,235.219,206.719z M172.219,257.919c-27.835,0-50.4-22.923-50.4-51.2s22.565-51.2,50.4-51.2
	s50.4,22.923,50.4,51.2S200.054,257.919,172.219,257.919z"/>
<path d="M181.444,204.692l0.025-0.223l-0.464-0.464c-0.57-0.803-1.282-1.521-2.116-2.116l-0.42-0.42l-28-32l-3.5,2l-1,3l1,3.5
	l16.012,30.293c-0.002,0.069-0.012,0.137-0.012,0.207c0,4.695,4.365,8.5,9.75,8.5s9.75-3.805,9.75-8.5
	C182.469,207.11,182.094,205.831,181.444,204.692z"/>
<path fill="#FFFFFF" d="M273.891,312.82c-4.135-0.645-9.194-0.492-14.505,0.612c-5.456,1.136-10.266,3.089-13.832,5.411
	l-1.132-9.532c3.36-2.333,7.956-4.276,13.195-5.367c5.197-1.082,10.148-1.142,14.143-0.362"/>
<path fill="#FFFFFF" d="M278.451,330.752c-1.662-4.651-9.76-6.007-18.09-3.03c-8.329,2.974-13.735,9.156-12.073,13.807
	c0.096,0.268,0.213,0.524,0.35,0.771l2.983,8.063c-1.662-4.65,3.744-10.833,12.073-13.807c8.33-2.977,16.428-1.621,18.09,3.03
	c0.036,0.1,0.068,0.2,0.097,0.302"/>
</svg>
