<?xml version="1.0" encoding="utf-8"?>
<!-- Generator: Adobe Illustrator 15.0.0, SVG Export Plug-In  -->
<!DOCTYPE svg PUBLIC "-//W3C//DTD SVG 1.1//EN" "http://www.w3.org/Graphics/SVG/1.1/DTD/svg11.dtd" [
	<!ENTITY ns_flows "http://ns.adobe.com/Flows/1.0/">
]>
<svg version="1.1"
	 xmlns="http://www.w3.org/2000/svg" xmlns:xlink="http://www.w3.org/1999/xlink" xmlns:a="http://ns.adobe.com/AdobeSVGViewerExtensions/3.0/"
	 x="0px" y="0px" width="576px" height="567px" viewBox="-0.031 -0.031 576 567" enable-background="new -0.031 -0.031 576 567"
	 xml:space="preserve">
<defs>
</defs>
<path fill="#FFFFFF" stroke="#000000" stroke-width="2" stroke-linecap="round" stroke-linejoin="round" d="M41.996,565.938h491.947
	c10.872,0,21.3-4.251,28.988-11.818c7.688-7.568,12.007-17.831,12.007-28.534V41.353c0-10.702-4.319-20.966-12.007-28.534
	C555.242,5.251,544.814,1,533.942,1H41.996c-10.873,0-21.3,4.251-28.988,11.819C5.319,20.387,1,30.651,1,41.353v484.232
	c0,10.703,4.319,20.966,12.007,28.534C20.695,561.687,31.123,565.938,41.996,565.938z"/>
<polygon fill="#0000FF" stroke="#0000FF" stroke-width="0.1764" stroke-linecap="round" stroke-linejoin="round" points="
	37.076,529.862 538.862,529.862 538.862,529.862 538.862,28.076 538.862,28.076 37.076,28.076 37.076,28.076 "/>
<rect x="89.262" y="80.262" fill="#FFFFFF" stroke="#0000FF" stroke-width="0.1764" stroke-linecap="round" stroke-linejoin="round" width="397.414" height="397.414"/>
<path d="M357.219,345.969l-1.75-3l-17.25-43.25l0.319-0.528l2.834-11.337l-59.653-19.885l-30.5,84.5l0.341,0.24l-55.042,24.133
	l0,0.001c-7.587,3.326-11.011,12.241-7.647,19.912c3.364,7.672,12.24,11.194,19.828,7.868l0.134,0.306l72.657-31.855l1.479-2.354
	l21.25-44.75l21.268,33.834l-20.157,68.347h0.001c-2.345,7.946,2.269,16.309,10.303,18.677c8.035,2.37,16.447-2.149,18.791-10.096
	l0.319,0.095l22.442-76.094l1.533-5.513l-0.75-4.5L357.219,345.969z"/>
<circle cx="355.094" cy="140.844" r="29.375"/>
<path d="M356.346,252.146l0.103-0.315l-61.454-20.142l4.725-5.47l54,17.75l12-33.75l-0.158-0.098
	c0.914-2.772,1.408-5.72,1.408-8.777c0-16.223-13.878-29.375-31-29.375c-8.5,0-16.197,3.244-21.798,8.493l-50.452,40.507
	l0.017,0.006c-5.002,3.567-8.267,9.337-8.267,15.869c0,9.277,6.568,17.032,15.385,19.079l9.636,3.158l62.102,20.351l4.343,1.424
	v-0.001c8.25,2.706,17.042-1.53,19.638-9.458C369.172,263.467,364.592,254.849,356.346,252.146z"/>
</svg>
