<?xml version="1.0" encoding="utf-8"?>
<!-- Generator: Adobe Illustrator 16.0.2, SVG Export Plug-In . SVG Version: 6.00 Build 0)  -->
<!DOCTYPE svg PUBLIC "-//W3C//DTD SVG 1.1//EN" "http://www.w3.org/Graphics/SVG/1.1/DTD/svg11.dtd">
<svg version="1.1" id="Ebene_1" xmlns="http://www.w3.org/2000/svg" xmlns:xlink="http://www.w3.org/1999/xlink" x="0px" y="0px"
	 width="576px" height="576px" viewBox="0 0 576 576" style="enable-background:new 0 0 576 576;" xml:space="preserve">
<path style="fill:#FFFFFF;stroke:#000000;stroke-linecap:round;stroke-linejoin:round;" d="M41.496,574.438h491.947
	c10.872,0,21.3-4.318,28.987-12.007c7.688-7.688,12.007-18.115,12.007-28.988V41.496c0-10.873-4.318-21.301-12.007-28.988
	C554.742,4.819,544.314,0.5,533.442,0.5H41.496c-10.873,0-21.3,4.318-28.988,12.007C4.819,20.195,0.5,30.623,0.5,41.496v491.946
	c0,10.873,4.319,21.3,12.007,28.988C20.195,570.118,30.623,574.438,41.496,574.438z"/>
<polygon style="fill:#0000FF;stroke:#0000FF;stroke-width:0.1764;stroke-linecap:round;stroke-linejoin:round;" points="
	36.576,538.362 538.362,538.362 538.362,538.362 538.362,36.576 538.362,36.576 36.576,36.576 36.576,36.576 "/>
<rect x="88.762" y="88.762" style="fill:#FFFFFF;stroke:#0000FF;stroke-width:0.1764;stroke-linecap:round;stroke-linejoin:round;" width="397.414" height="397.414"/>
<path d="M436.372,337.515c-11.234-29.336-27.884-61.988-49.363-85.297c-22.692-24.624-46.35-52.666-74.036-71.862
	c-6.479-4.493-12.961-8.985-19.439-13.479l-45.336-28.41c-9.466-3.878-19.525-6.988-28.373-10.665
	c-14.406-5.987-27.19-8.618-42.384-4.277c-14.091,4.026-24.51,22.277-32.971,32.944l-2.667,6l-0.667,10.667l2.667,9.333l6.667,8.667
	l27.333,17.333l36,20l8.667,4l8,2l6-2l4-2l28.297-27.093l19.929,22.085c0.875,1.199,1.794,2.365,2.771,3.485
	c8.544,9.811,16.339,18.99,26.47,27.096c18.604,14.882,34.366,31.744,53.866,45.761c-9.745,9.312-19.489,18.624-29.235,27.936
	c-2.512,2.401-8.603,5.79-7.752,9.62c0.889,3.994,0.531,11.021,2.651,14.285c7.944,12.222,15.888,24.443,23.831,36.664
	c5.901,9.079,11.43,21.853,19.172,29.495c10.344,10.211,22.23,8.478,33.086,1.454c7.47-4.833,21.267-10.671,26.066-18.218
	C454.004,380.433,445.195,360.553,436.372,337.515z"/>
<g>
	<rect x="116.266" y="377.183" style="fill:none;" width="233" height="125"/>
	<path style="stroke:#000000;stroke-width:3;stroke-miterlimit:10;" d="M118.75,432.12v-0.094c0-0.344,0.359-0.578,1.078-0.703
		c5.531-1.781,9.125-3.063,10.781-3.844c0.844,1.156,1.953,2.203,3.328,3.141c2.219,1.313,4.594,2.109,7.125,2.391
		c2.688,0.063,4.359,0,5.016-0.188c3.094-0.875,5-1.766,5.719-2.672c0.719-0.625,1.343-2.141,1.875-4.547
		c0.125-0.938,0-1.984-0.375-3.141c-0.469-0.781-0.969-1.438-1.5-1.969l-1.594-1.219l-1.781-0.797
		c-9.907-3.094-15.359-4.906-16.359-5.438c-4.594-1.844-8.016-4.891-10.266-9.141c-1.469-2.844-2.125-6.297-1.969-10.359
		c0.593-5.063,2.672-9.078,6.234-12.047c4-2.906,8.172-4.484,12.516-4.734h1.219c3.094,0,5.656,0.234,7.688,0.703
		c4.125,1.156,7.343,2.766,9.656,4.828c2.313,1.906,4.219,4.5,5.719,7.781l-0.141,0.516l-9.656,4.641l-0.469-0.234
		c-0.594-1.906-2.266-3.453-5.016-4.641c-3.094-1.156-6.719-1.188-10.875-0.094c-1.781,0.594-3.031,1.359-3.75,2.297
		c-0.25,0.25-0.579,1.031-0.984,2.344c-0.063,1.531,0,2.422,0.188,2.672c0.406,1.063,1.219,2.016,2.438,2.859l1.219,0.516
		c8.875,2.625,14.89,4.531,18.047,5.719c2.719,1.25,4.797,2.625,6.234,4.125l2.625,3.563c1.938,3.219,2.969,6.734,3.094,10.547
		c0.031,0.25,0.047,0.547,0.047,0.891c0,1.219-0.188,2.859-0.563,4.922c-0.781,2.906-1.719,5.047-2.813,6.422
		c-1.875,2.313-3.234,3.703-4.078,4.172c-4.594,3.156-9.328,4.859-14.203,5.109h-4.266c-3.188-0.313-5.875-0.938-8.063-1.875
		c-3.5-1.625-6.328-3.438-8.484-5.438C121.609,437.48,120.063,435.152,118.75,432.12z"/>
	<path style="stroke:#000000;stroke-width:3;stroke-miterlimit:10;" d="M171.672,431.98h14.063v14.156h-14.063V431.98z"/>
	<path style="stroke:#000000;stroke-width:3;stroke-miterlimit:10;" d="M222.813,376.573c7.563,1.156,13.156,5.625,16.781,13.406
		c3.094,5.75,4.641,12.813,4.641,21.188v0.844c0,10.469-2.547,19.375-7.641,26.719c-3.625,4.938-8.75,7.703-15.375,8.297
		c-0.688,0.063-1.359,0.094-2.016,0.094c-6.875,0-12.641-2.906-17.297-8.719c-4.813-7.75-7.25-15.703-7.313-23.859
		c-0.031-0.688-0.047-1.375-0.047-2.063c0-11.031,2.453-20.156,7.359-27.375c3.281-3.938,6.703-6.453,10.266-7.547
		c2.468-0.781,4.938-1.172,7.406-1.172C220.672,376.386,221.75,376.448,222.813,376.573z M219.203,435.12
		c3.625-0.188,6.687-2.672,9.188-7.453c1.812-3.188,2.953-7.875,3.422-14.063c0.094-7.875-1.297-14.328-4.172-19.359
		c-2.344-3.5-4.938-5.453-7.781-5.859c-3.75,0.188-6.875,2.641-9.375,7.359c-1.781,3.313-2.938,8.063-3.469,14.25
		c-0.063,7.875,1.359,14.313,4.266,19.313C213.594,432.808,216.234,434.745,219.203,435.12z"/>
	<path style="stroke:#000000;stroke-width:3;stroke-miterlimit:10;" d="M250.844,431.98h14.063v14.156h-14.063V431.98z"/>
	<path style="stroke:#000000;stroke-width:3;stroke-miterlimit:10;" d="M273.203,432.12v-0.094c0-0.344,0.359-0.578,1.078-0.703
		c5.531-1.781,9.125-3.063,10.781-3.844c0.844,1.156,1.953,2.203,3.328,3.141c2.219,1.313,4.594,2.109,7.125,2.391
		c2.688,0.063,4.359,0,5.016-0.188c3.094-0.875,5-1.766,5.719-2.672c0.719-0.625,1.344-2.141,1.875-4.547
		c0.125-0.938,0-1.984-0.375-3.141c-0.469-0.781-0.969-1.438-1.5-1.969l-1.594-1.219l-1.781-0.797
		c-9.906-3.094-15.359-4.906-16.359-5.438c-4.594-1.844-8.016-4.891-10.266-9.141c-1.469-2.844-2.125-6.297-1.969-10.359
		c0.593-5.063,2.672-9.078,6.234-12.047c4-2.906,8.172-4.484,12.516-4.734h1.219c3.094,0,5.656,0.234,7.688,0.703
		c4.125,1.156,7.344,2.766,9.656,4.828c2.313,1.906,4.219,4.5,5.719,7.781l-0.141,0.516l-9.656,4.641l-0.469-0.234
		c-0.594-1.906-2.266-3.453-5.016-4.641c-3.094-1.156-6.719-1.188-10.875-0.094c-1.781,0.594-3.031,1.359-3.75,2.297
		c-0.25,0.25-0.578,1.031-0.984,2.344c-0.063,1.531,0,2.422,0.188,2.672c0.406,1.063,1.219,2.016,2.438,2.859l1.219,0.516
		c8.875,2.625,14.891,4.531,18.047,5.719c2.719,1.25,4.797,2.625,6.234,4.125l2.625,3.563c1.938,3.219,2.969,6.734,3.094,10.547
		c0.031,0.25,0.047,0.547,0.047,0.891c0,1.219-0.188,2.859-0.563,4.922c-0.781,2.906-1.719,5.047-2.813,6.422
		c-1.875,2.313-3.234,3.703-4.078,4.172c-4.594,3.156-9.328,4.859-14.203,5.109h-4.266c-3.188-0.313-5.875-0.938-8.063-1.875
		c-3.5-1.625-6.328-3.438-8.484-5.438C276.063,437.48,274.516,435.152,273.203,432.12z"/>
</g>
</svg>
