<?xml version="1.0" encoding="utf-8"?>
<!-- Generator: Adobe Illustrator 15.0.0, SVG Export Plug-In  -->
<!DOCTYPE svg PUBLIC "-//W3C//DTD SVG 1.1//EN" "http://www.w3.org/Graphics/SVG/1.1/DTD/svg11.dtd" [
	<!ENTITY ns_flows "http://ns.adobe.com/Flows/1.0/">
]>
<svg version="1.1"
	 xmlns="http://www.w3.org/2000/svg" xmlns:xlink="http://www.w3.org/1999/xlink" xmlns:a="http://ns.adobe.com/AdobeSVGViewerExtensions/3.0/"
	 x="0px" y="0px" width="576px" height="576px" viewBox="-0.531 -0.531 576 576" enable-background="new -0.531 -0.531 576 576"
	 xml:space="preserve">
<defs>
</defs>
<path fill="#FFFFFF" stroke="#000000" stroke-linecap="round" stroke-linejoin="round" d="M41.496,574.438h491.947
	c10.872,0,21.3-4.318,28.988-12.007c7.688-7.688,12.007-18.115,12.007-28.988V41.496c0-10.873-4.319-21.3-12.007-28.988
	C554.742,4.819,544.314,0.5,533.442,0.5H41.496c-10.873,0-21.3,4.319-28.988,12.007C4.819,20.195,0.5,30.623,0.5,41.496v491.947
	c0,10.873,4.319,21.3,12.007,28.988C20.195,570.119,30.623,574.438,41.496,574.438z"/>
<polygon fill="#0000FF" stroke="#0000FF" stroke-width="0.1764" stroke-linecap="round" stroke-linejoin="round" points="
	36.576,538.362 538.362,538.362 538.362,538.362 538.362,36.576 538.362,36.576 36.576,36.576 36.576,36.576 "/>
<rect x="88.762" y="88.762" fill="#FFFFFF" stroke="#0000FF" stroke-width="0.1764" stroke-linecap="round" stroke-linejoin="round" width="397.414" height="397.414"/>
<path d="M436.372,337.515c-11.234-29.336-27.884-61.988-49.363-85.297c-22.692-24.624-46.35-52.666-74.036-71.862
	c-6.48-4.493-12.961-8.986-19.44-13.479l-45.336-28.41c-9.466-3.878-19.525-6.988-28.373-10.665
	c-14.406-5.987-27.19-8.618-42.384-4.277c-14.091,4.026-24.51,22.277-32.971,32.944l-2.667,6l-0.667,10.667l2.667,9.333l6.667,8.667
	l27.333,17.333l36,20l8.667,4l8,2l6-2l4-2l28.297-27.093l19.929,22.085c0.876,1.199,1.794,2.365,2.771,3.486
	c8.544,9.81,16.339,18.99,26.47,27.095c18.604,14.882,34.366,31.744,53.866,45.761c-9.745,9.312-19.49,18.624-29.235,27.936
	c-2.513,2.401-8.603,5.79-7.752,9.62c0.888,3.994,0.53,11.021,2.651,14.285c7.944,12.222,15.888,24.443,23.831,36.664
	c5.901,9.079,11.43,21.853,19.172,29.495c10.343,10.211,22.23,8.478,33.086,1.454c7.469-4.833,21.266-10.671,26.066-18.217
	C454.004,380.433,445.195,360.553,436.372,337.515z"/>
</svg>
