<?xml version="1.0" encoding="utf-8"?>
<!-- Generator: Adobe Illustrator 15.0.0, SVG Export Plug-In  -->
<!DOCTYPE svg PUBLIC "-//W3C//DTD SVG 1.1//EN" "http://www.w3.org/Graphics/SVG/1.1/DTD/svg11.dtd" [
	<!ENTITY ns_flows "http://ns.adobe.com/Flows/1.0/">
]>
<svg version="1.1"
	 xmlns="http://www.w3.org/2000/svg" xmlns:xlink="http://www.w3.org/1999/xlink" xmlns:a="http://ns.adobe.com/AdobeSVGViewerExtensions/3.0/"
	 x="0px" y="0px" width="574px" height="551px" viewBox="-0.531 -0.031 574 551" enable-background="new -0.531 -0.031 574 551"
	 xml:space="preserve">
<defs>
</defs>
<path fill="#FFFFFF" stroke="#000000" stroke-width="2" stroke-linecap="round" stroke-linejoin="round" d="M41.817,549.938h489.804
	c10.824,0,21.207-4.131,28.862-11.483c7.653-7.354,11.954-17.326,11.954-27.727V40.21c0-10.399-4.301-20.372-11.954-27.726
	C552.828,5.131,542.445,1,531.621,1H41.817C30.992,1,20.609,5.131,12.955,12.484C5.3,19.838,1,29.811,1,40.21v470.518
	c0,10.4,4.3,20.372,11.955,27.727C20.609,545.807,30.992,549.938,41.817,549.938z"/>
<path opacity="0.17" fill="#FFFFFF" d="M533.969,497.864c0,11.655-5.449,21.104-12.171,21.104H48.14
	c-6.722,0-12.171-9.449-12.171-21.104V59.073c0-11.655,5.449-21.104,12.171-21.104h473.658c6.722,0,12.171,9.449,12.171,21.104
	V497.864z"/>
<path fill="#66FF66" d="M540.969,500.693c0,10.921-5.497,19.775-12.28,19.775H47.248c-6.781,0-12.279-8.854-12.279-19.775V55.745
	c0-10.922,5.498-19.776,12.279-19.776h481.441c6.783,0,12.28,8.854,12.28,19.776V500.693z"/>
<path fill="#FFFFFF" d="M350.719,240.135h-24.029l-62.221-66.166l-3-0.333H129.852L96.155,238.62
	c-4.894,9.438-0.613,21.366,9.56,26.642c10.173,5.275,22.388,1.901,27.283-7.537c0.363-0.701,0.659-1.417,0.923-2.142l22.708-43.792
	l33.828,0.735l-27.987,68.775l-11.888,88.501H84.385c-10.631,0-19.25,9.29-19.25,20.75c0,11.459,8.619,20.75,19.25,20.75
	c0.789,0,1.562-0.066,2.326-0.166h18.617l79.307-9.161v-4.056l21.5-70.951l37.667,63.333l0.418-0.175l18.558,89.624
	c2.156,10.41,13,16.967,24.223,14.643c11.22-2.322,18.57-12.646,16.415-23.057c-0.16-0.773-0.382-1.517-0.635-2.245l-19.855-95.889
	l-1.229,0.255l-45.896-88.489l30.333-49.667l4.413,4.833h-0.624l8.113,8.203l2.098,2.298l0.193,0.018l27.524,27.827h40.54
	c0.765,0.093,1.537,0.154,2.326,0.154c10.632,0,19.25-8.62,19.25-19.25C369.969,248.754,361.351,240.135,350.719,240.135z"/>
<ellipse fill="#FFFFFF" cx="264.302" cy="135.969" rx="34.167" ry="33.333"/>
<rect x="421.469" y="81.469" fill="#FFFFFF" width="110" height="360.5"/>
</svg>
