<?xml version="1.0" encoding="utf-8"?>
<!-- Generator: Adobe Illustrator 15.0.0, SVG Export Plug-In  -->
<!DOCTYPE svg PUBLIC "-//W3C//DTD SVG 1.1//EN" "http://www.w3.org/Graphics/SVG/1.1/DTD/svg11.dtd" [
	<!ENTITY ns_flows "http://ns.adobe.com/Flows/1.0/">
]>
<svg version="1.1"
	 xmlns="http://www.w3.org/2000/svg" xmlns:xlink="http://www.w3.org/1999/xlink" xmlns:a="http://ns.adobe.com/AdobeSVGViewerExtensions/3.0/"
	 x="0px" y="0px" width="574px" height="551px" viewBox="-0.531 -0.031 574 551" enable-background="new -0.531 -0.031 574 551"
	 xml:space="preserve">
<defs>
</defs>
<path fill="#FFFFFF" stroke="#000000" stroke-width="2" stroke-linecap="round" stroke-linejoin="round" d="M531.62,549.938H41.816
	c-10.824,0-21.207-4.131-28.862-11.483C5.301,531.1,1,521.128,1,510.728V40.21c0-10.399,4.301-20.372,11.954-27.726
	C20.609,5.131,30.992,1,41.816,1H531.62c10.825,0,21.208,4.131,28.862,11.484c7.655,7.354,11.955,17.327,11.955,27.726v470.518
	c0,10.4-4.3,20.372-11.955,27.727C552.828,545.807,542.445,549.938,531.62,549.938z"/>
<path opacity="0.17" fill="#FFFFFF" d="M39.469,497.864c0,11.655,5.449,21.104,12.171,21.104h473.658
	c6.722,0,12.171-9.449,12.171-21.104V59.073c0-11.655-5.449-21.104-12.171-21.104H51.64c-6.722,0-12.171,9.449-12.171,21.104
	V497.864z"/>
<path fill="#66FF66" d="M32.469,500.693c0,10.921,5.497,19.775,12.28,19.775h481.44c6.781,0,12.279-8.854,12.279-19.775V55.745
	c0-10.922-5.498-19.776-12.279-19.776H44.749c-6.783,0-12.28,8.854-12.28,19.776V500.693z"/>
<path fill="#FFFFFF" d="M222.719,240.135h24.029l62.221-66.166l3-0.333h131.616l33.697,64.985c4.895,9.438,0.613,21.366-9.56,26.642
	s-22.388,1.901-27.282-7.537c-0.363-0.701-0.659-1.417-0.923-2.142l-22.708-43.792l-33.828,0.735l27.987,68.775l11.888,88.501
	h66.195c10.632,0,19.25,9.29,19.25,20.75c0,11.459-8.618,20.75-19.25,20.75c-0.789,0-1.562-0.066-2.326-0.166h-18.617l-79.307-9.161
	v-4.056l-21.5-70.951l-37.667,63.333l-0.418-0.175l-18.559,89.624c-2.155,10.41-13,16.967-24.223,14.643
	c-11.22-2.322-18.57-12.646-16.415-23.057c0.16-0.773,0.382-1.517,0.635-2.245l19.855-95.889l1.229,0.255l45.896-88.489
	l-30.333-49.667l-4.413,4.833h0.624l-8.113,8.203l-2.098,2.298l-0.193,0.018l-27.523,27.827h-40.54
	c-0.765,0.093-1.537,0.154-2.326,0.154c-10.632,0-19.25-8.62-19.25-19.25C203.469,248.754,212.087,240.135,222.719,240.135z"/>
<ellipse fill="#FFFFFF" cx="309.135" cy="135.969" rx="34.167" ry="33.333"/>
<rect x="41.969" y="81.469" fill="#FFFFFF" width="110" height="360.5"/>
</svg>
