<?xml version="1.0" encoding="utf-8"?>
<!-- Generator: Adobe Illustrator 16.0.2, SVG Export Plug-In . SVG Version: 6.00 Build 0)  -->
<!DOCTYPE svg PUBLIC "-//W3C//DTD SVG 1.1//EN" "http://www.w3.org/Graphics/SVG/1.1/DTD/svg11.dtd">
<svg version="1.1" id="Ebene_1" xmlns="http://www.w3.org/2000/svg" xmlns:xlink="http://www.w3.org/1999/xlink" x="0px" y="0px"
	 width="576px" height="567px" viewBox="0 0 576 567" style="enable-background:new 0 0 576 567;" xml:space="preserve">
<style type="text/css">
<![CDATA[
	.st0{fill:#FFFFFF;stroke:#0000FF;stroke-width:0.1764;stroke-linecap:round;stroke-linejoin:round;}
	.st1{stroke:#0000FF;stroke-width:0.1764;stroke-linecap:round;stroke-linejoin:round;}
	.st2{fill:none;stroke:#0000FF;stroke-width:12;}
	.st3{fill:none;stroke:#0000FF;stroke-width:14;}
	.st4{fill:none;}
	.st5{fill:#FFFFFF;stroke:#000000;stroke-width:2;stroke-linecap:round;stroke-linejoin:round;}
	.st6{stroke:#000000;stroke-miterlimit:10;}
	.st7{fill:#0000FF;stroke:#0000FF;stroke-width:0.1764;stroke-linecap:round;stroke-linejoin:round;}
	.st8{fill:none;stroke:#0000FF;stroke-width:14;stroke-linecap:round;stroke-linejoin:round;}
]]>
</style>
<path class="st5" d="M41.996,565.938h491.947c10.872,0,21.3-4.251,28.987-11.818c7.688-7.567,12.007-17.831,12.007-28.533V41.353
	c0-10.702-4.318-20.966-12.007-28.534C555.242,5.251,544.814,1,533.942,1H41.996c-10.873,0-21.3,4.251-28.988,11.818
	C5.319,20.387,1,30.651,1,41.353v484.232c0,10.702,4.319,20.966,12.007,28.533C20.695,561.687,31.123,565.938,41.996,565.938z"/>
<path class="st8" d="M24.032,226.108v282.11c0,9.927,3.935,19.446,10.939,26.468c7.004,7.02,16.504,10.963,26.409,10.963h448.177
	c9.904,0,19.404-3.943,26.409-10.963c7.004-7.021,10.938-16.541,10.938-26.468v-282.11"/>
<path class="st3" d="M23.729,227.407c0.249-9.572,4.141-18.703,10.915-25.492c7.005-7.02,16.504-10.963,26.41-10.963H509.23
	c9.904,0,19.403,3.943,26.409,10.963c6.773,6.789,10.665,15.919,10.914,25.492"/>
<path class="st2" d="M547.207,151.464c-0.249,9.571-4.14,18.703-10.914,25.492c-7.005,7.019-16.505,10.962-26.41,10.962H61.706
	c-9.905,0-19.405-3.943-26.409-10.962c-6.774-6.789-10.666-15.92-10.915-25.492l-0.326-93.388
	c0.25-9.572,4.141-18.703,10.915-25.492c7.004-7.02,16.504-10.962,26.409-10.962h448.177c9.904,0,19.404,3.942,26.409,10.962
	c6.774,6.79,10.665,15.92,10.914,25.492L547.207,151.464z"/>
<polygon class="st7" points="57.777,173.058 189.496,173.058 189.496,173.058 189.496,42.006 189.496,42.006 57.777,42.006 
	57.777,42.006 "/>
<rect x="71.475" y="55.635" class="st0" width="104.321" height="103.793"/>
<path d="M151.461,151.408c-7.393,0-13.388-5.672-13.388-12.667v-0.131v-29.772V94.211H94.498v1.596
	c0.283-0.017,0.567-0.029,0.854-0.029c7.24,0,13.114,5.602,13.188,12.536h0.003v29.773h-0.003c0,0.044,0.003,0.087,0.003,0.131
	c0,6.996-5.994,12.667-13.388,12.667c-0.219,0-0.438-0.006-0.656-0.017v1.583h57.094v-1.048
	C151.549,151.405,151.505,151.408,151.461,151.408z"/>
<ellipse class="st1" cx="123.242" cy="76.191" rx="16.144" ry="15.67"/>
<g>
	<rect x="241.027" y="61.395" class="st4" width="273.724" height="123.873"/>
	<path class="st6" d="M261.905,59.549c5.422,0.844,8.748,4.061,9.978,9.65l0.251,2.03l-7.183,0.527
		c-0.242-2.777-1.257-4.544-3.046-5.3c-1.789-0.755-3.727-0.571-5.813,0.554c-1.397,0.827-2.506,1.771-3.326,2.834
		c-0.82,1.064-1.696,3.142-2.627,6.236c-1.155,4.36-1.184,8.227-0.083,11.602c0.819,2.461,2.785,3.463,5.897,3.006
		c3.354-0.808,5.469-2.654,6.345-5.537h7.406c-0.689,3.709-2.702,6.786-6.037,9.229c-1.695,1.565-4.239,2.61-7.63,3.138
		c-0.447,0.017-0.885,0.026-1.313,0.026c-4.192,0-7.444-1.556-9.754-4.667c-1.882-2.883-2.823-6.266-2.823-10.151
		c0-1.705,0.186-3.516,0.559-5.432c1.043-5.712,3.103-10.142,6.177-13.289c1.583-1.705,3.457-2.944,5.618-3.718
		c1.695-0.563,3.428-0.844,5.198-0.844h0.308C260.62,59.444,261.253,59.479,261.905,59.549z"/>
	<path class="st6" d="M285.929,79.404l-6.177-0.158c0.112-2.496,1.519-4.605,4.22-6.328c2.422-1.283,4.864-1.925,7.323-1.925h0.308
		c3.148,0.229,5.422,1.292,6.819,3.19c0.578,0.949,0.867,2.074,0.867,3.375c0,0.176-0.01,0.36-0.028,0.554
		c0,1.143-0.159,2.391-0.476,3.744l-2.879,15.319h-6.651l0.698-3.085c-1.528,2.268-3.652,3.41-6.372,3.428
		c-4.323-0.053-6.615-2.285-6.875-6.697c0.167-4.043,2.105-6.838,5.813-8.385c2.441-0.932,5.72-1.406,9.838-1.424l0.335-2.188
		c0.205-1.986-0.681-3.041-2.655-3.164C288.099,75.677,286.729,76.925,285.929,79.404z M291.519,85.389l-2.181-0.026
		c-4.471,0.616-6.689,2.435-6.651,5.458c0.335,1.67,1.267,2.488,2.795,2.452C288.425,92.816,290.438,90.188,291.519,85.389z"/>
	<path class="st6" d="M308.807,71.045h6.428l-0.531,3.665c1.379-1.968,2.749-3.181,4.109-3.639c0.614-0.158,1.191-0.237,1.732-0.237
		c0.447,0,1.024,0.07,1.732,0.211l-1.677,6.829c-1.509-0.492-2.822-0.343-3.94,0.448c-1.416,0.774-2.646,2.681-3.689,5.722
		l-2.543,13.104h-6.484L308.807,71.045z"/>
	<path class="st6" d="M331.321,71.045h6.428l-0.531,3.665c1.379-1.968,2.749-3.181,4.109-3.639c0.614-0.158,1.191-0.237,1.732-0.237
		c0.447,0,1.024,0.07,1.732,0.211l-1.677,6.829c-1.509-0.492-2.822-0.343-3.94,0.448c-1.416,0.774-2.646,2.681-3.689,5.722
		l-2.543,13.104h-6.484L331.321,71.045z"/>
	<path class="st6" d="M362.778,70.702c3.093,0,5.301,0.712,6.624,2.136c1.416,1.266,2.18,3.27,2.292,6.012
		c0.019,0.369,0.027,0.729,0.027,1.081c-0.037,2.092-0.289,4.078-0.754,5.959h-14.562c-0.709,3.234-0.317,5.379,1.174,6.434
		c0.987,0.598,2.049,0.563,3.186-0.105c1.268-0.914,2.134-2.268,2.6-4.061h7.127c-0.838,3.234-2.637,5.774-5.395,7.62
		c-1.788,1.002-3.68,1.503-5.673,1.503c-1.678,0-3.438-0.352-5.283-1.055c-3.111-1.793-4.667-4.684-4.667-8.675
		c0-0.352,0.009-0.712,0.028-1.081c0.577-5.361,2.049-9.377,4.415-12.05C355.986,72.083,358.939,70.844,362.778,70.702z
		 M357.356,80.906h7.938c0.261-2.355,0.093-3.981-0.503-4.878c-1.51-1.564-3.345-1.459-5.506,0.316
		C358.223,77.505,357.58,79.026,357.356,80.906z"/>
	<path class="st6" d="M395.997,59.575l-0.922,4.983c-0.913-0.264-1.882-0.264-2.907,0c-1.379,0.387-2.235,1.618-2.571,3.691
		l-0.587,2.874h4.332l-0.978,4.904h-4.305l-4.08,21.305h-6.708l3.997-21.437h-3.886l1.063-4.667h3.661l0.615-3.718
		c0.838-3.656,2.469-6.038,4.891-7.146c1.695-0.703,3.503-1.055,5.423-1.055C393.985,59.312,394.973,59.4,395.997,59.575z"/>
	<path class="st6" d="M419.909,75.633c0.689,1.494,1.034,3.287,1.034,5.379c0,0.967-0.074,1.995-0.224,3.085
		c-0.614,4.025-1.938,7.119-3.969,9.281c-2.292,2.461-4.835,3.823-7.63,4.087c-0.578,0.035-1.053,0.053-1.426,0.053
		c-0.503,0-1.034-0.026-1.593-0.079c-2.311-0.158-4.37-1.512-6.177-4.061c-0.988-1.546-1.481-3.586-1.481-6.117
		c0-0.738,0.046-1.52,0.14-2.347c0.447-4.57,2.097-8.183,4.947-10.837c1.956-1.775,3.829-2.759,5.617-2.953
		c0.783-0.123,1.547-0.185,2.292-0.185h0.252C415.307,70.94,418.046,72.505,419.909,75.633z M408.311,92.956
		c1.49,0.053,2.72-0.597,3.689-1.951c0.912-1.354,1.658-3.305,2.235-5.854c0.597-2.9,0.55-5.37-0.14-7.409
		c-0.597-1.635-1.547-2.347-2.851-2.136c-1.621-0.211-3.056,0.686-4.304,2.689c-0.933,1.67-1.575,3.569-1.929,5.695
		c-0.317,2.549-0.336,4.5-0.057,5.854C405.44,92.254,406.559,93.29,408.311,92.956z"/>
	<path class="st6" d="M445.163,97.228h-6.429l0.531-4.403c-2.031,2.62-4.071,4.123-6.121,4.509
		c-0.521,0.053-1.006,0.079-1.453,0.079c-1.305,0-2.273-0.211-2.907-0.633c-1.285-0.721-2.105-1.784-2.459-3.19
		c-0.279-1.019-0.419-2.136-0.419-3.349c0-0.896,0.083-1.846,0.251-2.848l3.074-16.269h6.876l-3.214,15.979
		c-0.354,1.793-0.131,3.121,0.67,3.981c1.379,1.02,2.86,0.861,4.444-0.475c1.211-1.09,2.161-3.015,2.851-5.774l2.684-13.711h6.484
		l-4.473,22.939L445.163,97.228z"/>
	<path class="st6" d="M459.46,71.045h6.428l-0.531,3.665c1.379-1.968,2.749-3.181,4.109-3.639c0.614-0.158,1.191-0.237,1.732-0.237
		c0.447,0,1.024,0.07,1.732,0.211l-1.677,6.829c-1.509-0.492-2.822-0.343-3.94,0.448c-1.416,0.774-2.646,2.681-3.689,5.722
		l-2.543,13.104h-6.484L459.46,71.045z"/>
	<path class="st6" d="M242.229,137.941h6.875c-0.149,2.074,0.326,3.691,1.426,4.852c1.36,0.932,2.776,1.38,4.248,1.345
		c1.751,0.07,3.26-0.29,4.528-1.081c1.099-0.615,1.705-1.836,1.817-3.665c-0.019-1.529-1.034-2.856-3.047-3.981
		c-2.851-1.582-5.031-2.927-6.54-4.034c-1.155-0.826-2.162-1.714-3.019-2.663c-1.397-1.916-1.863-4.051-1.397-6.407
		c0.578-3.076,1.817-5.335,3.717-6.776c1.733-1.459,3.754-2.443,6.065-2.953c1.546-0.228,2.925-0.343,4.137-0.343
		c1.397,0,2.571,0.158,3.521,0.475c2.254,0.58,3.894,1.468,4.919,2.663c1.603,1.829,2.459,4.157,2.571,6.987
		c0,0.247-0.009,0.492-0.028,0.738v0.765h-7.071c-0.037-2.39-0.745-4.008-2.124-4.852c-2.721-1.125-5.236-0.712-7.546,1.239
		c-1.118,1.266-1.444,2.637-0.978,4.113c0.242,0.598,0.727,1.134,1.453,1.608c2.273,1.424,4.313,2.681,6.121,3.771
		c1.882,1.125,3.251,2.109,4.108,2.953c1.733,1.67,2.646,3.533,2.739,5.59c0.018,1.02-0.214,2.294-0.699,3.823
		c-0.746,2.021-2.087,3.788-4.025,5.3c-2.105,1.635-4.211,2.62-6.316,2.953c-1.118,0.105-2.171,0.158-3.158,0.158
		c-1.808,0-3.419-0.185-4.835-0.554c-2.348-0.949-4.034-1.968-5.059-3.059c-1.603-1.775-2.404-4.271-2.404-7.488V137.941z"/>
	<path class="st6" d="M285.51,132.404l-6.177-0.158c0.112-2.496,1.519-4.605,4.22-6.328c2.422-1.283,4.863-1.925,7.323-1.925h0.308
		c3.148,0.229,5.422,1.292,6.819,3.19c0.577,0.949,0.866,2.074,0.866,3.375c0,0.176-0.01,0.36-0.027,0.554
		c0,1.143-0.158,2.391-0.475,3.744l-2.879,15.319h-6.652l0.699-3.085c-1.529,2.268-3.653,3.41-6.373,3.428
		c-4.323-0.053-6.615-2.285-6.875-6.697c0.167-4.043,2.105-6.838,5.813-8.385c2.441-0.932,5.72-1.406,9.837-1.424l0.336-2.188
		c0.205-1.986-0.68-3.041-2.655-3.164C287.68,128.677,286.311,129.925,285.51,132.404z M291.1,138.389l-2.18-0.026
		c-4.472,0.616-6.69,2.435-6.652,5.458c0.335,1.67,1.267,2.488,2.795,2.452C288.006,145.816,290.02,143.188,291.1,138.389z"/>
	<path class="st6" d="M309.198,124.335h6.735l-5.395,25.866h-6.848L309.198,124.335z M311.238,114.395h6.484l-1.09,5.933h-6.484
		L311.238,114.395z"/>
	<path class="st6" d="M325.787,124.045h6.429l-0.531,4.403c2.031-2.619,4.071-4.122,6.121-4.509
		c0.521-0.053,1.006-0.079,1.453-0.079c1.305,0,2.273,0.211,2.907,0.633c1.285,0.721,2.105,1.784,2.459,3.19
		c0.28,1.02,0.42,2.136,0.42,3.349c0,0.896-0.084,1.846-0.252,2.848l-3.074,16.269h-6.876l3.215-15.979
		c0.354-1.793,0.13-3.12-0.671-3.981c-1.379-1.019-2.86-0.861-4.444,0.475c-1.211,1.09-2.161,3.015-2.851,5.774l-2.684,13.711
		h-6.483l4.472-22.939L325.787,124.045z"/>
	<path class="st6" d="M356.238,119.484l6.82-2.347l-1.174,6.935h4.862l-1.09,4.667h-4.779l-2.543,13.5
		c-0.317,1.829-0.038,2.742,0.838,2.742c1.397,0.123,2.692-0.141,3.886-0.791c-0.075,1.09-0.159,2.04-0.252,2.848
		c-0.094,0.809-0.215,1.591-0.363,2.347c-1.155,0.703-2.665,1.055-4.527,1.055c-3.951-0.211-6.037-1.916-6.261-5.115
		c0.018-1.723,0.148-3.234,0.391-4.535l2.236-12.103h-3.969l1.034-4.614h3.996L356.238,119.484z"/>
	<path class="st6" d="M388.228,128.791l-1.174,7.33h-14.757l1.174-7.33H388.228z"/>
	<path class="st6" d="M411.943,112.602h6.848l-5.282,26.394c-2.068,7.594-5.944,11.391-11.627,11.391h-0.196
		c-6.596-0.527-10.024-3.621-10.285-9.281v-0.475c0-0.791,0.037-1.556,0.112-2.294h6.567c-0.261,3.533,0.689,5.537,2.852,6.012
		c2.738,0.229,4.574-1.45,5.506-5.036L411.943,112.602z"/>
	<path class="st6" d="M435.744,123.702c3.093,0,5.301,0.712,6.624,2.136c1.416,1.266,2.18,3.27,2.292,6.012
		c0.019,0.369,0.027,0.729,0.027,1.081c-0.037,2.092-0.289,4.078-0.754,5.959h-14.562c-0.709,3.234-0.317,5.379,1.174,6.434
		c0.987,0.598,2.049,0.563,3.186-0.105c1.268-0.914,2.134-2.268,2.6-4.061h7.127c-0.838,3.234-2.637,5.774-5.395,7.62
		c-1.788,1.002-3.68,1.503-5.673,1.503c-1.678,0-3.438-0.352-5.283-1.055c-3.111-1.793-4.667-4.684-4.667-8.675
		c0-0.352,0.009-0.712,0.028-1.081c0.577-5.361,2.049-9.377,4.415-12.05C428.952,125.083,431.905,123.844,435.744,123.702z
		 M430.322,133.906h7.938c0.261-2.355,0.093-3.981-0.503-4.878c-1.51-1.564-3.345-1.459-5.506,0.316
		C431.188,130.505,430.546,132.026,430.322,133.906z"/>
	<path class="st6" d="M458.873,132.404l-6.177-0.158c0.111-2.496,1.518-4.605,4.22-6.328c2.422-1.283,4.863-1.925,7.323-1.925h0.307
		c3.149,0.229,5.423,1.292,6.82,3.19c0.577,0.949,0.866,2.074,0.866,3.375c0,0.176-0.01,0.36-0.028,0.554
		c0,1.143-0.158,2.391-0.475,3.744l-2.879,15.319h-6.652l0.699-3.085c-1.528,2.268-3.652,3.41-6.373,3.428
		c-4.322-0.053-6.614-2.285-6.875-6.697c0.168-4.043,2.105-6.838,5.813-8.385c2.44-0.932,5.72-1.406,9.838-1.424l0.336-2.188
		c0.204-1.986-0.681-3.041-2.655-3.164C461.043,128.677,459.674,129.925,458.873,132.404z M464.463,138.389l-2.181-0.026
		c-4.472,0.616-6.689,2.435-6.651,5.458c0.335,1.67,1.267,2.488,2.795,2.452C461.369,145.816,463.382,143.188,464.463,138.389z"/>
	<path class="st6" d="M482.058,124.045h6.429l-0.531,4.403c2.031-2.619,4.071-4.122,6.121-4.509
		c0.521-0.053,1.006-0.079,1.453-0.079c1.305,0,2.273,0.211,2.907,0.633c1.285,0.721,2.105,1.784,2.459,3.19
		c0.28,1.02,0.42,2.136,0.42,3.349c0,0.896-0.084,1.846-0.252,2.848l-3.074,16.269h-6.876l3.215-15.979
		c0.354-1.793,0.13-3.12-0.671-3.981c-1.379-1.019-2.86-0.861-4.444,0.475c-1.211,1.09-2.161,3.015-2.851,5.774l-2.684,13.711
		h-6.483l4.472-22.939L482.058,124.045z"/>
</g>
</svg>
