<?xml version="1.0" encoding="utf-8"?>
<!-- Generator: Adobe Illustrator 15.0.0, SVG Export Plug-In  -->
<!DOCTYPE svg PUBLIC "-//W3C//DTD SVG 1.1//EN" "http://www.w3.org/Graphics/SVG/1.1/DTD/svg11.dtd" [
	<!ENTITY ns_flows "http://ns.adobe.com/Flows/1.0/">
]>
<svg version="1.1"
	 xmlns="http://www.w3.org/2000/svg" xmlns:xlink="http://www.w3.org/1999/xlink" xmlns:a="http://ns.adobe.com/AdobeSVGViewerExtensions/3.0/"
	 x="0px" y="0px" width="576px" height="576px" viewBox="-0.031 -0.031 576 576" enable-background="new -0.031 -0.031 576 576"
	 xml:space="preserve">
<defs>
</defs>
<path fill="#FFFFFF" stroke="#000000" stroke-width="2" stroke-linecap="round" stroke-linejoin="round" d="M41.996,574.938h491.947
	c10.872,0,21.3-4.318,28.988-12.007c7.688-7.688,12.007-18.115,12.007-28.988V41.996c0-10.873-4.319-21.3-12.007-28.988
	C555.242,5.319,544.814,1,533.942,1H41.996c-10.873,0-21.3,4.319-28.988,12.007C5.319,20.695,1,31.123,1,41.996v491.947
	c0,10.873,4.319,21.3,12.007,28.988C20.695,570.619,31.123,574.938,41.996,574.938z"/>
<polygon fill="#0000FF" stroke="#0000FF" stroke-width="0.1764" stroke-linecap="round" stroke-linejoin="round" points="
	37.076,538.862 538.862,538.862 538.862,538.862 538.862,37.076 538.862,37.076 37.076,37.076 37.076,37.076 "/>
<rect x="89.262" y="89.262" fill="#FFFFFF" stroke="#0000FF" stroke-width="0.1764" stroke-linecap="round" stroke-linejoin="round" width="397.414" height="397.414"/>
<ellipse cx="276.06" cy="372.055" rx="26.399" ry="25.919"/>
<path d="M434.437,396.475l-2.093,0.016l18.42-40.448l-8.4,0.28H400.3V247.384c-25.741-24.999-72.915-41.749-126.857-41.749
	c-60.39,0-112.299,20.993-135.142,51.051v110.036h27.189v29.934h-28.521v9.625h311v-9.625h-14.625L434.437,396.475z
	 M175.114,396.656v-29.934h67.065c4.891-15.729,18.079-27,33.589-27c14.226,0,26.491,9.485,32.2,23.191v4.033h124.761
	l-14.854,29.709H175.114z"/>
<path fill="#FFFFFF" d="M213.421,270.469c-0.734-10.601-10.727-19-22.952-19s-22.218,8.399-22.952,19h-0.048v69.5h0.217
	c1.525,9.882,11.141,17.5,22.783,17.5s21.258-7.618,22.783-17.5h0.217v-69.5H213.421z M191.227,291.31
	c-9.331,0-16.895-7.427-16.895-16.588s7.564-16.588,16.895-16.588c9.332,0,16.896,7.427,16.896,16.588
	S200.558,291.31,191.227,291.31z"/>
<path fill="#FFFFFF" d="M291.969,253.017c-10.601,0.734-19,10.727-19,22.952s8.399,22.219,19,22.952v0.048h69.5v-0.217
	c9.882-1.524,17.5-11.141,17.5-22.783s-7.618-21.258-17.5-22.783v-0.217h-69.5V253.017z"/>
</svg>
