<?xml version="1.0" encoding="utf-8"?>
<!-- Generator: Adobe Illustrator 15.0.0, SVG Export Plug-In  -->
<!DOCTYPE svg PUBLIC "-//W3C//DTD SVG 1.1//EN" "http://www.w3.org/Graphics/SVG/1.1/DTD/svg11.dtd" [
	<!ENTITY ns_flows "http://ns.adobe.com/Flows/1.0/">
]>
<svg version="1.1"
	 xmlns="http://www.w3.org/2000/svg" xmlns:xlink="http://www.w3.org/1999/xlink" xmlns:a="http://ns.adobe.com/AdobeSVGViewerExtensions/3.0/"
	 x="0px" y="0px" width="576px" height="576px" viewBox="-0.031 -0.031 576 576" enable-background="new -0.031 -0.031 576 576"
	 xml:space="preserve">
<defs>
</defs>
<path fill="#FFFFFF" stroke="#000000" stroke-width="2" stroke-linecap="round" stroke-linejoin="round" d="M41.996,574.938h491.947
	c10.872,0,21.3-4.318,28.988-12.007c7.688-7.688,12.007-18.115,12.007-28.988V41.996c0-10.873-4.319-21.3-12.007-28.988
	C555.242,5.319,544.814,1,533.942,1H41.996c-10.873,0-21.3,4.319-28.988,12.007C5.319,20.695,1,31.123,1,41.996v491.947
	c0,10.873,4.319,21.3,12.007,28.988C20.695,570.619,31.123,574.938,41.996,574.938z"/>
<polygon fill="#0000FF" stroke="#0000FF" stroke-width="0.1764" stroke-linecap="round" stroke-linejoin="round" points="
	37.076,538.862 538.862,538.862 538.862,538.862 538.862,37.076 538.862,37.076 37.076,37.076 37.076,37.076 "/>
<rect x="89.262" y="89.262" fill="#FFFFFF" stroke="#0000FF" stroke-width="0.1764" stroke-linecap="round" stroke-linejoin="round" width="397.414" height="397.414"/>
<polygon fill="none" points="284.99,161.449 208.395,268.345 361.324,268.345 "/>
<path d="M369.489,268.345l-80.411-112.604l27.554-38.45l-5.698-3.215l-25.848,36.074l-26.911-37.685l-5.814,3.293l28.635,40.1
	l-80.602,112.487h-35.329v6.137h238.429v-6.137H369.489z M284.99,161.449l76.334,106.896h-152.93L284.99,161.449z"/>
<polygon stroke="#000000" stroke-linecap="round" stroke-linejoin="round" points="326.417,213.523 285.657,156.656 
	244.897,213.523 204.136,270.39 246.401,270.39 265.455,243.389 284.509,216.386 303.563,243.389 322.617,270.39 367.179,270.39 "/>
<ellipse cx="268.653" cy="431.977" rx="19.964" ry="20.3"/>
<path d="M388.421,451.103l-1.583,0.012l13.93-31.68l-6.353,0.221h-31.81v-85.322c-19.466-19.58-55.141-32.698-95.933-32.698
	c-45.669,0-84.922,16.441-102.198,39.983V427.8h20.562v23.444h-21.568v7.539h235.186v-7.539h-11.061L388.421,451.103z
	 M192.315,451.244V427.8h50.716c3.699-12.318,13.671-21.147,25.4-21.147c10.758,0,20.034,7.431,24.351,18.165v3.159h94.347
	l-11.233,23.268H192.315z"/>
<path fill="#FFFFFF" d="M221.284,352.413c-0.556-8.303-8.112-14.881-17.357-14.881c-9.246,0-16.802,6.578-17.357,14.881h-0.036
	v54.434h0.164c1.152,7.739,8.425,13.705,17.229,13.705c8.804,0,16.077-5.966,17.229-13.705h0.164v-54.434H221.284z M204.5,368.736
	c-7.057,0-12.777-5.817-12.777-12.992s5.72-12.992,12.777-12.992c7.056,0,12.777,5.817,12.777,12.992S211.556,368.736,204.5,368.736
	z"/>
<path fill="#FFFFFF" d="M280.683,338.744c-8.017,0.575-14.368,8.401-14.368,17.977s6.352,17.402,14.368,17.977v0.037h52.557v-0.17
	c7.474-1.193,13.234-8.725,13.234-17.844s-5.761-16.648-13.234-17.844v-0.171h-52.557V338.744z"/>
</svg>
