<?xml version="1.0" encoding="utf-8"?>
<!-- Generator: Adobe Illustrator 16.0.2, SVG Export Plug-In . SVG Version: 6.00 Build 0)  -->
<!DOCTYPE svg PUBLIC "-//W3C//DTD SVG 1.1//EN" "http://www.w3.org/Graphics/SVG/1.1/DTD/svg11.dtd">
<svg version="1.1" id="Ebene_1" xmlns="http://www.w3.org/2000/svg" xmlns:xlink="http://www.w3.org/1999/xlink" x="0px" y="0px"
	 width="576px" height="576px" viewBox="0 0 576 576" style="enable-background:new 0 0 576 576;" xml:space="preserve">
<path style="fill:#FFFFFF;stroke:#000000;stroke-width:2;stroke-linecap:round;stroke-linejoin:round;" d="M41.996,574.938h491.947
	c10.872,0,21.3-4.318,28.987-12.007c7.688-7.688,12.007-18.115,12.007-28.988V41.996c0-10.873-4.318-21.301-12.007-28.988
	C555.242,5.319,544.814,1,533.942,1H41.996c-10.873,0-21.3,4.318-28.988,12.007C5.319,20.695,1,31.123,1,41.996v491.946
	c0,10.873,4.319,21.3,12.007,28.988C20.695,570.618,31.123,574.938,41.996,574.938z"/>
<polygon style="fill:#0000FF;stroke:#0000FF;stroke-width:0.1764;stroke-linecap:round;stroke-linejoin:round;" points="
	37.076,538.862 538.862,538.862 538.862,538.862 538.862,37.076 538.862,37.076 37.076,37.076 37.076,37.076 "/>
<rect x="89.262" y="89.262" style="fill:#FFFFFF;stroke:#0000FF;stroke-width:0.1764;stroke-linecap:round;stroke-linejoin:round;" width="397.414" height="397.414"/>
<g>
	<rect x="89.293" y="199.5" style="fill:none;" width="397.414" height="296"/>
	<path style="stroke:#000000;stroke-miterlimit:10;" d="M181.467,196.6c3.745,0,6.864,0.996,9.361,2.988
		c2.496,2.051,4.099,4.424,4.808,7.119c0.283,1.318,0.426,2.74,0.426,4.263c0,2.256-0.327,4.746-0.979,7.471
		c-1.986,5.977-4.482,10.063-7.489,12.261c-3.035,2.549-6.567,3.999-10.594,4.351l-13.105,0.088l-4.68,24.17H148.45l12.084-62.71
		H181.467z M166.022,224.505h8.637c2.666-0.029,5.134-1.23,7.403-3.604c0.964-1.23,1.772-2.9,2.425-5.01
		c0.482-2.08,0.517-4.05,0.106-5.911c-0.412-1.86-1.964-2.805-4.659-2.834h-10.552L166.022,224.505z"/>
	<path style="stroke:#000000;stroke-miterlimit:10;" d="M203.566,215.584h9.786l-0.808,6.108c2.099-3.281,4.184-5.302,6.254-6.064
		c0.936-0.264,1.815-0.396,2.638-0.396c0.681,0,1.56,0.117,2.638,0.352l-2.553,11.382c-2.297-0.82-4.297-0.571-5.999,0.747
		c-2.156,1.29-4.028,4.468-5.617,9.536l-3.872,21.841h-9.871L203.566,215.584z"/>
	<path style="stroke:#000000;stroke-miterlimit:10;" d="M259.83,223.231c1.049,2.49,1.574,5.479,1.574,8.965
		c0,1.611-0.114,3.325-0.34,5.142c-0.936,6.709-2.951,11.865-6.042,15.469c-3.489,4.102-7.361,6.372-11.615,6.812
		c-0.88,0.059-1.603,0.088-2.17,0.088c-0.766,0-1.574-0.044-2.425-0.132c-3.518-0.264-6.652-2.52-9.403-6.768
		c-1.504-2.578-2.255-5.977-2.255-10.195c0-1.23,0.07-2.534,0.212-3.911c0.681-7.617,3.191-13.638,7.531-18.062
		c2.979-2.959,5.829-4.599,8.552-4.922c1.191-0.205,2.354-0.308,3.489-0.308h0.383C252.824,215.408,256.993,218.016,259.83,223.231z
		 M242.173,252.103c2.269,0.088,4.141-0.996,5.616-3.252c1.389-2.256,2.524-5.508,3.404-9.756c0.907-4.834,0.836-8.95-0.213-12.349
		c-0.908-2.725-2.354-3.911-4.34-3.56c-2.468-0.352-4.652,1.143-6.552,4.482c-1.419,2.784-2.397,5.948-2.936,9.492
		c-0.482,4.248-0.51,7.5-0.085,9.756C237.804,250.931,239.506,252.659,242.173,252.103z"/>
	<path style="stroke:#000000;stroke-miterlimit:10;" d="M294.14,259.573h-9.658l0.894-5.669c-1.56,3.164-3.546,5.142-5.957,5.933
		c-1.249,0.352-2.78,0.586-4.595,0.703c-2.723-0.381-4.553-1.318-5.489-2.813c-2.582-2.666-4.084-6.533-4.51-11.602
		c-0.085-1.171-0.128-2.329-0.128-3.472c0-3.632,0.596-7.383,1.787-11.25c1.418-4.219,3.219-7.5,5.403-9.844
		c3.205-3.808,6.212-5.742,9.021-5.801c5.133-0.498,8.467,1.699,9.999,6.592l4-22.852h10.083L294.14,259.573z M284.312,223.538
		c-3.433,0.205-6.695,5.449-9.786,15.732c-0.17,8.291,1.319,12.627,4.468,13.008c5.361-0.879,8.467-5.903,9.318-15.073
		C289.7,228.446,288.367,223.89,284.312,223.538z"/>
	<path style="stroke:#000000;stroke-miterlimit:10;" d="M334.449,259.222h-9.786l0.809-7.339c-3.093,4.366-6.198,6.871-9.318,7.515
		c-0.795,0.088-1.531,0.132-2.213,0.132c-1.985,0-3.461-0.352-4.425-1.055c-1.957-1.201-3.205-2.973-3.744-5.317
		c-0.426-1.699-0.638-3.56-0.638-5.581c0-1.494,0.127-3.076,0.383-4.746l4.68-27.114h10.467l-4.893,26.631
		c-0.539,2.988-0.199,5.201,1.021,6.636c2.099,1.699,4.354,1.436,6.765-0.791c1.844-1.816,3.29-5.024,4.34-9.624l4.085-22.852h9.871
		l-6.808,38.232L334.449,259.222z"/>
	<path style="stroke:#000000;stroke-miterlimit:10;" d="M353.527,216.068h10.254l-8.212,43.11h-10.424L353.527,216.068z
		 M356.633,199.5h9.871l-1.659,9.888h-9.871L356.633,199.5z"/>
	<path style="stroke:#000000;stroke-miterlimit:10;" d="M376.774,207.982l10.382-3.911l-1.787,11.558h7.403l-1.659,7.778h-7.275
		l-3.872,22.5c-0.482,3.047-0.058,4.57,1.276,4.57c2.127,0.205,4.099-0.234,5.914-1.318c-0.113,1.817-0.241,3.399-0.383,4.746
		c-0.143,1.348-0.326,2.652-0.553,3.911c-1.76,1.172-4.057,1.758-6.894,1.758c-6.014-0.352-9.19-3.193-9.53-8.525
		c0.028-2.871,0.227-5.39,0.596-7.559l3.403-20.171h-6.041l1.574-7.69h6.084L376.774,207.982z"/>
	<path style="stroke:#000000;stroke-miterlimit:10;" d="M395.299,245.203h9.318c-0.596,2.49-0.241,4.41,1.063,5.757
		c1.532,1.172,3.546,1.377,6.042,0.615c2.496-0.762,3.645-2.446,3.446-5.054c0.028-1.699-1.135-3.223-3.489-4.57
		c-3.035-1.377-5.829-3.193-8.382-5.449c-2.638-2.197-3.588-5.669-2.851-10.415c0.539-2.988,2.043-5.522,4.511-7.603
		c1.814-1.582,4.098-2.549,6.85-2.9c1.333-0.088,2.524-0.132,3.574-0.132c1.759,0,3.091,0.132,3.999,0.396
		c2.298,0.499,4.184,1.567,5.659,3.208c1.617,1.934,2.426,4.498,2.426,7.69c0,0.674-0.043,1.392-0.128,2.153h-9.871
		c0.794-2.871,0.383-4.805-1.234-5.801c-2.95-0.82-5.035-0.366-6.254,1.362c-1.674,2.49-1.404,4.468,0.808,5.933
		c6.553,3.457,10.41,6.036,11.573,7.734c1.418,1.729,2.113,4.014,2.085,6.855c-0.113,2.285-0.539,4.278-1.276,5.977
		c-1.05,1.963-2.439,3.75-4.17,5.361c-2.155,1.758-4.354,2.813-6.595,3.164c-1.163,0.146-2.27,0.22-3.318,0.22
		c-1.901,0-3.702-0.147-5.404-0.439c-2.24-0.762-4.24-2.138-5.999-4.131c-1.561-1.67-2.383-4.175-2.468-7.515L395.299,245.203z"/>
	<path style="stroke:#000000;stroke-miterlimit:10;" d="M123.168,304.468h20.636c5.077,0,8.821,1.23,11.232,3.691
		c2.468,2.549,3.702,5.874,3.702,9.976v0.747c-0.313,4.189-1.461,7.705-3.446,10.547c-2.297,3.34-5.191,5.596-8.68,6.768
		l1.702,0.879c1.985,0.762,3.091,2.666,3.318,5.713c0.34,3.369,0.426,7.09,0.255,11.162c-0.17,4.072,0.042,8.452,0.638,13.14
		h-10.935c-0.426-6.094-0.561-10.723-0.404-13.887c0.156-3.164,0.177-5.801,0.064-7.91c-0.426-1.816-1.73-2.9-3.915-3.252
		l-10.211-0.088l-4.553,25.225h-11.105L123.168,304.468z M141.294,313.828h-8.637l-3.532,17.754h7.191
		c5.077-0.469,8.325-2.168,9.743-5.098c2.269-3.896,2.596-7.31,0.979-10.239C145.818,314.429,143.903,313.623,141.294,313.828z"/>
	<path style="stroke:#000000;stroke-miterlimit:10;" d="M183.177,323.013c4.708,0,8.069,1.187,10.084,3.56
		c2.155,2.109,3.318,5.449,3.489,10.02c0.028,0.615,0.042,1.216,0.042,1.802c-0.057,3.486-0.44,6.797-1.149,9.932h-22.167
		c-1.078,5.391-0.482,8.965,1.787,10.723c1.503,0.996,3.12,0.938,4.851-0.176c1.929-1.523,3.248-3.779,3.957-6.768h10.85
		c-1.276,5.391-4.014,9.624-8.212,12.7c-2.723,1.67-5.602,2.505-8.637,2.505c-2.553,0-5.233-0.586-8.042-1.758
		c-4.737-2.988-7.105-7.808-7.105-14.458c0-0.586,0.014-1.187,0.042-1.802c0.879-8.936,3.12-15.63,6.723-20.083
		C172.838,325.313,177.333,323.247,183.177,323.013z M174.923,340.02h12.083c0.397-3.926,0.142-6.636-0.766-8.13
		c-2.298-2.607-5.092-2.432-8.382,0.527C176.242,334.351,175.263,336.885,174.923,340.02z M185.262,306.665l10.381-0.044
		l-11.615,13.975h-6.425L185.262,306.665z"/>
	<path style="stroke:#000000;stroke-miterlimit:10;" d="M227.954,329.473l0.936-5.361h9.999l-7.574,42.759
		c-1.532,7.617-3.915,12.847-7.148,15.688c-2.751,2.695-6.368,4.16-10.85,4.395c-0.965,0.029-1.66,0.044-2.085,0.044h-0.468
		c-3.688,0-6.652-1.187-8.892-3.56c-1.844-2.373-2.907-5.947-3.191-10.723l0.213-2.153l9.786,0.044
		c-0.114,3.516,0.524,5.903,1.915,7.163c2.24,1.201,4.581,0.894,7.021-0.923c2.184-2.139,3.531-7.031,4.042-14.678
		c-1.589,3.018-4.496,4.731-8.723,5.142c-4.794-0.41-8.198-3.384-10.211-8.921c-1.276-5.039-1.404-10.488-0.383-16.348
		c1.872-8.35,5.106-14.106,9.701-17.271c1.673-1.26,3.63-1.89,5.872-1.89c0.482,0,0.979,0.029,1.489,0.088
		c1.049,0,1.971,0.176,2.766,0.527C224.521,324.434,226.45,326.426,227.954,329.473z M211.658,347.622
		c-0.794,7.354,0.908,10.972,5.106,10.854c4.538-0.293,7.389-5.522,8.552-15.688c0.596-7.559-1.164-11.572-5.276-12.041
		C215.586,331.363,212.792,336.988,211.658,347.622z"/>
	<path style="stroke:#000000;stroke-miterlimit:10;" d="M251.372,324.068h10.254l-8.212,43.11H242.99L251.372,324.068z
		 M254.478,307.5h9.871l-1.66,9.888h-9.871L254.478,307.5z"/>
	<path style="stroke:#000000;stroke-miterlimit:10;" d="M298.147,331.231c1.05,2.49,1.574,5.479,1.574,8.965
		c0,1.611-0.113,3.325-0.34,5.142c-0.937,6.709-2.95,11.865-6.042,15.469c-3.489,4.102-7.361,6.372-11.615,6.812
		c-0.88,0.059-1.603,0.088-2.17,0.088c-0.766,0-1.574-0.044-2.425-0.132c-3.518-0.264-6.652-2.52-9.403-6.768
		c-1.504-2.578-2.255-5.977-2.255-10.195c0-1.23,0.07-2.534,0.212-3.911c0.681-7.617,3.191-13.638,7.531-18.062
		c2.979-2.959,5.829-4.6,8.552-4.922c1.191-0.205,2.354-0.308,3.489-0.308h0.383C291.142,323.408,295.312,326.016,298.147,331.231z
		 M280.491,360.103c2.269,0.088,4.141-0.996,5.616-3.252c1.389-2.256,2.524-5.508,3.404-9.756c0.907-4.834,0.836-8.95-0.213-12.349
		c-0.908-2.725-2.354-3.911-4.34-3.56c-2.468-0.352-4.652,1.143-6.552,4.482c-1.419,2.783-2.397,5.947-2.936,9.492
		c-0.482,4.248-0.51,7.5-0.085,9.756C276.122,358.931,277.824,360.659,280.491,360.103z"/>
	<path style="stroke:#000000;stroke-miterlimit:10;" d="M310.759,323.584h9.785l-0.808,7.339c3.091-4.365,6.197-6.87,9.317-7.515
		c0.794-0.088,1.532-0.132,2.213-0.132c1.985,0,3.46,0.352,4.425,1.055c1.957,1.201,3.205,2.974,3.744,5.317
		c0.426,1.699,0.639,3.56,0.639,5.581c0,1.494-0.128,3.076-0.383,4.746l-4.681,27.114h-10.467l4.893-26.631
		c0.539-2.988,0.198-5.2-1.021-6.636c-2.1-1.699-4.354-1.436-6.766,0.791c-1.844,1.816-3.29,5.024-4.34,9.624l-4.084,22.852h-9.871
		l6.808-38.232L310.759,323.584z"/>
	<path style="stroke:#000000;stroke-miterlimit:10;" d="M357.535,337.515l-9.402-0.264c0.17-4.16,2.312-7.676,6.424-10.547
		c3.688-2.139,7.403-3.208,11.148-3.208h0.468c4.793,0.381,8.254,2.153,10.382,5.317c0.879,1.582,1.318,3.457,1.318,5.625
		c0,0.293-0.015,0.601-0.042,0.923c0,1.904-0.241,3.984-0.724,6.24l-4.383,25.532h-10.126l1.063-5.142
		c-2.326,3.779-5.56,5.684-9.701,5.713c-6.58-0.088-10.069-3.809-10.466-11.162c0.255-6.738,3.204-11.396,8.85-13.975
		c3.716-1.553,8.708-2.344,14.977-2.373l0.511-3.647c0.312-3.311-1.036-5.068-4.042-5.273
		C360.84,331.304,358.755,333.384,357.535,337.515z M366.045,347.49l-3.318-0.044c-6.808,1.025-10.184,4.058-10.127,9.097
		c0.511,2.783,1.929,4.146,4.255,4.087C361.336,359.868,364.399,355.489,366.045,347.49z"/>
	<path style="stroke:#000000;stroke-miterlimit:10;" d="M410.822,367.222h-9.786l0.809-7.339c-3.093,4.365-6.198,6.87-9.318,7.515
		c-0.795,0.088-1.531,0.132-2.213,0.132c-1.985,0-3.461-0.352-4.425-1.055c-1.957-1.201-3.205-2.974-3.744-5.317
		c-0.426-1.699-0.638-3.56-0.638-5.581c0-1.494,0.127-3.076,0.383-4.746l4.68-27.114h10.467l-4.893,26.631
		c-0.539,2.988-0.199,5.2,1.021,6.636c2.099,1.699,4.354,1.436,6.765-0.791c1.844-1.816,3.29-5.024,4.34-9.624l4.085-22.852h9.871
		l-6.808,38.232L410.822,367.222z"/>
	<path style="stroke:#000000;stroke-miterlimit:10;" d="M440.537,323.936l3.744,12.788l8.51-12.788h12.254l-16.637,21.797
		l7.105,21.357h-10.637l-3.531-14.37l-8.85,14.326h-11.999l16.679-22.148l-7.021-20.962H440.537z"/>
</g>
</svg>
