<?xml version="1.0" encoding="UTF-8" standalone="no"?>
<!-- Created with Inkscape (http://www.inkscape.org/) -->

<svg
   xmlns:dc="http://purl.org/dc/elements/1.1/"
   xmlns:cc="http://creativecommons.org/ns#"
   xmlns:rdf="http://www.w3.org/1999/02/22-rdf-syntax-ns#"
   xmlns:svg="http://www.w3.org/2000/svg"
   xmlns="http://www.w3.org/2000/svg"
   xmlns:sodipodi="http://sodipodi.sourceforge.net/DTD/sodipodi-0.dtd"
   xmlns:inkscape="http://www.inkscape.org/namespaces/inkscape"
   version="1.1"
   id="svg2"
   width="1659"
   height="1659"
   viewBox="0 0 1659 1659"
   sodipodi:docname="Fr-CE52-Covoiturage.svg"
   inkscape:version="0.92.4 5da689c313, 2019-01-14">
  <metadata
     id="metadata8">
    <rdf:RDF>
      <cc:Work
         rdf:about="">
        <dc:format>image/svg+xml</dc:format>
        <dc:type
           rdf:resource="http://purl.org/dc/dcmitype/StillImage" />
        <dc:title></dc:title>
      </cc:Work>
    </rdf:RDF>
  </metadata>
  <defs
     id="defs6" />
  <sodipodi:namedview
     pagecolor="#ffffff"
     bordercolor="#666666"
     borderopacity="1"
     objecttolerance="10"
     gridtolerance="10"
     guidetolerance="10"
     inkscape:pageopacity="0"
     inkscape:pageshadow="2"
     inkscape:window-width="1920"
     inkscape:window-height="1015"
     id="namedview4"
     showgrid="false"
     inkscape:zoom="0.40357243"
     inkscape:cx="688.14296"
     inkscape:cy="847.13473"
     inkscape:window-x="0"
     inkscape:window-y="576"
     inkscape:window-maximized="1"
     inkscape:current-layer="svg2"
     fit-margin-top="0"
     fit-margin-left="0"
     fit-margin-right="0"
     fit-margin-bottom="0" />
  <rect
     style="fill:#ffffff;fill-opacity:1;stroke:#000000;stroke-width:5;stroke-miterlimit:4;stroke-dasharray:none;stroke-opacity:1;paint-order:markers stroke fill"
     id="rect817"
     width="1654"
     height="1654"
     x="2.5"
     y="2.5"
     ry="126.37137" />
  <path
     style="fill:#0000fd;fill-opacity:1;stroke:none;stroke-width:4.99947166;stroke-miterlimit:4;stroke-dasharray:none;stroke-opacity:1;paint-order:markers stroke fill"
     d="m 120.6621,97.7641 c -12.69764,0 -22.919912,10.22011 -22.919912,22.91508 V 1538.497 c 0,12.695 10.222272,22.9151 22.919912,22.9151 h 1417.8082 c 12.6976,0 22.9199,-10.2201 22.9199,-22.9151 V 120.67918 c 0,-12.69497 -10.2223,-22.91508 -22.9199,-22.91508 z M 239.29098,239.59158 H 1419.5543 V 1419.1745 H 239.29098 Z"
     id="rect819"
     inkscape:connector-curvature="0" />
  <path
     style="fill:#000000"
     d="m 510.53281,1260.751 c -4.6873,-1.6691 -11.4163,-8.3469 -14.6915,-14.5799 l -2.3181,-4.4114 -0.2799,-75.6251 -0.2799,-75.6252 -4.7628,-0.6318 c -2.6196,-0.3475 -8.0842,-2.2235 -12.1438,-4.169 -12.7581,-6.1142 -23.1785,-18.5019 -26.9301,-32.0144 -1.2352,-4.4491 -1.3926,-119.5304 -0.2085,-152.4344 0.6744,-18.739 0.8137,-19.7283 3.5671,-25.3486 6.871,-14.0247 23.9817,-26.5587 40.9657,-30.0084 l 5.9279,-1.204 1.3242,-5.9695 c 0.7283,-3.2833 3.7868,-16.3195 6.7966,-28.9695 3.0099,-12.65 7.1138,-29.975 9.1198,-38.5 2.0061,-8.525 6.03666,-25.4 8.95696,-37.5 2.9203,-12.1 6.7409,-28.2867 8.4902,-35.9704 3.706,-16.2783 6.0417,-23.994 9.4772,-31.307 1.3636,-2.9025 2.4793,-5.5136 2.4793,-5.8024 0,-0.2889 2.476,-4.2849 5.5022,-8.8802 11.092,-16.843 27.5461,-30.8172 42.9127,-36.4451 l 7.0851,-2.5949 225,-0.2763 c 204.01933,-0.2505 225.68413,-0.1258 232.33793,1.3378 9.4361,2.0755 13.1709,3.6609 21.2814,9.0335 16.0847,10.655 30.2028,30.844 37.3458,53.405 2.562,8.0919 4.2587,14.9153 17.0334,68.5 3.0158,12.65 8.6503,36.05 12.5212,52 3.8709,15.95 7.9832,33.2959 9.1385,38.5464 l 2.1005,9.5465 6.6206,1.2129 c 10.8155,1.9814 20.3407,7.3992 30.2065,17.1812 5.1782,5.1341 9.5441,10.4975 11,13.513 l 2.4141,5 0.2719,84.7707 c 0.3025,94.2926 0.5387,90.5812 -6.4272,100.9879 -7.8071,11.6633 -22.3492,21.4588 -33.4391,22.5244 l -4.9056,0.4714 v 75.557 c 0,75.0307 -0.015,75.5877 -2.1282,79.9534 -2.9632,6.121 -10.6743,13.5597 -15.5798,15.0295 -5.225,1.5654 -69.044,1.6798 -74.6119,0.1337 -4.7079,-1.3073 -12.0805,-8.609 -16.1964,-16.0407 l -2.9837,-5.3874 0.3396,-74.75 0.3396,-74.75 H 828.14317 603.08407 l -0.2805,74.8469 c -0.231,61.6609 -0.5222,75.1381 -1.6528,76.5 -0.7549,0.9092 -1.0496,1.6531 -0.655,1.6531 1.158,0 -4.4566,9.2012 -7.8529,12.8692 -5.6196,6.0692 -6.095,6.1352 -43.8376,6.0869 -26.9983,-0.035 -35.12986,-0.3458 -38.27246,-1.4648 z m 292.49036,-230.4913 v -16 l -32.75,-0.015 -32.75,-0.015 21.5,-21.31739 c 27.5883,-27.35401 30.1367,-30.21771 34.6444,-38.93021 4.3311,-8.3715 5.7485,-24.7764 2.9453,-34.0905 -0.7756,-2.5773 -1.4487,-4.8997 -1.4958,-5.1609 -0.6477,-3.5965 -5.9616,-11.3965 -11.5617,-16.9709 -10.8715,-10.8217 -19.3755,-14.358 -36.5322,-15.1913 -13.6837,-0.6647 -19.9209,0.4282 -29.9937,5.2555 -14.877,7.1296 -24.16,20.8667 -27.4606,40.6365 l -0.6178,3.7007 15.6367,0.2993 c 8.6002,0.1646 15.9721,0.074 16.3821,-0.2007 0.4099,-0.275 1.0681,-1.85 1.4625,-3.5 1.3031,-5.4512 5.4078,-10.175 10.8911,-12.5339 8.9502,-3.8502 22.2436,-1.4015 28.438,5.2386 2.939,3.1504 4.4964,11.3229 3.1306,16.4278 -1.1087,4.1439 -4.9409,8.0958 -52.1872,53.81711 l -22.6817,21.94959 v 16.3004 16.3003 h 56.5 56.5 z m 119,-21 v -25.9999 h 26 26 v -12.5 -12.5 h -26 -26 v -26 -26 h -12 c -6.6,0 -12.25349,10e-5 -12.5633,2e-4 -0.30982,10e-5 -0.52114,11.7147 -0.46961,26.0325 l 0.0937,26.0323 -26.0311,-0.2825 -26.03109,-0.2825 7e-4,12.7331 7e-4,12.7331 25.75,0.2669 25.75,0.2669 0.26688,25.7499 0.26688,25.75 h 12.48312 12.48312 z m -366.5357,0.922 c 9.1994,-1.7006 16.031,-5.2536 22.3747,-11.63669 9.7552,-9.81601 14.3197,-23.00671 12.4506,-35.98061 -4.4405,-30.8234 -36.7034,-46.3203 -64.8032,-31.1272 -1.6575,0.8962 -5.34126,4.0906 -8.18626,7.0987 -24.1146,25.4977 -10.1643,66.181 24.69986,72.0319 4.65,0.7804 7.6139,0.6954 13.4643,-0.3861 z m 558.64913,0.073 c 10.869,-2.0285 26.2467,-12.25279 28.3378,-18.84119 0.3759,-1.1844 1.0211,-2.15341 1.4337,-2.15341 0.4126,0 1.7913,-3.1754 3.0636,-7.0564 1.9727,-6.0172 2.2433,-8.484 1.8374,-16.75 -0.5283,-10.7592 -2.8014,-16.7252 -9.5326,-25.0187 -7.1359,-8.7924 -20.9202,-15.1752 -32.7717,-15.1752 -23.4879,0 -42.4817,19.2373 -42.4817,43.0262 0,26.37931 24.3549,46.7757 50.1135,41.9684 z M 627.69917,836.2955 c 14.507,-29.9805 32.0078,-43.7854 55.074,-43.443 l 6.25,0.093 v -6.8055 -6.8055 l -5.8901,-3.9999 c -24.8703,-16.8891 -26.7387,-47.3266 -4.2192,-68.7352 4.2835,-4.0722 13.5049,-8.2206 21.039,-9.4649 23.7269,-3.9184 45.237,11.5375 49.3326,35.4474 2.8407,16.584 -5.0944,33.7789 -20.0123,43.3657 l -5.25,3.3738 v 6.4693 6.4693 h 4.8163 c 8.0743,0 16.3106,1.9595 24.1837,5.7536 9.172,4.42 22.133,16.9569 29,28.0512 2.475,3.9986 6.2001,9.9533 8.2779,13.2327 l 3.7779,5.9625 35.2221,-0.022 35.2221,-0.022 4.40357,-9.2282 c 13.13826,-27.5328 28.43814,-40.6756 50.29072,-43.2003 3.38129,-0.3907 6.48872,-0.2328 7.65004,0.3887 2.54167,1.3603 3.15567,-0.1935 3.15567,-7.9859 0,-5.8113 -0.0645,-5.9464 -4.03653,-8.4538 -10.11368,-6.3845 -18.57776,-17.444 -20.94451,-27.3669 -1.76704,-7.4085 -0.77183,-17.3757 2.51868,-25.2251 10.22755,-24.3973 37.18827,-34.5639 60.5438,-22.8304 18.92345,9.5069 28.12545,35.1323 19.52385,54.3689 -2.4538,5.4877 -7.98699,13.31 -11.58255,16.3743 -0.83751,0.7138 -3.66024,2.6649 -6.27274,4.3358 l -4.75,3.038 v 6.4142 6.4143 h 5.7899 c 19.74409,0 38.54943,12.4114 52.78363,34.837 3.2596,5.1353 6.939,10.8928 8.1765,12.7944 1.2375,1.9015 2.25,3.8874 2.25,4.413 0,0.5833 10.3082,0.9556 26.4651,0.9556 h 26.4652 l 3.451,-3.0301 c 4.0829,-3.5848 6.617,-10.242 6.6226,-17.3981 0,-2.7895 -2.2827,-14.9718 -5.0774,-27.0718 -2.7947,-12.1 -7.5329,-32.575 -10.5295,-45.5 -2.9965,-12.925 -6.1166,-26.425 -6.9334,-30 -5.9492,-26.0357 -8.6638,-36.4696 -10.3386,-39.7372 -2.5171,-4.9106 -10.4354,-12.8703 -15.2439,-15.3234 -3.7273,-1.9016 -8.0288,-1.9394 -220.24083,-1.9394 h -216.4393 l -5.3505,3.5956 c -6.0222,4.047 -9.972,8.2098 -12.804,13.4944 -1.0582,1.9745 -5.5466,18.3995 -9.9742,36.5 -4.4277,18.1005 -11.8802,48.5678 -16.5613,67.7053 -4.681,19.1374 -8.511,36.3611 -8.511,38.2749 0,5.7296 3.6165,14.633 7.1746,17.663 l 3.2097,2.7332 25.0578,0.2668 c 13.7819,0.1467 25.8593,0.2828 26.8388,0.3025 1.2739,0.026 3.0944,-2.6788 6.3951,-9.5 z m 272.64185,2.9283 c 1.63251,-13.784 15.40926,-26.7928 33.31321,-31.4562 7.34129,-1.9121 21.02424,-1.9132 29.12921,0 18.05337,4.2565 32.38722,17.7513 33.99362,32.0036 l 0.5062,4.4906 h 4.49384 4.4938 l -0.453,-5.462 c -0.6914,-8.3373 -6.42314,-19.0528 -13.88844,-25.9643 -11.31664,-10.4772 -25.53674,-15.585 -43.31625,-15.559 -18.88737,0.028 -33.34478,5.4651 -44.41138,16.7031 -7.98642,8.1102 -12.15847,15.968 -12.91648,24.3275 l -0.53996,5.9547 h 4.4996 4.4996 z M 328.17481,481.3246 c -5.8071,-2.1553 -12.8283,-7.3975 -16.1432,-12.0529 -8.2227,-11.5478 -10.387,-39.9605 -4.4614,-58.5698 3.2232,-10.1227 7.023,-14.8684 15.5392,-19.4074 8.7602,-4.6692 17.1665,-5.2486 25.0919,-1.7295 9.6526,4.2859 16.7697,12.1836 18.4213,20.442 0.5718,2.8589 0.4684,2.9372 -6.2591,4.7337 -3.7622,1.0048 -7.3578,2.0134 -7.9902,2.2415 -0.6324,0.228 -1.675,-1.1765 -2.3168,-3.1212 -1.4379,-4.3568 -5.9701,-8.3111 -10.4997,-9.1609 -2.5496,-0.4783 -4.4327,-0.063 -7.4795,1.6494 -5.0676,2.8481 -6.7634,5.3999 -9.1616,13.7858 -2.4919,8.7139 -2.3928,18.4885 0.299,29.4641 1.7864,7.2844 2.811,9.5378 5.543,12.1911 1.8592,1.8056 4.7794,3.4703 6.5584,3.7387 4.4483,0.671 10.1232,-2.4301 13.3388,-7.2892 3.0011,-4.535 3.1406,-4.5622 12.0085,-2.3346 6.4542,1.6212 6.5428,1.6893 5.9647,4.5798 -1.0039,5.0195 -3.6558,9.5877 -7.6719,13.216 -9.2685,8.3736 -20.9594,11.2689 -30.7814,7.6234 z m 97.3484,0.3337 c -10.5896,-3.3453 -18.7493,-11.9212 -21.9429,-23.0624 -6.8945,-24.0514 -2.7002,-52.1242 9.4294,-63.1132 4.4028,-3.9887 12.9823,-7.5931 19.1329,-8.038 7.5887,-0.5489 14.3758,1.906 20.7955,7.5218 6.3466,5.5519 8.9077,9.7825 11.2813,18.6354 3.1428,11.7221 3.4015,23.25 0.8339,37.1579 -1.943,10.5247 -2.7259,12.769 -6.3683,18.2551 -3.4592,5.2104 -5.2882,6.8517 -10.9493,9.8266 -8.13,4.2722 -14.8913,5.1296 -22.2125,2.8168 z m 11.5051,-16.3985 c 3.8664,0 7.595,-4.6345 9.8559,-12.2504 2.839,-9.5632 3.1607,-26.5127 0.6651,-35.0464 -2.2024,-7.5312 -7.789,-13.7032 -12.4034,-13.7032 -3.9284,0 -9.065,2.0963 -11.3005,4.6119 -2.1996,2.4753 -5.6917,15.1835 -6.4267,23.3881 -0.6549,7.3112 1.2638,18.1806 4.5013,25.4996 1.5866,3.5868 2.9327,4.976 6.31,6.512 2.3613,1.0738 4.8925,1.7355 5.625,1.4704 0.7325,-0.2651 2.1604,-0.482 3.1733,-0.482 z m 188.49486,16.9417 c -1.65,-0.4829 -5.475,-2.3564 -8.5,-4.1634 -7.8159,-4.6687 -12.2191,-11.667 -15.6011,-24.7953 -3.6188,-14.0476 -3.1358,-27.8086 1.4756,-42.042 2.7154,-8.3811 3.7356,-10.1942 8.2805,-14.7153 9.3122,-9.2635 22.1632,-11.7094 33.345,-6.3465 10.4466,5.0102 15.3508,12.3123 19.6004,29.1835 1.7589,6.9833 2.0288,10.2467 1.566,18.9373 -0.5933,11.1423 -3.9169,24.4331 -7.6002,30.3928 -6.4465,10.4307 -21.6323,16.7486 -32.5662,13.5489 z m 10,-17.0432 c 5.8457,-1.5933 8.2662,-4.4005 10.6364,-12.3353 2.7014,-9.0442 2.7867,-22.4651 0.2111,-33.2307 -1.4552,-6.0828 -2.6109,-8.5304 -5.4427,-11.5275 -3.928,-4.1574 -6.3572,-4.6486 -13.0587,-2.6408 -8.5128,2.5505 -13.245,19.1578 -10.8731,38.1584 1.5301,12.258 3.3353,16.2827 8.8801,19.7991 5.2313,3.3176 4.4929,3.1816 9.6469,1.7768 z m 566.49993,17.2226 c -9.9087,-3.2638 -18.4652,-10.3511 -21.8776,-18.1211 -7.7241,-17.5876 -6.3923,-50.7101 2.5209,-62.6967 6.8095,-9.1573 15.8775,-14.3033 25.2046,-14.3033 6.189,0 16.6114,4.1016 20.9847,8.2584 3.0948,2.9415 9.1647,13.7269 9.1666,16.2879 4e-4,0.5755 -3.6121,1.9976 -8.0278,3.1604 l -8.0285,2.1141 -2.5079,-4.949 c -4.8571,-9.5851 -17.5943,-10.2336 -22.5906,-1.1503 -3.8639,7.0247 -5.1499,14.1677 -4.5608,25.3333 0.7553,14.317 2.8494,21.538 7.4516,25.6952 3.6538,3.3003 5.541,3.7447 11.1442,2.6241 3.6524,-0.7305 8.5929,-5.4216 10.0194,-9.5137 l 0.9972,-2.8604 h -6.448 -6.448 v -8.5 -8.5 h 16.5 16.5 l -0.035,3.25 c -0.047,4.3411 -2.1107,13.5904 -5.0572,22.6653 -2.9087,8.9585 -7.7499,14.4456 -16.3241,18.5018 -6.1127,2.8918 -14.3672,4.0928 -18.5836,2.704 z M 513.21881,458.0098 c -3.3544,-12.7875 -8.597,-32.925 -11.6503,-44.75 -3.0534,-11.825 -5.8276,-22.5125 -6.165,-23.75 -0.601,-2.2038 -0.4416,-2.2497 7.7531,-2.2347 4.6016,0.01 8.8394,0.3459 9.4173,0.75 0.578,0.404 1.5822,2.9847 2.2318,5.7347 2.6508,11.2232 15.13456,58.7504 15.53756,59.1534 0.2388,0.2387 1.2583,-2.6231 2.2656,-6.3597 1.0073,-3.7365 5.0235,-18.4937 8.925,-32.7937 l 7.0936,-26 9.2775,-0.2886 c 8.521,-0.2651 9.2326,-0.1428 8.7273,1.5 -0.7301,2.3735 -21.6192,82.5881 -22.9266,88.0386 l -1.0195,4.25 h -11.6843 -11.68426 z m 197.80436,-23.75 v -47 h 8.5 8.5 v 47 47 h -8.5 -8.5 z m 75.762,9.25 -0.262,-37.75 -10.25,-0.285 -10.25,-0.285 v -8.965 -8.965 h 29.5 29.5 v 9 9 h -10.5 -10.5 v 38 38 h -8.488 -8.488 z m 93.238,35.7865 c -6.33334,-2.2903 -12.58204,-8.411 -16.8082,-16.464 l -2.662,-5.0725 -0.3527,-35.2903 -0.3527,-35.2902 8.83779,0.2902 8.83781,0.2903 0.5,33.5 c 0.52671,35.2898 0.53779,35.3704 5.49135,40 2.26667,2.1183 3.61631,2.4946 8.84182,2.4649 7.21602,-0.041 10.97224,-2.0337 12.59201,-6.6802 0.67917,-1.9482 1.07482,-14.7775 1.07482,-34.8522 0,-17.4729 0.27314,-32.4808 0.60699,-33.3508 0.48678,-1.2685 2.26916,-1.5817 9,-1.5817 h 8.39301 v 31.668 c 0,18.5923 -0.45552,34.2839 -1.10321,38.0032 -1.6709,9.5951 -6.8735,16.1987 -16.91931,21.4757 -6.23219,3.2737 -18.2468,3.6852 -25.97748,0.8896 z m 94.45793,0.7135 c -0.26361,-0.6875 -0.36199,-21.725 -0.21861,-46.75 l 0.26068,-45.5 13.99999,-0.2846 c 7.7,-0.1564 16.72504,0.1376 20.05554,0.6535 13.1547,2.0376 21.3346,8.5111 26.5326,20.9976 2.6174,6.2871 3.0569,8.4783 2.7213,13.5659 -0.4316,6.5406 -3.952,15.3156 -7.8505,19.5676 -6.6612,7.2652 -6.774,4.88 1.0366,21.9194 3.8524,8.4045 7.0044,15.6858 7.0044,16.1807 0,0.4949 -4.4559,0.8999 -9.9021,0.8999 -9.8951,0 -9.9029,0 -10.8943,-2.75 -0.5458,-1.5125 -3.3684,-7.8125 -6.2727,-14 l -5.2805,-11.25 h -6.82514 -6.8252 v 14 14 h -8.5314 c -5.90279,0 -8.67903,-0.3852 -9.01066,-1.25 z m 32.4003,-43.6791 c 5.4513,-1.0531 9.0058,-3.6467 11.8753,-8.665 2.5994,-4.5457 2.8217,-7.8329 0.8491,-12.5541 -2.7706,-6.6309 -6.3178,-8.4463 -18.3413,-9.3869 l -9.24134,-0.7229 v 16.129 16.129 l 5.25,-0.043 c 2.88754,-0.024 7.21124,-0.4225 9.60824,-0.8856 z m 64.493,43.2176 c 0.2807,-0.9837 2.8447,-10.7885 5.6976,-21.7885 2.8529,-11 6.6592,-25.625 8.4585,-32.5 1.7992,-6.875 4.7418,-18.2512 6.5391,-25.2804 l 3.2679,-12.7804 11.5674,0.2804 11.5674,0.2804 11.7192,46.5 c 6.4455,25.575 11.7444,46.6125 11.7753,46.75 0.031,0.1375 -4.1421,0.25 -9.2734,0.25 h -9.3297 l -1.7191,-8 -1.7191,-8 h -13.4127 -13.4126 l -0.9444,3.75 c -0.5195,2.0625 -1.3401,5.55 -1.8238,7.75 l -0.8793,4 -9.2944,0.2885 c -8.5252,0.2647 -9.2522,0.1406 -8.7839,-1.5 z m 43.6487,-31.8678 c 0,-1.148 -8.1561,-35.9102 -8.508,-36.2621 -0.1983,-0.1983 -0.7911,1.3724 -1.3174,3.4904 -2.146,8.6365 -7.1746,31.2497 -7.1746,32.2633 0,0.6982 3.0435,1.0877 8.5,1.0877 4.675,0 8.5,-0.2607 8.5,-0.5793 z m 171,-13.4207 v -47 h 28.5 28.5 v 9 9 h -19.8621 -19.862 v 10 10 h 14.8996 14.8996 l -0.2876,9.25 -0.2875,9.25 -14.5,0.2027 -14.5,0.2027 v 10.2973 10.2973 l 20.75,0.2702 20.75,0.2703 v 7.9797 7.9798 h -29.5 -29.5 z"
     id="path854"
     inkscape:connector-curvature="0"
     sodipodi:nodetypes="cccccscccccccccsccscccsccccsccscccscccscccscccccccscccccccsccccccccccccccsccccccccccccccccsssccccccccccccscccccsccscccssccccccccsccccccscsccccsccscccsccscccsccsscccsccccscccccscccccccccccccccccccccccccccccccccccccccsccsccccccccssccsccccsscccccccccccccccccccccsccccccccccccccccccscccccccccccccccccccccccccccccccccccccccccccccccccccccscccscscsccccscccccsssscccccccsccccccccccccscccccccsccccccccccsscsssccccccccccccccccccccccccc" />
</svg>
