<?xml version="1.0" encoding="utf-8"?>
<!-- Generator: Adobe Illustrator 15.0.0, SVG Export Plug-In  -->
<!DOCTYPE svg PUBLIC "-//W3C//DTD SVG 1.1//EN" "http://www.w3.org/Graphics/SVG/1.1/DTD/svg11.dtd" [
	<!ENTITY ns_flows "http://ns.adobe.com/Flows/1.0/">
]>
<svg version="1.1"
	 xmlns="http://www.w3.org/2000/svg" xmlns:xlink="http://www.w3.org/1999/xlink" xmlns:a="http://ns.adobe.com/AdobeSVGViewerExtensions/3.0/"
	 x="0px" y="0px" width="576px" height="576px" viewBox="-0.031 -0.031 576 576" enable-background="new -0.031 -0.031 576 576"
	 xml:space="preserve">
<defs>
</defs>
<path fill="#FFFFFF" stroke="#000000" stroke-width="2" stroke-linecap="round" stroke-linejoin="round" d="M41.996,574.938h491.947
	c10.872,0,21.3-4.318,28.988-12.007c7.688-7.688,12.007-18.115,12.007-28.988V41.996c0-10.873-4.319-21.3-12.007-28.988
	C555.242,5.319,544.814,1,533.942,1H41.996c-10.873,0-21.3,4.319-28.988,12.007C5.319,20.695,1,31.123,1,41.996v491.947
	c0,10.873,4.319,21.3,12.007,28.988C20.695,570.619,31.123,574.938,41.996,574.938z"/>
<polygon fill="#0000FF" stroke="#0000FF" stroke-width="0.1764" stroke-linecap="round" stroke-linejoin="round" points="
	37.076,538.862 538.862,538.862 538.862,538.862 538.862,37.076 538.862,37.076 37.076,37.076 37.076,37.076 "/>
<rect x="89.262" y="89.262" fill="#FFFFFF" stroke="#0000FF" stroke-width="0.1764" stroke-linecap="round" stroke-linejoin="round" width="397.414" height="397.414"/>
<path d="M475.969,400.969h-42v-114h15.301l-39.9-45l-39.9-45l-39.9,45l-6.27,7.071c-24.243-6.874-46.508-13.569-64.304-33.868
	c-18.232-20.796-27.852-39.658-36.026-65.204c-5.564,31.074-18.666,56.151-32.95,83.934c-9.621,18.712-28.34,34.297-43.05,49.066
	c25.792-8.938,44.262-24.262,63-43c-7.867,15.626-15.812,31.737-26,46c-12.625,17.676-34.041,27.784-54,35
	c32.075,4.823,74.87-11.498,86-45c-1.958,12.244-4.038,25.194-11.029,35.688c-5.973,8.968-12.523,23.67-23.115,28.031
	c-12.74,5.246-24.794,13.579-36.856,20.28c31.255-1.33,60.418-1.537,81-28c2.013,16.468,2.276,29.939-4.235,45.259
	c-3.363,7.914-6.727,15.827-10.09,23.741H103.969v17h372V400.969z M306.969,400.969h-42.743c-7.435-13.729-14.891-26.821-16.257-43
	c-0.815-9.651-1.333-19.337-2-29c16.146,9.986,28.116,16.385,47.458,13.806c4.514-0.602,9.028-1.204,13.542-1.806V400.969z
	 M306.969,327.35c-11.93-2.623-22.043-6.289-33.917-14.161c-16.545-10.97-21.621-21.37-26.083-39.22
	c14.193,10.645,21.321,26.939,42.513,25.977c5.829-0.265,11.658-0.53,17.487-0.795V327.35z M293.219,282.964
	c-13.073-2.972-24.989-10.641-33.753-20.739c-6.393-7.366-8.659-18.301-12.497-27.256c19.701,22.083,45.335,22.041,71.287,19.758
	L293.219,282.964z M388.969,399.969h-40v-75h40V399.969z"/>
</svg>
