<?xml version="1.0" encoding="utf-8"?>
<!-- Generator: Adobe Illustrator 15.0.0, SVG Export Plug-In  -->
<!DOCTYPE svg PUBLIC "-//W3C//DTD SVG 1.1//EN" "http://www.w3.org/Graphics/SVG/1.1/DTD/svg11.dtd" [
	<!ENTITY ns_flows "http://ns.adobe.com/Flows/1.0/">
]>
<svg version="1.1"
	 xmlns="http://www.w3.org/2000/svg" xmlns:xlink="http://www.w3.org/1999/xlink" xmlns:a="http://ns.adobe.com/AdobeSVGViewerExtensions/3.0/"
	 x="0px" y="0px" width="576px" height="576px" viewBox="-0.031 -0.031 576 576" enable-background="new -0.031 -0.031 576 576"
	 xml:space="preserve">
<defs>
</defs>
<path fill="#FFFFFF" stroke="#000000" stroke-width="2" stroke-linecap="round" stroke-linejoin="round" d="M41.996,574.938h491.947
	c10.872,0,21.3-4.318,28.988-12.007c7.688-7.688,12.007-18.115,12.007-28.988V41.996c0-10.873-4.319-21.3-12.007-28.988
	C555.242,5.319,544.814,1,533.942,1H41.996c-10.873,0-21.3,4.319-28.988,12.007C5.319,20.695,1,31.123,1,41.996v491.947
	c0,10.873,4.319,21.3,12.007,28.988C20.695,570.619,31.123,574.938,41.996,574.938z"/>
<polygon fill="#0000FF" stroke="#0000FF" stroke-width="0.1764" stroke-linecap="round" stroke-linejoin="round" points="
	37.076,538.862 538.862,538.862 538.862,538.862 538.862,37.076 538.862,37.076 37.076,37.076 37.076,37.076 "/>
<rect x="89.262" y="89.262" fill="#FFFFFF" stroke="#0000FF" stroke-width="0.1764" stroke-linecap="round" stroke-linejoin="round" width="397.414" height="397.414"/>
<polygon points="289.78,114.533 287.778,114.016 287.521,114.682 287.209,113.87 281.75,112.461 99.969,183.927 99.969,231.858 
	100.878,234.222 283.129,162.57 470.982,236.425 470.982,185.773 "/>
<path fill="none" d="M165.595,376.987c-8.283-2.838-14.451-9.999-15.62-18.686h-5.485v26h20.253L165.595,376.987z"/>
<path d="M428.771,344.302v16.949c-49.478-6.185-98.954-12.369-148.431-18.554c-18.59-2.324-38.848-6.064-56.37,2.271
	c-15.748,7.492-22.231,23.179-27.31,39.333h-9.297l-2.638-2.666l-2.609-4.897c8.859-3.339,15.141-11.675,15.141-21.438
	c0-12.701-10.631-22.999-23.744-22.999c-10.079,0-18.685,6.086-22.132,14.667h-6.891v-32h-43.532v146.667h43.532v-34.667h284.28v36
	h43.532V344.302H428.771z M144.49,358.302h5.485c1.169,8.687,7.337,15.848,15.62,18.686l-0.852,7.314H144.49V358.302z"/>
</svg>
