<?xml version="1.0" encoding="utf-8"?>
<!-- Generator: Adobe Illustrator 13.0.0, SVG Export Plug-In  -->
<!DOCTYPE svg PUBLIC "-//W3C//DTD SVG 1.1//EN" "http://www.w3.org/Graphics/SVG/1.1/DTD/svg11.dtd" [
	<!ENTITY ns_flows "http://ns.adobe.com/Flows/1.0/">
]>
<svg version="1.1"
	 xmlns="http://www.w3.org/2000/svg" xmlns:xlink="http://www.w3.org/1999/xlink" xmlns:a="http://ns.adobe.com/AdobeSVGViewerExtensions/3.0/"
	 x="0px" y="0px" width="576px" height="576px" viewBox="-0.322 -0.549 576 576" enable-background="new -0.322 -0.549 576 576"
	 xml:space="preserve">
<defs>
</defs>
<path fill="#FFFFFF" stroke="#000000" stroke-linecap="round" stroke-linejoin="round" d="M41.496,574.438h491.946
	c10.872,0,21.3-4.318,28.988-12.007c7.688-7.688,12.007-18.115,12.007-28.988V41.496c0-10.873-4.319-21.301-12.007-28.988
	C554.742,4.819,544.314,0.5,533.442,0.5H41.496c-10.873,0-21.301,4.319-28.988,12.008C4.818,20.195,0.5,30.623,0.5,41.496v491.946
	c0,10.873,4.318,21.3,12.008,28.988C20.195,570.119,30.623,574.438,41.496,574.438z"/>
<path fill="#0000FF" stroke="#000000" d="M544.919,529.72c0,6.744-5.468,12.214-12.214,12.214H42.658
	c-6.745,0-12.213-5.47-12.213-12.214V41.174c0-6.746,5.468-12.215,12.213-12.215h490.047c6.746,0,12.214,5.469,12.214,12.215V529.72
	z"/>
<rect x="80.259" y="76.441" fill="#FFFFFF" width="410.979" height="424.479"/>
<polygon points="313.756,273.929 357.254,272.429 358.754,212.432 340.755,173.434 303.257,183.933 "/>
<polyline points="180.263,252.93 172.763,257.43 172.763,267.929 175.763,275.429 183.263,275.429 240.26,254.43 262.759,225.931 
	264.259,269.429 198.262,413.422 196.762,426.921 204.262,435.92 216.261,438.92 226.761,434.421 232.76,423.921 285.258,309.927 
	291.257,308.427 297.257,315.927 349.754,434.421 358.754,440.42 372.253,440.42 378.253,431.421 379.753,417.921 313.756,267.929 
	319.756,191.433 307.756,174.934 297.257,168.934 276.258,168.934 249.259,197.433 232.76,227.431 180.263,252.93 "/>
<circle cx="289.007" cy="133.686" r="27.749"/>
<rect x="223.604" y="256.668" transform="matrix(0.9132 -0.4075 0.4075 0.9132 -123.575 123.1594)" width="7.448" height="190.004"/>
</svg>
