<?xml version="1.0" encoding="utf-8"?>
<!-- Generator: Adobe Illustrator 15.0.0, SVG Export Plug-In  -->
<!DOCTYPE svg PUBLIC "-//W3C//DTD SVG 1.1//EN" "http://www.w3.org/Graphics/SVG/1.1/DTD/svg11.dtd" [
	<!ENTITY ns_flows "http://ns.adobe.com/Flows/1.0/">
]>
<svg version="1.1"
	 xmlns="http://www.w3.org/2000/svg" xmlns:xlink="http://www.w3.org/1999/xlink" xmlns:a="http://ns.adobe.com/AdobeSVGViewerExtensions/3.0/"
	 x="0px" y="0px" width="576px" height="576px" viewBox="-0.031 -0.031 576 576" enable-background="new -0.031 -0.031 576 576"
	 xml:space="preserve">
<defs>
</defs>
<path fill="#FFFFFF" stroke="#000000" stroke-width="2" stroke-linecap="round" stroke-linejoin="round" d="M41.996,574.938h491.947
	c10.872,0,21.3-4.318,28.988-12.007c7.688-7.688,12.007-18.115,12.007-28.988V41.996c0-10.873-4.319-21.3-12.007-28.988
	C555.242,5.319,544.814,1,533.942,1H41.996c-10.873,0-21.3,4.319-28.988,12.007C5.319,20.695,1,31.123,1,41.996v491.947
	c0,10.873,4.319,21.3,12.007,28.988C20.695,570.619,31.123,574.938,41.996,574.938z"/>
<polygon fill="#0000FF" stroke="#0000FF" stroke-width="0.1764" stroke-linecap="round" stroke-linejoin="round" points="
	37.076,538.862 538.862,538.862 538.862,538.862 538.862,37.076 538.862,37.076 37.076,37.076 37.076,37.076 "/>
<rect x="89.262" y="89.262" fill="#FFFFFF" stroke="#0000FF" stroke-width="0.1764" stroke-linecap="round" stroke-linejoin="round" width="397.414" height="397.414"/>
<polygon fill="none" points="274.302,295.302 154.969,398.969 154.463,404.285 153.509,414.302 286.433,414.302 306.969,341.636 
	307.302,338.302 305.636,332.636 "/>
<polygon fill="none" points="407.703,242.266 402.926,241.907 400.636,240.635 399.302,239.969 396.636,236.969 371.302,218.635 
	306.636,275.635 305.969,280.635 332.969,323.636 335.969,328.969 336.636,334.302 336.636,341.969 314.302,408.636 
	321.135,414.302 327.067,414.302 443.903,221.152 "/>
<path d="M474.802,398.469l-1.666-1.5l-2.5-0.167l-1.667,0.334l-1.833,1.666l-11,13.334l-3,1.333l-2.667,0.667l-3.333,0.166h-1.167
	H335.637l121.508-200.873l8.488-4.951l-0.07-0.121c5.931-3.579,8.572-10.114,5.895-14.705c-2.679-4.591-9.667-5.509-15.701-2.108
	l-0.006-0.008l-47.146,27.498l-3.636-1.398l-22.667-15l-2.666-2.667l2.445-3.762c3.246,1.556,6.882,2.429,10.722,2.429
	c13.715,0,24.833-11.118,24.833-24.833c0-13.715-11.118-24.833-24.833-24.833c-13.716,0-24.834,11.118-24.834,24.833
	c0,4.021,0.962,7.815,2.658,11.175l-8.991,7.992l-10.334-5.333l-4.333-2l-6-0.667l-80.942,6.634l-0.682,0.032h-4.042l-0.823,0.229
	l-3.352,0.158l-1.737,1.256l-0.087,0.024l-7,4.667l0.144,0.328l-39.629,28.648l0.089,0.124c-3.773,2.822-5.79,6.997-5.63,10.856
	l-93.134,47.601l2.556,5.002l92.506-47.279c3.474,4.438,10.561,4.893,16.125,1.005l0.006,0.008l42.159-30.478l36.474-0.816
	l-45.333,44.667l-3,4l-1,3.667l-0.667,5.333l0.333,8.333l-119,112.667l-1.333,4l-1,1.666v4.667l-0.493,12.333h-15.507v9.667h342
	v-0.26l2.333,0.093l2-0.333l2.667-0.5l2-1l2.333-1.167l15.834-19.166L474.802,398.469z M306.969,341.636l-20.536,72.666H153.509
	l0.954-10.017l0.506-5.316l119.333-103.667l31.333,37.334l1.666,5.666L306.969,341.636z M321.135,414.302l-6.833-5.666
	l22.334-66.667v-7.667l-0.667-5.333l-3-5.333l-27-43l0.667-5l64.666-57l25.334,18.333l2.666,3l1.334,0.667l2.29,1.272l4.777,0.358
	l36.2-21.114l-116.836,193.15H321.135z"/>
</svg>
