<?xml version="1.0" encoding="utf-8"?>
<!-- Generator: Adobe Illustrator 15.0.0, SVG Export Plug-In  -->
<!DOCTYPE svg PUBLIC "-//W3C//DTD SVG 1.1//EN" "http://www.w3.org/Graphics/SVG/1.1/DTD/svg11.dtd" [
	<!ENTITY ns_flows "http://ns.adobe.com/Flows/1.0/">
]>
<svg version="1.1"
	 xmlns="http://www.w3.org/2000/svg" xmlns:xlink="http://www.w3.org/1999/xlink" xmlns:a="http://ns.adobe.com/AdobeSVGViewerExtensions/3.0/"
	 x="0px" y="0px" width="576px" height="576px" viewBox="-0.031 -0.031 576 576" enable-background="new -0.031 -0.031 576 576"
	 xml:space="preserve">
<defs>
</defs>
<path fill="#FFFFFF" stroke="#000000" stroke-width="2" stroke-linecap="round" stroke-linejoin="round" d="M41.996,574.938h491.947
	c10.872,0,21.3-4.318,28.988-12.007c7.688-7.688,12.007-18.115,12.007-28.988V41.996c0-10.873-4.319-21.3-12.007-28.988
	C555.242,5.319,544.814,1,533.942,1H41.996c-10.873,0-21.3,4.319-28.988,12.007C5.319,20.695,1,31.123,1,41.996v491.947
	c0,10.873,4.319,21.3,12.007,28.988C20.695,570.619,31.123,574.938,41.996,574.938z"/>
<polygon fill="#0000FF" stroke="#0000FF" stroke-width="0.1764" stroke-linecap="round" stroke-linejoin="round" points="
	37.076,538.862 538.862,538.862 538.862,538.862 538.862,37.076 538.862,37.076 37.076,37.076 37.076,37.076 "/>
<rect x="89.262" y="89.262" fill="#FFFFFF" stroke="#0000FF" stroke-width="0.1764" stroke-linecap="round" stroke-linejoin="round" width="397.414" height="397.414"/>
<path d="M391.835,413.969c-15.128-25.337-22.117-47.149-24.533-77.333c29.176,12.109,54.036,8.29,84.334,1.667
	c-37.563-9.392-62.205-29.115-84.667-60c22.086,22.631,54.385,26.923,84,23.333c-37.521-3.98-72.694-34.886-90-67.333
	c23.349,24.748,55.308,28.832,87.333,22.667c-51.484-13.697-87.722-58.344-106-106.667c-7.143,51.325-33.527,101.722-71.333,136.667
	c24.841-4.932,42.456-23.665,59.333-41.667c-10.511,33.781-37.757,64.719-68,82c33.354-2.085,56.854-21.12,78.333-45.667
	c-11.445,35.969-33.364,60.106-63,82.333c27.736-0.66,52.633-2.987,72.667-23.666c0.967,27.847-6.443,49.73-17.904,73.666h-57.095
	v-14.333h12.333v-11h-35.333v11h11v14.333h-47v-35h38.333v-13.333h-104v13.333h38.667v35h-47.667v-14h12.333v-11h-35.333v11h11v14
	h-18.667v17.001h360.667v-17.001H391.835z"/>
</svg>
