<?xml version="1.0" encoding="utf-8"?>
<!-- Generator: Adobe Illustrator 15.0.0, SVG Export Plug-In  -->
<!DOCTYPE svg PUBLIC "-//W3C//DTD SVG 1.1//EN" "http://www.w3.org/Graphics/SVG/1.1/DTD/svg11.dtd" [
	<!ENTITY ns_flows "http://ns.adobe.com/Flows/1.0/">
]>
<svg version="1.1"
	 xmlns="http://www.w3.org/2000/svg" xmlns:xlink="http://www.w3.org/1999/xlink" xmlns:a="http://ns.adobe.com/AdobeSVGViewerExtensions/3.0/"
	 x="0px" y="0px" width="576px" height="576px" viewBox="-0.031 -0.031 576 576" enable-background="new -0.031 -0.031 576 576"
	 xml:space="preserve">
<defs>
</defs>
<path fill="#FFFFFF" stroke="#000000" stroke-width="2" stroke-linecap="round" stroke-linejoin="round" d="M41.996,574.938h491.947
	c10.872,0,21.3-4.318,28.988-12.007c7.688-7.688,12.007-18.115,12.007-28.988V41.996c0-10.873-4.319-21.3-12.007-28.988
	C555.242,5.319,544.814,1,533.942,1H41.996c-10.873,0-21.3,4.319-28.988,12.007C5.319,20.695,1,31.123,1,41.996v491.947
	c0,10.873,4.319,21.3,12.007,28.988C20.695,570.619,31.123,574.938,41.996,574.938z"/>
<polygon fill="#0000FF" stroke="#0000FF" stroke-width="0.1764" stroke-linecap="round" stroke-linejoin="round" points="
	37.076,538.862 538.862,538.862 538.862,538.862 538.862,37.076 538.862,37.076 37.076,37.076 37.076,37.076 "/>
<rect x="89.262" y="89.262" fill="#FFFFFF" stroke="#0000FF" stroke-width="0.1764" stroke-linecap="round" stroke-linejoin="round" width="397.414" height="397.414"/>
<polygon fill="none" points="320.924,332.094 353.302,332.315 353.302,316.636 334.302,316.636 "/>
<polygon fill="none" points="357.302,316.636 357.302,332.343 390.136,332.568 375.302,316.636 "/>
<path d="M428.636,336.636l-28.667-4l-1.67-0.012l-21.663-19.321h-46.667l-19.345,18.721l-7.988-0.055l-0.667,2.667l-0.667,14
	l6.667,2h7.034c0.347,4.105,3.852,7.333,8.132,7.333c4.281,0,7.786-3.228,8.133-7.333h72.402c0.347,4.105,3.852,7.333,8.132,7.333
	c4.281,0,7.786-3.228,8.133-7.333h4.034l4-2l3.333-2l0.667-6.667L428.636,336.636z M353.302,332.315l-32.378-0.222l13.378-15.458h19
	V332.315z M357.302,332.343v-15.707h18l14.834,15.933L357.302,332.343z"/>
<polygon fill="none" points="161.59,332.427 193.968,332.648 193.968,316.969 174.968,316.969 "/>
<polygon fill="none" points="197.968,316.969 197.968,332.676 230.802,332.901 215.968,316.969 "/>
<path d="M269.302,336.969l-28.667-4l-1.67-0.012l-21.663-19.321h-46.667l-19.345,18.721l-7.988-0.055l-0.667,2.667l-0.667,14
	l6.667,2h7.034c0.347,4.105,3.852,7.333,8.132,7.333c4.281,0,7.786-3.228,8.133-7.333h72.402c0.347,4.105,3.852,7.333,8.132,7.333
	c4.281,0,7.786-3.228,8.133-7.333h4.034l4-2l3.333-2l0.667-6.667L269.302,336.969z M193.968,332.648l-32.378-0.222l13.378-15.458h19
	V332.648z M197.968,332.676v-15.707h18l14.834,15.933L197.968,332.676z"/>
<polygon points="468.636,358.969 468.636,367.636 455.636,367.636 455.636,357.636 118.302,357.636 118.302,367.636 
	105.302,367.636 105.302,357.969 96.302,357.969 96.302,388.969 105.302,388.969 105.302,379.303 468.636,379.303 468.636,389.969 
	477.636,389.969 477.636,358.969 "/>
<ellipse cx="149.969" cy="392.469" rx="15" ry="15.5"/>
<ellipse cx="183.969" cy="392.469" rx="15" ry="15.5"/>
<ellipse cx="390.635" cy="392.469" rx="15" ry="15.5"/>
<ellipse cx="423.968" cy="392.469" rx="15" ry="15.5"/>
</svg>
