<?xml version="1.0" encoding="utf-8"?>
<!-- Generator: Adobe Illustrator 15.0.0, SVG Export Plug-In  -->
<!DOCTYPE svg PUBLIC "-//W3C//DTD SVG 1.1//EN" "http://www.w3.org/Graphics/SVG/1.1/DTD/svg11.dtd" [
	<!ENTITY ns_flows "http://ns.adobe.com/Flows/1.0/">
]>
<svg version="1.1"
	 xmlns="http://www.w3.org/2000/svg" xmlns:xlink="http://www.w3.org/1999/xlink" xmlns:a="http://ns.adobe.com/AdobeSVGViewerExtensions/3.0/"
	 x="0px" y="0px" width="576px" height="567px" viewBox="-0.031 -0.031 576 567" enable-background="new -0.031 -0.031 576 567"
	 xml:space="preserve">
<defs>
</defs>
<path fill="#FFFFFF" stroke="#000000" stroke-width="2" stroke-linecap="round" stroke-linejoin="round" d="M41.996,565.938h491.947
	c10.872,0,21.3-4.251,28.988-11.818c7.688-7.568,12.007-17.831,12.007-28.534V41.353c0-10.702-4.319-20.966-12.007-28.534
	C555.242,5.251,544.814,1,533.942,1H41.996c-10.873,0-21.3,4.251-28.988,11.819C5.319,20.387,1,30.651,1,41.353v484.232
	c0,10.703,4.319,20.966,12.007,28.534C20.695,561.687,31.123,565.938,41.996,565.938z"/>
<polygon fill="#0000FF" stroke="#0000FF" stroke-width="0.1764" stroke-linecap="round" stroke-linejoin="round" points="
	37.076,529.862 538.862,529.862 538.862,529.862 538.862,28.076 538.862,28.076 37.076,28.076 37.076,28.076 "/>
<rect x="89.262" y="80.262" fill="#FFFFFF" stroke="#0000FF" stroke-width="0.1764" stroke-linecap="round" stroke-linejoin="round" width="397.414" height="397.414"/>
<path fill="#FFFFFF" d="M273.891,312.82c-4.135-0.645-9.194-0.492-14.505,0.612c-5.456,1.136-10.266,3.089-13.832,5.411
	l-1.132-9.532c3.36-2.333,7.956-4.276,13.195-5.367c5.197-1.082,10.148-1.142,14.143-0.362"/>
<path fill="#FFFFFF" d="M278.451,330.752c-1.662-4.651-9.76-6.007-18.09-3.03c-8.329,2.974-13.735,9.156-12.073,13.807
	c0.096,0.268,0.213,0.524,0.35,0.771l2.983,8.063c-1.662-4.65,3.744-10.833,12.073-13.807c8.33-2.977,16.428-1.621,18.09,3.03
	c0.036,0.1,0.068,0.2,0.097,0.302"/>
<path d="M268.1,304.102c0,40.692-29.78,73.68-66.515,73.68H165.86v55.089v1.778h-38.986V230.42h74.711
	C238.319,230.42,268.1,263.408,268.1,304.102z M214.479,306.794c0-15.194-11.119-27.512-24.835-27.512h-21.706v54.325
	c7.229,0.464,14.466,0.697,21.706,0.697C203.36,334.305,214.479,321.988,214.479,306.794z"/>
<polygon points="401.97,210.554 456.752,167.261 405.229,102.065 296.83,187.73 309.271,203.472 305.608,204.085 259.982,211.723 
	289.804,249.773 319.626,287.822 335.429,242.136 336.768,238.265 348.354,252.925 382.957,225.579 393.303,225.579 
	393.303,288.912 395.97,288.912 401.97,288.912 449.303,288.912 449.303,270.246 401.97,270.246 "/>
</svg>
