<?xml version="1.0" encoding="UTF-8" standalone="no"?>
<!-- Generator: Adobe Illustrator 13.0.0, SVG Export Plug-In  -->

<svg
   xmlns:dc="http://purl.org/dc/elements/1.1/"
   xmlns:cc="http://creativecommons.org/ns#"
   xmlns:rdf="http://www.w3.org/1999/02/22-rdf-syntax-ns#"
   xmlns:svg="http://www.w3.org/2000/svg"
   xmlns="http://www.w3.org/2000/svg"
   xmlns:sodipodi="http://sodipodi.sourceforge.net/DTD/sodipodi-0.dtd"
   xmlns:inkscape="http://www.inkscape.org/namespaces/inkscape"
   version="1.1"
   x="0px"
   y="0px"
   width="573.93903"
   height="374.30801"
   viewBox="-0.781 -0.597 573.93903 374.30801"
   enable-background="new -0.781 -0.597 576 376"
   xml:space="preserve"
   id="svg2"
   inkscape:version="0.48.4 r9939"
   sodipodi:docname="AJAX.svg"><metadata
   id="metadata38"><rdf:RDF><cc:Work
       rdf:about=""><dc:format>image/svg+xml</dc:format><dc:type
         rdf:resource="http://purl.org/dc/dcmitype/StillImage" /></cc:Work></rdf:RDF></metadata><sodipodi:namedview
   pagecolor="#ffffff"
   bordercolor="#666666"
   borderopacity="1"
   objecttolerance="10"
   gridtolerance="10"
   guidetolerance="10"
   inkscape:pageopacity="0"
   inkscape:pageshadow="2"
   inkscape:window-width="1280"
   inkscape:window-height="1001"
   id="namedview36"
   showgrid="false"
   fit-margin-top="0"
   fit-margin-left="0"
   fit-margin-right="0"
   fit-margin-bottom="0"
   inkscape:zoom="0.85710317"
   inkscape:cx="353.33716"
   inkscape:cy="246.61496"
   inkscape:window-x="-8"
   inkscape:window-y="-8"
   inkscape:window-maximized="1"
   inkscape:current-layer="svg2" />
<defs
   id="defs4">
</defs>
<path
   d="m 24.173,-0.5970033 h 524.031 c 6.617,0 12.965,2.629 17.645,7.309 4.68,4.6800003 7.309,11.0270003 7.309,17.6450003 V 348.757 c 0,6.618 -2.629,12.965 -7.309,17.645 -4.68,4.68 -11.027,7.309 -17.645,7.309 H 24.173 c -6.618,0 -12.965,-2.629 -17.645,-7.309 -4.68,-4.68 -7.309,-11.027 -7.309,-17.645 V 24.356997 c 0,-6.618 2.629,-12.965 7.309,-17.6450003 4.68,-4.68 11.026,-7.309 17.645,-7.309 z"
   id="path6"
   style="fill:#b9b9b9;stroke:none"
   inkscape:connector-curvature="0" />














<path
   style="color:#000000;fill:#ffffff;fill-opacity:1;fill-rule:nonzero;stroke:none;stroke-width:1;marker:none;visibility:visible;display:inline;overflow:visible;enable-background:accumulate"
   d="M 43.78121,80.051176 483.7101,362.87901 539.79901,349.60189 528.5948,293.06239 88.66591,10.234556 32.577,23.511666 z"
   id="rect2997"
   inkscape:connector-curvature="0"
   sodipodi:nodetypes="ccccccc" /><path
   style="color:#000000;fill:#c4121e;fill-opacity:0.98823738;fill-rule:nonzero;stroke:none;stroke-width:1;marker:none;visibility:visible;display:inline;overflow:visible;enable-background:accumulate"
   d="m 526.5219,293.51296 -43.2624,67.29312 -33.64659,-21.63118 43.26239,-67.29313 z m -67.29316,-43.26238 -43.26237,67.29313 -33.64657,-21.63118 43.26237,-67.29315 z m -67.29311,-43.26239 -43.2624,67.29315 -33.64656,-21.63121 43.26238,-67.29314 z m -67.29314,-43.26238 -43.2624,67.29314 -33.64657,-21.63121 43.26239,-67.29313 z m -67.29316,-43.26238 -43.26237,67.29313 -33.64658,-21.63119 43.2624,-67.293134 z M 190.05621,77.201036 146.79383,144.49418 113.14726,122.86298 156.40964,55.569846 z M 122.76308,33.938646 79.50069,101.23179 45.85411,79.600596 89.1165,12.307456 z"
   id="path3779"
   inkscape:connector-curvature="0"
   sodipodi:nodetypes="ccccccccccccccccccccccccccccccccccc" /><path
   sodipodi:nodetypes="ccccccc"
   inkscape:connector-curvature="0"
   id="path3039"
   d="M 528.5948,80.051176 88.66594,362.87901 32.57701,349.60189 43.78121,293.06239 483.7101,10.234556 539.799,23.511666 z"
   style="color:#000000;fill:#ffffff;fill-opacity:1;fill-rule:nonzero;stroke:none;stroke-width:1;marker:none;visibility:visible;display:inline;overflow:visible;enable-background:accumulate" /><path
   sodipodi:nodetypes="ccccccccccccccccccccccccccccccccccc"
   inkscape:connector-curvature="0"
   id="path3041"
   d="M 45.85412,293.51296 89.1165,360.80608 122.76309,339.1749 79.5007,271.88177 z m 67.29314,-43.26238 43.26237,67.29313 33.64657,-21.63118 -43.26237,-67.29315 z m 67.29311,-43.26239 43.2624,67.29315 33.64656,-21.63121 -43.26238,-67.29314 z m 67.29314,-43.26238 43.2624,67.29314 33.64657,-21.63121 -43.26239,-67.29313 z m 67.29316,-43.26238 43.26237,67.29313 33.64658,-21.63119 -43.2624,-67.293134 z m 67.29312,-43.262394 43.26238,67.293144 33.64657,-21.6312 -43.26238,-67.293134 z m 67.29313,-43.26239 43.26238,67.293144 33.6466,-21.631194 -43.2624,-67.29314 z"
   style="color:#000000;fill:#c4121e;fill-opacity:0.98823738;fill-rule:nonzero;stroke:none;stroke-width:1;marker:none;visibility:visible;display:inline;overflow:visible;enable-background:accumulate" /></svg>