<?xml version="1.0" encoding="UTF-8" standalone="no"?>
<!-- Generator: Adobe Illustrator 13.0.0, SVG Export Plug-In  -->

<svg
   version="1.1"
   x="0px"
   y="0px"
   width="574.43945"
   height="474.6582"
   viewBox="-0.781 -0.597 574.43946 474.6582"
   enable-background="new -0.781 -0.597 576 376"
   xml:space="preserve"
   id="svg2"
   inkscape:version="1.2.2 (732a01da63, 2022-12-09)"
   sodipodi:docname="France_road_sign_G1.svg"
   xmlns:inkscape="http://www.inkscape.org/namespaces/inkscape"
   xmlns:sodipodi="http://sodipodi.sourceforge.net/DTD/sodipodi-0.dtd"
   xmlns="http://www.w3.org/2000/svg"
   xmlns:svg="http://www.w3.org/2000/svg"
   xmlns:rdf="http://www.w3.org/1999/02/22-rdf-syntax-ns#"
   xmlns:cc="http://creativecommons.org/ns#"
   xmlns:dc="http://purl.org/dc/elements/1.1/"><metadata
   id="metadata38"><rdf:RDF><cc:Work
       rdf:about=""><dc:format>image/svg+xml</dc:format><dc:type
         rdf:resource="http://purl.org/dc/dcmitype/StillImage" /></cc:Work></rdf:RDF></metadata><sodipodi:namedview
   pagecolor="#ffffff"
   bordercolor="#666666"
   borderopacity="1"
   objecttolerance="10"
   gridtolerance="10"
   guidetolerance="10"
   inkscape:pageopacity="0"
   inkscape:pageshadow="2"
   inkscape:window-width="1920"
   inkscape:window-height="991"
   id="namedview36"
   showgrid="false"
   fit-margin-top="0"
   fit-margin-left="0"
   fit-margin-right="0"
   fit-margin-bottom="0"
   inkscape:zoom="0.85710317"
   inkscape:cx="273.596"
   inkscape:cy="400.76856"
   inkscape:window-x="-9"
   inkscape:window-y="-9"
   inkscape:window-maximized="1"
   inkscape:current-layer="svg2"
   inkscape:showpageshadow="2"
   inkscape:pagecheckerboard="0"
   inkscape:deskcolor="#d1d1d1"
   showguides="true" />
<defs
   id="defs4">
</defs>
<path
   id="rect3957"
   style="opacity:1;fill:#b9b9b9;fill-opacity:1;fill-rule:evenodd;stroke:none;stroke-width:0.5;stroke-linecap:round;stroke-linejoin:round;stroke-dasharray:none;stroke-opacity:1;paint-order:stroke fill markers"
   d="M 24.547125,-0.347 C 10.653968,-0.347 -0.531,10.837968 -0.531,24.731125 V 448.73308 c 0,13.89316 11.184968,25.07812 25.078125,25.07812 H 548.33033 c 13.89316,0 25.07812,-11.18496 25.07812,-25.07812 V 24.731125 C 573.40845,10.837968 562.22349,-0.347 548.33033,-0.347 Z" />














<path
   style="color:#000000;display:inline;overflow:visible;visibility:visible;fill:#ffffff;fill-opacity:1;fill-rule:nonzero;stroke:none;stroke-width:1;marker:none;enable-background:accumulate"
   d="M 44.03121,80.301176 483.9601,363.12901 540.04901,349.85189 528.8448,293.31239 88.91591,10.484556 32.827,23.761666 Z"
   id="rect2997"
   inkscape:connector-curvature="0"
   sodipodi:nodetypes="ccccccc" /><path
   style="color:#000000;display:inline;overflow:visible;visibility:visible;fill:#c4121e;fill-opacity:0.988237;fill-rule:nonzero;stroke:none;stroke-width:1;marker:none;enable-background:accumulate"
   d="m 526.7719,293.76296 -43.2624,67.29312 -33.64659,-21.63118 43.26239,-67.29313 z m -67.29316,-43.26238 -43.26237,67.29313 -33.64657,-21.63118 43.26237,-67.29315 z m -67.29311,-43.26239 -43.2624,67.29315 -33.64656,-21.63121 43.26238,-67.29314 z m -67.29314,-43.26238 -43.2624,67.29314 -33.64657,-21.63121 43.26239,-67.29313 z m -67.29316,-43.26238 -43.26237,67.29313 -33.64658,-21.63119 43.2624,-67.293134 z M 190.30621,77.451036 147.04383,144.74418 113.39726,123.11298 156.65964,55.819846 Z M 123.01308,34.188646 79.75069,101.48179 46.10411,79.850596 89.3665,12.557456 Z"
   id="path3779"
   inkscape:connector-curvature="0"
   sodipodi:nodetypes="ccccccccccccccccccccccccccccccccccc" /><path
   sodipodi:nodetypes="ccccccc"
   inkscape:connector-curvature="0"
   id="path3039"
   d="M 528.8448,80.301176 88.91594,363.12901 32.82701,349.85189 44.03121,293.31239 483.9601,10.484556 540.049,23.761666 Z"
   style="color:#000000;display:inline;overflow:visible;visibility:visible;fill:#ffffff;fill-opacity:1;fill-rule:nonzero;stroke:none;stroke-width:1;marker:none;enable-background:accumulate" /><path
   sodipodi:nodetypes="ccccccccccccccccccccccccccccccccccc"
   inkscape:connector-curvature="0"
   id="path3041"
   d="M 46.10412,293.76296 89.3665,361.05608 123.01309,339.4249 79.7507,272.13177 Z m 67.29314,-43.26238 43.26237,67.29313 33.64657,-21.63118 -43.26237,-67.29315 z m 67.29311,-43.26239 43.2624,67.29315 33.64656,-21.63121 -43.26238,-67.29314 z m 67.29314,-43.26238 43.2624,67.29314 33.64657,-21.63121 -43.26239,-67.29313 z m 67.29316,-43.26238 43.26237,67.29313 33.64658,-21.63119 -43.2624,-67.293134 z m 67.29312,-43.262394 43.26238,67.293144 33.64657,-21.6312 -43.26238,-67.293134 z m 67.29313,-43.26239 43.26238,67.293144 33.6466,-21.631194 -43.2624,-67.29314 z"
   style="color:#000000;display:inline;overflow:visible;visibility:visible;fill:#c4121e;fill-opacity:0.988237;fill-rule:nonzero;stroke:none;stroke-width:1;marker:none;enable-background:accumulate" /><path
   id="path4252"
   style="color:#000000;display:inline;overflow:visible;visibility:visible;fill:#ffffff;fill-opacity:1;fill-rule:nonzero;stroke:none;stroke-width:1;marker:none;enable-background:accumulate"
   d="m 286.26586,241.69845 -1.3848,0.89062 -75.3554,48.44532 -165.6661,106.50586 -11.205,56.53902 56.0898,13.2774 197.5215,-126.98635 197.52343,126.98635 56.08789,-13.2774 -11.20313,-56.53902 z" /><path
   id="path4260"
   style="color:#000000;display:inline;overflow:visible;visibility:visible;fill:#c51420;fill-opacity:1;fill-rule:nonzero;stroke:none;stroke-width:1;marker:none;enable-background:accumulate"
   d="m 286.18576,243.42892 -33.6465,21.63086 0.047,0.0742 -4.7734,3.06835 11.2226,17.45704 3.4551,5.37304 3.2813,5.10352 17.041,26.50781 3.455,5.37305 3.3731,-5.24805 11.0664,-17.21289 9.3359,-14.52344 14.6778,-22.83008 -4.8887,-3.14257 -28.7578,-18.48828 z m -72.0215,46.40429 -33.6465,21.63282 43.2637,67.29297 33.6465,-21.63282 z m 144.2032,0 -43.2618,67.29297 33.6465,21.63282 43.2617,-67.29297 z m -211.4961,43.26368 -33.6465,21.63086 43.2636,67.29292 33.6465,-21.63082 z m 278.789,0 -43.2617,67.29296 33.6465,21.63082 43.26173,-67.29292 z m -346.082,43.26171 -33.6465,21.63086 43.2637,67.29301 33.6465,-21.6309 z m 413.37501,0 -43.26172,67.29297 33.64649,21.6309 43.26172,-67.29301 z" /></svg>
