<?xml version="1.0" encoding="UTF-8" standalone="no"?>
<!-- Generator: Adobe Illustrator 13.0.0, SVG Export Plug-In  -->

<svg
   version="1.1"
   x="0px"
   y="0px"
   width="574.43945"
   height="737.20117"
   viewBox="-0.781 -0.597 574.43946 737.20119"
   enable-background="new -0.781 -0.597 576 376"
   xml:space="preserve"
   id="svg2"
   inkscape:version="1.2.2 (732a01da63, 2022-12-09)"
   sodipodi:docname="France_road_sign_G1_bis.svg"
   xmlns:inkscape="http://www.inkscape.org/namespaces/inkscape"
   xmlns:sodipodi="http://sodipodi.sourceforge.net/DTD/sodipodi-0.dtd"
   xmlns="http://www.w3.org/2000/svg"
   xmlns:svg="http://www.w3.org/2000/svg"
   xmlns:rdf="http://www.w3.org/1999/02/22-rdf-syntax-ns#"
   xmlns:cc="http://creativecommons.org/ns#"
   xmlns:dc="http://purl.org/dc/elements/1.1/"><metadata
   id="metadata38"><rdf:RDF><cc:Work
       rdf:about=""><dc:format>image/svg+xml</dc:format><dc:type
         rdf:resource="http://purl.org/dc/dcmitype/StillImage" /></cc:Work></rdf:RDF></metadata><sodipodi:namedview
   pagecolor="#ffffff"
   bordercolor="#666666"
   borderopacity="1"
   objecttolerance="10"
   gridtolerance="10"
   guidetolerance="10"
   inkscape:pageopacity="0"
   inkscape:pageshadow="2"
   inkscape:window-width="1920"
   inkscape:window-height="991"
   id="namedview36"
   showgrid="false"
   fit-margin-top="0"
   fit-margin-left="0"
   fit-margin-right="0"
   fit-margin-bottom="0"
   inkscape:zoom="2.4779157"
   inkscape:cx="519.99347"
   inkscape:cy="716.93318"
   inkscape:window-x="-9"
   inkscape:window-y="-9"
   inkscape:window-maximized="1"
   inkscape:current-layer="svg2"
   inkscape:showpageshadow="2"
   inkscape:pagecheckerboard="0"
   inkscape:deskcolor="#d1d1d1"
   showguides="true" />
<defs
   id="defs4">
</defs>
<g
   id="g7846"
   transform="translate(-692.63603,117.29246)"><path
     id="rect3957"
     style="fill:#b9b9b9;fill-opacity:1;fill-rule:evenodd;stroke:none;stroke-width:0.5;stroke-linecap:round;stroke-linejoin:round;stroke-dasharray:none;stroke-opacity:1;paint-order:stroke fill markers"
     d="m 717.18316,144.9035 c -13.89316,0 -25.07813,11.18497 -25.07813,25.07812 v 424.00196 c 0,13.89316 11.18497,25.07812 25.07813,25.07812 h 523.78324 c 13.8931,0 25.0781,-11.18496 25.0781,-25.07812 V 169.98162 c 0,-13.89315 -11.185,-25.07812 -25.0781,-25.07812 z" /><path
     style="color:#000000;display:inline;overflow:visible;visibility:visible;fill:#ffffff;fill-opacity:1;fill-rule:nonzero;stroke:none;stroke-width:1;marker:none;enable-background:accumulate"
     d="m 736.66724,225.55168 439.92886,282.82783 56.0889,-13.27712 -11.2042,-56.5395 -439.92886,-282.82783 -56.08891,13.27711 z"
     id="rect2997-6"
     inkscape:connector-curvature="0"
     sodipodi:nodetypes="ccccccc" /><path
     style="color:#000000;display:inline;overflow:visible;visibility:visible;fill:#c4121e;fill-opacity:0.988237;fill-rule:nonzero;stroke:none;stroke-width:1;marker:none;enable-background:accumulate"
     d="m 1219.4079,439.01346 -43.2624,67.29312 -33.6466,-21.63118 43.2624,-67.29313 z m -67.2931,-43.26238 -43.2624,67.29313 -33.6466,-21.63118 43.2624,-67.29315 z m -67.2931,-43.26239 -43.2624,67.29315 -33.6466,-21.63121 43.2624,-67.29314 z m -67.2932,-43.26238 -43.26238,67.29314 -33.64657,-21.63121 43.26239,-67.29313 z m -67.29314,-43.26238 -43.26237,67.29313 -33.64658,-21.63119 43.2624,-67.29313 z m -67.29312,-43.26239 -43.26238,67.29314 -33.64657,-21.6312 43.26238,-67.29313 z m -67.29313,-43.26239 -43.26239,67.29314 -33.64658,-21.63119 43.26239,-67.29314 z"
     id="path3779-4"
     inkscape:connector-curvature="0"
     sodipodi:nodetypes="ccccccccccccccccccccccccccccccccccc" /><path
     sodipodi:nodetypes="ccccccc"
     inkscape:connector-curvature="0"
     id="path3039-1"
     d="m 1221.4808,225.55168 -439.92883,282.82783 -56.08893,-13.27712 11.2042,-56.5395 439.92886,-282.82783 56.0889,13.27711 z"
     style="color:#000000;display:inline;overflow:visible;visibility:visible;fill:#ffffff;fill-opacity:1;fill-rule:nonzero;stroke:none;stroke-width:1;marker:none;enable-background:accumulate" /><path
     sodipodi:nodetypes="ccccccccccccccccccccccccccccccccccc"
     inkscape:connector-curvature="0"
     id="path3041-7"
     d="m 738.74015,439.01346 43.26238,67.29312 33.64659,-21.63118 -43.26239,-67.29313 z m 67.29314,-43.26238 43.26237,67.29313 33.64657,-21.63118 -43.26237,-67.29315 z m 67.29311,-43.26239 43.2624,67.29315 33.64656,-21.63121 -43.26238,-67.29314 z m 67.29314,-43.26238 43.2624,67.29314 33.64656,-21.63121 -43.26238,-67.29313 z m 67.29316,-43.26238 43.2624,67.29313 33.6465,-21.63119 -43.2623,-67.29313 z m 67.2931,-43.26239 43.2624,67.29314 33.6466,-21.6312 -43.2624,-67.29313 z m 67.2932,-43.26239 43.2623,67.29314 33.6466,-21.63119 -43.2624,-67.29314 z"
     style="color:#000000;display:inline;overflow:visible;visibility:visible;fill:#c4121e;fill-opacity:0.988237;fill-rule:nonzero;stroke:none;stroke-width:1;marker:none;enable-background:accumulate" /><path
     id="path4252"
     style="color:#000000;display:inline;overflow:visible;visibility:visible;fill:#ffffff;fill-opacity:1;fill-rule:nonzero;stroke:none;stroke-width:1;marker:none;enable-background:accumulate"
     d="m 978.90189,386.94895 -1.3848,0.89062 -75.3554,48.44532 -165.6661,106.50586 -11.205,56.53902 56.0898,13.2774 197.5215,-126.98635 197.52341,126.98635 56.0879,-13.2774 -11.2031,-56.53902 z" /><path
     id="path4260"
     style="color:#000000;display:inline;overflow:visible;visibility:visible;fill:#c51420;fill-opacity:1;fill-rule:nonzero;stroke:none;stroke-width:1;marker:none;enable-background:accumulate"
     d="m 978.82179,388.67942 -33.6465,21.63086 0.047,0.0742 -4.7734,3.06835 11.2226,17.45704 3.4551,5.37304 3.2813,5.10352 17.041,26.50781 3.455,5.37305 3.3731,-5.24805 11.0664,-17.21289 9.33591,-14.52344 14.6778,-22.83008 -4.8887,-3.14257 -28.75781,-18.48828 z m -72.0215,46.40429 -33.6465,21.63282 43.2637,67.29297 33.6465,-21.63282 z m 144.20321,0 -43.2618,67.29297 33.6465,21.63282 43.2617,-67.29297 z m -211.49611,43.26368 -33.6465,21.63086 43.2636,67.29292 33.6465,-21.63082 z m 278.78901,0 -43.2617,67.29296 33.6465,21.63082 43.2617,-67.29292 z m -346.08201,43.26171 -33.6465,21.63086 43.2637,67.29301 33.6465,-21.6309 z m 413.37501,0 -43.2617,67.29297 33.6465,21.6309 43.2617,-67.29301 z" /></g>














<path
   d="M 427.83397,140.92212 C 427.83397,62.92716 364.19941,-0.597 286.31463,-0.597 208.67555,-0.597 145.041,62.92716 145.041,140.92212 c 0,77.74967 63.63455,141.27384 141.27363,141.27384 77.88478,0 141.51934,-63.52417 141.51934,-141.27384 z"
   id="path34-7"
   inkscape:connector-curvature="0"
   style="fill:#b9b9b9;fill-opacity:1;stroke:none" /><path
   style="color:#000000;font-style:normal;font-variant:normal;font-weight:normal;font-stretch:normal;font-size:medium;line-height:normal;font-family:Sans;-inkscape-font-specification:Sans;text-indent:0;text-align:start;text-decoration:none;text-decoration-line:none;letter-spacing:normal;word-spacing:normal;text-transform:none;writing-mode:lr-tb;direction:ltr;baseline-shift:baseline;text-anchor:start;display:inline;overflow:visible;visibility:visible;fill:none;stroke:#000000;stroke-width:1.5;stroke-miterlimit:4;stroke-dasharray:none;stroke-opacity:1;marker:none;enable-background:accumulate"
   d="m 286.42578,76.15595 c -35.52019,0 -64.625,29.10481 -64.625,64.625 0,35.60558 29.11031,64.65626 64.625,64.65626 35.60011,0 64.625,-29.06224 64.625,-64.65626 0,-35.50857 -29.01943,-64.625 -64.625,-64.625 z"
   id="path20-4"
   inkscape:connector-curvature="0"
   sodipodi:nodetypes="sssss" /><path
   style="color:#000000;font-style:normal;font-variant:normal;font-weight:normal;font-stretch:normal;font-size:medium;line-height:normal;font-family:Sans;-inkscape-font-specification:Sans;text-indent:0;text-align:start;text-decoration:none;text-decoration-line:none;letter-spacing:normal;word-spacing:normal;text-transform:none;writing-mode:lr-tb;direction:ltr;baseline-shift:baseline;text-anchor:start;display:inline;overflow:visible;visibility:visible;fill:#c4121e;fill-opacity:0.988235;fill-rule:nonzero;stroke:none;stroke-width:2.5;marker:none;enable-background:accumulate"
   d="m 286.42578,83.90595 c -31.30118,0 -56.875,25.57382 -56.875,56.875 0,31.40261 25.56561,56.90626 56.875,56.90626 31.41079,0 56.875,-25.49631 56.875,-56.90626 0,-31.30854 -25.4724,-56.875 -56.875,-56.875 z"
   id="path3833"
   inkscape:connector-curvature="0"
   sodipodi:nodetypes="sssss" /><path
   style="color:#000000;font-style:normal;font-variant:normal;font-weight:normal;font-stretch:normal;font-size:medium;line-height:normal;font-family:Sans;-inkscape-font-specification:Sans;text-indent:0;text-align:start;text-decoration:none;text-decoration-line:none;letter-spacing:normal;word-spacing:normal;text-transform:none;writing-mode:lr-tb;direction:ltr;baseline-shift:baseline;text-anchor:start;display:inline;overflow:visible;visibility:visible;fill:#000000;fill-opacity:1;stroke:none;stroke-width:1;marker:none;enable-background:accumulate"
   d="m 286.43751,261.16471 c -30.62324,0 -55.4375,24.8455 -55.4375,55.46874 0,30.62325 24.81426,55.46876 55.4375,55.46876 30.62324,0 55.46876,-24.84551 55.46876,-55.46876 0,-30.62324 -24.84552,-55.46874 -55.46876,-55.46874 z m 0,1 c 30.0828,0 54.46876,24.38594 54.46876,54.46874 0,30.08281 -24.38596,54.46876 -54.46876,54.46876 -30.0828,0 -54.4375,-24.38595 -54.4375,-54.46876 0,-30.0828 24.3547,-54.46874 54.4375,-54.46874 z"
   id="circle8"
   inkscape:connector-curvature="0" /><path
   style="color:#000000;font-style:normal;font-variant:normal;font-weight:normal;font-stretch:normal;font-size:medium;line-height:normal;font-family:Sans;-inkscape-font-specification:Sans;text-indent:0;text-align:start;text-decoration:none;text-decoration-line:none;letter-spacing:normal;word-spacing:normal;text-transform:none;writing-mode:lr-tb;direction:ltr;baseline-shift:baseline;text-anchor:start;display:inline;overflow:visible;visibility:visible;fill:#000000;fill-opacity:1;stroke:none;stroke-width:1;marker:none;enable-background:accumulate"
   d="m 286.43751,303.32095 c -7.34554,0 -13.3125,5.96696 -13.3125,13.3125 0,7.34554 5.96696,13.3125 13.3125,13.3125 7.34554,0 13.3125,-5.96696 13.3125,-13.3125 0,-7.34554 -5.96696,-13.3125 -13.3125,-13.3125 z m 0,1 c 6.8051,0 12.3125,5.5074 12.3125,12.3125 0,6.8051 -5.5074,12.3125 -12.3125,12.3125 -6.8051,0 -12.3125,-5.5074 -12.3125,-12.3125 0,-6.8051 5.5074,-12.3125 12.3125,-12.3125 z"
   id="circle10"
   inkscape:connector-curvature="0" /><path
   style="color:#000000;font-style:normal;font-variant:normal;font-weight:normal;font-stretch:normal;font-size:medium;line-height:normal;font-family:Sans;-inkscape-font-specification:Sans;text-indent:0;text-align:start;text-decoration:none;text-decoration-line:none;letter-spacing:normal;word-spacing:normal;text-transform:none;writing-mode:lr-tb;direction:ltr;baseline-shift:baseline;text-anchor:start;display:inline;overflow:visible;visibility:visible;fill:#000000;fill-opacity:1;stroke:none;stroke-width:1;marker:none;enable-background:accumulate"
   d="m 286.43751,251.07096 c -36.1991,0 -65.5625,29.36339 -65.5625,65.56249 0,36.19911 29.3634,65.56251 65.5625,65.56251 36.19911,0 65.56251,-29.3634 65.56251,-65.56251 0,-36.1991 -29.3634,-65.56249 -65.56251,-65.56249 z m 0,1 c 35.65867,0 64.56251,28.90383 64.56251,64.56249 0,35.65867 -28.90384,64.56251 -64.56251,64.56251 -35.65866,0 -64.5625,-28.90384 -64.5625,-64.56251 0,-35.65866 28.90384,-64.56249 64.5625,-64.56249 z"
   id="circle12"
   inkscape:connector-curvature="0" /></svg>
