<?xml version="1.0" encoding="UTF-8" standalone="no"?>
<!-- Generator: Adobe Illustrator 13.0.0, SVG Export Plug-In  -->

<svg
   xmlns:dc="http://purl.org/dc/elements/1.1/"
   xmlns:cc="http://creativecommons.org/ns#"
   xmlns:rdf="http://www.w3.org/1999/02/22-rdf-syntax-ns#"
   xmlns:svg="http://www.w3.org/2000/svg"
   xmlns="http://www.w3.org/2000/svg"
   xmlns:sodipodi="http://sodipodi.sourceforge.net/DTD/sodipodi-0.dtd"
   xmlns:inkscape="http://www.inkscape.org/namespaces/inkscape"
   version="1.1"
   x="0px"
   y="0px"
   width="573.93896"
   height="637.10095"
   viewBox="-0.781 -0.597 573.93897 637.10097"
   enable-background="new -0.781 -0.597 576 376"
   xml:space="preserve"
   id="svg2"
   inkscape:version="0.48.4 r9939"
   sodipodi:docname="AJAX.svg"><metadata
   id="metadata38"><rdf:RDF><cc:Work
       rdf:about=""><dc:format>image/svg+xml</dc:format><dc:type
         rdf:resource="http://purl.org/dc/dcmitype/StillImage" /></cc:Work></rdf:RDF></metadata><sodipodi:namedview
   pagecolor="#ffffff"
   bordercolor="#666666"
   borderopacity="1"
   objecttolerance="10"
   gridtolerance="10"
   guidetolerance="10"
   inkscape:pageopacity="0"
   inkscape:pageshadow="2"
   inkscape:window-width="1280"
   inkscape:window-height="1001"
   id="namedview36"
   showgrid="false"
   fit-margin-top="0"
   fit-margin-left="0"
   fit-margin-right="0"
   fit-margin-bottom="0"
   inkscape:zoom="0.87607551"
   inkscape:cx="269.22298"
   inkscape:cy="240.16775"
   inkscape:window-x="-8"
   inkscape:window-y="-8"
   inkscape:window-maximized="1"
   inkscape:current-layer="svg2" />
<defs
   id="defs4">
</defs>
<path
   d="m 24.17299,262.19596 524.03101,0 c 6.617,0 12.965,2.629 17.645,7.309 4.68,4.68 7.309,11.027 7.309,17.645 l 0,324.39999 c 0,6.618 -2.629,12.965 -7.309,17.645 -4.68,4.68 -11.027,7.30901 -17.645,7.30901 l -524.03101,0 c -6.618001,0 -12.965001,-2.62901 -17.6450014,-7.30901 -4.6800001,-4.68 -7.30899008,-11.027 -7.30899008,-17.645 l 0,-324.39999 c 0,-6.618 2.62898998,-12.965 7.30899008,-17.645 4.6800004,-4.68 11.0260004,-7.309 17.6450014,-7.309 z"
   id="path6"
   style="fill:#b9b9b9;stroke:none"
   inkscape:connector-curvature="0" />














<path
   style="color:#000000;fill:#ffffff;fill-opacity:1;fill-rule:nonzero;stroke:none;stroke-width:1;marker:none;visibility:visible;display:inline;overflow:visible;enable-background:accumulate"
   d="m 43.78121,342.84414 439.9289,282.82782 56.08891,-13.27712 -11.20421,-56.5395 L 88.66591,273.02752 32.577,286.30463 z"
   id="rect2997"
   inkscape:connector-curvature="0"
   sodipodi:nodetypes="ccccccc" /><path
   style="color:#000000;fill:#c4121e;fill-opacity:0.98823529;fill-rule:nonzero;stroke:none;stroke-width:1;marker:none;visibility:visible;display:inline;overflow:visible;enable-background:accumulate"
   d="m 526.5219,556.30592 -43.2624,67.29312 -33.64659,-21.63118 43.26239,-67.29313 z m -67.29316,-43.26238 -43.26237,67.29313 -33.64657,-21.63118 43.26237,-67.29315 z m -67.29311,-43.26239 -43.2624,67.29315 -33.64656,-21.63121 43.26238,-67.29314 z m -67.29314,-43.26238 -43.2624,67.29314 -33.64657,-21.63121 43.26239,-67.29313 z m -67.29316,-43.26238 -43.26237,67.29313 -33.64658,-21.63119 43.2624,-67.29314 z m -67.29312,-43.2624 -43.26238,67.29315 -33.64657,-21.6312 43.26238,-67.29314 z M 122.76308,296.7316 79.50069,364.02475 45.85411,342.39355 89.1165,275.10041 z"
   id="path3779"
   inkscape:connector-curvature="0"
   sodipodi:nodetypes="ccccccccccccccccccccccccccccccccccc" /><path
   sodipodi:nodetypes="ccccccc"
   inkscape:connector-curvature="0"
   id="path3039"
   d="M 528.59481,342.84414 88.66594,625.67196 32.57701,612.39484 l 11.2042,-56.5395 439.9289,-282.82782 56.0889,13.27711 z"
   style="color:#000000;fill:#ffffff;fill-opacity:1;fill-rule:nonzero;stroke:none;stroke-width:1;marker:none;visibility:visible;display:inline;overflow:visible;enable-background:accumulate" /><path
   sodipodi:nodetypes="ccccccccccccccccccccccccccccccccccc"
   inkscape:connector-curvature="0"
   id="path3041"
   d="M 45.85412,556.30591 89.1165,623.59903 122.76309,601.96785 79.5007,534.67473 z m 67.29314,-43.26237 43.26237,67.29312 33.64657,-21.63118 -43.26237,-67.29314 z m 67.29311,-43.26239 43.26241,67.29314 33.64656,-21.6312 -43.26238,-67.29314 z m 67.29315,-43.26238 43.2624,67.29314 33.64657,-21.63121 -43.26239,-67.29313 z m 67.29316,-43.26238 43.26237,67.29313 33.64658,-21.63119 -43.2624,-67.29313 z m 67.29312,-43.26239 43.26238,67.29314 33.64657,-21.6312 -43.26238,-67.29313 z m 67.29313,-43.26239 43.26238,67.29314 33.6466,-21.63119 -43.2624,-67.29314 z"
   style="color:#000000;fill:#c4121e;fill-opacity:0.98823529;fill-rule:nonzero;stroke:none;stroke-width:1;marker:none;visibility:visible;display:inline;overflow:visible;enable-background:accumulate" /><path
   d="M 427.58397,140.92212 C 427.58397,62.92716 363.94941,-0.597 286.06463,-0.597 208.42555,-0.597 144.791,62.92716 144.791,140.92212 c 0,77.74967 63.63455,141.27384 141.27363,141.27384 77.88478,0 141.51934,-63.52417 141.51934,-141.27384 z"
   id="path34-7"
   inkscape:connector-curvature="0"
   style="fill:#b9b9b9;fill-opacity:1;stroke:none" /><path
   style="font-size:medium;font-style:normal;font-variant:normal;font-weight:normal;font-stretch:normal;text-indent:0;text-align:start;text-decoration:none;line-height:normal;letter-spacing:normal;word-spacing:normal;text-transform:none;direction:ltr;block-progression:tb;writing-mode:lr-tb;text-anchor:start;baseline-shift:baseline;color:#000000;fill:none;stroke:#000000;stroke-width:1.5;stroke-miterlimit:4;stroke-opacity:1;stroke-dasharray:none;marker:none;visibility:visible;display:inline;overflow:visible;enable-background:accumulate;font-family:Sans;-inkscape-font-specification:Sans"
   d="m 286.17578,76.15595 c -35.52019,0 -64.625,29.10481 -64.625,64.625 0,35.60558 29.11031,64.65626 64.625,64.65626 35.60011,0 64.625,-29.06224 64.625,-64.65626 0,-35.50857 -29.01943,-64.625 -64.625,-64.625 z"
   id="path20-4"
   inkscape:connector-curvature="0"
   sodipodi:nodetypes="sssss" /><path
   style="font-size:medium;font-style:normal;font-variant:normal;font-weight:normal;font-stretch:normal;text-indent:0;text-align:start;text-decoration:none;line-height:normal;letter-spacing:normal;word-spacing:normal;text-transform:none;direction:ltr;block-progression:tb;writing-mode:lr-tb;text-anchor:start;baseline-shift:baseline;color:#000000;fill:#c4121e;fill-opacity:0.98823529;fill-rule:nonzero;stroke:none;stroke-width:2.50000000000000000;marker:none;visibility:visible;display:inline;overflow:visible;enable-background:accumulate;font-family:Sans;-inkscape-font-specification:Sans"
   d="m 286.17578,83.90595 c -31.30118,0 -56.875,25.57382 -56.875,56.875 0,31.40261 25.56561,56.90626 56.875,56.90626 31.41079,0 56.875,-25.49631 56.875,-56.90626 0,-31.30854 -25.4724,-56.875 -56.875,-56.875 z"
   id="path3833"
   inkscape:connector-curvature="0"
   sodipodi:nodetypes="sssss" /><path
   style="font-size:medium;font-style:normal;font-variant:normal;font-weight:normal;font-stretch:normal;text-indent:0;text-align:start;text-decoration:none;line-height:normal;letter-spacing:normal;word-spacing:normal;text-transform:none;direction:ltr;block-progression:tb;writing-mode:lr-tb;text-anchor:start;baseline-shift:baseline;color:#000000;fill:#000000;fill-opacity:1;stroke:none;stroke-width:1;marker:none;visibility:visible;display:inline;overflow:visible;enable-background:accumulate;font-family:Sans;-inkscape-font-specification:Sans"
   d="m 286.18751,261.16471 c -30.62324,0 -55.4375,24.8455 -55.4375,55.46874 0,30.62325 24.81426,55.46876 55.4375,55.46876 30.62324,0 55.46876,-24.84551 55.46876,-55.46876 0,-30.62324 -24.84552,-55.46874 -55.46876,-55.46874 z m 0,1 c 30.0828,0 54.46876,24.38594 54.46876,54.46874 0,30.08281 -24.38596,54.46876 -54.46876,54.46876 -30.0828,0 -54.4375,-24.38595 -54.4375,-54.46876 0,-30.0828 24.3547,-54.46874 54.4375,-54.46874 z"
   id="circle8"
   inkscape:connector-curvature="0" /><path
   style="font-size:medium;font-style:normal;font-variant:normal;font-weight:normal;font-stretch:normal;text-indent:0;text-align:start;text-decoration:none;line-height:normal;letter-spacing:normal;word-spacing:normal;text-transform:none;direction:ltr;block-progression:tb;writing-mode:lr-tb;text-anchor:start;baseline-shift:baseline;color:#000000;fill:#000000;fill-opacity:1;stroke:none;stroke-width:1;marker:none;visibility:visible;display:inline;overflow:visible;enable-background:accumulate;font-family:Sans;-inkscape-font-specification:Sans"
   d="m 286.18751,303.32095 c -7.34554,0 -13.3125,5.96696 -13.3125,13.3125 0,7.34554 5.96696,13.3125 13.3125,13.3125 7.34554,0 13.3125,-5.96696 13.3125,-13.3125 0,-7.34554 -5.96696,-13.3125 -13.3125,-13.3125 z m 0,1 c 6.8051,0 12.3125,5.5074 12.3125,12.3125 0,6.8051 -5.5074,12.3125 -12.3125,12.3125 -6.8051,0 -12.3125,-5.5074 -12.3125,-12.3125 0,-6.8051 5.5074,-12.3125 12.3125,-12.3125 z"
   id="circle10"
   inkscape:connector-curvature="0" /><path
   style="font-size:medium;font-style:normal;font-variant:normal;font-weight:normal;font-stretch:normal;text-indent:0;text-align:start;text-decoration:none;line-height:normal;letter-spacing:normal;word-spacing:normal;text-transform:none;direction:ltr;block-progression:tb;writing-mode:lr-tb;text-anchor:start;baseline-shift:baseline;color:#000000;fill:#000000;fill-opacity:1;stroke:none;stroke-width:1;marker:none;visibility:visible;display:inline;overflow:visible;enable-background:accumulate;font-family:Sans;-inkscape-font-specification:Sans"
   d="m 286.18751,251.07096 c -36.1991,0 -65.5625,29.36339 -65.5625,65.56249 0,36.19911 29.3634,65.56251 65.5625,65.56251 36.19911,0 65.56251,-29.3634 65.56251,-65.56251 0,-36.1991 -29.3634,-65.56249 -65.56251,-65.56249 z m 0,1 c 35.65867,0 64.56251,28.90383 64.56251,64.56249 0,35.65867 -28.90384,64.56251 -64.56251,64.56251 -35.65866,0 -64.5625,-28.90384 -64.5625,-64.56251 0,-35.65866 28.90384,-64.56249 64.5625,-64.56249 z"
   id="circle12"
   inkscape:connector-curvature="0" /></svg>