<?xml version="1.0" encoding="utf-8"?>
<!-- Generator: Adobe Illustrator 13.0.0, SVG Export Plug-In  -->
<!DOCTYPE svg PUBLIC "-//W3C//DTD SVG 1.1//EN" "http://www.w3.org/Graphics/SVG/1.1/DTD/svg11.dtd" [
	<!ENTITY ns_flows "http://ns.adobe.com/Flows/1.0/">
]>
<svg version="1.1"
	 xmlns="http://www.w3.org/2000/svg" xmlns:xlink="http://www.w3.org/1999/xlink" xmlns:a="http://ns.adobe.com/AdobeSVGViewerExtensions/3.0/"
	 x="0px" y="0px" width="353px" height="830px" viewBox="-0.229 -0.912 353 830" enable-background="new -0.229 -0.912 353 830"
	 xml:space="preserve">
<defs>
</defs>
<linearGradient id="SVGID_1_" gradientUnits="userSpaceOnUse" x1="224.2378" y1="573.9224" x2="351.3057" y2="573.9224">
	<stop  offset="0" style="stop-color:#FFFFFF"/>
	<stop  offset="0.9494" style="stop-color:#EBEBEB"/>
</linearGradient>
<polyline fill="url(#SVGID_1_)" stroke="#000000" stroke-width="0.1764" stroke-linecap="round" stroke-linejoin="round" points="
	351.306,319.788 351.306,828.057 224.238,828.057 224.238,319.788 "/>
<polyline fill="none" stroke="#000000" stroke-width="0.1764" stroke-linecap="round" stroke-linejoin="round" points="
	351.306,33.886 287.771,2.12 224.238,33.886 224.238,192.72 "/>
<linearGradient id="SVGID_2_" gradientUnits="userSpaceOnUse" x1="224.2378" y1="113.3032" x2="351.3057" y2="113.3032">
	<stop  offset="0" style="stop-color:#FFFFFF"/>
	<stop  offset="0.9494" style="stop-color:#EBEBEB"/>
</linearGradient>
<polyline fill="url(#SVGID_2_)" stroke="#D9D9D9" stroke-linecap="round" stroke-linejoin="round" points="224.238,192.72 
	351.306,192.72 351.306,33.886 224.238,33.886 "/>
<rect x="224.238" y="33.886" fill="none" stroke="#D9D9D9" stroke-linecap="round" stroke-linejoin="round" width="126.534" height="793.536"/>
<linearGradient id="SVGID_3_" gradientUnits="userSpaceOnUse" x1="224.2378" y1="256.2544" x2="351.9717" y2="256.2544">
	<stop  offset="0" style="stop-color:#FCFCFC"/>
	<stop  offset="0.0952" style="stop-color:#F2F2F2"/>
	<stop  offset="0.2472" style="stop-color:#D9D9D9"/>
	<stop  offset="0.4663" style="stop-color:#FFFFFF"/>
	<stop  offset="0.7079" style="stop-color:#C7C7C7"/>
</linearGradient>
<rect x="224.238" y="192.72" fill="url(#SVGID_3_)" width="127.734" height="127.068"/>
<line fill="none" stroke="#000000" stroke-width="0.1764" stroke-linecap="round" stroke-linejoin="round" x1="115.865" y1="193.199" x2="195.361" y2="193.199"/>
<line fill="none" stroke="#000000" stroke-width="0.1764" stroke-linecap="round" stroke-linejoin="round" x1="112.865" y1="322.192" x2="192.361" y2="322.192"/>
<line fill="none" stroke="#000000" stroke-width="0.1764" stroke-linecap="round" stroke-linejoin="round" x1="52.868" y1="0.088" x2="201.36" y2="0.088"/>
<line fill="none" stroke="#000000" stroke-width="0.1764" stroke-linecap="round" stroke-linejoin="round" x1="44.376" y1="828.088" x2="198.869" y2="828.088"/>
<g>
	<g>
		<line x1="160.779" y1="8.759" x2="160.779" y2="184.594"/>
		<path d="M160.779,190.629c-1.054-2.84-2.852-6.363-4.755-8.547l4.755,1.72l4.755-1.72
			C163.631,184.266,161.833,187.79,160.779,190.629z"/>
		<path d="M160.779,2.724c1.054,2.84,2.852,6.363,4.755,8.547l-4.755-1.72l-4.755,1.72C157.928,9.087,159.726,5.563,160.779,2.724z"
			/>
	</g>
	<g>
		
			<radialGradient id="SVGID_4_" cx="160.7793" cy="-33.1792" r="97.8242" gradientTransform="matrix(1 0 0 0.6355 0 117.7619)" gradientUnits="userSpaceOnUse">
			<stop  offset="0" style="stop-color:#CCCCCC"/>
			<stop  offset="0.0854" style="stop-color:#C7C7C7"/>
			<stop  offset="0.1889" style="stop-color:#B8B8B8"/>
			<stop  offset="0.3019" style="stop-color:#9F9F9F"/>
			<stop  offset="0.4216" style="stop-color:#7D7D7D"/>
			<stop  offset="0.5454" style="stop-color:#525252"/>
			<stop  offset="0.6" style="stop-color:#3C3C3C"/>
			<stop  offset="0.605" style="stop-color:#1E1E1E"/>
			<stop  offset="0.6432" style="stop-color:#393939"/>
			<stop  offset="0.6915" style="stop-color:#535353"/>
			<stop  offset="0.7448" style="stop-color:#676767"/>
			<stop  offset="0.8052" style="stop-color:#757575"/>
			<stop  offset="0.8783" style="stop-color:#7D7D7D"/>
			<stop  offset="1" style="stop-color:#808080"/>
		</radialGradient>
		<line fill="url(#SVGID_4_)" x1="160.779" y1="8.759" x2="160.779" y2="184.594"/>
		
			<radialGradient id="SVGID_5_" cx="160.7793" cy="-33.1753" r="97.8242" gradientTransform="matrix(1 0 0 0.6355 0 117.7614)" gradientUnits="userSpaceOnUse">
			<stop  offset="0" style="stop-color:#CCCCCC"/>
			<stop  offset="0.0854" style="stop-color:#C7C7C7"/>
			<stop  offset="0.1889" style="stop-color:#B8B8B8"/>
			<stop  offset="0.3019" style="stop-color:#9F9F9F"/>
			<stop  offset="0.4216" style="stop-color:#7D7D7D"/>
			<stop  offset="0.5454" style="stop-color:#525252"/>
			<stop  offset="0.6" style="stop-color:#3C3C3C"/>
			<stop  offset="0.605" style="stop-color:#1E1E1E"/>
			<stop  offset="0.6432" style="stop-color:#393939"/>
			<stop  offset="0.6915" style="stop-color:#535353"/>
			<stop  offset="0.7448" style="stop-color:#676767"/>
			<stop  offset="0.8052" style="stop-color:#757575"/>
			<stop  offset="0.8783" style="stop-color:#7D7D7D"/>
			<stop  offset="1" style="stop-color:#808080"/>
		</radialGradient>
		<path fill="url(#SVGID_5_)" d="M160.779,190.629c-1.054-2.84-2.852-6.363-4.755-8.547l4.755,1.72l4.755-1.72
			C163.631,184.266,161.833,187.79,160.779,190.629z"/>
		
			<radialGradient id="SVGID_6_" cx="160.7793" cy="-33.1772" r="97.8279" gradientTransform="matrix(1 0 0 0.6355 0 117.7614)" gradientUnits="userSpaceOnUse">
			<stop  offset="0" style="stop-color:#CCCCCC"/>
			<stop  offset="0.0854" style="stop-color:#C7C7C7"/>
			<stop  offset="0.1889" style="stop-color:#B8B8B8"/>
			<stop  offset="0.3019" style="stop-color:#9F9F9F"/>
			<stop  offset="0.4216" style="stop-color:#7D7D7D"/>
			<stop  offset="0.5454" style="stop-color:#525252"/>
			<stop  offset="0.6" style="stop-color:#3C3C3C"/>
			<stop  offset="0.605" style="stop-color:#1E1E1E"/>
			<stop  offset="0.6432" style="stop-color:#393939"/>
			<stop  offset="0.6915" style="stop-color:#535353"/>
			<stop  offset="0.7448" style="stop-color:#676767"/>
			<stop  offset="0.8052" style="stop-color:#757575"/>
			<stop  offset="0.8783" style="stop-color:#7D7D7D"/>
			<stop  offset="1" style="stop-color:#808080"/>
		</radialGradient>
		<path fill="url(#SVGID_6_)" d="M160.779,2.724c1.054,2.84,2.852,6.363,4.755,8.547l-4.755-1.72l-4.755,1.72
			C157.928,9.087,159.726,5.563,160.779,2.724z"/>
	</g>
	<g>
		
			<radialGradient id="SVGID_7_" cx="160.7793" cy="-33.1792" r="97.8242" fx="141.5825" fy="-59.0357" gradientTransform="matrix(1 0 0 0.6355 0 117.7619)" gradientUnits="userSpaceOnUse">
			<stop  offset="0" style="stop-color:#EBEBEB"/>
			<stop  offset="0.04" style="stop-color:#EBEBEB"/>
			<stop  offset="0.0437" style="stop-color:#E7E7E7"/>
			<stop  offset="0.0864" style="stop-color:#C2C2C2"/>
			<stop  offset="0.129" style="stop-color:#A5A5A5"/>
			<stop  offset="0.1712" style="stop-color:#919191"/>
			<stop  offset="0.2127" style="stop-color:#848484"/>
			<stop  offset="0.2528" style="stop-color:#808080"/>
		</radialGradient>
		<line fill="url(#SVGID_7_)" x1="160.779" y1="8.759" x2="160.779" y2="184.594"/>
		
			<radialGradient id="SVGID_8_" cx="160.7793" cy="-33.1753" r="97.8242" gradientTransform="matrix(1 0 0 0.6355 0 117.7614)" gradientUnits="userSpaceOnUse">
			<stop  offset="0" style="stop-color:#EBEBEB"/>
			<stop  offset="0.04" style="stop-color:#EBEBEB"/>
			<stop  offset="0.0437" style="stop-color:#E7E7E7"/>
			<stop  offset="0.0864" style="stop-color:#C2C2C2"/>
			<stop  offset="0.129" style="stop-color:#A5A5A5"/>
			<stop  offset="0.1712" style="stop-color:#919191"/>
			<stop  offset="0.2127" style="stop-color:#848484"/>
			<stop  offset="0.2528" style="stop-color:#808080"/>
		</radialGradient>
		<path fill="url(#SVGID_8_)" d="M160.779,190.629c-1.054-2.84-2.852-6.363-4.755-8.547l4.755,1.72l4.755-1.72
			C163.631,184.266,161.833,187.79,160.779,190.629z"/>
		
			<radialGradient id="SVGID_9_" cx="160.7793" cy="-33.1772" r="97.8279" gradientTransform="matrix(1 0 0 0.6355 0 117.7614)" gradientUnits="userSpaceOnUse">
			<stop  offset="0" style="stop-color:#EBEBEB"/>
			<stop  offset="0.04" style="stop-color:#EBEBEB"/>
			<stop  offset="0.0437" style="stop-color:#E7E7E7"/>
			<stop  offset="0.0864" style="stop-color:#C2C2C2"/>
			<stop  offset="0.129" style="stop-color:#A5A5A5"/>
			<stop  offset="0.1712" style="stop-color:#919191"/>
			<stop  offset="0.2127" style="stop-color:#848484"/>
			<stop  offset="0.2528" style="stop-color:#808080"/>
		</radialGradient>
		<path fill="url(#SVGID_9_)" d="M160.779,2.724c1.054,2.84,2.852,6.363,4.755,8.547l-4.755-1.72l-4.755,1.72
			C157.928,9.087,159.726,5.563,160.779,2.724z"/>
	</g>
	<g>
		<line fill="none" stroke="#000000" stroke-width="0.3" x1="160.779" y1="8.759" x2="160.779" y2="184.594"/>
		<path d="M160.779,186.405c-0.316-0.852-0.855-1.909-1.426-2.564l1.426,0.516l1.426-0.516
			C161.635,184.496,161.095,185.553,160.779,186.405z"/>
		<path d="M160.779,6.948c0.316,0.852,0.855,1.909,1.426,2.564l-1.426-0.516l-1.426,0.516C159.924,8.857,160.463,7.8,160.779,6.948z
			"/>
	</g>
</g>
<g>
	<g>
		<line x1="160.787" y1="200.254" x2="160.787" y2="313.093"/>
		<path d="M160.787,319.128c-1.054-2.84-2.852-6.363-4.755-8.547l4.755,1.72l4.755-1.72
			C163.639,312.765,161.84,316.288,160.787,319.128z"/>
		<path d="M160.787,194.219c1.054,2.84,2.852,6.363,4.755,8.547l-4.755-1.72l-4.755,1.72
			C157.936,200.583,159.734,197.059,160.787,194.219z"/>
	</g>
	<g>
		
			<radialGradient id="SVGID_10_" cx="160.7871" cy="267.8823" r="97.8283" gradientTransform="matrix(1 0 0 0.4078 0 147.4312)" gradientUnits="userSpaceOnUse">
			<stop  offset="0" style="stop-color:#CCCCCC"/>
			<stop  offset="0.0854" style="stop-color:#C7C7C7"/>
			<stop  offset="0.1889" style="stop-color:#B8B8B8"/>
			<stop  offset="0.3019" style="stop-color:#9F9F9F"/>
			<stop  offset="0.4216" style="stop-color:#7D7D7D"/>
			<stop  offset="0.5454" style="stop-color:#525252"/>
			<stop  offset="0.6" style="stop-color:#3C3C3C"/>
			<stop  offset="0.605" style="stop-color:#1E1E1E"/>
			<stop  offset="0.6432" style="stop-color:#393939"/>
			<stop  offset="0.6915" style="stop-color:#535353"/>
			<stop  offset="0.7448" style="stop-color:#676767"/>
			<stop  offset="0.8052" style="stop-color:#757575"/>
			<stop  offset="0.8783" style="stop-color:#7D7D7D"/>
			<stop  offset="1" style="stop-color:#808080"/>
		</radialGradient>
		<line fill="url(#SVGID_10_)" x1="160.787" y1="200.254" x2="160.787" y2="313.093"/>
		
			<radialGradient id="SVGID_11_" cx="160.7871" cy="267.8838" r="97.8239" gradientTransform="matrix(1 0 0 0.4078 0 147.4312)" gradientUnits="userSpaceOnUse">
			<stop  offset="0" style="stop-color:#CCCCCC"/>
			<stop  offset="0.0854" style="stop-color:#C7C7C7"/>
			<stop  offset="0.1889" style="stop-color:#B8B8B8"/>
			<stop  offset="0.3019" style="stop-color:#9F9F9F"/>
			<stop  offset="0.4216" style="stop-color:#7D7D7D"/>
			<stop  offset="0.5454" style="stop-color:#525252"/>
			<stop  offset="0.6" style="stop-color:#3C3C3C"/>
			<stop  offset="0.605" style="stop-color:#1E1E1E"/>
			<stop  offset="0.6432" style="stop-color:#393939"/>
			<stop  offset="0.6915" style="stop-color:#535353"/>
			<stop  offset="0.7448" style="stop-color:#676767"/>
			<stop  offset="0.8052" style="stop-color:#757575"/>
			<stop  offset="0.8783" style="stop-color:#7D7D7D"/>
			<stop  offset="1" style="stop-color:#808080"/>
		</radialGradient>
		<path fill="url(#SVGID_11_)" d="M160.787,319.128c-1.054-2.84-2.852-6.363-4.755-8.547l4.755,1.72l4.755-1.72
			C163.639,312.765,161.84,316.288,160.787,319.128z"/>
		
			<radialGradient id="SVGID_12_" cx="160.7871" cy="267.8853" r="97.8289" gradientTransform="matrix(1 0 0 0.4078 0 147.4312)" gradientUnits="userSpaceOnUse">
			<stop  offset="0" style="stop-color:#CCCCCC"/>
			<stop  offset="0.0854" style="stop-color:#C7C7C7"/>
			<stop  offset="0.1889" style="stop-color:#B8B8B8"/>
			<stop  offset="0.3019" style="stop-color:#9F9F9F"/>
			<stop  offset="0.4216" style="stop-color:#7D7D7D"/>
			<stop  offset="0.5454" style="stop-color:#525252"/>
			<stop  offset="0.6" style="stop-color:#3C3C3C"/>
			<stop  offset="0.605" style="stop-color:#1E1E1E"/>
			<stop  offset="0.6432" style="stop-color:#393939"/>
			<stop  offset="0.6915" style="stop-color:#535353"/>
			<stop  offset="0.7448" style="stop-color:#676767"/>
			<stop  offset="0.8052" style="stop-color:#757575"/>
			<stop  offset="0.8783" style="stop-color:#7D7D7D"/>
			<stop  offset="1" style="stop-color:#808080"/>
		</radialGradient>
		<path fill="url(#SVGID_12_)" d="M160.787,194.219c1.054,2.84,2.852,6.363,4.755,8.547l-4.755-1.72l-4.755,1.72
			C157.936,200.583,159.734,197.059,160.787,194.219z"/>
	</g>
	<g>
		
			<radialGradient id="SVGID_13_" cx="160.7871" cy="267.8823" r="97.8283" fx="141.5895" fy="242.0247" gradientTransform="matrix(1 0 0 0.4078 0 147.4312)" gradientUnits="userSpaceOnUse">
			<stop  offset="0" style="stop-color:#EBEBEB"/>
			<stop  offset="0.04" style="stop-color:#EBEBEB"/>
			<stop  offset="0.0437" style="stop-color:#E7E7E7"/>
			<stop  offset="0.0864" style="stop-color:#C2C2C2"/>
			<stop  offset="0.129" style="stop-color:#A5A5A5"/>
			<stop  offset="0.1712" style="stop-color:#919191"/>
			<stop  offset="0.2127" style="stop-color:#848484"/>
			<stop  offset="0.2528" style="stop-color:#808080"/>
		</radialGradient>
		<line fill="url(#SVGID_13_)" x1="160.787" y1="200.254" x2="160.787" y2="313.093"/>
		
			<radialGradient id="SVGID_14_" cx="160.7871" cy="267.8838" r="97.8239" gradientTransform="matrix(1 0 0 0.4078 0 147.4312)" gradientUnits="userSpaceOnUse">
			<stop  offset="0" style="stop-color:#EBEBEB"/>
			<stop  offset="0.04" style="stop-color:#EBEBEB"/>
			<stop  offset="0.0437" style="stop-color:#E7E7E7"/>
			<stop  offset="0.0864" style="stop-color:#C2C2C2"/>
			<stop  offset="0.129" style="stop-color:#A5A5A5"/>
			<stop  offset="0.1712" style="stop-color:#919191"/>
			<stop  offset="0.2127" style="stop-color:#848484"/>
			<stop  offset="0.2528" style="stop-color:#808080"/>
		</radialGradient>
		<path fill="url(#SVGID_14_)" d="M160.787,319.128c-1.054-2.84-2.852-6.363-4.755-8.547l4.755,1.72l4.755-1.72
			C163.639,312.765,161.84,316.288,160.787,319.128z"/>
		
			<radialGradient id="SVGID_15_" cx="160.7871" cy="267.8853" r="97.8289" gradientTransform="matrix(1 0 0 0.4078 0 147.4312)" gradientUnits="userSpaceOnUse">
			<stop  offset="0" style="stop-color:#EBEBEB"/>
			<stop  offset="0.04" style="stop-color:#EBEBEB"/>
			<stop  offset="0.0437" style="stop-color:#E7E7E7"/>
			<stop  offset="0.0864" style="stop-color:#C2C2C2"/>
			<stop  offset="0.129" style="stop-color:#A5A5A5"/>
			<stop  offset="0.1712" style="stop-color:#919191"/>
			<stop  offset="0.2127" style="stop-color:#848484"/>
			<stop  offset="0.2528" style="stop-color:#808080"/>
		</radialGradient>
		<path fill="url(#SVGID_15_)" d="M160.787,194.219c1.054,2.84,2.852,6.363,4.755,8.547l-4.755-1.72l-4.755,1.72
			C157.936,200.583,159.734,197.059,160.787,194.219z"/>
	</g>
	<g>
		<line fill="none" stroke="#000000" stroke-width="0.3" x1="160.787" y1="200.254" x2="160.787" y2="313.093"/>
		<path d="M160.787,314.903c-0.316-0.852-0.855-1.909-1.426-2.564l1.426,0.516l1.426-0.516
			C161.643,312.994,161.103,314.051,160.787,314.903z"/>
		<path d="M160.787,198.444c0.316,0.852,0.855,1.909,1.426,2.564l-1.426-0.516l-1.426,0.516
			C159.932,200.353,160.471,199.296,160.787,198.444z"/>
	</g>
</g>
<g>
	<g>
		<line x1="160.787" y1="330.748" x2="160.787" y2="818.568"/>
		<path d="M160.787,824.603c-1.054-2.84-2.852-6.363-4.755-8.547l4.755,1.72l4.755-1.72
			C163.639,818.24,161.84,821.763,160.787,824.603z"/>
		<path d="M160.787,324.712c1.054,2.84,2.852,6.363,4.755,8.547l-4.755-1.72l-4.755,1.72
			C157.936,331.076,159.734,327.552,160.787,324.712z"/>
	</g>
	<g>
		
			<radialGradient id="SVGID_16_" cx="160.7871" cy="467.1333" r="97.8169" gradientTransform="matrix(1 0 0 1.7632 0 -248.9912)" gradientUnits="userSpaceOnUse">
			<stop  offset="0" style="stop-color:#CCCCCC"/>
			<stop  offset="0.0854" style="stop-color:#C7C7C7"/>
			<stop  offset="0.1889" style="stop-color:#B8B8B8"/>
			<stop  offset="0.3019" style="stop-color:#9F9F9F"/>
			<stop  offset="0.4216" style="stop-color:#7D7D7D"/>
			<stop  offset="0.5454" style="stop-color:#525252"/>
			<stop  offset="0.6" style="stop-color:#3C3C3C"/>
			<stop  offset="0.605" style="stop-color:#1E1E1E"/>
			<stop  offset="0.6432" style="stop-color:#393939"/>
			<stop  offset="0.6915" style="stop-color:#535353"/>
			<stop  offset="0.7448" style="stop-color:#676767"/>
			<stop  offset="0.8052" style="stop-color:#757575"/>
			<stop  offset="0.8783" style="stop-color:#7D7D7D"/>
			<stop  offset="1" style="stop-color:#808080"/>
		</radialGradient>
		<line fill="url(#SVGID_16_)" x1="160.787" y1="330.748" x2="160.787" y2="818.568"/>
		
			<radialGradient id="SVGID_17_" cx="160.7871" cy="467.1313" r="97.817" gradientTransform="matrix(1 0 0 1.7632 0 -248.9912)" gradientUnits="userSpaceOnUse">
			<stop  offset="0" style="stop-color:#CCCCCC"/>
			<stop  offset="0.0854" style="stop-color:#C7C7C7"/>
			<stop  offset="0.1889" style="stop-color:#B8B8B8"/>
			<stop  offset="0.3019" style="stop-color:#9F9F9F"/>
			<stop  offset="0.4216" style="stop-color:#7D7D7D"/>
			<stop  offset="0.5454" style="stop-color:#525252"/>
			<stop  offset="0.6" style="stop-color:#3C3C3C"/>
			<stop  offset="0.605" style="stop-color:#1E1E1E"/>
			<stop  offset="0.6432" style="stop-color:#393939"/>
			<stop  offset="0.6915" style="stop-color:#535353"/>
			<stop  offset="0.7448" style="stop-color:#676767"/>
			<stop  offset="0.8052" style="stop-color:#757575"/>
			<stop  offset="0.8783" style="stop-color:#7D7D7D"/>
			<stop  offset="1" style="stop-color:#808080"/>
		</radialGradient>
		<path fill="url(#SVGID_17_)" d="M160.787,824.603c-1.054-2.84-2.852-6.363-4.755-8.547l4.755,1.72l4.755-1.72
			C163.639,818.24,161.84,821.763,160.787,824.603z"/>
		
			<radialGradient id="SVGID_18_" cx="160.7871" cy="467.1206" r="97.8087" gradientTransform="matrix(1 0 0 1.7632 0 -248.9912)" gradientUnits="userSpaceOnUse">
			<stop  offset="0" style="stop-color:#CCCCCC"/>
			<stop  offset="0.0854" style="stop-color:#C7C7C7"/>
			<stop  offset="0.1889" style="stop-color:#B8B8B8"/>
			<stop  offset="0.3019" style="stop-color:#9F9F9F"/>
			<stop  offset="0.4216" style="stop-color:#7D7D7D"/>
			<stop  offset="0.5454" style="stop-color:#525252"/>
			<stop  offset="0.6" style="stop-color:#3C3C3C"/>
			<stop  offset="0.605" style="stop-color:#1E1E1E"/>
			<stop  offset="0.6432" style="stop-color:#393939"/>
			<stop  offset="0.6915" style="stop-color:#535353"/>
			<stop  offset="0.7448" style="stop-color:#676767"/>
			<stop  offset="0.8052" style="stop-color:#757575"/>
			<stop  offset="0.8783" style="stop-color:#7D7D7D"/>
			<stop  offset="1" style="stop-color:#808080"/>
		</radialGradient>
		<path fill="url(#SVGID_18_)" d="M160.787,324.712c1.054,2.84,2.852,6.363,4.755,8.547l-4.755-1.72l-4.755,1.72
			C157.936,331.076,159.734,327.552,160.787,324.712z"/>
	</g>
	<g>
		
			<radialGradient id="SVGID_19_" cx="160.7871" cy="467.1333" r="97.8169" fx="141.5917" fy="441.2787" gradientTransform="matrix(1 0 0 1.7632 0 -248.9912)" gradientUnits="userSpaceOnUse">
			<stop  offset="0" style="stop-color:#EBEBEB"/>
			<stop  offset="0.04" style="stop-color:#EBEBEB"/>
			<stop  offset="0.0437" style="stop-color:#E7E7E7"/>
			<stop  offset="0.0864" style="stop-color:#C2C2C2"/>
			<stop  offset="0.129" style="stop-color:#A5A5A5"/>
			<stop  offset="0.1712" style="stop-color:#919191"/>
			<stop  offset="0.2127" style="stop-color:#848484"/>
			<stop  offset="0.2528" style="stop-color:#808080"/>
		</radialGradient>
		<line fill="url(#SVGID_19_)" x1="160.787" y1="330.748" x2="160.787" y2="818.568"/>
		
			<radialGradient id="SVGID_20_" cx="160.7871" cy="467.1313" r="97.817" gradientTransform="matrix(1 0 0 1.7632 0 -248.9912)" gradientUnits="userSpaceOnUse">
			<stop  offset="0" style="stop-color:#EBEBEB"/>
			<stop  offset="0.04" style="stop-color:#EBEBEB"/>
			<stop  offset="0.0437" style="stop-color:#E7E7E7"/>
			<stop  offset="0.0864" style="stop-color:#C2C2C2"/>
			<stop  offset="0.129" style="stop-color:#A5A5A5"/>
			<stop  offset="0.1712" style="stop-color:#919191"/>
			<stop  offset="0.2127" style="stop-color:#848484"/>
			<stop  offset="0.2528" style="stop-color:#808080"/>
		</radialGradient>
		<path fill="url(#SVGID_20_)" d="M160.787,824.603c-1.054-2.84-2.852-6.363-4.755-8.547l4.755,1.72l4.755-1.72
			C163.639,818.24,161.84,821.763,160.787,824.603z"/>
		
			<radialGradient id="SVGID_21_" cx="160.7871" cy="467.1206" r="97.8087" gradientTransform="matrix(1 0 0 1.7632 0 -248.9912)" gradientUnits="userSpaceOnUse">
			<stop  offset="0" style="stop-color:#EBEBEB"/>
			<stop  offset="0.04" style="stop-color:#EBEBEB"/>
			<stop  offset="0.0437" style="stop-color:#E7E7E7"/>
			<stop  offset="0.0864" style="stop-color:#C2C2C2"/>
			<stop  offset="0.129" style="stop-color:#A5A5A5"/>
			<stop  offset="0.1712" style="stop-color:#919191"/>
			<stop  offset="0.2127" style="stop-color:#848484"/>
			<stop  offset="0.2528" style="stop-color:#808080"/>
		</radialGradient>
		<path fill="url(#SVGID_21_)" d="M160.787,324.712c1.054,2.84,2.852,6.363,4.755,8.547l-4.755-1.72l-4.755,1.72
			C157.936,331.076,159.734,327.552,160.787,324.712z"/>
	</g>
	<g>
		<line fill="none" stroke="#000000" stroke-width="0.3" x1="160.787" y1="330.748" x2="160.787" y2="818.568"/>
		<path d="M160.787,820.378c-0.316-0.852-0.855-1.909-1.426-2.564l1.426,0.517l1.426-0.517
			C161.643,818.469,161.103,819.527,160.787,820.378z"/>
		<path d="M160.787,328.937c0.316,0.852,0.855,1.909,1.426,2.564l-1.426-0.516l-1.426,0.516
			C159.932,330.846,160.471,329.789,160.787,328.937z"/>
	</g>
</g>
<g>
	<g>
		<line x1="63.292" y1="11.275" x2="63.292" y2="820.079"/>
		<path d="M63.292,826.114c-1.054-2.84-2.852-6.363-4.755-8.547l4.755,1.72l4.755-1.72C66.144,819.75,64.345,823.274,63.292,826.114
			z"/>
		<path d="M63.292,5.24c1.054,2.84,2.852,6.363,4.755,8.547l-4.755-1.72l-4.755,1.72C60.44,11.603,62.239,8.08,63.292,5.24z"/>
	</g>
	<g>
		
			<radialGradient id="SVGID_22_" cx="63.292" cy="-22.7935" r="97.8193" gradientTransform="matrix(1 0 0 2.9233 0 482.3096)" gradientUnits="userSpaceOnUse">
			<stop  offset="0" style="stop-color:#CCCCCC"/>
			<stop  offset="0.0854" style="stop-color:#C7C7C7"/>
			<stop  offset="0.1889" style="stop-color:#B8B8B8"/>
			<stop  offset="0.3019" style="stop-color:#9F9F9F"/>
			<stop  offset="0.4216" style="stop-color:#7D7D7D"/>
			<stop  offset="0.5454" style="stop-color:#525252"/>
			<stop  offset="0.6" style="stop-color:#3C3C3C"/>
			<stop  offset="0.605" style="stop-color:#1E1E1E"/>
			<stop  offset="0.6432" style="stop-color:#393939"/>
			<stop  offset="0.6915" style="stop-color:#535353"/>
			<stop  offset="0.7448" style="stop-color:#676767"/>
			<stop  offset="0.8052" style="stop-color:#757575"/>
			<stop  offset="0.8783" style="stop-color:#7D7D7D"/>
			<stop  offset="1" style="stop-color:#808080"/>
		</radialGradient>
		<line fill="url(#SVGID_22_)" x1="63.292" y1="11.275" x2="63.292" y2="820.079"/>
		
			<radialGradient id="SVGID_23_" cx="63.292" cy="-22.7915" r="97.8148" gradientTransform="matrix(1 0 0 2.9233 0 482.3096)" gradientUnits="userSpaceOnUse">
			<stop  offset="0" style="stop-color:#CCCCCC"/>
			<stop  offset="0.0854" style="stop-color:#C7C7C7"/>
			<stop  offset="0.1889" style="stop-color:#B8B8B8"/>
			<stop  offset="0.3019" style="stop-color:#9F9F9F"/>
			<stop  offset="0.4216" style="stop-color:#7D7D7D"/>
			<stop  offset="0.5454" style="stop-color:#525252"/>
			<stop  offset="0.6" style="stop-color:#3C3C3C"/>
			<stop  offset="0.605" style="stop-color:#1E1E1E"/>
			<stop  offset="0.6432" style="stop-color:#393939"/>
			<stop  offset="0.6915" style="stop-color:#535353"/>
			<stop  offset="0.7448" style="stop-color:#676767"/>
			<stop  offset="0.8052" style="stop-color:#757575"/>
			<stop  offset="0.8783" style="stop-color:#7D7D7D"/>
			<stop  offset="1" style="stop-color:#808080"/>
		</radialGradient>
		<path fill="url(#SVGID_23_)" d="M63.292,826.114c-1.054-2.84-2.852-6.363-4.755-8.547l4.755,1.72l4.755-1.72
			C66.144,819.75,64.345,823.274,63.292,826.114z"/>
		
			<radialGradient id="SVGID_24_" cx="63.292" cy="-22.7954" r="97.8134" gradientTransform="matrix(1 0 0 2.9233 0 482.3096)" gradientUnits="userSpaceOnUse">
			<stop  offset="0" style="stop-color:#CCCCCC"/>
			<stop  offset="0.0854" style="stop-color:#C7C7C7"/>
			<stop  offset="0.1889" style="stop-color:#B8B8B8"/>
			<stop  offset="0.3019" style="stop-color:#9F9F9F"/>
			<stop  offset="0.4216" style="stop-color:#7D7D7D"/>
			<stop  offset="0.5454" style="stop-color:#525252"/>
			<stop  offset="0.6" style="stop-color:#3C3C3C"/>
			<stop  offset="0.605" style="stop-color:#1E1E1E"/>
			<stop  offset="0.6432" style="stop-color:#393939"/>
			<stop  offset="0.6915" style="stop-color:#535353"/>
			<stop  offset="0.7448" style="stop-color:#676767"/>
			<stop  offset="0.8052" style="stop-color:#757575"/>
			<stop  offset="0.8783" style="stop-color:#7D7D7D"/>
			<stop  offset="1" style="stop-color:#808080"/>
		</radialGradient>
		<path fill="url(#SVGID_24_)" d="M63.292,5.24c1.054,2.84,2.852,6.363,4.755,8.547l-4.755-1.72l-4.755,1.72
			C60.44,11.603,62.239,8.08,63.292,5.24z"/>
	</g>
	<g>
		
			<radialGradient id="SVGID_25_" cx="63.292" cy="-22.7935" r="97.8193" fx="44.0961" fy="-48.6487" gradientTransform="matrix(1 0 0 2.9233 0 482.3096)" gradientUnits="userSpaceOnUse">
			<stop  offset="0" style="stop-color:#EBEBEB"/>
			<stop  offset="0.04" style="stop-color:#EBEBEB"/>
			<stop  offset="0.0437" style="stop-color:#E7E7E7"/>
			<stop  offset="0.0864" style="stop-color:#C2C2C2"/>
			<stop  offset="0.129" style="stop-color:#A5A5A5"/>
			<stop  offset="0.1712" style="stop-color:#919191"/>
			<stop  offset="0.2127" style="stop-color:#848484"/>
			<stop  offset="0.2528" style="stop-color:#808080"/>
		</radialGradient>
		<line fill="url(#SVGID_25_)" x1="63.292" y1="11.275" x2="63.292" y2="820.079"/>
		
			<radialGradient id="SVGID_26_" cx="63.292" cy="-22.7915" r="97.8148" gradientTransform="matrix(1 0 0 2.9233 0 482.3096)" gradientUnits="userSpaceOnUse">
			<stop  offset="0" style="stop-color:#EBEBEB"/>
			<stop  offset="0.04" style="stop-color:#EBEBEB"/>
			<stop  offset="0.0437" style="stop-color:#E7E7E7"/>
			<stop  offset="0.0864" style="stop-color:#C2C2C2"/>
			<stop  offset="0.129" style="stop-color:#A5A5A5"/>
			<stop  offset="0.1712" style="stop-color:#919191"/>
			<stop  offset="0.2127" style="stop-color:#848484"/>
			<stop  offset="0.2528" style="stop-color:#808080"/>
		</radialGradient>
		<path fill="url(#SVGID_26_)" d="M63.292,826.114c-1.054-2.84-2.852-6.363-4.755-8.547l4.755,1.72l4.755-1.72
			C66.144,819.75,64.345,823.274,63.292,826.114z"/>
		
			<radialGradient id="SVGID_27_" cx="63.292" cy="-22.7954" r="97.8134" gradientTransform="matrix(1 0 0 2.9233 0 482.3096)" gradientUnits="userSpaceOnUse">
			<stop  offset="0" style="stop-color:#EBEBEB"/>
			<stop  offset="0.04" style="stop-color:#EBEBEB"/>
			<stop  offset="0.0437" style="stop-color:#E7E7E7"/>
			<stop  offset="0.0864" style="stop-color:#C2C2C2"/>
			<stop  offset="0.129" style="stop-color:#A5A5A5"/>
			<stop  offset="0.1712" style="stop-color:#919191"/>
			<stop  offset="0.2127" style="stop-color:#848484"/>
			<stop  offset="0.2528" style="stop-color:#808080"/>
		</radialGradient>
		<path fill="url(#SVGID_27_)" d="M63.292,5.24c1.054,2.84,2.852,6.363,4.755,8.547l-4.755-1.72l-4.755,1.72
			C60.44,11.603,62.239,8.08,63.292,5.24z"/>
	</g>
	<g>
		<line fill="none" stroke="#000000" stroke-width="0.3" x1="63.292" y1="11.275" x2="63.292" y2="820.079"/>
		<path d="M63.292,821.889c-0.316-0.852-0.855-1.909-1.426-2.564l1.426,0.517l1.426-0.517
			C64.147,819.98,63.608,821.038,63.292,821.889z"/>
		<path d="M63.292,9.464c0.316,0.852,0.855,1.909,1.426,2.564l-1.426-0.516l-1.426,0.516C62.437,11.374,62.976,10.316,63.292,9.464z
			"/>
	</g>
</g>
<path d="M116.378,100.147l2.109-0.281c0.242,1.195,0.654,2.057,1.236,2.584s1.291,0.791,2.127,0.791c0.992,0,1.83-0.344,2.514-1.031
	s1.025-1.539,1.025-2.555c0-0.969-0.316-1.768-0.949-2.396s-1.438-0.943-2.414-0.943c-0.398,0-0.895,0.078-1.488,0.234l0.234-1.852
	c0.141,0.016,0.254,0.023,0.34,0.023c0.898,0,1.707-0.234,2.426-0.703s1.078-1.191,1.078-2.168c0-0.773-0.262-1.414-0.785-1.922
	s-1.199-0.762-2.027-0.762c-0.82,0-1.504,0.258-2.051,0.773s-0.898,1.289-1.055,2.32l-2.109-0.375
	c0.258-1.414,0.844-2.51,1.758-3.287s2.051-1.166,3.41-1.166c0.938,0,1.801,0.201,2.59,0.604s1.393,0.951,1.811,1.646
	s0.627,1.434,0.627,2.215c0,0.742-0.199,1.418-0.598,2.027s-0.988,1.094-1.77,1.453c1.016,0.234,1.805,0.721,2.367,1.459
	s0.844,1.662,0.844,2.771c0,1.5-0.547,2.771-1.641,3.814s-2.477,1.564-4.148,1.564c-1.508,0-2.76-0.449-3.756-1.348
	S116.519,101.577,116.378,100.147z"/>
<path d="M131.414,103.194c-1.133-1.43-1.699-3.758-1.699-6.984c0-2.031,0.209-3.666,0.627-4.904s1.039-2.193,1.863-2.865
	s1.861-1.008,3.111-1.008c0.922,0,1.73,0.186,2.426,0.557s1.27,0.906,1.723,1.605s0.809,1.551,1.066,2.555s0.387,2.357,0.387,4.061
	c0,2.016-0.207,3.643-0.621,4.881s-1.033,2.195-1.857,2.871s-1.865,1.014-3.123,1.014
	C133.66,104.975,132.359,104.381,131.414,103.194L131.414,103.194z M132.972,90.409c-0.727,1.047-1.09,2.98-1.09,5.801
	s0.33,4.697,0.99,5.631s1.475,1.4,2.443,1.4s1.783-0.469,2.443-1.406s0.99-2.813,0.99-5.625c0-2.828-0.33-4.707-0.99-5.637
	s-1.482-1.395-2.467-1.395C134.324,89.178,133.55,89.588,132.972,90.409L132.972,90.409z"/>
<path d="M144.761,103.194c-1.133-1.43-1.699-3.758-1.699-6.984c0-2.031,0.209-3.666,0.627-4.904s1.039-2.193,1.863-2.865
	s1.861-1.008,3.111-1.008c0.922,0,1.73,0.186,2.426,0.557s1.27,0.906,1.723,1.605s0.809,1.551,1.066,2.555s0.387,2.357,0.387,4.061
	c0,2.016-0.207,3.643-0.621,4.881s-1.033,2.195-1.857,2.871s-1.865,1.014-3.123,1.014
	C147.007,104.975,145.707,104.381,144.761,103.194L144.761,103.194z M146.32,90.409c-0.727,1.047-1.09,2.98-1.09,5.801
	s0.33,4.697,0.99,5.631s1.475,1.4,2.443,1.4s1.783-0.469,2.443-1.406s0.99-2.813,0.99-5.625c0-2.828-0.33-4.707-0.99-5.637
	s-1.482-1.395-2.467-1.395C147.671,89.178,146.898,89.588,146.32,90.409L146.32,90.409z"/>
<path d="M126.463,266.663v2.027h-11.355c-0.016-0.508,0.066-0.996,0.246-1.465c0.289-0.773,0.752-1.535,1.389-2.285
	s1.557-1.617,2.76-2.602c1.867-1.531,3.129-2.744,3.785-3.639s0.984-1.74,0.984-2.537c0-0.836-0.299-1.541-0.896-2.115
	s-1.377-0.861-2.338-0.861c-1.016,0-1.828,0.305-2.438,0.914s-0.918,1.453-0.926,2.531l-2.168-0.223
	c0.148-1.617,0.707-2.85,1.676-3.697s2.27-1.271,3.902-1.271c1.648,0,2.953,0.457,3.914,1.371s1.441,2.047,1.441,3.398
	c0,0.688-0.141,1.363-0.422,2.027s-0.748,1.363-1.4,2.098s-1.736,1.742-3.252,3.023c-1.266,1.063-2.078,1.783-2.438,2.162
	s-0.656,0.76-0.891,1.143H126.463z"/>
<path d="M130.424,267.202c-1.133-1.43-1.699-3.758-1.699-6.984c0-2.031,0.209-3.666,0.627-4.904s1.039-2.193,1.863-2.865
	s1.861-1.008,3.111-1.008c0.922,0,1.73,0.186,2.426,0.557s1.27,0.906,1.723,1.605s0.809,1.551,1.066,2.555s0.387,2.357,0.387,4.061
	c0,2.016-0.207,3.643-0.621,4.881s-1.033,2.195-1.857,2.871s-1.865,1.014-3.123,1.014
	C132.67,268.983,131.369,268.39,130.424,267.202L130.424,267.202z M131.982,254.417c-0.727,1.047-1.09,2.98-1.09,5.801
	s0.33,4.697,0.99,5.631s1.475,1.4,2.443,1.4s1.783-0.469,2.443-1.406s0.99-2.813,0.99-5.625c0-2.828-0.33-4.707-0.99-5.637
	s-1.482-1.395-2.467-1.395C133.334,253.187,132.561,253.597,131.982,254.417L131.982,254.417z"/>
<path d="M143.771,267.202c-1.133-1.43-1.699-3.758-1.699-6.984c0-2.031,0.209-3.666,0.627-4.904s1.039-2.193,1.863-2.865
	s1.861-1.008,3.111-1.008c0.922,0,1.73,0.186,2.426,0.557s1.27,0.906,1.723,1.605s0.809,1.551,1.066,2.555s0.387,2.357,0.387,4.061
	c0,2.016-0.207,3.643-0.621,4.881s-1.033,2.195-1.857,2.871s-1.865,1.014-3.123,1.014
	C146.018,268.983,144.717,268.39,143.771,267.202L143.771,267.202z M145.33,254.417c-0.727,1.047-1.09,2.98-1.09,5.801
	s0.33,4.697,0.99,5.631s1.475,1.4,2.443,1.4s1.783-0.469,2.443-1.406s0.99-2.813,0.99-5.625c0-2.828-0.33-4.707-0.99-5.637
	s-1.482-1.395-2.467-1.395C146.682,253.187,145.908,253.597,145.33,254.417L145.33,254.417z"/>
<path d="M118.622,544.36c-0.875-0.32-1.523-0.777-1.945-1.371s-0.633-1.305-0.633-2.133c0-1.25,0.449-2.301,1.348-3.152
	s2.094-1.277,3.586-1.277c1.5,0,2.707,0.436,3.621,1.307s1.371,1.932,1.371,3.182c0,0.797-0.209,1.49-0.627,2.08
	s-1.053,1.045-1.904,1.365c1.055,0.344,1.857,0.898,2.408,1.664s0.826,1.68,0.826,2.742c0,1.469-0.52,2.703-1.559,3.703
	s-2.406,1.5-4.102,1.5s-3.063-0.502-4.102-1.506s-1.559-2.256-1.559-3.756c0-1.117,0.283-2.053,0.85-2.807
	S117.575,544.633,118.622,544.36z M117.521,548.719c0,0.602,0.143,1.184,0.428,1.746s0.709,0.998,1.271,1.307
	s1.168,0.463,1.816,0.463c1.008,0,1.84-0.324,2.496-0.973s0.984-1.473,0.984-2.473c0-1.016-0.338-1.855-1.014-2.52
	s-1.521-0.996-2.537-0.996c-0.992,0-1.814,0.328-2.467,0.984S117.521,547.735,117.521,548.719z M118.2,540.786
	c0,0.813,0.262,1.477,0.785,1.992s1.203,0.773,2.039,0.773c0.813,0,1.479-0.256,1.998-0.768s0.779-1.139,0.779-1.881
	c0-0.773-0.268-1.424-0.803-1.951s-1.201-0.791-1.998-0.791c-0.805,0-1.473,0.258-2.004,0.773S118.2,540.067,118.2,540.786z"/>
<path d="M130.423,552.188c-1.133-1.43-1.699-3.758-1.699-6.984c0-2.031,0.209-3.666,0.627-4.904s1.039-2.193,1.863-2.865
	s1.861-1.008,3.111-1.008c0.922,0,1.73,0.186,2.426,0.557s1.27,0.906,1.723,1.605s0.809,1.551,1.066,2.555s0.387,2.357,0.387,4.061
	c0,2.016-0.207,3.643-0.621,4.881s-1.033,2.195-1.857,2.871s-1.865,1.014-3.123,1.014
	C132.669,553.969,131.368,553.375,130.423,552.188L130.423,552.188z M131.981,539.403c-0.727,1.047-1.09,2.98-1.09,5.801
	s0.33,4.697,0.99,5.631s1.475,1.4,2.443,1.4s1.783-0.469,2.443-1.406s0.99-2.813,0.99-5.625c0-2.828-0.33-4.707-0.99-5.637
	s-1.482-1.395-2.467-1.395C133.333,538.172,132.56,538.583,131.981,539.403L131.981,539.403z"/>
<path d="M143.771,552.188c-1.133-1.43-1.699-3.758-1.699-6.984c0-2.031,0.209-3.666,0.627-4.904s1.039-2.193,1.863-2.865
	s1.861-1.008,3.111-1.008c0.922,0,1.73,0.186,2.426,0.557s1.27,0.906,1.723,1.605s0.809,1.551,1.066,2.555s0.387,2.357,0.387,4.061
	c0,2.016-0.207,3.643-0.621,4.881s-1.033,2.195-1.857,2.871s-1.865,1.014-3.123,1.014
	C146.017,553.969,144.716,553.375,143.771,552.188L143.771,552.188z M145.329,539.403c-0.727,1.047-1.09,2.98-1.09,5.801
	s0.33,4.697,0.99,5.631s1.475,1.4,2.443,1.4s1.783-0.469,2.443-1.406s0.99-2.813,0.99-5.625c0-2.828-0.33-4.707-0.99-5.637
	s-1.482-1.395-2.467-1.395C146.681,538.172,145.907,538.583,145.329,539.403L145.329,539.403z"/>
<path d="M6.328,388.685H4.219v-13.441c-0.508,0.484-1.174,0.969-1.998,1.453s-1.564,0.848-2.221,1.09v-2.039
	c1.18-0.555,2.211-1.227,3.094-2.016s1.508-1.555,1.875-2.297h1.359V388.685z"/>
<path d="M11.742,384.149l2.109-0.281c0.242,1.195,0.654,2.057,1.236,2.584s1.291,0.791,2.127,0.791c0.992,0,1.83-0.344,2.514-1.031
	s1.025-1.539,1.025-2.555c0-0.969-0.316-1.768-0.949-2.396s-1.438-0.943-2.414-0.943c-0.398,0-0.895,0.078-1.488,0.234l0.234-1.852
	c0.141,0.016,0.254,0.023,0.34,0.023c0.898,0,1.707-0.234,2.426-0.703s1.078-1.191,1.078-2.168c0-0.773-0.262-1.414-0.785-1.922
	s-1.199-0.762-2.027-0.762c-0.82,0-1.504,0.258-2.051,0.773s-0.898,1.289-1.055,2.32l-2.109-0.375
	c0.258-1.414,0.844-2.51,1.758-3.287s2.051-1.166,3.41-1.166c0.938,0,1.801,0.201,2.59,0.604s1.393,0.951,1.811,1.646
	s0.627,1.434,0.627,2.215c0,0.742-0.199,1.418-0.598,2.027s-0.988,1.094-1.77,1.453c1.016,0.234,1.805,0.721,2.367,1.459
	s0.844,1.662,0.844,2.771c0,1.5-0.547,2.771-1.641,3.814s-2.477,1.564-4.148,1.564c-1.508,0-2.76-0.449-3.756-1.348
	S11.883,385.579,11.742,384.149z"/>
<path d="M26.777,387.196c-1.133-1.43-1.699-3.758-1.699-6.984c0-2.031,0.209-3.666,0.627-4.904s1.039-2.193,1.863-2.865
	s1.861-1.008,3.111-1.008c0.922,0,1.73,0.186,2.426,0.557s1.27,0.906,1.723,1.605s0.809,1.551,1.066,2.555s0.387,2.357,0.387,4.061
	c0,2.016-0.207,3.643-0.621,4.881s-1.033,2.195-1.857,2.871s-1.865,1.014-3.123,1.014C29.023,388.978,27.723,388.384,26.777,387.196
	L26.777,387.196z M28.336,374.411c-0.727,1.047-1.09,2.98-1.09,5.801s0.33,4.697,0.99,5.631s1.475,1.4,2.443,1.4
	s1.783-0.469,2.443-1.406s0.99-2.813,0.99-5.625c0-2.828-0.33-4.707-0.99-5.637s-1.482-1.395-2.467-1.395
	C29.688,373.181,28.914,373.591,28.336,374.411L28.336,374.411z"/>
<path d="M40.125,387.196c-1.133-1.43-1.699-3.758-1.699-6.984c0-2.031,0.209-3.666,0.627-4.904s1.039-2.193,1.863-2.865
	s1.861-1.008,3.111-1.008c0.922,0,1.73,0.186,2.426,0.557s1.27,0.906,1.723,1.605s0.809,1.551,1.066,2.555s0.387,2.357,0.387,4.061
	c0,2.016-0.207,3.643-0.621,4.881s-1.033,2.195-1.857,2.871s-1.865,1.014-3.123,1.014C42.371,388.978,41.07,388.384,40.125,387.196
	L40.125,387.196z M41.684,374.411c-0.727,1.047-1.09,2.98-1.09,5.801s0.33,4.697,0.99,5.631s1.475,1.4,2.443,1.4
	s1.783-0.469,2.443-1.406s0.99-2.813,0.99-5.625c0-2.828-0.33-4.707-0.99-5.637s-1.482-1.395-2.467-1.395
	C43.035,373.181,42.262,373.591,41.684,374.411L41.684,374.411z"/>
<linearGradient id="SVGID_28_" gradientUnits="userSpaceOnUse" x1="224.7715" y1="17.0884" x2="350.1045" y2="17.0884">
	<stop  offset="0" style="stop-color:#FFFFFF"/>
	<stop  offset="0.1838" style="stop-color:#FBFBFB"/>
	<stop  offset="0.3775" style="stop-color:#EEEEEE"/>
	<stop  offset="0.5759" style="stop-color:#D9D9D9"/>
	<stop  offset="0.776" style="stop-color:#BCBCBC"/>
	<stop  offset="0.9494" style="stop-color:#9C9C9C"/>
</linearGradient>
<polygon fill="url(#SVGID_28_)" stroke="#000000" stroke-width="0.1764" stroke-linecap="round" stroke-linejoin="round" points="
	224.771,34.088 287.438,0.088 350.104,33.35 "/>
</svg>
