<?xml version="1.0" encoding="utf-8"?>
<!-- Generator: Adobe Illustrator 28.3.0, SVG Export Plug-In . SVG Version: 6.00 Build 0)  -->
<svg version="1.1"
	 id="svg2" xmlns:inkscape="http://www.inkscape.org/namespaces/inkscape" xmlns:sodipodi="http://sodipodi.sourceforge.net/DTD/sodipodi-0.dtd" xmlns:svg="http://www.w3.org/2000/svg" xmlns:rdf="http://www.w3.org/1999/02/22-rdf-syntax-ns#" xmlns:cc="http://creativecommons.org/ns#" xmlns:dc="http://purl.org/dc/elements/1.1/"
	 xmlns="http://www.w3.org/2000/svg" xmlns:xlink="http://www.w3.org/1999/xlink" x="0px" y="0px" viewBox="0 0 109.9 444"
	 style="enable-background:new 0 0 109.9 444;" xml:space="preserve">
<style type="text/css">
	.st0{fill:#FFFFFF;stroke:#C4C4C4;stroke-width:2;stroke-miterlimit:40;}
	.st1{fill:#AFAFAF;}
	.st2{fill:#F41A0E;}
	.st3{fill:none;stroke:#C4C4C4;stroke-width:2;stroke-miterlimit:40;}
</style>
<sodipodi:namedview  bordercolor="#666666" borderopacity="1" fit-margin-bottom="1.2" fit-margin-left="1.2" fit-margin-right="1.2" fit-margin-top="1.2" gridtolerance="10" guidetolerance="10" id="namedview10" inkscape:current-layer="svg2" inkscape:cx="154.27258" inkscape:cy="50.360483" inkscape:guide-bbox="true" inkscape:pageopacity="0" inkscape:pageshadow="2" inkscape:window-height="1057" inkscape:window-maximized="1" inkscape:window-width="1920" inkscape:window-x="-8" inkscape:window-y="-8" inkscape:zoom="2.4887605" objecttolerance="10" pagecolor="#ffffff" showgrid="false" showguides="true">
	</sodipodi:namedview>
<path class="st0" d="M28.2,443.1h53.5c15,0,27.2-12.2,27.2-27.2V28.2c0-15-12.2-27.2-27.2-27.2H28.2C13.2,1,1,13.2,1,28.2v387.7
	C1,430.9,13.2,443.1,28.2,443.1z"/>
<path class="st1" d="M1,321.3v94.6c0,15,12.2,27.2,27.2,27.2h53.5c15,0,27.2-12.2,27.2-27.2v-94.6H1z"/>
<polygon class="st2" points="1,193.7 108.9,131.4 108.9,95 1,157.3 "/>
<path class="st3" d="M28.2,443.1h53.5c15,0,27.2-12.2,27.2-27.2V28.2c0-15-12.2-27.2-27.2-27.2H28.2C13.2,1,1,13.2,1,28.2v387.7
	C1,430.9,13.2,443.1,28.2,443.1z"/>
</svg>
