<?xml version="1.0" encoding="UTF-8" standalone="no"?>
<!-- Created with Inkscape (http://www.inkscape.org/) -->

<svg
   width="150.13229mm"
   height="304.28067mm"
   viewBox="0 0 150.13229 304.28067"
   version="1.1"
   id="svg5"
   xml:space="preserve"
   inkscape:version="1.2.2 (732a01da63, 2022-12-09)"
   sodipodi:docname="5555555.svg"
   xmlns:inkscape="http://www.inkscape.org/namespaces/inkscape"
   xmlns:sodipodi="http://sodipodi.sourceforge.net/DTD/sodipodi-0.dtd"
   xmlns="http://www.w3.org/2000/svg"
   xmlns:svg="http://www.w3.org/2000/svg"><sodipodi:namedview
     id="namedview7"
     pagecolor="#ffffff"
     bordercolor="#000000"
     borderopacity="0.25"
     inkscape:showpageshadow="2"
     inkscape:pageopacity="0.0"
     inkscape:pagecheckerboard="0"
     inkscape:deskcolor="#d1d1d1"
     inkscape:document-units="mm"
     showgrid="false"
     inkscape:zoom="0.49271354"
     inkscape:cx="-104.52321"
     inkscape:cy="934.62014"
     inkscape:window-width="1920"
     inkscape:window-height="991"
     inkscape:window-x="-9"
     inkscape:window-y="-9"
     inkscape:window-maximized="1"
     inkscape:current-layer="layer1" /><defs
     id="defs2" /><g
     inkscape:label="Layer 1"
     inkscape:groupmode="layer"
     id="layer1"
     transform="translate(214.02904,24.297153)"><g
       id="g1887"
       transform="matrix(0.57482809,0,0,0.57482809,-90.97101,-10.302344)"><g
         id="rect361"
         style="opacity:1"><g
           id="path991"><path
             style="color:#000000;fill:#333333;fill-rule:evenodd;stroke:none;stroke-width:0.230141;stroke-linecap:round;stroke-linejoin:round;stroke-dasharray:none;stroke-opacity:1;paint-order:stroke fill markers"
             d="m -202.22852,-24.080078 c -1.14037,-0.200568 -2.31538,-0.202578 -3.47265,0.002 -4.76041,0.841311 -8.26052,5.011289 -8.26172,9.845703 V 479.49414 c 5.5e-4,5.49288 4.50712,9.99945 10,10 h 87.48828 c 5.49288,-5.5e-4 9.99945,-4.50712 10,-10 V 36.279297 c -7e-4,-3.568005 -1.91012,-6.874023 -5,-8.658203 a 2.50025,2.50025 0 0 0 0,-0.002 l -87.48828,-50.513672 a 2.50025,2.50025 0 0 0 -0.002,0 c -1.01804,-0.587122 -2.1233,-0.984979 -3.26368,-1.185547 z m -2.60156,4.923828 c 1.15815,-0.204686 2.35034,0.0062 3.36914,0.59375 l 87.48633,50.511719 c 1.55026,0.89516 2.49965,2.539937 2.5,4.330078 V 479.49414 c -2.8e-4,2.79104 -2.20896,4.99972 -5,5 h -87.48828 c -2.79104,-2.8e-4 -4.99972,-2.20896 -5,-5 V -14.232422 c 6e-4,-2.442689 1.72534,-4.497385 4.13086,-4.921875 a 2.50025,2.50025 0 0 0 0.002,-0.002 z m 9.61719,15.7480469 a 2.50025,2.50025 0 0 0 -3.75,2.1660156 V 471.99414 a 2.50025,2.50025 0 0 0 2.5,2.5 h 72.48828 a 2.50025,2.50025 0 0 0 2.5,-2.5 V 40.609375 a 2.50025,2.50025 0 0 0 -1.25,-2.166016 z m 1.25,6.4960937 67.48828,38.9648434 V 469.49414 h -67.48828 z"
             id="path1046" /><path
             style="color:#000000;fill:#e6e6e6;fill-rule:evenodd;stroke-width:5;stroke-linecap:round;stroke-linejoin:round;-inkscape-stroke:none;paint-order:stroke fill markers"
             d="m -205.26562,-21.617187 a 7.50075,7.50075 0 0 0 -6.19727,7.384765 V 479.49414 a 7.50075,7.50075 0 0 0 7.5,7.5 h 87.48828 a 7.50075,7.50075 0 0 0 7.5,-7.5 V 36.279297 a 7.50075,7.50075 0 0 0 -3.75,-6.494141 l -87.48828,-50.513672 a 7.50075,7.50075 0 0 0 -5.05273,-0.888671 z m 8.80273,20.3749995 72.48828,41.8515625 V 471.99414 h -72.48828 z"
             id="path1048" /></g><path
           style="color:#000000;fill:#0000ff;fill-opacity:1;fill-rule:evenodd;stroke-width:15;stroke-linecap:round;stroke-linejoin:round;-inkscape-stroke:none;paint-order:stroke fill markers"
           d="M -203.96378,-14.232723 V 479.49425 h 87.48975 V 36.279439 Z"
           id="path993" /></g><path
         id="path427"
         style="opacity:1;fill:#ffffff;fill-rule:evenodd;stroke-width:0.348347;stroke-linecap:round;stroke-linejoin:round;paint-order:stroke fill markers"
         d="m -203.96378,72.680835 v 83.769045 l 87.48975,50.51268 v -83.76905 z m 0,170.038195 v 83.76905 l 87.48975,50.51268 v -83.76905 z" /><g
         id="rect1103"
         style="opacity:1"><path
           style="color:#000000;fill:#333333;fill-opacity:1;fill-rule:evenodd;stroke:none;stroke-width:0.230141;stroke-linecap:round;stroke-dasharray:none;stroke-opacity:1;paint-order:stroke fill markers"
           d="m -193.61914,486.99414 v 2.5 15.38672 h 66.80078 v -17.88672 z m 5,5 h 56.80078 v 7.88672 h -56.80078 z"
           id="path1736" /><path
           style="color:#000000;fill:#999999;fill-rule:evenodd;stroke-width:5;stroke-linecap:round;-inkscape-stroke:none;paint-order:stroke fill markers"
           d="m -191.11826,489.49414 h 61.79902 v 12.88691 h -61.79902 z"
           id="path1738" /></g></g><g
       id="g1907"
       transform="matrix(-0.57482809,0,0,0.57482809,-186.95477,-10.302344)"><g
         id="g1897"
         style="opacity:1"><g
           id="g1893"><path
             style="color:#000000;fill:#333333;fill-rule:evenodd;stroke:none;stroke-width:0.230141;stroke-linecap:round;stroke-linejoin:round;stroke-dasharray:none;stroke-opacity:1;paint-order:stroke fill markers"
             d="m -202.22852,-24.080078 c -1.14037,-0.200568 -2.31538,-0.202578 -3.47265,0.002 -4.76041,0.841311 -8.26052,5.011289 -8.26172,9.845703 V 479.49414 c 5.5e-4,5.49288 4.50712,9.99945 10,10 h 87.48828 c 5.49288,-5.5e-4 9.99945,-4.50712 10,-10 V 36.279297 c -7e-4,-3.568005 -1.91012,-6.874023 -5,-8.658203 a 2.50025,2.50025 0 0 0 0,-0.002 l -87.48828,-50.513672 a 2.50025,2.50025 0 0 0 -0.002,0 c -1.01804,-0.587122 -2.1233,-0.984979 -3.26368,-1.185547 z m -2.60156,4.923828 c 1.15815,-0.204686 2.35034,0.0062 3.36914,0.59375 l 87.48633,50.511719 c 1.55026,0.89516 2.49965,2.539937 2.5,4.330078 V 479.49414 c -2.8e-4,2.79104 -2.20896,4.99972 -5,5 h -87.48828 c -2.79104,-2.8e-4 -4.99972,-2.20896 -5,-5 V -14.232422 c 6e-4,-2.442689 1.72534,-4.497385 4.13086,-4.921875 a 2.50025,2.50025 0 0 0 0.002,-0.002 z m 9.61719,15.7480469 a 2.50025,2.50025 0 0 0 -3.75,2.1660156 V 471.99414 a 2.50025,2.50025 0 0 0 2.5,2.5 h 72.48828 a 2.50025,2.50025 0 0 0 2.5,-2.5 V 40.609375 a 2.50025,2.50025 0 0 0 -1.25,-2.166016 z m 1.25,6.4960937 67.48828,38.9648434 V 469.49414 h -67.48828 z"
             id="path1889" /><path
             style="color:#000000;fill:#e6e6e6;fill-rule:evenodd;stroke-width:5;stroke-linecap:round;stroke-linejoin:round;-inkscape-stroke:none;paint-order:stroke fill markers"
             d="m -205.26562,-21.617187 a 7.50075,7.50075 0 0 0 -6.19727,7.384765 V 479.49414 a 7.50075,7.50075 0 0 0 7.5,7.5 h 87.48828 a 7.50075,7.50075 0 0 0 7.5,-7.5 V 36.279297 a 7.50075,7.50075 0 0 0 -3.75,-6.494141 l -87.48828,-50.513672 a 7.50075,7.50075 0 0 0 -5.05273,-0.888671 z m 8.80273,20.3749995 72.48828,41.8515625 V 471.99414 h -72.48828 z"
             id="path1891" /></g><path
           style="color:#000000;fill:#0000ff;fill-opacity:1;fill-rule:evenodd;stroke-width:15;stroke-linecap:round;stroke-linejoin:round;-inkscape-stroke:none;paint-order:stroke fill markers"
           d="M -203.96378,-14.232723 V 479.49425 h 87.48975 V 36.279439 Z"
           id="path1895" /></g><path
         id="path1899"
         style="opacity:1;fill:#ffffff;fill-rule:evenodd;stroke-width:0.348347;stroke-linecap:round;stroke-linejoin:round;paint-order:stroke fill markers"
         d="m -203.96378,72.680835 v 83.769045 l 87.48975,50.51268 v -83.76905 z m 0,170.038195 v 83.76905 l 87.48975,50.51268 v -83.76905 z" /><g
         id="g1905"
         style="opacity:1"><path
           style="color:#000000;fill:#333333;fill-opacity:1;fill-rule:evenodd;stroke:none;stroke-width:0.230141;stroke-linecap:round;stroke-dasharray:none;stroke-opacity:1;paint-order:stroke fill markers"
           d="m -193.61914,486.99414 v 2.5 15.38672 h 66.80078 v -17.88672 z m 5,5 h 56.80078 v 7.88672 h -56.80078 z"
           id="path1901" /><path
           style="color:#000000;fill:#999999;fill-rule:evenodd;stroke-width:5;stroke-linecap:round;-inkscape-stroke:none;paint-order:stroke fill markers"
           d="m -191.11826,489.49414 h 61.79902 v 12.88691 h -61.79902 z"
           id="path1903" /></g></g></g></svg>
