<?xml version="1.0" encoding="utf-8"?>
<!-- Generator: Adobe Illustrator 13.0.0, SVG Export Plug-In  -->
<!DOCTYPE svg PUBLIC "-//W3C//DTD SVG 1.1//EN" "http://www.w3.org/Graphics/SVG/1.1/DTD/svg11.dtd" [
	<!ENTITY ns_flows "http://ns.adobe.com/Flows/1.0/">
]>
<svg version="1.1"
	 xmlns="http://www.w3.org/2000/svg" xmlns:xlink="http://www.w3.org/1999/xlink" xmlns:a="http://ns.adobe.com/AdobeSVGViewerExtensions/3.0/"
	 x="0px" y="0px" width="597px" height="231px" viewBox="0 0 597 231" enable-background="new 0 0 597 231" xml:space="preserve">
<defs>
</defs>
<linearGradient id="SVGID_1_" gradientUnits="userSpaceOnUse" x1="0" y1="168" x2="45" y2="168">
	<stop  offset="0" style="stop-color:#007F01"/>
	<stop  offset="0.9944" style="stop-color:#FFFFFF"/>
</linearGradient>
<polygon fill="url(#SVGID_1_)" points="1,231 43,230 45,105 0,131 "/>
<linearGradient id="SVGID_2_" gradientUnits="userSpaceOnUse" x1="1" y1="139" x2="44" y2="139">
	<stop  offset="0" style="stop-color:#CDCDCD"/>
	<stop  offset="0.9944" style="stop-color:#FFFFFF"/>
</linearGradient>
<polygon fill="url(#SVGID_2_)" points="1,139 44,116 44,162 "/>
<linearGradient id="SVGID_3_" gradientUnits="userSpaceOnUse" x1="52" y1="154" x2="96" y2="154">
	<stop  offset="0" style="stop-color:#007F01"/>
	<stop  offset="0.9944" style="stop-color:#FFFFFF"/>
</linearGradient>
<polygon fill="url(#SVGID_3_)" points="52,229 52,104 96,78 96,230 "/>
<linearGradient id="SVGID_4_" gradientUnits="userSpaceOnUse" x1="102" y1="142" x2="147" y2="142">
	<stop  offset="0" style="stop-color:#007F01"/>
	<stop  offset="0.9944" style="stop-color:#FFFFFF"/>
</linearGradient>
<polygon fill="url(#SVGID_4_)" points="102,229 147,231 146,53 102,78 "/>
<linearGradient id="SVGID_5_" gradientUnits="userSpaceOnUse" x1="153" y1="127.5" x2="198" y2="127.5">
	<stop  offset="0" style="stop-color:#007F01"/>
	<stop  offset="0.9944" style="stop-color:#FFFFFF"/>
</linearGradient>
<polygon fill="url(#SVGID_5_)" points="153,230 197,230 198,25 153,51 "/>
<linearGradient id="SVGID_6_" gradientUnits="userSpaceOnUse" x1="203" y1="115" x2="247" y2="115">
	<stop  offset="0" style="stop-color:#007F01"/>
	<stop  offset="0.9944" style="stop-color:#FFFFFF"/>
</linearGradient>
<polygon fill="url(#SVGID_6_)" points="203,228 246,230 247,0 203,23 "/>
<linearGradient id="SVGID_7_" gradientUnits="userSpaceOnUse" x1="51" y1="132" x2="96" y2="132">
	<stop  offset="0" style="stop-color:#CDCDCD"/>
	<stop  offset="0.9944" style="stop-color:#FFFFFF"/>
</linearGradient>
<polygon fill="url(#SVGID_7_)" points="52,116 69,103 96,122 95,161 51,131 "/>
<linearGradient id="SVGID_8_" gradientUnits="userSpaceOnUse" x1="102" y1="108" x2="147" y2="108">
	<stop  offset="0" style="stop-color:#E4E4E4"/>
	<stop  offset="0.9944" style="stop-color:#FFFFFF"/>
</linearGradient>
<polygon fill="url(#SVGID_8_)" points="102,86 146,53 145,88 125,107 145,129 147,163 102,132 "/>
<linearGradient id="SVGID_9_" gradientUnits="userSpaceOnUse" x1="153" y1="96.3335" x2="197.6665" y2="96.3335">
	<stop  offset="0" style="stop-color:#E4E4E4"/>
	<stop  offset="0.9944" style="stop-color:#FFFFFF"/>
</linearGradient>
<polygon fill="url(#SVGID_9_)" points="153,61.667 197.667,28.333 197,75.667 175.667,95.667 197.667,117 196.333,164.333 153,131 
	"/>
<linearGradient id="SVGID_10_" gradientUnits="userSpaceOnUse" x1="203" y1="91.667" x2="245.6665" y2="91.667">
	<stop  offset="0" style="stop-color:#E4E4E4"/>
	<stop  offset="0.9944" style="stop-color:#FFFFFF"/>
</linearGradient>
<polygon fill="url(#SVGID_10_)" points="203,51.667 245.667,21 245.667,73.667 226.333,89 245.667,109.667 245.667,162.333 
	203.667,131.667 "/>
<linearGradient id="SVGID_11_" gradientUnits="userSpaceOnUse" x1="253.6665" y1="115.667" x2="297.6665" y2="115.667">
	<stop  offset="0" style="stop-color:#007F01"/>
	<stop  offset="0.9944" style="stop-color:#FFFFFF"/>
</linearGradient>
<rect x="253.667" y="0.333" fill="url(#SVGID_11_)" width="44" height="230.667"/>
<linearGradient id="SVGID_12_" gradientUnits="userSpaceOnUse" x1="253.6665" y1="86.333" x2="297.6665" y2="86.333">
	<stop  offset="0" style="stop-color:#E4E4E4"/>
	<stop  offset="0.9944" style="stop-color:#FFFFFF"/>
</linearGradient>
<polygon fill="url(#SVGID_12_)" points="254.333,41 297,9 297,66.333 275.667,85.667 297.667,105.667 297.667,163.667 
	253.667,131.667 "/>
<linearGradient id="SVGID_13_" gradientUnits="userSpaceOnUse" x1="89.668" y1="154" x2="133.668" y2="154" gradientTransform="matrix(-1 0 0 1 638.667 0)">
	<stop  offset="0" style="stop-color:#007F01"/>
	<stop  offset="0.9944" style="stop-color:#FFFFFF"/>
</linearGradient>
<polygon fill="url(#SVGID_13_)" points="548.999,229 548.999,104 504.999,78 504.999,230 "/>
<linearGradient id="SVGID_14_" gradientUnits="userSpaceOnUse" x1="139.668" y1="142" x2="184.668" y2="142" gradientTransform="matrix(-1 0 0 1 638.667 0)">
	<stop  offset="0" style="stop-color:#007F01"/>
	<stop  offset="0.9944" style="stop-color:#FFFFFF"/>
</linearGradient>
<polygon fill="url(#SVGID_14_)" points="498.999,229 453.999,231 454.999,53 498.999,78 "/>
<linearGradient id="SVGID_15_" gradientUnits="userSpaceOnUse" x1="190.668" y1="127.5" x2="235.668" y2="127.5" gradientTransform="matrix(-1 0 0 1 638.667 0)">
	<stop  offset="0" style="stop-color:#007F01"/>
	<stop  offset="0.9944" style="stop-color:#FFFFFF"/>
</linearGradient>
<polygon fill="url(#SVGID_15_)" points="447.999,230 403.999,230 402.999,25 447.999,51 "/>
<linearGradient id="SVGID_16_" gradientUnits="userSpaceOnUse" x1="240.668" y1="115" x2="284.668" y2="115" gradientTransform="matrix(-1 0 0 1 638.667 0)">
	<stop  offset="0" style="stop-color:#007F01"/>
	<stop  offset="0.9944" style="stop-color:#FFFFFF"/>
</linearGradient>
<polygon fill="url(#SVGID_16_)" points="397.999,228 354.999,230 353.999,0 397.999,23 "/>
<linearGradient id="SVGID_17_" gradientUnits="userSpaceOnUse" x1="88.668" y1="132" x2="133.668" y2="132" gradientTransform="matrix(-1 0 0 1 638.667 0)">
	<stop  offset="0" style="stop-color:#CDCDCD"/>
	<stop  offset="0.9944" style="stop-color:#FFFFFF"/>
</linearGradient>
<polygon fill="url(#SVGID_17_)" points="548.999,116 531.999,103 504.999,122 505.999,161 549.999,131 "/>
<linearGradient id="SVGID_18_" gradientUnits="userSpaceOnUse" x1="139.668" y1="108" x2="184.668" y2="108" gradientTransform="matrix(-1 0 0 1 638.667 0)">
	<stop  offset="0" style="stop-color:#E4E4E4"/>
	<stop  offset="0.9944" style="stop-color:#FFFFFF"/>
</linearGradient>
<polygon fill="url(#SVGID_18_)" points="498.999,86 454.999,53 455.999,88 475.999,107 455.999,129 453.999,163 498.999,132 "/>
<linearGradient id="SVGID_19_" gradientUnits="userSpaceOnUse" x1="190.668" y1="96.334" x2="235.335" y2="96.334" gradientTransform="matrix(-1 0 0 1 638.667 0)">
	<stop  offset="0" style="stop-color:#E4E4E4"/>
	<stop  offset="0.9944" style="stop-color:#FFFFFF"/>
</linearGradient>
<polygon fill="url(#SVGID_19_)" points="447.999,61.667 403.332,28.333 403.999,75.667 425.332,95.667 403.332,117 404.666,164.334 
	447.999,131 "/>
<linearGradient id="SVGID_20_" gradientUnits="userSpaceOnUse" x1="240.668" y1="91.667" x2="283.334" y2="91.667" gradientTransform="matrix(-1 0 0 1 638.667 0)">
	<stop  offset="0" style="stop-color:#E4E4E4"/>
	<stop  offset="0.9944" style="stop-color:#FFFFFF"/>
</linearGradient>
<polygon fill="url(#SVGID_20_)" points="397.999,51.667 355.333,21 355.333,73.667 374.665,89 355.333,109.667 355.333,162.334 
	397.332,131.666 "/>
<linearGradient id="SVGID_21_" gradientUnits="userSpaceOnUse" x1="291.334" y1="115.667" x2="335.334" y2="115.667" gradientTransform="matrix(-1 0 0 1 638.667 0)">
	<stop  offset="0" style="stop-color:#007F01"/>
	<stop  offset="0.9944" style="stop-color:#FFFFFF"/>
</linearGradient>
<rect x="303.333" y="0.333" fill="url(#SVGID_21_)" width="44" height="230.667"/>
<linearGradient id="SVGID_22_" gradientUnits="userSpaceOnUse" x1="291.334" y1="86.333" x2="335.334" y2="86.333" gradientTransform="matrix(-1 0 0 1 638.667 0)">
	<stop  offset="0" style="stop-color:#E4E4E4"/>
	<stop  offset="0.9944" style="stop-color:#FFFFFF"/>
</linearGradient>
<polygon fill="url(#SVGID_22_)" points="346.665,41 303.999,9 303.999,66.333 325.333,85.667 303.333,105.667 303.333,163.666 
	347.333,131.666 "/>
<linearGradient id="SVGID_23_" gradientUnits="userSpaceOnUse" x1="486" y1="168" x2="531" y2="168" gradientTransform="matrix(-1 0 0 1 1083 0)">
	<stop  offset="0" style="stop-color:#007F01"/>
	<stop  offset="0.9944" style="stop-color:#FFFFFF"/>
</linearGradient>
<polygon fill="url(#SVGID_23_)" points="596,231 554,230 552,105 597,131 "/>
<linearGradient id="SVGID_24_" gradientUnits="userSpaceOnUse" x1="487" y1="139" x2="530" y2="139" gradientTransform="matrix(-1 0 0 1 1083 0)">
	<stop  offset="0" style="stop-color:#CDCDCD"/>
	<stop  offset="0.9944" style="stop-color:#FFFFFF"/>
</linearGradient>
<polygon fill="url(#SVGID_24_)" points="596,139 553,116 553,162 "/>
</svg>
