<?xml version="1.0" encoding="utf-8"?>
<!-- Generator: Adobe Illustrator 13.0.0, SVG Export Plug-In  -->
<!DOCTYPE svg PUBLIC "-//W3C//DTD SVG 1.1//EN" "http://www.w3.org/Graphics/SVG/1.1/DTD/svg11.dtd" [
	<!ENTITY ns_flows "http://ns.adobe.com/Flows/1.0/">
]>
<svg version="1.1"
	 xmlns="http://www.w3.org/2000/svg" xmlns:xlink="http://www.w3.org/1999/xlink" xmlns:a="http://ns.adobe.com/AdobeSVGViewerExtensions/3.0/"
	 x="0px" y="0px" width="820px" height="493px" viewBox="0 -0.855 820 493" enable-background="new 0 -0.855 820 493"
	 xml:space="preserve">
<defs>
</defs>
<g>
	
		<radialGradient id="SVGID_1_" cx="410.2676" cy="427.1445" r="164.0558" gradientTransform="matrix(1.0251 0 0 1 2.5971 0)" gradientUnits="userSpaceOnUse">
		<stop  offset="0" style="stop-color:#CCCCCC"/>
		<stop  offset="0.0854" style="stop-color:#C7C7C7"/>
		<stop  offset="0.1889" style="stop-color:#B8B8B8"/>
		<stop  offset="0.3019" style="stop-color:#9F9F9F"/>
		<stop  offset="0.4216" style="stop-color:#7D7D7D"/>
		<stop  offset="0.5454" style="stop-color:#525252"/>
		<stop  offset="0.6" style="stop-color:#3C3C3C"/>
		<stop  offset="0.605" style="stop-color:#1E1E1E"/>
		<stop  offset="0.6432" style="stop-color:#393939"/>
		<stop  offset="0.6915" style="stop-color:#535353"/>
		<stop  offset="0.7448" style="stop-color:#676767"/>
		<stop  offset="0.8052" style="stop-color:#757575"/>
		<stop  offset="0.8783" style="stop-color:#7D7D7D"/>
		<stop  offset="1" style="stop-color:#808080"/>
	</radialGradient>
	<rect x="185.333" y="426.145" fill="url(#SVGID_1_)" width="475.667" height="2"/>
	
		<radialGradient id="SVGID_2_" cx="410.2676" cy="427.1445" r="164.0558" fx="378.0736" fy="383.7819" gradientTransform="matrix(1.0251 0 0 1 2.5971 0)" gradientUnits="userSpaceOnUse">
		<stop  offset="0" style="stop-color:#EBEBEB"/>
		<stop  offset="0.04" style="stop-color:#EBEBEB"/>
		<stop  offset="0.0437" style="stop-color:#E7E7E7"/>
		<stop  offset="0.0864" style="stop-color:#C2C2C2"/>
		<stop  offset="0.129" style="stop-color:#A5A5A5"/>
		<stop  offset="0.1712" style="stop-color:#919191"/>
		<stop  offset="0.2127" style="stop-color:#848484"/>
		<stop  offset="0.2528" style="stop-color:#808080"/>
	</radialGradient>
	<rect x="185.333" y="426.145" fill="url(#SVGID_2_)" width="475.667" height="2"/>
	<rect x="185.333" y="426.145" fill="none" stroke="#429F00" stroke-width="20" width="475.667" height="2"/>
</g>
<path fill="none" stroke="#009F07" stroke-width="21" d="M658.333,427.479h52c0,0,19.667-3.334,38,8.666l66,36"/>
<g>
</g>
<path d="M88.471,384.672l2.281,0.575c-0.478,1.868-1.337,3.292-2.578,4.272c-1.241,0.98-2.758,1.471-4.55,1.471
	c-1.855,0-3.365-0.377-4.527-1.132c-1.163-0.755-2.047-1.847-2.654-3.278c-0.607-1.431-0.91-2.967-0.91-4.609
	c0-1.791,0.343-3.353,1.028-4.686s1.661-2.346,2.926-3.038c1.265-0.692,2.658-1.038,4.178-1.038c1.724,0,3.173,0.438,4.348,1.313
	s1.994,2.105,2.457,3.69l-2.25,0.528c-0.4-1.252-0.98-2.164-1.74-2.736c-0.76-0.571-1.716-0.857-2.868-0.857
	c-1.324,0-2.431,0.317-3.32,0.951c-0.89,0.635-1.515,1.486-1.875,2.555c-0.36,1.069-0.541,2.172-0.541,3.307
	c0,1.464,0.213,2.742,0.64,3.834c0.427,1.094,1.09,1.91,1.991,2.449c0.9,0.541,1.875,0.811,2.924,0.811
	c1.276,0,2.357-0.367,3.242-1.104S88.158,386.121,88.471,384.672z"/>
<path d="M93.272,390.709v-17.188h2.125v6.145c0.977-1.138,2.21-1.707,3.699-1.707c0.915,0,1.71,0.182,2.385,0.546
	s1.157,0.867,1.448,1.509s0.437,1.573,0.437,2.794v7.901h-2.125v-7.906c0-1.058-0.226-1.827-0.677-2.309s-1.09-0.723-1.915-0.723
	c-0.617,0-1.197,0.162-1.741,0.488c-0.544,0.324-0.932,0.766-1.163,1.321s-0.347,1.323-0.347,2.302v6.826H93.272z"/>
<path d="M114.713,389.146c-0.757,0.674-1.498,1.15-2.221,1.428c-0.724,0.277-1.501,0.416-2.33,0.416
	c-1.37,0-2.422-0.334-3.158-1.003c-0.736-0.669-1.104-1.522-1.104-2.563c0-0.609,0.139-1.166,0.417-1.671s0.642-0.909,1.092-1.214
	s0.957-0.536,1.521-0.692c0.415-0.109,1.041-0.215,1.878-0.317c1.706-0.203,2.962-0.445,3.769-0.727
	c0.008-0.29,0.012-0.475,0.012-0.553c0-0.862-0.2-1.471-0.598-1.823c-0.54-0.479-1.341-0.718-2.404-0.718
	c-0.993,0-1.726,0.175-2.199,0.523c-0.473,0.349-0.823,0.966-1.049,1.852l-2.063-0.281c0.187-0.885,0.495-1.6,0.924-2.145
	s1.048-0.965,1.859-1.258c0.811-0.295,1.75-0.441,2.818-0.441c1.06,0,1.921,0.125,2.584,0.377c0.663,0.25,1.15,0.565,1.461,0.945
	s0.53,0.859,0.655,1.439c0.07,0.361,0.105,1.011,0.105,1.949v2.816c0,1.963,0.044,3.205,0.132,3.726
	c0.088,0.521,0.263,1.02,0.524,1.497h-2.156C114.939,390.264,114.783,389.743,114.713,389.146z M114.526,384.459
	c-0.762,0.313-1.904,0.578-3.426,0.797c-0.863,0.125-1.473,0.266-1.83,0.422s-0.633,0.385-0.828,0.686s-0.291,0.635-0.291,1.002
	c0,0.563,0.213,1.031,0.64,1.406s1.051,0.563,1.874,0.563c0.814,0,1.539-0.178,2.173-0.533s1.1-0.843,1.398-1.46
	c0.227-0.476,0.341-1.179,0.341-2.108L114.526,384.459z"/>
<path d="M128.092,390.709v-1.825c-0.967,1.404-2.281,2.106-3.942,2.106c-0.733,0-1.417-0.141-2.053-0.422
	c-0.636-0.282-1.107-0.637-1.415-1.063c-0.308-0.428-0.524-0.949-0.649-1.568c-0.086-0.414-0.128-1.072-0.128-1.973v-7.725h2.125
	v6.92c0,1.104,0.042,1.848,0.128,2.232c0.132,0.556,0.412,0.992,0.84,1.31s0.957,0.476,1.586,0.476s1.221-0.162,1.773-0.487
	c0.552-0.325,0.942-0.768,1.172-1.327c0.229-0.561,0.344-1.373,0.344-2.438v-6.685h2.125v12.469H128.092z"/>
<path d="M132.471,386.99l2.094-0.344c0.117,0.838,0.442,1.479,0.975,1.925s1.279,0.669,2.237,0.669c0.965,0,1.682-0.196,2.149-0.59
	s0.701-0.855,0.701-1.385c0-0.475-0.209-0.849-0.627-1.121c-0.292-0.188-1.012-0.425-2.158-0.713
	c-1.545-0.392-2.615-0.73-3.21-1.016c-0.596-0.287-1.047-0.682-1.355-1.188c-0.308-0.505-0.461-1.063-0.461-1.674
	c0-0.557,0.126-1.071,0.38-1.545c0.253-0.475,0.599-0.867,1.036-1.182c0.328-0.242,0.774-0.447,1.34-0.616s1.172-0.253,1.819-0.253
	c0.975,0,1.831,0.141,2.568,0.423c0.737,0.282,1.281,0.663,1.632,1.146c0.351,0.48,0.593,1.125,0.726,1.932l-2.063,0.281
	c-0.094-0.638-0.365-1.136-0.813-1.494c-0.449-0.357-1.083-0.537-1.901-0.537c-0.968,0-1.658,0.16-2.071,0.479
	c-0.414,0.32-0.62,0.693-0.62,1.121c0,0.272,0.085,0.518,0.257,0.736c0.172,0.226,0.441,0.412,0.808,0.561
	c0.21,0.078,0.831,0.256,1.861,0.537c1.49,0.398,2.529,0.727,3.119,0.98c0.59,0.255,1.053,0.625,1.389,1.11s0.504,1.089,0.504,1.81
	c0,0.705-0.205,1.369-0.614,1.991c-0.409,0.623-1,1.104-1.771,1.445c-0.772,0.341-1.645,0.511-2.619,0.511
	c-1.613,0-2.843-0.336-3.689-1.009S132.705,388.313,132.471,386.99z"/>
<path d="M144.471,386.99l2.094-0.344c0.117,0.838,0.442,1.479,0.975,1.925s1.279,0.669,2.237,0.669c0.965,0,1.682-0.196,2.149-0.59
	s0.701-0.855,0.701-1.385c0-0.475-0.209-0.849-0.627-1.121c-0.292-0.188-1.012-0.425-2.158-0.713
	c-1.545-0.392-2.615-0.73-3.21-1.016c-0.596-0.287-1.047-0.682-1.355-1.188c-0.308-0.505-0.461-1.063-0.461-1.674
	c0-0.557,0.126-1.071,0.38-1.545c0.253-0.475,0.599-0.867,1.036-1.182c0.328-0.242,0.774-0.447,1.34-0.616s1.172-0.253,1.819-0.253
	c0.975,0,1.831,0.141,2.568,0.423c0.737,0.282,1.281,0.663,1.632,1.146c0.351,0.48,0.593,1.125,0.726,1.932l-2.063,0.281
	c-0.094-0.638-0.365-1.136-0.813-1.494c-0.449-0.357-1.083-0.537-1.901-0.537c-0.968,0-1.658,0.16-2.071,0.479
	c-0.414,0.32-0.62,0.693-0.62,1.121c0,0.272,0.085,0.518,0.257,0.736c0.172,0.226,0.441,0.412,0.808,0.561
	c0.21,0.078,0.831,0.256,1.861,0.537c1.49,0.398,2.529,0.727,3.119,0.98c0.59,0.255,1.053,0.625,1.389,1.11s0.504,1.089,0.504,1.81
	c0,0.705-0.205,1.369-0.614,1.991c-0.409,0.623-1,1.104-1.771,1.445c-0.772,0.341-1.645,0.511-2.619,0.511
	c-1.613,0-2.843-0.336-3.689-1.009S144.705,388.313,144.471,386.99z"/>
<path d="M165.823,386.678l2.172,0.281c-0.344,1.277-0.98,2.269-1.91,2.974c-0.93,0.705-2.117,1.058-3.562,1.058
	c-1.82,0-3.263-0.562-4.329-1.685c-1.066-1.123-1.599-2.698-1.599-4.726c0-2.098,0.539-3.725,1.617-4.883
	c1.078-1.158,2.476-1.738,4.194-1.738c1.663,0,3.022,0.568,4.077,1.704c1.054,1.136,1.582,2.733,1.582,4.794
	c0,0.126-0.004,0.314-0.012,0.564h-9.301c0.078,1.363,0.466,2.407,1.165,3.132s1.569,1.087,2.612,1.087
	c0.776,0,1.439-0.203,1.988-0.611C165.065,388.222,165.501,387.571,165.823,386.678z M158.877,383.271h6.969
	c-0.094-1.043-0.361-1.826-0.799-2.348c-0.674-0.81-1.547-1.215-2.621-1.215c-0.972,0-1.788,0.323-2.45,0.97
	S158.948,382.189,158.877,383.271z M160.659,376.709l1.563-3.281h2.781l-2.594,3.281H160.659z"/>
<path d="M179.17,386.678l2.172,0.281c-0.344,1.277-0.98,2.269-1.91,2.974c-0.93,0.705-2.117,1.058-3.562,1.058
	c-1.82,0-3.263-0.562-4.329-1.685c-1.066-1.123-1.599-2.698-1.599-4.726c0-2.098,0.539-3.725,1.617-4.883
	c1.078-1.158,2.476-1.738,4.194-1.738c1.663,0,3.022,0.568,4.077,1.704c1.054,1.136,1.582,2.733,1.582,4.794
	c0,0.126-0.004,0.314-0.012,0.564H172.1c0.078,1.363,0.466,2.407,1.165,3.132s1.569,1.087,2.612,1.087
	c0.776,0,1.439-0.203,1.988-0.611C178.413,388.222,178.849,387.571,179.17,386.678z M172.225,383.271h6.969
	c-0.094-1.043-0.361-1.826-0.799-2.348c-0.674-0.81-1.547-1.215-2.621-1.215c-0.972,0-1.788,0.323-2.45,0.97
	S172.295,382.189,172.225,383.271z"/>
<g>
	<rect x="10" y="426.145" fill="#444444" width="207" height="2"/>
	
		<radialGradient id="SVGID_3_" cx="-35.999" cy="427.1445" r="164.0213" gradientTransform="matrix(0.4462 0 0 1 129.5627 0)" gradientUnits="userSpaceOnUse">
		<stop  offset="0" style="stop-color:#CCCCCC"/>
		<stop  offset="0.0854" style="stop-color:#C7C7C7"/>
		<stop  offset="0.1889" style="stop-color:#B8B8B8"/>
		<stop  offset="0.3019" style="stop-color:#9F9F9F"/>
		<stop  offset="0.4216" style="stop-color:#7D7D7D"/>
		<stop  offset="0.5454" style="stop-color:#525252"/>
		<stop  offset="0.6" style="stop-color:#3C3C3C"/>
		<stop  offset="0.605" style="stop-color:#1E1E1E"/>
		<stop  offset="0.6432" style="stop-color:#393939"/>
		<stop  offset="0.6915" style="stop-color:#535353"/>
		<stop  offset="0.7448" style="stop-color:#676767"/>
		<stop  offset="0.8052" style="stop-color:#757575"/>
		<stop  offset="0.8783" style="stop-color:#7D7D7D"/>
		<stop  offset="1" style="stop-color:#808080"/>
	</radialGradient>
	<rect x="10" y="426.145" fill="url(#SVGID_3_)" width="207" height="2"/>
	
		<radialGradient id="SVGID_4_" cx="-35.999" cy="427.1445" r="164.0213" fx="-68.1862" fy="383.791" gradientTransform="matrix(0.4462 0 0 1 129.5627 0)" gradientUnits="userSpaceOnUse">
		<stop  offset="0" style="stop-color:#EBEBEB"/>
		<stop  offset="0.04" style="stop-color:#EBEBEB"/>
		<stop  offset="0.0437" style="stop-color:#E7E7E7"/>
		<stop  offset="0.0864" style="stop-color:#C2C2C2"/>
		<stop  offset="0.129" style="stop-color:#A5A5A5"/>
		<stop  offset="0.1712" style="stop-color:#919191"/>
		<stop  offset="0.2127" style="stop-color:#848484"/>
		<stop  offset="0.2528" style="stop-color:#808080"/>
	</radialGradient>
	<rect x="10" y="426.145" fill="url(#SVGID_4_)" width="207" height="2"/>
	<rect x="10" y="426.145" fill="none" stroke="#474747" stroke-width="20" width="207" height="2"/>
</g>
<path fill="#099F00" stroke="#128F34" d="M267.001,388.146c-0.757,0.674-1.498,1.15-2.221,1.428
	c-0.725,0.277-1.502,0.416-2.33,0.416c-1.37,0-2.423-0.334-3.158-1.003c-0.736-0.669-1.104-1.522-1.104-2.563
	c0-0.609,0.139-1.166,0.416-1.671c0.278-0.505,0.643-0.909,1.092-1.214c0.451-0.305,0.957-0.536,1.521-0.692
	c0.414-0.109,1.04-0.215,1.878-0.317c1.706-0.203,2.962-0.445,3.769-0.727c0.008-0.29,0.012-0.475,0.012-0.553
	c0-0.862-0.199-1.471-0.598-1.823c-0.54-0.479-1.342-0.718-2.404-0.718c-0.993,0-1.727,0.175-2.199,0.523s-0.822,0.966-1.049,1.852
	l-2.063-0.281c0.188-0.885,0.495-1.6,0.924-2.145s1.049-0.965,1.859-1.258c0.811-0.295,1.75-0.441,2.817-0.441
	c1.06,0,1.921,0.125,2.584,0.377c0.663,0.25,1.149,0.565,1.462,0.945c0.311,0.38,0.529,0.859,0.654,1.439
	c0.07,0.361,0.105,1.011,0.105,1.949v2.816c0,1.963,0.044,3.205,0.133,3.726c0.088,0.521,0.262,1.02,0.523,1.497h-2.156
	C267.227,389.263,267.07,388.742,267.001,388.146z M266.813,383.458c-0.762,0.313-1.904,0.578-3.426,0.797
	c-0.863,0.125-1.473,0.266-1.83,0.422s-0.634,0.385-0.828,0.686s-0.291,0.635-0.291,1.002c0,0.563,0.213,1.031,0.641,1.406
	c0.426,0.375,1.051,0.563,1.873,0.563c0.814,0,1.539-0.178,2.174-0.533c0.634-0.355,1.1-0.843,1.397-1.46
	c0.228-0.476,0.341-1.179,0.341-2.108L266.813,383.458z"/>
<path fill="#099F00" stroke="#128F34" d="M280.38,385.146l2.063,0.281c-0.227,1.428-0.805,2.545-1.736,3.352
	c-0.932,0.808-2.074,1.211-3.43,1.211c-1.699,0-3.065-0.558-4.098-1.673c-1.033-1.115-1.549-2.714-1.549-4.796
	c0-1.346,0.223-2.523,0.667-3.533s1.121-1.768,2.03-2.271c0.908-0.506,1.897-0.758,2.967-0.758c1.35,0,2.453,0.345,3.311,1.033
	c0.858,0.689,1.408,1.668,1.65,2.936l-2.063,0.281c-0.195-0.829-0.54-1.453-1.035-1.872c-0.494-0.419-1.093-0.628-1.794-0.628
	c-1.06,0-1.921,0.381-2.583,1.142c-0.663,0.761-0.994,1.966-0.994,3.612c0,1.671,0.32,2.885,0.961,3.642
	c0.64,0.757,1.475,1.136,2.506,1.136c0.827,0,1.518-0.253,2.072-0.759S280.231,386.196,280.38,385.146z"/>
<path fill="#099F00" stroke="#128F34" d="M292.38,385.146l2.063,0.281c-0.227,1.428-0.805,2.545-1.736,3.352
	c-0.932,0.808-2.074,1.211-3.43,1.211c-1.699,0-3.065-0.558-4.098-1.673c-1.033-1.115-1.549-2.714-1.549-4.796
	c0-1.346,0.223-2.523,0.667-3.533s1.121-1.768,2.03-2.271c0.908-0.506,1.897-0.758,2.967-0.758c1.35,0,2.453,0.345,3.311,1.033
	c0.858,0.689,1.408,1.668,1.65,2.936l-2.063,0.281c-0.195-0.829-0.54-1.453-1.035-1.872c-0.494-0.419-1.093-0.628-1.794-0.628
	c-1.06,0-1.921,0.381-2.583,1.142c-0.663,0.761-0.994,1.966-0.994,3.612c0,1.671,0.32,2.885,0.961,3.642
	c0.64,0.757,1.475,1.136,2.506,1.136c0.827,0,1.518-0.253,2.072-0.759S292.231,386.196,292.38,385.146z"/>
<path fill="#099F00" stroke="#128F34" d="M295.474,383.474c0-2.309,0.639-4.02,1.916-5.131c1.066-0.923,2.367-1.385,3.902-1.385
	c1.705,0,3.1,0.562,4.183,1.685s1.624,2.675,1.624,4.655c0,1.604-0.24,2.866-0.719,3.785c-0.479,0.92-1.176,1.635-2.092,2.143
	c-0.914,0.51-1.914,0.764-2.996,0.764c-1.737,0-3.141-0.56-4.212-1.679S295.474,385.579,295.474,383.474z M297.63,383.468
	c0,1.595,0.347,2.789,1.041,3.582s1.568,1.189,2.621,1.189c1.045,0,1.914-0.398,2.609-1.195c0.693-0.797,1.041-2.013,1.041-3.646
	c0-1.539-0.35-2.706-1.047-3.5c-0.699-0.793-1.566-1.189-2.604-1.189c-1.053,0-1.927,0.395-2.621,1.184
	C297.977,380.682,297.63,381.874,297.63,383.468z"/>
<path fill="#099F00" stroke="#128F34" d="M314.196,387.817l0.281,1.863c-0.595,0.125-1.127,0.188-1.597,0.188
	c-0.767,0-1.362-0.121-1.784-0.363c-0.423-0.242-0.721-0.561-0.893-0.955s-0.258-1.225-0.258-2.49v-7.16h-1.563v-1.656h1.563v-3.082
	l2.125-1.266v4.348h2.125v1.656h-2.125v7.277c0,0.602,0.037,0.988,0.111,1.16s0.195,0.309,0.364,0.41
	c0.168,0.102,0.409,0.152,0.722,0.152C313.503,387.899,313.813,387.872,314.196,387.817z"/>
<path fill="#099F00" stroke="#128F34" d="M324.778,385.677l2.172,0.281c-0.344,1.277-0.98,2.269-1.909,2.974
	c-0.93,0.705-2.116,1.058-3.562,1.058c-1.82,0-3.263-0.562-4.328-1.685c-1.066-1.123-1.6-2.698-1.6-4.726
	c0-2.098,0.539-3.725,1.617-4.883c1.077-1.158,2.475-1.738,4.193-1.738c1.663,0,3.021,0.568,4.076,1.704s1.582,2.733,1.582,4.794
	c0,0.126-0.004,0.314-0.012,0.564h-9.301c0.078,1.363,0.467,2.407,1.164,3.132c0.699,0.725,1.569,1.087,2.612,1.087
	c0.776,0,1.438-0.203,1.987-0.611C324.021,387.221,324.456,386.57,324.778,385.677z M317.833,382.271h6.969
	c-0.094-1.043-0.361-1.826-0.799-2.348c-0.674-0.81-1.548-1.215-2.621-1.215c-0.972,0-1.788,0.323-2.45,0.97
	S317.903,381.188,317.833,382.271z"/>
<path fill="#099F00" stroke="#128F34" d="M329.618,389.708v-12.469h1.906v1.762c0.391-0.613,0.91-1.107,1.56-1.482
	c0.649-0.373,1.388-0.561,2.217-0.561c0.923,0,1.679,0.193,2.269,0.578c0.59,0.387,1.007,0.926,1.25,1.617
	c0.99-1.463,2.279-2.195,3.868-2.195c1.242,0,2.197,0.343,2.866,1.027c0.668,0.686,1.002,1.74,1.002,3.164v8.559h-2.125v-7.846
	c0-0.844-0.068-1.451-0.206-1.823c-0.138-0.371-0.386-0.671-0.747-0.897c-0.36-0.227-0.783-0.34-1.27-0.34
	c-0.879,0-1.608,0.291-2.188,0.874s-0.87,1.515-0.87,2.796v7.236h-2.125v-8.092c0-0.938-0.172-1.642-0.516-2.111
	c-0.344-0.469-0.905-0.703-1.686-0.703c-0.594,0-1.143,0.156-1.646,0.469c-0.504,0.313-0.868,0.771-1.095,1.373
	c-0.227,0.602-0.34,1.469-0.34,2.603v6.462H329.618z"/>
<path fill="#099F00" stroke="#128F34" d="M358.118,385.677l2.172,0.281c-0.344,1.277-0.98,2.269-1.909,2.974
	c-0.93,0.705-2.116,1.058-3.562,1.058c-1.82,0-3.263-0.562-4.328-1.685c-1.066-1.123-1.6-2.698-1.6-4.726
	c0-2.098,0.539-3.725,1.617-4.883c1.077-1.158,2.475-1.738,4.193-1.738c1.663,0,3.021,0.568,4.076,1.704s1.582,2.733,1.582,4.794
	c0,0.126-0.004,0.314-0.012,0.564h-9.301c0.078,1.363,0.467,2.407,1.164,3.132c0.699,0.725,1.569,1.087,2.612,1.087
	c0.776,0,1.438-0.203,1.987-0.611C357.36,387.221,357.796,386.57,358.118,385.677z M351.173,382.271h6.969
	c-0.094-1.043-0.361-1.826-0.799-2.348c-0.674-0.81-1.548-1.215-2.621-1.215c-0.972,0-1.788,0.323-2.45,0.97
	S351.243,381.188,351.173,382.271z"/>
<path fill="#099F00" stroke="#128F34" d="M362.958,389.708v-12.469h1.906v1.77c0.911-1.367,2.227-2.051,3.947-2.051
	c0.748,0,1.435,0.135,2.062,0.405s1.097,0.624,1.407,1.063c0.313,0.438,0.529,0.958,0.654,1.562
	c0.078,0.391,0.117,1.076,0.117,2.055v7.666h-2.125v-7.576c0-0.859-0.082-1.502-0.244-1.929c-0.162-0.426-0.451-0.767-0.865-1.021
	s-0.9-0.381-1.458-0.381c-0.892,0-1.66,0.285-2.307,0.856s-0.97,1.653-0.97,3.248v6.802H362.958z"/>
<path fill="#099F00" stroke="#128F34" d="M380.899,387.817l0.281,1.863c-0.595,0.125-1.127,0.188-1.597,0.188
	c-0.767,0-1.362-0.121-1.784-0.363c-0.423-0.242-0.721-0.561-0.893-0.955s-0.258-1.225-0.258-2.49v-7.16h-1.563v-1.656h1.563v-3.082
	l2.125-1.266v4.348h2.125v1.656h-2.125v7.277c0,0.602,0.037,0.988,0.111,1.16s0.195,0.309,0.364,0.41
	c0.168,0.102,0.409,0.152,0.722,0.152C380.206,387.899,380.516,387.872,380.899,387.817z"/>
<g>
	<g>
		<line fill="#0002BF" x1="464.574" y1="6.035" x2="464.574" y2="93.953"/>
		<path fill="#0002BF" d="M464.574,99.988c-1.054-2.84-2.852-6.363-4.755-8.547l4.755,1.72l4.755-1.72
			C467.426,93.625,465.627,97.148,464.574,99.988z"/>
		<path fill="#0002BF" d="M464.574,0c1.054,2.84,2.852,6.363,4.755,8.547l-4.755-1.72l-4.755,1.72
			C461.723,6.363,463.521,2.84,464.574,0z"/>
	</g>
	<g>
		
			<radialGradient id="SVGID_5_" cx="464.5742" cy="87.1953" r="48.9126" gradientTransform="matrix(1 0 0 0.6355 0 -5.4187)" gradientUnits="userSpaceOnUse">
			<stop  offset="0" style="stop-color:#CCCCCC"/>
			<stop  offset="0.0854" style="stop-color:#C7C7C7"/>
			<stop  offset="0.1889" style="stop-color:#B8B8B8"/>
			<stop  offset="0.3019" style="stop-color:#9F9F9F"/>
			<stop  offset="0.4216" style="stop-color:#7D7D7D"/>
			<stop  offset="0.5454" style="stop-color:#525252"/>
			<stop  offset="0.6" style="stop-color:#3C3C3C"/>
			<stop  offset="0.605" style="stop-color:#1E1E1E"/>
			<stop  offset="0.6432" style="stop-color:#393939"/>
			<stop  offset="0.6915" style="stop-color:#535353"/>
			<stop  offset="0.7448" style="stop-color:#676767"/>
			<stop  offset="0.8052" style="stop-color:#757575"/>
			<stop  offset="0.8783" style="stop-color:#7D7D7D"/>
			<stop  offset="1" style="stop-color:#808080"/>
		</radialGradient>
		<line fill="url(#SVGID_5_)" x1="464.574" y1="6.035" x2="464.574" y2="93.953"/>
		
			<radialGradient id="SVGID_6_" cx="464.5742" cy="87.1953" r="48.9126" gradientTransform="matrix(1 0 0 0.6355 0 -5.4187)" gradientUnits="userSpaceOnUse">
			<stop  offset="0" style="stop-color:#CCCCCC"/>
			<stop  offset="0.0854" style="stop-color:#C7C7C7"/>
			<stop  offset="0.1889" style="stop-color:#B8B8B8"/>
			<stop  offset="0.3019" style="stop-color:#9F9F9F"/>
			<stop  offset="0.4216" style="stop-color:#7D7D7D"/>
			<stop  offset="0.5454" style="stop-color:#525252"/>
			<stop  offset="0.6" style="stop-color:#3C3C3C"/>
			<stop  offset="0.605" style="stop-color:#1E1E1E"/>
			<stop  offset="0.6432" style="stop-color:#393939"/>
			<stop  offset="0.6915" style="stop-color:#535353"/>
			<stop  offset="0.7448" style="stop-color:#676767"/>
			<stop  offset="0.8052" style="stop-color:#757575"/>
			<stop  offset="0.8783" style="stop-color:#7D7D7D"/>
			<stop  offset="1" style="stop-color:#808080"/>
		</radialGradient>
		<path fill="url(#SVGID_6_)" d="M464.574,99.988c-1.054-2.84-2.852-6.363-4.755-8.547l4.755,1.72l4.755-1.72
			C467.426,93.625,465.627,97.148,464.574,99.988z"/>
		
			<radialGradient id="SVGID_7_" cx="464.5742" cy="87.1953" r="48.9124" gradientTransform="matrix(1 0 0 0.6355 0 -5.4187)" gradientUnits="userSpaceOnUse">
			<stop  offset="0" style="stop-color:#CCCCCC"/>
			<stop  offset="0.0854" style="stop-color:#C7C7C7"/>
			<stop  offset="0.1889" style="stop-color:#B8B8B8"/>
			<stop  offset="0.3019" style="stop-color:#9F9F9F"/>
			<stop  offset="0.4216" style="stop-color:#7D7D7D"/>
			<stop  offset="0.5454" style="stop-color:#525252"/>
			<stop  offset="0.6" style="stop-color:#3C3C3C"/>
			<stop  offset="0.605" style="stop-color:#1E1E1E"/>
			<stop  offset="0.6432" style="stop-color:#393939"/>
			<stop  offset="0.6915" style="stop-color:#535353"/>
			<stop  offset="0.7448" style="stop-color:#676767"/>
			<stop  offset="0.8052" style="stop-color:#757575"/>
			<stop  offset="0.8783" style="stop-color:#7D7D7D"/>
			<stop  offset="1" style="stop-color:#808080"/>
		</radialGradient>
		<path fill="url(#SVGID_7_)" d="M464.574,0c1.054,2.84,2.852,6.363,4.755,8.547l-4.755-1.72l-4.755,1.72
			C461.723,6.363,463.521,2.84,464.574,0z"/>
	</g>
	<g>
		
			<radialGradient id="SVGID_8_" cx="464.5742" cy="87.1953" r="48.9126" fx="454.9757" fy="74.2669" gradientTransform="matrix(1 0 0 0.6355 0 -5.4187)" gradientUnits="userSpaceOnUse">
			<stop  offset="0" style="stop-color:#EBEBEB"/>
			<stop  offset="0.04" style="stop-color:#EBEBEB"/>
			<stop  offset="0.0437" style="stop-color:#E7E7E7"/>
			<stop  offset="0.0864" style="stop-color:#C2C2C2"/>
			<stop  offset="0.129" style="stop-color:#A5A5A5"/>
			<stop  offset="0.1712" style="stop-color:#919191"/>
			<stop  offset="0.2127" style="stop-color:#848484"/>
			<stop  offset="0.2528" style="stop-color:#808080"/>
		</radialGradient>
		<line fill="url(#SVGID_8_)" x1="464.574" y1="6.035" x2="464.574" y2="93.953"/>
		
			<radialGradient id="SVGID_9_" cx="464.5742" cy="87.1953" r="48.9126" fx="454.9757" fy="74.2669" gradientTransform="matrix(1 0 0 0.6355 0 -5.4187)" gradientUnits="userSpaceOnUse">
			<stop  offset="0" style="stop-color:#EBEBEB"/>
			<stop  offset="0.04" style="stop-color:#EBEBEB"/>
			<stop  offset="0.0437" style="stop-color:#E7E7E7"/>
			<stop  offset="0.0864" style="stop-color:#C2C2C2"/>
			<stop  offset="0.129" style="stop-color:#A5A5A5"/>
			<stop  offset="0.1712" style="stop-color:#919191"/>
			<stop  offset="0.2127" style="stop-color:#848484"/>
			<stop  offset="0.2528" style="stop-color:#808080"/>
		</radialGradient>
		<path fill="url(#SVGID_9_)" d="M464.574,99.988c-1.054-2.84-2.852-6.363-4.755-8.547l4.755,1.72l4.755-1.72
			C467.426,93.625,465.627,97.148,464.574,99.988z"/>
		
			<radialGradient id="SVGID_10_" cx="464.5742" cy="87.1953" r="48.9124" fx="454.9757" fy="74.267" gradientTransform="matrix(1 0 0 0.6355 0 -5.4187)" gradientUnits="userSpaceOnUse">
			<stop  offset="0" style="stop-color:#EBEBEB"/>
			<stop  offset="0.04" style="stop-color:#EBEBEB"/>
			<stop  offset="0.0437" style="stop-color:#E7E7E7"/>
			<stop  offset="0.0864" style="stop-color:#C2C2C2"/>
			<stop  offset="0.129" style="stop-color:#A5A5A5"/>
			<stop  offset="0.1712" style="stop-color:#919191"/>
			<stop  offset="0.2127" style="stop-color:#848484"/>
			<stop  offset="0.2528" style="stop-color:#808080"/>
		</radialGradient>
		<path fill="url(#SVGID_10_)" d="M464.574,0c1.054,2.84,2.852,6.363,4.755,8.547l-4.755-1.72l-4.755,1.72
			C461.723,6.363,463.521,2.84,464.574,0z"/>
	</g>
	<g>
		<line fill="none" stroke="#0000BE" stroke-width="0.5" x1="464.574" y1="6.035" x2="464.574" y2="93.953"/>
		<path fill="#0000BE" d="M464.574,96.971c-0.527-1.42-1.426-3.182-2.377-4.273l2.377,0.859l2.377-0.859
			C466,93.789,465.101,95.551,464.574,96.971z"/>
		<path fill="#0000BE" d="M464.574,3.018c0.527,1.42,1.426,3.182,2.377,4.273l-2.377-0.86l-2.377,0.86
			C463.148,6.199,464.048,4.438,464.574,3.018z"/>
	</g>
</g>
<g>
	<g>
		<line fill="#0002BF" x1="464.578" y1="101.783" x2="464.578" y2="158.202"/>
		<path fill="#0002BF" d="M464.578,164.237c-1.054-2.84-2.852-6.363-4.755-8.547l4.755,1.72l4.755-1.72
			C467.43,157.874,465.631,161.397,464.578,164.237z"/>
		<path fill="#0002BF" d="M464.578,95.748c1.054,2.84,2.852,6.363,4.755,8.547l-4.755-1.72l-4.755,1.72
			C461.727,102.111,463.525,98.588,464.578,95.748z"/>
	</g>
	<g>
		
			<radialGradient id="SVGID_11_" cx="464.5781" cy="447.9941" r="48.9133" gradientTransform="matrix(1 0 0 0.4078 0 -52.6991)" gradientUnits="userSpaceOnUse">
			<stop  offset="0" style="stop-color:#CCCCCC"/>
			<stop  offset="0.0854" style="stop-color:#C7C7C7"/>
			<stop  offset="0.1889" style="stop-color:#B8B8B8"/>
			<stop  offset="0.3019" style="stop-color:#9F9F9F"/>
			<stop  offset="0.4216" style="stop-color:#7D7D7D"/>
			<stop  offset="0.5454" style="stop-color:#525252"/>
			<stop  offset="0.6" style="stop-color:#3C3C3C"/>
			<stop  offset="0.605" style="stop-color:#1E1E1E"/>
			<stop  offset="0.6432" style="stop-color:#393939"/>
			<stop  offset="0.6915" style="stop-color:#535353"/>
			<stop  offset="0.7448" style="stop-color:#676767"/>
			<stop  offset="0.8052" style="stop-color:#757575"/>
			<stop  offset="0.8783" style="stop-color:#7D7D7D"/>
			<stop  offset="1" style="stop-color:#808080"/>
		</radialGradient>
		<line fill="url(#SVGID_11_)" x1="464.578" y1="101.783" x2="464.578" y2="158.202"/>
		
			<radialGradient id="SVGID_12_" cx="464.5781" cy="447.9941" r="48.9133" gradientTransform="matrix(1 0 0 0.4078 0 -52.6996)" gradientUnits="userSpaceOnUse">
			<stop  offset="0" style="stop-color:#CCCCCC"/>
			<stop  offset="0.0854" style="stop-color:#C7C7C7"/>
			<stop  offset="0.1889" style="stop-color:#B8B8B8"/>
			<stop  offset="0.3019" style="stop-color:#9F9F9F"/>
			<stop  offset="0.4216" style="stop-color:#7D7D7D"/>
			<stop  offset="0.5454" style="stop-color:#525252"/>
			<stop  offset="0.6" style="stop-color:#3C3C3C"/>
			<stop  offset="0.605" style="stop-color:#1E1E1E"/>
			<stop  offset="0.6432" style="stop-color:#393939"/>
			<stop  offset="0.6915" style="stop-color:#535353"/>
			<stop  offset="0.7448" style="stop-color:#676767"/>
			<stop  offset="0.8052" style="stop-color:#757575"/>
			<stop  offset="0.8783" style="stop-color:#7D7D7D"/>
			<stop  offset="1" style="stop-color:#808080"/>
		</radialGradient>
		<path fill="url(#SVGID_12_)" d="M464.578,164.237c-1.054-2.84-2.852-6.363-4.755-8.547l4.755,1.72l4.755-1.72
			C467.43,157.874,465.631,161.397,464.578,164.237z"/>
		
			<radialGradient id="SVGID_13_" cx="464.5781" cy="447.9941" r="48.9133" gradientTransform="matrix(1 0 0 0.4078 0 -52.6996)" gradientUnits="userSpaceOnUse">
			<stop  offset="0" style="stop-color:#CCCCCC"/>
			<stop  offset="0.0854" style="stop-color:#C7C7C7"/>
			<stop  offset="0.1889" style="stop-color:#B8B8B8"/>
			<stop  offset="0.3019" style="stop-color:#9F9F9F"/>
			<stop  offset="0.4216" style="stop-color:#7D7D7D"/>
			<stop  offset="0.5454" style="stop-color:#525252"/>
			<stop  offset="0.6" style="stop-color:#3C3C3C"/>
			<stop  offset="0.605" style="stop-color:#1E1E1E"/>
			<stop  offset="0.6432" style="stop-color:#393939"/>
			<stop  offset="0.6915" style="stop-color:#535353"/>
			<stop  offset="0.7448" style="stop-color:#676767"/>
			<stop  offset="0.8052" style="stop-color:#757575"/>
			<stop  offset="0.8783" style="stop-color:#7D7D7D"/>
			<stop  offset="1" style="stop-color:#808080"/>
		</radialGradient>
		<path fill="url(#SVGID_13_)" d="M464.578,95.748c1.054,2.84,2.852,6.363,4.755,8.547l-4.755-1.72l-4.755,1.72
			C461.727,102.111,463.525,98.588,464.578,95.748z"/>
	</g>
	<g>
		
			<radialGradient id="SVGID_14_" cx="464.5781" cy="447.9941" r="48.9133" fx="454.9795" fy="435.0656" gradientTransform="matrix(1 0 0 0.4078 0 -52.6991)" gradientUnits="userSpaceOnUse">
			<stop  offset="0" style="stop-color:#EBEBEB"/>
			<stop  offset="0.04" style="stop-color:#EBEBEB"/>
			<stop  offset="0.0437" style="stop-color:#E7E7E7"/>
			<stop  offset="0.0864" style="stop-color:#C2C2C2"/>
			<stop  offset="0.129" style="stop-color:#A5A5A5"/>
			<stop  offset="0.1712" style="stop-color:#919191"/>
			<stop  offset="0.2127" style="stop-color:#848484"/>
			<stop  offset="0.2528" style="stop-color:#808080"/>
		</radialGradient>
		<line fill="url(#SVGID_14_)" x1="464.578" y1="101.783" x2="464.578" y2="158.202"/>
		
			<radialGradient id="SVGID_15_" cx="464.5781" cy="447.9941" r="48.9133" fx="454.9795" fy="435.0656" gradientTransform="matrix(1 0 0 0.4078 0 -52.6996)" gradientUnits="userSpaceOnUse">
			<stop  offset="0" style="stop-color:#EBEBEB"/>
			<stop  offset="0.04" style="stop-color:#EBEBEB"/>
			<stop  offset="0.0437" style="stop-color:#E7E7E7"/>
			<stop  offset="0.0864" style="stop-color:#C2C2C2"/>
			<stop  offset="0.129" style="stop-color:#A5A5A5"/>
			<stop  offset="0.1712" style="stop-color:#919191"/>
			<stop  offset="0.2127" style="stop-color:#848484"/>
			<stop  offset="0.2528" style="stop-color:#808080"/>
		</radialGradient>
		<path fill="url(#SVGID_15_)" d="M464.578,164.237c-1.054-2.84-2.852-6.363-4.755-8.547l4.755,1.72l4.755-1.72
			C467.43,157.874,465.631,161.397,464.578,164.237z"/>
		
			<radialGradient id="SVGID_16_" cx="464.5781" cy="447.9941" r="48.9133" fx="454.9795" fy="435.0656" gradientTransform="matrix(1 0 0 0.4078 0 -52.6996)" gradientUnits="userSpaceOnUse">
			<stop  offset="0" style="stop-color:#EBEBEB"/>
			<stop  offset="0.04" style="stop-color:#EBEBEB"/>
			<stop  offset="0.0437" style="stop-color:#E7E7E7"/>
			<stop  offset="0.0864" style="stop-color:#C2C2C2"/>
			<stop  offset="0.129" style="stop-color:#A5A5A5"/>
			<stop  offset="0.1712" style="stop-color:#919191"/>
			<stop  offset="0.2127" style="stop-color:#848484"/>
			<stop  offset="0.2528" style="stop-color:#808080"/>
		</radialGradient>
		<path fill="url(#SVGID_16_)" d="M464.578,95.748c1.054,2.84,2.852,6.363,4.755,8.547l-4.755-1.72l-4.755,1.72
			C461.727,102.111,463.525,98.588,464.578,95.748z"/>
	</g>
	<g>
		<line fill="none" stroke="#0000BE" stroke-width="0.5" x1="464.578" y1="101.783" x2="464.578" y2="158.202"/>
		<path fill="#0000BE" d="M464.578,161.22c-0.527-1.42-1.426-3.182-2.377-4.273l2.377,0.86l2.377-0.86
			C466.004,158.038,465.104,159.8,464.578,161.22z"/>
		<path fill="#0000BE" d="M464.578,98.766c0.527,1.42,1.426,3.182,2.377,4.273l-2.377-0.859l-2.377,0.859
			C463.152,101.947,464.052,100.186,464.578,98.766z"/>
	</g>
</g>
<g>
	<g>
		<line fill="#0000BE" x1="464.578" y1="167.03" x2="464.578" y2="410.94"/>
		<path fill="#0000BE" d="M464.578,416.976c-1.054-2.84-2.852-6.363-4.755-8.547l4.755,1.72l4.755-1.72
			C467.43,410.612,465.631,414.136,464.578,416.976z"/>
		<path fill="#0000BE" d="M464.578,160.995c1.054,2.84,2.852,6.363,4.755,8.547l-4.755-1.72l-4.755,1.72
			C461.727,167.358,463.525,163.835,464.578,160.995z"/>
	</g>
	<g>
		
			<radialGradient id="SVGID_17_" cx="464.5781" cy="158.835" r="48.9084" gradientTransform="matrix(1 0 0 1.7632 0 8.9275)" gradientUnits="userSpaceOnUse">
			<stop  offset="0" style="stop-color:#CCCCCC"/>
			<stop  offset="0.0854" style="stop-color:#C7C7C7"/>
			<stop  offset="0.1889" style="stop-color:#B8B8B8"/>
			<stop  offset="0.3019" style="stop-color:#9F9F9F"/>
			<stop  offset="0.4216" style="stop-color:#7D7D7D"/>
			<stop  offset="0.5454" style="stop-color:#525252"/>
			<stop  offset="0.6" style="stop-color:#3C3C3C"/>
			<stop  offset="0.605" style="stop-color:#1E1E1E"/>
			<stop  offset="0.6432" style="stop-color:#393939"/>
			<stop  offset="0.6915" style="stop-color:#535353"/>
			<stop  offset="0.7448" style="stop-color:#676767"/>
			<stop  offset="0.8052" style="stop-color:#757575"/>
			<stop  offset="0.8783" style="stop-color:#7D7D7D"/>
			<stop  offset="1" style="stop-color:#808080"/>
		</radialGradient>
		<line fill="url(#SVGID_17_)" x1="464.578" y1="167.03" x2="464.578" y2="410.94"/>
		
			<radialGradient id="SVGID_18_" cx="464.5781" cy="158.835" r="48.9084" gradientTransform="matrix(1 0 0 1.7632 0 8.9275)" gradientUnits="userSpaceOnUse">
			<stop  offset="0" style="stop-color:#CCCCCC"/>
			<stop  offset="0.0854" style="stop-color:#C7C7C7"/>
			<stop  offset="0.1889" style="stop-color:#B8B8B8"/>
			<stop  offset="0.3019" style="stop-color:#9F9F9F"/>
			<stop  offset="0.4216" style="stop-color:#7D7D7D"/>
			<stop  offset="0.5454" style="stop-color:#525252"/>
			<stop  offset="0.6" style="stop-color:#3C3C3C"/>
			<stop  offset="0.605" style="stop-color:#1E1E1E"/>
			<stop  offset="0.6432" style="stop-color:#393939"/>
			<stop  offset="0.6915" style="stop-color:#535353"/>
			<stop  offset="0.7448" style="stop-color:#676767"/>
			<stop  offset="0.8052" style="stop-color:#757575"/>
			<stop  offset="0.8783" style="stop-color:#7D7D7D"/>
			<stop  offset="1" style="stop-color:#808080"/>
		</radialGradient>
		<path fill="url(#SVGID_18_)" d="M464.578,416.976c-1.054-2.84-2.852-6.363-4.755-8.547l4.755,1.72l4.755-1.72
			C467.43,410.612,465.631,414.136,464.578,416.976z"/>
		
			<radialGradient id="SVGID_19_" cx="464.5781" cy="158.835" r="48.9086" gradientTransform="matrix(1 0 0 1.7632 0 8.9275)" gradientUnits="userSpaceOnUse">
			<stop  offset="0" style="stop-color:#CCCCCC"/>
			<stop  offset="0.0854" style="stop-color:#C7C7C7"/>
			<stop  offset="0.1889" style="stop-color:#B8B8B8"/>
			<stop  offset="0.3019" style="stop-color:#9F9F9F"/>
			<stop  offset="0.4216" style="stop-color:#7D7D7D"/>
			<stop  offset="0.5454" style="stop-color:#525252"/>
			<stop  offset="0.6" style="stop-color:#3C3C3C"/>
			<stop  offset="0.605" style="stop-color:#1E1E1E"/>
			<stop  offset="0.6432" style="stop-color:#393939"/>
			<stop  offset="0.6915" style="stop-color:#535353"/>
			<stop  offset="0.7448" style="stop-color:#676767"/>
			<stop  offset="0.8052" style="stop-color:#757575"/>
			<stop  offset="0.8783" style="stop-color:#7D7D7D"/>
			<stop  offset="1" style="stop-color:#808080"/>
		</radialGradient>
		<path fill="url(#SVGID_19_)" d="M464.578,160.995c1.054,2.84,2.852,6.363,4.755,8.547l-4.755-1.72l-4.755,1.72
			C461.727,167.358,463.525,163.835,464.578,160.995z"/>
	</g>
	<g>
		
			<radialGradient id="SVGID_20_" cx="464.5781" cy="158.835" r="48.9084" fx="454.9804" fy="145.9076" gradientTransform="matrix(1 0 0 1.7632 0 8.9275)" gradientUnits="userSpaceOnUse">
			<stop  offset="0" style="stop-color:#EBEBEB"/>
			<stop  offset="0.04" style="stop-color:#EBEBEB"/>
			<stop  offset="0.0437" style="stop-color:#E7E7E7"/>
			<stop  offset="0.0864" style="stop-color:#C2C2C2"/>
			<stop  offset="0.129" style="stop-color:#A5A5A5"/>
			<stop  offset="0.1712" style="stop-color:#919191"/>
			<stop  offset="0.2127" style="stop-color:#848484"/>
			<stop  offset="0.2528" style="stop-color:#808080"/>
		</radialGradient>
		<line fill="url(#SVGID_20_)" x1="464.578" y1="167.03" x2="464.578" y2="410.94"/>
		
			<radialGradient id="SVGID_21_" cx="464.5781" cy="158.835" r="48.9084" fx="454.9804" fy="145.9076" gradientTransform="matrix(1 0 0 1.7632 0 8.9275)" gradientUnits="userSpaceOnUse">
			<stop  offset="0" style="stop-color:#EBEBEB"/>
			<stop  offset="0.04" style="stop-color:#EBEBEB"/>
			<stop  offset="0.0437" style="stop-color:#E7E7E7"/>
			<stop  offset="0.0864" style="stop-color:#C2C2C2"/>
			<stop  offset="0.129" style="stop-color:#A5A5A5"/>
			<stop  offset="0.1712" style="stop-color:#919191"/>
			<stop  offset="0.2127" style="stop-color:#848484"/>
			<stop  offset="0.2528" style="stop-color:#808080"/>
		</radialGradient>
		<path fill="url(#SVGID_21_)" d="M464.578,416.976c-1.054-2.84-2.852-6.363-4.755-8.547l4.755,1.72l4.755-1.72
			C467.43,410.612,465.631,414.136,464.578,416.976z"/>
		
			<radialGradient id="SVGID_22_" cx="464.5781" cy="158.835" r="48.9086" fx="454.9804" fy="145.9076" gradientTransform="matrix(1 0 0 1.7632 0 8.9275)" gradientUnits="userSpaceOnUse">
			<stop  offset="0" style="stop-color:#EBEBEB"/>
			<stop  offset="0.04" style="stop-color:#EBEBEB"/>
			<stop  offset="0.0437" style="stop-color:#E7E7E7"/>
			<stop  offset="0.0864" style="stop-color:#C2C2C2"/>
			<stop  offset="0.129" style="stop-color:#A5A5A5"/>
			<stop  offset="0.1712" style="stop-color:#919191"/>
			<stop  offset="0.2127" style="stop-color:#848484"/>
			<stop  offset="0.2528" style="stop-color:#808080"/>
		</radialGradient>
		<path fill="url(#SVGID_22_)" d="M464.578,160.995c1.054,2.84,2.852,6.363,4.755,8.547l-4.755-1.72l-4.755,1.72
			C461.727,167.358,463.525,163.835,464.578,160.995z"/>
	</g>
	<g>
		<line fill="none" stroke="#0000BE" stroke-width="0.5" x1="464.578" y1="167.03" x2="464.578" y2="410.94"/>
		<path fill="#0000BE" d="M464.578,413.958c-0.527-1.42-1.426-3.182-2.377-4.273l2.377,0.86l2.377-0.86
			C466.004,410.776,465.104,412.538,464.578,413.958z"/>
		<path fill="#0000BE" d="M464.578,164.013c0.527,1.42,1.426,3.182,2.377,4.273l-2.377-0.86l-2.377,0.86
			C463.152,167.194,464.052,165.433,464.578,164.013z"/>
	</g>
</g>
<g>
	<g>
		<line fill="#0002BF" x1="406.83" y1="7.293" x2="406.83" y2="411.695"/>
		<path fill="#0002BF" d="M406.83,417.73c-1.054-2.84-2.852-6.363-4.755-8.547l4.755,1.72l4.755-1.72
			C409.682,411.367,407.883,414.891,406.83,417.73z"/>
		<path fill="#0002BF" d="M406.83,1.258c1.054,2.84,2.852,6.363,4.755,8.547l-4.755-1.72l-4.755,1.72
			C403.979,7.622,405.777,4.098,406.83,1.258z"/>
	</g>
	<g>
		
			<radialGradient id="SVGID_23_" cx="406.8301" cy="-315.665" r="48.9098" gradientTransform="matrix(1 0 0 2.9233 0 1132.277)" gradientUnits="userSpaceOnUse">
			<stop  offset="0" style="stop-color:#CCCCCC"/>
			<stop  offset="0.0854" style="stop-color:#C7C7C7"/>
			<stop  offset="0.1889" style="stop-color:#B8B8B8"/>
			<stop  offset="0.3019" style="stop-color:#9F9F9F"/>
			<stop  offset="0.4216" style="stop-color:#7D7D7D"/>
			<stop  offset="0.5454" style="stop-color:#525252"/>
			<stop  offset="0.6" style="stop-color:#3C3C3C"/>
			<stop  offset="0.605" style="stop-color:#1E1E1E"/>
			<stop  offset="0.6432" style="stop-color:#393939"/>
			<stop  offset="0.6915" style="stop-color:#535353"/>
			<stop  offset="0.7448" style="stop-color:#676767"/>
			<stop  offset="0.8052" style="stop-color:#757575"/>
			<stop  offset="0.8783" style="stop-color:#7D7D7D"/>
			<stop  offset="1" style="stop-color:#808080"/>
		</radialGradient>
		<line fill="url(#SVGID_23_)" x1="406.83" y1="7.293" x2="406.83" y2="411.695"/>
		
			<radialGradient id="SVGID_24_" cx="406.8301" cy="-315.665" r="48.9098" gradientTransform="matrix(1 0 0 2.9233 0 1132.277)" gradientUnits="userSpaceOnUse">
			<stop  offset="0" style="stop-color:#CCCCCC"/>
			<stop  offset="0.0854" style="stop-color:#C7C7C7"/>
			<stop  offset="0.1889" style="stop-color:#B8B8B8"/>
			<stop  offset="0.3019" style="stop-color:#9F9F9F"/>
			<stop  offset="0.4216" style="stop-color:#7D7D7D"/>
			<stop  offset="0.5454" style="stop-color:#525252"/>
			<stop  offset="0.6" style="stop-color:#3C3C3C"/>
			<stop  offset="0.605" style="stop-color:#1E1E1E"/>
			<stop  offset="0.6432" style="stop-color:#393939"/>
			<stop  offset="0.6915" style="stop-color:#535353"/>
			<stop  offset="0.7448" style="stop-color:#676767"/>
			<stop  offset="0.8052" style="stop-color:#757575"/>
			<stop  offset="0.8783" style="stop-color:#7D7D7D"/>
			<stop  offset="1" style="stop-color:#808080"/>
		</radialGradient>
		<path fill="url(#SVGID_24_)" d="M406.83,417.73c-1.054-2.84-2.852-6.363-4.755-8.547l4.755,1.72l4.755-1.72
			C409.682,411.367,407.883,414.891,406.83,417.73z"/>
		
			<radialGradient id="SVGID_25_" cx="406.8301" cy="-315.665" r="48.9097" gradientTransform="matrix(1 0 0 2.9233 0 1132.277)" gradientUnits="userSpaceOnUse">
			<stop  offset="0" style="stop-color:#CCCCCC"/>
			<stop  offset="0.0854" style="stop-color:#C7C7C7"/>
			<stop  offset="0.1889" style="stop-color:#B8B8B8"/>
			<stop  offset="0.3019" style="stop-color:#9F9F9F"/>
			<stop  offset="0.4216" style="stop-color:#7D7D7D"/>
			<stop  offset="0.5454" style="stop-color:#525252"/>
			<stop  offset="0.6" style="stop-color:#3C3C3C"/>
			<stop  offset="0.605" style="stop-color:#1E1E1E"/>
			<stop  offset="0.6432" style="stop-color:#393939"/>
			<stop  offset="0.6915" style="stop-color:#535353"/>
			<stop  offset="0.7448" style="stop-color:#676767"/>
			<stop  offset="0.8052" style="stop-color:#757575"/>
			<stop  offset="0.8783" style="stop-color:#7D7D7D"/>
			<stop  offset="1" style="stop-color:#808080"/>
		</radialGradient>
		<path fill="url(#SVGID_25_)" d="M406.83,1.258c1.054,2.84,2.852,6.363,4.755,8.547l-4.755-1.72l-4.755,1.72
			C403.979,7.622,405.777,4.098,406.83,1.258z"/>
	</g>
	<g>
		
			<radialGradient id="SVGID_26_" cx="406.8301" cy="-315.665" r="48.9098" fx="397.2321" fy="-328.5927" gradientTransform="matrix(1 0 0 2.9233 0 1132.277)" gradientUnits="userSpaceOnUse">
			<stop  offset="0" style="stop-color:#EBEBEB"/>
			<stop  offset="0.04" style="stop-color:#EBEBEB"/>
			<stop  offset="0.0437" style="stop-color:#E7E7E7"/>
			<stop  offset="0.0864" style="stop-color:#C2C2C2"/>
			<stop  offset="0.129" style="stop-color:#A5A5A5"/>
			<stop  offset="0.1712" style="stop-color:#919191"/>
			<stop  offset="0.2127" style="stop-color:#848484"/>
			<stop  offset="0.2528" style="stop-color:#808080"/>
		</radialGradient>
		<line fill="url(#SVGID_26_)" x1="406.83" y1="7.293" x2="406.83" y2="411.695"/>
		
			<radialGradient id="SVGID_27_" cx="406.8301" cy="-315.665" r="48.9098" fx="397.2321" fy="-328.5927" gradientTransform="matrix(1 0 0 2.9233 0 1132.277)" gradientUnits="userSpaceOnUse">
			<stop  offset="0" style="stop-color:#EBEBEB"/>
			<stop  offset="0.04" style="stop-color:#EBEBEB"/>
			<stop  offset="0.0437" style="stop-color:#E7E7E7"/>
			<stop  offset="0.0864" style="stop-color:#C2C2C2"/>
			<stop  offset="0.129" style="stop-color:#A5A5A5"/>
			<stop  offset="0.1712" style="stop-color:#919191"/>
			<stop  offset="0.2127" style="stop-color:#848484"/>
			<stop  offset="0.2528" style="stop-color:#808080"/>
		</radialGradient>
		<path fill="url(#SVGID_27_)" d="M406.83,417.73c-1.054-2.84-2.852-6.363-4.755-8.547l4.755,1.72l4.755-1.72
			C409.682,411.367,407.883,414.891,406.83,417.73z"/>
		
			<radialGradient id="SVGID_28_" cx="406.8301" cy="-315.665" r="48.9097" fx="397.2321" fy="-328.5927" gradientTransform="matrix(1 0 0 2.9233 0 1132.277)" gradientUnits="userSpaceOnUse">
			<stop  offset="0" style="stop-color:#EBEBEB"/>
			<stop  offset="0.04" style="stop-color:#EBEBEB"/>
			<stop  offset="0.0437" style="stop-color:#E7E7E7"/>
			<stop  offset="0.0864" style="stop-color:#C2C2C2"/>
			<stop  offset="0.129" style="stop-color:#A5A5A5"/>
			<stop  offset="0.1712" style="stop-color:#919191"/>
			<stop  offset="0.2127" style="stop-color:#848484"/>
			<stop  offset="0.2528" style="stop-color:#808080"/>
		</radialGradient>
		<path fill="url(#SVGID_28_)" d="M406.83,1.258c1.054,2.84,2.852,6.363,4.755,8.547l-4.755-1.72l-4.755,1.72
			C403.979,7.622,405.777,4.098,406.83,1.258z"/>
	</g>
	<g>
		<line fill="none" stroke="#0000BE" stroke-width="0.5" x1="406.83" y1="7.293" x2="406.83" y2="411.695"/>
		<path fill="#0000BE" d="M406.83,414.713c-0.527-1.42-1.426-3.182-2.377-4.273l2.377,0.86l2.377-0.86
			C408.256,411.531,407.356,413.293,406.83,414.713z"/>
		<path fill="#0000BE" d="M406.83,4.276c0.527,1.42,1.426,3.182,2.377,4.273l-2.377-0.86l-2.377,0.86
			C405.404,7.458,406.304,5.696,406.83,4.276z"/>
	</g>
</g>
<linearGradient id="SVGID_29_" gradientUnits="userSpaceOnUse" x1="496.3027" y1="288.6172" x2="559.8359" y2="288.6172">
	<stop  offset="0" style="stop-color:#FFFFFF"/>
	<stop  offset="0.9494" style="stop-color:#EBEBEB"/>
</linearGradient>
<polyline fill="url(#SVGID_29_)" stroke="#000000" stroke-width="0.1764" stroke-linecap="round" stroke-linejoin="round" points="
	559.836,161.55 559.836,415.685 496.303,415.685 496.303,161.55 "/>
<linearGradient id="SVGID_30_" gradientUnits="userSpaceOnUse" x1="496.3027" y1="58.3076" x2="559.8359" y2="58.3076">
	<stop  offset="0" style="stop-color:#FFFFFF"/>
	<stop  offset="0.9494" style="stop-color:#EBEBEB"/>
</linearGradient>
<polyline fill="url(#SVGID_30_)" stroke="#D9D9D9" stroke-linecap="round" stroke-linejoin="round" points="496.303,98.017 
	559.836,98.017 559.836,18.599 496.303,18.599 "/>
<linearGradient id="SVGID_31_" gradientUnits="userSpaceOnUse" x1="496.5703" y1="10.2002" x2="559.2363" y2="10.2002">
	<stop  offset="0" style="stop-color:#FFFFFF"/>
	<stop  offset="0.1838" style="stop-color:#FBFBFB"/>
	<stop  offset="0.3775" style="stop-color:#EEEEEE"/>
	<stop  offset="0.5759" style="stop-color:#D9D9D9"/>
	<stop  offset="0.776" style="stop-color:#BCBCBC"/>
	<stop  offset="0.9494" style="stop-color:#9C9C9C"/>
</linearGradient>
<polygon fill="url(#SVGID_31_)" stroke="#000000" stroke-width="0.1764" stroke-linecap="round" stroke-linejoin="round" points="
	496.57,18.7 527.902,1.7 559.236,18.331 "/>
<path fill="#0000BE" d="M361.249,200.918h-0.036l-2.035,1.098l-0.306-1.206l2.557-1.368h1.351v11.703h-1.531V200.918z"/>
<path fill="#0000BE" d="M367.422,209.326c0.45,0.288,1.494,0.738,2.593,0.738c2.035,0,2.665-1.297,2.646-2.269
	c-0.018-1.639-1.494-2.341-3.025-2.341h-0.882v-1.188h0.882c1.152,0,2.611-0.595,2.611-1.98c0-0.937-0.594-1.765-2.052-1.765
	c-0.937,0-1.837,0.414-2.341,0.774l-0.414-1.152c0.612-0.45,1.8-0.9,3.061-0.9c2.305,0,3.349,1.368,3.349,2.791
	c0,1.206-0.72,2.232-2.161,2.755v0.035c1.44,0.288,2.611,1.369,2.611,3.008c0,1.872-1.458,3.511-4.267,3.511
	c-1.314,0-2.467-0.414-3.043-0.792L367.422,209.326z"/>
<path fill="#0000BE" d="M384.056,205.167c0,3.979-1.476,6.176-4.069,6.176c-2.287,0-3.835-2.143-3.872-6.014
	c0-3.926,1.693-6.086,4.069-6.086C382.651,199.243,384.056,201.439,384.056,205.167z M377.7,205.347
	c0,3.043,0.936,4.771,2.376,4.771c1.621,0,2.395-1.891,2.395-4.88c0-2.881-0.738-4.771-2.376-4.771
	C378.708,200.468,377.7,202.16,377.7,205.347z"/>
<path fill="#0000BF" d="M440.971,271.986c-1.297-0.611-1.854-1.62-1.854-2.629c0-1.854,1.566-3.114,3.619-3.114
	c2.269,0,3.403,1.422,3.403,2.881c0,0.99-0.486,2.053-1.927,2.736v0.055c1.458,0.576,2.358,1.603,2.358,3.024
	c0,2.035-1.746,3.403-3.979,3.403c-2.449,0-3.926-1.459-3.926-3.169c0-1.477,0.883-2.521,2.322-3.133L440.971,271.986z
	 M444.969,275.102c0-1.422-0.991-2.106-2.575-2.557c-1.368,0.396-2.106,1.296-2.106,2.413c-0.055,1.188,0.846,2.232,2.34,2.232
	C444.05,277.19,444.969,276.29,444.969,275.102z M440.611,269.25c0,1.17,0.882,1.801,2.232,2.16
	c1.008-0.342,1.782-1.062,1.782-2.124c0-0.937-0.558-1.909-1.98-1.909C441.331,267.377,440.611,268.241,440.611,269.25z"/>
<path fill="#0000BF" d="M455.822,272.167c0,3.979-1.477,6.176-4.068,6.176c-2.287,0-3.836-2.143-3.872-6.014
	c0-3.926,1.692-6.086,4.069-6.086C454.418,266.243,455.822,268.439,455.822,272.167z M449.467,272.347
	c0,3.043,0.936,4.771,2.377,4.771c1.62,0,2.395-1.891,2.395-4.88c0-2.881-0.738-4.771-2.377-4.771
	C450.475,267.468,449.467,269.16,449.467,272.347z"/>
<g>
	<g>
		<line fill="#0000BE" x1="565.623" y1="352.984" x2="745" y2="352.984"/>
		<path fill="#0000BE" d="M751.035,352.984c-2.84,1.054-6.363,2.852-8.547,4.755l1.72-4.755l-1.72-4.755
			C744.672,350.133,748.195,351.932,751.035,352.984z"/>
		<path fill="#0000BE" d="M559.588,352.984c2.84-1.054,6.363-2.852,8.547-4.755l-1.72,4.755l1.72,4.755
			C565.951,355.836,562.428,354.038,559.588,352.984z"/>
	</g>
	<g>
		
			<radialGradient id="SVGID_32_" cx="425.5781" cy="284.4023" r="48.9078" gradientTransform="matrix(0 -1 1.2967 0 286.5274 778.5625)" gradientUnits="userSpaceOnUse">
			<stop  offset="0" style="stop-color:#CCCCCC"/>
			<stop  offset="0.0854" style="stop-color:#C7C7C7"/>
			<stop  offset="0.1889" style="stop-color:#B8B8B8"/>
			<stop  offset="0.3019" style="stop-color:#9F9F9F"/>
			<stop  offset="0.4216" style="stop-color:#7D7D7D"/>
			<stop  offset="0.5454" style="stop-color:#525252"/>
			<stop  offset="0.6" style="stop-color:#3C3C3C"/>
			<stop  offset="0.605" style="stop-color:#1E1E1E"/>
			<stop  offset="0.6432" style="stop-color:#393939"/>
			<stop  offset="0.6915" style="stop-color:#535353"/>
			<stop  offset="0.7448" style="stop-color:#676767"/>
			<stop  offset="0.8052" style="stop-color:#757575"/>
			<stop  offset="0.8783" style="stop-color:#7D7D7D"/>
			<stop  offset="1" style="stop-color:#808080"/>
		</radialGradient>
		<line fill="url(#SVGID_32_)" x1="565.623" y1="352.984" x2="745" y2="352.984"/>
		
			<radialGradient id="SVGID_33_" cx="425.5781" cy="284.4121" r="48.9007" gradientTransform="matrix(0 -1 1.2967 0 286.5274 778.5625)" gradientUnits="userSpaceOnUse">
			<stop  offset="0" style="stop-color:#CCCCCC"/>
			<stop  offset="0.0854" style="stop-color:#C7C7C7"/>
			<stop  offset="0.1889" style="stop-color:#B8B8B8"/>
			<stop  offset="0.3019" style="stop-color:#9F9F9F"/>
			<stop  offset="0.4216" style="stop-color:#7D7D7D"/>
			<stop  offset="0.5454" style="stop-color:#525252"/>
			<stop  offset="0.6" style="stop-color:#3C3C3C"/>
			<stop  offset="0.605" style="stop-color:#1E1E1E"/>
			<stop  offset="0.6432" style="stop-color:#393939"/>
			<stop  offset="0.6915" style="stop-color:#535353"/>
			<stop  offset="0.7448" style="stop-color:#676767"/>
			<stop  offset="0.8052" style="stop-color:#757575"/>
			<stop  offset="0.8783" style="stop-color:#7D7D7D"/>
			<stop  offset="1" style="stop-color:#808080"/>
		</radialGradient>
		<path fill="url(#SVGID_33_)" d="M751.035,352.984c-2.84,1.054-6.363,2.852-8.547,4.755l1.72-4.755l-1.72-4.755
			C744.672,350.133,748.195,351.932,751.035,352.984z"/>
		
			<radialGradient id="SVGID_34_" cx="425.5781" cy="284.4121" r="48.9157" gradientTransform="matrix(0 -1 1.2967 0 286.5274 778.5625)" gradientUnits="userSpaceOnUse">
			<stop  offset="0" style="stop-color:#CCCCCC"/>
			<stop  offset="0.0854" style="stop-color:#C7C7C7"/>
			<stop  offset="0.1889" style="stop-color:#B8B8B8"/>
			<stop  offset="0.3019" style="stop-color:#9F9F9F"/>
			<stop  offset="0.4216" style="stop-color:#7D7D7D"/>
			<stop  offset="0.5454" style="stop-color:#525252"/>
			<stop  offset="0.6" style="stop-color:#3C3C3C"/>
			<stop  offset="0.605" style="stop-color:#1E1E1E"/>
			<stop  offset="0.6432" style="stop-color:#393939"/>
			<stop  offset="0.6915" style="stop-color:#535353"/>
			<stop  offset="0.7448" style="stop-color:#676767"/>
			<stop  offset="0.8052" style="stop-color:#757575"/>
			<stop  offset="0.8783" style="stop-color:#7D7D7D"/>
			<stop  offset="1" style="stop-color:#808080"/>
		</radialGradient>
		<path fill="url(#SVGID_34_)" d="M559.588,352.984c2.84-1.054,6.363-2.852,8.547-4.755l-1.72,4.755l1.72,4.755
			C565.951,355.836,562.428,354.038,559.588,352.984z"/>
	</g>
	<g>
		
			<radialGradient id="SVGID_35_" cx="425.5781" cy="284.4023" r="48.9078" fx="415.9806" fy="271.4752" gradientTransform="matrix(0 -1 1.2967 0 286.5274 778.5625)" gradientUnits="userSpaceOnUse">
			<stop  offset="0" style="stop-color:#EBEBEB"/>
			<stop  offset="0.04" style="stop-color:#EBEBEB"/>
			<stop  offset="0.0437" style="stop-color:#E7E7E7"/>
			<stop  offset="0.0864" style="stop-color:#C2C2C2"/>
			<stop  offset="0.129" style="stop-color:#A5A5A5"/>
			<stop  offset="0.1712" style="stop-color:#919191"/>
			<stop  offset="0.2127" style="stop-color:#848484"/>
			<stop  offset="0.2528" style="stop-color:#808080"/>
		</radialGradient>
		<line fill="url(#SVGID_35_)" x1="565.623" y1="352.984" x2="745" y2="352.984"/>
		
			<radialGradient id="SVGID_36_" cx="425.5781" cy="284.4121" r="48.9007" fx="415.9819" fy="271.4868" gradientTransform="matrix(0 -1 1.2967 0 286.5274 778.5625)" gradientUnits="userSpaceOnUse">
			<stop  offset="0" style="stop-color:#EBEBEB"/>
			<stop  offset="0.04" style="stop-color:#EBEBEB"/>
			<stop  offset="0.0437" style="stop-color:#E7E7E7"/>
			<stop  offset="0.0864" style="stop-color:#C2C2C2"/>
			<stop  offset="0.129" style="stop-color:#A5A5A5"/>
			<stop  offset="0.1712" style="stop-color:#919191"/>
			<stop  offset="0.2127" style="stop-color:#848484"/>
			<stop  offset="0.2528" style="stop-color:#808080"/>
		</radialGradient>
		<path fill="url(#SVGID_36_)" d="M751.035,352.984c-2.84,1.054-6.363,2.852-8.547,4.755l1.72-4.755l-1.72-4.755
			C744.672,350.133,748.195,351.932,751.035,352.984z"/>
		
			<radialGradient id="SVGID_37_" cx="425.5781" cy="284.4121" r="48.9157" fx="415.979" fy="271.4829" gradientTransform="matrix(0 -1 1.2967 0 286.5274 778.5625)" gradientUnits="userSpaceOnUse">
			<stop  offset="0" style="stop-color:#EBEBEB"/>
			<stop  offset="0.04" style="stop-color:#EBEBEB"/>
			<stop  offset="0.0437" style="stop-color:#E7E7E7"/>
			<stop  offset="0.0864" style="stop-color:#C2C2C2"/>
			<stop  offset="0.129" style="stop-color:#A5A5A5"/>
			<stop  offset="0.1712" style="stop-color:#919191"/>
			<stop  offset="0.2127" style="stop-color:#848484"/>
			<stop  offset="0.2528" style="stop-color:#808080"/>
		</radialGradient>
		<path fill="url(#SVGID_37_)" d="M559.588,352.984c2.84-1.054,6.363-2.852,8.547-4.755l-1.72,4.755l1.72,4.755
			C565.951,355.836,562.428,354.038,559.588,352.984z"/>
	</g>
	<g>
		<line fill="none" stroke="#0000BE" stroke-width="0.5" x1="565.623" y1="352.984" x2="745" y2="352.984"/>
		<path fill="#0000BE" d="M748.018,352.984c-1.42,0.527-3.182,1.426-4.273,2.377l0.859-2.377l-0.859-2.377
			C744.836,351.559,746.598,352.458,748.018,352.984z"/>
		<path fill="#0000BE" d="M562.605,352.984c1.42-0.527,3.182-1.426,4.273-2.377l-0.859,2.377l0.859,2.377
			C565.787,354.41,564.025,353.511,562.605,352.984z"/>
	</g>
</g>
<path fill="#0000BE" d="M651.797,331.773h-4.466l-0.45,3.007c0.27-0.036,0.521-0.072,0.954-0.072c0.9,0,1.801,0.198,2.521,0.631
	c0.919,0.521,1.675,1.53,1.675,3.007c0,2.286-1.818,3.997-4.357,3.997c-1.278,0-2.358-0.36-2.917-0.721l0.396-1.206
	c0.486,0.288,1.44,0.648,2.503,0.648c1.494,0,2.772-0.973,2.772-2.539c-0.018-1.513-1.026-2.593-3.367-2.593
	c-0.666,0-1.188,0.072-1.62,0.126l0.757-5.617h5.6V331.773z"/>
<path fill="#0000BE" d="M661.822,336.167c0,3.979-1.477,6.176-4.068,6.176c-2.287,0-3.836-2.143-3.872-6.014
	c0-3.926,1.692-6.086,4.069-6.086C660.418,330.243,661.822,332.439,661.822,336.167z M655.467,336.347
	c0,3.043,0.936,4.771,2.377,4.771c1.62,0,2.395-1.891,2.395-4.88c0-2.881-0.738-4.771-2.377-4.771
	C656.475,331.468,655.467,333.16,655.467,336.347z"/>
<path fill="#0000BE" d="M437.811,134.145v-0.973l1.242-1.206c2.988-2.845,4.34-4.357,4.357-6.122c0-1.188-0.576-2.286-2.322-2.286
	c-1.063,0-1.945,0.54-2.485,0.99l-0.505-1.116c0.811-0.685,1.963-1.188,3.313-1.188c2.521,0,3.583,1.729,3.583,3.403
	c0,2.16-1.566,3.906-4.033,6.283l-0.936,0.864v0.036h5.257v1.314H437.811z"/>
<path fill="#0000BE" d="M454.822,128.167c0,3.979-1.477,6.176-4.068,6.176c-2.287,0-3.836-2.143-3.872-6.014
	c0-3.926,1.692-6.086,4.069-6.086C453.418,122.243,454.822,124.439,454.822,128.167z M448.467,128.347
	c0,3.043,0.936,4.771,2.377,4.771c1.62,0,2.395-1.891,2.395-4.88c0-2.881-0.738-4.771-2.377-4.771
	C449.475,123.468,448.467,125.16,448.467,128.347z"/>
<path fill="#0000BE" d="M438.188,52.326c0.45,0.288,1.494,0.738,2.593,0.738c2.035,0,2.664-1.297,2.646-2.269
	c-0.018-1.639-1.494-2.341-3.025-2.341h-0.882v-1.188h0.882c1.152,0,2.611-0.595,2.611-1.98c0-0.937-0.594-1.765-2.053-1.765
	c-0.936,0-1.836,0.414-2.34,0.774l-0.414-1.152c0.611-0.45,1.8-0.9,3.061-0.9c2.305,0,3.349,1.368,3.349,2.791
	c0,1.206-0.72,2.232-2.161,2.755v0.035c1.441,0.288,2.611,1.369,2.611,3.008c0,1.872-1.459,3.511-4.268,3.511
	c-1.314,0-2.467-0.414-3.043-0.792L438.188,52.326z"/>
<path fill="#0000BE" d="M454.822,48.167c0,3.979-1.477,6.176-4.068,6.176c-2.287,0-3.836-2.143-3.872-6.014
	c0-3.926,1.692-6.086,4.069-6.086C453.418,42.243,454.822,44.439,454.822,48.167z M448.467,48.347c0,3.043,0.936,4.771,2.377,4.771
	c1.62,0,2.395-1.891,2.395-4.88c0-2.881-0.738-4.771-2.377-4.771C449.475,43.468,448.467,45.16,448.467,48.347z"/>
<path fill="#0000BE" d="M550.754,477.148c-1.314,1.765-2.27,4.105-2.27,7.364c0,3.205,0.99,5.51,2.27,7.311h-1.243
	c-1.134-1.494-2.358-3.799-2.358-7.311c0.018-3.547,1.225-5.852,2.358-7.364H550.754z"/>
<path fill="#0000BE" d="M560.745,489.248c-0.576,0.288-1.729,0.595-3.205,0.595c-3.421,0-5.995-2.179-5.995-6.158
	c0-3.799,2.574-6.374,6.338-6.374c1.512,0,2.467,0.324,2.881,0.54l-0.378,1.278c-0.595-0.287-1.44-0.504-2.449-0.504
	c-2.845,0-4.735,1.818-4.735,5.006c0,2.971,1.711,4.879,4.663,4.879c0.954,0,1.927-0.197,2.557-0.504L560.745,489.248z"/>
<path fill="#0000BE" d="M570.339,485.215c0,3.224-2.233,4.628-4.34,4.628c-2.358,0-4.177-1.729-4.177-4.483
	c0-2.917,1.908-4.628,4.321-4.628C568.646,480.731,570.339,482.551,570.339,485.215z M563.425,485.306
	c0,1.908,1.098,3.349,2.646,3.349c1.513,0,2.646-1.423,2.646-3.385c0-1.477-0.738-3.35-2.61-3.35
	C564.234,481.92,563.425,483.648,563.425,485.306z"/>
<path fill="#0000BE" d="M574.242,478.842v2.088h2.269v1.207h-2.269v4.699c0,1.08,0.307,1.692,1.188,1.692
	c0.433,0,0.685-0.036,0.919-0.108l0.071,1.188c-0.306,0.126-0.792,0.234-1.404,0.234c-0.738,0-1.332-0.252-1.71-0.685
	c-0.45-0.468-0.612-1.242-0.612-2.269v-4.753h-1.351v-1.207h1.351v-1.603L574.242,478.842z"/>
<path fill="#0000BE" d="M579.066,485.575c0.036,2.143,1.404,3.025,2.989,3.025c1.135,0,1.818-0.198,2.413-0.45l0.27,1.134
	c-0.558,0.252-1.513,0.559-2.898,0.559c-2.683,0-4.285-1.782-4.285-4.411s1.548-4.7,4.087-4.7c2.845,0,3.601,2.503,3.601,4.105
	c0,0.324-0.035,0.576-0.054,0.738H579.066z M583.712,484.441c0.019-1.009-0.414-2.575-2.196-2.575c-1.603,0-2.305,1.477-2.431,2.575
	H583.712z"/>
<path fill="#0000BE" d="M586.986,488.024c0.468,0.306,1.296,0.63,2.088,0.63c1.152,0,1.693-0.576,1.693-1.297
	c0-0.756-0.45-1.17-1.621-1.602c-1.566-0.559-2.305-1.423-2.305-2.467c0-1.405,1.135-2.558,3.007-2.558
	c0.883,0,1.657,0.253,2.143,0.541l-0.396,1.152c-0.343-0.217-0.973-0.505-1.783-0.505c-0.936,0-1.458,0.54-1.458,1.188
	c0,0.721,0.522,1.045,1.656,1.477c1.513,0.576,2.287,1.332,2.287,2.629c0,1.53-1.188,2.629-3.259,2.629
	c-0.955,0-1.837-0.252-2.449-0.612L586.986,488.024z"/>
<path fill="#0000BE" d="M599.028,485.575c0.036,2.143,1.405,3.025,2.989,3.025c1.135,0,1.818-0.198,2.413-0.45l0.27,1.134
	c-0.558,0.252-1.513,0.559-2.898,0.559c-2.683,0-4.285-1.782-4.285-4.411s1.548-4.7,4.087-4.7c2.845,0,3.601,2.503,3.601,4.105
	c0,0.324-0.035,0.576-0.054,0.738H599.028z M603.674,484.441c0.019-1.009-0.414-2.575-2.196-2.575c-1.603,0-2.305,1.477-2.431,2.575
	H603.674z"/>
<path fill="#0000BE" d="M607.164,483.289c0-0.9-0.018-1.639-0.072-2.359h1.404l0.09,1.44h0.036c0.433-0.828,1.44-1.639,2.881-1.639
	c1.207,0,3.079,0.721,3.079,3.71v5.203h-1.584v-5.023c0-1.404-0.522-2.575-2.017-2.575c-1.045,0-1.854,0.738-2.125,1.621
	c-0.072,0.198-0.108,0.468-0.108,0.738v5.239h-1.584V483.289z"/>
<path fill="#0000BE" d="M627.182,489.32c-0.414,0.216-1.332,0.522-2.503,0.522c-2.629,0-4.339-1.801-4.339-4.466
	c0-2.683,1.836-4.627,4.681-4.627c0.937,0,1.765,0.234,2.197,0.45l-0.36,1.225c-0.378-0.217-0.973-0.415-1.837-0.415
	c-1.998,0-3.078,1.477-3.078,3.296c0,2.017,1.296,3.259,3.024,3.259c0.9,0,1.494-0.234,1.944-0.433L627.182,489.32z"/>
<path fill="#0000BE" d="M629.033,483.289c0-0.9-0.018-1.639-0.072-2.359h1.387l0.072,1.404h0.054
	c0.486-0.828,1.296-1.603,2.736-1.603c1.188,0,2.089,0.721,2.467,1.747h0.036c0.271-0.486,0.612-0.864,0.973-1.135
	c0.522-0.396,1.099-0.612,1.927-0.612c1.152,0,2.862,0.757,2.862,3.781v5.132h-1.548v-4.934c0-1.675-0.612-2.683-1.891-2.683
	c-0.9,0-1.603,0.666-1.873,1.44c-0.072,0.216-0.126,0.504-0.126,0.792v5.384h-1.549v-5.222c0-1.387-0.611-2.395-1.818-2.395
	c-0.99,0-1.71,0.792-1.962,1.584c-0.091,0.234-0.126,0.505-0.126,0.774v5.258h-1.549V483.289z"/>
<path fill="#0000BE" d="M643.092,491.823c1.278-1.782,2.269-4.123,2.269-7.364c0-3.223-0.973-5.527-2.269-7.311h1.225
	c1.152,1.477,2.358,3.781,2.358,7.328c0,3.529-1.206,5.816-2.358,7.347H643.092z"/>
<line fill="#1F52FF" stroke="#0000BE" stroke-width="0.5" x1="380" y1="1.145" x2="561" y2="1.145"/>
<line fill="#1F52FF" stroke="#0000BE" stroke-width="0.5" x1="443" y1="97.145" x2="490" y2="97.145"/>
<line fill="#1F52FF" stroke="#0000BE" stroke-width="0.5" x1="441" y1="162.145" x2="492" y2="162.145"/>
<linearGradient id="SVGID_38_" gradientUnits="userSpaceOnUse" x1="496.6777" y1="129.6816" x2="559.8359" y2="129.6816">
	<stop  offset="0" style="stop-color:#FFD6BF"/>
	<stop  offset="0.2921" style="stop-color:#FF271F"/>
	<stop  offset="0.4775" style="stop-color:#FFD1BF"/>
	<stop  offset="0.7416" style="stop-color:#DF0800"/>
</linearGradient>
<rect x="496.678" y="97.814" fill="url(#SVGID_38_)" stroke="#FF0000" stroke-width="0.1764" stroke-linecap="round" stroke-linejoin="round" width="63.158" height="63.735"/>
</svg>
