<?xml version="1.0" encoding="utf-8"?>
<!-- Generator: Adobe Illustrator 17.0.0, SVG Export Plug-In . SVG Version: 6.00 Build 0)  -->
<!DOCTYPE svg PUBLIC "-//W3C//DTD SVG 1.1//EN" "http://www.w3.org/Graphics/SVG/1.1/DTD/svg11.dtd">
<svg version="1.1" id="Calque_1" xmlns="http://www.w3.org/2000/svg" xmlns:xlink="http://www.w3.org/1999/xlink" x="0px" y="0px"
	 width="576px" height="576px" viewBox="0 0 576 576" enable-background="new 0 0 576 576" xml:space="preserve">
<path fill="#FFFFFF" stroke="#000000" stroke-width="2" stroke-linecap="round" stroke-linejoin="round" d="M41.496,574.438h491.946
	c10.872,0,21.3-4.318,28.988-12.007c7.688-7.688,12.007-18.115,12.007-28.988V41.496c0-10.873-4.319-21.301-12.007-28.988
	C554.742,4.819,544.314,0.5,533.442,0.5H41.496c-10.873,0-21.301,4.318-28.988,12.007C4.818,20.195,0.5,30.623,0.5,41.496v491.946
	c0,10.873,4.318,21.3,12.008,28.988C20.195,570.118,30.623,574.438,41.496,574.438z"/>
<path fill="#0000FF" stroke="#0000FF" d="M544.92,41.17v488.55c0,1.41-0.24,2.77-0.68,4.03c-0.27,0.77-0.62,1.5-1.03,2.19
	c-2.12,3.59-6.03,5.99-10.51,5.99H42.66c-6.75,0-12.22-5.47-12.22-12.21V41.17c0-6.74,5.47-12.21,12.22-12.21h490.05
	c4.46,0,8.36,2.4,10.49,5.97c0.42,0.7,0.77,1.44,1.04,2.21C544.68,38.4,544.92,39.76,544.92,41.17z"/>
<path fill="#FFFFFF" stroke="#0000FF" stroke-width="0.4772" stroke-linecap="round" stroke-linejoin="round" d="M291.51,285.45
	l252.73,248.3c-0.27,0.77-0.62,1.5-1.03,2.19c-2.12,3.59-6.03,5.99-10.51,5.99H291.5L30.44,285.45L291.5,28.96h241.21
	c4.46,0,8.36,2.4,10.49,5.97c0.42,0.7,0.77,1.44,1.04,2.21L291.51,285.45z"/>
</svg>
