<?xml version="1.0" encoding="UTF-8" standalone="no"?>
<!-- Generator: Adobe Illustrator 13.0.0, SVG Export Plug-In  -->

<svg
   xmlns:dc="http://purl.org/dc/elements/1.1/"
   xmlns:cc="http://creativecommons.org/ns#"
   xmlns:rdf="http://www.w3.org/1999/02/22-rdf-syntax-ns#"
   xmlns:svg="http://www.w3.org/2000/svg"
   xmlns="http://www.w3.org/2000/svg"
   xmlns:sodipodi="http://sodipodi.sourceforge.net/DTD/sodipodi-0.dtd"
   xmlns:inkscape="http://www.inkscape.org/namespaces/inkscape"
   version="1.1"
   x="0px"
   y="0px"
   width="574.53699"
   height="574.53802"
   viewBox="-0.943 -0.943 574.53699 574.53802"
   enable-background="new -0.943 -0.943 576 576"
   xml:space="preserve"
   id="svg2"
   inkscape:version="0.48.4 r9939"
   sodipodi:docname="AJAX1.svg"><metadata
   id="metadata12"><rdf:RDF><cc:Work
       rdf:about=""><dc:format>image/svg+xml</dc:format><dc:type
         rdf:resource="http://purl.org/dc/dcmitype/StillImage" /></cc:Work></rdf:RDF></metadata><sodipodi:namedview
   pagecolor="#ffffff"
   bordercolor="#666666"
   borderopacity="1"
   objecttolerance="10"
   gridtolerance="10"
   guidetolerance="10"
   inkscape:pageopacity="0"
   inkscape:pageshadow="2"
   inkscape:window-width="1280"
   inkscape:window-height="1004"
   id="namedview10"
   showgrid="false"
   fit-margin-top="0.3"
   fit-margin-right="0.3"
   fit-margin-bottom="0.3"
   fit-margin-left="0.3"
   inkscape:zoom="0.64579264"
   inkscape:cx="150.02143"
   inkscape:cy="132.93333"
   inkscape:window-x="-8"
   inkscape:window-y="-8"
   inkscape:window-maximized="1"
   inkscape:current-layer="svg2" />
<defs
   id="defs4">
</defs>
<path
   d="M 532.3,-0.6430038 H 40.353 c -10.873,0 -21.3,4.319 -28.988,12.0069998 -7.689,7.689 -12.008,18.116 -12.008,28.989 V 532.3 c 0,10.873 4.319,21.3 12.007,28.988 7.688,7.688 18.116,12.007 28.988,12.007 h 491.947 c 10.872,0 21.3,-4.318 28.988,-12.007 7.688,-7.688 12.007,-18.115 12.007,-28.988 V 40.352996 c 0,-10.873 -4.319,-21.3 -12.007,-28.988 C 553.6,3.6769962 543.172,-0.6430038 532.3,-0.6430038 z"
   id="path6"
   style="fill:#003399;fill-opacity:1;stroke:none"
   inkscape:connector-curvature="0" />
<polygon
   points="205.066,178.276 205.066,41.084 41.084,41.084 41.084,259.186 245.605,415.986 155.872,533.031 533.031,533.031 435.111,168.804 345.377,285.849 "
   id="polygon8"
   style="fill:#ffffff;stroke:none"
   transform="translate(-0.731,-0.7310038)" />
</svg>