<?xml version="1.0" encoding="UTF-8" standalone="no"?>
<!-- Created with Inkscape (http://www.inkscape.org/) -->

<svg
   version="1.1"
   id="svg3748"
   width="1387"
   height="2933"
   viewBox="0 0 1387 2933"
   sodipodi:docname="France_Road_Sign_J6.svg"
   inkscape:version="1.2.2 (732a01da63, 2022-12-09)"
   xmlns:inkscape="http://www.inkscape.org/namespaces/inkscape"
   xmlns:sodipodi="http://sodipodi.sourceforge.net/DTD/sodipodi-0.dtd"
   xmlns="http://www.w3.org/2000/svg"
   xmlns:svg="http://www.w3.org/2000/svg">
  <defs
     id="defs3752" />
  <sodipodi:namedview
     id="namedview3750"
     pagecolor="#ffffff"
     bordercolor="#000000"
     borderopacity="0.25"
     inkscape:showpageshadow="2"
     inkscape:pageopacity="0.0"
     inkscape:pagecheckerboard="0"
     inkscape:deskcolor="#d1d1d1"
     showgrid="false"
     inkscape:zoom="0.050025454"
     inkscape:cx="1049.4657"
     inkscape:cy="6126.8809"
     inkscape:window-width="1920"
     inkscape:window-height="991"
     inkscape:window-x="-9"
     inkscape:window-y="-9"
     inkscape:window-maximized="1"
     inkscape:current-layer="g3754" />
  <g
     inkscape:groupmode="layer"
     inkscape:label="Image"
     id="g3754">
    <g
       id="g4584"
       transform="matrix(-1,0,0,1,1391.2051,0)">
      <g
         id="g4582">
        <g
           id="g4576"
           style="opacity:1">
          <path
             style="color:#000000;fill:#1a1a1a;fill-rule:evenodd;stroke-linecap:round;stroke-linejoin:round;-inkscape-stroke:none;paint-order:stroke fill markers"
             d="M 10.402344,6.9707031 A 7.50075,7.50075 0 0 0 4.2050781,14.355469 V 2919.6113 a 7.50075,7.50075 0 0 0 7.4999999,7.5 H 410.64648 a 7.50075,7.50075 0 0 0 7.5,-7.5 V 244.68359 a 7.50075,7.50075 0 0 0 -3.75,-6.49609 L 15.455078,7.859375 A 7.50075,7.50075 0 0 0 10.402344,6.9707031 Z M 19.205078,27.347656 403.14648,249.01367 V 2912.1113 H 19.205078 Z"
             id="path4572" />
          <path
             style="color:#000000;fill:#f9f9f9;fill-rule:evenodd;stroke-width:15;stroke-linecap:round;stroke-linejoin:round;-inkscape-stroke:none;paint-order:stroke fill markers"
             d="M 11.705078,14.355469 V 2919.6113 H 410.64648 V 244.68359 Z"
             id="path4574" />
        </g>
        <path
           id="path4578"
           style="opacity:1;fill:#000000;fill-rule:evenodd;stroke-width:5.47102;stroke-linecap:round;paint-order:stroke fill markers"
           d="m 11.705078,310.35547 v 580 L 410.64648,1120.6836 V 540.68359 Z" />
        <rect
           style="opacity:1;fill:#b0b0b0;fill-opacity:1;fill-rule:evenodd;stroke:none;stroke-width:15;stroke-linecap:round;stroke-linejoin:round;stroke-dasharray:none;stroke-opacity:1;paint-order:stroke fill markers"
           id="rect4580"
           width="247.36145"
           height="325.10361"
           x="87.495056"
           y="550.37921" />
      </g>
    </g>
    <g
       id="g4570">
      <g
         id="g4562">
        <g
           id="rect3934"
           style="opacity:1">
          <path
             style="color:#000000;fill:#1a1a1a;fill-rule:evenodd;stroke-linecap:round;stroke-linejoin:round;-inkscape-stroke:none;paint-order:stroke fill markers"
             d="M 10.402344,6.9707031 A 7.50075,7.50075 0 0 0 4.2050781,14.355469 V 2919.6113 a 7.50075,7.50075 0 0 0 7.4999999,7.5 H 410.64648 a 7.50075,7.50075 0 0 0 7.5,-7.5 V 244.68359 a 7.50075,7.50075 0 0 0 -3.75,-6.49609 L 15.455078,7.859375 A 7.50075,7.50075 0 0 0 10.402344,6.9707031 Z M 19.205078,27.347656 403.14648,249.01367 V 2912.1113 H 19.205078 Z"
             id="path4309" />
          <path
             style="color:#000000;fill:#f9f9f9;fill-rule:evenodd;stroke-width:15;stroke-linecap:round;stroke-linejoin:round;-inkscape-stroke:none;paint-order:stroke fill markers"
             d="M 11.705078,14.355469 V 2919.6113 H 410.64648 V 244.68359 Z"
             id="path4311" />
        </g>
        <path
           id="path3939"
           style="opacity:1;fill:#000000;fill-rule:evenodd;stroke-width:5.47102;stroke-linecap:round;paint-order:stroke fill markers"
           d="M 11.705078 310.35547 L 11.705078 890.35547 L 410.64648 1120.6836 L 410.64648 540.68359 L 11.705078 310.35547 z " />
        <rect
           style="opacity:1;fill:#b0b0b0;fill-rule:evenodd;stroke:none;stroke-width:15;stroke-linecap:round;stroke-linejoin:round;stroke-dasharray:none;stroke-opacity:1;paint-order:stroke fill markers;fill-opacity:1"
           id="rect4365"
           width="247.36145"
           height="325.10361"
           x="87.495056"
           y="550.37921" />
      </g>
    </g>
  </g>
</svg>
