<?xml version="1.0" encoding="UTF-8" standalone="no"?>
<!-- Created with Inkscape (http://www.inkscape.org/) -->

<svg
   xmlns:dc="http://purl.org/dc/elements/1.1/"
   xmlns:cc="http://creativecommons.org/ns#"
   xmlns:rdf="http://www.w3.org/1999/02/22-rdf-syntax-ns#"
   xmlns:svg="http://www.w3.org/2000/svg"
   xmlns="http://www.w3.org/2000/svg"
   xmlns:sodipodi="http://sodipodi.sourceforge.net/DTD/sodipodi-0.dtd"
   xmlns:inkscape="http://www.inkscape.org/namespaces/inkscape"
   width="75.153542"
   height="55.984249"
   id="svg3801"
   version="1.1"
   inkscape:version="0.48.4 r9939"
   sodipodi:docname="KC1 piétons.svg">
  <defs
     id="defs3" />
  <sodipodi:namedview
     inkscape:document-units="mm"
     id="base"
     pagecolor="#ffffff"
     bordercolor="#666666"
     borderopacity="1.0"
     inkscape:pageopacity="0.0"
     inkscape:pageshadow="2"
     inkscape:zoom="5.6"
     inkscape:cx="73.438624"
     inkscape:cy="26.367737"
     inkscape:current-layer="text3514"
     showgrid="false"
     inkscape:snap-page="true"
     inkscape:snap-bbox="true"
     inkscape:bbox-nodes="true"
     showguides="true"
     inkscape:guide-bbox="true"
     inkscape:object-paths="true"
     inkscape:snap-intersection-paths="true"
     inkscape:object-nodes="true"
     inkscape:snap-smooth-nodes="true"
     inkscape:snap-midpoints="true"
     inkscape:snap-object-midpoints="true"
     inkscape:snap-center="true"
     inkscape:bbox-paths="true"
     inkscape:snap-bbox-edge-midpoints="true"
     inkscape:snap-bbox-midpoints="true"
     units="mm"
     inkscape:window-width="1366"
     inkscape:window-height="745"
     inkscape:window-x="-8"
     inkscape:window-y="-8"
     inkscape:window-maximized="1">
    <sodipodi:guide
       orientation="1,0"
       position="37.564274,55.15832"
       id="guide4138" />
    <sodipodi:guide
       orientation="0,1"
       position="38.066112,21.509379"
       id="guide4140" />
    <sodipodi:guide
       orientation="0,1"
       position="40.571011,6.0868099"
       id="guide4345" />
    <sodipodi:guide
       orientation="0,1"
       position="38.429446,38.347479"
       id="guide3010" />
    <sodipodi:guide
       orientation="1,0"
       position="3.5433071,48.683261"
       id="guide3101" />
    <sodipodi:guide
       orientation="1,0"
       position="71.610236,35.982143"
       id="guide3103" />
  </sodipodi:namedview>
  <metadata
     id="metadata4">
    <rdf:RDF>
      <cc:Work
         rdf:about="">
        <dc:format>image/svg+xml</dc:format>
        <dc:type
           rdf:resource="http://purl.org/dc/dcmitype/StillImage" />
        <dc:title></dc:title>
      </cc:Work>
    </rdf:RDF>
  </metadata>
  <g
     inkscape:label="Layer 1"
     inkscape:groupmode="layer"
     id="layer1"
     transform="translate(0,-996.37793)">
    <g
       id="g3841">
      <g
         style="font-size:28.322649px;font-style:normal;font-weight:normal;text-align:center;line-height:125%;letter-spacing:0px;word-spacing:0px;text-anchor:middle;fill:#000000;fill-opacity:1;stroke:none;font-family:Sans"
         id="text3789">
        <g
           id="g3126">
          <g
             id="g3573">
            <g
               id="text3514"
               style="font-size:16.05783463px;font-style:normal;font-variant:normal;font-weight:normal;font-stretch:normal;text-align:center;line-height:125%;letter-spacing:0px;word-spacing:0px;text-anchor:middle;fill:#000000;fill-opacity:1;stroke:none;font-family:Caracteres L1;-inkscape-font-specification:Caracteres L1"
               transform="translate(-1.6462299,0.37802078)">
              <g
                 id="g4136">
                <path
                   style="font-size:28.322649px;font-style:normal;font-weight:normal;text-align:center;line-height:125%;letter-spacing:0px;word-spacing:0px;text-anchor:middle;fill:#ffff00;fill-opacity:1;fill-rule:nonzero;stroke:#000000;stroke-width:1.46569157;stroke-miterlimit:4;stroke-opacity:1;font-family:Sans"
                   d="m 4.3409035,996.82587 69.7891875,0 c 1.073006,0 1.936835,0.79018 1.936835,1.7717 l 0,50.88203 c 0,0.9815 -0.863829,1.7717 -1.936835,1.7717 l -69.7891875,0 c -1.0730066,0 -1.936835,-0.7902 -1.936835,-1.7717 l 0,-50.88203 c 0,-0.98152 0.8638284,-1.7717 1.936835,-1.7717 z"
                   id="rect3019"
                   inkscape:connector-curvature="0" />
                <g
                   id="text4015"
                   style="font-size:9.11108589px;fill:#000000;font-family:Caracteres L1;-inkscape-font-specification:Caracteres L1">
                  <path
                     id="path4114"
                     style=""
                     d="m 18.114428,1007.0347 c 0.863058,0.1483 1.428051,0.6629 1.694982,1.5438 l 0.04004,0.218 -1.125539,0.2357 c -0.09194,-0.3796 -0.249135,-0.6317 -0.47157,-0.7563 -0.222442,-0.1245 -0.483436,-0.1126 -0.782984,0.036 -0.198714,0.1691 -0.36406,0.4004 -0.496038,0.694 -0.131982,0.2937 -0.218733,0.6911 -0.260254,1.1923 -0.0178,0.5339 0.0519,0.9973 0.209093,1.3903 0.157188,0.3929 0.347743,0.6532 0.571667,0.7807 0.223919,0.1276 0.45303,0.1453 0.687335,0.053 0.234299,-0.059 0.421147,-0.301 0.560546,-0.7251 l 1.125539,0.347 c -0.151263,0.5961 -0.443399,1.0276 -0.876408,1.2946 -0.317349,0.2016 -0.691046,0.3158 -1.121091,0.3425 -0.809678,-0.018 -1.414711,-0.3485 -1.815099,-0.9921 -0.421151,-0.6999 -0.637658,-1.4577 -0.649521,-2.2733 0.0059,-1.0202 0.225404,-1.8551 0.658419,-2.5047 0.272856,-0.3588 0.578339,-0.6065 0.916447,-0.7429 0.255061,-0.1008 0.532367,-0.1512 0.83192,-0.1513 0.09787,1e-4 0.198709,0.01 0.302517,0.018 z" />
                  <path
                     id="path4116"
                     style=""
                     d="m 21.660099,1007.1148 0,6.5219 -1.236758,0 0,-6.5219 z" />
                  <path
                     id="path4118"
                     style=""
                     d="m 24.529557,1007.0926 c 0.685108,0 1.220443,0.2461 1.606007,0.7385 0.338103,0.433 0.507156,0.9209 0.50716,1.4636 -4e-6,0.098 -0.0059,0.2136 -0.01779,0.347 -0.07119,0.6614 -0.401876,1.2086 -0.992076,1.6416 l 1.0855,2.349 -1.405812,0 -0.929793,-1.9441 -0.805228,0 0,1.9574 -1.23231,0 0.0044,-6.553 z m -0.17795,3.341 0.364799,-0.044 c 0.207606,-0.056 0.381108,-0.1735 0.520506,-0.3514 0.118631,-0.175 0.189811,-0.3841 0.213541,-0.6273 0.01186,-0.3025 -0.07711,-0.5665 -0.266926,-0.7919 -0.160159,-0.1839 -0.392978,-0.2877 -0.698457,-0.3114 l -0.894204,0 0,2.1265 z" />
                  <path
                     id="path4120"
                     style=""
                     d="m 29.805802,1007.0347 c 0.863058,0.1483 1.428051,0.6629 1.694982,1.5438 l 0.04004,0.218 -1.12554,0.2357 c -0.09194,-0.3796 -0.249134,-0.6317 -0.47157,-0.7563 -0.222441,-0.1245 -0.483435,-0.1126 -0.782983,0.036 -0.198714,0.1691 -0.36406,0.4004 -0.496039,0.694 -0.131982,0.2937 -0.218733,0.6911 -0.260253,1.1923 -0.0178,0.5339 0.0519,0.9973 0.209092,1.3903 0.157189,0.3929 0.347744,0.6532 0.571668,0.7807 0.223919,0.1276 0.45303,0.1453 0.687335,0.053 0.234299,-0.059 0.421147,-0.301 0.560545,-0.7251 l 1.12554,0.347 c -0.151263,0.5961 -0.443399,1.0276 -0.876408,1.2946 -0.31735,0.2016 -0.691046,0.3158 -1.121091,0.3425 -0.809678,-0.018 -1.414711,-0.3485 -1.815099,-0.9921 -0.421151,-0.6999 -0.637658,-1.4577 -0.649521,-2.2733 0.0059,-1.0202 0.225404,-1.8551 0.658418,-2.5047 0.272857,-0.3588 0.578339,-0.6065 0.916448,-0.7429 0.25506,-0.1008 0.532367,-0.1512 0.83192,-0.1513 0.09787,1e-4 0.198709,0.01 0.302517,0.018 z" />
                  <path
                     id="path4122"
                     style=""
                     d="m 33.333679,1007.1237 0,4.4132 c 0.05635,0.5635 0.373695,0.8779 0.952037,0.9431 0.56944,-0.062 0.889751,-0.3722 0.960935,-0.9298 l 0,-4.4265 1.259003,0 0,4.7558 c -0.109741,0.5813 -0.384082,1.0336 -0.823023,1.3568 -0.391496,0.2759 -0.791885,0.4212 -1.201169,0.436 -0.06525,0.01 -0.129017,0.01 -0.191297,0.01 -0.608001,0 -1.110712,-0.1765 -1.508134,-0.5294 -0.453775,-0.4389 -0.694009,-0.8868 -0.720701,-1.3435 l 0,-4.6846 z" />
                  <path
                     id="path4124"
                     style=""
                     d="m 38.378586,1007.1059 0.0044,5.3652 2.522453,0 -0.0044,1.1656 -3.754764,0 0,-6.5308 z" />
                  <path
                     id="path4126"
                     style=""
                     d="m 44.526789,1007.1059 1.681636,6.5175 -1.276797,0 -0.280273,-1.1078 -1.801753,0 -0.284721,1.1078 -1.290144,0 1.663841,-6.5175 z m -1.432504,4.1685 1.285695,0 -0.622828,-2.5447 z" />
                  <path
                     id="path4128"
                     style=""
                     d="m 50.581569,1007.1104 0,1.2545 -1.30349,0 0,5.2718 -1.210067,0 0,-5.2851 -1.392465,0 0,-1.2412 z" />
                  <path
                     id="path4130"
                     style=""
                     d="m 52.481193,1007.1148 0,6.5219 -1.236759,0 0,-6.5219 z" />
                  <path
                     id="path4132"
                     style=""
                     d="m 55.862262,1007.0347 c 0.717731,0.1098 1.248618,0.5339 1.59266,1.2724 0.293614,0.5457 0.440424,1.216 0.440429,2.0108 l 0,0.08 c -5e-6,0.9936 -0.241722,1.8388 -0.72515,2.5358 -0.344042,0.4686 -0.830441,0.7311 -1.459197,0.7874 -0.06525,0.01 -0.129018,0.01 -0.191298,0.01 -0.652488,0 -1.199687,-0.2758 -1.641597,-0.8274 -0.456741,-0.7356 -0.688077,-1.4904 -0.694008,-2.2645 -0.003,-0.065 -0.0044,-0.1304 -0.0044,-0.1957 0,-1.0469 0.232819,-1.913 0.698457,-2.5981 0.311413,-0.3737 0.636173,-0.6124 0.974281,-0.7162 0.2343,-0.074 0.468602,-0.1112 0.702906,-0.1113 0.103802,1e-4 0.206124,0.01 0.306966,0.018 z m -0.342556,5.5566 c 0.344036,-0.018 0.634689,-0.2536 0.87196,-0.7074 0.172015,-0.3025 0.280269,-0.7474 0.32476,-1.3346 0.0089,-0.7474 -0.123086,-1.3599 -0.395941,-1.8374 -0.222441,-0.3321 -0.468607,-0.5175 -0.738496,-0.5561 -0.355904,0.018 -0.652489,0.2507 -0.889754,0.6985 -0.169055,0.3144 -0.278792,0.7652 -0.32921,1.3524 -0.0059,0.7474 0.129013,1.3584 0.404839,1.8329 0.21947,0.3322 0.470084,0.5161 0.751842,0.5517 z" />
                  <path
                     id="path4134"
                     style=""
                     d="m 60.079697,1007.1059 1.637148,3.479 0,-3.479 1.210066,0 0.0044,6.5308 -1.187822,0 -1.988601,-4.1151 -0.0044,4.1196 -1.223413,0 0,-6.5353 z" />
                </g>
                <g
                   id="text4015-1"
                   style="font-size:9.15336227px;fill:#000000;font-family:Caracteres L1;-inkscape-font-specification:Caracteres L1">
                  <path
                     id="path4095"
                     style=""
                     d="m 15.061976,1023.8555 c 0.429061,0.051 0.793318,0.222 1.092772,0.514 0.299447,0.292 0.516213,0.6377 0.6503,1.0369 0.06257,0.1758 0.108751,0.4068 0.138552,0.6928 l 0,2.0112 c -0.0447,0.6794 -0.258486,1.2276 -0.641361,1.6448 -0.382884,0.4171 -0.848447,0.6391 -1.396692,0.6659 l -2.592261,0 0.0045,-6.5656 z m -1.465968,5.274 1.045843,0 c 0.21155,-0.033 0.391816,-0.111 0.5408,-0.2347 0.148977,-0.1236 0.27561,-0.3404 0.3799,-0.6503 0.05661,-0.1907 0.073,-0.8849 0.04916,-2.0827 -0.140045,-0.6198 -0.463332,-0.9759 -0.969863,-1.0682 l -1.045843,0 z" />
                  <path
                     id="path4097"
                     style=""
                     d="m 18.843102,1023.8779 0,6.5522 -1.242498,0 0,-6.5522 z" />
                  <path
                     id="path4099"
                     style=""
                     d="m 23.544926,1023.869 0,1.1978 -2.708465,0 0,1.4302 1.98442,0 0,1.2156 -1.98442,0 -0.0045,2.7085 -1.260375,0 0.0045,-6.5521 z" />
                  <path
                     id="path4101"
                     style=""
                     d="m 28.014341,1023.869 0,1.1978 -2.708465,0 0,1.4302 1.98442,0 0,1.2156 -1.98442,0 -0.0045,2.7085 -1.260375,0 0.0045,-6.5521 z" />
                  <path
                     id="path4103"
                     style=""
                     d="m 29.873619,1023.8779 0,6.5522 -1.242498,0 0,-6.5522 z" />
                  <path
                     id="path4105"
                     style=""
                     d="m 33.265905,1023.7974 c 0.867062,0.149 1.434678,0.666 1.702847,1.5509 l 0.04022,0.219 -1.130762,0.2369 c -0.09237,-0.3814 -0.250291,-0.6346 -0.473758,-0.7598 -0.223474,-0.1251 -0.485679,-0.1132 -0.786617,0.036 -0.199636,0.1698 -0.36575,0.4022 -0.49834,0.6972 -0.132595,0.295 -0.219748,0.6942 -0.261461,1.1978 -0.01788,0.5363 0.05214,1.0019 0.210062,1.3967 0.157918,0.3948 0.349358,0.6562 0.57432,0.7844 0.224958,0.1281 0.455133,0.146 0.690525,0.054 0.235386,-0.06 0.423101,-0.3024 0.563146,-0.7285 l 1.130762,0.3486 c -0.151964,0.5989 -0.445456,1.0324 -0.880474,1.3006 -0.318822,0.2026 -0.694253,0.3173 -1.126293,0.3441 -0.813436,-0.018 -1.421275,-0.3501 -1.823521,-0.9966 -0.423106,-0.7032 -0.640617,-1.4645 -0.652535,-2.2839 0.006,-1.025 0.22645,-1.8637 0.661473,-2.5163 0.274123,-0.3605 0.581023,-0.6093 0.9207,-0.7464 0.256244,-0.1013 0.534838,-0.1519 0.835781,-0.1519 0.09832,0 0.199631,0.01 0.30392,0.018 z" />
                  <path
                     id="path4107"
                     style=""
                     d="m 36.828029,1023.8779 0,6.5522 -1.242497,0 0,-6.5522 z" />
                  <path
                     id="path4109"
                     style=""
                     d="m 38.821388,1023.869 0.0045,5.3901 2.534158,0 -0.0045,1.171 -3.772187,0 0,-6.5611 z" />
                  <path
                     id="path4111"
                     style=""
                     d="m 45.811553,1023.8824 0,1.1978 -2.708466,0 0,1.4302 1.984421,0 0,1.2112 -1.984421,0 0,1.4972 2.824671,0 0,1.2113 -4.085046,0 0.0045,-6.5477 z" />
                </g>
                <g
                   id="text4015-8"
                   style="font-size:9.25843143px;fill:#000000;font-family:Caracteres L1;-inkscape-font-specification:Caracteres L1">
                  <path
                     id="path4090"
                     style=""
                     d="m 56.407213,1023.7796 c 0.433985,0.051 0.802423,0.2245 1.105315,0.5199 0.302884,0.2953 0.522139,0.6449 0.657765,1.0488 0.06329,0.1778 0.109999,0.4114 0.140142,0.7007 l 0,2.0343 c -0.04521,0.6872 -0.261453,1.2417 -0.648723,1.6636 -0.387279,0.422 -0.858186,0.6465 -1.412724,0.6736 l -2.622017,0 0.0045,-6.6409 z m -1.482796,5.3344 1.057848,0 c 0.213978,-0.033 0.396313,-0.1122 0.547007,-0.2373 0.150687,-0.1251 0.278774,-0.3443 0.384261,-0.6578 0.05726,-0.1928 0.07383,-0.8951 0.04973,-2.1066 -0.141653,-0.6269 -0.468651,-0.987 -0.980996,-1.0805 l -1.057848,0 z" />
                  <path
                     id="path4092"
                     style=""
                     d="m 60.213658,1023.8112 0,4.4846 c 0.05726,0.5726 0.379738,0.8921 0.967433,0.9584 0.578649,-0.063 0.904141,-0.3783 0.976476,-0.9449 l 0,-4.4981 1.279363,0 0,4.8327 c -0.111516,0.5907 -0.390293,1.0503 -0.836333,1.3788 -0.397827,0.2803 -0.804691,0.428 -1.220594,0.443 -0.06631,0.01 -0.131104,0.01 -0.194391,0.01 -0.617833,0 -1.128674,-0.1793 -1.532523,-0.538 -0.461114,-0.446 -0.705233,-0.9011 -0.732357,-1.3652 l 0,-4.7604 z" />
                </g>
                <g
                   id="text4015-7"
                   style="font-size:9.17172623px;fill:#000000;font-family:Caracteres L1;-inkscape-font-specification:Caracteres L1">
                  <path
                     id="path4063"
                     style=""
                     d="m 7.7297158,1039.229 0,6.5787 -1.2494686,0 0.00448,-4.644 -0.017914,0 c -0.00896,0.039 -0.1164404,0.1239 -0.3224435,0.2552 l -0.3896192,0.206 -0.3493138,0.1344 c -0.140324,0.03 -0.2164564,0.052 -0.2283975,0.067 l 0,-1.3883 0.2776597,-0.1299 c 0.4627641,-0.2956 0.7956568,-0.6553 0.9986792,-1.0793 z" />
                  <path
                     id="path4065"
                     style=""
                     d="m 12.28423,1039.2335 c 0.29557,0.048 0.622492,0.1985 0.980766,0.4523 0.107477,0.087 0.225407,0.2224 0.353792,0.4075 l 0.156743,0.2866 0.05822,0.1389 -0.01343,0.013 c 0.07463,0.203 0.111955,0.3971 0.11196,0.5822 -0.01792,0.3583 -0.05076,0.5897 -0.09853,0.6941 -0.08061,0.215 -0.152269,0.3688 -0.214962,0.4613 l -0.103003,0.1478 -0.228397,0.2508 -1.867485,1.8585 2.610896,0 0,1.2808 -4.411206,0 0.00448,-1.2942 2.7542046,-2.7811 c 0.08658,-0.1045 0.147784,-0.2 0.183614,-0.2866 0.09255,-0.3015 0.04926,-0.5553 -0.129873,-0.7613 -0.164211,-0.1583 -0.395593,-0.2374 -0.694149,-0.2374 l -0.264225,0.036 -0.120916,0.058 -0.07613,0 -0.1657,0.1299 -0.09405,0.112 c -0.05971,0.1075 -0.100019,0.1911 -0.120916,0.2508 l -0.02687,0.1567 c -0.01194,0.033 -0.01941,0.045 -0.02239,0.036 l -1.2091635,0 -0.00896,-0.031 0.00896,-0.2195 0.017914,-0.027 c 0.011942,-0.1881 0.073146,-0.3986 0.1836136,-0.6315 l 0.2060053,-0.3448 0.1657,-0.1836 0.02687,-0.01 c 0.316471,-0.2836 0.66877,-0.4598 1.056898,-0.5285 0.226902,-0.039 0.432908,-0.058 0.618017,-0.058 0.137334,0 0.261235,0.011 0.371705,0.031 z" />
                  <path
                     id="path4067"
                     style=""
                     d="m 20.663283,1039.2335 1.692828,6.5608 -1.285295,0 -0.282138,-1.1151 -1.813745,0 -0.286617,1.1151 -1.29873,0 1.674914,-6.5608 z m -1.442039,4.1962 1.294252,0 -0.626973,-2.5616 z" />
                  <path
                     id="path4069"
                     style=""
                     d="m 24.174335,1039.2514 0,4.4425 c 0.05673,0.5673 0.376182,0.8838 0.958374,0.9495 0.57323,-0.063 0.895673,-0.3747 0.96733,-0.936 l 0,-4.456 1.267382,0 0,4.7874 c -0.110471,0.5852 -0.386638,1.0405 -0.8285,1.3659 -0.394101,0.2776 -0.797155,0.4239 -1.209163,0.4389 -0.06569,0.01 -0.129876,0.01 -0.192571,0.01 -0.612047,0 -1.118104,-0.1776 -1.518171,-0.5329 -0.456796,-0.4419 -0.698628,-0.8927 -0.725498,-1.3525 l 0,-4.7157 z" />
                  <path
                     id="path4071"
                     style=""
                     d="m 34.331305,1039.229 0,6.5787 -1.249469,0 0.0045,-4.644 -0.01791,0 c -0.009,0.039 -0.11644,0.1239 -0.322443,0.2552 l -0.389619,0.206 -0.349314,0.1344 c -0.140324,0.03 -0.216457,0.052 -0.228398,0.067 l 0,-1.3883 0.27766,-0.1299 c 0.462764,-0.2956 0.795657,-0.6553 0.998679,-1.0793 z" />
                  <path
                     id="path4073"
                     style=""
                     d="m 38.9933,1039.238 c 0.898658,0.1343 1.476369,0.6404 1.733134,1.5181 l -1.249469,0.3449 c -0.119427,-0.3284 -0.338867,-0.5136 -0.658322,-0.5554 -0.54935,-0.069 -0.907621,0.06 -1.074811,0.3852 -0.110469,0.1791 -0.197051,0.627 -0.259747,1.3435 0.626972,-0.4359 1.306192,-0.5165 2.037664,-0.2418 0.582186,0.2537 0.955384,0.6687 1.119596,1.245 0.03284,0.1731 0.04926,0.3403 0.04926,0.5015 -5e-6,0.4807 -0.146299,0.9047 -0.438882,1.2719 -0.346332,0.4329 -0.829997,0.6762 -1.450995,0.73 -0.113456,0.01 -0.223922,0.013 -0.331401,0.013 -1.406213,0 -2.163059,-0.836 -2.270539,-2.5079 -0.01194,-0.2209 -0.01791,-0.4329 -0.01791,-0.6359 0,-0.6539 0.05673,-1.2166 0.170179,-1.6884 0.152264,-0.621 0.458287,-1.0852 0.918068,-1.3927 0.358269,-0.2419 0.7867,-0.3628 1.285296,-0.3628 0.143305,0 0.289599,0.011 0.438881,0.031 z m -0.640408,5.3606 c 0.629955,0.027 0.988226,-0.1911 1.074811,-0.6539 0.02388,-0.5015 -0.235865,-0.7837 -0.779238,-0.8464 -0.638918,-0.024 -0.995696,0.209 -1.070334,0.6986 0.006,0.4837 0.264223,0.7509 0.774761,0.8017 z" />
                  <path
                     id="path4075"
                     style=""
                     d="m 48.057545,1039.2559 -0.0045,4.4604 c -0.01493,0.7912 -0.304534,1.3973 -0.868807,1.8183 -0.301547,0.2149 -0.641904,0.3343 -1.021071,0.3582 -0.0418,0 -0.0836,0 -0.125394,0 -0.558307,0 -1.024058,-0.1881 -1.397255,-0.5643 -0.385142,-0.406 -0.601597,-0.9345 -0.649366,-1.5853 l 0,-0.2911 1.19125,0 0,0.2911 c 0.05971,0.6658 0.361254,0.9718 0.904633,0.9181 0.429922,-0.054 0.668769,-0.3673 0.716541,-0.9405 l 0,-4.4694 z" />
                  <path
                     id="path4077"
                     style=""
                     d="m 50.131034,1039.2514 0,4.4425 c 0.05673,0.5673 0.376183,0.8838 0.958374,0.9495 0.57323,-0.063 0.895673,-0.3747 0.967331,-0.936 l 0,-4.456 1.267382,0 0,4.7874 c -0.110472,0.5852 -0.386638,1.0405 -0.828501,1.3659 -0.394101,0.2776 -0.797155,0.4239 -1.209163,0.4389 -0.06569,0.01 -0.129876,0.01 -0.19257,0.01 -0.612048,0 -1.118105,-0.1776 -1.518172,-0.5329 -0.456796,-0.4419 -0.698628,-0.8927 -0.725498,-1.3525 l 0,-4.7157 z" />
                  <path
                     id="path4079"
                     style=""
                     d="m 55.308044,1039.2424 0,6.5653 -1.24499,0 0,-6.5653 z" />
                  <path
                     id="path4081"
                     style=""
                     d="m 57.305406,1039.2335 0.0045,5.4009 2.539243,0 -0.0045,1.1733 -3.779754,0 0,-6.5742 z" />
                  <path
                     id="path4083"
                     style=""
                     d="m 61.640477,1039.2335 0.0045,5.4009 2.539242,0 -0.0045,1.1733 -3.779755,0 0,-6.5742 z" />
                  <path
                     id="path4085"
                     style=""
                     d="m 68.644668,1039.2469 0,1.2002 -2.713899,0 0,1.4331 1.988401,0 0,1.2136 -1.988401,0 0,1.5003 2.830337,0 0,1.2136 -4.093241,0 0.0045,-6.5608 z" />
                  <path
                     id="path4087"
                     style=""
                     d="m 73.243969,1039.238 0,1.2629 -1.312166,0 0,5.3068 -1.21812,0 0,-5.3203 -1.401734,0 0,-1.2494 z" />
                </g>
              </g>
            </g>
          </g>
        </g>
      </g>
    </g>
  </g>
</svg>
