<?xml version="1.0" encoding="UTF-8" standalone="no"?>
<!-- Created with Inkscape (http://www.inkscape.org/) -->

<svg
   xmlns:dc="http://purl.org/dc/elements/1.1/"
   xmlns:cc="http://creativecommons.org/ns#"
   xmlns:rdf="http://www.w3.org/1999/02/22-rdf-syntax-ns#"
   xmlns:svg="http://www.w3.org/2000/svg"
   xmlns="http://www.w3.org/2000/svg"
   xmlns:sodipodi="http://sodipodi.sourceforge.net/DTD/sodipodi-0.dtd"
   xmlns:inkscape="http://www.inkscape.org/namespaces/inkscape"
   width="1993"
   height="517"
   id="svg3797"
   version="1.1"
   inkscape:version="0.48.4 r9939"
   sodipodi:docname="KD21 Marseille.svg">
  <defs
     id="defs3799" />
  <sodipodi:namedview
     id="base"
     pagecolor="#ffffff"
     bordercolor="#666666"
     borderopacity="1.0"
     inkscape:pageopacity="0.0"
     inkscape:pageshadow="2"
     inkscape:zoom="0.35"
     inkscape:cx="1036.4161"
     inkscape:cy="393.99478"
     inkscape:document-units="px"
     inkscape:current-layer="g3850"
     showgrid="false"
     inkscape:snap-bbox="true"
     inkscape:bbox-paths="true"
     inkscape:bbox-nodes="true"
     inkscape:snap-bbox-edge-midpoints="true"
     inkscape:snap-bbox-midpoints="true"
     inkscape:object-paths="true"
     inkscape:snap-intersection-paths="true"
     inkscape:object-nodes="true"
     inkscape:snap-smooth-nodes="true"
     inkscape:snap-midpoints="true"
     inkscape:snap-object-midpoints="true"
     inkscape:snap-center="true"
     inkscape:snap-page="true"
     showguides="true"
     inkscape:guide-bbox="true"
     inkscape:window-width="1366"
     inkscape:window-height="745"
     inkscape:window-x="-8"
     inkscape:window-y="-8"
     inkscape:window-maximized="1" />
  <metadata
     id="metadata3802">
    <rdf:RDF>
      <cc:Work
         rdf:about="">
        <dc:format>image/svg+xml</dc:format>
        <dc:type
           rdf:resource="http://purl.org/dc/dcmitype/StillImage" />
        <dc:title></dc:title>
      </cc:Work>
    </rdf:RDF>
  </metadata>
  <g
     inkscape:label="Calque 1"
     inkscape:groupmode="layer"
     id="layer1"
     transform="translate(0,-535.36218)">
    <g
       id="g3850">
      <g
         id="g3034">
        <path
           sodipodi:nodetypes="cccccccc"
           inkscape:connector-curvature="0"
           id="path4386"
           d="m 38.122172,543.82227 1531.309328,0.29768 242.7696,254.86561 -242.7695,244.70874 -1527.861157,0.2834 C 6.8065766,1037.2171 9.4696175,1041.4865 5.6089866,1025.8486 l 1.641498,-454.69783 c 3.6660104,-9.9421 8.4504934,-23.1412 30.8716874,-27.3285 z"
           style="fill:#f9ba11;fill-opacity:1;stroke:#000000;stroke-width:1px;stroke-linecap:butt;stroke-linejoin:miter;stroke-opacity:1" />
        <path
           style="fill:#000000;stroke:none"
           d="m 1569.4316,552.66723 -10e-5,-16.89395 397.4578,222.97718 c 39.0354,24.23415 29.1542,47.49756 0,70.37851 l -397.4578,222.97723 10e-5,-16.8237 230.9838,-236.11837 z"
           id="path3795"
           inkscape:connector-curvature="0"
           sodipodi:nodetypes="cccccccc" />
        <g
           id="g3783"
           transform="translate(-790.1721,1696.8543)">
          <g
             id="g3787"
             transform="matrix(0.99995042,0,0,1.0005716,311.81179,-539.83462)">
            <path
               style="fill:none;stroke:#000000;stroke-width:16.75915718;stroke-linecap:butt;stroke-linejoin:round;stroke-miterlimit:4;stroke-opacity:1;stroke-dasharray:none"
               d="m 2047.9708,-612.54958 -1531.46271,-0.29753 c -12.84386,-0.2502 -30.18353,-0.59534 -29.73326,21.9568 l 0,458.91138 c 1.00341,9.95291 6.98378,17.68191 18.45864,19.00425 l 1542.65993,-0.28595"
               id="path3779"
               inkscape:connector-curvature="0"
               sodipodi:nodetypes="cccccc" />
          </g>
        </g>
        <g
           id="text3009"
           style="font-size:306.16308594px;font-style:normal;font-weight:normal;text-align:center;line-height:125%;letter-spacing:0px;word-spacing:0px;text-anchor:middle;fill:#000000;fill-opacity:1;stroke:none;font-family:Sans">
          <path
             id="path3016"
             style="font-style:oblique;font-weight:bold;-inkscape-font-specification:Sans Bold Oblique"
             d="m 109.19756,903.82623 45.89457,-219.15775 59.05001,0 c 16.44417,2.2e-4 26.95855,0.24937 31.54317,0.74747 9.06912,0.89718 17.16669,2.74093 24.29272,5.53126 7.12569,2.79076 13.60374,6.70251 19.43418,11.73526 5.83006,5.03315 10.86301,11.08764 15.09887,18.16348 4.23544,7.07621 7.49938,15.22361 9.79183,24.44222 2.29202,9.21893 3.43814,19.30974 3.43836,30.27247 -2.2e-4,23.62011 -4.50995,44.57412 -13.52918,62.8621 -9.01965,18.28811 -20.35625,32.8139 -34.00982,43.57741 -10.46472,8.37166 -23.96897,14.55073 -40.51279,18.53722 -9.36839,2.19258 -23.76961,3.28886 -43.20368,3.28886 z m 52.47229,-35.28051 22.87254,0 c 16.54386,4e-5 28.52826,-1.0215 35.95323,-3.06462 7.42472,-2.04304 14.22668,-5.85513 20.40589,-11.43627 8.8698,-8.0726 16.34448,-18.83613 22.42405,-32.29064 6.07924,-13.45433 9.11894,-29.30065 9.11912,-47.53899 -1.8e-4,-15.5472 -2.51665,-27.23261 -7.54943,-35.05627 -5.03312,-7.82333 -11.2371,-13.03069 -18.61197,-15.62209 -5.18259,-1.79374 -14.40136,-2.69071 -27.65633,-2.69089 l -26.1614,0 z" />
          <path
             id="path3018"
             style="font-style:oblique;font-weight:bold;-inkscape-font-specification:Sans Bold Oblique"
             d="m 483.97826,837.75002 -107.63546,0 c -0.0997,1.69433 -0.14955,2.98994 -0.14949,3.88684 -6e-5,10.56427 3.01472,19.0854 9.04436,25.56342 6.02951,6.47809 13.37961,9.71711 22.05032,9.71709 14.25163,2e-5 25.36399,-7.37499 33.3371,-22.12507 l 38.41988,6.42823 c -7.47484,15.44771 -17.46599,27.03346 -29.97349,34.75728 -12.50776,7.72384 -26.53523,11.58576 -42.08247,11.58577 -21.32784,-10e-6 -38.66909,-6.75213 -52.02381,-20.2564 -13.35479,-13.50423 -20.03217,-31.36871 -20.03215,-53.59349 -2e-5,-21.72632 6.02955,-41.06082 18.08873,-58.00355 16.44426,-22.92222 39.91474,-34.38339 70.41153,-34.38355 19.43406,1.6e-4 34.88172,6.00482 46.34305,18.01399 11.46102,12.00946 17.1916,28.82748 17.19177,50.45412 -1.7e-4,10.36498 -0.99679,19.68341 -2.98987,27.95532 z m -36.17747,-26.1614 c 0.0995,-1.89349 0.14936,-3.33859 0.14949,-4.33531 -1.3e-4,-11.76007 -2.64118,-20.58019 -7.92317,-26.46039 -5.28222,-5.87995 -12.35825,-8.81999 -21.2281,-8.82013 -8.87005,1.4e-4 -16.81813,3.33883 -23.84424,10.01608 -7.02628,6.6775 -11.78516,16.54408 -14.27665,29.59975 z m -4.33532,-131.40495 45.74507,0 -48.43596,44.8481 -28.55329,0 z" />
          <path
             id="path3020"
             style="font-style:oblique;font-weight:bold;-inkscape-font-specification:Sans Bold Oblique"
             d="m 579.20572,903.82623 -36.92494,0 -31.84216,-158.7623 42.15722,0 11.21203,69.21558 c 3.08946,18.73661 4.93321,31.19441 5.53127,37.37342 0.79722,-1.6942 4.26048,-8.14734 10.38981,-19.35943 6.12914,-11.21194 9.8914,-17.96407 11.28677,-20.2564 l 39.46634,-66.97317 46.34304,0 z" />
          <path
             id="path3022"
             style="font-style:oblique;font-weight:bold;-inkscape-font-specification:Sans Bold Oblique"
             d="m 715.99249,684.66848 42.90469,0 -8.07266,38.86836 -42.90469,0 z m -12.55747,60.39545 42.90469,0 -33.1876,158.7623 -42.90469,0 z" />
          <path
             id="path3024"
             style="font-style:oblique;font-weight:bold;-inkscape-font-specification:Sans Bold Oblique"
             d="m 815.70472,790.06153 -41.85823,-3.58785 c 4.78376,-14.15194 13.13048,-25.21446 25.04019,-33.1876 11.9096,-7.97284 27.68117,-11.95933 47.31476,-11.95949 20.43068,1.6e-4 35.52952,4.11123 45.29658,12.33323 9.76677,8.22229 14.65022,18.26328 14.65039,30.12298 -1.7e-4,4.78391 -0.42373,9.86669 -1.2707,15.24835 -0.84729,5.38188 -3.81225,19.53393 -8.89487,42.45621 -4.18598,18.93591 -6.27889,32.19101 -6.27874,39.76533 -1.5e-4,6.77706 1.1958,14.30157 3.58785,22.57354 l -41.70874,0 c -1.69437,-5.78041 -2.74083,-11.76016 -3.13937,-17.93924 -6.27883,6.97638 -13.50435,12.33323 -21.67658,16.07057 -8.1724,3.73734 -16.39455,5.60601 -24.66646,5.60602 -13.1555,-10e-6 -24.01869,-4.31041 -32.58963,-12.93121 -8.57099,-8.62078 -12.85647,-19.70822 -12.85646,-33.26235 -10e-6,-15.14863 4.70904,-27.25761 14.12716,-36.32696 9.41806,-9.0692 26.23609,-14.55063 50.45412,-16.44431 20.4307,-1.69417 34.08445,-3.73724 40.96127,-6.12924 1.7938,-5.97964 2.69077,-10.76344 2.69089,-14.3514 -1.2e-4,-4.58435 -1.84388,-8.42135 -5.53127,-11.51101 -3.68762,-3.08941 -9.16905,-4.63417 -16.44431,-4.63431 -7.6741,1.4e-4 -13.72859,1.56982 -18.16348,4.70906 -4.43506,3.13949 -7.44984,7.59938 -9.04437,13.37968 z m 40.81178,39.76532 c -2.59133,0.69771 -6.02969,1.34552 -10.31506,1.94342 -21.52718,2.5913 -35.57957,6.37847 -42.15723,11.36152 -4.68419,3.58791 -7.02625,8.42153 -7.0262,14.50089 -5e-5,4.98317 1.79387,9.1939 5.38177,12.63222 3.58779,3.43838 8.32175,5.15756 14.2019,5.15753 6.47798,3e-5 12.5823,-1.56965 18.31298,-4.70905 5.7305,-3.13933 10.01598,-7.17566 12.85646,-12.10899 2.84027,-4.93324 5.35675,-12.63216 7.54943,-23.09678 z" />
          <path
             id="path3026"
             style="font-style:oblique;font-weight:bold;-inkscape-font-specification:Sans Bold Oblique"
             d="m 936.34617,776.90609 6.57773,-31.84216 20.92911,0 5.23228,-25.41393 49.18341,-29.59975 -11.511,55.01368 26.1614,0 -6.5777,31.84216 -26.3109,0 -13.90293,66.52469 c -2.49163,12.05921 -3.73741,18.93591 -3.73734,20.63013 -7e-5,3.2889 1.04639,5.8552 3.13937,7.69893 2.09284,1.84378 5.88001,2.76566 11.36152,2.76563 1.8935,3e-5 6.62748,-0.34879 14.20188,-1.04646 l -6.7272,31.84216 c -7.3751,1.49493 -14.94944,2.2424 -22.72304,2.24241 -15.14874,-10e-6 -26.16144,-2.91513 -33.0381,-8.74539 -6.87674,-5.83024 -10.31509,-13.92781 -10.31507,-24.29272 -2e-5,-4.88343 1.84373,-16.14527 5.53127,-33.78558 l 13.30494,-63.8338 z" />
          <path
             id="path3028"
             style="font-style:oblique;font-weight:bold;-inkscape-font-specification:Sans Bold Oblique"
             d="m 1073.5814,684.66848 42.9047,0 -8.0727,38.86836 -42.9047,0 z m -12.5575,60.39545 42.9047,0 -33.1876,158.7623 -42.9047,0 z" />
          <path
             id="path3030"
             style="font-style:oblique;font-weight:bold;-inkscape-font-specification:Sans Bold Oblique"
             d="m 1119.0274,837.89951 c 0,-29.40033 8.2969,-52.8459 24.8907,-70.33678 16.5938,-17.49061 38.3949,-26.23598 65.4035,-26.23614 23.4206,1.6e-4 41.7086,6.4533 54.8642,19.35943 13.1553,12.90642 19.733,30.27259 19.7332,52.09855 -2e-4,25.71298 -8.2223,47.93769 -24.6665,66.67419 -16.4444,18.73655 -38.4698,28.10481 -66.0762,28.10482 -14.9494,-10e-6 -28.2045,-2.98988 -39.7653,-8.96963 -11.5609,-5.97973 -20.1817,-14.45103 -25.8624,-25.41392 -5.6808,-10.96283 -8.5212,-22.72299 -8.5212,-35.28052 z m 122.2859,-30.6462 c -2e-4,-10.16547 -2.9651,-18.31287 -8.8949,-24.44222 -5.93,-6.12912 -13.5791,-9.19373 -22.9473,-9.19386 -9.2687,1.3e-4 -17.4908,2.86542 -24.6664,8.59588 -7.1758,5.73071 -12.7569,14.05252 -16.7433,24.96545 -3.9866,10.91312 -5.9798,20.95411 -5.9798,30.12298 0,11.36157 3.0895,20.38102 9.2686,27.05836 6.179,6.67742 13.9527,10.0161 23.321,10.01608 11.7601,2e-5 21.6267,-5.03292 29.5998,-15.09887 11.3614,-14.25167 17.0421,-31.59292 17.0423,-52.0238 z" />
          <path
             id="path3032"
             style="font-style:oblique;font-weight:bold;-inkscape-font-specification:Sans Bold Oblique"
             d="m 1333.7004,745.06393 40.6622,0 -4.1858,20.63013 c 10.1655,-8.77015 19.6583,-15.02396 28.4786,-18.76146 8.82,-3.73718 18.1135,-5.60585 27.8805,-5.60601 13.0557,1.6e-4 23.3458,3.7375 30.8705,11.21202 7.5243,7.47483 11.2866,17.39124 11.2868,29.74925 -2e-4,5.58121 -1.6446,16.14542 -4.9333,31.69266 l -18.6867,89.84571 -42.9047,0 18.8362,-90.14469 c 2.7904,-13.45433 4.1857,-21.47715 4.1858,-24.06849 -10e-5,-5.48132 -1.6197,-9.79171 -4.8585,-12.9312 -3.2392,-3.13924 -7.7489,-4.70892 -13.5292,-4.70906 -6.2789,1.4e-4 -13.2552,2.64119 -20.9291,7.92317 -7.6741,5.28223 -13.7037,12.25859 -18.0888,20.92912 -3.1893,6.17917 -6.7771,18.78646 -10.7635,37.8219 l -13.604,65.17925 -42.9046,0 z" />
        </g>
      </g>
    </g>
  </g>
</svg>
