<?xml version="1.0" encoding="UTF-8" standalone="no"?>
<svg
   width="402pt"
   height="117pt"
   viewBox="0 0 402 117"
   version="1.1"
   id="svg65079"
   sodipodi:docname="M1_ex1.svg"
   inkscape:version="1.2.2 (732a01da63, 2022-12-09)"
   xmlns:inkscape="http://www.inkscape.org/namespaces/inkscape"
   xmlns:sodipodi="http://sodipodi.sourceforge.net/DTD/sodipodi-0.dtd"
   xmlns="http://www.w3.org/2000/svg"
   xmlns:svg="http://www.w3.org/2000/svg">
  <defs
     id="defs65083" />
  <sodipodi:namedview
     id="namedview65081"
     pagecolor="#ffffff"
     bordercolor="#000000"
     borderopacity="0.25"
     inkscape:showpageshadow="2"
     inkscape:pageopacity="0.0"
     inkscape:pagecheckerboard="0"
     inkscape:deskcolor="#d1d1d1"
     inkscape:document-units="pt"
     showgrid="false"
     inkscape:zoom="2.4309045"
     inkscape:cx="435.02326"
     inkscape:cy="104.28217"
     inkscape:window-width="1920"
     inkscape:window-height="991"
     inkscape:window-x="-9"
     inkscape:window-y="-9"
     inkscape:window-maximized="1"
     inkscape:current-layer="svg65079" />
  <g
     id="rect65261"
     transform="translate(0.71679688,0.4609375)">
    <path
       style="color:#000000;fill:#1b1918;fill-rule:evenodd;stroke:none;stroke-width:0.5;stroke-linecap:round;stroke-dasharray:none;stroke-opacity:1;paint-order:stroke fill markers"
       d="m 20.283203,-0.2109375 c -11.4825155,0 -20.74999988,9.2674844 -20.74999988,20.7499995 v 75 c 0,11.482518 9.26748438,20.749998 20.74999988,20.749998 H 380.2832 c 11.48252,0 20.75,-9.26748 20.75,-20.749998 v -75 c 0,-11.4825151 -9.26748,-20.7499995 -20.75,-20.7499995 z m 0,1.5 H 380.2832 c 10.67747,0 19.25,8.5725378 19.25,19.2499995 v 75 c 0,10.677458 -8.57253,19.249998 -19.25,19.249998 H 20.283203 c -10.6774621,0 -19.2499999,-8.57254 -19.2499999,-19.249998 v -75 c 0,-10.6774617 8.5725378,-19.2499995 19.2499999,-19.2499995 z"
       id="path65745" />
    <path
       style="color:#000000;fill:#ffffff;fill-rule:evenodd;stroke-width:1.5;stroke-linecap:round;-inkscape-stroke:none;paint-order:stroke fill markers"
       d="M 20.283885,0.53906202 H 380.28389 c 11.08,0 20,8.91999998 20,19.99999998 v 75 c 0,11.079998 -8.92,19.999998 -20,19.999998 H 20.283885 c -11.08,0 -19.99999997,-8.92 -19.99999997,-19.999998 v -75 c 0,-11.08 8.91999997,-19.99999998 19.99999997,-19.99999998 z"
       id="path65747" />
  </g>
  <g
     id="g65688"
     transform="translate(1.5892071,0.66398202)">
    <path
       id="path65071"
       d="m 295.96436,564.77393 c -17.14843,0 -25.53809,-11.68069 -25.53809,-35.17676 0,-23.53123 7.7383,-35.40528 25.65234,-35.40528 17.91405,0 25.42969,13.32425 25.42969,35.32032 0,21.96873 -8.42287,35.26172 -25.54394,35.26172 z m 0,-13.43409 c 9.35546,0 11.96484,-8.13673 11.96484,-21.85546 0,-13.74999 -2.60938,-21.88624 -11.96484,-21.88624 -9.35546,0 -11.9336,6.35109 -11.84766,21.88624 0.0859,15.53123 2.4922,21.85546 11.84766,21.85546 z"
       transform="matrix(1,0,0,-1,-99,587)" />
    <path
       fill-rule="evenodd"
       fill="#1b1918"
       fill-opacity="1"
       stroke-width="0.22676"
       stroke-linecap="butt"
       stroke-linejoin="miter"
       stroke="#1b1918"
       stroke-opacity="1"
       stroke-miterlimit="3.8637"
       d="m 208.28906,514.51562 -13.32031,-3.3164 c 4.22266,-14.17188 15.44531,-17.48828 25.33984,-17.48828 12.5586,0 22.78907,10.20312 22.78907,22.78906 0,12.55859 -10.23047,22.78906 -22.78907,22.78906 -2.01172,0 -5.8125,-0.2539 -7.8789,-0.5664 l 1.35937,12.53125 h 24.35156 v 13.29296 h -36.8789 l -3.48828,-32.0039 12.1875,-9.60938 c 2.4375,1.95703 6.21093,2.4961 8.53125,2.4961 7.48437,0 10.88672,-4.3086 10.88672,-8.90235 0,-4.58984 -4.3086,-9.125 -10.91407,-9.125 -6.0664,0 -8.98437,3.85547 -10.17578,7.11328 z m 0,0"
       transform="matrix(1,0,0,-1,-99,587)"
       id="path65075" />
    <path
       fill-rule="evenodd"
       fill="#1b1918"
       fill-opacity="1"
       stroke-width="0.36849"
       stroke-linecap="butt"
       stroke-linejoin="miter"
       stroke="#1b1918"
       stroke-opacity="1"
       stroke-miterlimit="3.8637"
       d="m 381.11719,513.86328 v -20.125 h -8.21875 v 20.125 c 0,10.03516 -12.30469,10.46094 -12.30469,0 v -20.125 h -8.30469 v 35.43359 h 8.30469 v -2.52343 c 4.79297,3.57031 12.58594,5.01562 17.94531,-3.54297 3.96875,9.21094 23.27344,10.42969 23.27344,-9.24219 v -20.125 h -8.30469 l 0.082,20.125 c 0,10.08984 -12.47265,10.08984 -12.47265,0 z m 0,0"
       transform="matrix(1,0,0,-1,-99,587)"
       id="path65077" />
  </g>
</svg>
