<?xml version="1.0" encoding="UTF-8" standalone="no"?>
<svg
   xmlns:dc="http://purl.org/dc/elements/1.1/"
   xmlns:cc="http://creativecommons.org/ns#"
   xmlns:rdf="http://www.w3.org/1999/02/22-rdf-syntax-ns#"
   xmlns:svg="http://www.w3.org/2000/svg"
   xmlns="http://www.w3.org/2000/svg"
   xmlns:sodipodi="http://sodipodi.sourceforge.net/DTD/sodipodi-0.dtd"
   xmlns:inkscape="http://www.inkscape.org/namespaces/inkscape"
   inkscape:version="1.0 (4035a4f, 2020-05-01)"
   sodipodi:docname="France_road_sign_M10a.svg"
   id="svg34"
   xml:space="preserve"
   enable-background="new -0.5 -0.5 912 270"
   viewBox="-0.5 -0.5 912 270"
   height="270px"
   width="912px"
   y="0px"
   x="0px"
   version="1.1"><metadata
   id="metadata38"><rdf:RDF><cc:Work
       rdf:about=""><dc:format>image/svg+xml</dc:format><dc:type
         rdf:resource="http://purl.org/dc/dcmitype/StillImage" /></cc:Work></rdf:RDF></metadata><sodipodi:namedview
   inkscape:current-layer="svg34"
   inkscape:window-maximized="0"
   inkscape:window-y="23"
   inkscape:window-x="0"
   inkscape:cy="-16.840058"
   inkscape:cx="191.44092"
   inkscape:zoom="0.72726553"
   showgrid="false"
   id="namedview36"
   inkscape:window-height="784"
   inkscape:window-width="1440"
   inkscape:pageshadow="2"
   inkscape:pageopacity="0"
   guidetolerance="10"
   gridtolerance="10"
   objecttolerance="10"
   borderopacity="1"
   bordercolor="#666666"
   pagecolor="#ffffff"
   inkscape:document-rotation="0" />
<defs
   id="defs10" />

<rect
   style="fill:#ffffff;stroke:#000000;stroke-width:2.99824;stroke-miterlimit:4;stroke-dasharray:none;stroke-opacity:1"
   id="rect2995"
   width="908.00177"
   height="266.50174"
   x="1.49912"
   y="1.49912"
   ry="47.428123" /><rect
   style="stroke-width:1.11449"
   id="rect14"
   height="220"
   width="603.64606"
   fill="#ff0000"
   y="24.75"
   x="153.67697" />








<g
   id="g911"
   style="fill:#ffffff"
   transform="translate(-92.94032,242.2002)"><path
     d="m 358.57775,-181.5389 38.00267,147.285567 h -28.8539 l -6.33378,-25.033557 h -40.71713 l -6.43432,25.033557 H 285.08576 L 322.68631,-181.5389 Z m -32.37264,94.202457 h 29.05495 l -14.07509,-57.506727 z"
     style="font-style:normal;font-variant:normal;font-weight:normal;font-stretch:normal;font-size:40px;line-height:1.25;font-family:'Caracteres L1';-inkscape-font-specification:'Caracteres L1';white-space:pre;fill:#ffffff;fill-opacity:1;stroke:none;stroke-width:5.14745"
     id="path60" /><path
     d="m 561.05765,-181.63943 v 88.572379 h 14.57775 v 29.155535 h -14.67833 v 29.557602 H 531.60053 V -64.012046 H 471.88204 V -94.87669 l 60.62331,-86.76274 z m -56.6019,88.371319 h 28.15013 v -40.717129 z"
     style="font-style:normal;font-variant:normal;font-weight:normal;font-stretch:normal;font-size:40px;line-height:1.25;font-family:'Caracteres L1';-inkscape-font-specification:'Caracteres L1';white-space:pre;fill:#ffffff;fill-opacity:1;stroke:none;stroke-width:5.14745"
     id="path62" /><path
     d="m 772.88739,-181.43832 q 30.26142,4.5241 38.90749,34.08175 l -28.0496,7.74131 q -4.02145,-11.059 -14.7788,-12.46652 -18.49866,-2.31234 -24.12869,8.64613 -3.71986,6.03214 -5.83109,30.16083 21.11259,-14.67827 45.74398,-5.42892 19.60454,8.54555 25.13403,27.949028 1.10588,5.831138 1.10588,11.260054 0,16.18632 -9.85253,28.552304 -11.66217,14.577742 -32.5737,16.38738 -3.82039,0.301641 -7.43972,0.301641 -47.35255,0 -50.97183,-56.300268 -0.40202,-7.439717 -0.40202,-14.276149 0,-22.01746 3.82039,-37.90214 5.12738,-20.91153 20.60994,-31.26676 12.06434,-8.14343 28.8539,-8.14343 4.82573,0 9.85253,0.70376 z m -14.37668,120.341791 q 21.21312,0.90482 24.12869,-14.678271 0.80429,-16.89008 -17.49331,-19.00136 -21.51471,-0.804289 -24.02816,15.683672 0.20127,16.286851 17.39278,17.995959 z"
     style="font-style:normal;font-variant:normal;font-weight:normal;font-stretch:normal;font-size:40px;line-height:1.25;font-family:'Caracteres L1';-inkscape-font-specification:'Caracteres L1';white-space:pre;fill:#ffffff;fill-opacity:1;stroke:none;stroke-width:5.14745"
     id="path66" /><path
     transform="translate(134.506,-0.5)"
     d="m 507.53125,-182.07422 c -29.48258,0 -53.21875,25.55083 -53.21875,57.29102 v 35.664059 c 0,31.740188 23.73617,57.292969 53.21875,57.292969 29.48257,0 53.2168,-25.552781 53.2168,-57.292969 V -124.7832 c 0,-31.74019 -23.73423,-57.29102 -53.2168,-57.29102 z m -2.43164,28.93945 h 4.86133 c 11.85016,0 21.39062,13.44267 21.39062,30.14063 v 32.085937 c 0,16.697969 -9.54046,30.140625 -21.39062,30.140625 h -4.86133 c -11.85016,0 -21.38867,-13.442656 -21.38867,-30.140625 v -32.085937 c 0,-16.69796 9.53851,-30.14063 21.38867,-30.14063 z"
     style="fill:#ffffff;stroke:none;stroke-width:1.14379;stroke-linecap:round;stroke-linejoin:round;stroke-miterlimit:4;stroke-dasharray:none"
     id="rect900" /></g>
</svg>
