<?xml version="1.0" encoding="UTF-8" standalone="no"?>
<!-- Generator: Adobe Illustrator 13.0.0, SVG Export Plug-In  -->

<svg
   version="1.1"
   x="0px"
   y="0px"
   width="640"
   height="187.5"
   viewBox="-0.082 -0.083 640 187.5"
   enable-background="new -0.082 -0.083 390 198"
   xml:space="preserve"
   id="svg2"
   inkscape:version="1.2.2 (732a01da63, 2022-12-09)"
   sodipodi:docname="France_road_sign_M4e.svg"
   xmlns:inkscape="http://www.inkscape.org/namespaces/inkscape"
   xmlns:sodipodi="http://sodipodi.sourceforge.net/DTD/sodipodi-0.dtd"
   xmlns="http://www.w3.org/2000/svg"
   xmlns:svg="http://www.w3.org/2000/svg"
   xmlns:rdf="http://www.w3.org/1999/02/22-rdf-syntax-ns#"
   xmlns:cc="http://creativecommons.org/ns#"
   xmlns:dc="http://purl.org/dc/elements/1.1/"><metadata
     id="metadata52"><rdf:RDF><cc:Work
         rdf:about=""><dc:format>image/svg+xml</dc:format><dc:type
           rdf:resource="http://purl.org/dc/dcmitype/StillImage" /><dc:title /></cc:Work></rdf:RDF></metadata><sodipodi:namedview
     pagecolor="#ffffff"
     bordercolor="#666666"
     borderopacity="1"
     objecttolerance="10"
     gridtolerance="10"
     guidetolerance="10"
     inkscape:pageopacity="0"
     inkscape:pageshadow="2"
     inkscape:window-width="1920"
     inkscape:window-height="991"
     id="namedview50"
     showgrid="false"
     inkscape:zoom="1.6109375"
     inkscape:cx="293.30747"
     inkscape:cy="31.348206"
     inkscape:window-x="-9"
     inkscape:window-y="-9"
     inkscape:window-maximized="1"
     inkscape:current-layer="g67287"
     inkscape:showpageshadow="2"
     inkscape:pagecheckerboard="0"
     inkscape:deskcolor="#d1d1d1" /><defs
     id="defs4"><inkscape:perspective
       sodipodi:type="inkscape:persp3d"
       inkscape:vp_x="0 : 99 : 1"
       inkscape:vp_y="0 : 1000 : 0"
       inkscape:vp_z="390 : 99 : 1"
       inkscape:persp3d-origin="195 : 66 : 1"
       id="perspective4308" /></defs><path
     style="opacity:1;fill:#ffffff;fill-opacity:1;fill-rule:evenodd;stroke:#000000;stroke-width:3.99999022;stroke-linecap:round;stroke-linejoin:round;stroke-miterlimit:4;stroke-dasharray:none;stroke-dashoffset:0;stroke-opacity:1"
     d="m 32.445297,1.9938585 574.945693,0 c 16.91205,0 30.52716,13.6151095 30.52716,30.5271515 l 0,122.36899 c 0,16.91204 -13.61511,30.52715 -30.52716,30.52715 l -574.945693,0 c -16.912042,0 -30.5271512,-13.61511 -30.5271512,-30.52715 l 0,-122.36899 c 0,-16.912042 13.6151092,-30.5271515 30.5271512,-30.5271515 z"
     id="rect4365" /><g
     id="g67287"
     transform="translate(472.80508,-284.46374)"
     style="fill:#000000"><g
       aria-label="LIVRAISONS AUTORISéES"
       id="text3713"
       style="font-weight:bold;font-size:62.094px;line-height:1.5;font-family:'Caracteres L1';-inkscape-font-specification:'Caracteres L1 Bold';letter-spacing:-0.86px;fill:#000000;fill-rule:evenodd;stroke-width:0.82792;stroke-linecap:round;paint-order:stroke fill markers"><path
         d="m -449.84522,321.73801 0.0303,36.56512 h 17.19107 l -0.0303,7.94367 h -25.58952 v -44.50879 z"
         id="path3815"
         style="fill:#000000" /><path
         d="m -420.68908,321.79865 v 44.44815 h -8.42877 v -44.44815 z"
         id="path3817"
         style="fill:#000000" /><path
         d="m -408.87559,321.76833 9.00484,31.95658 7.73143,-31.95658 h 8.64101 l -10.76336,44.44815 h -11.24848 l -11.9155,-44.44815 z"
         id="path3819"
         style="fill:#000000" /><path
         d="m -366.56085,321.64705 q 7.00376,0 10.94528,5.03301 3.4564,4.42662 3.4564,9.97506 0,1.00054 -0.12128,2.36491 -0.72766,6.76121 -6.76121,11.18784 l 7.39792,16.00861 h -9.58091 l -6.33674,-13.24955 h -5.4878 v 13.3405 h -8.39846 l 0.0303,-44.66038 z m -1.21278,22.76982 2.48619,-0.30319 q 2.12235,-0.57607 3.54736,-2.39523 1.21278,-1.78884 1.45533,-4.27502 0.12128,-3.09258 -1.81916,-5.39685 -1.63724,-1.8798 -4.76014,-2.12235 h -6.09418 v 14.49264 z"
         id="path3821"
         style="fill:#000000" /><path
         d="m -328.39987,321.73801 11.46071,44.41783 h -8.70165 l -1.91012,-7.54952 h -12.27933 l -1.94044,7.54952 h -8.7926 l 11.33943,-44.41783 z m -9.76283,28.40922 h 8.76229 l -4.2447,-17.34266 z"
         id="path3823"
         style="fill:#000000" /><path
         d="m -305.39854,321.79865 v 44.44815 h -8.42878 v -44.44815 z"
         id="path3825"
         style="fill:#000000" /><path
         d="m -301.89257,357.18131 v -0.0606 q 0,-0.33352 0.69734,-0.45479 5.36653,-1.72821 6.97345,-2.48619 0.81862,1.12182 2.15267,2.0314 2.15268,1.27341 4.60854,1.54628 2.60747,0.0606 3.24417,-0.12128 3.00162,-0.84894 3.69896,-1.7282 0.69735,-0.60638 1.21277,-2.94097 0.12128,-0.90958 -0.24255,-2.0314 -0.45479,-0.75798 -0.97022,-1.27341 l -1.03086,-0.7883 -1.15213,-0.51543 q -9.61123,-3.00162 -10.58145,-3.51705 -4.45694,-1.78884 -6.63993,-5.91227 -1.42501,-2.75906 -1.27342,-6.70057 0.57607,-4.91173 4.03247,-7.79207 3.88088,-2.8197 8.09527,-3.06225 h 0.7883 q 3.00161,0 4.97237,0.45479 4.00215,1.12181 6.24579,3.12289 2.24363,1.84948 3.69895,5.03301 l -0.091,0.33351 -6.24579,3.00162 -0.30319,-0.1516 q -0.57607,-1.84948 -3.24417,-3.00162 -3.00161,-1.12181 -7.03409,-0.0606 -1.7282,0.57606 -2.42554,1.48564 -0.24256,0.24256 -0.63671,1.51597 -0.0606,1.48565 0.12128,1.7282 0.39415,1.03086 1.5766,1.84948 l 0.78831,0.33351 q 8.61069,2.54683 11.67294,3.69896 2.63778,1.21278 4.03247,2.66811 l 1.69789,2.30427 q 1.8798,3.12289 2.00107,6.82185 0.0303,0.24255 0.0303,0.57606 0,1.18246 -0.36383,3.18353 -0.75798,2.8197 -1.81916,4.15375 -1.81916,2.24363 -2.63778,2.69842 -4.45695,3.06226 -9.18676,3.30481 h -2.75906 q -3.09257,-0.30319 -5.21493,-1.21277 -3.39576,-1.57661 -5.4878,-3.51704 -1.7282,-1.57661 -3.00161,-4.51759 z"
         id="path3827"
         style="fill:#000000" /><path
         d="m -250.72457,321.2529 q 7.33728,1.12182 10.85432,8.67133 3.00161,5.57876 3.00161,13.70434 v 0.54575 q 0,10.15698 -4.94205,17.28202 -3.51704,4.79046 -9.94474,5.36652 -0.66703,0.0606 -1.30373,0.0606 -6.67026,0 -11.18784,-5.63939 -4.66918,-7.5192 -4.72981,-15.43255 -0.0303,-0.66702 -0.0303,-1.33405 0,-10.70272 4.76013,-17.70649 3.18353,-3.82024 6.63994,-4.88141 2.39522,-0.75799 4.79045,-0.75799 1.06118,0 2.09204,0.12128 z m -2.33459,37.86885 q 3.51704,-0.18191 5.94259,-4.82077 1.75852,-3.09258 2.21331,-9.0958 0.091,-7.64048 -2.69842,-12.52189 -2.27395,-3.39577 -5.03301,-3.78992 -3.63832,0.18192 -6.06387,4.76014 -1.7282,3.21385 -2.24363,9.21708 -0.0606,7.64047 2.75906,12.49156 2.24363,3.39577 5.12397,3.7596 z"
         id="path3829"
         style="fill:#000000" /><path
         d="m -222.81153,321.73801 11.15751,23.70972 v -23.70972 h 8.24686 l 0.0303,44.50879 h -8.09526 l -13.55274,-28.04539 -0.0303,28.0757 h -8.33782 v -44.5391 z"
         id="path3831"
         style="fill:#000000" /><path
         d="m -200.29533,357.18131 v -0.0606 q 0,-0.33352 0.69735,-0.45479 5.36652,-1.72821 6.97344,-2.48619 0.81863,1.12182 2.15268,2.0314 2.15267,1.27341 4.60854,1.54628 2.60746,0.0606 3.24417,-0.12128 3.00161,-0.84894 3.69896,-1.7282 0.69734,-0.60638 1.21277,-2.94097 0.12128,-0.90958 -0.24256,-2.0314 -0.45479,-0.75798 -0.97021,-1.27341 l -1.03086,-0.7883 -1.15214,-0.51543 q -9.61123,-3.00162 -10.58145,-3.51705 -4.45694,-1.78884 -6.63993,-5.91227 -1.42501,-2.75906 -1.27341,-6.70057 0.57606,-4.91173 4.03247,-7.79207 3.88087,-2.8197 8.09526,-3.06225 h 0.7883 q 3.00162,0 4.97238,0.45479 4.00215,1.12181 6.24578,3.12289 2.24363,1.84948 3.69896,5.03301 l -0.091,0.33351 -6.24578,3.00162 -0.3032,-0.1516 q -0.57606,-1.84948 -3.24417,-3.00162 -3.00161,-1.12181 -7.03408,-0.0606 -1.7282,0.57606 -2.42555,1.48564 -0.24255,0.24256 -0.6367,1.51597 -0.0606,1.48565 0.12127,1.7282 0.39415,1.03086 1.57661,1.84948 l 0.7883,0.33351 q 8.61069,2.54683 11.67295,3.69896 2.63778,1.21278 4.03247,2.66811 l 1.69788,2.30427 q 1.8798,3.12289 2.00108,6.82185 0.0303,0.24255 0.0303,0.57606 0,1.18246 -0.36384,3.18353 -0.75798,2.8197 -1.81916,4.15375 -1.81916,2.24363 -2.63778,2.69842 -4.45694,3.06226 -9.18676,3.30481 h -2.75906 q -3.09257,-0.30319 -5.21492,-1.21277 -3.39577,-1.57661 -5.4878,-3.51704 -1.72821,-1.57661 -3.00162,-4.51759 z"
         id="path3833"
         style="fill:#000000" /><path
         d="m -127.88453,321.73801 11.46071,44.41783 h -8.70165 l -1.91012,-7.54952 h -12.27933 l -1.94044,7.54952 h -8.79261 l 11.33943,-44.41783 z m -9.76283,28.40922 h 8.76229 l -4.24471,-17.34266 z"
         id="path3835"
         style="fill:#000000" /><path
         d="m -105.00449,321.85929 v 30.07678 q 0.57607,5.76067 6.488342,6.4277 5.821312,-0.63671 6.548977,-6.33674 v -30.16774 h 8.580372 v 32.41137 q -1.121816,5.94259 -5.609077,9.2474 -4.002153,2.81969 -8.186221,2.97129 -0.667026,0.0606 -1.303732,0.0606 -6.215461,0 -10.278251,-3.608 -4.63886,-4.48726 -4.91174,-9.15644 v -31.92626 z"
         id="path3837"
         style="fill:#000000" /><path
         d="m -53.412054,321.76833 v 8.55005 h -8.883566 v 35.92842 h -8.246859 v -36.01938 h -9.489953 v -8.45909 z"
         id="path3839"
         style="fill:#000000" /><path
         d="m -32.533075,321.2529 q 7.337279,1.12182 10.854322,8.67133 3.001615,5.57876 3.001615,13.70434 v 0.54575 q 0,10.15698 -4.942052,17.28202 -3.517043,4.79046 -9.944743,5.36652 -0.667025,0.0606 -1.303731,0.0606 -6.670254,0 -11.187836,-5.63939 -4.669177,-7.5192 -4.729816,-15.43255 -0.03032,-0.66702 -0.03032,-1.33405 0,-10.70272 4.760135,-17.70649 3.183531,-3.82024 6.639935,-4.88141 2.395228,-0.75799 4.790455,-0.75799 1.061177,0 2.092035,0.12128 z m -2.334589,37.86885 q 3.517043,-0.18191 5.94259,-4.82077 1.758521,-3.09258 2.213311,-9.0958 0.09096,-7.64048 -2.698421,-12.52189 -2.27395,-3.39577 -5.03301,-3.78992 -3.63832,0.18192 -6.063867,4.76014 -1.728202,3.21385 -2.243631,9.21708 -0.06064,7.64047 2.75906,12.49156 2.243631,3.39577 5.123968,3.7596 z"
         id="path3841"
         style="fill:#000000" /><path
         d="m -0.95140919,321.64705 q 7.00376679,0 10.94528059,5.03301 3.4564046,4.42662 3.4564046,9.97506 0,1.00054 -0.121278,2.36491 -0.727664,6.76121 -6.7612117,11.18784 l 7.3979187,16.00861 H 4.3847941 l -6.3367414,-13.24955 h -5.4878 v 13.3405 h -8.3984567 l 0.03032,-44.66038 z m -1.21277351,22.76982 2.48618565,-0.30319 q 2.12235355,-0.57607 3.54736245,-2.39523 1.2127734,-1.78884 1.4553281,-4.27502 0.1212774,-3.09258 -1.8191602,-5.39685 -1.6372442,-1.8798 -4.7601359,-2.12235 h -6.0941867 v 14.49264 z"
         id="path3843"
         style="fill:#000000" /><path
         d="M 25.324402,321.79865 V 366.2468 H 16.895627 V 321.79865 Z"
         id="path3845"
         style="fill:#000000" /><path
         d="m 28.830405,357.18131 v -0.0606 q 0,-0.33352 0.697345,-0.45479 5.366522,-1.72821 6.973447,-2.48619 0.818622,1.12182 2.152673,2.0314 2.152673,1.27341 4.608539,1.54628 2.607463,0.0606 3.244169,-0.12128 3.001615,-0.84894 3.69896,-1.7282 0.697344,-0.60638 1.212773,-2.94097 0.121277,-0.90958 -0.242555,-2.0314 -0.45479,-0.75798 -0.970218,-1.27341 l -1.030858,-0.7883 -1.152135,-0.51543 q -9.611229,-3.00162 -10.581448,-3.51705 -4.456943,-1.78884 -6.639935,-5.91227 -1.425009,-2.75906 -1.273412,-6.70057 0.576067,-4.91173 4.032472,-7.79207 3.880875,-2.8197 8.095263,-3.06225 h 0.788302 q 3.001615,0 4.972372,0.45479 4.002152,1.12181 6.245783,3.12289 2.243631,1.84948 3.698959,5.03301 l -0.09096,0.33351 -6.245783,3.00162 -0.303194,-0.1516 q -0.576067,-1.84948 -3.244169,-3.00162 -3.001614,-1.12181 -7.034086,-0.0606 -1.728202,0.57606 -2.425547,1.48564 -0.242555,0.24256 -0.636706,1.51597 -0.06064,1.48565 0.121277,1.7282 0.394152,1.03086 1.576606,1.84948 l 0.788303,0.33351 q 8.610691,2.54683 11.672944,3.69896 2.637783,1.21278 4.032472,2.66811 l 1.697883,2.30427 q 1.879799,3.12289 2.001076,6.82185 0.03032,0.24255 0.03032,0.57606 0,1.18246 -0.363832,3.18353 -0.757984,2.8197 -1.819161,4.15375 -1.81916,2.24363 -2.637782,2.69842 -4.456943,3.06226 -9.186759,3.30481 h -2.75906 q -3.092572,-0.30319 -5.214926,-1.21277 -3.395765,-1.57661 -5.4878,-3.51704 -1.728202,-1.57661 -3.001614,-4.51759 z"
         id="path3847"
         style="fill:#000000" /><path
         d="m 88.548411,321.82897 v 8.12558 H 70.174893 v 9.70219 h 13.461785 v 8.21654 H 70.174893 v 10.15698 h 19.16182 v 8.21654 H 61.62484 v -44.41783 z m -6.39738,-11.1272 -4.942052,9.21708 h -9.853785 l 4.032472,-9.21708 z"
         id="path3849"
         style="fill:#000000" /><path
         d="m 118.8567,321.82897 v 8.12558 h -18.37352 v 9.70219 h 13.46179 v 8.21654 h -13.46179 v 10.15698 H 119.645 v 8.21654 H 91.933128 l 0.03032,-44.41783 z"
         id="path3851"
         style="fill:#000000" /><path
         d="m 121.99886,357.18131 v -0.0606 q 0,-0.33352 0.69735,-0.45479 5.36652,-1.72821 6.97344,-2.48619 0.81863,1.12182 2.15268,2.0314 2.15267,1.27341 4.60854,1.54628 2.60746,0.0606 3.24417,-0.12128 3.00161,-0.84894 3.69895,-1.7282 0.69735,-0.60638 1.21278,-2.94097 0.12128,-0.90958 -0.24256,-2.0314 -0.45479,-0.75798 -0.97022,-1.27341 l -1.03085,-0.7883 -1.15214,-0.51543 q -9.61123,-3.00162 -10.58145,-3.51705 -4.45694,-1.78884 -6.63993,-5.91227 -1.42501,-2.75906 -1.27341,-6.70057 0.57606,-4.91173 4.03247,-7.79207 3.88087,-2.8197 8.09526,-3.06225 h 0.7883 q 3.00162,0 4.97238,0.45479 4.00215,1.12181 6.24578,3.12289 2.24363,1.84948 3.69896,5.03301 l -0.091,0.33351 -6.24578,3.00162 -0.3032,-0.1516 q -0.57606,-1.84948 -3.24417,-3.00162 -3.00161,-1.12181 -7.03408,-0.0606 -1.7282,0.57606 -2.42555,1.48564 -0.24255,0.24256 -0.6367,1.51597 -0.0606,1.48565 0.12127,1.7282 0.39415,1.03086 1.57661,1.84948 l 0.7883,0.33351 q 8.61069,2.54683 11.67295,3.69896 2.63778,1.21278 4.03247,2.66811 l 1.69788,2.30427 q 1.8798,3.12289 2.00108,6.82185 0.0303,0.24255 0.0303,0.57606 0,1.18246 -0.36384,3.18353 -0.75798,2.8197 -1.81916,4.15375 -1.81916,2.24363 -2.63778,2.69842 -4.45694,3.06226 -9.18676,3.30481 h -2.75906 q -3.09257,-0.30319 -5.21492,-1.21277 -3.39577,-1.57661 -5.4878,-3.51704 -1.72821,-1.57661 -3.00162,-4.51759 z"
         id="path3853"
         style="fill:#000000" /></g></g><g
     id="g2269"
     transform="matrix(0.80595272,0,0,0.80595272,62.608889,58.298821)"
     style="fill:#000000"><path
       d="m 49.776258,64.764101 q 5.527617,0.652568 9.366241,4.414417 3.877008,3.761851 5.604387,8.905605 0.806112,2.264787 1.189973,5.949866 v 17.273801 q -0.575793,8.75206 -5.527615,14.12613 -4.913437,5.37408 -11.976504,5.71955 H 26.168728 l 0.03838,-56.389369 z M 37.185575,110.05985 h 8.982378 q 2.725423,-0.42225 4.644733,-1.99608 1.919311,-1.61222 3.262829,-5.60439 0.729339,-2.45672 0.422248,-17.887983 -1.804151,-7.984336 -8.32981,-9.174309 h -8.982378 z"
       id="path2111"
       style="font-weight:bold;font-size:37.5px;line-height:1.5;font-family:'Caracteres L1';-inkscape-font-specification:'Caracteres L1 Bold';fill:#000000;fill-rule:evenodd;stroke-width:1.0482;stroke-linecap:round;paint-order:stroke fill markers" /><path
       d="m 123.4191,64.99442 v 10.287508 h -23.26205 v 12.283594 h 17.04349 v 10.402667 h -17.04349 v 12.859391 h 24.26009 v 10.40266 H 89.332131 l 0.03838,-56.23582 z"
       id="path2113"
       style="font-weight:bold;font-size:37.5px;line-height:1.5;font-family:'Caracteres L1';-inkscape-font-specification:'Caracteres L1 Bold';fill:#000000;fill-rule:evenodd;stroke-width:1.0482;stroke-linecap:round;paint-order:stroke fill markers" /><path
       d="m 198.7619,64.840876 v 56.389364 h -10.70977 l 0.0384,-39.806514 h -0.15345 q -0.1151,0.499021 -2.76381,2.188015 l -3.33959,1.765766 -2.99412,1.151588 q -1.80416,0.383861 -1.9577,0.575793 V 75.205156 l 2.37994,-1.113201 q 5.94987,-3.800236 8.56012,-9.251079 z"
       id="path2115"
       style="font-weight:bold;font-size:37.5px;line-height:1.5;font-family:'Caracteres L1';-inkscape-font-specification:'Caracteres L1 Bold';fill:#000000;fill-rule:evenodd;stroke-width:1.0482;stroke-linecap:round;paint-order:stroke fill markers" /><path
       d="m 242.63377,110.63565 q 2.37993,0.15354 2.95573,-0.0768 l 0.0384,0.0768 2.11125,-0.46064 q 2.53348,-0.8445 3.877,-3.64669 1.03643,-2.80219 1.53546,-6.679205 l 0.19182,-8.675287 -0.11509,-4.06894 -0.38387,-3.032512 -0.15346,-0.15354 -0.49903,-2.149627 -0.15345,-0.07677 q -0.5758,-2.303174 -2.18801,-4.260872 -1.22837,-0.998041 -1.95771,-1.305132 l -2.22639,-0.537406 -2.34156,-0.115155 q -1.57385,-0.03838 -3.49314,0.652565 -1.76578,0.844497 -2.95576,3.032514 -0.84449,2.03447 -1.53545,5.105367 l 0.0767,0.230318 q -0.23031,0.191926 -0.26869,1.266746 -0.53742,4.491189 -0.1151,13.166475 l 0.61419,4.184101 0.8061,2.95574 q 0.88288,2.30317 2.41833,3.3396 1.3819,0.88288 3.76186,1.22836 z M 223.51741,99.043005 q -0.11509,-2.14963 -0.11509,-4.222485 0,-1.036429 0.0384,-2.072857 0.11509,-4.068941 0.65257,-7.907564 v -0.268702 l 0.15345,-0.345476 0.26872,-2.64865 0.19182,-0.383862 0.38387,-2.149629 0.15346,-0.230317 q 0.5758,-2.76381 2.49509,-6.21857 l 1.11321,-1.688994 2.14963,-2.188015 q 3.41638,-2.763809 8.86723,-3.953783 1.72737,-0.307089 3.56991,-0.307089 h 0.30708 q 2.87897,0.07677 6.02665,0.959657 1.30513,0.15354 4.1841,1.727379 2.95573,1.84254 5.37406,5.028596 l 1.22836,1.880926 0.99806,2.111243 0.42223,1.535449 0.11509,0.115155 v 0.383864 q 0.38388,0.806109 0.46065,1.266745 l 0.15345,0.191925 0.65257,3.416373 0.11509,0.07677 -0.0767,0.499022 0.15346,0.307089 0.38387,4.107326 0.15346,0.383863 -0.11509,0.03838 0.26869,2.418334 -0.0767,0.07677 q 0.15346,0.383861 0,0.460636 l 0.1151,0.383861 -0.0767,0.115155 0.19203,2.610263 -0.0767,0.07677 0.11509,1.1132 -0.0384,0.07677 v 1.535449 q -0.0384,1.42029 -0.23033,3.416368 l -0.19182,1.4203 0.0767,0.0768 -0.19204,0.38386 q -0.11509,1.42029 -0.65256,3.37798 l -0.23031,0.72934 -0.0384,0.42225 -0.99805,2.84058 -0.19203,0.15354 q 0,0.38387 -0.99806,2.34156 l -1.84252,2.64865 q -3.03253,3.49315 -6.7176,5.10537 -2.41832,0.95966 -4.87505,1.26675 l -2.95574,0.19193 -0.69095,-0.0384 q -8.75205,-0.23032 -14.12613,-5.68116 -2.64865,-2.95574 -3.99217,-6.87113 -1.53545,-3.99217 -1.88092,-8.40659 z"
       id="path2117"
       style="font-weight:bold;font-size:37.5px;line-height:1.5;font-family:'Caracteres L1';-inkscape-font-specification:'Caracteres L1 Bold';fill:#000000;fill-rule:evenodd;stroke-width:1.0482;stroke-linecap:round;paint-order:stroke fill markers" /><path
       d="m 393.69741,64.879261 14.50998,56.235829 h -11.01684 l -2.41834,-9.55818 h -15.54642 l -2.45673,9.55818 h -11.13199 l 14.35644,-56.235829 z m -12.36038,35.967899 h 11.09363 l -5.37408,-21.956925 z m 9.36624,-49.940486 5.02861,11.669413 h -12.20683 l -6.14181,-11.669413 z"
       id="path2119"
       style="font-weight:bold;font-size:37.5px;line-height:1.5;font-family:'Caracteres L1';-inkscape-font-specification:'Caracteres L1 Bold';fill:#000000;fill-rule:evenodd;stroke-width:1.0482;stroke-linecap:round;paint-order:stroke fill markers" /><path
       d="m 490.33616,64.840876 v 56.389364 h -10.70977 l 0.0384,-39.806514 h -0.15346 q -0.11509,0.499021 -2.76381,2.188015 l -3.3396,1.765766 -2.99412,1.151588 q -1.80414,0.383861 -1.9577,0.575793 V 75.205156 l 2.37995,-1.113201 q 5.94986,-3.800236 8.56013,-9.251079 z"
       id="path2121"
       style="font-weight:bold;font-size:37.5px;line-height:1.5;font-family:'Caracteres L1';-inkscape-font-specification:'Caracteres L1 Bold';fill:#000000;fill-rule:evenodd;stroke-width:1.0482;stroke-linecap:round;paint-order:stroke fill markers" /><path
       d="m 558.97818,64.802489 v 11.822957 q -8.32981,8.214653 -14.12613,23.761074 -3.56991,11.17039 -3.30122,20.84372 H 529.9582 Q 529.8815,98.659142 545.12075,76.279972 H 523.58609 V 64.802489 Z"
       id="path2123"
       style="font-weight:bold;font-size:37.5px;line-height:1.5;font-family:'Caracteres L1';-inkscape-font-specification:'Caracteres L1 Bold';fill:#000000;fill-rule:evenodd;stroke-width:1.0482;stroke-linecap:round;paint-order:stroke fill markers" /><path
       style="fill:#000000;fill-rule:evenodd;stroke-width:2.4043;stroke-linecap:round;paint-order:stroke fill markers"
       d="m 290.98504,79.143511 v 42.086729 h 4.16997 2.95043 v -17.24305 c 0,-3.6905 2.34161,-6.660911 5.24787,-6.660911 2.9063,0 5.24445,2.970411 5.24445,6.660911 v 17.24305 h 7.01329 v -20.2142 c 0,-5.961057 -4.56308,-10.761797 -10.22974,-10.761797 -2.85402,0 -5.42459,1.218402 -7.27587,3.188806 V 79.143511 Z"
       id="rect1945-6" /><path
       style="fill:#000000;fill-rule:evenodd;stroke-width:2.4043;stroke-linecap:round;paint-order:stroke fill markers"
       d="m 587.72721,79.143511 v 42.086729 h 4.16996 2.95043 v -17.24305 c 0,-3.6905 2.34164,-6.660911 5.2479,-6.660911 2.9063,0 5.24444,2.970411 5.24444,6.660911 v 17.24305 h 7.0133 v -20.2142 c 0,-5.961057 -4.56308,-10.761797 -10.22974,-10.761797 -2.85402,0 -5.42462,1.218402 -7.2759,3.188806 V 79.143511 Z"
       id="path2157" /></g></svg>
