<?xml version="1.0" encoding="UTF-8" standalone="no"?>
<!-- Generator: Adobe Illustrator 13.0.0, SVG Export Plug-In  -->

<svg
   version="1.1"
   x="0px"
   y="0px"
   width="639.99902"
   height="187.42299"
   viewBox="-0.082 -0.083 639.99902 187.42299"
   enable-background="new -0.082 -0.083 390 198"
   xml:space="preserve"
   id="svg2"
   inkscape:version="1.2.2 (732a01da63, 2022-12-09)"
   sodipodi:docname="France_road_sign_M6b_fin_mois.svg"
   xmlns:inkscape="http://www.inkscape.org/namespaces/inkscape"
   xmlns:sodipodi="http://sodipodi.sourceforge.net/DTD/sodipodi-0.dtd"
   xmlns="http://www.w3.org/2000/svg"
   xmlns:svg="http://www.w3.org/2000/svg"
   xmlns:rdf="http://www.w3.org/1999/02/22-rdf-syntax-ns#"
   xmlns:cc="http://creativecommons.org/ns#"
   xmlns:dc="http://purl.org/dc/elements/1.1/"><metadata
     id="metadata52"><rdf:RDF><cc:Work
         rdf:about=""><dc:format>image/svg+xml</dc:format><dc:type
           rdf:resource="http://purl.org/dc/dcmitype/StillImage" /><dc:title /></cc:Work></rdf:RDF></metadata><sodipodi:namedview
     pagecolor="#ffffff"
     bordercolor="#666666"
     borderopacity="1"
     objecttolerance="10"
     gridtolerance="10"
     guidetolerance="10"
     inkscape:pageopacity="0"
     inkscape:pageshadow="2"
     inkscape:window-width="1920"
     inkscape:window-height="991"
     id="namedview50"
     showgrid="false"
     inkscape:zoom="0.5441416"
     inkscape:cx="-52.376073"
     inkscape:cy="386.84784"
     inkscape:window-x="-9"
     inkscape:window-y="-9"
     inkscape:window-maximized="1"
     inkscape:current-layer="g70600"
     inkscape:showpageshadow="2"
     inkscape:pagecheckerboard="0"
     inkscape:deskcolor="#d1d1d1" /><defs
     id="defs4"><inkscape:perspective
       sodipodi:type="inkscape:persp3d"
       inkscape:vp_x="0 : 98.922989 : 1"
       inkscape:vp_y="0 : 1000 : 0"
       inkscape:vp_z="390 : 98.922989 : 1"
       inkscape:persp3d-origin="195 : 65.922989 : 1"
       id="perspective4308" /></defs><path
     style="opacity:1;fill:#ffffff;fill-opacity:1;fill-rule:evenodd;stroke:#000000;stroke-width:3.99998;stroke-linecap:round;stroke-linejoin:round;stroke-miterlimit:4;stroke-dasharray:none;stroke-dashoffset:0;stroke-opacity:1"
     d="M 32.445095,1.91699 H 607.38993 c 16.91202,0 30.52711,13.615089 30.52711,30.527105 V 154.8129 c 0,16.91201 -13.61509,30.5271 -30.52711,30.5271 H 32.445095 C 15.533079,185.34 1.91799,171.72491 1.91799,154.8129 V 32.444095 C 1.91799,15.532079 15.533079,1.91699 32.445095,1.91699 Z"
     id="rect4365" /><path
     fill-rule="evenodd"
     fill="#1b1918"
     fill-opacity="1"
     stroke-width="0.188935"
     stroke-linecap="butt"
     stroke-linejoin="miter"
     stroke="#1b1918"
     stroke-opacity="1"
     stroke-miterlimit="3.8637"
     d="M 46.439797,26.079306 83.345569,63.366989 H 59.285645 V 161.24715 H 33.58526 V 63.366989 H 9.5253456 Z m 0,0"
     id="path69947" /><path
     fill-rule="evenodd"
     fill="#1b1918"
     fill-opacity="1"
     stroke-width="0.188935"
     stroke-linecap="butt"
     stroke-linejoin="miter"
     stroke="#1b1918"
     stroke-opacity="1"
     stroke-miterlimit="3.8637"
     d="m 593.90732,26.079306 36.90575,37.287683 H 606.75316 V 161.24715 H 581.05278 V 63.366989 h -24.05991 z m 0,0"
     id="path69949" /><g
     id="g70600"
     transform="matrix(1.179113,0,0,1.179113,-20.144415,-431.83408)"><path
       id="path70416"
       d="m 281.48884,408.64225 c -17.91664,0 -26.68749,12.17189 -26.68749,36.73437 0,24.56768 8.08725,36.9629 26.80079,36.9629 18.66664,0 26.53124,-13.90563 26.53124,-36.88476 0,-22.9427 -8.806,-36.81251 -26.64454,-36.81251 z m 0,14.02148 c 9.75,0 12.46876,8.50523 12.46876,22.82813 0,14.36456 -2.71876,22.86328 -12.46876,22.86328 -9.79165,0 -12.47525,-6.64976 -12.40233,-22.86328 0.0781,-16.21353 2.61068,-22.82813 12.40233,-22.82813 z"
       style="stroke-width:1.33333" /><path
       fill-rule="evenodd"
       fill="#1b1918"
       fill-opacity="1"
       stroke-width="0.302347"
       stroke-linecap="butt"
       stroke-linejoin="miter"
       stroke="#1b1918"
       stroke-opacity="1"
       stroke-miterlimit="3.8637"
       d="m 201.39966,460.72558 -13.91145,3.47396 c 4.38541,14.78126 16.10416,18.25522 26.45833,18.25522 13.11457,0 23.81249,-10.69272 23.81249,-23.8073 0,-13.1198 -10.69792,-23.8125 -23.81249,-23.8125 -2.11459,0 -6.08333,0.26562 -8.23959,0.5677 l 1.40104,-13.07812 h 25.43229 v -13.86978 h -38.51041 l -3.63021,33.40624 12.73959,10.05729 c 2.53124,-2.04167 6.46353,-2.60937 8.8802,-2.60937 7.85937,0 11.41666,4.49478 11.41666,9.29688 0,4.76562 -4.5,9.52604 -11.45312,9.52604 -6.3125,0 -9.375,-4.00522 -10.58333,-7.40626 z m 0,0"
       id="path70420" /><path
       fill-rule="evenodd"
       fill="#1b1918"
       fill-opacity="1"
       stroke-width="0.377947"
       stroke-linecap="butt"
       stroke-linejoin="miter"
       stroke="#1b1918"
       stroke-opacity="1"
       stroke-miterlimit="3.8637"
       d="m 367.69653,461.40266 v 21.01563 h -8.61458 v -21.01563 c 0,-10.5052 -12.85417,-10.95833 -12.85417,0 v 21.01563 h -8.65104 v -37.04167 h 8.65104 v 2.64584 c 5.03125,-3.73958 13.15625,-5.25 18.74999,3.70312 4.15626,-9.63541 24.33855,-10.92188 24.33855,9.67708 v 21.01563 h -8.69271 l 0.0729,-21.01563 c 0,-10.58333 -13,-10.58333 -13,0 z m 0,0"
       id="path70422" /></g></svg>
