<?xml version="1.0" encoding="UTF-8" standalone="no"?>
<!-- Generator: Adobe Illustrator 13.0.0, SVG Export Plug-In  -->

<svg
   version="1.1"
   x="0px"
   y="0px"
   width="639.99902"
   height="187.42299"
   viewBox="-0.082 -0.083 639.99902 187.42299"
   enable-background="new -0.082 -0.083 390 198"
   xml:space="preserve"
   id="svg2"
   inkscape:version="1.2.2 (732a01da63, 2022-12-09)"
   sodipodi:docname="France_road_sign_M2_(1500_m).svg"
   xmlns:inkscape="http://www.inkscape.org/namespaces/inkscape"
   xmlns:sodipodi="http://sodipodi.sourceforge.net/DTD/sodipodi-0.dtd"
   xmlns="http://www.w3.org/2000/svg"
   xmlns:svg="http://www.w3.org/2000/svg"
   xmlns:rdf="http://www.w3.org/1999/02/22-rdf-syntax-ns#"
   xmlns:cc="http://creativecommons.org/ns#"
   xmlns:dc="http://purl.org/dc/elements/1.1/"><metadata
     id="metadata52"><rdf:RDF><cc:Work
         rdf:about=""><dc:format>image/svg+xml</dc:format><dc:type
           rdf:resource="http://purl.org/dc/dcmitype/StillImage" /><dc:title /></cc:Work></rdf:RDF></metadata><sodipodi:namedview
     pagecolor="#ffffff"
     bordercolor="#666666"
     borderopacity="1"
     objecttolerance="10"
     gridtolerance="10"
     guidetolerance="10"
     inkscape:pageopacity="0"
     inkscape:pageshadow="2"
     inkscape:window-width="1920"
     inkscape:window-height="991"
     id="namedview50"
     showgrid="false"
     inkscape:zoom="0.54414158"
     inkscape:cx="68.915888"
     inkscape:cy="113.02206"
     inkscape:window-x="-9"
     inkscape:window-y="-9"
     inkscape:window-maximized="1"
     inkscape:current-layer="svg2"
     inkscape:showpageshadow="2"
     inkscape:pagecheckerboard="0"
     inkscape:deskcolor="#d1d1d1" /><defs
     id="defs4"><inkscape:perspective
       sodipodi:type="inkscape:persp3d"
       inkscape:vp_x="0 : 98.922989 : 1"
       inkscape:vp_y="0 : 1000 : 0"
       inkscape:vp_z="390 : 98.922989 : 1"
       inkscape:persp3d-origin="195 : 65.922989 : 1"
       id="perspective4308" /></defs><path
     style="opacity:1;fill:#ffffff;fill-opacity:1;fill-rule:evenodd;stroke:#000000;stroke-width:3.99998;stroke-linecap:round;stroke-linejoin:round;stroke-miterlimit:4;stroke-dasharray:none;stroke-dashoffset:0;stroke-opacity:1"
     d="M 32.445095,1.91699 H 607.38993 c 16.91202,0 30.52711,13.615089 30.52711,30.527105 V 154.8129 c 0,16.91201 -13.61509,30.5271 -30.52711,30.5271 H 32.445095 C 15.533079,185.34 1.91799,171.72491 1.91799,154.8129 V 32.444095 C 1.91799,15.532079 15.533079,1.91699 32.445095,1.91699 Z"
     id="rect4365" /><g
     id="g679"
     transform="matrix(3.2212751,0,0,3.2212751,-0.48611352,1.7277713)"
     style="fill:#000000"><path
       fill-rule="evenodd"
       fill="#000000"
       fill-opacity="1"
       d="M 20.121094,32.792969 H 70.269531 L 52.4375,50.539063 64.429688,50.597656 86.480469,28.457031 64.429688,6.433594 H 52.464844 L 70.269531,24.261719 H 20.121094 Z m 0,0"
       id="path664"
       style="fill:#000000" /><path
       fill-rule="evenodd"
       fill="#000000"
       fill-opacity="1"
       d="m 170.67187,34.75 v 8.023438 h -3.28906 V 34.75 c 0,-4.023437 -4.90234,-4.195312 -4.90234,0 v 8.023438 h -3.375 V 28.597656 h 3.375 v 1.023438 c 1.89844,-1.476563 5.01562,-2.042969 7.16797,1.414062 1.58984,-3.710937 9.30078,-4.222656 9.30078,3.714844 v 8.023438 h -3.31641 L 175.66016,34.75 c 0,-4.054687 -4.98829,-4.054687 -4.98829,0 z m 0,0 z M 143.14453,14.226563 c -8.8125,0 -8.8125,8.988281 -8.8125,14.089843 0,5.101563 -0.0586,14.425782 8.8125,14.425782 8.875,0 8.875,-9.324219 8.90234,-14.398438 0.0273,-5.046875 -0.0547,-14.117187 -8.90234,-14.117187 z m 0,0 z m 0,4.421875 c -4.33594,0 -4.33594,4.421875 -4.33594,9.636718 0,5.246094 -0.11328,9.953125 4.33594,9.953125 4.45313,0 4.45313,-4.734375 4.45313,-9.953125 0,-5.183593 -0.11329,-9.636718 -4.45313,-9.636718 z m 0,0 z m -31.66015,11.707031 -3.88282,-3.117188 1.44532,-12.925781 h 14.625 v 4.507813 h -10.51563 l -0.71094,6.292968 c 6.29297,-1.84375 12.92578,1.585938 13.29688,8.644532 -0.28516,10.96875 -17.26172,12.417968 -19.25,1.757812 l 4.36719,-0.9375 c 1.33203,5.871094 10.46093,4.199219 10.40234,-0.734375 -0.082,-3.882812 -4.81641,-6.378906 -9.77734,-3.488281 z m 0,0"
       id="path666"
       style="fill:#000000" /></g></svg>
