<?xml version="1.0" encoding="UTF-8" standalone="no"?>
<!-- Created with Inkscape (http://www.inkscape.org/) -->

<svg
   xmlns:dc="http://purl.org/dc/elements/1.1/"
   xmlns:cc="http://creativecommons.org/ns#"
   xmlns:rdf="http://www.w3.org/1999/02/22-rdf-syntax-ns#"
   xmlns:svg="http://www.w3.org/2000/svg"
   xmlns="http://www.w3.org/2000/svg"
   xmlns:sodipodi="http://sodipodi.sourceforge.net/DTD/sodipodi-0.dtd"
   xmlns:inkscape="http://www.inkscape.org/namespaces/inkscape"
   width="739"
   height="300"
   id="svg3864"
   version="1.1"
   inkscape:version="0.48.4 r9939"
   sodipodi:docname="M4a.svg">
  <defs
     id="defs3866" />
  <sodipodi:namedview
     id="base"
     pagecolor="#ffffff"
     bordercolor="#666666"
     borderopacity="1.0"
     inkscape:pageopacity="0.0"
     inkscape:pageshadow="2"
     inkscape:zoom="0.7"
     inkscape:cx="332.67996"
     inkscape:cy="132.55201"
     inkscape:document-units="px"
     inkscape:current-layer="layer1"
     showgrid="false"
     inkscape:snap-bbox="true"
     inkscape:bbox-paths="true"
     inkscape:bbox-nodes="true"
     inkscape:snap-bbox-edge-midpoints="true"
     inkscape:snap-bbox-midpoints="true"
     inkscape:object-paths="true"
     inkscape:snap-intersection-paths="true"
     inkscape:object-nodes="true"
     inkscape:snap-smooth-nodes="true"
     inkscape:snap-midpoints="true"
     inkscape:snap-object-midpoints="true"
     inkscape:snap-center="true"
     inkscape:snap-page="true"
     showguides="true"
     inkscape:guide-bbox="true"
     inkscape:window-width="1366"
     inkscape:window-height="745"
     inkscape:window-x="-8"
     inkscape:window-y="-8"
     inkscape:window-maximized="1" />
  <metadata
     id="metadata3869">
    <rdf:RDF>
      <cc:Work
         rdf:about="">
        <dc:format>image/svg+xml</dc:format>
        <dc:type
           rdf:resource="http://purl.org/dc/dcmitype/StillImage" />
        <dc:title />
      </cc:Work>
    </rdf:RDF>
  </metadata>
  <g
     inkscape:label="Calque 1"
     inkscape:groupmode="layer"
     id="layer1"
     transform="translate(0,-752.36218)">
    <rect
       style="fill:#ffffff;stroke:#000000;stroke-width:1.26068841999999990;stroke-opacity:1"
       id="rect2995"
       width="737.51678"
       height="298.73932"
       x="0.63034427"
       y="752.99255"
       ry="53.165306" />
    <g
       id="g2997">
      <path
         sodipodi:nodetypes="ccccccccccccc"
         inkscape:connector-curvature="0"
         id="path3805"
         d="m 117.77367,953.22223 c -5.15811,-0.32025 -10.06219,-1.08759 -10.58836,-9.56006 l 0,-29.85149 c 0.53272,-8.53723 6.95609,-13.44232 14.0008,-13.97577 l 122.69341,-11.06439 80.17858,-80.17858 200.07085,0 76.34743,76.34744 20.70822,0 c 7.09313,0.25401 9.58524,2.5844 10.57946,10.57947 l 0,57.75511 -486.34243,0 z"
         style="fill:#000000;stroke:#000000;stroke-width:1.26068842px;stroke-linecap:butt;stroke-linejoin:miter;stroke-opacity:1" />
      <path
         sodipodi:nodetypes="cccccc"
         inkscape:connector-curvature="0"
         id="path3817"
         d="m 412.68588,884.31495 -122.9407,0 c -6.72863,-0.28913 -8.14501,-4.1394 -5.65759,-8.45926 l 49.06428,-49.06428 79.53401,0 z"
         style="fill:#ffffff;stroke:none" />
      <path
         sodipodi:nodetypes="cccccc"
         inkscape:connector-curvature="0"
         id="path3817-7"
         d="m 428.55051,884.31495 107.91286,0 c 5.90615,-0.28913 7.1494,-10.08864 4.96602,-14.4085 l -43.06683,-43.11504 -69.81205,0 z"
         style="fill:#ffffff;stroke:none" />
      <g
         transform="matrix(1.2606884,0,0,1.2606884,-9.4267,524.78681)"
         id="g3795">
        <path
           sodipodi:type="arc"
           style="fill:#000000;stroke:#ffffff;stroke-width:2.53846169;stroke-linecap:butt;stroke-linejoin:miter;stroke-miterlimit:4;stroke-opacity:1;stroke-dasharray:none;stroke-dashoffset:0"
           id="path3775"
           sodipodi:cx="156.83263"
           sodipodi:cy="371.66315"
           sodipodi:rx="29.713984"
           sodipodi:ry="29.713984"
           d="m 186.54661,371.66315 c 0,16.41058 -13.3034,29.71398 -29.71398,29.71398 -16.41058,0 -29.71399,-13.3034 -29.71399,-29.71398 0,-16.41058 13.30341,-29.71399 29.71399,-29.71399 16.41058,0 29.71398,13.30341 29.71398,29.71399 z"
           transform="matrix(1.1818181,0,0,1.1818181,-24.860346,-98.719168)" />
        <path
           sodipodi:type="arc"
           style="fill:#000000;stroke:#ffffff;stroke-width:2.53846169;stroke-linecap:butt;stroke-linejoin:miter;stroke-miterlimit:4;stroke-opacity:1;stroke-dasharray:none;stroke-dashoffset:0"
           id="path3775-1"
           sodipodi:cx="156.83263"
           sodipodi:cy="371.66315"
           sodipodi:rx="29.713984"
           sodipodi:ry="29.713984"
           d="m 186.54661,371.66315 c 0,16.41058 -13.3034,29.71398 -29.71398,29.71398 -16.41058,0 -29.71399,-13.3034 -29.71399,-29.71398 0,-16.41058 13.30341,-29.71399 29.71399,-29.71399 16.41058,0 29.71398,13.30341 29.71398,29.71399 z"
           transform="matrix(1.1818181,0,0,1.1818181,261.38805,-97.289084)" />
      </g>
    </g>
  </g>
</svg>
