<?xml version="1.0" encoding="UTF-8" standalone="no"?>
<!-- Created with Inkscape (http://www.inkscape.org/) -->

<svg
   xmlns:dc="http://purl.org/dc/elements/1.1/"
   xmlns:cc="http://creativecommons.org/ns#"
   xmlns:rdf="http://www.w3.org/1999/02/22-rdf-syntax-ns#"
   xmlns:svg="http://www.w3.org/2000/svg"
   xmlns="http://www.w3.org/2000/svg"
   xmlns:sodipodi="http://sodipodi.sourceforge.net/DTD/sodipodi-0.dtd"
   xmlns:inkscape="http://www.inkscape.org/namespaces/inkscape"
   width="739"
   height="300"
   id="svg3864"
   version="1.1"
   inkscape:version="0.48.4 r9939"
   sodipodi:docname="M4a.svg">
  <defs
     id="defs3866" />
  <sodipodi:namedview
     id="base"
     pagecolor="#ffffff"
     bordercolor="#666666"
     borderopacity="1.0"
     inkscape:pageopacity="0.0"
     inkscape:pageshadow="2"
     inkscape:zoom="0.49497475"
     inkscape:cx="662.92455"
     inkscape:cy="378.61816"
     inkscape:document-units="px"
     inkscape:current-layer="layer1"
     showgrid="false"
     inkscape:snap-bbox="true"
     inkscape:bbox-paths="true"
     inkscape:bbox-nodes="true"
     inkscape:snap-bbox-edge-midpoints="true"
     inkscape:snap-bbox-midpoints="true"
     inkscape:object-paths="true"
     inkscape:snap-intersection-paths="true"
     inkscape:object-nodes="true"
     inkscape:snap-smooth-nodes="true"
     inkscape:snap-midpoints="true"
     inkscape:snap-object-midpoints="true"
     inkscape:snap-center="true"
     inkscape:snap-page="true"
     showguides="true"
     inkscape:guide-bbox="true"
     inkscape:window-width="1366"
     inkscape:window-height="745"
     inkscape:window-x="-8"
     inkscape:window-y="-8"
     inkscape:window-maximized="1" />
  <metadata
     id="metadata3869">
    <rdf:RDF>
      <cc:Work
         rdf:about="">
        <dc:format>image/svg+xml</dc:format>
        <dc:type
           rdf:resource="http://purl.org/dc/dcmitype/StillImage" />
        <dc:title></dc:title>
      </cc:Work>
    </rdf:RDF>
  </metadata>
  <g
     inkscape:label="Calque 1"
     inkscape:groupmode="layer"
     id="layer1"
     transform="translate(0,-752.36218)">
    <rect
       style="fill:#ffffff;stroke:#000000;stroke-width:1.26180434000000010;stroke-opacity:1"
       id="rect2995-1"
       width="738.5"
       height="298.86996"
       x="0.5000003"
       y="752.9928"
       ry="53.188557" />
    <path
       style="fill:#000000;stroke:none"
       d="m 65.006101,994.17227 c -13.360978,-1.705 -27.614236,-6.09796 -26.665427,-26.64158 l 0,-52.43286 c 2.117675,-15.55105 12.575772,-17.836 19.573551,-20.40632 l 18.004892,-67.13505 c 0.503673,-1.75637 -1.051869,-2.91108 -4.993629,-2.8805 l -5.919387,0 0,-39.10151 609.356929,0 c 16.27003,1.27046 15.11737,11.16552 15.29477,15.2811 l 0,193.31672 z"
       id="path3058"
       inkscape:connector-curvature="0"
       sodipodi:nodetypes="cccccccccccc" />
    <rect
       style="fill:#ffffff;fill-opacity:1;fill-rule:nonzero;stroke:none"
       id="rect3838"
       width="124.95871"
       height="70.855232"
       x="137.76866"
       y="823.8363"
       ry="6.1679206" />
    <rect
       style="fill:#ffffff;fill-opacity:1;fill-rule:nonzero;stroke:none"
       id="rect3838-4"
       width="124.95871"
       height="70.855232"
       x="275.42181"
       y="823.8363"
       ry="6.1679206" />
    <rect
       style="fill:#ffffff;fill-opacity:1;fill-rule:nonzero;stroke:none"
       id="rect3838-0"
       width="124.95871"
       height="70.855232"
       x="411.58569"
       y="823.8363"
       ry="6.1679206" />
    <rect
       style="fill:#ffffff;fill-opacity:1;fill-rule:nonzero;stroke:none"
       id="rect3838-9"
       width="124.95871"
       height="70.855232"
       x="548.0332"
       y="823.8363"
       ry="6.1679206" />
    <path
       style="fill:#ffffff;stroke:none"
       d="m 86.58393,823.54872 33.267,0 c 3.86906,-0.18291 5.41985,1.55363 5.2863,5.384 l 0,58.58648 c -0.0773,4.91784 -3.24827,6.66062 -6.74699,6.87169 l -45.49008,0 c -4.581395,-0.10657 -6.502362,-0.60194 -6.051431,-6.16327 6.701842,-21.63965 17.089221,-63.46302 19.735201,-64.6789 z"
       id="path3879"
       inkscape:connector-curvature="0"
       sodipodi:nodetypes="cccccccc" />
    <g
       id="g3044"
       transform="matrix(1.2623691,0,0,1.2612398,-13.855469,526.51775)">
      <path
         transform="matrix(1.4211617,0,0,1.4211617,-58.328645,-166.65405)"
         d="m 186.54661,371.66315 c 0,16.41058 -13.3034,29.71398 -29.71398,29.71398 -16.41058,0 -29.71399,-13.3034 -29.71399,-29.71398 0,-16.41058 13.30341,-29.71399 29.71399,-29.71399 16.41058,0 29.71398,13.30341 29.71398,29.71399 z"
         sodipodi:ry="29.713984"
         sodipodi:rx="29.713984"
         sodipodi:cy="371.66315"
         sodipodi:cx="156.83263"
         id="path3775-7"
         style="fill:#000000;stroke:#ffffff;stroke-width:2.53846169;stroke-linecap:butt;stroke-linejoin:miter;stroke-miterlimit:4;stroke-opacity:1;stroke-dasharray:none;stroke-dashoffset:0"
         sodipodi:type="arc" />
      <path
         transform="matrix(1.4211617,0,0,1.4211617,204.52558,-168.45783)"
         d="m 186.54661,371.66315 c 0,16.41058 -13.3034,29.71398 -29.71398,29.71398 -16.41058,0 -29.71399,-13.3034 -29.71399,-29.71398 0,-16.41058 13.30341,-29.71399 29.71399,-29.71399 16.41058,0 29.71398,13.30341 29.71398,29.71399 z"
         sodipodi:ry="29.713984"
         sodipodi:rx="29.713984"
         sodipodi:cy="371.66315"
         sodipodi:cx="156.83263"
         id="path3775-1-4"
         style="fill:#000000;stroke:#ffffff;stroke-width:2.53846169;stroke-linecap:butt;stroke-linejoin:miter;stroke-miterlimit:4;stroke-opacity:1;stroke-dasharray:none;stroke-dashoffset:0"
         sodipodi:type="arc" />
    </g>
  </g>
</svg>
