<?xml version="1.0" encoding="UTF-8" standalone="no"?>
<!-- Created with Inkscape (http://www.inkscape.org/) -->

<svg
   xmlns:dc="http://purl.org/dc/elements/1.1/"
   xmlns:cc="http://creativecommons.org/ns#"
   xmlns:rdf="http://www.w3.org/1999/02/22-rdf-syntax-ns#"
   xmlns:svg="http://www.w3.org/2000/svg"
   xmlns="http://www.w3.org/2000/svg"
   xmlns:sodipodi="http://sodipodi.sourceforge.net/DTD/sodipodi-0.dtd"
   xmlns:inkscape="http://www.inkscape.org/namespaces/inkscape"
   width="430"
   height="175"
   id="svg3864"
   version="1.1"
   inkscape:version="0.91 r13725"
   sodipodi:docname="France_road_sign_M4c.svg">
  <defs
     id="defs3866" />
  <sodipodi:namedview
     id="base"
     pagecolor="#ffffff"
     bordercolor="#666666"
     borderopacity="1.0"
     inkscape:pageopacity="0.0"
     inkscape:pageshadow="2"
     inkscape:zoom="0.68294834"
     inkscape:cx="-152.76731"
     inkscape:cy="57.852457"
     inkscape:document-units="px"
     inkscape:current-layer="layer1"
     showgrid="false"
     inkscape:snap-bbox="true"
     inkscape:bbox-paths="true"
     inkscape:bbox-nodes="true"
     inkscape:snap-bbox-edge-midpoints="true"
     inkscape:snap-bbox-midpoints="true"
     inkscape:object-paths="true"
     inkscape:snap-intersection-paths="true"
     inkscape:object-nodes="true"
     inkscape:snap-smooth-nodes="true"
     inkscape:snap-midpoints="true"
     inkscape:snap-object-midpoints="true"
     inkscape:snap-center="true"
     inkscape:snap-page="true"
     showguides="true"
     inkscape:guide-bbox="true"
     inkscape:window-width="1440"
     inkscape:window-height="788"
     inkscape:window-x="0"
     inkscape:window-y="1"
     inkscape:window-maximized="1" />
  <metadata
     id="metadata3869">
    <rdf:RDF>
      <cc:Work
         rdf:about="">
        <dc:format>image/svg+xml</dc:format>
        <dc:type
           rdf:resource="http://purl.org/dc/dcmitype/StillImage" />
        <dc:title></dc:title>
      </cc:Work>
    </rdf:RDF>
  </metadata>
  <g
     inkscape:label="Calque 1"
     inkscape:groupmode="layer"
     id="layer1"
     transform="translate(0,-877.36219)">
    <rect
       style="fill:#ffffff;stroke:#000000;stroke-width:1.52710259;stroke-miterlimit:4;stroke-dasharray:none;stroke-opacity:1"
       id="rect2995"
       width="428.47272"
       height="173.4729"
       x="0.76364237"
       y="878.12573"
       ry="30.872194" />
    <g
       id="g4356"
       transform="matrix(0.70621469,0,0,0.70621469,276.36309,364.04201)">
      <path
         id="path4296"
         d="m -205.64013,832.76137 c -29.961,0 -54.25,23.617 -54.25,52.75 0,29.133 24.289,52.75 54.25,52.75 29.961,0 54.25,-23.617 54.25,-52.75 0,-29.133 -24.289,-52.75 -54.25,-52.75 z m 0,89 c -20.297,0 -36.75,-16.175 -36.75,-36.13 0,-19.954 16.453,-36.13 36.75,-36.13 20.297,0 36.75,16.176 36.75,36.13 0,19.955 -16.453,36.13 -36.75,36.13 z"
         inkscape:connector-curvature="0"
         style="stroke:#000000" />
      <path
         id="path4298"
         d="m 24.35987,833.76137 c -29.961,0 -54.25,23.617 -54.25,52.75 0,29.133 24.289,52.75 54.25,52.75 29.961,0 54.25,-23.617 54.25,-52.75 0,-29.133 -24.289,-52.75 -54.25,-52.75 z m 0,89 c -20.297,0 -36.75,-16.175 -36.75,-36.13 0,-19.954 16.453,-36.13 36.75,-36.13 20.297,0 36.75,16.176 36.75,36.13 0,19.955 -16.453,36.13 -36.75,36.13 z"
         inkscape:connector-curvature="0" />
      <ellipse
         id="ellipse4300"
         ry="18"
         rx="18.75"
         cy="885.26135"
         cx="-205.14014"
         style="stroke:#ff0000;stroke-width:0.17640001;stroke-linecap:round;stroke-linejoin:round" />
      <ellipse
         id="ellipse4302"
         ry="18"
         rx="18.75"
         cy="885.76135"
         cx="23.609863"
         style="stroke:#ff0000;stroke-width:0.17640001;stroke-linecap:round;stroke-linejoin:round" />
      <polygon
         transform="translate(-374.35913,563.79237)"
         id="polygon4304"
         points="217.469,234.969 167.469,311.969 177.969,318.469 234.969,242.469 " />
      <path
         id="path4306"
         d="m -108.70513,893.75737 c 3.17,1.29 19.07,0.916 22.788,-0.996 l 60.027,0 59.5,-91 -129.5,0 0,43.116 c -0.823,-0.074 -1.656,-0.116 -2.5,-0.116 -14.636,0 -26.5,11.417 -26.5,25.5 0,10.562 6.674,19.625 16.185,23.496"
         inkscape:connector-curvature="0"
         style="opacity:0.98999999" />
      <rect
         id="rect4308"
         height="13.5"
         width="104"
         y="880.76135"
         x="-17.390137" />
      <polygon
         transform="translate(-374.35913,563.79237)"
         id="polygon4310"
         points="389.969,274.969 375.969,281.969 389.469,310.469 401.469,307.469 " />
      <polygon
         transform="translate(-374.35913,563.79237)"
         id="polygon4312"
         points="192.469,225.969 194.469,219.469 198.469,215.969 209.969,216.469 217.969,220.469 224.469,225.969 227.969,221.469 232.969,209.469 236.969,204.469 240.969,202.969 246.969,201.469 253.469,200.469 264.469,198.469 267.969,200.969 269.469,204.969 242.969,211.969 238.469,219.469 249.969,224.469 276.969,226.469 286.469,227.469 294.969,230.469 303.969,235.969 309.969,244.969 265.469,290.969 255.969,287.469 255.469,279.969 249.469,278.969 241.969,278.469 234.469,275.469 228.969,270.469 221.969,258.469 217.469,251.969 212.469,249.469 198.469,249.969 193.969,244.469 191.969,237.969 191.969,231.469 " />
      <polygon
         transform="translate(-374.35913,563.79237)"
         id="polygon4314"
         points="407.219,237.969 412.719,262.969 423.219,266.469 430.219,270.469 436.719,274.969 443.719,281.969 448.219,287.969 452.719,298.469 453.719,303.969 439.219,305.969 402.719,277.969 378.719,279.469 367.219,248.469 399.219,239.469 " />
      <rect
         id="rect4316"
         height="15"
         width="19.5"
         y="836.26135"
         x="-101.89014" />
      <rect
         id="rect4318"
         height="12.75"
         width="95"
         y="881.26135"
         x="-105.64014" />
    </g>
  </g>
</svg>
