<?xml version="1.0" encoding="UTF-8" standalone="no"?>
<!-- Generator: Adobe Illustrator 17.0.0, SVG Export Plug-In . SVG Version: 6.00 Build 0)  -->

<svg
   xmlns:dc="http://purl.org/dc/elements/1.1/"
   xmlns:cc="http://creativecommons.org/ns#"
   xmlns:rdf="http://www.w3.org/1999/02/22-rdf-syntax-ns#"
   xmlns:svg="http://www.w3.org/2000/svg"
   xmlns="http://www.w3.org/2000/svg"
   xmlns:sodipodi="http://sodipodi.sourceforge.net/DTD/sodipodi-0.dtd"
   xmlns:inkscape="http://www.inkscape.org/namespaces/inkscape"
   version="1.1"
   id="Layer_1"
   x="0px"
   y="0px"
   width="625.258px"
   height="255.258px"
   viewBox="0 0 625.258 255.258"
   enable-background="new 0 0 625.258 255.258"
   xml:space="preserve"
   inkscape:version="0.91 r13725"
   sodipodi:docname="France_road_sign_M4d1.svg"><metadata
     id="metadata23"><rdf:RDF><cc:Work
         rdf:about=""><dc:format>image/svg+xml</dc:format><dc:type
           rdf:resource="http://purl.org/dc/dcmitype/StillImage" /></cc:Work></rdf:RDF></metadata><defs
     id="defs21" /><sodipodi:namedview
     pagecolor="#ffffff"
     bordercolor="#666666"
     borderopacity="1"
     objecttolerance="10"
     gridtolerance="10"
     guidetolerance="10"
     inkscape:pageopacity="0"
     inkscape:pageshadow="2"
     inkscape:window-width="1440"
     inkscape:window-height="788"
     id="namedview19"
     showgrid="false"
     inkscape:zoom="1.1637621"
     inkscape:cx="312.629"
     inkscape:cy="127.629"
     inkscape:window-x="0"
     inkscape:window-y="1"
     inkscape:window-maximized="1"
     inkscape:current-layer="Layer_1" /><path
     fill="#FFFFFF"
     stroke="#010101"
     stroke-width="5.2576"
     d="M622.629,195.642c0,31.473-21.211,56.986-47.376,56.986H50.005  c-26.165,0-47.376-25.514-47.376-56.986V59.615c0-31.473,21.211-56.986,47.376-56.986h525.247c26.165,0,47.376,25.514,47.376,56.986  V195.642z"
     id="path3" /><path
     id="circle4300"
     d="m 249.58993,36.411331 c -15.64525,-0.52935 -20.24425,20.11765 -8.35863,24.18396 l 11.49994,4.28748 -14.75455,43.196639 a 56.963921,56.955603 0 0 0 -23.00441,-4.92653 56.963921,56.955603 0 0 0 -56.96478,56.95647 56.963921,56.955603 0 0 0 56.96478,56.95651 56.963921,56.955603 0 0 0 56.9648,-56.95651 56.963921,56.955603 0 0 0 -25.25272,-47.26203 l 4.4241,-12.80354 54.13627,60.08825 a 18.566707,18.563996 0 0 0 -1.78142,7.88154 18.566707,18.563996 0 0 0 18.53498,18.56399 l 2.19846,12.7537 -4.97712,0.85659 1.38707,8.08095 17.75078,-3.05473 -1.3916,-8.08095 -4.3833,0.75233 -2.28004,-13.26126 a 18.566707,18.563996 0 0 0 9.86358,-12.69479 l 13.85703,-0.96083 a 56.963921,56.955603 0 0 0 55.89957,46.09729 56.963921,56.955603 0 0 0 56.96478,-56.95651 56.963921,56.955603 0 0 0 -56.96478,-56.95647 56.963921,56.955603 0 0 0 -25.76497,6.22276 l -21.72157,-31.508039 5.00883,-14.78865 c 6.92084,-1.6773 13.12195,-3.24969 15.75634,-6.48108 3.71011,-4.55095 -1.19577,-10.91492 -8.83461,-10.73232 l -30.22529,0 c -6.64862,-0.0926 -9.18502,6.84375 -5.05869,9.23668 l 18.14514,7.41019 -3.44502,10.17938 -93.22334,0 2.40697,-6.9615 -0.0142,-0.005 2.02618,-6.6669 c -6.79576,-3.06719 -21.22443,-4.76424 -19.3101,-10.17485 0.57094,-5.98674 21.78729,-2.44629 28.9878,-3.89771 l 0,-8.57497 -25.06685,0 z m 7.62886,45.95224 93.60869,0 -23.02254,68.019649 a 18.566707,18.563996 0 0 0 -3.53566,-0.78409 l -2.10326,-12.237 4.31529,-0.74328 -1.3916,-8.08096 -17.74624,3.0547 1.39161,8.07644 5.04054,-0.86566 2.0217,11.73849 a 18.566707,18.563996 0 0 0 -2.49762,1.10583 l -57.83513,-64.203489 1.75422,-5.08063 z m 101.58656,9.2412 16.23679,23.558529 a 56.963921,56.955603 0 0 0 -22.08421,44.94605 56.963921,56.955603 0 0 0 0.005,0.12689 l -13.67584,0.94724 a 18.566707,18.563996 0 0 0 -2.52936,-4.45063 l 22.0482,-65.128109 z M 214.97228,111.9454 a 48.168207,48.161175 0 0 1 20.15324,4.47785 l -10.13556,29.67701 c -0.60817,2.18022 -2.77887,3.56617 -4.84112,4.98544 a 10.443773,10.442248 0 0 0 -5.63438,-1.66332 10.443773,10.442248 0 0 0 -10.44377,10.44225 10.443773,10.442248 0 0 0 10.44377,10.44226 10.443773,10.442248 0 0 0 10.44378,-10.44226 10.443773,10.442248 0 0 0 -0.0952,-1.27809 c 3.94796,-2.50557 7.60679,-5.48983 8.50369,-7.20624 l 10.32136,-29.87189 a 48.168207,48.161175 0 0 1 19.45518,38.60094 48.168207,48.161175 0 0 1 -48.17101,48.15945 48.168207,48.161175 0 0 1 -48.16647,-48.15945 48.168207,48.161175 0 0 1 48.16647,-48.16395 z m 194.95044,0 a 48.168207,48.161175 0 0 1 48.171,48.16395 48.168207,48.161175 0 0 1 -48.171,48.15945 48.168207,48.161175 0 0 1 -47.00153,-37.91658 l 39.81688,-2.76016 a 10.443773,10.442248 0 0 0 7.47927,3.15444 10.443773,10.442248 0 0 0 10.44378,-10.44225 10.443773,10.442248 0 0 0 -8.4629,-10.24736 l -23.00441,-33.37532 a 48.168207,48.161175 0 0 1 20.72891,-4.73617 z m -29.91707,10.41506 21.85306,31.70293 a 10.443773,10.442248 0 0 0 -1.52305,2.88702 l -38.55673,2.674 a 48.168207,48.161175 0 0 1 18.22672,-37.26395 z"
     style="fill:#000000;stroke:none;stroke-width:2.16587019"
     inkscape:connector-curvature="0" /></svg>