<?xml version="1.0" encoding="UTF-8" standalone="no"?>
<!-- Generator: Adobe Illustrator 13.0.0, SVG Export Plug-In  -->

<svg
   version="1.1"
   x="0px"
   y="0px"
   width="640"
   height="187.5"
   viewBox="-0.082 -0.083 640 187.5"
   enable-background="new -0.082 -0.083 390 198"
   xml:space="preserve"
   id="svg2"
   inkscape:version="1.2.2 (732a01da63, 2022-12-09)"
   sodipodi:docname="France_road_sign_M6b_debut_mois.svg"
   xmlns:inkscape="http://www.inkscape.org/namespaces/inkscape"
   xmlns:sodipodi="http://sodipodi.sourceforge.net/DTD/sodipodi-0.dtd"
   xmlns="http://www.w3.org/2000/svg"
   xmlns:svg="http://www.w3.org/2000/svg"
   xmlns:rdf="http://www.w3.org/1999/02/22-rdf-syntax-ns#"
   xmlns:cc="http://creativecommons.org/ns#"
   xmlns:dc="http://purl.org/dc/elements/1.1/"><metadata
     id="metadata52"><rdf:RDF><cc:Work
         rdf:about=""><dc:format>image/svg+xml</dc:format><dc:type
           rdf:resource="http://purl.org/dc/dcmitype/StillImage" /><dc:title /></cc:Work></rdf:RDF></metadata><sodipodi:namedview
     pagecolor="#ffffff"
     bordercolor="#666666"
     borderopacity="1"
     objecttolerance="10"
     gridtolerance="10"
     guidetolerance="10"
     inkscape:pageopacity="0"
     inkscape:pageshadow="2"
     inkscape:window-width="1920"
     inkscape:window-height="991"
     id="namedview50"
     showgrid="false"
     inkscape:zoom="0.46357641"
     inkscape:cx="199.53561"
     inkscape:cy="441.13548"
     inkscape:window-x="-9"
     inkscape:window-y="-9"
     inkscape:window-maximized="1"
     inkscape:current-layer="svg2"
     inkscape:showpageshadow="2"
     inkscape:pagecheckerboard="0"
     inkscape:deskcolor="#d1d1d1" /><defs
     id="defs4"><inkscape:perspective
       sodipodi:type="inkscape:persp3d"
       inkscape:vp_x="0 : 99 : 1"
       inkscape:vp_y="0 : 1000 : 0"
       inkscape:vp_z="390 : 99 : 1"
       inkscape:persp3d-origin="195 : 66 : 1"
       id="perspective4308" /></defs><path
     style="opacity:1;fill:#ffffff;fill-opacity:1;fill-rule:evenodd;stroke:#000000;stroke-width:3.99999022;stroke-linecap:round;stroke-linejoin:round;stroke-miterlimit:4;stroke-dasharray:none;stroke-dashoffset:0;stroke-opacity:1"
     d="m 32.445297,1.9938585 574.945693,0 c 16.91205,0 30.52716,13.6151095 30.52716,30.5271515 l 0,122.36899 c 0,16.91204 -13.61511,30.52715 -30.52716,30.52715 l -574.945693,0 c -16.912042,0 -30.5271512,-13.61511 -30.5271512,-30.52715 l 0,-122.36899 c 0,-16.912042 13.6151092,-30.5271515 30.5271512,-30.5271515 z"
     id="rect4365" /><g
     id="g67287"
     transform="translate(472.80508,-284.46374)"
     style="fill:#000000"><path
       fill-rule="evenodd"
       fill="#000000"
       fill-opacity="1"
       d="m -63.356755,440.87059 v -45.79164 h 15.083342 l 3.287476,0.36529 3.155214,1.05174 2.834031,1.64373 2.556921,2.19795 1.964928,2.69548 1.328848,2.96628 0.774641,3.1993 v 3.29378 l -0.592006,3.24338 -1.328847,3.06076 -1.826367,2.70178 -2.424673,2.3239 -0.774629,0.5983 7.494428,16.44997 h -9.78054 l -6.537176,-13.7545 h -6.486777 v 13.7545 z m 0,0 z m 8.728814,-22.48331 h 6.354528 l 2.235738,-0.36527 1.920828,-0.95728 1.643744,-1.55557 1.146212,-1.92084 0.409358,-2.28611 -0.226722,-2.0531 -0.963565,-2.10348 -1.505195,-1.7382 -1.876754,-1.05174 -2.191638,-0.50383 h -6.946534 z m 0,0 z m -196.240869,22.48331 v -45.79164 h 15.03296 l 3.33785,0.36529 3.10484,1.05174 2.88442,1.64373 2.55692,2.19795 1.96492,2.69548 1.32256,2.96628 0.78092,3.1993 v 3.29378 l -0.59828,3.24338 -1.32255,3.06076 -1.83268,2.70178 -2.41837,2.3239 -0.77463,0.5983 7.49444,16.44997 h -9.78056 l -6.53717,-13.7545 h -6.53716 v 13.7545 z m 0,0 z m 8.67843,-22.38884 h 6.35453 l 2.28612,-0.32119 1.92084,-0.96357 1.64373,-1.59965 1.13992,-1.92085 0.41565,-2.23573 -0.23302,-2.10348 -0.95727,-2.0531 -1.50518,-1.78229 -1.92085,-1.00765 -2.14756,-0.54792 h -6.99691 z m 0,0 z m 225.632912,-15.08334 1.643735,-2.69548 2.242041,-2.3365 2.645087,-1.68782 3.0166779,-1.184 3.0670457,-0.5542 3.10483515,0.18263 3.15521835,0.8691 2.7836607,1.51149 2.5191379,1.96492 1.9145448,2.60101 0.6864635,1.32885 -0.08819,-0.18264 1.782292,4.33922 0.957272,4.47776 0.321193,4.52816 0.08819,3.56457 h -0.08819 l -0.321193,4.61633 -1.051733,4.52185 -1.687831,4.15658 0.08819,-0.17634 -1.6437353,2.73957 -2.242042,2.3302 -0.9572717,0.77463 3.3819492,5.76253 H -1.3418731 l -1.8263721,-3.15523 -3.1552183,-0.32118 -3.0166625,-0.95728 -2.695486,-1.69411 -2.374294,-2.14757 -1.826371,-2.60731 -0.321191,-0.72425 v 0.17634 l -1.599641,-4.24474 -1.051751,-4.52815 -0.321192,-4.52187 -0.09447,-3.56457 h 0.09447 l 0.321192,-4.61632 1.051751,-4.43369 1.599641,-4.29513 z m 0,0 z m 7.9982672,3.60866 -1.4170213,3.65906 -0.6864639,3.83538 -0.09447,2.0594 -0.08819,3.56457 h 0.08819 l 0.365271,4.01803 1.0517499,3.65905 0.7809252,2.00902 -0.094474,-0.18264 1.2343701,1.55556 1.5555784,1.23438 2.0090064,0.592 2.0593895,-0.0881 1.82638779,-0.78093 1.68781381,-1.27846 0.7809409,-1.23438 v 0.18264 l 1.3666225,-3.74722 0.7368455,-3.83539 0.044172,-2.10348 v -3.56459 L 4.3262474,412.67516 3.274497,408.92794 2.4998765,407.00709 v 0.18264 l -1.146212,-1.68782 -1.73190916,-1.19029 -1.92084944,-0.64239 -2.103468,0.0944 -1.8263878,0.77464 -1.5555614,1.32885 -0.8690991,1.32255 z m 0,0 z m -97.6228992,-4.43368 1.64373,-2.69548 2.19795,-2.3302 2.607311,-1.64374 3.016666,-1.23437 3.148927,-0.54792 3.199302,0.18265 3.060753,0.8691 2.789944,1.50518 2.418372,2.00902 2.015315,2.6073 0.686467,1.27846 -0.04401,-0.18263 1.643732,4.38959 1.051738,4.43369 0.314884,4.52184 0.09444,3.56459 h -0.09444 l -0.314884,4.61632 -1.051738,4.52185 -1.643732,4.16288 0.04401,-0.13856 -1.650043,2.69548 -2.235738,2.3302 -2.607296,1.73821 -3.060753,1.14621 -3.060765,0.49753 -3.199289,-0.13225 -3.060766,-0.8691 -2.789947,-1.51149 -2.51283,-2.00901 -1.92085,-2.51285 -0.68646,-1.37292 0.0944,0.13855 -1.73819,-4.25104 -0.95728,-4.52815 -0.36527,-4.52186 -0.0944,-3.56457 h 0.0944 l 0.36527,-4.61633 1.00135,-4.43368 1.69412,-4.29513 z m 0,0 z m 7.771539,3.61496 -1.417009,3.65275 -0.59201,3.83539 -0.0944,2.10348 -0.0881,3.56459 h 0.0881 l 0.27711,3.98024 1.051734,3.65275 0.774641,2.00901 v -0.17635 l 1.1399,1.59336 1.738218,1.1903 1.920829,0.64238 2.009026,-0.0944 1.964928,-0.77464 1.511483,-1.32885 0.862791,-1.22807 -0.08815,0.17633 1.372923,-3.74092 0.730542,-3.84168 0.04401,-2.0594 0.09444,-3.56457 h -0.09444 l -0.321184,-3.92986 -1.04545,-3.74722 -0.780929,-1.91454 0.08815,0.18264 -1.228073,-1.65005 -1.55557,-1.23437 -2.009015,-0.59199 -2.103477,0.0881 -1.832679,0.78093 -1.643731,1.27846 -0.774642,1.32885 z m 0,0 z M -221.62161,366.8835 v -45.79794 h 15.08334 l 3.28748,0.37158 3.15521,1.04544 2.83403,1.65003 2.55692,2.19166 1.96493,2.69548 1.32885,2.97258 0.77464,3.19931 v 3.28748 l -0.59201,3.24968 -1.32884,3.06076 -1.82637,2.69547 -2.42467,2.33021 -0.77464,0.59199 7.49444,16.45627 h -9.78057 l -6.53715,-13.71041 h -6.53086 v 13.71041 z m 0,0 z m 8.68473,-22.4896 h 6.39861 l 2.23573,-0.36528 1.92084,-0.95727 1.64374,-1.55557 1.14621,-1.91455 0.40936,-2.28611 -0.22672,-2.05941 -0.96358,-2.10347 -1.50518,-1.73191 -1.87676,-1.05174 -2.19166,-0.50383 h -6.99059 z m 0,0 z m -196.15271,22.4896 v -45.79794 h 15.03297 l 3.33785,0.37158 3.10484,1.04544 2.88442,1.65003 2.55692,2.19166 1.96492,2.69548 1.32885,2.97258 0.77463,3.19931 v 3.28748 l -0.59199,3.24968 -1.32885,3.06076 -1.82638,2.69547 -2.42466,2.33021 -0.77464,0.59199 7.45035,16.45627 h -9.73646 l -6.53717,-13.71041 h -6.53086 v 13.71041 z m 0,0 z m 8.68474,-22.39514 h 6.34823 l 2.28611,-0.32118 1.92084,-0.95728 1.64374,-1.59966 1.1462,-1.92084 0.40937,-2.23573 -0.22672,-2.10348 -0.96357,-2.0594 -1.50519,-1.78228 -1.92084,-1.00767 -2.14757,-0.5479 h -6.9906 z m 0,0 z m 225.58252,-15.08334 1.64374,-2.69547 2.24204,-2.33021 2.60101,-1.68782 3.06076,-1.1903 3.06704,-0.54791 3.10484,0.18264 3.15521,0.8691 2.78365,1.50518 2.56323,1.96493 1.92084,2.60731 0.68017,1.32255 -0.0882,-0.18264 1.78229,4.3896 0.95728,4.43369 0.32118,4.52185 0.0944,3.56458 h -0.0944 l -0.3212,4.61632 -1.05173,4.52816 -1.68783,4.15658 0.0881,-0.18265 -1.64374,2.73957 -2.24204,2.3302 -1.00135,0.78094 3.42603,5.75622 h -10.14583 l -1.82638,-3.15522 -3.15521,-0.32119 -3.01668,-0.95727 -2.69547,-1.64374 -2.3743,-2.19165 -1.82636,-2.60731 -0.3212,-0.73055 v 0.18265 l -1.59966,-4.25106 -1.05172,-4.52185 -0.3212,-4.52815 -0.0944,-3.56458 h 0.0944 l 0.3212,-4.61632 1.05172,-4.43369 1.59966,-4.29513 z m 0,0 z m 7.99828,3.61497 -1.41703,3.65275 -0.68646,3.84168 -0.0944,2.0531 -0.0881,3.56458 h 0.0881 l 0.36527,4.02432 1.05173,3.65275 0.78094,2.01531 -0.0944,-0.18893 1.23439,1.55557 1.55555,1.23437 2.00903,0.59829 2.05939,-0.0944 1.82637,-0.77463 1.68783,-1.27846 0.78093,-1.24068 v 0.18894 l 1.36663,-3.75352 0.73686,-3.83539 0.044,-2.10348 v -3.56459 l -0.32118,-3.88576 -1.05175,-3.74722 -0.77463,-1.91455 v 0.17635 l -1.1462,-1.68783 -1.73191,-1.19029 -1.92085,-0.63609 -2.10349,0.0882 -1.82637,0.78094 -1.55555,1.32255 -0.86912,1.32255 z m 0,0 z m -97.62291,-4.43369 1.65002,-2.69548 2.19167,-2.3365 2.6073,-1.64373 3.01667,-1.23439 3.14893,-0.50382 3.1993,0.13855 3.06075,0.86911 2.78995,1.51148 2.42466,2.00901 2.00902,2.60731 0.68647,1.27846 -0.044,-0.18263 1.64374,4.3833 1.05174,4.43368 0.32119,4.52815 0.0882,3.56459 h -0.0882 l -0.32119,4.61002 -1.05174,4.52815 -1.64374,4.20067 0.044,-0.17635 -1.64374,2.69548 -2.24204,2.3302 -2.60731,1.7319 -3.06074,1.14622 -3.06076,0.50383 -3.19932,-0.13856 -3.06074,-0.8691 -2.78994,-1.50519 -2.51285,-2.01531 -1.92084,-2.51284 -0.68646,-1.36663 0.0944,0.17633 -1.73819,-4.29512 -0.95728,-4.52185 -0.36528,-4.52186 -0.0944,-3.56458 h 0.0944 l 0.36528,-4.61632 1.00135,-4.43369 1.69412,-4.29512 z m 0,0 z m 7.77154,3.60866 -1.41702,3.65276 -0.59199,3.84168 -0.0944,2.10348 -0.0882,3.56458 h 0.0882 l 0.27711,3.97395 1.05174,3.65904 0.77464,2.00902 v -0.18264 l 1.14621,1.59965 1.73191,1.1903 1.92082,0.63608 1.96493,-0.0881 2.00903,-0.78093 1.51148,-1.32255 0.86911,-1.23439 -0.0944,0.18265 1.37294,-3.74722 0.73055,-3.84169 0.044,-2.05309 0.0944,-3.56459 h -0.0944 l -0.3212,-3.92985 -1.04543,-3.74722 -0.78094,-1.92084 0.0944,0.18263 -1.23438,-1.64373 -1.55556,-1.23437 -2.00902,-0.59831 -2.10347,0.0944 -1.82638,0.77464 -1.65003,1.27846 -0.77456,1.32886 z m 0,0 z m -107.39716,34.68854 v -45.70346 h 27.96873 v 8.72881 h -19.23992 v 9.55383 h 14.16385 v 8.72881 h -14.16385 v 10.00728 h 19.92639 v 8.68473 z m 0,0 z m 271.556803,0 v -45.70346 h 27.968735 v 8.72881 h -19.239933 v 9.55383 h 14.170165 v 8.72881 h -14.170165 v 10.00728 h 19.926388 v 8.68473 z m 0,0 z m -229.058943,0 v -45.70346 h 12.0226 l 9.23263,23.85624 9.32081,-23.85624 h 11.92813 v 45.70346 h -8.72883 v -28.69928 l -11.28574,28.69928 h -2.38058 l -11.3802,-28.69928 v 28.69928 z m 0,0 z m 262.739826,-9.73647 1.555558,2.69548 2.103488,2.46875 1.826368,1.27847 v -0.0881 l 3.287475,1.82637 3.659046,1.14621 3.747221,0.49753 3.841694,-0.13856 3.652746,-0.95727 1.328848,-0.45345 2.69547,-1.37292 2.147575,-2.00901 1.826367,-2.46876 1.146212,-2.74586 0.547907,-2.96629 -0.188936,-2.97258 -0.86279,-2.97258 -1.555582,-2.51285 -2.009003,-2.28611 -2.563233,-1.7382 -1.731894,-0.68017 -12.022602,-4.25105 h -0.04401 l -1.417021,-0.86911 -0.780929,-1.23437 -0.27081,-1.55557 0.547907,-1.59966 1.05175,-1.09582 0.503832,-0.2708 -0.09444,0.0881 2.60732,-0.95728 2.783644,-0.27711 2.789943,0.45975 2.286124,0.8691 h -0.182635 l 1.555558,1.184 1.05175,1.59965 7.494441,-3.15522 -1.417022,-2.78364 -1.964928,-2.33021 -2.468759,-1.73821 -1.146212,-0.73054 h 0.09444 l -3.476411,-1.27847 -3.652758,-0.5983 -3.659047,0.13856 -3.564584,0.77463 -2.96628,1.14621 0.08815,0.0882 -2.330211,1.55557 -2.009015,2.10348 -1.461096,2.51285 -0.736842,2.69547 -0.08815,2.97259 0.459757,2.78994 1.278461,2.60101 1.826367,2.19795 2.19165,1.82638 2.009015,0.95726 12.299687,4.25106 v 0.0944 l 1.54927,0.86911 0.963577,1.50518 0.503831,1.55557 -0.277109,1.82637 -0.869103,1.55557 -1.27846,0.95727 -0.459757,0.18264 -2.878106,0.77463 -2.922192,0.0944 -2.87813,-0.59199 -2.512834,-1.05174 -1.694119,-1.41702 -0.503819,-0.68645 -8.451717,2.601 z m 0,0 z m -74.629486,-35.96699 v 30.21076 l 0.3212,3.19931 1.05175,3.06075 1.59963,2.87812 2.23574,2.42466 2.51914,1.91455 3.06076,1.32885 3.14892,0.68646 h 3.29377 l 3.24339,-0.78093 2.9222,-1.32255 2.60731,-1.92084 2.19166,-2.41837 1.55556,-2.78995 0.96358,-3.15522 0.36527,-3.10484 v -30.21076 h -8.64066 v 30.21076 l -0.32118,2.0531 -1.05174,2.01531 -1.54927,1.50519 -1.83268,0.95727 -2.19164,0.23301 -2.19166,-0.32118 -1.83265,-0.95728 -1.54929,-1.59964 -0.96357,-1.87677 -0.27081,-2.00901 v -30.21076 z m 0,0 z M 33.208112,366.8835 v -45.70346 h 27.968739 v 8.72881 h -19.23993 v 9.55383 h 14.170165 v 8.72881 H 41.936921 v 10.00728 h 19.926392 v 8.68473 z m 0,0 z m 51.188889,0 V 329.90885 H 74.389726 v -8.82329 h 28.831534 v 8.82329 H 93.125811 v 36.97465 z m 0,0 z m -290.255111,73.98709 v -45.69716 h 27.96874 v 8.72881 h -19.23993 v 9.54753 h 14.17017 v 8.72882 h -14.17017 v 10.01357 h 19.92639 v 8.67843 z m 0,0 z m 271.563105,0 v -45.69716 h 27.968739 v 8.72881 H 74.433806 v 9.54753 h 14.214243 v 8.72882 H 74.433806 v 10.01357 h 19.926391 v 8.67843 z m 0,0 z m -229.058955,0 v -45.69716 h 12.06669 l 9.23264,23.85623 9.32081,-23.85623 h 11.92812 v 45.69716 h -8.72882 v -28.69928 l -11.28574,28.69928 h -2.38058 l -11.4243,-28.69928 v 28.69928 z m 0,0 z m 262.739842,-9.73017 1.555558,2.69547 2.09718,2.46876 1.83268,1.27846 v -0.0944 l 3.28747,1.83268 3.70314,1.1399 3.70313,0.50383 3.83539,-0.13856 3.65905,-0.95727 1.32254,-0.45974 2.69549,-1.37294 2.19794,-2.009 1.82637,-2.46876 1.09583,-2.78364 0.54791,-2.92851 -0.18264,-2.97258 -0.86909,-2.96629 -1.54928,-2.51283 -2.01531,-2.28613 -2.51283,-1.7382 -1.7823,-0.68647 -11.9722,-4.25104 h -0.0945 l -1.41701,-0.8691 -0.77463,-1.22809 -0.27712,-1.55556 0.55421,-1.59965 1.05175,-1.09583 0.49753,-0.27711 -0.0882,0.0944 2.60101,-0.96356 2.78995,-0.27081 2.78994,0.45344 2.28612,0.8691 h -0.18262 l 1.54928,1.19029 1.05173,1.59966 7.49444,-3.15522 -1.41702,-2.78994 -1.96493,-2.33021 -2.46245,-1.73191 -1.14621,-0.73055 h 0.0945 l -3.47641,-1.28476 -3.65274,-0.63608 -3.65904,0.18263 -3.56459,0.77464 -2.97258,1.14622 0.0945,0.0881 -2.33019,1.55555 -2.01531,2.09719 -1.46111,2.51914 -0.73054,2.69548 -0.0882,2.96628 0.45345,2.78995 1.27846,2.60731 1.83268,2.19165 2.19164,1.82637 2.00902,0.96358 12.2934,4.25104 v 0.0881 l 1.55556,0.8691 0.95727,1.51148 0.50383,1.54927 -0.27081,1.83268 -0.8691,1.54927 -1.27846,0.96356 -0.45975,0.18264 -2.87811,0.77464 -2.9285,0.0944 -2.87812,-0.59829 -2.51284,-1.05174 -1.68781,-1.41702 -0.50383,-0.68647 -8.458016,2.60731 z m 0,0 z M 24.756398,395.17343 v 30.20446 l 0.321193,3.19931 1.045447,3.06704 1.599657,2.87812 2.242025,2.41837 2.51285,1.92084 3.060741,1.32255 3.155218,0.68647 h 3.287488 l 3.24968,-0.77463 2.9222,-1.32255 2.607312,-1.92085 2.191642,-2.42466 1.555578,-2.78366 0.957273,-3.15521 0.365271,-3.11114 v -30.20446 h -8.634349 v 30.20446 l -0.321191,2.0594 -1.051734,2.00901 -1.555562,1.51148 -1.826388,0.95727 -2.191642,0.22672 -2.197946,-0.32118 -1.826388,-0.95728 -1.549258,-1.59965 -0.963576,-1.87676 -0.277096,-2.00901 v -30.20446 z m 0,0 z m -415.065808,45.47044 v -45.70346 h 27.97503 v 8.72881 h -19.24622 v 9.55383 h 14.17015 v 8.72881 h -14.17015 v 10.00728 h 19.92639 v 8.68473 z m 0,0 z m 95.56351,0.22672 v -45.69716 h 8.68474 v 45.69716 z m 0,0 z m -54.70309,-0.22672 v -45.70346 h 12.01629 l 9.23265,23.85623 9.32711,-23.85623 h 11.92811 v 45.70346 h -8.68472 v -28.69928 l -11.33613,28.69928 h -2.3302 l -11.42429,-28.69928 v 28.69928 z m 0,0 z m -87.28814,-9.50345 1.54927,2.6514 2.0594,2.37428 1.78228,1.27846 v -0.0881 l 3.2434,1.82637 3.56458,1.09583 3.70313,0.50382 3.74722,-0.18264 3.56458,-0.91319 1.27847,-0.45974 2.65139,-1.32255 2.14756,-1.96493 1.7823,-2.42466 1.09582,-2.69548 0.50382,-2.92849 -0.13855,-2.87812 -0.8628,-2.9222 -1.55557,-2.46876 -1.96493,-2.19165 -2.46876,-1.73821 -1.69412,-0.68647 -11.78956,-4.15657 h -0.0881 l -1.32885,-0.86909 -0.77463,-1.1903 -0.27711,-1.55557 0.50383,-1.50519 1.05174,-1.14621 0.50382,-0.22672 -0.0944,0.0944 2.56322,-0.96357 2.73957,-0.22672 2.74586,0.40936 2.19165,0.8691 h -0.18264 l 1.55557,1.19029 1.00136,1.50519 7.36219,-3.06075 -1.37294,-2.73957 -1.96492,-2.28611 -2.38059,-1.69413 -1.09583,-0.68017 h 0.0944 l -3.43232,-1.27846 -3.60867,-0.59829 -3.56458,0.13856 -3.52049,0.77463 -2.87812,1.09582 0.0944,0.0944 -2.3302,1.55557 -1.92086,2.0531 -1.46109,2.46876 -0.68647,2.65138 -0.0944,2.87812 0.41566,2.74587 1.27846,2.55692 1.82638,2.14756 2.10348,1.7823 1.96493,0.91319 12.01628,4.20695 v 0.0882 l 1.55557,0.82503 0.95728,1.46109 0.50383,1.55557 -0.27081,1.7823 -0.8691,1.55555 -1.27846,0.91319 -0.40937,0.18264 -2.78994,0.77464 -2.9285,0.0944 -2.82773,-0.64238 -2.46876,-1.00765 -1.59965,-1.36664 -0.50382,-0.68647 -8.27537,2.55692 z m 0,0 z m 161.14299,-9.73647 v -8.64064 h 14.80623 v 8.64064 z m 0,0"
       id="path67074"
       style="fill:#000000;stroke-width:1.61224" /></g></svg>
