<?xml version="1.0" encoding="UTF-8" standalone="no"?>
<!-- Created with Inkscape (http://www.inkscape.org/) -->

<svg
   xmlns:dc="http://purl.org/dc/elements/1.1/"
   xmlns:cc="http://creativecommons.org/ns#"
   xmlns:rdf="http://www.w3.org/1999/02/22-rdf-syntax-ns#"
   xmlns:svg="http://www.w3.org/2000/svg"
   xmlns="http://www.w3.org/2000/svg"
   xmlns:sodipodi="http://sodipodi.sourceforge.net/DTD/sodipodi-0.dtd"
   xmlns:inkscape="http://www.inkscape.org/namespaces/inkscape"
   width="430.79999"
   height="300"
   id="svg3864"
   version="1.1"
   inkscape:version="0.48.4 r9939"
   sodipodi:docname="M4b.svg">
  <defs
     id="defs3866" />
  <sodipodi:namedview
     id="base"
     pagecolor="#ffffff"
     bordercolor="#666666"
     borderopacity="1.0"
     inkscape:pageopacity="0.0"
     inkscape:pageshadow="2"
     inkscape:zoom="0.98994949"
     inkscape:cx="348.89054"
     inkscape:cy="176.55346"
     inkscape:document-units="px"
     inkscape:current-layer="layer1"
     showgrid="false"
     inkscape:snap-bbox="true"
     inkscape:bbox-paths="true"
     inkscape:bbox-nodes="true"
     inkscape:snap-bbox-edge-midpoints="true"
     inkscape:snap-bbox-midpoints="true"
     inkscape:object-paths="true"
     inkscape:snap-intersection-paths="true"
     inkscape:object-nodes="true"
     inkscape:snap-smooth-nodes="true"
     inkscape:snap-midpoints="true"
     inkscape:snap-object-midpoints="true"
     inkscape:snap-center="true"
     inkscape:snap-page="true"
     showguides="true"
     inkscape:guide-bbox="true"
     inkscape:window-width="1366"
     inkscape:window-height="745"
     inkscape:window-x="-8"
     inkscape:window-y="-8"
     inkscape:window-maximized="1" />
  <metadata
     id="metadata3869">
    <rdf:RDF>
      <cc:Work
         rdf:about="">
        <dc:format>image/svg+xml</dc:format>
        <dc:type
           rdf:resource="http://purl.org/dc/dcmitype/StillImage" />
        <dc:title></dc:title>
      </cc:Work>
    </rdf:RDF>
  </metadata>
  <g
     inkscape:label="Calque 1"
     inkscape:groupmode="layer"
     id="layer1"
     transform="translate(0,-752.36218)">
    <rect
       style="fill:#ffffff;stroke:#000000;stroke-width:0.96395808;stroke-opacity:1"
       id="rect2995"
       width="430.21683"
       height="299.41785"
       x="0.10015081"
       y="752.84418"
       ry="53.28606" />
    <g
       id="g3900"
       transform="matrix(1.2622928,0,0,1.2622928,291.45569,962.24437)">
      <path
         sodipodi:nodetypes="cccccccccccccc"
         inkscape:connector-curvature="0"
         id="path3854"
         d="m 73.980186,7.1260033 -269.173716,0 0,-13.92117 4.89407,0 0,-34.2130303 c -1.01195,-5.5112 8.30559,-8.29403 9.34322,-6.84261 l 3.91487,-37.595009 c 0.15177,-4.079433 1.30083,-7.765569 8.78241,-8.074555 l 32.23916,0 0,-27.003639 c -0.31061,-7.22221 4.15984,-8.92065 8.58958,-8.58958 l 194.205856,0 c 7.20455,0 7.37569,5.73912 7.20455,7.20455 z"
         style="fill:#000000;fill-opacity:1;stroke:none" />
      <path
         sodipodi:nodetypes="ccccccc"
         inkscape:connector-curvature="0"
         id="path3862"
         d="m -133.35497,-46.395227 0,-36.246535 c -0.15336,-1.375633 0.31576,-2.952489 -2.75822,-2.764563 l -27.73547,0 c -1.80037,-0.117556 -5.33706,1.004371 -5.2866,5.29875 l -2.98807,33.712348 z"
         style="fill:#ffffff;stroke:none" />
      <g
         transform="translate(-232.92973,-137.90311)"
         id="g3850">
        <path
           sodipodi:type="arc"
           style="fill:#000000;fill-opacity:1;fill-rule:nonzero;stroke:#ffffff;stroke-width:3;stroke-miterlimit:4;stroke-opacity:1;stroke-dasharray:none"
           id="path3042-1"
           sodipodi:cx="206.88559"
           sodipodi:cy="128.13559"
           sodipodi:rx="28.474577"
           sodipodi:ry="28.474577"
           d="m 235.36017,128.13559 c 0,15.72607 -12.74851,28.47458 -28.47458,28.47458 -15.72608,0 -28.47458,-12.74851 -28.47458,-28.47458 0,-15.72608 12.7485,-28.474577 28.47458,-28.474577 15.72607,0 28.47458,12.748497 28.47458,28.474577 z"
           transform="matrix(1.0966518,0,0,1.0966518,-135.87723,4.4701928)" />
        <path
           sodipodi:type="arc"
           style="fill:#000000;fill-opacity:1;fill-rule:nonzero;stroke:#ffffff;stroke-width:3;stroke-miterlimit:4;stroke-opacity:1;stroke-dasharray:none"
           id="path3042-1-7"
           sodipodi:cx="206.88559"
           sodipodi:cy="128.13559"
           sodipodi:rx="28.474577"
           sodipodi:ry="28.474577"
           d="m 235.36017,128.13559 c 0,15.72607 -12.74851,28.47458 -28.47458,28.47458 -15.72608,0 -28.47458,-12.74851 -28.47458,-28.47458 0,-15.72608 12.7485,-28.474577 28.47458,-28.474577 15.72607,0 28.47458,12.748497 28.47458,28.474577 z"
           transform="matrix(1.0966518,0,0,1.0966518,23.227608,4.4701928)" />
      </g>
    </g>
  </g>
</svg>
