<?xml version="1.0" encoding="UTF-8" standalone="no"?>
<!-- Created with Inkscape (http://www.inkscape.org/) -->

<svg
   xmlns:dc="http://purl.org/dc/elements/1.1/"
   xmlns:cc="http://creativecommons.org/ns#"
   xmlns:rdf="http://www.w3.org/1999/02/22-rdf-syntax-ns#"
   xmlns:svg="http://www.w3.org/2000/svg"
   xmlns="http://www.w3.org/2000/svg"
   xmlns:sodipodi="http://sodipodi.sourceforge.net/DTD/sodipodi-0.dtd"
   xmlns:inkscape="http://www.inkscape.org/namespaces/inkscape"
   width="430.79999"
   height="300"
   id="svg3864"
   version="1.1"
   inkscape:version="0.48.4 r9939"
   sodipodi:docname="M4g.svg">
  <defs
     id="defs3866" />
  <sodipodi:namedview
     id="base"
     pagecolor="#ffffff"
     bordercolor="#666666"
     borderopacity="1.0"
     inkscape:pageopacity="0.0"
     inkscape:pageshadow="2"
     inkscape:zoom="0.7"
     inkscape:cx="533.44108"
     inkscape:cy="234.93987"
     inkscape:document-units="px"
     inkscape:current-layer="g3026"
     showgrid="false"
     inkscape:snap-bbox="true"
     inkscape:bbox-paths="true"
     inkscape:bbox-nodes="true"
     inkscape:snap-bbox-edge-midpoints="true"
     inkscape:snap-bbox-midpoints="true"
     inkscape:object-paths="true"
     inkscape:snap-intersection-paths="true"
     inkscape:object-nodes="true"
     inkscape:snap-smooth-nodes="true"
     inkscape:snap-midpoints="true"
     inkscape:snap-object-midpoints="true"
     inkscape:snap-center="true"
     inkscape:snap-page="true"
     showguides="true"
     inkscape:guide-bbox="true"
     inkscape:window-width="1366"
     inkscape:window-height="745"
     inkscape:window-x="-8"
     inkscape:window-y="-8"
     inkscape:window-maximized="1">
    <sodipodi:guide
       orientation="0,1"
       position="214.9746,253.14592"
       id="guide3182" />
    <sodipodi:guide
       orientation="0,1"
       position="112.30415,39.678002"
       id="guide3184" />
    <sodipodi:guide
       orientation="1,0"
       position="45.064302,167.13431"
       id="guide3186" />
    <sodipodi:guide
       orientation="1,0"
       position="384.8849,167.13431"
       id="guide3188" />
  </sodipodi:namedview>
  <metadata
     id="metadata3869">
    <rdf:RDF>
      <cc:Work
         rdf:about="">
        <dc:format>image/svg+xml</dc:format>
        <dc:type
           rdf:resource="http://purl.org/dc/dcmitype/StillImage" />
        <dc:title></dc:title>
      </cc:Work>
    </rdf:RDF>
  </metadata>
  <g
     inkscape:label="Calque 1"
     inkscape:groupmode="layer"
     id="layer1"
     transform="translate(0,-752.36218)">
    <rect
       style="fill:#ffffff;stroke:#000000;stroke-width:0.96395808;stroke-opacity:1"
       id="rect2995"
       width="430.21683"
       height="299.41785"
       x="0.10015081"
       y="752.84418"
       ry="53.28606" />
    <g
       transform="translate(492.85647,-71.815125)"
       id="layer1-2"
       inkscape:label="Calque 1">
      <g
         id="g4080">
        <g
           id="g3026">
          <g
             transform="matrix(3.1193567,0,0,3.1193567,-461.98837,743.83867)"
             id="g3835">
            <g
               transform="translate(-109.77671,-10.683761)"
               id="g3845">
              <g
                 transform="translate(109.54112,10.878566)"
                 id="g3855">
                <g
                   id="g3829"
                   transform="translate(24.145299,-39.579501)">
                  <path
                     transform="matrix(2.875,0,0,2.875,-7.9059797,-145.72115)"
                     style="fill:#000000;stroke:none"
                     d="m 30.76923,93.444443 c 0,4.720382 -3.826626,8.547007 -8.547009,8.547007 -4.720382,0 -8.547008,-3.826625 -8.547008,-8.547007 0,-4.720383 3.826626,-8.547009 8.547008,-8.547009 4.720383,0 8.547009,3.826626 8.547009,8.547009 z"
                     id="path3023-4"
                     inkscape:connector-curvature="0" />
                  <path
                     transform="matrix(1.2625,0,0,1.2625,27.927352,4.9580139)"
                     style="fill:#ffffff;stroke:none"
                     d="m 30.76923,93.444443 c 0,4.720382 -3.826626,8.547007 -8.547009,8.547007 -4.720382,0 -8.547008,-3.826625 -8.547008,-8.547007 0,-4.720383 3.826626,-8.547009 8.547008,-8.547009 4.720383,0 8.547009,3.826626 8.547009,8.547009 z"
                     id="path3023-9"
                     inkscape:connector-curvature="0" />
                </g>
                <path
                   transform="matrix(0.575,0,0,0.575,56.025641,-9.324572)"
                   style="fill:#000000;stroke:none"
                   d="m 30.76923,93.444443 c 0,4.720382 -3.826626,8.547007 -8.547009,8.547007 -4.720382,0 -8.547008,-3.826625 -8.547008,-8.547007 0,-4.720383 3.826626,-8.547009 8.547008,-8.547009 4.720383,0 8.547009,3.826626 8.547009,8.547009 z"
                   id="path3023-8"
                   inkscape:connector-curvature="0" />
                <path
                   style="fill:#000000;stroke:#000000;stroke-width:1px;stroke-linecap:butt;stroke-linejoin:miter;stroke-opacity:1"
                   d="m 9.4017094,81.478632 0,-19.017094 C 9.2414529,60.30698 10.292023,59.25641 12.553419,59.309829 l 42.788461,0 c 0.466619,1.027043 1.068609,1.512605 1.736112,1.736111 3.646258,-2.454199 6.293834,-8.263113 10.2297,-9.80235 l 0,-2.154831 3.685898,0 0,2.158627 c 1.256239,0.248165 1.98399,0.125632 2.411594,1.199975 l 0.01889,8.633532 C 68.36886,59.992782 60.903762,82.020165 56.308901,77.290357 55.471461,76.620849 53.494433,75.969989 51.92308,77.222635 l 0,3.508135 -25.053419,0 0,2.121352 -6.730771,0 0,-2.121352 -10.2029895,0 0,0.761218 C 9.7663656,81.879952 9.595907,82.22529 9.4017094,81.478632 z"
                   id="path3825"
                   inkscape:connector-curvature="0"
                   sodipodi:nodetypes="ccccccccccccccccccccc" />
                <path
                   transform="matrix(1.3,0,0,1.3,-5.3846152,-28.033333)"
                   style="fill:#000000;stroke:none"
                   d="m 30.76923,93.444443 c 0,4.720382 -3.826626,8.547007 -8.547009,8.547007 -4.720382,0 -8.547008,-3.826625 -8.547008,-8.547007 0,-4.720383 3.826626,-8.547009 8.547008,-8.547009 4.720383,0 8.547009,3.826626 8.547009,8.547009 z"
                   id="path3023"
                   inkscape:connector-curvature="0" />
                <path
                   style="fill:#ffffff;stroke:#000000;stroke-width:1px;stroke-linecap:butt;stroke-linejoin:miter;stroke-opacity:1"
                   d="m 58.3212,63.520158 5.344851,-5.344851 1.163069,2.014494 0,2.574901 -2.120776,2.120776 -2.007457,0 z"
                   id="path3827"
                   inkscape:connector-curvature="0" />
                <path
                   style="fill:#000000;stroke:#000000;stroke-width:1px;stroke-linecap:butt;stroke-linejoin:miter;stroke-opacity:1"
                   d="m 103.90825,77.13768 1.25122,0 0,-7.007283 c 0.082,-0.849354 3.94492,-0.482792 4.11724,0 l 0,9.632064 -4.83617,0 c -0.3355,-1.981436 -0.39532,-2.033097 -0.53229,-2.624781 z"
                   id="path3833"
                   inkscape:connector-curvature="0"
                   sodipodi:nodetypes="ccccccc" />
              </g>
            </g>
          </g>
        </g>
      </g>
    </g>
  </g>
</svg>
