<?xml version="1.0" encoding="UTF-8" standalone="no"?>
<!-- Created with Inkscape (http://www.inkscape.org/) -->

<svg
   xmlns:dc="http://purl.org/dc/elements/1.1/"
   xmlns:cc="http://creativecommons.org/ns#"
   xmlns:rdf="http://www.w3.org/1999/02/22-rdf-syntax-ns#"
   xmlns:svg="http://www.w3.org/2000/svg"
   xmlns="http://www.w3.org/2000/svg"
   xmlns:sodipodi="http://sodipodi.sourceforge.net/DTD/sodipodi-0.dtd"
   xmlns:inkscape="http://www.inkscape.org/namespaces/inkscape"
   width="430"
   height="366"
   id="svg3864"
   version="1.1"
   inkscape:version="0.91 r13725"
   sodipodi:docname="France_road_sign_M4p.svg">
  <defs
     id="defs3866" />
  <sodipodi:namedview
     id="base"
     pagecolor="#ffffff"
     bordercolor="#666666"
     borderopacity="1.0"
     inkscape:pageopacity="0.0"
     inkscape:pageshadow="2"
     inkscape:zoom="0.8146745"
     inkscape:cx="-63.98401"
     inkscape:cy="57.852457"
     inkscape:document-units="px"
     inkscape:current-layer="layer1"
     showgrid="false"
     inkscape:snap-bbox="true"
     inkscape:bbox-paths="true"
     inkscape:bbox-nodes="true"
     inkscape:snap-bbox-edge-midpoints="true"
     inkscape:snap-bbox-midpoints="true"
     inkscape:object-paths="true"
     inkscape:snap-intersection-paths="true"
     inkscape:object-nodes="true"
     inkscape:snap-smooth-nodes="true"
     inkscape:snap-midpoints="true"
     inkscape:snap-object-midpoints="true"
     inkscape:snap-center="true"
     inkscape:snap-page="true"
     showguides="true"
     inkscape:guide-bbox="true"
     inkscape:window-width="1440"
     inkscape:window-height="788"
     inkscape:window-x="0"
     inkscape:window-y="1"
     inkscape:window-maximized="1" />
  <metadata
     id="metadata3869">
    <rdf:RDF>
      <cc:Work
         rdf:about="">
        <dc:format>image/svg+xml</dc:format>
        <dc:type
           rdf:resource="http://purl.org/dc/dcmitype/StillImage" />
        <dc:title />
      </cc:Work>
    </rdf:RDF>
  </metadata>
  <g
     inkscape:label="Calque 1"
     inkscape:groupmode="layer"
     id="layer1"
     transform="translate(0,-686.36219)">
    <rect
       style="fill:#ffffff;stroke:#000000;stroke-width:2.209692;stroke-miterlimit:4;stroke-dasharray:none;stroke-opacity:1"
       id="rect2995"
       width="427.79013"
       height="363.79031"
       x="1.1049371"
       y="687.46704"
       ry="64.742134" />
    <g
       id="layer1-6"
       inkscape:label="la photo"
       style="display:inline;opacity:1"
       transform="translate(-73.583143,586.75257)">
      <path
         style="color:#000000;font-style:normal;font-variant:normal;font-weight:normal;font-stretch:normal;font-size:medium;line-height:normal;font-family:Sans;-inkscape-font-specification:Sans;text-indent:0;text-align:start;text-decoration:none;text-decoration-line:none;letter-spacing:normal;word-spacing:normal;text-transform:none;direction:ltr;block-progression:tb;writing-mode:lr-tb;baseline-shift:baseline;text-anchor:start;display:inline;overflow:visible;visibility:visible;fill:#000000;fill-opacity:1;stroke:none;stroke-width:22.39999962;marker:none;enable-background:accumulate"
         d="m 277.219,125.87525 c -14.76927,0 -26.75,11.98073 -26.75,26.75 0,12.00004 7.92662,22.14539 18.8125,25.53125 l 1.8125,12.59375 -4.65625,2.03125 c -3.73099,0.54654 -7.10325,3.11239 -8.625,6.5625 l -21.90625,47.75 -43.46875,22.84375 c -2.59754,1.36217 -4.61833,3.78527 -5.49186,6.58521 -0.87354,2.79995 -0.58906,5.94225 0.77311,8.53979 1.36218,2.59754 3.78527,4.61833 6.58522,5.49186 2.79994,0.87354 5.94224,0.58906 8.53978,-0.77311 l 36.9375,-19.4375 c 6.10681,-3.92467 11.09333,-5.97321 13.02812,-8.06567 1.93478,-2.09245 3.12496,-5.40781 6.31563,-12.12183 l 3.89062,-8.46875 c 0,0 3.02606,-6.01418 4.25225,-5.9374 1.30824,0.0819 3.10713,20.53115 3.10713,20.53115 l 3.46875,23.0625 -0.15625,0.375 -58.09375,126.4375 c -1.5788,-0.85258 -3.39232,-1.34375 -5.3125,-1.34375 -6.17625,0 -11.1875,5.01125 -11.1875,11.1875 0,5.59648 6.67304,10.46845 9.5,11.03125 l 26.65625,12.25 6.625,-14.40625 51.14507,-111.41514 c 0.84237,-1.83503 6.14412,-1.90364 7.17638,0.16071 l 51.9598,103.91068 c -4.45478,1.47322 -7.6875,5.6763 -7.6875,10.625 0,6.17623 5.01125,11.1875 11.1875,11.1875 2.38667,0 4.50588,-0.50424 5.39371,-0.84996 l 1.32504,-0.58754 28.34375,-14.1875 -7.09375,-14.1875 -66.15625,-131.96875 -3.9375,-26.20312 -1.96875,-13.10156 c 0,0 -2.29998,-10.78489 -1.9257,-11.12127 0.37428,-0.33637 11.59757,9.66033 11.59757,9.66033 l 11.64063,11.64062 17.78125,56.5 c 0.87909,2.79844 2.90492,5.21771 5.50545,6.57467 2.60053,1.35696 5.74372,1.63489 8.54201,0.75531 2.79829,-0.87958 5.21721,-2.90583 6.57371,-5.50659 1.35651,-2.60077 1.6339,-5.744 0.75383,-8.54214 l -18.15625,-57.6875 c -0.3786,-1.27008 -1.04217,-2.50035 -1.72098,-3.65179 -0.67881,-1.15144 -1.3901,-2.23705 -2.34152,-3.19196 L 310.594,194.469 c -0.56729,-0.57609 -1.19718,-1.0905 -1.875,-1.53125 l -0.21875,-0.28125 -4.53125,-2.90625 -3.25,-1.625 -2.25,-0.3125 -6.625,-0.25 -1.65625,-11.53125 c 8.21601,-4.56346 13.78125,-13.34165 13.78125,-23.40625 0,-14.76927 -11.98072,-26.75 -26.75,-26.75 z"
         id="path3025"
         inkscape:connector-curvature="0"
         sodipodi:nodetypes="ssccccccssscczccsccccsscccsscssccccccczcccssscczcccccccccss" />
    </g>
  </g>
</svg>
