<?xml version="1.0" encoding="UTF-8" standalone="no"?>
<!-- Created with Inkscape (http://www.inkscape.org/) -->

<svg
   xmlns:dc="http://purl.org/dc/elements/1.1/"
   xmlns:cc="http://creativecommons.org/ns#"
   xmlns:rdf="http://www.w3.org/1999/02/22-rdf-syntax-ns#"
   xmlns:svg="http://www.w3.org/2000/svg"
   xmlns="http://www.w3.org/2000/svg"
   xmlns:sodipodi="http://sodipodi.sourceforge.net/DTD/sodipodi-0.dtd"
   xmlns:inkscape="http://www.inkscape.org/namespaces/inkscape"
   width="430"
   height="160"
   id="svg3864"
   version="1.1"
   inkscape:version="0.91 r13725"
   sodipodi:docname="France_road_sign_M4x.svg">
  <defs
     id="defs3866" />
  <sodipodi:namedview
     id="base"
     pagecolor="#ffffff"
     bordercolor="#666666"
     borderopacity="1.0"
     inkscape:pageopacity="0.0"
     inkscape:pageshadow="2"
     inkscape:zoom="0.95989848"
     inkscape:cx="79.56034"
     inkscape:cy="38.73596"
     inkscape:document-units="px"
     inkscape:current-layer="layer1"
     showgrid="false"
     inkscape:snap-bbox="true"
     inkscape:bbox-paths="true"
     inkscape:bbox-nodes="true"
     inkscape:snap-bbox-edge-midpoints="true"
     inkscape:snap-bbox-midpoints="true"
     inkscape:object-paths="true"
     inkscape:snap-intersection-paths="true"
     inkscape:object-nodes="true"
     inkscape:snap-smooth-nodes="true"
     inkscape:snap-midpoints="true"
     inkscape:snap-object-midpoints="true"
     inkscape:snap-center="true"
     inkscape:snap-page="true"
     showguides="true"
     inkscape:guide-bbox="true"
     inkscape:window-width="1440"
     inkscape:window-height="788"
     inkscape:window-x="0"
     inkscape:window-y="1"
     inkscape:window-maximized="1" />
  <metadata
     id="metadata3869">
    <rdf:RDF>
      <cc:Work
         rdf:about="">
        <dc:format>image/svg+xml</dc:format>
        <dc:type
           rdf:resource="http://purl.org/dc/dcmitype/StillImage" />
        <dc:title></dc:title>
      </cc:Work>
    </rdf:RDF>
  </metadata>
  <g
     inkscape:label="Calque 1"
     inkscape:groupmode="layer"
     id="layer1"
     transform="translate(0,-892.36219)">
    <rect
       style="fill:#ffffff;stroke:#000000;stroke-width:1.46000993;stroke-miterlimit:4;stroke-dasharray:none;stroke-opacity:1"
       id="rect2995"
       width="428.53983"
       height="158.53999"
       x="0.73009604"
       y="893.0921"
       ry="28.214649" />
    <g
       id="g4334"
       transform="matrix(0.73971716,0,0,0.73971716,228.63796,270.88608)">
      <path
         id="path4225"
         d="m 251.93691,931.63933 c 0,-37.371 -49.1,-67.667 -109.667,-67.667 -60.567,0 -109.667,30.295 -109.667,67.667 0,0.223 0.01,0.444 0.014,0.667 l -0.013,0 0,72.66697 84.358,0 c 0.536,-13.34297 11.732,-23.99997 25.476,-23.99997 13.741,0 24.938,10.657 25.474,23.99997 l 84.025,0 0,-72.66697 -0.014,0 c 0.004,-0.222 0.014,-0.444 0.014,-0.667 z m -126.334,13.082 0,0.085 -54,0 0,-0.214 c -9.042,-1.309 -16,-9.134 -16,-18.62 0,-9.486 6.958,-17.311 16,-18.62 l 0,-0.214 54,0 0,0.085 c 9.527,0.852 17.001,8.915 17.001,18.749 0,9.834 -7.474,17.898 -17.001,18.749 z m 102.667,30.419 c 0,9.572 -8.581,17.333 -19.166,17.333 -10.523,0 -19.059,-7.672 -19.158,-17.167 l -0.009,0 0,-53.333 c 0,-9.573 8.581,-17.333 19.167,-17.333 10.585,0 19.166,7.76 19.166,17.333 0,0.736 -0.067,1.458 -0.166,2.169 l 0,48.827 c 0.098,0.714 0.166,1.434 0.166,2.171 z"
         inkscape:connector-curvature="0" />
      <ellipse
         id="ellipse4227"
         ry="13.667"
         rx="14"
         cy="924.47333"
         cx="209.10394" />
      <ellipse
         id="ellipse4229"
         ry="23"
         rx="22.875"
         cy="1006.9733"
         cx="142.5199" />
      <rect
         id="rect4235"
         height="10"
         width="30"
         y="994.97333"
         x="9.7698994" />
      <path
         sodipodi:nodetypes="ccccccccccccc"
         inkscape:connector-curvature="0"
         id="path3805"
         d="m -282.33616,1004.6011 c -2.97667,-0.1849 -5.80674,-0.6277 -6.11039,-5.51703 l 0,-17.22687 c 0.30743,-4.92671 4.01426,-7.75737 8.07967,-8.06522 l 70.80463,-6.3851 46.26993,-46.26993 115.458067,0 44.0590258,44.05903 11.9504218,0 c 4.0933454,0.14659 5.5315064,1.49142 6.1052574,6.10526 l 0,33.32966 -280.661362,0 z"
         style="fill:#000000;stroke:#000000;stroke-width:0.72752553px;stroke-linecap:butt;stroke-linejoin:miter;stroke-opacity:1" />
      <circle
         id="path3775"
         style="fill:#ffffff;stroke:none;stroke-width:2.18300009;stroke-linecap:butt;stroke-linejoin:miter;stroke-miterlimit:4;stroke-dasharray:none;stroke-dashoffset:0;stroke-opacity:1"
         cx="-238.98311"
         cy="1005.0933"
         r="26.5" />
      <circle
         id="path3775-1"
         style="fill:#ffffff;stroke:none;stroke-width:2.18300009;stroke-linecap:butt;stroke-linejoin:miter;stroke-miterlimit:4;stroke-dasharray:none;stroke-dashoffset:0;stroke-opacity:1"
         cx="-30.730089"
         cy="1006.1337"
         r="26.5" />
      <circle
         r="23.5"
         cy="1005.0933"
         cx="-238.98311"
         style="fill:#000000;stroke:none;stroke-width:2.18300009;stroke-linecap:butt;stroke-linejoin:miter;stroke-miterlimit:4;stroke-dasharray:none;stroke-dashoffset:0;stroke-opacity:1"
         id="circle4330" />
      <circle
         r="23.5"
         cy="1006.1337"
         cx="-30.730089"
         style="fill:#000000;stroke:none;stroke-width:2.18300009;stroke-linecap:butt;stroke-linejoin:miter;stroke-miterlimit:4;stroke-dasharray:none;stroke-dashoffset:0;stroke-opacity:1"
         id="circle4332" />
      <path
         sodipodi:nodetypes="cccccc"
         inkscape:connector-curvature="0"
         id="path3817"
         d="m -112.14648,964.83563 -70.94734,0 c -3.883,-0.16685 -4.70037,-2.38879 -3.26492,-4.88172 l 28.31431,-28.3143 45.89795,0 z"
         style="fill:#ffffff;stroke:none" />
      <path
         sodipodi:nodetypes="cccccc"
         inkscape:connector-curvature="0"
         id="path3817-7"
         d="m -102.99122,964.83563 62.274987,0 c 3.408356,-0.16685 4.125818,-5.82201 2.86582,-8.31494 l -24.85326,-24.88108 -40.287547,0 z"
         style="fill:#ffffff;stroke:none" />
    </g>
  </g>
</svg>
