<?xml version="1.0" encoding="UTF-8" standalone="no"?>
<!-- Created with Inkscape (http://www.inkscape.org/) -->

<svg
   xmlns:dc="http://purl.org/dc/elements/1.1/"
   xmlns:cc="http://creativecommons.org/ns#"
   xmlns:rdf="http://www.w3.org/1999/02/22-rdf-syntax-ns#"
   xmlns:svg="http://www.w3.org/2000/svg"
   xmlns="http://www.w3.org/2000/svg"
   xmlns:sodipodi="http://sodipodi.sourceforge.net/DTD/sodipodi-0.dtd"
   xmlns:inkscape="http://www.inkscape.org/namespaces/inkscape"
   width="430"
   height="160"
   id="svg3864"
   version="1.1"
   inkscape:version="0.91 r13725"
   sodipodi:docname="France_road_sign_M4z.svg">
  <defs
     id="defs3866" />
  <sodipodi:namedview
     id="base"
     pagecolor="#ffffff"
     bordercolor="#666666"
     borderopacity="1.0"
     inkscape:pageopacity="0.0"
     inkscape:pageshadow="2"
     inkscape:zoom="0.56900232"
     inkscape:cx="4.2091536"
     inkscape:cy="38.516277"
     inkscape:document-units="px"
     inkscape:current-layer="layer1"
     showgrid="false"
     inkscape:snap-bbox="true"
     inkscape:bbox-paths="true"
     inkscape:bbox-nodes="true"
     inkscape:snap-bbox-edge-midpoints="true"
     inkscape:snap-bbox-midpoints="true"
     inkscape:object-paths="true"
     inkscape:snap-intersection-paths="true"
     inkscape:object-nodes="true"
     inkscape:snap-smooth-nodes="true"
     inkscape:snap-midpoints="true"
     inkscape:snap-object-midpoints="true"
     inkscape:snap-center="true"
     inkscape:snap-page="true"
     showguides="true"
     inkscape:guide-bbox="true"
     inkscape:window-width="1440"
     inkscape:window-height="788"
     inkscape:window-x="0"
     inkscape:window-y="1"
     inkscape:window-maximized="1" />
  <metadata
     id="metadata3869">
    <rdf:RDF>
      <cc:Work
         rdf:about="">
        <dc:format>image/svg+xml</dc:format>
        <dc:type
           rdf:resource="http://purl.org/dc/dcmitype/StillImage" />
        <dc:title />
      </cc:Work>
    </rdf:RDF>
  </metadata>
  <g
     inkscape:label="Calque 1"
     inkscape:groupmode="layer"
     id="layer1"
     transform="translate(0,-892.36219)">
    <rect
       style="fill:#ffffff;stroke:#000000;stroke-width:1.46000993;stroke-miterlimit:4;stroke-dasharray:none;stroke-opacity:1"
       id="rect2995"
       width="428.53983"
       height="158.53999"
       x="0.73009604"
       y="893.0921"
       ry="28.214649" />
    <g
       id="g4324"
       transform="matrix(0.39498987,0,0,0.39498987,206.73658,623.65583)">
      <path
         style="fill:#000000;fill-opacity:1;fill-rule:nonzero;stroke:none"
         d="m -14.35312,883.15593 0,0.0153 c -3.77323,0.58506 -6.69223,3.42887 -7.47763,7.03235 l -0.0153,0 -4.65241,20.46753 -0.47599,0 c -2.99425,0 -5.40478,2.41053 -5.40478,5.40478 l 0,17.19702 c 0,2.81229 2.12806,5.10524 4.86737,5.37407 l 0,17.04348 c 0,1.76385 1.42989,3.19373 3.19374,3.19373 l 6.87881,0 c 1.76385,0 3.19373,-1.42988 3.19373,-3.19373 l 0,-17.01277 51.66784,0 0,17.01277 c 0,1.76385 1.42989,3.19373 3.19374,3.19373 l 6.87881,0 c 1.76384,0 3.19373,-1.42988 3.19373,-3.19373 l 0,-17.01277 c 2.97983,-0.0166 5.37407,-2.42089 5.37407,-5.40478 l 0,-17.19702 c 0,-2.94761 -2.33732,-5.33129 -5.26659,-5.40478 l -4.57569,-20.06826 c -0.64848,-3.7916 -3.65735,-6.82493 -7.56976,-7.43157 l 0,-0.0153 -53.00369,0 z m 1.41262,6.32604 49.13435,0 c 1.29645,0.3596 2.2759,1.38057 2.59491,2.64098 l 0.0614,0.29173 4.03822,15.27771 c 0.0268,0.14551 0.046,0.30736 0.046,0.46064 0,1.3568 -1.09991,2.45672 -2.45671,2.45672 l -57.67145,0 c -1.35681,0 -2.45672,-1.09992 -2.45672,-2.45672 0,-0.15395 0.019,-0.31454 0.046,-0.46064 l 4.00752,-15.27771 0.12284,-0.49134 c 0.36639,-1.1698 1.30511,-2.10065 2.53349,-2.44137 z m -7.89221,30.34047 c 2.71362,0 4.91344,2.19982 4.91344,4.91343 0,2.71362 -2.19982,4.91344 -4.91344,4.91344 -2.71362,0 -4.91343,-2.19982 -4.91343,-4.91344 0,-2.71361 2.19981,-4.91343 4.91343,-4.91343 z m 64.76522,0 c 2.71362,0 4.91344,2.19982 4.91344,4.91343 0,2.71362 -2.19982,4.91344 -4.91344,4.91344 -2.71362,0 -4.91344,-2.19982 -4.91344,-4.91344 0,-2.71361 2.19982,-4.91343 4.91344,-4.91343 z"
         id="path3995"
         inkscape:connector-curvature="0" />
      <g
         style="fill:#000000"
         transform="translate(-232.50753,635.16076)"
         id="g3582">
        <circle
           style="opacity:1;fill:#000000;fill-opacity:1;fill-rule:nonzero;stroke:none;stroke-width:3;stroke-linecap:butt;stroke-linejoin:miter;stroke-miterlimit:4;stroke-dasharray:none;stroke-dashoffset:0;stroke-opacity:1"
           id="path3568"
           cx="242.81813"
           cy="240.56592"
           r="7.7149267" />
        <circle
           r="7.7149267"
           cy="224.56592"
           cx="242.81813"
           id="circle3570"
           style="opacity:1;fill:#000000;fill-opacity:1;fill-rule:nonzero;stroke:none;stroke-width:3;stroke-linecap:butt;stroke-linejoin:miter;stroke-miterlimit:4;stroke-dasharray:none;stroke-dashoffset:0;stroke-opacity:1" />
        <circle
           style="opacity:1;fill:#000000;fill-opacity:1;fill-rule:nonzero;stroke:none;stroke-width:3;stroke-linecap:butt;stroke-linejoin:miter;stroke-miterlimit:4;stroke-dasharray:none;stroke-dashoffset:0;stroke-opacity:1"
           id="circle3572"
           cx="242.81813"
           cy="208.56592"
           r="7.7149267" />
      </g>
      <path
         id="rect3578"
         d="m 10.3106,802.0781 c -5.43923,0 -9.81836,5.24501 -9.81836,11.75977 l 0,8.57422 c 0,6.51476 4.37913,11.75976 9.81836,11.75976 5.43922,0 9.81836,-5.245 9.81836,-11.75976 l 0,-8.57422 c 0,-6.51476 -4.37914,-11.75977 -9.81836,-11.75977 z m -0.49024,5.51172 0.98047,0 c 1.62869,0 2.93945,1.96713 2.93945,4.41016 l 0,12.25 c 0,2.44303 -1.31076,4.4082 -2.93945,4.4082 l -0.98047,0 c -1.62869,0 -2.93945,-1.96517 -2.93945,-4.4082 l 0,-12.25 c 0,-2.44303 1.31076,-4.41016 2.93945,-4.41016 z"
         style="opacity:1;fill:#000000;fill-opacity:1;fill-rule:nonzero;stroke:none;stroke-width:3;stroke-linecap:butt;stroke-linejoin:miter;stroke-miterlimit:4;stroke-dasharray:none;stroke-dashoffset:0;stroke-opacity:1"
         inkscape:connector-curvature="0" />
      <path
         sodipodi:nodetypes="ascsssscsssscsssssssssscsssscsccccsssssssscsscssssssssssssssssscsssssssssssssscsssscssssssssssssssssca"
         inkscape:connector-curvature="0"
         id="path3589"
         d="m 15.64277,800.64801 c 0.1521,-2.05283 2.27932,-3.23784 3.7613,-4.89774 1.48199,-1.6599 2.90523,-3.1071 3.16275,-3.216 0.25751,-0.10888 0.93656,-0.69037 1.509,-1.29218 0.57243,-0.60181 2.17253,-1.85312 3.55578,-2.7807 1.38325,-0.92757 3.53357,-2.50834 4.7785,-3.5128 2.87057,-2.31612 6.92233,-4.82743 8.551,-5.29997 0.69162,-0.20066 1.59702,-0.65654 2.012,-1.01305 0.41498,-0.35652 1.77307,-0.91668 3.018,-1.2448 1.24493,-0.32813 2.60302,-0.87829 3.018,-1.22259 0.41498,-0.3443 2.10942,-0.9173 3.76543,-1.27334 1.65601,-0.35604 3.80299,-1.07186 4.77105,-1.59071 0.96807,-0.51885 2.5557,-0.94683 3.52807,-0.95106 2.13603,-0.009 2.4962,-0.24923 3.75225,-2.49941 0.81365,-1.45762 0.98297,-2.7807 1.006,-7.86096 0.0275,-6.07327 0.0194,-6.11667 -1.41818,-7.5529 -1.4165,-1.41518 -1.55107,-1.44308 -6.62302,-1.37307 -3.16033,0.0436 -6.12418,0.38027 -7.60813,0.86415 -1.33703,0.43597 -4.01542,1.03144 -5.95197,1.32326 -1.93655,0.29182 -4.20005,0.85897 -5.03,1.26032 -0.82995,0.40135 -2.81051,0.9781 -4.40125,1.28168 -1.59074,0.30357 -2.89225,0.75921 -2.89225,1.01254 0,0.25332 -0.84881,0.81052 -1.88625,1.23823 -1.03744,0.4277 -2.1126,1.05838 -2.38925,1.40151 -0.27665,0.34312 -1.74792,1.40573 -3.2695,2.36135 -1.52158,0.95561 -2.99285,1.98824 -3.2695,2.29473 -0.27665,0.30649 -1.63028,1.44342 -3.00807,2.52651 -1.37778,1.08309 -4.09398,3.51606 -6.036,5.4066 -1.94201,1.89054 -3.77345,3.58817 -4.06986,3.7725 -0.29641,0.18434 -1.04446,1.39426 -1.66234,2.68872 -1.03929,2.17731 -1.12117,3.03822 -1.09333,11.49532 0.0165,5.02796 0.1555,9.34467 0.30878,9.59268 -0.0807,6.96214 0.37548,10.41185 -3.62303,15.74155 -0.24025,1.28059 -6.4754,4.41251 -7.71811,3.77424 -1.13747,0.94325 -7.82775,-0.0941 -10.16428,-1.1291 -2.76956,-1.22679 -4.73919,-4.31134 -6.4744,-10.13931 -0.32948,-1.1066 -0.88563,-2.35152 -1.2359,-2.7665 -0.87619,-1.03806 -2.72252,-7.56057 -3.34603,-11.8205 -0.82519,-5.63786 -0.12747,-22.08699 1.09981,-25.92874 0.54905,-1.71864 0.99826,-3.49479 0.99826,-3.94698 0,-0.4522 0.41937,-1.61105 0.93194,-2.57523 0.51257,-0.96417 1.2115,-2.93017 1.55319,-4.36888 0.34169,-1.43871 0.94089,-2.88112 1.33156,-3.20535 0.39067,-0.32422 0.71031,-0.78473 0.71031,-1.02335 0,-0.6544 3.06925,-5.57894 4.24759,-6.81516 0.9024,-0.94672 2.86482,-3.32752 3.75506,-4.55564 0.50139,-0.69166 5.44519,-4.67117 5.80307,-4.67117 0.18514,0 1.29273,-0.96198 2.46131,-2.13775 1.16857,-1.17576 3.08008,-2.79145 4.24777,-3.59041 1.1677,-0.79896 2.64457,-1.93071 3.28194,-2.515 1.66531,-1.52663 4.46324,-3.88149 6.34215,-5.33784 0.89231,-0.69162 2.48236,-1.99313 3.53345,-2.89225 1.0511,-0.89911 2.16659,-1.63475 2.47887,-1.63475 0.31229,0 0.56779,-0.20879 0.56779,-0.46399 0,-0.25519 0.80353,-0.72918 1.78562,-1.0533 0.98209,-0.32412 2.37324,-1.13389 3.09145,-1.7995 0.71821,-0.66562 1.61876,-1.21021 2.00122,-1.21021 1.05713,0 6.66901,-3.00707 10.0068,-5.36205 0.84897,-0.59899 2.52407,-1.35309 3.72245,-1.67578 1.19837,-0.32269 2.47917,-0.88702 2.84621,-1.25406 1.54468,-1.54468 7.48775,-1.94545 20.55875,-1.38637 10.95355,0.4685 12.8772,0.67357 14.91867,1.59043 1.28902,0.57892 3.43934,1.19604 4.7785,1.37139 1.33916,0.17534 3.00071,0.59347 3.69233,0.92916 0.69162,0.3357 2.38925,0.88677 3.7725,1.2246 1.38325,0.33783 2.85452,0.90196 3.2695,1.25361 0.9538,0.80826 6.72921,3.07246 9.054,3.54954 0.96827,0.19871 2.27937,0.69009 2.91354,1.09196 1.06028,0.67188 6.59791,2.11086 12.212,3.17333 1.26447,0.2393 6.58369,0.69018 11.8205,1.00195 5.2368,0.31177 11.44544,0.77781 13.79696,1.03565 2.35152,0.25784 12.08457,0.70935 21.629,1.00335 21.11699,0.65047 19.30497,-0.18331 19.83604,9.12745 0.19488,3.41679 0.68644,8.58902 1.09236,11.49384 0.40591,2.90483 0.95319,8.4504 1.21617,12.3235 0.26298,3.8731 0.81467,8.73963 1.22598,10.8145 1.09875,5.54272 1.90928,16.59099 1.27337,17.35721 -0.28407,0.34229 -2.37606,0.78455 -4.64888,0.98281 -2.27282,0.19826 -4.52865,0.57255 -5.01297,0.83175 -0.48432,0.25919 -2.69205,0.69841 -4.90608,0.97602 -2.21403,0.27762 -5.06611,0.95081 -6.33795,1.49599 -1.27185,0.54517 -2.71585,0.99122 -3.20891,0.99122 -0.49305,0 -1.43628,0.41138 -2.09605,0.91418 -0.65977,0.5028 -1.99181,1.22789 -2.96008,1.6113 -0.96827,0.38343 -1.98685,0.96479 -2.2635,1.29193 -0.61248,0.72425 -7.43277,2.93725 -11.569,3.75382 -1.6599,0.3277 -3.9234,0.89707 -5.03,1.26528 -1.1066,0.36821 -3.88011,0.90255 -6.16335,1.18743 -2.28324,0.28488 -4.65992,0.84832 -5.2815,1.25209 -0.62158,0.40377 -3.1673,0.9897 -5.65715,1.30207 -2.48985,0.31236 -5.65875,0.94617 -7.042,1.40847 -3.49249,1.16722 -14.96302,1.15146 -18.8625,-0.0259 -4.17513,-1.2606 -17.34265,-2.08595 -23.07267,-1.44621 -2.59142,0.28933 -5.19411,0.83957 -5.78375,1.22276 -0.58964,0.3832 -2.60275,0.98367 -4.47357,1.33439 -1.87083,0.35071 -3.51452,0.82055 -3.65267,1.04407 -0.13815,0.22352 -1.43685,0.7966 -2.88601,1.27351 -1.44915,0.4769 -3.17464,1.28644 -3.83441,1.79896 -0.65977,0.51252 -1.38192,0.93186 -1.60476,0.93186 -0.22284,0 -3.2237,1.89414 -6.66857,4.20921 -9.57766,6.4365 -11.68286,7.35979 -16.78113,7.35979 C 9.73021,817.57076 15.06508,808.44459 15.64277,800.64801 Z"
         style="fill:#000000" />
      <path
         style="fill:#000000"
         d="m -46.0579,1059.5634 c -0.96828,-0.2188 -4.25035,-0.8328 -7.2935,-1.3645 -3.04315,-0.5317 -5.9857,-1.2166 -6.539,-1.5221 -0.5533,-0.3055 -1.9114,-0.7813 -3.018,-1.0574 -2.76459,-0.6896 -7.78405,-2.6673 -9.3055,-3.6662 -0.69162,-0.4542 -1.82337,-0.9936 -2.515,-1.1988 -0.69162,-0.2051 -1.77742,-0.7789 -2.41287,-1.2751 -0.63546,-0.4961 -1.82379,-1.0488 -2.64075,-1.2282 -0.81696,-0.1795 -1.48538,-0.5239 -1.48538,-0.7654 0,-0.2415 -1.98056,-1.3593 -4.40125,-2.4839 -2.42069,-1.1246 -4.74078,-2.2571 -5.15575,-2.5166 -2.7818,-1.7395 -7.24218,-4.0685 -8.30046,-4.3341 -0.6924,-0.1738 -2.09846,-0.744 -3.12458,-1.2672 -1.02612,-0.5231 -2.21392,-0.952 -2.63956,-0.953 -0.42565,-10e-4 -2.132,-0.6793 -3.7919,-1.5071 -1.6599,-0.8279 -3.36884,-1.5061 -3.79765,-1.5072 -0.42881,-10e-4 -1.05182,-0.274 -1.38448,-0.6067 -1.31175,-1.3117 -9.5365,-3.9059 -17.20137,-5.4254 -1.24492,-0.2469 -4.54031,-0.4623 -7.3231,-0.4788 -6.69191,-0.04 -6.89005,-0.1951 -6.81259,-5.3455 0.033,-2.1945 0.26557,-5.2482 0.51682,-6.786 0.25125,-1.5378 0.71675,-6.857 1.03445,-11.8205 0.31769,-4.96344 0.89865,-10.26937 1.29102,-11.79095 0.39237,-1.52157 1.02261,-6.64473 1.40053,-11.38479 0.85906,-10.77474 0.99206,-11.02069 6.97673,-12.90158 4.74951,-1.4927 9.40528,-1.90798 23.76394,-2.11963 12.62322,-0.18608 18.3934,0.34766 21.6152,1.99939 1.36097,0.69774 2.7677,1.26861 3.12605,1.26861 0.35836,0 0.89383,0.4527 1.18995,1.006 0.29612,0.5533 0.83487,1.006 1.19724,1.006 0.36236,0 1.04981,0.43202 1.52767,0.96004 0.47785,0.52802 1.58809,1.24435 2.4672,1.59184 0.87912,0.3475 1.93791,0.91376 2.35289,1.25837 0.41497,0.34461 2.06758,1.00581 3.67245,1.46932 1.60488,0.46352 3.5075,1.14862 4.22805,1.52245 0.72055,0.37382 2.79382,0.83857 4.60727,1.03278 1.81345,0.1942 3.9852,0.64057 4.82609,0.99191 2.32894,0.9731 19.41997,2.39339 36.23564,3.01125 12.43587,0.45693 19.28742,1.78958 25.29388,4.91974 3.73356,1.94567 4.62977,3.61694 4.63523,8.6438 0.003,2.55537 -0.31351,4.91084 -0.8666,6.45395 -0.96969,2.7053 -4.06681,6.2792 -6.55772,7.5673 -0.89666,0.4637 -1.63029,1.0273 -1.63029,1.2524 0,0.2252 -0.56588,0.6672 -1.2575,0.9823 -1.70172,0.7754 -1.66989,2.4839 0.0543,2.9166 1.99531,0.5008 11.14332,-0.2667 13.47548,-1.1306 1.13476,-0.4204 3.52332,-1.0928 5.30793,-1.4943 1.7846,-0.4015 3.61323,-1.0635 4.0636,-1.4711 0.45038,-0.4076 1.26589,-0.741 1.81226,-0.741 0.54636,0 2.11298,-0.5404 3.48139,-1.2009 1.36841,-0.6604 3.80933,-1.7887 5.42428,-2.5073 1.61494,-0.7186 3.57356,-1.8192 4.35248,-2.4459 0.77892,-0.6267 2.58885,-1.8185 4.02206,-2.6484 1.43321,-0.83 2.88404,-1.76575 3.22405,-2.07951 0.34001,-0.31375 1.50942,-1.05478 2.59867,-1.64672 1.08926,-0.59194 2.77269,-1.58254 3.74097,-2.20134 0.96827,-0.61879 2.53159,-1.57539 3.47402,-2.12577 0.94245,-0.55039 2.13078,-1.39682 2.64075,-1.88096 0.50998,-0.48413 1.12053,-0.88025 1.35678,-0.88025 0.23625,0 1.04067,-0.56636 1.7876,-1.25859 0.74692,-0.69223 2.0249,-1.60344 2.83995,-2.02492 0.81504,-0.42147 1.4819,-0.96232 1.4819,-1.20187 0,-0.23956 0.54843,-0.57321 1.21873,-0.74144 0.67031,-0.16823 1.85864,-0.82405 2.64075,-1.45736 0.78211,-0.63332 2.0793,-1.43662 2.88264,-1.78512 0.80335,-0.3485 2.61415,-1.38596 4.024,-2.30545 1.40986,-0.91951 3.24243,-1.83153 4.07238,-2.02673 0.82995,-0.19519 1.88249,-0.69139 2.33897,-1.10266 0.79794,-0.71892 4.61899,-1.5149 13.30263,-2.77115 6.72455,-0.97283 15.80999,0.83483 19.03281,3.78681 1.89638,1.73702 1.9127,1.78461 1.70897,4.98408 -0.2315,3.63566 -1.20483,5.17451 -5.38104,8.50755 -1.28224,1.02335 -2.67755,2.16179 -3.1007,2.52986 -0.74566,0.6486 -2.53878,1.89683 -7.78164,5.417 -1.38325,0.92875 -2.85453,1.98674 -3.2695,2.35114 -2.24117,1.968 -4.08777,3.2248 -6.91625,4.707 -1.72906,0.9062 -3.14375,1.8034 -3.14375,1.994 0,0.1905 -2.20691,1.8928 -4.90425,3.7828 -2.69734,1.89 -5.01743,3.5992 -5.15575,3.7982 -0.13833,0.1991 -1.49643,1.2735 -3.018,2.3878 -3.55696,2.6046 -4.32144,3.2633 -10.04472,8.6541 -2.6613,2.5067 -5.36994,4.6198 -6.13813,4.7885 -0.7562,0.1661 -1.89482,0.6977 -2.53028,1.1814 -0.63545,0.4837 -1.9476,1.185 -2.91587,1.5585 -0.96828,0.3735 -2.0278,0.8823 -2.35451,1.1306 -0.94746,0.7201 -8.61906,4.4099 -9.16873,4.4099 -0.27432,0 -0.67978,0.3076 -0.90102,0.6834 -0.22123,0.3758 -1.2479,0.9582 -2.28148,1.2942 -1.03359,0.336 -2.00519,0.8146 -2.15912,1.0637 -0.15393,0.249 -1.11907,0.8364 -2.14476,1.3051 -1.02568,0.4688 -2.2044,1.1166 -2.61938,1.4396 -0.41498,0.3231 -1.54672,0.8883 -2.515,1.256 -0.96827,0.3678 -2.10002,0.9326 -2.515,1.2551 -0.41497,0.3226 -1.82966,0.9831 -3.14375,1.4678 -1.31409,0.4847 -2.38925,1.0638 -2.38925,1.2868 0,0.223 -0.76926,0.5497 -1.70947,0.7261 -0.94021,0.1764 -2.25959,0.7534 -2.93195,1.2823 -0.67236,0.5289 -1.88366,1.1192 -2.69178,1.3118 -0.80811,0.1927 -1.80882,0.6315 -2.2238,0.9752 -0.41497,0.3437 -1.99943,1.2324 -3.521,1.975 -2.27018,1.1079 -3.89449,1.4385 -9.054,1.8426 -3.45812,0.2708 -7.95275,0.8229 -9.98805,1.2269 -4.03947,0.8017 -26.94083,0.9691 -30.25195,0.2211 z"
         id="path3591"
         inkscape:connector-curvature="0"
         sodipodi:nodetypes="cssscsscssscscscssssssssssssssssssssssscssssssssssssscssscsssssssscssssssssssssssssscsscssscssscsssssscc" />
    </g>
  </g>
</svg>
