<?xml version="1.0" encoding="UTF-8" standalone="no"?>
<svg
   xmlns:dc="http://purl.org/dc/elements/1.1/"
   xmlns:cc="http://creativecommons.org/ns#"
   xmlns:rdf="http://www.w3.org/1999/02/22-rdf-syntax-ns#"
   xmlns:svg="http://www.w3.org/2000/svg"
   xmlns="http://www.w3.org/2000/svg"
   xmlns:sodipodi="http://sodipodi.sourceforge.net/DTD/sodipodi-0.dtd"
   xmlns:inkscape="http://www.inkscape.org/namespaces/inkscape"
   width="300"
   height="300"
   viewBox="-50 -30 30.000002 29.999999"
   id="svg2"
   version="1.1"
   inkscape:version="0.91 r13725"
   sodipodi:docname="France_road_sign_M5.svg">
  <metadata
     id="metadata14">
    <rdf:RDF>
      <cc:Work
         rdf:about="">
        <dc:format>image/svg+xml</dc:format>
        <dc:type
           rdf:resource="http://purl.org/dc/dcmitype/StillImage" />
        <dc:title />
      </cc:Work>
    </rdf:RDF>
  </metadata>
  <defs
     id="defs12" />
  <sodipodi:namedview
     pagecolor="#ffffff"
     bordercolor="#666666"
     borderopacity="1"
     objecttolerance="10"
     gridtolerance="10"
     guidetolerance="10"
     inkscape:pageopacity="0"
     inkscape:pageshadow="2"
     inkscape:window-width="1440"
     inkscape:window-height="788"
     id="namedview10"
     showgrid="false"
     fit-margin-top="1.5"
     fit-margin-left="1.5"
     fit-margin-right="1.5"
     fit-margin-bottom="1.5"
     inkscape:zoom="1.4662036"
     inkscape:cx="93.842365"
     inkscape:cy="99.392654"
     inkscape:window-x="0"
     inkscape:window-y="1"
     inkscape:window-maximized="1"
     inkscape:current-layer="svg2"
     showguides="true"
     inkscape:guide-bbox="true" />
  <path
     style="fill:#ffffff;fill-opacity:1;stroke:#000000;stroke-width:0.22058831;stroke-miterlimit:4;stroke-dasharray:none;stroke-opacity:1"
     d="m -49.889698,-3.0198213 c 0,1.60743 1.302089,2.90952703 2.909537,2.90952703 l 23.960337,0 c 1.607446,0 2.909533,-1.30209703 2.909533,-2.90952703 l -5e-6,-23.9603307 c 0,-1.607449 -1.302082,-2.909528 -2.909533,-2.909529 l -23.960351,-9e-6 c -1.607439,-10e-7 -2.909526,1.302089 -2.909526,2.909529 z"
     id="rect3154"
     inkscape:connector-curvature="0"
     sodipodi:nodetypes="sssssssss" />
  <g
     id="g4176"
     transform="translate(-0.1225042,0)">
    <path
       sodipodi:nodetypes="ccsccccccscccssccccscc"
       inkscape:connector-curvature="0"
       id="path37841"
       d="m -23.623047,-9.4817683 c -0.534181,-0.062501 -1.103213,0.2516322 -1.410156,0.6210937 -0.252296,-0.3628995 -0.593971,-0.5538765 -0.941406,-0.5859375 -0.330729,-0.030519 -0.644685,0.086538 -0.896485,0.2539062 l 0,-0.2519531 -0.957031,0 0,3.7832031 0.962891,0 -0.0059,-2.1464843 c 0,-0.5216592 0.294071,-0.7490494 0.585938,-0.7441407 0.291866,0.00491 0.591876,0.2467398 0.59375,0.7460938 l 0,2.1445312 0.957031,0 0,-2.1464843 c 0,-0.5042841 0.298986,-0.7363281 0.59375,-0.7363281 0.294764,0 0.59375,0.232044 0.59375,0.7363281 l 0.0039,2.1464843 0.962891,0 -0.0078,-2.1464843 c -0.002,-0.5705226 -0.119732,-0.9712259 -0.308593,-1.2402344 -0.188862,-0.2690085 -0.450672,-0.4013137 -0.726563,-0.4335937 z"
       style="color:#000000;font-style:normal;font-variant:normal;font-weight:normal;font-stretch:normal;font-size:medium;line-height:normal;font-family:sans-serif;text-indent:0;text-align:start;text-decoration:none;text-decoration-line:none;text-decoration-style:solid;text-decoration-color:#000000;letter-spacing:normal;word-spacing:normal;text-transform:none;direction:ltr;block-progression:tb;writing-mode:lr-tb;baseline-shift:baseline;text-anchor:start;white-space:normal;clip-rule:nonzero;display:inline;overflow:visible;visibility:visible;opacity:1;isolation:auto;mix-blend-mode:normal;color-interpolation:sRGB;color-interpolation-filters:linearRGB;solid-color:#000000;solid-opacity:1;fill:#000000;fill-opacity:1;fill-rule:evenodd;stroke:none;stroke-width:0.1;stroke-linecap:butt;stroke-linejoin:miter;stroke-miterlimit:4;stroke-dasharray:none;stroke-dashoffset:0;stroke-opacity:1;color-rendering:auto;image-rendering:auto;shape-rendering:auto;text-rendering:auto;enable-background:accumulate" />
    <g
       transform="matrix(0.87685337,0,0,0.87685337,-0.89355471,-2.2293394)"
       style="font-style:normal;font-weight:normal;font-size:1.125px;line-height:125%;font-family:sans-serif;letter-spacing:0px;word-spacing:0px;fill:#000000;fill-opacity:1;stroke:none;stroke-width:1px;stroke-linecap:butt;stroke-linejoin:miter;stroke-opacity:1"
       id="flowRoot4142">
      <path
         d="m -52.781128,-18.46808 0,-0.01099 q 0,-0.06043 0.126343,-0.0824 0.97229,-0.31311 1.263428,-0.450439 0.148315,0.203247 0.390014,0.368042 0.390015,0.230713 0.834961,0.280151 0.472413,0.01099 0.587769,-0.02197 0.543823,-0.153809 0.670166,-0.313111 0.126343,-0.109863 0.219727,-0.532837 0.02197,-0.164795 -0.04395,-0.368042 -0.0824,-0.137329 -0.175781,-0.230713 l -0.186768,-0.142822 -0.20874,-0.09338 q -1.741333,-0.543823 -1.917114,-0.637207 -0.807495,-0.324096 -1.203003,-1.071167 -0.258179,-0.499878 -0.230713,-1.213989 0.10437,-0.889893 0.730591,-1.411743 0.703125,-0.510865 1.466675,-0.55481 l 0.142822,0 q 0.543823,0 0.900879,0.0824 0.725098,0.203247 1.131592,0.565796 0.406494,0.335083 0.670166,0.911866 l -0.01648,0.06042 -1.131591,0.543824 -0.05493,-0.02747 q -0.10437,-0.335083 -0.587769,-0.543823 -0.543823,-0.203247 -1.274414,-0.01099 -0.31311,0.10437 -0.439453,0.269165 -0.04395,0.04395 -0.115357,0.274659 -0.01099,0.269165 0.02197,0.31311 0.07141,0.186768 0.285645,0.335083 l 0.142822,0.06042 q 1.560059,0.461426 2.114868,0.670166 0.477906,0.219726 0.730591,0.483398 l 0.307617,0.417481 q 0.340577,0.565796 0.362549,1.235962 0.0055,0.04395 0.0055,0.10437 0,0.214233 -0.06592,0.576782 -0.137329,0.510865 -0.329589,0.752564 -0.32959,0.406494 -0.477906,0.488891 -0.807495,0.55481 -1.664429,0.598755 l -0.499878,0 q -0.560302,-0.05493 -0.944824,-0.219726 -0.615234,-0.285645 -0.994263,-0.637207 -0.31311,-0.285645 -0.543823,-0.818482 z"
         style="font-style:normal;font-variant:normal;font-weight:500;font-stretch:normal;font-size:11.25000095px;font-family:'Caracteres L1';-inkscape-font-specification:'Caracteres L1 Medium';letter-spacing:1.48257411px;fill:#000000"
         id="path4144" />
      <path
         d="m -40.339691,-24.884096 0,1.549072 -1.609497,0 0,6.5094 -1.494141,0 0,-6.525879 -1.71936,0 0,-1.532593 4.822998,0 z"
         style="font-style:normal;font-variant:normal;font-weight:500;font-stretch:normal;font-size:11.25000095px;font-family:'Caracteres L1';-inkscape-font-specification:'Caracteres L1 Medium';letter-spacing:1.48257411px;fill:#000000"
         id="path4146" />
      <path
         d="m -34.907531,-24.97748 q 1.329345,0.203247 1.966552,1.571045 0.543824,1.010743 0.543824,2.482911 l 0,0.09888 q 0,1.84021 -0.895386,3.131103 -0.637207,0.86792 -1.801758,0.972291 -0.12085,0.01099 -0.236206,0.01099 -1.208496,0 -2.026978,-1.021729 -0.845947,-1.362305 -0.856933,-2.79602 -0.0055,-0.12085 -0.0055,-0.2417 0,-1.939087 0.862427,-3.208008 0.576782,-0.692139 1.203003,-0.884399 0.43396,-0.137329 0.86792,-0.137329 0.192261,0 0.379029,0.02197 z m -0.422974,6.860963 q 0.637207,-0.03296 1.07666,-0.873413 0.318604,-0.560303 0.401001,-1.64795 0.01648,-1.384277 -0.488891,-2.268677 -0.411988,-0.615234 -0.911866,-0.686645 -0.65918,0.03296 -1.098633,0.862427 -0.31311,0.582275 -0.406494,1.669922 -0.01099,1.384277 0.499878,2.263183 0.406494,0.615235 0.928345,0.681153 z"
         style="font-style:normal;font-variant:normal;font-weight:500;font-stretch:normal;font-size:11.25000095px;font-family:'Caracteres L1';-inkscape-font-specification:'Caracteres L1 Medium';letter-spacing:1.48257411px;fill:#000000"
         id="path4148" />
      <path
         d="m -27.107818,-24.889589 q 0.703125,0.0769 1.241455,0.505371 0.543823,0.428467 0.780029,0.966797 0.296631,0.576782 0.296631,1.235962 0,0.307617 -0.0055,0.401001 -0.04395,0.758057 -0.31311,1.263428 -0.269165,0.505371 -0.587769,0.774536 -0.692139,0.631714 -1.455689,0.6427 l -1.527099,0 0,2.257691 -1.505127,0 0,-8.047486 3.076172,0 z m -1.549073,4.185791 1.241455,0 q 0.285645,-0.03296 0.472413,-0.142822 0.505371,-0.302124 0.604248,-1.049194 0.01648,-0.67566 -0.274659,-1.027222 -0.291137,-0.351563 -0.774536,-0.401001 l -1.268921,0 0,2.620239 z"
         style="font-style:normal;font-variant:normal;font-weight:500;font-stretch:normal;font-size:11.25000095px;font-family:'Caracteres L1';-inkscape-font-specification:'Caracteres L1 Medium';letter-spacing:1.48257411px;fill:#000000"
         id="path4150" />
    </g>
    <g
       transform="matrix(1.0521232,0,0,1.0521232,1.2624269,10.035501)"
       style="font-style:normal;font-weight:normal;font-size:0.98646003px;line-height:125%;font-family:sans-serif;letter-spacing:0px;word-spacing:0px;fill:#000000;fill-opacity:1;stroke:none;stroke-width:1px;stroke-linecap:butt;stroke-linejoin:miter;stroke-opacity:1"
       id="flowRoot4158">
      <path
         d="m -43.292142,-22.057664 0,7.075732 -1.34386,0 0.0048,-4.994917 -0.01927,0 q -0.01445,0.06262 -0.346802,0.274552 l -0.419053,0.221568 -0.375703,0.144501 q -0.226384,0.04817 -0.245651,0.07225 l 0,-1.493177 0.298635,-0.139684 q 0.746589,-0.476853 1.074124,-1.160825 l 1.37276,0 z"
         style="font-style:normal;font-variant:normal;font-weight:500;font-stretch:normal;font-size:9.86460114px;font-family:'Caracteres L1';-inkscape-font-specification:'Caracteres L1 Medium';letter-spacing:0.47522953px;fill:#000000"
         id="path4153" />
      <path
         d="m -36.338451,-22.06248 -0.0048,1.353492 -2.37945,0 -0.163768,1.204175 q 0.337169,-0.09633 0.712872,-0.08188 0.351619,-0.0096 0.717688,0.07707 0.529837,0.168584 0.944073,0.592454 0.573188,0.626171 0.650255,1.387209 0.0048,0.110784 0.0048,0.216752 0,0.462403 -0.120418,0.799572 -0.221568,0.515387 -0.606904,0.924806 -0.635804,0.597271 -1.550977,0.597271 l -0.09633,0 -0.443137,-0.0289 q -0.693605,-0.07707 -1.204175,-0.486487 -0.659888,-0.606904 -0.814022,-1.247525 l 1.38721,-0.351619 q 0.06262,0.284185 0.327535,0.51057 0.399786,0.293819 1.127108,0.120417 0.602087,-0.245651 0.563554,-0.857372 0.01445,-0.553921 -0.500937,-0.785122 -0.356436,-0.105968 -0.804389,-0.0578 -0.341986,0.07225 -0.611721,0.264919 l -1.199358,-0.939257 0.356436,-3.212738 3.708859,0 z"
         style="font-style:normal;font-variant:normal;font-weight:500;font-stretch:normal;font-size:9.86460114px;font-family:'Caracteres L1';-inkscape-font-specification:'Caracteres L1 Medium';letter-spacing:0.47522953px;fill:#000000"
         id="path4155" />
      <path
         d="m -32.409648,-16.311341 q 0.298636,0.01927 0.370886,-0.0096 l 0.0048,0.0096 0.264918,-0.0578 q 0.317902,-0.105968 0.486487,-0.457587 0.130051,-0.351619 0.192668,-0.838105 l 0.02408,-1.088575 -0.01445,-0.51057 -0.04817,-0.380519 -0.01927,-0.01927 -0.06262,-0.269735 -0.01927,-0.0096 q -0.07225,-0.289002 -0.274552,-0.534654 -0.154135,-0.125234 -0.245652,-0.163768 l -0.279369,-0.06743 -0.293818,-0.01445 q -0.197485,-0.0048 -0.43832,0.08188 -0.221568,0.105968 -0.370886,0.380519 -0.105967,0.255286 -0.192668,0.640621 l 0.0096,0.0289 q -0.0289,0.02408 -0.03372,0.158951 -0.06743,0.563554 -0.01445,1.652128 l 0.07707,0.52502 0.101151,0.370886 q 0.110784,0.289002 0.303452,0.419053 0.173401,0.110784 0.472036,0.154134 z m -2.398716,-1.454643 q -0.01445,-0.269735 -0.01445,-0.529837 0,-0.130051 0.0048,-0.260102 0.01445,-0.51057 0.08188,-0.99224 l 0,-0.03372 0.01927,-0.04335 0.03372,-0.332352 0.02408,-0.04817 0.04817,-0.269736 0.01927,-0.0289 q 0.07225,-0.346802 0.313086,-0.780305 l 0.139684,-0.211935 0.269735,-0.274552 q 0.428686,-0.346802 1.112658,-0.49612 0.216751,-0.03853 0.447953,-0.03853 l 0.03853,0 q 0.361253,0.0096 0.756222,0.120418 0.163768,0.01927 0.525021,0.216751 0.370885,0.231202 0.674338,0.630988 l 0.154134,0.236018 0.125234,0.264919 0.05298,0.192668 0.01445,0.01445 0,0.04817 q 0.04817,0.101151 0.0578,0.158951 l 0.01927,0.02408 0.08188,0.428686 0.01445,0.0096 -0.0096,0.06262 0.01927,0.03853 0.04817,0.515387 0.01927,0.04817 -0.01445,0.0048 0.03372,0.303453 -0.0096,0.0096 q 0.01927,0.04817 0,0.0578 l 0.01445,0.04817 -0.0096,0.01445 0.02408,0.327536 -0.0096,0.0096 0.01445,0.139685 -0.0048,0.0096 0,0.192668 q -0.0048,0.178218 -0.0289,0.428686 l -0.02408,0.178218 0.0096,0.0096 -0.02408,0.04817 q -0.01445,0.178218 -0.08188,0.423869 l -0.0289,0.09152 -0.0048,0.05298 -0.125234,0.356436 -0.02408,0.01927 q 0,0.04817 -0.125235,0.293819 l -0.231201,0.332352 q -0.380519,0.438319 -0.842923,0.640621 -0.303452,0.120417 -0.61172,0.158951 l -0.370886,0.02408 -0.0867,-0.0048 q -1.098207,-0.0289 -1.772545,-0.712872 -0.332353,-0.370886 -0.500937,-0.862189 -0.192668,-0.500937 -0.236019,-1.054857 l -0.01927,-0.211935 z"
         style="font-style:normal;font-variant:normal;font-weight:500;font-stretch:normal;font-size:9.86460114px;font-family:'Caracteres L1';-inkscape-font-specification:'Caracteres L1 Medium';letter-spacing:0.47522953px;fill:#000000"
         id="path4157" />
    </g>
  </g>
</svg>
