<?xml version="1.0" encoding="UTF-8" standalone="no"?>
<!-- Generator: Adobe Illustrator 13.0.0, SVG Export Plug-In  -->

<svg
   xmlns:dc="http://purl.org/dc/elements/1.1/"
   xmlns:cc="http://creativecommons.org/ns#"
   xmlns:rdf="http://www.w3.org/1999/02/22-rdf-syntax-ns#"
   xmlns:svg="http://www.w3.org/2000/svg"
   xmlns="http://www.w3.org/2000/svg"
   xmlns:sodipodi="http://sodipodi.sourceforge.net/DTD/sodipodi-0.dtd"
   xmlns:inkscape="http://www.inkscape.org/namespaces/inkscape"
   version="1.1"
   x="0px"
   y="0px"
   width="640"
   height="187.5"
   viewBox="-0.082 -0.083 640 187.5"
   enable-background="new -0.082 -0.083 390 198"
   xml:space="preserve"
   id="svg2"
   inkscape:version="0.91 r13725"
   sodipodi:docname="France_road_sign_M6b copie.svg"><metadata
     id="metadata52"><rdf:RDF><cc:Work
         rdf:about=""><dc:format>image/svg+xml</dc:format><dc:type
           rdf:resource="http://purl.org/dc/dcmitype/StillImage" /><dc:title /></cc:Work></rdf:RDF></metadata><sodipodi:namedview
     pagecolor="#ffffff"
     bordercolor="#666666"
     borderopacity="1"
     objecttolerance="10"
     gridtolerance="10"
     guidetolerance="10"
     inkscape:pageopacity="0"
     inkscape:pageshadow="2"
     inkscape:window-width="1440"
     inkscape:window-height="788"
     id="namedview50"
     showgrid="false"
     inkscape:zoom="1.3111921"
     inkscape:cx="270.61525"
     inkscape:cy="106.00412"
     inkscape:window-x="0"
     inkscape:window-y="1"
     inkscape:window-maximized="1"
     inkscape:current-layer="svg2" /><defs
     id="defs4"><inkscape:perspective
       sodipodi:type="inkscape:persp3d"
       inkscape:vp_x="0 : 99 : 1"
       inkscape:vp_y="0 : 1000 : 0"
       inkscape:vp_z="390 : 99 : 1"
       inkscape:persp3d-origin="195 : 66 : 1"
       id="perspective4308" /></defs><path
     style="opacity:1;fill:#ffffff;fill-opacity:1;fill-rule:evenodd;stroke:#000000;stroke-width:3.99999022;stroke-linecap:round;stroke-linejoin:round;stroke-miterlimit:4;stroke-dasharray:none;stroke-dashoffset:0;stroke-opacity:1"
     d="m 32.445297,1.9938585 574.945693,0 c 16.91205,0 30.52716,13.6151095 30.52716,30.5271515 l 0,122.36899 c 0,16.91204 -13.61511,30.52715 -30.52716,30.52715 l -574.945693,0 c -16.912042,0 -30.5271512,-13.61511 -30.5271512,-30.52715 l 0,-122.36899 c 0,-16.912042 13.6151092,-30.5271515 30.5271512,-30.5271515 z"
     id="rect4365" /><g
     transform="matrix(1.130826,0,0,1.130826,783.88576,-10.204012)"
     style="font-style:normal;font-weight:normal;font-size:11.25px;line-height:125%;font-family:sans-serif;letter-spacing:0px;word-spacing:0px;fill:#000000;fill-opacity:1;stroke:none;stroke-width:1px;stroke-linecap:butt;stroke-linejoin:miter;stroke-opacity:1"
     id="flowRoot4216"><path
       d="m -568.55615,31.304756 0,53.686523 -10.18067,0 0,-53.686523 10.18067,0 z"
       style="font-style:normal;font-variant:normal;font-weight:500;font-stretch:normal;font-size:75px;font-family:'Caracteres L1';-inkscape-font-specification:'Caracteres L1 Medium';letter-spacing:10.61171246px;fill:#000000;stroke:none"
       id="path4191" /><path
       d="m -538.75499,31.231514 13.47657,28.637695 0,-28.637695 9.96093,0 0.0366,53.759765 -9.77784,0 -16.36963,-33.874511 -0.0366,33.911132 -10.0708,0 0,-53.796386 12.78076,0 z"
       style="font-style:normal;font-variant:normal;font-weight:500;font-stretch:normal;font-size:75px;font-family:'Caracteres L1';-inkscape-font-specification:'Caracteres L1 Medium';letter-spacing:10.61171246px;fill:#000000;stroke:none"
       id="path4193" /><path
       d="m -467.16915,31.268135 0,10.327148 -10.72998,0 0,43.395996 -9.96094,0 0,-43.505859 -11.4624,0 0,-10.217285 32.15332,0 z"
       style="font-style:normal;font-variant:normal;font-weight:500;font-stretch:normal;font-size:75px;font-family:'Caracteres L1';-inkscape-font-specification:'Caracteres L1 Medium';letter-spacing:10.61171246px;fill:#000000;stroke:none"
       id="path4195" /><path
       d="m -419.89973,31.341377 0,9.814453 -22.19238,0 0,11.71875 16.25977,0 0,9.924317 -16.25977,0 0,12.268066 23.14453,0 0,9.924316 -33.47168,0 0.0366,-53.649902 32.48291,0 z"
       style="font-style:normal;font-variant:normal;font-weight:500;font-stretch:normal;font-size:75px;font-family:'Caracteres L1';-inkscape-font-specification:'Caracteres L1 Medium';letter-spacing:10.61171246px;fill:#000000;stroke:none"
       id="path4197" /><path
       d="m -386.1801,31.12165 q 8.45947,0 13.22022,6.079102 4.1748,5.34668 4.1748,12.04834 0,1.208496 -0.14648,2.856445 -0.87891,8.166504 -8.16651,13.513184 l 8.93555,19.335937 -11.57227,0 -7.65381,-16.003418 -6.62841,0 0,16.113282 -10.14405,0 0.0366,-53.942872 17.94434,0 z m -1.46484,27.502442 3.00293,-0.366211 q 2.56347,-0.695801 4.28466,-2.893066 1.46485,-2.160645 1.75782,-5.163575 0.14648,-3.735351 -2.19727,-6.518554 -1.97754,-2.270508 -5.74951,-2.563477 l -7.36084,0 0,17.504883 6.26221,0 z"
       style="font-style:normal;font-variant:normal;font-weight:500;font-stretch:normal;font-size:75px;font-family:'Caracteres L1';-inkscape-font-specification:'Caracteres L1 Medium';letter-spacing:10.61171246px;fill:#000000;stroke:none"
       id="path4199" /><path
       d="m -332.02591,31.12165 q 5.27344,0.622559 8.93555,4.211426 3.69873,3.588867 5.34668,8.496094 0.76904,2.160645 1.13525,5.67627 l 0,16.479492 q -0.54932,8.349609 -5.27344,13.476562 -4.6875,5.126953 -11.42578,5.456543 l -21.24023,0 0.0366,-53.796387 22.48535,0 z m -12.01172,43.212891 8.56934,0 q 2.6001,-0.402832 4.43115,-1.904297 1.83105,-1.538086 3.11279,-5.346679 0.6958,-2.34375 0.40284,-17.06543 -1.7212,-7.617188 -7.94678,-8.752442 l -8.56934,0 0,33.068848 z"
       style="font-style:normal;font-variant:normal;font-weight:500;font-stretch:normal;font-size:75px;font-family:'Caracteres L1';-inkscape-font-specification:'Caracteres L1 Medium';letter-spacing:10.61171246px;fill:#000000;stroke:none"
       id="path4201" /><path
       d="m -290.57922,31.304756 0,53.686523 -10.18067,0 0,-53.686523 10.18067,0 z"
       style="font-style:normal;font-variant:normal;font-weight:500;font-stretch:normal;font-size:75px;font-family:'Caracteres L1';-inkscape-font-specification:'Caracteres L1 Medium';letter-spacing:10.61171246px;fill:#000000;stroke:none"
       id="path4203" /><path
       d="m -241.84497,31.268135 0,10.327148 -10.72998,0 0,43.395996 -9.96094,0 0,-43.505859 -11.4624,0 0,-10.217285 32.15332,0 z"
       style="font-style:normal;font-variant:normal;font-weight:500;font-stretch:normal;font-size:75px;font-family:'Caracteres L1';-inkscape-font-specification:'Caracteres L1 Medium';letter-spacing:10.61171246px;fill:#000000;stroke:none"
       id="path4205" /></g><g
     style="font-style:normal;font-weight:normal;font-size:7.67481422px;line-height:125%;font-family:sans-serif;letter-spacing:0px;word-spacing:0px;fill:#000000;fill-opacity:1;stroke:none;stroke-width:1px;stroke-linecap:butt;stroke-linejoin:miter;stroke-opacity:1"
     id="flowRoot4280"><path
       d="m 43.825358,125.42084 q 3.597569,0.42471 6.095881,2.87305 2.523295,2.44835 3.647535,5.79609 0.524646,1.474 0.774477,3.87238 l 0,11.24241 q -0.374747,5.69615 -3.597569,9.19378 -3.197839,3.49764 -7.794733,3.72249 l -14.490209,0 0.02498,-36.7002 15.339635,0 z m -8.194463,29.48008 5.84605,0 q 1.773801,-0.27482 3.022957,-1.29913 1.249156,-1.04929 2.123565,-3.64753 0.47468,-1.59892 0.274815,-11.64213 -1.174207,-5.19649 -5.421337,-5.97097 l -5.84605,0 0,22.55976 z"
       style="font-style:normal;font-variant:normal;font-weight:500;font-stretch:normal;font-size:51.16542816px;font-family:'Caracteres L1';-inkscape-font-specification:'Caracteres L1 Medium';letter-spacing:7.23937082px;fill:#000000;stroke:none"
       id="path4208" /><path
       d="m 72.000583,125.59572 0,24.78325 q 0.474679,4.74679 5.346388,5.29642 4.796758,-0.52464 5.396353,-5.22147 l 0,-24.8582 7.070223,0 0,26.70695 q -0.924375,4.89669 -4.621877,7.61985 -3.297772,2.32343 -6.745442,2.44835 -0.549629,0.05 -1.074274,0.05 -5.12154,0 -8.469278,-2.973 -3.822417,-3.6975 -4.047265,-7.5449 l 0,-26.30722 7.145172,0 z"
       style="font-style:normal;font-variant:normal;font-weight:500;font-stretch:normal;font-size:51.16542816px;font-family:'Caracteres L1';-inkscape-font-specification:'Caracteres L1 Medium';letter-spacing:7.23937082px;fill:#000000;stroke:none"
       id="path4210" /></g><g
     transform="matrix(0.60328089,0,0,0.60328089,556.95187,105.63063)"
     style="font-style:normal;font-weight:normal;font-size:12.72179222px;line-height:125%;font-family:sans-serif;letter-spacing:0px;word-spacing:0px;fill:#000000;fill-opacity:1;stroke:none;stroke-width:1px;stroke-linecap:butt;stroke-linejoin:miter;stroke-opacity:1"
     id="flowRoot4288"><path
       d="m -536.64513,32.930219 15.65376,60.668705 -11.88526,0 -2.60897,-10.311609 -16.77189,0 -2.65037,10.311609 -12.00951,0 15.48812,-60.668705 14.78412,0 z m -13.3347,38.803124 11.9681,0 -5.79769,-23.687712 -6.17041,23.687712 z"
       style="font-style:normal;font-variant:normal;font-weight:500;font-stretch:normal;font-size:84.81195068px;font-family:'Caracteres L1';-inkscape-font-specification:'Caracteres L1 Medium';letter-spacing:12px;fill:#000000;stroke:none"
       id="path4213" /><path
       d="m -492.17806,33.095868 0,41.080788 q 0.78683,7.868297 8.86219,8.779362 7.95112,-0.869653 8.94501,-8.655125 l 0,-41.205025 11.71962,0 0,44.269519 q -1.53225,8.116769 -7.66124,12.630686 -5.46639,3.851324 -11.18126,4.058384 -0.91107,0.08282 -1.78072,0.08282 -8.48948,0 -14.0387,-4.928039 -6.33605,-6.128988 -6.70876,-12.506449 l 0,-43.606926 11.84386,0 z"
       style="font-style:normal;font-variant:normal;font-weight:500;font-stretch:normal;font-size:84.81195068px;font-family:'Caracteres L1';-inkscape-font-specification:'Caracteres L1 Medium';letter-spacing:12px;fill:#000000;stroke:none"
       id="path4215" /></g><g
     transform="translate(855.19997,11.657842)"
     style="font-style:normal;font-weight:normal;font-size:7.67481422px;line-height:125%;font-family:sans-serif;letter-spacing:0px;word-spacing:0px;fill:#000000;fill-opacity:1;stroke:none;stroke-width:1px;stroke-linecap:butt;stroke-linejoin:miter;stroke-opacity:1"
     id="flowRoot4296"><path
       d="m -439.37581,113.4892 q 3.59757,0.42471 6.09588,2.87305 2.52329,2.44835 3.64753,5.79609 0.52465,1.474 0.77448,3.87238 l 0,11.24241 q -0.37475,5.69615 -3.59757,9.19378 -3.19784,3.49764 -7.79473,3.72249 l -14.49021,0 0.025,-36.7002 15.33964,0 z m -8.19447,29.48008 5.84605,0 q 1.7738,-0.27482 3.02296,-1.29913 1.24916,-1.04929 2.12357,-3.64753 0.47467,-1.59892 0.27481,-11.64213 -1.17421,-5.19649 -5.42134,-5.97097 l -5.84605,0 0,22.55976 z"
       style="font-style:normal;font-variant:normal;font-weight:500;font-stretch:normal;font-size:51.16542816px;font-family:'Caracteres L1';-inkscape-font-specification:'Caracteres L1 Medium';letter-spacing:7.23937082px;word-spacing:-10px;fill:#000000;stroke:none"
       id="path4218" /><path
       d="m -411.20059,113.66408 0,24.78325 q 0.47468,4.74679 5.34639,5.29642 4.79676,-0.52464 5.39635,-5.22147 l 0,-24.8582 7.07023,0 0,26.70695 q -0.92438,4.89669 -4.62188,7.61985 -3.29777,2.32343 -6.74544,2.44835 -0.54963,0.05 -1.07428,0.05 -5.12154,0 -8.46928,-2.973 -3.82241,-3.6975 -4.04726,-7.5449 l 0,-26.30722 7.14517,0 z"
       style="font-style:normal;font-variant:normal;font-weight:500;font-stretch:normal;font-size:51.16542816px;font-family:'Caracteres L1';-inkscape-font-specification:'Caracteres L1 Medium';letter-spacing:7.23937082px;word-spacing:-10px;fill:#000000;stroke:none"
       id="path4220" /><path
       d="m -369.12225,113.56414 9.41864,0 7.37002,19.41189 7.5449,-19.41189 9.39365,0 0,36.67522 -6.97029,0 0,-23.15935 -9.11884,23.15935 -1.82377,0 -9.04389,-22.95948 0.075,22.95948 -6.84537,0 0,-36.67522 z"
       style="font-style:normal;font-variant:normal;font-weight:500;font-stretch:normal;font-size:51.16542816px;font-family:'Caracteres L1';-inkscape-font-specification:'Caracteres L1 Medium';letter-spacing:7.23937082px;word-spacing:-10px;fill:#000000;stroke:none"
       id="path4222" /><path
       d="m -309.34339,113.16441 q 6.04592,0.92438 8.94396,7.14518 2.47333,4.59689 2.47333,11.29237 l 0,0.44969 q 0,8.36935 -4.07225,14.24038 -2.89804,3.94733 -8.19446,4.42201 -0.54963,0.05 -1.07428,0.05 -5.49628,0 -9.21877,-4.64686 -3.8474,-6.19581 -3.89736,-12.71641 -0.025,-0.54963 -0.025,-1.09926 0,-8.81904 3.92235,-14.59014 2.62323,-3.14787 5.47131,-4.02228 1.97366,-0.62458 3.94733,-0.62458 0.87441,0 1.72383,0.0999 z m -1.9237,31.20392 q 2.89805,-0.1499 4.8967,-3.97232 1.44902,-2.54827 1.82376,-7.49493 0.075,-6.29575 -2.22349,-10.31803 -1.87374,-2.79811 -4.1472,-3.12289 -2.99798,0.1499 -4.99663,3.92235 -1.42403,2.64821 -1.84875,7.59487 -0.05,6.29575 2.27347,10.29304 1.84875,2.79811 4.22214,3.09791 z"
       style="font-style:normal;font-variant:normal;font-weight:500;font-stretch:normal;font-size:51.16542816px;font-family:'Caracteres L1';-inkscape-font-specification:'Caracteres L1 Medium';letter-spacing:7.23937082px;word-spacing:-10px;fill:#000000;stroke:none"
       id="path4224" /><path
       d="m -279.81907,113.61411 0,36.62525 -6.94531,0 0,-36.62525 6.94531,0 z"
       style="font-style:normal;font-variant:normal;font-weight:500;font-stretch:normal;font-size:51.16542816px;font-family:'Caracteres L1';-inkscape-font-specification:'Caracteres L1 Medium';letter-spacing:7.23937082px;word-spacing:-10px;fill:#000000;stroke:none"
       id="path4226" /><path
       d="m -268.93217,142.76941 0,-0.05 q 0,-0.27482 0.57462,-0.37475 4.42201,-1.42404 5.74611,-2.04862 0.67455,0.92438 1.7738,1.67387 1.77381,1.04929 3.79744,1.27414 2.14855,0.05 2.67319,-0.0999 2.47333,-0.69953 3.04794,-1.42404 0.57461,-0.49966 0.99933,-2.42336 0.0999,-0.7495 -0.19987,-1.67387 -0.37474,-0.62458 -0.79946,-1.04929 l -0.84942,-0.64956 -0.94936,-0.42472 q -7.91965,-2.47333 -8.71911,-2.89804 -3.67252,-1.474 -5.4713,-4.87171 -1.17421,-2.27346 -1.04929,-5.52127 0.47467,-4.04726 3.32275,-6.42066 3.19784,-2.32343 6.67049,-2.52329 l 0.64956,0 q 2.47333,0 4.09724,0.37474 3.29777,0.92438 5.14652,2.57327 1.84875,1.52397 3.04794,4.14719 l -0.075,0.27482 -5.14652,2.47333 -0.24983,-0.12492 q -0.47468,-1.52397 -2.6732,-2.47333 -2.47333,-0.92437 -5.79608,-0.05 -1.42404,0.47468 -1.99865,1.22417 -0.19987,0.19986 -0.52465,1.24915 -0.05,1.22418 0.0999,1.42404 0.32478,0.84943 1.29912,1.52397 l 0.64956,0.27482 q 7.09521,2.09858 9.6185,3.04794 2.17353,0.99932 3.32276,2.19851 l 1.39905,1.89872 q 1.54895,2.57326 1.64889,5.6212 0.025,0.19987 0.025,0.47468 0,0.97434 -0.2998,2.62323 -0.62458,2.32343 -1.49899,3.42269 -1.49898,1.84875 -2.17353,2.22349 -3.67252,2.5233 -7.56988,2.72316 l -2.27347,0 q -2.54827,-0.24983 -4.29709,-0.99932 -2.79811,-1.29912 -4.52195,-2.89804 -1.42404,-1.29913 -2.47333,-3.72249 z"
       style="font-style:normal;font-variant:normal;font-weight:500;font-stretch:normal;font-size:51.16542816px;font-family:'Caracteres L1';-inkscape-font-specification:'Caracteres L1 Medium';letter-spacing:7.23937082px;word-spacing:-10px;fill:#000000;stroke:none"
       id="path4228" /></g><g
     transform="matrix(1.4159221,0,0,1.4159221,944.98207,-50.305384)"
     style="font-style:normal;font-weight:normal;font-size:7.67481422px;line-height:125%;font-family:sans-serif;letter-spacing:5px;word-spacing:0px;fill:#000000;fill-opacity:1;stroke:none;stroke-width:1px;stroke-linecap:butt;stroke-linejoin:miter;stroke-opacity:1"
     id="flowRoot4304"><path
       d="m -438.42646,113.46421 q 2.04862,0.42472 3.89737,1.64889 l 1.69885,1.44902 q 1.12424,1.34909 1.44902,1.89872 l 0.77448,1.54895 q 0.64956,1.89872 0.69953,3.87238 l -0.12492,1.89872 -0.42471,1.39905 q -0.72451,1.79879 -2.24848,3.64754 l 0.12491,0.32478 1.19919,1.32411 0.77448,1.1742 0.69953,1.74882 q 0.57461,1.82377 0.57461,3.57259 0,3.5476 -2.3734,6.74544 -3.59757,4.32208 -9.3187,4.52194 -2.0736,0 -3.42269,-0.24983 -1.74882,-0.47468 -2.47333,-0.79946 l -1.49898,-0.74949 -1.27414,-0.92438 -1.14923,-1.0243 -1.1742,-1.52397 q -1.02431,-1.67387 -1.44902,-3.17286 l -0.025,-0.22485 6.57056,-1.79878 q 0.47468,1.87373 2.3734,2.84807 1.17421,0.47468 3.47265,0.52465 l 1.17421,-0.12492 0.94936,-0.29979 0.72451,-0.42472 q 0.74949,-0.49966 1.34909,-1.474 0.2998,-0.62458 0.44969,-1.69885 0.05,-0.87441 -0.0999,-0.99933 0.05,-0.39973 -0.34976,-1.22417 l -0.62458,-0.87441 q -0.67454,-0.67455 -1.17421,-0.92438 -0.62457,-0.34976 -1.67387,-0.57461 l -2.72316,-0.075 0,-6.77042 q 0.54963,0.05 2.17354,-0.1499 l 0.05,0.05 q 2.97299,-0.34976 3.74747,-3.2478 l -0.05,-1.12424 0.05,-0.17488 -0.0999,-0.34977 -0.47468,-0.92437 q -0.69953,-0.87441 -1.27414,-1.14923 -0.0999,-0.0749 -1.69885,-0.44969 l -1.57394,0.05 0,-0.05 -1.54895,0.24983 -1.09926,0.47468 -0.4497,0.34976 -0.49966,0.72451 -0.37475,0.92438 -6.49561,-1.94868 0.42472,-1.12425 0.1499,-0.14989 q -0.05,-0.12492 0.57461,-1.24916 l 0.69952,-1.12424 0.99933,-1.14922 q 0.54963,-0.2998 0.54963,-0.4497 l 0.52464,-0.37475 q 1.94869,-1.44902 4.54693,-1.84875 1.29912,-0.19986 3.12289,-0.19986 1.32411,0 2.67319,0.19986 z"
       style="font-style:normal;font-variant:normal;font-weight:500;font-stretch:normal;font-size:51.16542816px;font-family:'Caracteres L1';-inkscape-font-specification:'Caracteres L1 Medium';letter-spacing:3px;fill:#000000;stroke:none"
       id="path4231" /><path
       d="m -402.24887,113.53916 0,36.7002 -6.97029,0 0.025,-25.90749 -0.0999,0 q -0.075,0.32478 -1.79879,1.42404 l -2.17353,1.14922 -1.94868,0.74949 q -1.17421,0.24984 -1.27414,0.37475 l 0,-7.74477 1.54895,-0.72451 q 3.87238,-2.47333 5.57124,-6.02093 l 7.12019,0 z"
       style="font-style:normal;font-variant:normal;font-weight:500;font-stretch:normal;font-size:51.16542816px;font-family:'Caracteres L1';-inkscape-font-specification:'Caracteres L1 Medium';letter-spacing:3px;fill:#000000;stroke:none"
       id="path4233" /></g><g
     style="fill:#000000"
     id="g4328"
     transform="translate(682.41979,12.183883)"><g
       transform="translate(-184,0)"
       style="font-style:normal;font-weight:normal;font-size:10.86693954px;line-height:125%;font-family:sans-serif;letter-spacing:7.07961035px;word-spacing:0px;fill:#000000;fill-opacity:1;stroke:none;stroke-width:1px;stroke-linecap:butt;stroke-linejoin:miter;stroke-opacity:1"
       id="flowRoot4312"><path
         d="m -363.41243,98.273342 0,51.964628 -9.86939,0 0.0354,-36.683 -0.14149,0 q -0.10613,0.45987 -2.54694,2.01633 l -3.07755,1.62721 -2.75919,1.06123 q -1.66258,0.35374 -1.80408,0.53061 l 0,-10.96599 2.1932,-1.02585 q 5.48299,-3.50204 7.88843,-8.525168 l 10.08164,0 z"
         style="font-style:normal;font-variant:normal;font-weight:500;font-stretch:normal;font-size:72.44625854px;font-family:'Caracteres L1';-inkscape-font-specification:'Caracteres L1 Medium';letter-spacing:4.24776649px;fill:#000000;stroke:none"
         id="path4236" /><path
         d="m -322.19868,98.344091 q 10.64762,1.591836 13.6898,11.991839 l -9.86939,2.72381 q -1.41497,-3.89116 -5.2,-4.3864 -6.50884,-0.8136 -8.4898,3.04218 -1.30884,2.12245 -2.0517,10.61224 7.42857,-5.16462 16.09524,-1.9102 6.89796,3.0068 8.84354,9.83401 0.38911,2.0517 0.38911,3.96191 0,5.69524 -3.46666,10.04626 -4.1034,5.12925 -11.46123,5.76598 -1.34421,0.10613 -2.61768,0.10613 -16.66123,0 -17.9347,-19.80953 -0.14149,-2.61769 -0.14149,-5.02313 0,-7.74694 1.34421,-13.33605 1.80409,-7.35782 7.2517,-11.00136 4.2449,-2.865308 10.15239,-2.865308 1.69795,0 3.46666,0.247619 z m -5.0585,42.342859 q 7.46394,0.31837 8.48979,-5.16463 0.283,-5.94286 -6.1551,-6.68571 -7.57007,-0.283 -8.45442,5.51836 0.0708,5.73062 6.11973,6.33198 z"
         style="font-style:normal;font-variant:normal;font-weight:500;font-stretch:normal;font-size:72.44625854px;font-family:'Caracteres L1';-inkscape-font-specification:'Caracteres L1 Medium';letter-spacing:4.24776649px;fill:#000000;stroke:none"
         id="path4238" /></g></g></svg>