<?xml version="1.0" encoding="UTF-8" standalone="no"?>
<!-- Generator: Adobe Illustrator 13.0.0, SVG Export Plug-In  -->

<svg
   version="1.1"
   x="0px"
   y="0px"
   width="319px"
   height="223px"
   viewBox="0 0 319 223"
   enable-background="new 0 0 319 223"
   xml:space="preserve"
   id="svg67433"
   sodipodi:docname="France_road_sign_M6c.svg"
   inkscape:version="1.2.2 (732a01da63, 2022-12-09)"
   xmlns:inkscape="http://www.inkscape.org/namespaces/inkscape"
   xmlns:sodipodi="http://sodipodi.sourceforge.net/DTD/sodipodi-0.dtd"
   xmlns="http://www.w3.org/2000/svg"
   xmlns:svg="http://www.w3.org/2000/svg"><sodipodi:namedview
   id="namedview67435"
   pagecolor="#ffffff"
   bordercolor="#000000"
   borderopacity="0.25"
   inkscape:showpageshadow="2"
   inkscape:pageopacity="0.0"
   inkscape:pagecheckerboard="0"
   inkscape:deskcolor="#d1d1d1"
   showgrid="false"
   inkscape:zoom="0.93049327"
   inkscape:cx="192.90843"
   inkscape:cy="253.09157"
   inkscape:window-width="1920"
   inkscape:window-height="991"
   inkscape:window-x="-9"
   inkscape:window-y="-9"
   inkscape:window-maximized="1"
   inkscape:current-layer="svg67433" />
<defs
   id="defs67393">
</defs>
<path
   fill="#FFFFFF"
   stroke="#000000"
   stroke-linecap="round"
   stroke-linejoin="round"
   d="M317.834,209.833c0,6.627-5.373,12-12,12  H12.5c-6.627,0-12-5.373-12-12V12.5c0-6.627,5.373-12,12-12h293.334c6.627,0,12,5.373,12,12V209.833z"
   id="path67395" />


















<g
   id="g67860"
   transform="matrix(0.83923966,0,0,0.83923966,-18.768241,-298.2759)"
   style="fill:#000000"><path
     id="path67567"
     d="M 40.675831,372.61782 V 603.12759 H 210.52935 V 372.61782 Z m 63.083979,28.42188 h 43.76563 l -21.80859,82.28125 z m 53.62891,96.97851 37.64648,25.55274 c -15.49997,22.79162 -42.21815,36.96288 -69.96289,36.96288 -27.322858,0 -53.401066,-13.83273 -68.85937,-35.9785 l 37.15039,-26.11915 c 7.14582,10.16664 19.16148,16.55664 31.75,16.55664 12.81247,0 25.09311,-6.50067 32.27539,-16.97461 z"
     style="fill:#000000;stroke-width:1.33333" /><path
     fill-rule="evenodd"
     fill="#000000"
     fill-opacity="1"
     d="m 390.39457,413.50845 -0.0729,12.20833 h -4.72396 v -11.52604 l -0.2656,-1.89062 -0.83333,-1.39584 -1.13021,-0.83333 -1.28646,-0.33854 -1.35937,0.22396 -1.09896,0.86979 -0.8698,1.40104 -0.22395,1.96354 v 11.52604 h -4.72396 v -28.34375 h 4.72396 v 9.44792 l 0.83334,-0.60417 0.86457,-0.60416 0.94792,-0.33855 1.02084,-0.34375 1.02083,-0.0729 h 0.9427 l 1.02084,0.1875 0.90624,0.33854 0.90626,0.41667 0.8698,0.60417 0.68228,0.75521 0.67709,0.94791 0.49479,1.09375 0.33854,1.28646 0.26563,1.47396 z m 0,0"
     id="path67573"
     style="fill:#000000;stroke-width:1.33333" /><path
     fill-rule="evenodd"
     fill="#000000"
     fill-opacity="1"
     d="m 316.50916,395.10741 2.48958,-1.25 2.38542,-1.58854 1.69792,-2.26563 1.40104,-2.04167 h 7.18229 v 37.79688 h -7.18229 v -26.98958 l -2.98959,1.8177 -3.28645,1.39584 -1.69792,0.56771 z m 0,0"
     id="path67575"
     style="fill:#000000;stroke-width:1.33333" /><path
     fill-rule="evenodd"
     fill="#000000"
     fill-opacity="1"
     d="m 344.70186,425.75845 0.11454,-5.44271 0.90625,-5.52083 1.39583,-5.21354 2.04166,-5.21875 2.38542,-4.91146 2.64062,-4.11979 -14.24478,-0.11459 v -7.25521 h 23.81249 v 7.25521 l -3.17708,4.00521 -2.72396,4.23438 -2.18749,4.53645 -1.81771,4.76042 -1.17188,5.06771 -0.56771,5.10416 -0.10933,2.83334 z m 0,0"
     id="path67577"
     style="fill:#000000;stroke-width:1.33333" /><path
     fill-rule="evenodd"
     fill="#000000"
     fill-opacity="1"
     d="m 279.3529,413.81574 v 12.13021 h -4.72396 v -11.45313 l -0.33853,-1.84895 -0.75521,-1.51563 -1.20834,-0.82812 -1.28645,-0.26563 -1.25,0.15104 -1.20833,0.94271 -0.75522,1.40104 -0.26562,1.96354 v 11.45313 h -4.79687 v -28.34896 h 4.79687 v 9.52604 l 0.83333,-0.68229 0.8698,-0.48958 0.94271,-0.45313 1.02082,-0.22396 1.02084,-0.1927 h 0.94792 l 0.94271,0.26562 0.90624,0.26563 0.98439,0.41666 0.79166,0.67709 0.68228,0.68229 0.6771,0.94271 0.49478,1.09895 0.33855,1.28646 0.33853,1.46875 z m 0,0"
     id="path67579"
     style="fill:#000000;stroke-width:1.33333" /><path
     fill-rule="evenodd"
     fill="#000000"
     fill-opacity="1"
     d="m 294.81124,409.95637 v -6.19792 h 11.41666 v 6.19792 z m 0,0"
     id="path67581"
     style="fill:#000000;stroke-width:1.33333" /><path
     fill-rule="evenodd"
     fill="#000000"
     fill-opacity="1"
     d="m 243.10812,528.02927 v -38.28645 h 10.01562 l 7.70834,19.9948 7.78645,-19.9948 h 10.01563 v 38.28645 h -7.29167 v -24.03645 l -9.48959,24.03645 h -1.96353 l -9.52604,-24.03645 v 24.03645 z m 0,0 z m 43.04688,0 9.67708,-38.24998 h 9.71353 l 9.67709,38.24998 h -7.59896 l -1.58333,-6.80208 h -10.77604 l -1.58855,6.80208 z m 0,0 z m 11.04166,-14.05728 h 7.0625 l -3.47396,-14.77604 z m 0,0 z m 25.05728,14.05728 10.35418,-19.16145 -10.35418,-19.16145 h 8.61459 l 5.7448,11.375 5.70833,-11.375 h 8.69271 l -10.35417,19.16145 10.35417,19.16145 h -8.69271 l -5.70833,-11.37498 -5.7448,11.37498 z m 0,0 z m 38.89063,0 v -38.28645 h 7.25521 v 38.28645 z m 0,0"
     id="path67583"
     style="fill:#000000;stroke-width:1.33333" /><path
     fill-rule="evenodd"
     fill="#000000"
     fill-opacity="1"
     d="m 332.19145,569.34178 v 11.375 h -4.57292 v -11.375 c 0,-0.33855 -0.0364,-0.6823 -0.0729,-1.02084 -0.0417,-0.30208 -0.11454,-0.60416 -0.19271,-0.86979 -0.11453,-0.26563 -0.26041,-0.52604 -0.375,-0.75521 -0.11453,-0.22916 -0.26563,-0.41667 -0.41667,-0.56771 -0.18749,-0.18749 -0.33853,-0.33853 -0.53124,-0.48957 -0.1875,-0.15106 -0.375,-0.26563 -0.56772,-0.38022 -0.22394,-0.11453 -0.41145,-0.1875 -0.64061,-0.22396 -0.18751,-0.0417 -0.41667,-0.0781 -0.60417,-0.0781 -0.22916,0 -0.41667,0.0364 -0.64583,0.0781 -0.18751,0.0364 -0.41147,0.10934 -0.59896,0.18751 -0.19271,0.0364 -0.41667,0.15104 -0.60937,0.30208 -0.18751,0.15104 -0.33855,0.30208 -0.48959,0.48959 -0.18751,0.1927 -0.30208,0.3802 -0.45313,0.60416 -0.15104,0.26562 -0.22395,0.49478 -0.33854,0.76041 -0.11453,0.29688 -0.1927,0.56251 -0.22917,0.90625 -0.0364,0.33855 -0.0729,0.67708 -0.0729,1.0573 v 11.375 h -4.61459 v -20.06771 h 4.61459 v 1.43749 c 0.15104,-0.15104 0.33853,-0.26562 0.52604,-0.3802 0.18749,-0.11453 0.3802,-0.26562 0.5677,-0.33854 0.1875,-0.11454 0.3802,-0.19271 0.60416,-0.26563 0.18751,-0.11453 0.38022,-0.15104 0.60418,-0.22916 0.1927,-0.0729 0.41666,-0.15104 0.60416,-0.18751 0.22917,-0.0729 0.45833,-0.11453 0.68229,-0.11453 0.22917,-0.0364 0.45313,-0.0729 0.71875,-0.0729 0.22396,0 0.45313,0 0.67709,0 0.22916,0 0.45833,0.0364 0.68229,0.0729 0.1875,0.0417 0.41667,0.11453 0.64583,0.15105 0.22396,0.0781 0.45312,0.15104 0.67708,0.26562 0.22917,0.0781 0.45313,0.1875 0.64063,0.30209 0.1927,0.11453 0.41666,0.30208 0.60417,0.45312 0.22916,0.15104 0.41667,0.34375 0.60937,0.49479 0.1875,0.1875 0.375,0.41146 0.5625,0.60417 0.1927,0.22396 0.38021,0.48959 0.53125,0.75521 0.15104,-0.26562 0.33855,-0.53125 0.53125,-0.75521 0.22396,-0.22917 0.45312,-0.45312 0.71354,-0.64584 0.26562,-0.22395 0.57292,-0.41667 0.8698,-0.56771 0.30729,-0.22396 0.60937,-0.375 0.94792,-0.52604 0.33853,-0.11453 0.67708,-0.26562 1.05728,-0.33853 0.41666,-0.11453 0.79166,-0.19272 1.17188,-0.19272 0.33854,-0.0364 0.71874,-0.0729 1.09374,-0.0729 0.41667,0.0364 0.79688,0.0729 1.17188,0.15104 0.34375,0.0364 0.71875,0.15104 1.0625,0.26562 0.375,0.10934 0.71354,0.30208 1.05729,0.48958 0.30209,0.22396 0.64063,0.48958 0.94271,0.75521 0.33854,0.30208 0.60417,0.60417 0.8698,0.94792 0.22916,0.29687 0.45312,0.71353 0.68229,1.1302 0.18749,0.45313 0.375,0.90625 0.52604,1.43751 0.15104,0.48958 0.26563,1.05729 0.34375,1.66145 0.0364,0.60417 0.0729,1.28647 0.0729,2.00521 l -0.18751,11.375 h -4.5 l -0.0364,-11.375 c 0,-0.33854 -0.0364,-0.68229 -0.0729,-1.02084 -0.0781,-0.30208 -0.15104,-0.60416 -0.22916,-0.86978 -0.11453,-0.26563 -0.22917,-0.52604 -0.33855,-0.75522 -0.15104,-0.22916 -0.26562,-0.41666 -0.45312,-0.5677 -0.15104,-0.1875 -0.34376,-0.33854 -0.53125,-0.48958 -0.18751,-0.11453 -0.38021,-0.22917 -0.56771,-0.34376 -0.1875,-0.0729 -0.41666,-0.15104 -0.60417,-0.18749 -0.22396,-0.0364 -0.41667,-0.0729 -0.64063,-0.0729 -0.22916,0 -0.45312,0.0364 -0.64582,0.0729 -0.26042,0.0364 -0.45312,0.11453 -0.67708,0.18749 -0.19271,0.11454 -0.38022,0.22918 -0.56771,0.34376 -0.18751,0.15104 -0.38021,0.30208 -0.53125,0.48958 -0.15104,0.15104 -0.30208,0.33854 -0.45314,0.5677 -0.11453,0.22918 -0.22394,0.48959 -0.30208,0.75522 -0.11453,0.26562 -0.22396,0.5677 -0.26562,0.86978 -0.0364,0.33855 -0.0364,0.6823 -0.0364,1.02084 z m 0,0 z m 32.01563,-0.26563 v 11.33855 h -4.57814 v -11.33855 c 0,-0.375 0,-0.71875 -0.0364,-1.02083 -0.0729,-0.33854 -0.10933,-0.60417 -0.22396,-0.8698 -0.11453,-0.26041 -0.22916,-0.52604 -0.34374,-0.7552 -0.11454,-0.22396 -0.26042,-0.45313 -0.41146,-0.60417 -0.19272,-0.18749 -0.38021,-0.33855 -0.53125,-0.48959 -0.18751,-0.15104 -0.38021,-0.26562 -0.56771,-0.34374 -0.22917,-0.10934 -0.41666,-0.1875 -0.64062,-0.22396 -0.22918,-0.0417 -0.41667,-0.0781 -0.60418,-0.0781 -0.22916,0 -0.41666,0.0364 -0.64582,0.0781 -0.22396,0.0364 -0.41667,0.0729 -0.60418,0.15104 -0.22396,0.0729 -0.41666,0.1875 -0.60416,0.33854 -0.1875,0.11454 -0.375,0.30208 -0.53125,0.49479 -0.15104,0.14584 -0.30208,0.375 -0.41145,0.59896 -0.15104,0.22917 -0.26563,0.4948 -0.34376,0.76041 -0.11454,0.26563 -0.1875,0.56251 -0.22395,0.8698 -0.0781,0.33854 -0.0781,0.67708 -0.0781,1.09375 v 11.33855 h -4.60938 v -20.06771 h 4.60938 v 1.43228 c 0.15104,-0.10933 0.34374,-0.29687 0.5677,-0.41145 0.22918,-0.11454 0.45314,-0.22916 0.71876,-0.34375 0.22395,-0.15104 0.48958,-0.26041 0.79167,-0.375 0.26561,-0.11453 0.56771,-0.19271 0.83333,-0.26563 0.30208,-0.0729 0.60416,-0.11453 0.94271,-0.1875 0.30729,-0.0417 0.64583,-0.0781 0.94791,-0.0781 0.30209,-0.0364 0.64062,-0.0364 0.94272,0 0.33853,0.0364 0.64582,0.11454 0.98437,0.15104 0.26563,0.0781 0.60416,0.18751 0.90624,0.34375 0.30209,0.15105 0.60417,0.30209 0.8698,0.48959 0.30208,0.1875 0.56771,0.41666 0.83333,0.75521 0.22396,0.26563 0.48959,0.56771 0.67708,0.90625 0.19271,0.34375 0.38022,0.71875 0.56771,1.13542 0.18751,0.45312 0.34375,0.90625 0.45313,1.43749 0.11454,0.48959 0.1875,1.05729 0.26562,1.66147 0.0781,0.64062 0.0781,1.3229 0.0781,2.07812 z m 0,0 z m -68.07292,-19.39062 c -0.64063,0 -1.20834,0.0417 -1.73959,0.15104 -0.52604,0.11453 -0.97916,0.26562 -1.35937,0.45313 -0.41667,0.22916 -0.79167,0.53124 -1.13542,0.86979 -0.33854,0.38021 -0.64062,0.76041 -0.82812,1.25 -0.22917,0.45312 -0.45313,0.97917 -0.64062,1.625 -0.15626,0.64062 -0.3073,1.32291 -0.38022,2.04166 -0.11453,0.75521 -0.18749,1.58855 -0.22916,2.49479 -0.0729,0.90625 -0.10933,1.88542 -0.10933,2.94792 0,1.05729 0.0364,2 0.0729,2.91146 0,0.90624 0.0781,1.77604 0.15104,2.49479 0.11454,0.75 0.22918,1.43229 0.41667,2.07812 0.18751,0.60417 0.375,1.16667 0.64063,1.66147 0.22917,0.41666 0.53125,0.82812 0.8698,1.20833 0.34374,0.33853 0.71874,0.64063 1.13541,0.86979 0.3802,0.22917 0.83333,0.375 1.39583,0.48958 0.53125,0.15104 1.09896,0.19271 1.73958,0.19271 0.64584,0 1.20834,-0.0781 1.73959,-0.19271 0.48959,-0.15104 0.98437,-0.33854 1.40104,-0.60417 0.375,-0.26563 0.75521,-0.60416 1.09375,-1.02083 0.33854,-0.41146 0.64062,-0.82813 0.8698,-1.32292 0.22394,-0.52604 0.45312,-1.13021 0.64061,-1.73958 0.15105,-0.64063 0.30209,-1.32291 0.38021,-2 0.11454,-0.71875 0.18751,-1.51042 0.22396,-2.3802 0.0781,-0.83334 0.11454,-1.70314 0.11454,-2.64584 0,-0.94792 -0.0364,-1.81771 -0.0781,-2.64583 -0.0364,-0.83333 -0.10933,-1.625 -0.18749,-2.34376 -0.10933,-0.71875 -0.26563,-1.40104 -0.45313,-2.04166 -0.1875,-0.64062 -0.375,-1.17187 -0.60416,-1.66146 -0.22396,-0.53125 -0.53126,-0.98437 -0.90626,-1.36458 -0.33853,-0.375 -0.71874,-0.71354 -1.09374,-0.97916 -0.41667,-0.26563 -0.91146,-0.45314 -1.40104,-0.60418 -0.53126,-0.11453 -1.09375,-0.1927 -1.73959,-0.1927 z m 0,0 z m 0,-7.29167 c 1.17188,0 2.27084,0.0729 3.25,0.30208 1.02084,0.18751 1.96874,0.52605 2.83854,0.97917 0.82812,0.45834 1.625,0.98438 2.33854,1.63022 0.76042,0.64061 1.40104,1.35937 1.96876,2.18749 0.5677,0.79688 1.09374,1.70312 1.51041,2.72396 0.45312,1.02083 0.83333,2.11459 1.09896,3.28645 0.26041,1.17188 0.45312,2.42188 0.60416,3.7448 0.15104,1.35937 0.22396,2.7552 0.22396,4.27083 0,1.51041 -0.0729,2.91146 -0.18749,4.27084 -0.15106,1.35937 -0.3021,2.60416 -0.56772,3.77604 -0.26562,1.17186 -0.60416,2.27082 -1.02083,3.29166 -0.41667,1.02083 -0.90625,1.92708 -1.43751,2.71875 -0.5677,0.83333 -1.20833,1.55208 -1.96353,2.19271 -0.71875,0.64584 -1.51041,1.17188 -2.34375,1.625 -0.8698,0.41666 -1.8125,0.71874 -2.875,0.94792 -1.05729,0.22396 -2.1875,0.33854 -3.40105,0.33854 -1.20833,0 -2.33853,-0.11453 -3.40104,-0.30209 -1.05729,-0.22916 -2,-0.49479 -2.83333,-0.90624 -0.86979,-0.41667 -1.66146,-0.91147 -2.3802,-1.51563 -0.75522,-0.60417 -1.40104,-1.28125 -1.96355,-2.07813 -0.56771,-0.79167 -1.05729,-1.69791 -1.47396,-2.71875 -0.41667,-1.02082 -0.7552,-2.11978 -1.02083,-3.28645 -0.26562,-1.17188 -0.4948,-2.45833 -0.60417,-3.89584 -0.15625,-1.39583 -0.22916,-2.86979 -0.22916,-4.49479 0,-3.21354 0.30208,-6.01041 0.86979,-8.39062 0.5677,-2.38541 1.4375,-4.38541 2.5677,-5.93751 1.13542,-1.58853 2.57292,-2.79686 4.31251,-3.58853 1.73957,-0.79688 3.77604,-1.17188 6.11979,-1.17188 z m 0,0 z m -37.86979,15.04166 c 0.3802,0 0.7552,0 1.09896,-0.0364 0.33853,-0.0364 0.64061,-0.0781 0.94271,-0.11453 0.26562,-0.0364 0.52604,-0.11453 0.7552,-0.18749 0.26562,-0.0781 0.48958,-0.15106 0.68229,-0.22918 0.18751,-0.11453 0.375,-0.18749 0.56771,-0.30208 0.1875,-0.11453 0.33854,-0.22396 0.45313,-0.30208 0.14583,-0.11453 0.26041,-0.22396 0.375,-0.33854 0.11453,-0.15104 0.18749,-0.26563 0.22916,-0.38022 0.0729,-0.15104 0.15104,-0.26562 0.18751,-0.41666 0.0729,-0.15104 0.11453,-0.26042 0.15104,-0.375 0.0364,-0.15104 0.0729,-0.30208 0.11453,-0.41667 0.0365,-0.11466 0.0365,-0.22926 0.0365,-0.30218 0,-0.11454 0.0364,-0.22916 0.0364,-0.33855 0,-0.11453 0.0417,-0.19271 0.0417,-0.30728 0,-0.0729 0,-0.18751 0,-0.26043 0,-0.0781 0,-0.15104 0,-0.1927 0,-0.0364 -0.0417,-0.10934 -0.0417,-0.15104 0,-0.0729 -0.0364,-0.10934 -0.0364,-0.14583 0,-0.0781 0,-0.11453 -0.0364,-0.19272 -0.0781,-0.0729 -0.11453,-0.15104 -0.11453,-0.22395 -0.0364,-0.0781 -0.0781,-0.15625 -0.15104,-0.26562 -0.0364,-0.0781 -0.11453,-0.15104 -0.18751,-0.26563 0,-0.0781 -0.0781,-0.15104 -0.15104,-0.26563 -0.0781,-0.0729 -0.15104,-0.1875 -0.22916,-0.26562 -0.11453,-0.0729 -0.1875,-0.1875 -0.30209,-0.26042 -0.11453,-0.0781 -0.18749,-0.1927 -0.30208,-0.26562 -0.11453,-0.11454 -0.22916,-0.19271 -0.33855,-0.26563 -0.11453,-0.11453 -0.26561,-0.15104 -0.41666,-0.18749 -0.11454,-0.0781 -0.26562,-0.19272 -0.41667,-0.22918 -0.15104,-0.0729 -0.33853,-0.0729 -0.53124,-0.0729 -0.18751,-0.0781 -0.33855,-0.11453 -0.52604,-0.11453 -0.22917,-0.0364 -0.41667,-0.0364 -0.60417,-0.0364 -0.56771,0 -1.0573,0.0364 -1.51042,0.15104 -0.1927,0 -0.41666,0.0729 -0.64584,0.15104 -0.22396,0.11453 -0.41666,0.1875 -0.60416,0.26042 -0.1875,0.11454 -0.33854,0.22916 -0.53125,0.3802 -0.18749,0.15104 -0.375,0.3021 -0.52604,0.45314 -0.15104,0.15104 -0.34375,0.3802 -0.49479,0.60416 -0.14584,0.22917 -0.30209,0.45313 -0.45313,0.68229 l -6.91667,-2.04167 c 0.19271,-0.64062 0.41667,-1.25 0.75522,-1.81249 0.30729,-0.56772 0.64582,-1.09896 0.98437,-1.55209 0.41667,-0.52604 0.83333,-0.98438 1.28645,-1.4375 0.45314,-0.41146 0.94271,-0.79166 1.47396,-1.09374 0.53126,-0.33855 1.09375,-0.64063 1.69792,-0.90626 0.60938,-0.26562 1.21355,-0.45313 1.81771,-0.60417 0.64063,-0.19271 1.28645,-0.30208 2,-0.34375 0.68229,-0.0729 1.36459,-0.0729 2.04167,-0.0729 0.53125,0 0.98437,0.0729 1.47396,0.15104 0.45312,0.0729 0.86978,0.18751 1.28645,0.26563 0.38021,0.0729 0.79688,0.22396 1.20833,0.33854 0.41667,0.15104 0.79688,0.33855 1.13543,0.53126 0.375,0.10933 0.71875,0.30208 1.05728,0.48957 0.30209,0.18751 0.60417,0.41667 0.8698,0.60417 0.30208,0.22916 0.60416,0.45312 0.86979,0.6823 0.26562,0.22396 0.48958,0.48958 0.71874,0.7552 0.22396,0.26042 0.45314,0.56772 0.64063,0.83333 0.19271,0.26043 0.38021,0.56251 0.53125,0.86459 0.15104,0.26562 0.30208,0.5677 0.41667,0.8698 0.15104,0.34374 0.30208,0.64061 0.375,0.98437 0.11453,0.30208 0.22917,0.60416 0.30208,0.94271 0.11453,0.30208 0.15104,0.64582 0.18751,0.98437 0.0781,0.33855 0.11453,0.64063 0.15625,0.98437 0,0.33855 0.0364,0.71875 0.0364,1.0573 0,0.375 -0.0364,0.71874 -0.0364,1.05729 -0.0417,0.33853 -0.11453,0.68229 -0.19272,1.02082 -0.11453,0.3021 -0.18749,0.60418 -0.30208,0.94271 -0.11453,0.34376 -0.22396,0.60417 -0.33853,0.91147 -0.11454,0.26041 -0.26563,0.52604 -0.41667,0.79166 -0.15105,0.30208 -0.33855,0.56771 -0.48959,0.83334 -0.15104,0.26041 -0.34374,0.48958 -0.53125,0.71353 -0.15104,0.26563 -0.33855,0.4948 -0.53125,0.71876 0.30729,0.26563 0.5677,0.56771 0.83333,0.90624 0.26563,0.34376 0.48959,0.64584 0.68229,0.98439 0.22396,0.34374 0.41667,0.68228 0.60418,1.02082 0.18749,0.38022 0.30208,0.71875 0.45312,1.09896 0.15104,0.33855 0.26562,0.71355 0.38021,1.09375 0.0729,0.41667 0.15104,0.75521 0.18749,1.13541 0.0729,0.375 0.11454,0.71876 0.15104,1.13543 0.0364,0.375 0.0729,0.7552 0.0729,1.09375 0,0.33854 -0.0364,0.67708 -0.0729,1.02082 -0.0781,0.33855 -0.15104,0.6771 -0.18749,1.0573 -0.0781,0.33854 -0.15104,0.71876 -0.26563,1.05729 -0.0781,0.34375 -0.22917,0.68229 -0.38021,0.98437 -0.10933,0.3021 -0.26563,0.64063 -0.41667,0.94271 -0.18749,0.34376 -0.375,0.64584 -0.56249,0.94792 -0.19271,0.30208 -0.38021,0.60417 -0.60937,0.90625 -0.26043,0.30208 -0.48959,0.56771 -0.71355,0.83334 -0.30208,0.29688 -0.56771,0.52604 -0.86979,0.79166 -0.30209,0.22396 -0.60417,0.45312 -0.94792,0.64063 -0.33854,0.22916 -0.67708,0.41667 -1.05729,0.60416 -0.33855,0.19271 -0.75521,0.38021 -1.13541,0.53125 -0.375,0.15104 -0.79167,0.30208 -1.2448,0.41667 -0.45312,0.15104 -0.90624,0.26563 -1.40104,0.33855 -0.45312,0.11453 -0.97916,0.15104 -1.51042,0.18749 -0.48958,0.0781 -1.05729,0.0781 -1.58854,0.0781 -0.56771,0 -1.1302,-0.0364 -1.73958,-0.15105 -0.60417,-0.11453 -1.20833,-0.22916 -1.77604,-0.3802 -0.5625,-0.18751 -1.13021,-0.375 -1.69792,-0.64063 -0.5677,-0.26562 -1.05729,-0.53125 -1.58854,-0.86978 -0.48959,-0.38022 -0.94271,-0.75522 -1.39583,-1.20834 -0.4948,-0.41666 -0.90625,-0.90625 -1.32292,-1.4375 -0.41667,-0.53126 -0.75521,-1.17188 -1.09896,-1.8125 -0.375,-0.68229 -0.64063,-1.40105 -0.86979,-2.15625 l 6.91667,-1.85417 c 0.15104,0.26562 0.30208,0.5677 0.49479,0.83333 0.15104,0.26563 0.33854,0.53125 0.48958,0.71876 0.1875,0.18749 0.3802,0.3802 0.56771,0.53124 0.18749,0.18751 0.375,0.33855 0.56771,0.45313 0.22396,0.11454 0.41666,0.22396 0.64062,0.30208 0.22916,0.10934 0.45312,0.1875 0.6823,0.22396 0.22396,0.0417 0.45312,0.0781 0.67708,0.11454 0.26562,0.0781 0.49478,0.0781 0.71874,0.0781 0.26563,0 0.53126,0 0.79688,-0.0781 0.26042,-0.0364 0.48959,-0.0729 0.67708,-0.11454 0.26563,-0.0364 0.4948,-0.11453 0.6823,-0.15104 0.1875,-0.0729 0.375,-0.15104 0.5677,-0.1875 0.15104,-0.0729 0.33855,-0.1875 0.48959,-0.26563 0.18749,-0.0364 0.30208,-0.15104 0.45312,-0.22396 0.11453,-0.11453 0.26563,-0.19271 0.38021,-0.30208 0.10934,-0.11453 0.22396,-0.22916 0.30208,-0.34375 0.11454,-0.0729 0.18751,-0.1875 0.30208,-0.30208 0.10934,-0.11453 0.18751,-0.22396 0.26563,-0.30209 0.0729,-0.11453 0.15104,-0.18749 0.22396,-0.30208 0.0364,-0.11453 0.0729,-0.18749 0.0729,-0.30208 0.0781,-0.0729 0.11454,-0.18751 0.11454,-0.26563 0.0417,-0.11453 0.0781,-0.18749 0.0781,-0.26562 0,-0.0729 0,-0.1875 0,-0.26042 0.0364,-0.0781 0.0364,-0.15104 0.0364,-0.1927 0,-0.26042 0,-0.52604 -0.0364,-0.79167 0,-0.26563 -0.0364,-0.52604 -0.11453,-0.71875 0,-0.22396 -0.0781,-0.45313 -0.15104,-0.64062 -0.11454,-0.22918 -0.1875,-0.38022 -0.30208,-0.53126 -0.0781,-0.1875 -0.18751,-0.33854 -0.30208,-0.48958 -0.11454,-0.15104 -0.22918,-0.26563 -0.41667,-0.3802 -0.11453,-0.11454 -0.22917,-0.26043 -0.375,-0.375 -0.15104,-0.0781 -0.30729,-0.19272 -0.45313,-0.22918 -0.15624,-0.11453 -0.3073,-0.18749 -0.49479,-0.26562 -0.18751,-0.0729 -0.33855,-0.10934 -0.48959,-0.15104 -0.18749,-0.0364 -0.33853,-0.10934 -0.53125,-0.1875 -0.15104,-0.0364 -0.33853,-0.0781 -0.48957,-0.0781 -0.18751,-0.0364 -0.38022,-0.0729 -0.56771,-0.0729 -0.15105,-0.0364 -0.33855,-0.0364 -0.48959,-0.0364 -0.15104,0 -0.30208,-0.0364 -0.4948,-0.0364 -0.18749,0 -0.33853,-0.0417 -0.48957,-0.0417 z m 0,0"
     id="path67585"
     style="fill:#000000;stroke-width:1.33333" /><path
     fill-rule="evenodd"
     fill="#000000"
     fill-opacity="1"
     d="m 246.58728,410.03449 -0.53124,4.08333 -0.15104,0.97917 -0.18751,0.64583 -0.56771,1.39584 -1.02084,1.13541 -0.86978,0.56771 -0.53126,0.26563 -0.9427,0.26041 -1.66146,0.0365 -2.27084,-0.45313 -1.92708,-0.90625 -1.35937,-1.20833 -0.48958,-0.41667 -6.125,3.89584 0.60417,1.02083 1.20833,1.35937 2.38542,1.8125 2.86978,1.25 2.83333,0.79167 3.06251,0.22917 2.98437,-0.34375 0.11454,-0.10938 2.49478,-0.79687 2.07812,-1.24479 1.9271,-1.81771 1.25,-2.15104 1.02082,-2.38021 0.22396,-0.79688 v -0.15104 l 0.79688,-5.36458 0.11454,-5.33333 -0.34375,-5.25 -0.56771,-3.44271 -0.79166,-2.60417 -1.24479,-2.04167 -1.70313,-1.92708 -2.3073,-1.58854 -2.15104,-0.90625 -0.79686,-0.11459 h 0.22916 l -3.21354,-0.45312 -2.34376,0.0781 -1.85416,0.375 -0.90625,0.30208 -1.13021,0.38021 -2.30728,1.35937 -1.92709,1.8125 -1.47396,2.04167 -0.83334,2.49479 -0.41666,2.41667 0.19272,2.65104 0.60416,2.48958 1.35937,2.27084 1.70313,1.8125 2.15104,1.47396 2.30729,1.02083 2.60938,0.33854 h 2.60416 l 2.42188,-0.5625 2.26562,-1.25 0.56771,-0.33854 z m 0,0 z m -4.15624,-6.125 -2.08334,0.22917 -1.69792,-0.22917 -1.36458,-0.56771 -1.24479,-1.01562 -0.67708,-1.51563 v -1.47396 l 0.45312,-1.47395 0.79167,-1.28125 1.35937,-0.79688 0.68229,-0.22396 h -0.22917 l 2.4948,-0.22916 1.73959,0.22916 h -0.22396 l 1.35937,0.5625 1.24479,1.13542 0.5677,1.28646 0.22918,1.47396 -0.34375,1.625 -1.02084,1.24479 -1.35937,0.90625 z m 0,0"
     id="path67587"
     style="fill:#000000;stroke-width:1.33333" /></g></svg>
