<?xml version="1.0" encoding="UTF-8" standalone="no"?>
<svg
   xmlns:dc="http://purl.org/dc/elements/1.1/"
   xmlns:cc="http://creativecommons.org/ns#"
   xmlns:rdf="http://www.w3.org/1999/02/22-rdf-syntax-ns#"
   xmlns:svg="http://www.w3.org/2000/svg"
   xmlns="http://www.w3.org/2000/svg"
   xmlns:sodipodi="http://sodipodi.sourceforge.net/DTD/sodipodi-0.dtd"
   xmlns:inkscape="http://www.inkscape.org/namespaces/inkscape"
   inkscape:version="1.0 (4035a4f, 2020-05-01)"
   sodipodi:docname="France_road_sign_M6j.svg"
   id="svg34"
   xml:space="preserve"
   enable-background="new -0.5 -0.5 912 270"
   viewBox="-0.5 -0.5 912 270"
   height="270px"
   width="912px"
   y="0px"
   x="0px"
   version="1.1"><metadata
   id="metadata38"><rdf:RDF><cc:Work
       rdf:about=""><dc:format>image/svg+xml</dc:format><dc:type
         rdf:resource="http://purl.org/dc/dcmitype/StillImage" /></cc:Work></rdf:RDF></metadata><sodipodi:namedview
   inkscape:current-layer="svg34"
   inkscape:window-maximized="0"
   inkscape:window-y="23"
   inkscape:window-x="0"
   inkscape:cy="-131.30922"
   inkscape:cx="175.22308"
   inkscape:zoom="0.36363276"
   showgrid="false"
   id="namedview36"
   inkscape:window-height="784"
   inkscape:window-width="1440"
   inkscape:pageshadow="2"
   inkscape:pageopacity="0"
   guidetolerance="10"
   gridtolerance="10"
   objecttolerance="10"
   borderopacity="1"
   bordercolor="#666666"
   pagecolor="#ffffff"
   inkscape:document-rotation="0" />
<defs
   id="defs10" />











<rect
   ry="47.427807"
   y="1.5"
   x="1.5"
   height="266.5"
   width="908"
   id="rect2995"
   style="fill:#ffffff;stroke:#000000;stroke-width:3;stroke-miterlimit:4;stroke-dasharray:none;stroke-opacity:1" /><g
   transform="translate(3.871585)"
   id="g1138"><g
     transform="matrix(3.5741057,0,0,3.5741057,-334.1538,1266.0748)"
     id="g238"><path
       id="path4385"
       style="font-style:normal;font-variant:normal;font-weight:500;font-stretch:normal;font-size:50px;font-family:'Caracteres L1';-inkscape-font-specification:'Caracteres L1 Medium';letter-spacing:4.7px;fill:#000000;stroke-width:1.1538"
       d="m 112.51405,-304.25292 v -0.0563 q 0,-0.30984 0.64792,-0.4225 4.98626,-1.60552 6.47932,-2.30968 0.76062,1.04217 2.00014,1.88718 2.00014,1.18301 4.28197,1.4365 2.4227,0.0563 3.0143,-0.11272 2.78892,-0.78868 3.43684,-1.60552 0.64794,-0.56333 1.12685,-2.73217 0.11262,-0.845 -0.22538,-1.88718 -0.42256,-0.70416 -0.90147,-1.183 l -0.9578,-0.73234 -1.0705,-0.47884 q -8.93019,-2.78851 -9.83166,-3.26735 -4.14111,-1.66184 -6.16943,-5.49252 -1.32403,-2.56318 -1.18318,-6.22487 0.53525,-4.56302 3.74674,-7.23887 3.60587,-2.61951 7.52164,-2.84485 h 0.73244 q 2.78893,0 4.62003,0.42251 3.71857,1.04217 5.80322,2.90118 2.08464,1.71817 3.43684,4.67569 l -0.0845,0.30983 -5.80322,2.78852 -0.2817,-0.14084 q -0.53524,-1.71817 -3.01429,-2.78851 -2.78892,-1.04217 -6.53565,-0.0563 -1.60574,0.53517 -2.25368,1.38018 -0.22536,0.22533 -0.59158,1.40834 -0.0563,1.38017 0.11262,1.6055 0.36623,0.95768 1.46488,1.71818 l 0.73245,0.30984 q 8.00054,2.36601 10.8458,3.43635 2.45088,1.12667 3.74674,2.47868 l 1.57757,2.14068 q 1.7466,2.90117 1.85928,6.33753 0.0282,0.22533 0.0282,0.53517 0,1.09851 -0.33805,2.95751 -0.70428,2.61951 -1.69026,3.85885 -1.69025,2.08435 -2.45086,2.50685 -4.14113,2.84485 -8.53579,3.07018 h -2.56355 q -2.87345,-0.28167 -4.84541,-1.12667 -3.15514,-1.46467 -5.09894,-3.26735 -1.60574,-1.46467 -2.78892,-4.19685 z"
       inkscape:connector-curvature="0" /><path
       id="path4387"
       style="font-style:normal;font-variant:normal;font-weight:500;font-stretch:normal;font-size:50px;font-family:'Caracteres L1';-inkscape-font-specification:'Caracteres L1 Medium';letter-spacing:4.7px;fill:#000000;stroke-width:1.1538"
       d="m 169.03934,-337.17992 10.64862,41.26438 h -8.08506 l -1.77478,-7.01354 h -11.40921 l -1.80294,7.01354 h -8.16957 l 10.53592,-41.26438 z m -9.07104,26.3923 h 8.14141 l -3.94393,-16.11142 z"
       inkscape:connector-curvature="0" /><path
       id="path4389"
       style="font-style:normal;font-variant:normal;font-weight:500;font-stretch:normal;font-size:50px;font-family:'Caracteres L1';-inkscape-font-specification:'Caracteres L1 Medium';letter-spacing:4.7px;fill:#000000;stroke-width:1.1538"
       d="m 196.54859,-337.06725 v 27.94147 q 0.53524,5.35169 6.02858,5.97136 5.40882,-0.5915 6.08491,-5.88686 v -28.02597 h 7.97237 v 30.11032 q -1.04232,5.52069 -5.21162,8.59087 -3.71855,2.61951 -7.60615,2.76035 -0.61975,0.0563 -1.21134,0.0563 -5.77504,0 -9.54995,-3.35185 -4.31015,-4.16869 -4.56369,-8.50638 v -29.65965 h 8.05689 z"
       inkscape:connector-curvature="0" /><path
       id="path4391"
       style="font-style:normal;font-variant:normal;font-weight:500;font-stretch:normal;font-size:50px;font-family:'Caracteres L1';-inkscape-font-specification:'Caracteres L1 Medium';letter-spacing:4.7px;fill:#000000;stroke-width:1.1538"
       d="m 250.98923,-337.17992 v 7.5487 h -17.07158 v 9.01338 h 12.50789 v 7.66137 h -12.50789 l -0.0281,17.06909 h -7.94421 l 0.0282,-41.29254 z"
       inkscape:connector-curvature="0" /></g><g
     id="g1126"
     transform="translate(610.70433,1055.3556)"><rect
       style="fill:#0000ff;stroke:none;stroke-width:0.5"
       id="rect227"
       height="200"
       width="200"
       stroke="#000000"
       fill="#ffffff"
       y="-1020.6056"
       x="24.5693" /><g
       transform="matrix(0.5,0,0,0.5,14.41565,-510.3028)"
       style="fill:#ffffff"
       id="g273"><path
         style="fill:#ffffff"
         fill="#010101"
         d="m 267.9343,-742.7016 h -0.513 c -9.544,34.026 -39.834,58.904 -75.751,58.904 -27.585,0 -51.848,-14.679 -65.951,-36.899 -8.948,-12.573 -14.224,-27.917 -14.224,-44.496 0,-14.208 3.87,-27.512 10.609,-38.939 5.912,-11.421 14.37,-21.208 24.583,-28.568 v -30.999 c -38.413,16.354 -65.331001,54.301 -65.331001,98.506 0,59.149 48.189001,107.101 107.636001,107.101 40.412,0 75.616,-22.164 94.02,-54.939 z"
         id="path229" /><path
         style="fill:#ffffff"
         fill="#010101"
         d="m 327.2303,-703.2916 32.028,-15.362 -8.923,-18.603 -31.674,15.189 -42.847,-93.887 -0.963,0.44 v -0.731 h -91.149 l -0.5,-21.063 h 73.085 v -22.134 h -73.61 l -1.66,-69.962 c 15.518,-2.287 27.433,-15.722 27.433,-31.961 0,-17.844 -14.386,-32.309 -32.13,-32.309 -17.744,0 -32.131,14.465 -32.131,32.309 0,7.553 2.585,14.495 6.903,19.996 l 3.536,149.015 0.27,-0.006 v 1.106 h 104.72 l 45.188,99.022 22.533,-10.817 z"
         id="path231" /></g></g></g></svg>
