<?xml version="1.0" encoding="UTF-8" standalone="no"?>
<!-- Generator: Adobe Illustrator 17.0.0, SVG Export Plug-In . SVG Version: 6.00 Build 0)  -->

<svg
   version="1.1"
   id="Layer_1"
   x="0px"
   y="0px"
   width="499.356px"
   height="349.551px"
   viewBox="0.48 0.23 499.356 349.551"
   enable-background="new 0.48 0.23 499.356 349.551"
   xml:space="preserve"
   sodipodi:docname="France_road_sign_M6i.svg"
   inkscape:version="1.2.2 (732a01da63, 2022-12-09)"
   xmlns:inkscape="http://www.inkscape.org/namespaces/inkscape"
   xmlns:sodipodi="http://sodipodi.sourceforge.net/DTD/sodipodi-0.dtd"
   xmlns="http://www.w3.org/2000/svg"
   xmlns:svg="http://www.w3.org/2000/svg"><defs
   id="defs68476" /><sodipodi:namedview
   id="namedview68474"
   pagecolor="#ffffff"
   bordercolor="#000000"
   borderopacity="0.25"
   inkscape:showpageshadow="2"
   inkscape:pageopacity="0.0"
   inkscape:pagecheckerboard="0"
   inkscape:deskcolor="#d1d1d1"
   showgrid="false"
   inkscape:zoom="1.1872374"
   inkscape:cx="153.71821"
   inkscape:cy="54.327805"
   inkscape:window-width="1920"
   inkscape:window-height="991"
   inkscape:window-x="-9"
   inkscape:window-y="-9"
   inkscape:window-maximized="1"
   inkscape:current-layer="Layer_1" />
<path
   fill="#FFFFFF"
   stroke="#000000"
   stroke-width="5"
   stroke-miterlimit="10"
   d="M497.24,298.54  c-0.05,28.74-20.45,48.71-49.39,48.72c-66.05,0.04-132.1,0.01-198.15,0.01c-65.38,0-130.75,0.01-196.12,0  c-30.82,0-50.6-19.8-50.6-50.63V52c0-28.92,20.41-49.27,49.42-49.27h395.8c28.4,0,48.98,20.09,49.03,48.62  C497.38,133.74,497.36,216.14,497.24,298.54z"
   id="path68443" />
<path
   d="M52.722,249.486c-5.85-6.739-11.663-13.596-17.672-20.278c-2.518-2.8-2.85-4.977,0.099-7.754  c2.945-2.773,4.751-1.179,6.75,0.973c5.889,6.342,11.797,12.667,18.049,19.377c2.695-3,4.472-4.979,6.562-7.305  c-6.141-6.774-11.953-13.59-18.232-19.945c-3.274-3.314-2.737-5.365,0.296-8.348c3.245-3.191,5.088-1.687,7.45,0.915  c5.696,6.275,11.573,12.385,17.637,18.839c1.293-1.467,2.336-2.727,3.46-3.91c3.196-3.365,6.188-3.403,9.614-0.152  c2.462,2.337,4.678,5.011,7.404,6.978c12.175,8.786,15.906,21.093,14.816,35.299c-0.301,3.926,0.872,6.228,4.097,8.332  c4.681,3.054,8.992,6.674,13.512,9.982c1.418,1.037,3.003,1.845,6.02,3.67c-0.441-4.084-0.406-6.692-1.036-9.128  c-5.686-22.008-8.65-44.176-6.389-67.02c4.637-46.851,37.623-82.515,72.213-90.828c33.655-8.089,67.385-6.052,98.969,9.084  c50.555,24.228,97.994,53.441,138.98,92.232c9.79,9.265,16.572,20.288,17.952,33.911c1.581,15.6-4.693,28.219-16.345,38.154  c-12.285,10.474-27.367,14.711-42.789,17.638c-6.151,1.168-10.535,3.013-14.624,8.693c-12.972,18.019-40.361,16.238-52.064-2.816  c-1.797-2.925-3.609-3.746-6.811-3.721c-31.74,0.248-63.482,0.385-95.223,0.436c-2.873,0.005-4.477,0.829-6.008,3.41  c-7.63,12.864-22.295,18.53-36.417,14.401c-13.571-3.968-22.753-16.657-22.489-31.08c0.266-14.574,10.029-26.715,24.266-30.176  c14.014-3.407,28.307,2.898,35.276,15.967c1.589,2.98,3.232,4.018,6.578,4.004c31.069-0.135,62.138-0.082,93.207-0.075  c2.375,0.001,4.309,0.097,5.678-2.841c5.677-12.187,15.438-18.795,28.931-18.843c13.246-0.047,22.915,6.294,28.985,18.09  c0.379,0.737,0.806,1.449,1.426,2.558c8.139-2.543,16.29-4.785,24.214-7.655c7.561-2.739,13.302-7.932,17.569-14.827  c2.691-4.35,3.091-8.759,0.346-12.937c-2.676-4.074-5.423-8.45-9.157-11.406c-8.215-6.503-17.045-12.234-25.69-18.184  c-1.944-1.338-4.125-2.35-6.251-3.404c-18.585-9.207-35.743-20.13-51.073-34.549c-20.57-19.347-44.424-34.052-72.165-41.348  c-18.998-4.996-38.338-5.543-57.573-2.293c-29.367,4.963-51.928,28.873-57.478,59.435c-4.195,23.096-1.208,45.65,4.646,68.01  c2.084,7.959,3.806,15.875,1.527,24.063c-4.447,15.973-23.842,21.441-36.109,10.212c-6.385-5.845-12.686-11.79-19.277-17.394  c-1.515-1.288-4.262-2.248-6.105-1.839c-10.268,2.278-19.084,0.435-26.54-7.39c-3.147-3.302-6.889-6.037-10.365-9.026  C46.723,260.24,46.5,258.8,52.722,249.486z M366.552,299.557c0.074-6.399-5.51-12.072-11.939-12.129  c-6.346-0.056-12.02,5.675-11.947,12.068c0.071,6.27,5.367,11.64,11.637,11.8C360.727,311.461,366.478,305.949,366.552,299.557z   M203.909,299.954c-0.089-6.611-5.662-12.038-12.139-11.821c-6.24,0.209-11.501,5.674-11.544,11.989  c-0.043,6.427,5.615,12.153,11.965,12.109C198.717,312.186,203.999,306.652,203.909,299.954z"
   id="path68445" />

<g
   id="g68771"
   transform="matrix(1.319526,0,0,1.319526,-168.57221,-450.87182)"
   style="fill:#000000"><path
     fill-rule="evenodd"
     fill="#000000"
     fill-opacity="1"
     d="m 166.62299,400.78844 v -30.23438 h 5.70833 v 30.23438 z m 0,0 z m 12.09895,0 v -30.23438 h 7.25521 l 7.36979,16.02605 v -16.02605 h 5.70834 v 30.23438 h -5.70834 l -8.92187,-18.93229 v 18.93229 z m 0,0 z m 32.27605,0 v -24.45313 h -6.61459 v -5.8177 h 19.04688 v 5.8177 h -6.6875 v 24.45313 z m 0,0 z m 19.38541,0 v -30.23438 h 18.44792 v 5.78125 h -12.70313 v 6.27605 h 9.375 v 5.8177 h -9.375 v 6.61459 h 13.15625 v 5.74479 z m 0,0 z m 41.76563,-10.88542 5.0677,10.88542 h -6.61458 l -4.27083,-9.03125 h -4.16147 v 9.03125 h -5.8177 v -30.19792 l 9.9375,-0.0365 c 0.3802,0 0.71875,0.0365 1.09896,0.0729 0.375,0.0417 0.71875,0.11459 1.02083,0.19271 0.375,0.0729 0.71355,0.15104 1.05729,0.26562 0.30208,0.10938 0.64063,0.26042 0.98438,0.41146 0.29688,0.11459 0.60417,0.26563 0.90625,0.45313 0.30208,0.15104 0.60416,0.34375 0.86979,0.56771 0.26042,0.1927 0.52604,0.41666 0.79166,0.64583 0.26563,0.22396 0.53126,0.45312 0.75522,0.71354 0.22916,0.22917 0.45312,0.49479 0.68229,0.76042 0.22396,0.30208 0.41667,0.5625 0.60416,0.82812 0.18751,0.30209 0.33855,0.60417 0.52604,0.90625 0.19272,0.30209 0.34376,0.60938 0.45833,0.90625 0.10934,0.30729 0.26043,0.60938 0.33855,0.94792 0.11453,0.30208 0.22396,0.64062 0.30208,0.98437 0.0364,0.30209 0.11453,0.60417 0.15104,0.94271 0.0364,0.38021 0.0364,0.68229 0.0364,1.02084 0,0.41666 -0.0364,0.83333 -0.0729,1.20833 -0.0781,0.41667 -0.15626,0.83333 -0.22916,1.28646 -0.11454,0.375 -0.26563,0.79166 -0.45314,1.17187 -0.15104,0.41667 -0.30208,0.82813 -0.48958,1.20834 -0.22916,0.3802 -0.45312,0.71874 -0.71875,1.09895 -0.22916,0.375 -0.49479,0.71355 -0.79687,1.05729 -0.26042,0.30209 -0.60417,0.60417 -0.94272,0.8698 -0.33853,0.30208 -0.68228,0.5677 -1.02082,0.82812 z m 0,0 z m -5.81771,-3.89062 c 0.375,0 0.71353,-0.0365 1.01563,-0.11459 0.34374,-0.0729 0.64582,-0.1875 0.9479,-0.33854 0.26563,-0.15104 0.53126,-0.30208 0.79167,-0.48958 0.26563,-0.15625 0.4948,-0.34375 0.71876,-0.56771 0.22916,-0.19271 0.41667,-0.45834 0.56771,-0.71875 0.15104,-0.22917 0.30208,-0.53125 0.41666,-0.79688 0.11454,-0.30208 0.1875,-0.60416 0.26563,-0.90625 0.0729,-0.30208 0.0729,-0.60416 0.0729,-0.90625 0,-0.33854 0,-0.64062 -0.0729,-0.94791 -0.0781,-0.29688 -0.15104,-0.59896 -0.26563,-0.90625 -0.11453,-0.26042 -0.26562,-0.52605 -0.41666,-0.82813 -0.15104,-0.26562 -0.33855,-0.49479 -0.56771,-0.71875 -0.22396,-0.1875 -0.45313,-0.41667 -0.71876,-0.60417 -0.26041,-0.1875 -0.56771,-0.34374 -0.83333,-0.49479 -0.29687,-0.14583 -0.59895,-0.22395 -0.94271,-0.30208 -0.30208,-0.0365 -0.64063,-0.0729 -0.97916,-0.0729 h -4.1198 v 9.71354 z m 0,0 z m 27.92708,14.70312 h -9.93749 v -30.23958 h 9.93749 c 0.34375,0 0.68229,0.0417 1.02084,0.0417 0.33853,0.0365 0.68228,0.0729 1.02083,0.10937 0.33854,0.0417 0.64062,0.11459 0.98437,0.22917 0.33855,0.0729 0.67708,0.1875 0.98437,0.30208 0.29688,0.11459 0.64063,0.22396 0.94271,0.38021 0.30209,0.1875 0.60417,0.375 0.8698,0.52604 0.30208,0.1875 0.56249,0.41667 0.82812,0.68229 0.22917,0.22396 0.49479,0.48959 0.76041,0.79167 0.22396,0.26562 0.48959,0.56771 0.6771,0.90625 0.22916,0.34375 0.45312,0.68229 0.64582,1.05729 0.18751,0.38021 0.375,0.79688 0.52604,1.25 0.18751,0.45312 0.33855,0.90625 0.48959,1.4375 0.15625,0.48958 0.26563,1.02083 0.38021,1.54688 0.11454,0.5677 0.1875,1.13541 0.26562,1.77604 0.0729,0.60416 0.11453,1.25 0.1875,1.96875 0.0364,0.67708 0.0364,1.39583 0.0364,2.22916 0,0.71875 0,1.4375 -0.0364,2.15104 -0.0364,0.6823 -0.0729,1.32813 -0.15104,1.96875 -0.0729,0.56771 -0.1875,1.13542 -0.30208,1.73959 -0.11453,0.56771 -0.22396,1.05729 -0.38021,1.58333 -0.15104,0.49479 -0.30208,0.94792 -0.48959,1.40104 -0.15104,0.45313 -0.33853,0.86979 -0.52604,1.24479 -0.1927,0.38021 -0.41666,0.71875 -0.64582,1.0625 -0.22396,0.33855 -0.45314,0.64063 -0.71876,0.90625 -0.26563,0.30209 -0.48958,0.5625 -0.7552,0.79167 -0.26563,0.22917 -0.52604,0.45313 -0.82814,0.64063 -0.26562,0.15625 -0.5677,0.30208 -0.86978,0.49479 -0.30208,0.15104 -0.60938,0.30208 -0.94792,0.41666 -0.30208,0.0729 -0.64063,0.1875 -0.98438,0.30209 -0.33853,0.0729 -0.64062,0.15104 -0.9427,0.1875 -0.33855,0.0365 -0.6823,0.0365 -1.02083,0.0729 -0.375,0.0417 -0.71876,0.0417 -1.02084,0.0417 z m 0,0 z m 0,-5.74479 c 0.30208,0 0.56771,0 0.86979,-0.0781 0.26562,-0.0365 0.48958,-0.0729 0.71876,-0.15104 0.22396,-0.0729 0.45312,-0.1875 0.64062,-0.30208 0.19271,-0.11459 0.41667,-0.22396 0.56771,-0.38021 0.18749,-0.14584 0.34375,-0.29688 0.49479,-0.48959 0.14582,-0.1875 0.30208,-0.375 0.41145,-0.5677 0.0781,-0.1875 0.19271,-0.41146 0.30729,-0.60417 0.10934,-0.26042 0.18751,-0.45313 0.26042,-0.67708 0.0781,-0.22917 0.15105,-0.45313 0.19272,-0.71875 0.0729,-0.26563 0.10933,-0.4948 0.15104,-0.71875 0.0364,-0.26563 0.0729,-0.53125 0.10933,-0.79688 0.0364,-0.26042 0.0781,-0.52604 0.0781,-0.75521 0.0364,-0.26041 0.0364,-0.52604 0.0364,-0.79166 0.0364,-0.26563 0.0364,-0.48959 0.0364,-0.71875 0,-0.26563 0,-0.48959 0,-0.71875 0.0417,-0.26042 0.0417,-0.48959 0.0417,-0.67709 0,-0.26562 0,-0.49479 0,-0.75521 0,-0.22916 0,-0.45833 0,-0.71875 0,-0.26562 -0.0417,-0.49479 -0.0417,-0.76041 -0.0364,-0.26042 -0.0364,-0.52604 -0.0364,-0.75521 -0.0364,-0.26042 -0.0364,-0.52604 -0.0781,-0.79167 -0.0364,-0.26562 -0.0729,-0.53125 -0.10933,-0.75521 -0.0364,-0.30208 -0.0781,-0.5677 -0.15104,-0.83333 -0.0781,-0.22917 -0.11454,-0.48958 -0.19271,-0.68229 -0.0729,-0.26042 -0.18751,-0.48958 -0.29688,-0.71354 -0.11453,-0.22917 -0.22916,-0.41667 -0.30729,-0.60938 -0.10934,-0.22396 -0.26563,-0.41146 -0.41146,-0.59896 -0.15104,-0.1927 -0.30729,-0.34374 -0.49478,-0.49479 -0.15104,-0.15104 -0.375,-0.26562 -0.56771,-0.41666 -0.18751,-0.11459 -0.41667,-0.22396 -0.60417,-0.30209 -0.26563,-0.0729 -0.48959,-0.15104 -0.75522,-0.1875 -0.30202,-0.0781 -0.56765,-0.0781 -0.86973,-0.0781 h -4.23437 l -0.0364,18.59896 z m 0,0 z m 17.72916,5.81771 v -30.23438 h 5.78125 v 30.23438 z m 0,0 z m 16.96876,0 v -24.45313 h -6.61459 v -5.8177 h 19.04688 v 5.8177 h -6.68751 v 24.45313 z m 0,0 z m 49.3229,-11.71354 -8.08853,-2.79688 c -0.33855,-0.15104 -0.71875,-0.34375 -1.05729,-0.56771 -0.34375,-0.22916 -0.64584,-0.41666 -0.94792,-0.64062 -0.26563,-0.22917 -0.52604,-0.49479 -0.82812,-0.76042 -0.26563,-0.26562 -0.53126,-0.52604 -0.75522,-0.79166 -0.1927,-0.30209 -0.3802,-0.60417 -0.5677,-0.90625 -0.19271,-0.30209 -0.34375,-0.64584 -0.49479,-0.94792 -0.10933,-0.33854 -0.18751,-0.67708 -0.30209,-1.02083 -0.0729,-0.33855 -0.11454,-0.71355 -0.15104,-1.09375 0,-0.41667 0,-0.79167 0.0364,-1.13542 0,-0.375 0,-0.71875 0.0417,-1.02083 0.0729,-0.33855 0.15104,-0.67709 0.26563,-0.97917 0.0729,-0.30208 0.18749,-0.60417 0.30208,-0.86979 0.15104,-0.26563 0.30208,-0.53125 0.45312,-0.79688 0.1875,-0.26041 0.33854,-0.48958 0.48958,-0.71354 0.1875,-0.22917 0.41667,-0.41667 0.60416,-0.64583 0.22918,-0.1875 0.41667,-0.41667 0.64063,-0.56771 0.22917,-0.1875 0.4948,-0.33854 0.76043,-0.52604 0.26041,-0.15104 0.52604,-0.30209 0.7552,-0.41667 0.30208,-0.15104 0.5677,-0.26562 0.83333,-0.38021 0.26041,-0.15104 0.56251,-0.22396 0.82813,-0.30208 0.30208,-0.0729 0.60416,-0.1875 0.90624,-0.26563 0.3021,-0.0729 0.60418,-0.15104 0.8698,-0.15104 0.30208,-0.0729 0.60416,-0.10937 0.94791,-0.15104 0.30209,-0.0365 0.60417,-0.0729 0.90625,-0.0729 0.22396,0 0.48959,0 0.71875,0 0.26043,0 0.48959,0 0.71876,0 0.26041,0 0.52604,0.0365 0.75,0.0365 0.26563,0.0365 0.49479,0.0781 0.76041,0.11459 0.22396,0.0365 0.48959,0.0729 0.75522,0.15104 0.26561,0.0729 0.52604,0.11459 0.7552,0.1875 0.26562,0.0781 0.53125,0.15104 0.75521,0.26563 0.26563,0.11458 0.53125,0.22916 0.7552,0.33854 0.26563,0.11459 0.53125,0.22917 0.75521,0.38021 0.22918,0.15104 0.45312,0.30208 0.64584,0.45312 0.22395,0.15104 0.45312,0.33854 0.67708,0.48959 0.22916,0.1927 0.41667,0.3802 0.60938,0.60937 0.22396,0.1875 0.41145,0.41146 0.60416,0.67708 0.1875,0.22917 0.33854,0.45313 0.48958,0.71875 0.18751,0.26563 0.375,0.52605 0.53126,0.79167 0.15104,0.30208 0.29688,0.60417 0.41145,0.90625 l -4.98437,1.93229 c -0.0781,-0.19271 -0.19271,-0.38021 -0.34375,-0.60937 -0.15104,-0.1875 -0.30208,-0.375 -0.48959,-0.48959 -0.15104,-0.1875 -0.33853,-0.33854 -0.5677,-0.45312 -0.22916,-0.15104 -0.45312,-0.26563 -0.6823,-0.38021 -0.18749,-0.10937 -0.41145,-0.22396 -0.64062,-0.30208 -0.26563,-0.10938 -0.48958,-0.1875 -0.7552,-0.22396 -0.22918,-0.0781 -0.4948,-0.11459 -0.75522,-0.15104 -0.26562,0 -0.49478,0 -0.71874,0 -0.11454,0 -0.22918,0 -0.34375,0 -0.10933,0 -0.22396,0 -0.375,0 -0.11453,0 -0.26563,0.0364 -0.38021,0.0364 -0.15104,0.0365 -0.26042,0.0781 -0.41667,0.0781 -0.14584,0.0365 -0.26041,0.0729 -0.41145,0.10937 -0.11454,0.0417 -0.26563,0.0781 -0.38022,0.11459 -0.15104,0 -0.30208,0.0365 -0.41666,0.11459 -0.15104,0.0365 -0.26042,0.0781 -0.375,0.11458 -0.11454,0.0729 -0.22918,0.10938 -0.33855,0.1875 -0.11453,0.0365 -0.26563,0.11459 -0.3802,0.1875 -0.0781,0.0781 -0.18751,0.15105 -0.26563,0.22917 -0.11453,0.0729 -0.1875,0.15104 -0.26562,0.22396 -0.0729,0.0781 -0.11454,0.15104 -0.18751,0.26562 -0.0364,0.11459 -0.11453,0.19271 -0.15104,0.30209 -0.0364,0.0781 -0.0729,0.15104 -0.0729,0.26562 -0.0417,0.11459 -0.0781,0.26563 -0.0781,0.38021 0,0.0729 0.0364,0.1875 0.0364,0.33854 0.0417,0.11459 0.0417,0.22396 0.0417,0.33854 0.0364,0.11459 0.10933,0.22917 0.15104,0.34375 0.0364,0.10938 0.0729,0.22396 0.10933,0.33855 0.0781,0.11458 0.19271,0.22395 0.26563,0.33854 0.11453,0.11458 0.18749,0.1875 0.30208,0.26562 0.11453,0.0729 0.22916,0.15104 0.33854,0.22917 0.11454,0.0729 0.26562,0.14583 0.3802,0.1875 l 7.93751,2.76042 c 0.45312,0.1875 0.90624,0.375 1.32291,0.60416 0.45313,0.26042 0.82813,0.48959 1.17188,0.79167 0.375,0.26562 0.71874,0.60417 1.02084,0.94271 0.33853,0.30208 0.60416,0.64583 0.82812,1.02083 0.26562,0.34375 0.49478,0.71875 0.68229,1.13542 0.18749,0.41666 0.33853,0.83333 0.45312,1.24479 0.15104,0.41667 0.22917,0.91146 0.30208,1.36458 0.0781,0.48959 0.0781,0.97917 0.0781,1.47396 0,0.30208 0,0.56771 -0.0417,0.82813 0,0.26562 -0.0364,0.53125 -0.10933,0.79687 -0.0781,0.26563 -0.15104,0.52604 -0.26563,0.79167 -0.0781,0.26562 -0.18751,0.49479 -0.30208,0.75521 -0.11453,0.26562 -0.26563,0.49479 -0.41667,0.71875 -0.15105,0.26562 -0.33854,0.49479 -0.53125,0.71875 -0.15104,0.1875 -0.33855,0.41666 -0.56251,0.64583 -0.22916,0.22396 -0.45312,0.41146 -0.71874,0.60417 -0.26563,0.22395 -0.49479,0.375 -0.79688,0.5625 -0.26042,0.1927 -0.56771,0.3802 -0.82812,0.53125 -0.30208,0.11458 -0.60416,0.26562 -0.94792,0.41666 -0.30208,0.15104 -0.64063,0.26563 -1.02083,0.375 -0.33855,0.11459 -0.71875,0.19271 -1.09375,0.30209 -0.38021,0.0781 -0.75521,0.15625 -1.17188,0.22916 -0.38021,0.0365 -0.75521,0.0729 -1.20833,0.11459 -0.45312,0.0364 -0.86979,0.0729 -1.32292,0.0729 -0.15104,0 -0.30208,-0.0365 -0.53125,-0.0365 -0.1875,-0.0365 -0.41667,-0.0365 -0.60416,-0.0365 -0.22918,-0.0417 -0.41667,-0.0781 -0.64063,-0.11458 -0.22916,-0.0365 -0.49479,-0.0729 -0.71875,-0.15105 -0.1875,-0.0365 -0.45313,-0.11458 -0.68229,-0.1875 -0.26563,-0.0781 -0.53125,-0.15104 -0.79167,-0.22916 -0.22917,-0.0729 -0.48958,-0.1875 -0.75521,-0.30209 -0.26563,-0.11458 -0.49479,-0.22916 -0.76041,-0.33854 -0.26042,-0.11458 -0.48959,-0.26562 -0.75522,-0.41666 -0.26041,-0.15105 -0.52604,-0.30209 -0.79166,-0.45313 -0.22916,-0.15104 -0.45312,-0.33854 -0.71875,-0.53125 -0.26563,-0.1875 -0.48959,-0.375 -0.71875,-0.56771 -0.22396,-0.22396 -0.41666,-0.45312 -0.64062,-0.67708 -0.1875,-0.22917 -0.41667,-0.45313 -0.60416,-0.71875 -0.15106,-0.22917 -0.34376,-0.53125 -0.4948,-0.79167 -0.1875,-0.30729 -0.33854,-0.56771 -0.48959,-0.86979 l 5.52084,-1.70312 c 0.0729,0.11458 0.14583,0.22916 0.26041,0.30208 0.0781,0.11459 0.15104,0.1875 0.22918,0.26562 0.11453,0.0729 0.18749,0.15105 0.30208,0.22917 0.11453,0.10937 0.22396,0.1875 0.30208,0.26042 0.11453,0.0417 0.22917,0.11458 0.33854,0.19271 0.15104,0.0729 0.22916,0.14583 0.34375,0.22395 0.15104,0.0781 0.26041,0.11459 0.41145,0.1875 0.11454,0.0781 0.22918,0.11459 0.34376,0.15105 0.10934,0.0417 0.26563,0.0781 0.375,0.11458 0.15104,0.0365 0.26563,0.0781 0.34375,0.15104 0.15104,0 0.26041,0.0365 0.41667,0.11459 0.10933,0.0365 0.22396,0.0729 0.29688,0.0729 0.11453,0 0.22916,0.0417 0.30728,0.0781 0.10933,0.0365 0.1875,0.0365 0.26042,0.0365 0.11454,0 0.19271,0.0417 0.26563,0.0417 0.0781,0.0365 0.15104,0.0365 0.19271,0.0365 0.14582,0 0.26041,0 0.41145,0 0.11453,0 0.26563,0 0.41667,0 0.11453,0 0.30208,0 0.45312,-0.0365 0.15105,0 0.30209,-0.0417 0.45313,-0.0417 0.15104,0 0.30208,-0.0365 0.45312,-0.0729 0.18751,-0.0417 0.34375,-0.0781 0.45313,-0.0781 0.19271,-0.0365 0.34375,-0.0729 0.49479,-0.11458 0.15104,-0.0729 0.30208,-0.10938 0.45312,-0.15105 0.15104,-0.0729 0.26563,-0.15104 0.41667,-0.22395 0.1875,-0.0781 0.30209,-0.15105 0.41146,-0.22917 0.15624,-0.0729 0.26563,-0.1875 0.3802,-0.30208 0.15104,-0.10938 0.22918,-0.22396 0.3021,-0.30209 0.11453,-0.15104 0.22916,-0.30208 0.30208,-0.41666 0.0781,-0.15105 0.11453,-0.30209 0.15104,-0.45313 0.0781,-0.10937 0.11453,-0.30208 0.15104,-0.48958 0.0364,-0.1875 0.0364,-0.38021 0.0364,-0.56771 0,-0.11459 0,-0.26563 -0.0364,-0.41667 -0.0364,-0.15104 -0.0729,-0.26041 -0.11454,-0.375 -0.0364,-0.15104 -0.10933,-0.30208 -0.18749,-0.41666 -0.0729,-0.11459 -0.18751,-0.22917 -0.26563,-0.33855 -0.0729,-0.11458 -0.15104,-0.22916 -0.30208,-0.34375 -0.10933,-0.10937 -0.22396,-0.1875 -0.33854,-0.26562 -0.0781,-0.0729 -0.1875,-0.1875 -0.33855,-0.26042 -0.11453,-0.0781 -0.26561,-0.11458 -0.41667,-0.15104 z m 0,0 z m 12.51043,11.71354 7.63541,-30.19792 h 7.67188 l 7.59375,30.19792 h -6.00521 l -1.25,-5.36458 h -8.5052 l -1.20834,5.36458 z m 0,0 z m 8.69271,-11.07292 h 5.59374 l -2.76041,-11.67708 z m 0,0 z m 36.43229,0.79167 v -19.91667 h 5.63541 v 19.95834 c 0,0.26041 0,0.52604 0,0.82812 -0.0417,0.26563 -0.0781,0.56771 -0.11453,0.83333 -0.0781,0.30209 -0.11453,0.60417 -0.19271,0.90625 -0.10933,0.30209 -0.18749,0.60417 -0.30208,0.8698 -0.10933,0.30208 -0.22396,0.5677 -0.375,0.86979 -0.15104,0.26562 -0.26562,0.56771 -0.41666,0.83333 -0.15104,0.26042 -0.30208,0.5625 -0.53126,0.82813 -0.18749,0.22916 -0.375,0.48958 -0.60416,0.7552 -0.22396,0.22917 -0.45313,0.4948 -0.67709,0.71875 -0.22916,0.26563 -0.49479,0.4948 -0.7552,0.71875 -0.26563,0.19271 -0.56771,0.41667 -0.83333,0.60417 -0.3021,0.15104 -0.60418,0.34375 -0.94792,0.49479 -0.30208,0.10938 -0.64063,0.26042 -0.97918,0.375 -0.3802,0.15104 -0.71874,0.26563 -1.05728,0.30209 -0.38021,0.0781 -0.75521,0.15104 -1.17188,0.1875 -0.41666,0.0781 -0.83333,0.11458 -1.25,0.11458 -0.41145,0 -0.82812,-0.0365 -1.24478,-0.0729 -0.38022,-0.0417 -0.79688,-0.11458 -1.17188,-0.1875 -0.34375,-0.0781 -0.71875,-0.19271 -1.0573,-0.34375 -0.34374,-0.11458 -0.68229,-0.26562 -1.02082,-0.375 -0.3021,-0.15104 -0.60418,-0.34375 -0.90626,-0.49479 -0.30729,-0.1875 -0.5677,-0.375 -0.83333,-0.60417 -0.26563,-0.1875 -0.48959,-0.41666 -0.75521,-0.64062 -0.26563,-0.22917 -0.49479,-0.48958 -0.6823,-0.71875 -0.22396,-0.26563 -0.41666,-0.53125 -0.64062,-0.79688 -0.19271,-0.26041 -0.34375,-0.5625 -0.48958,-0.82812 -0.15625,-0.30208 -0.30729,-0.56771 -0.41666,-0.83333 -0.15626,-0.30209 -0.3021,-0.56771 -0.41667,-0.8698 -0.0781,-0.26041 -0.19271,-0.5625 -0.26563,-0.86979 -0.0781,-0.30208 -0.15104,-0.60416 -0.1875,-0.90625 -0.0364,-0.26562 -0.0781,-0.56771 -0.11454,-0.86979 -0.0364,-0.26562 -0.0781,-0.56771 -0.0781,-0.82812 v -19.95834 h 5.7448 v 19.91667 c 0,0.30208 0.0417,0.60417 0.0781,0.86979 0.0729,0.30208 0.15104,0.60417 0.22916,0.86979 0.15106,0.26563 0.26043,0.53125 0.45314,0.75521 0.15104,0.22917 0.33853,0.45833 0.52604,0.68229 0.18749,0.1875 0.41666,0.33854 0.64062,0.53125 0.26563,0.15104 0.49479,0.30209 0.76042,0.41146 0.30208,0.11459 0.60417,0.22917 0.90625,0.26563 0.33853,0.0781 0.64063,0.11458 0.94271,0.11458 0.34374,0 0.64582,-0.0365 0.94792,-0.11458 0.30208,-0.0365 0.60416,-0.15105 0.86978,-0.22396 0.26042,-0.15104 0.52604,-0.30209 0.79167,-0.45313 0.22396,-0.19271 0.45312,-0.34375 0.64063,-0.53125 0.22916,-0.22396 0.41666,-0.45312 0.5677,-0.68229 0.15104,-0.22396 0.30208,-0.48958 0.38022,-0.75521 0.11453,-0.26562 0.22396,-0.56771 0.26041,-0.86979 0.0781,-0.26562 0.11453,-0.56771 0.11453,-0.86979 z m 0,0 z m 12.77604,10.28125 v -30.23438 h 18.14062 v 5.78125 h -12.43229 v 6.88021 h 9.41145 v 5.85938 h -9.41145 v 11.71354 z m 0,0"
     id="path68608"
     style="fill:#000000;stroke-width:1.33333" /></g></svg>
