<?xml version="1.0" encoding="UTF-8" standalone="no"?>
<svg
   xmlns:dc="http://purl.org/dc/elements/1.1/"
   xmlns:cc="http://creativecommons.org/ns#"
   xmlns:rdf="http://www.w3.org/1999/02/22-rdf-syntax-ns#"
   xmlns:svg="http://www.w3.org/2000/svg"
   xmlns="http://www.w3.org/2000/svg"
   xmlns:sodipodi="http://sodipodi.sourceforge.net/DTD/sodipodi-0.dtd"
   xmlns:inkscape="http://www.inkscape.org/namespaces/inkscape"
   inkscape:version="1.0 (4035a4f, 2020-05-01)"
   sodipodi:docname="France_road_sign_M6k1.svg"
   xml:space="preserve"
   enable-background="new 0.48 0.23 499.356 349.551"
   viewBox="0.48 0.23 499.356 349.551"
   height="349.551px"
   width="499.356px"
   y="0px"
   x="0px"
   id="Layer_1"
   version="1.1"><metadata
   id="metadata45"><rdf:RDF><cc:Work
       rdf:about=""><dc:format>image/svg+xml</dc:format><dc:type
         rdf:resource="http://purl.org/dc/dcmitype/StillImage" /></cc:Work></rdf:RDF></metadata><defs
   id="defs43" /><sodipodi:namedview
   inkscape:current-layer="Layer_1"
   inkscape:window-maximized="0"
   inkscape:window-y="0"
   inkscape:window-x="0"
   inkscape:cy="174.7755"
   inkscape:cx="249.67799"
   inkscape:zoom="0.60484716"
   showgrid="false"
   id="namedview41"
   inkscape:window-height="900"
   inkscape:window-width="1440"
   inkscape:pageshadow="2"
   inkscape:pageopacity="0"
   guidetolerance="10"
   gridtolerance="10"
   objecttolerance="10"
   borderopacity="1"
   bordercolor="#666666"
   pagecolor="#ffffff" />
<path
   id="path10"
   d="M497.24,298.54  c-0.05,28.74-20.45,48.71-49.39,48.72c-66.05,0.04-132.1,0.01-198.15,0.01c-65.38,0-130.75,0.01-196.12,0  c-30.82,0-50.6-19.8-50.6-50.63V52c0-28.92,20.41-49.27,49.42-49.27h395.8c28.4,0,48.98,20.09,49.03,48.62  C497.38,133.74,497.36,216.14,497.24,298.54z"
   stroke-miterlimit="10"
   stroke-width="5"
   stroke="#000000"
   fill="#FFFFFF" />


<g
   id="g287"
   transform="matrix(2.5526754,0,0,2.5526754,-1419.4953,1051.4324)"><path
     d="m 653.7207,-402.08008 -40.6875,0.0508 -1.28125,0.46875 c -2.77877,1.0177 -5.75397,3.5441 -7.75976,6.58985 -0.54723,0.83098 -0.9961,1.55327 -0.9961,1.60547 0,0.0522 -0.20068,0.52396 -0.44726,1.04882 -0.62125,1.32243 -1.04468,2.71848 -1.71485,5.66211 -0.31633,1.38946 -1.00706,4.31584 -1.53515,6.50391 -0.52808,2.18806 -1.25637,5.23966 -1.61914,6.78125 -0.36275,1.54159 -1.1061,4.67536 -1.65039,6.96289 -0.54427,2.28752 -1.09682,4.64456 -1.22852,5.23828 l -0.23828,1.08008 -1.07227,0.2168 c -3.07125,0.62382 -6.16571,2.89161 -7.4082,5.42773 -0.49791,1.01632 -0.52258,1.19537 -0.64453,4.58398 -0.21412,5.95009 -0.18625,26.75992 0.0371,27.56446 0.67841,2.44349 2.56207,4.68342 4.86914,5.78906 0.73411,0.35181 1.72356,0.69111 2.19727,0.75391 l 0.86132,0.11328 0.0508,13.67578 0.0488,13.67578 0.41993,0.79688 c 0.59226,1.12713 1.80863,2.33488 2.65624,2.63671 0.56829,0.20238 2.03973,0.25963 6.92188,0.26563 6.82506,0.009 6.91153,-0.004 7.92773,-1.10156 0.61416,-0.66329 1.62933,-2.32617 1.41993,-2.32617 -0.0714,0 -0.0193,-0.13441 0.11718,-0.29883 0.20448,-0.24627 0.25703,-2.68374 0.29883,-13.83399 l 0.0508,-13.53515 h 40.69922 40.69727 l -0.0625,13.51757 -0.0606,13.51758 0.53906,0.97461 c 0.74428,1.34389 2.07835,2.66399 2.92969,2.90039 1.00685,0.27956 12.54734,0.25768 13.49219,-0.0254 0.88707,-0.26579 2.28056,-1.60992 2.8164,-2.71679 0.38185,-0.78946 0.38477,-0.89105 0.38477,-14.45899 v -13.66211 l 0.88867,-0.0859 c 2.0054,-0.19269 4.63315,-1.96317 6.04492,-4.07226 1.25964,-1.88187 1.21877,-1.21062 1.16407,-18.26172 l -0.0508,-15.33008 -0.43555,-0.9043 c -0.26328,-0.5453 -1.05386,-1.51495 -1.99024,-2.44336 -1.78405,-1.76889 -3.50514,-2.74912 -5.46093,-3.10742 l -1.19727,-0.21875 -0.38086,-1.72656 c -0.20892,-0.94946 -0.95236,-4.08643 -1.65234,-6.9707 -0.69999,-2.88426 -1.71832,-7.11483 -2.26367,-9.40235 -2.31008,-9.68982 -2.61678,-10.92344 -3.08008,-12.38672 -1.29168,-4.07974 -3.84528,-7.73143 -6.75391,-9.6582 -1.46663,-0.97153 -2.1413,-1.25749 -3.84765,-1.63281 -1.20322,-0.26462 -5.12049,-0.28749 -42.01368,-0.24219 z m -38.7539,9.54297 h 39.14062 c 38.37469,0 39.15216,0.008 39.82617,0.35156 0.86953,0.44359 2.30068,1.8835 2.75586,2.77149 0.30285,0.59089 0.79334,2.47745 1.86914,7.18554 0.14771,0.64647 0.71205,3.08658 1.25391,5.42383 0.54188,2.33725 1.39893,6.04045 1.9043,8.22852 0.50537,2.18806 0.91797,4.3901 0.91797,4.89453 -10e-4,1.29405 -0.45895,2.49824 -1.19727,3.14648 l -0.62305,0.54883 h -4.78711 c -2.92168,0 -4.78515,-0.0684 -4.78515,-0.17383 0,-0.095 -0.18247,-0.45302 -0.40625,-0.79687 -0.22378,-0.34387 -0.88908,-1.38582 -1.47852,-2.31445 -2.57399,-4.05526 -5.97456,-6.29883 -9.54492,-6.29883 h -1.04688 v -1.16016 -1.16015 l 0.85743,-0.54883 c 0.47242,-0.30216 0.98331,-0.65608 1.13476,-0.78516 0.65019,-0.55412 1.65199,-1.96859 2.09571,-2.96094 1.55544,-3.47859 -0.10929,-8.11288 -3.53125,-9.83203 -4.22342,-2.12179 -9.09975,-0.2829 -10.94922,4.12891 -0.59503,1.41942 -0.77461,3.2228 -0.45508,4.5625 0.42799,1.79437 1.95823,3.79274 3.78711,4.94726 0.71823,0.45342 0.73047,0.47843 0.73047,1.5293 0,1.4091 -0.11071,1.68935 -0.57032,1.44336 -0.21001,-0.1124 -0.77137,-0.14101 -1.38281,-0.0703 -3.95165,0.45655 -6.71793,2.8337 -9.09375,7.8125 l -0.79687,1.66992 -6.36914,0.004 -6.36914,0.004 -0.6836,-1.07812 c -0.37573,-0.59302 -1.05049,-1.66951 -1.49804,-2.39258 -1.24177,-2.0062 -3.58556,-4.27494 -5.24415,-5.07422 -1.42371,-0.68609 -2.91295,-1.03906 -4.37304,-1.03906 h -0.8711 v -1.16992 -1.16993 l 0.95118,-0.61132 c 2.69763,-1.73359 4.13087,-4.84289 3.61718,-7.8418 -0.74061,-4.32368 -4.62934,-7.11873 -8.91992,-6.41016 -1.36241,0.22501 -3.0301,0.97651 -3.80469,1.71289 -4.07224,3.87136 -3.73366,9.37561 0.76368,12.42969 l 1.06445,0.72266 v 1.23047 1.23046 l -1.13086,-0.0156 c -4.1711,-0.0619 -7.33565,2.43404 -9.95899,7.85547 -0.59686,1.23349 -0.92588,1.72179 -1.15624,1.7168 -0.17712,-0.004 -2.36131,-0.0282 -4.85352,-0.0547 l -4.53125,-0.0469 -0.58008,-0.49414 c -0.64342,-0.54792 -1.29687,-2.15921 -1.29687,-3.19531 0,-0.34607 0.69259,-3.46123 1.53906,-6.92188 0.84649,-3.46067 2.19347,-8.96903 2.99414,-12.24218 0.80065,-3.27315 1.61333,-6.24256 1.80469,-6.59961 0.51211,-0.95563 1.22544,-1.70958 2.31445,-2.44141 z"
     style="fill:#000000;stroke-width:0.180832"
     id="path854" /><g
     transform="translate(-80)"
     id="g278"><path
       style="fill:#ffffff;stroke-width:0.180832"
       d="m 747.06845,-361.07836 c 0.29521,-2.49259 2.78649,-4.845 6.02409,-5.68829 1.32754,-0.34577 3.80185,-0.34596 5.26749,0 3.26463,0.76971 5.85664,3.21 6.14713,5.78727 l 0.0915,0.81205 h 0.81263 0.81262 l -0.0819,-0.98771 c -0.12503,-1.50765 -1.16151,-3.44535 -2.51147,-4.69517 -2.04641,-1.89461 -4.61786,-2.81826 -7.83296,-2.81356 -3.41543,0.005 -6.02979,0.98826 -8.03099,3.02045 -1.4442,1.46658 -2.19864,2.88752 -2.33571,4.39919 l -0.0976,1.0768 h 0.81367 0.81367 z"
       id="path255" /><path
       style="fill:#ffffff;stroke-width:0.180832"
       d="m 750.98928,-335.03207 h 9.40325 v -4.5208 h -9.40325 v -9.40325 l -4.44183,3e-5 -0.068,9.41498 -9.4145,-0.1022 2.6e-4,4.6051 9.31284,0.0966 0.0966,9.31283 h 4.51469 z"
       id="path247"
       sodipodi:nodetypes="ccccccccccccc" /><path
       style="fill:#ffffff;stroke-width:0.180832"
       d="m 729.47029,-329.4263 -11.84449,-0.006 3.88789,-3.85486 c 4.98884,-4.94648 5.44967,-5.46432 6.26481,-7.03982 0.7832,-1.51383 1.03951,-4.48036 0.5326,-6.16465 -0.37362,-1.57751 -1.37216,-3.00111 -2.36121,-4.00213 -1.96591,-1.95691 -3.50371,-2.59639 -6.60618,-2.74707 -2.47445,-0.1202 -3.60234,0.0774 -5.42382,0.95036 -2.69023,1.28926 -4.3689,3.77336 -4.96575,7.34837 l -0.11172,0.66921 5.79002,0.0178 c 0.0741,-0.0497 0.19315,-0.33454 0.26447,-0.63292 0.23564,-0.98575 0.9779,-1.83997 1.96946,-2.26652 0.92775,-0.3991 2.11358,-0.42393 3.16774,-0.14627 1.87317,0.53126 2.99251,2.19041 2.54086,4.06424 -0.20049,0.74935 -0.89347,1.46398 -9.4371,9.73185 l -4.10158,3.96918 v 5.89525 h 20.434 z"
       id="path245"
       sodipodi:nodetypes="ccssccsssccssccscccc" /><circle
       style="fill:#ffffff;stroke-width:0.942948;stroke-linecap:round;stroke-linejoin:round"
       id="path258"
       cx="784.34802"
       cy="-337.73535"
       r="7.7350001" /><circle
       r="7.7350001"
       cy="-337.73535"
       cx="683.35114"
       id="circle262"
       style="fill:#ffffff;stroke-width:0.942948;stroke-linecap:round;stroke-linejoin:round" /></g></g></svg>
