<?xml version="1.0" encoding="UTF-8" standalone="no"?>
<svg
   xmlns:dc="http://purl.org/dc/elements/1.1/"
   xmlns:cc="http://creativecommons.org/ns#"
   xmlns:rdf="http://www.w3.org/1999/02/22-rdf-syntax-ns#"
   xmlns:svg="http://www.w3.org/2000/svg"
   xmlns="http://www.w3.org/2000/svg"
   xmlns:sodipodi="http://sodipodi.sourceforge.net/DTD/sodipodi-0.dtd"
   xmlns:inkscape="http://www.inkscape.org/namespaces/inkscape"
   width="300"
   height="121.5"
   viewBox="-50 -30 30.000003 12.15"
   id="svg2"
   version="1.1"
   inkscape:version="0.91 r13725"
   sodipodi:docname="France_road_sign_M9c.svg">
  <metadata
     id="metadata14">
    <rdf:RDF>
      <cc:Work
         rdf:about="">
        <dc:format>image/svg+xml</dc:format>
        <dc:type
           rdf:resource="http://purl.org/dc/dcmitype/StillImage" />
        <dc:title />
      </cc:Work>
    </rdf:RDF>
  </metadata>
  <defs
     id="defs12" />
  <sodipodi:namedview
     pagecolor="#ffffff"
     bordercolor="#666666"
     borderopacity="1"
     objecttolerance="10"
     gridtolerance="10"
     guidetolerance="10"
     inkscape:pageopacity="0"
     inkscape:pageshadow="2"
     inkscape:window-width="1440"
     inkscape:window-height="788"
     id="namedview10"
     showgrid="false"
     fit-margin-top="1.5"
     fit-margin-left="1.5"
     fit-margin-right="1.5"
     fit-margin-bottom="1.5"
     inkscape:zoom="1.749003"
     inkscape:cx="83.638154"
     inkscape:cy="108.57933"
     inkscape:window-x="0"
     inkscape:window-y="1"
     inkscape:window-maximized="1"
     inkscape:current-layer="svg2"
     showguides="true"
     inkscape:guide-bbox="true" />
  <path
     style="fill:#ffffff;fill-opacity:1;stroke:#000000;stroke-width:0.22058825;stroke-miterlimit:4;stroke-dasharray:none;stroke-opacity:1"
     d="m -49.889698,-20.869822 c 2e-6,1.60743 1.302088,2.909526 2.909537,2.909526 l 23.960337,0 c 1.607446,0 2.909534,-1.302096 2.909533,-2.909526 l -5e-6,-6.092693 c -10e-7,-1.607449 -1.302082,-2.909527 -2.909533,-2.909528 l -23.960351,-9e-6 c -1.60744,-1e-6 -2.909528,1.302088 -2.909526,2.909528 z"
     id="rect3154"
     inkscape:connector-curvature="0"
     sodipodi:nodetypes="sssssssss" />
  <g
     id="g4232">
    <path
       d="m -46.459161,-28.440309 q 0.723076,0.124239 0.946708,0.862225 l 0.02236,0.121755 -0.628654,0.131694 q -0.07702,-0.318055 -0.263389,-0.422416 -0.186359,-0.104361 -0.437324,0.01988 -0.166482,0.141633 -0.278297,0.387629 -0.109332,0.245995 -0.144119,0.665926 -0.01491,0.447264 0.116786,0.777742 0.131694,0.327993 0.318053,0.434839 0.188845,0.106846 0.385144,0.02982 0.196299,-0.0497 0.313084,-0.405022 l 0.628654,0.193814 q -0.126725,0.499444 -0.489505,0.723076 -0.265874,0.168966 -0.626169,0.19133 -0.67835,-0.01491 -1.013798,-0.554111 -0.352841,-0.586412 -0.36278,-1.269731 0.005,-0.85477 0.36775,-1.398941 0.228601,-0.30066 0.511868,-0.414961 0.213693,-0.08449 0.464658,-0.08449 0.082,0 0.168965,0.01 z"
       style="font-style:normal;font-variant:normal;font-weight:500;font-stretch:normal;font-size:5.00000048px;line-height:100%;font-family:'Caracteres L1';-inkscape-font-specification:'Caracteres L1 Medium';letter-spacing:0.8842836px;word-spacing:0px;fill:#000000;fill-opacity:1;stroke:none;stroke-width:1px;stroke-linecap:butt;stroke-linejoin:miter;stroke-opacity:1"
       id="path4173"
       inkscape:connector-curvature="0" />
    <path
       d="m -42.152503,-28.393099 0,0.665926 -1.505787,0 0,0.795135 1.10325,0 0,0.673381 -1.10325,0 0,0.832408 1.570392,0 0,0.67338 -2.271105,0 0,-3.64023 2.2065,0 z m -0.524291,-0.91192 -0.385144,0.755379 -0.767803,0 0.31557,-0.755379 0.837377,0 z"
       style="font-style:normal;font-variant:normal;font-weight:500;font-stretch:normal;font-size:5.00000048px;line-height:100%;font-family:'Caracteres L1';-inkscape-font-specification:'Caracteres L1 Medium';letter-spacing:0.8842836px;word-spacing:0px;fill:#000000;fill-opacity:1;stroke:none;stroke-width:1px;stroke-linecap:butt;stroke-linejoin:miter;stroke-opacity:1"
       id="path4175"
       inkscape:connector-curvature="0" />
    <path
       d="m -38.983934,-28.408007 q 0.35781,0.04224 0.606291,0.285752 0.250964,0.24351 0.36278,0.576473 0.05218,0.146603 0.07702,0.385143 l 0,1.11816 q -0.03727,0.566534 -0.357813,0.914405 -0.318053,0.347871 -0.775257,0.370235 l -1.441182,0 0.0024,-3.650168 1.525667,0 z m -0.815014,2.932062 0.581442,0 q 0.176421,-0.02734 0.300661,-0.129211 0.12424,-0.104361 0.211208,-0.36278 0.04721,-0.159027 0.02733,-1.157915 -0.116785,-0.516839 -0.539201,-0.593867 l -0.581442,0 0,2.243773 z"
       style="font-style:normal;font-variant:normal;font-weight:500;font-stretch:normal;font-size:5.00000048px;line-height:100%;font-family:'Caracteres L1';-inkscape-font-specification:'Caracteres L1 Medium';letter-spacing:0.8842836px;word-spacing:0px;fill:#000000;fill-opacity:1;stroke:none;stroke-width:1px;stroke-linecap:butt;stroke-linejoin:miter;stroke-opacity:1"
       id="path4177"
       inkscape:connector-curvature="0" />
    <path
       d="m -34.365461,-28.393099 0,0.665926 -1.505787,0 0,0.795135 1.10325,0 0,0.673381 -1.10325,0 0,0.832408 1.570392,0 0,0.67338 -2.271106,0 0.0024,-3.64023 2.204015,0 z"
       style="font-style:normal;font-variant:normal;font-weight:500;font-stretch:normal;font-size:5.00000048px;line-height:100%;font-family:'Caracteres L1';-inkscape-font-specification:'Caracteres L1 Medium';letter-spacing:0.8842836px;word-spacing:0px;fill:#000000;fill-opacity:1;stroke:none;stroke-width:1px;stroke-linecap:butt;stroke-linejoin:miter;stroke-opacity:1"
       id="path4179"
       inkscape:connector-curvature="0" />
    <path
       d="m -30.50982,-28.390613 -0.0024,0.703197 -1.565423,2.251227 1.61015,0 0,0.68332 -2.462435,0 0,-0.730531 1.528149,-2.204016 -1.45112,0 0,-0.703197 2.343164,0 z"
       style="font-style:normal;font-variant:normal;font-weight:500;font-stretch:normal;font-size:5.00000048px;line-height:100%;font-family:'Caracteres L1';-inkscape-font-specification:'Caracteres L1 Medium';letter-spacing:0.8842836px;word-spacing:0px;fill:#000000;fill-opacity:1;stroke:none;stroke-width:1px;stroke-linecap:butt;stroke-linejoin:miter;stroke-opacity:1"
       id="path4181"
       inkscape:connector-curvature="0" />
    <path
       d="m -26.878419,-28.400553 0.0024,2.996666 1.408881,0 -0.0024,0.651018 -2.09717,0 0,-3.647684 0.688289,0 z"
       style="font-style:normal;font-variant:normal;font-weight:500;font-stretch:normal;font-size:5.00000048px;line-height:100%;font-family:'Caracteres L1';-inkscape-font-specification:'Caracteres L1 Medium';letter-spacing:0.8842836px;word-spacing:0px;fill:#000000;fill-opacity:1;stroke:none;stroke-width:1px;stroke-linecap:butt;stroke-linejoin:miter;stroke-opacity:1"
       id="path4183"
       inkscape:connector-curvature="0" />
    <path
       d="m -22.092195,-28.393099 0,0.665926 -1.505787,0 0,0.795135 1.103251,0 0,0.673381 -1.103251,0 0,0.832408 1.570392,0 0,0.67338 -2.271104,0 0.0024,-3.64023 2.204016,0 z"
       style="font-style:normal;font-variant:normal;font-weight:500;font-stretch:normal;font-size:5.00000048px;line-height:100%;font-family:'Caracteres L1';-inkscape-font-specification:'Caracteres L1 Medium';letter-spacing:0.8842836px;word-spacing:0px;fill:#000000;fill-opacity:1;stroke:none;stroke-width:1px;stroke-linecap:butt;stroke-linejoin:miter;stroke-opacity:1"
       id="path4185"
       inkscape:connector-curvature="0" />
    <path
       d="m -45.744194,-22.791149 q 0.318054,0.03479 0.561564,0.228601 0.245995,0.193814 0.352842,0.437324 0.134179,0.260904 0.134179,0.55908 0,0.139149 -0.0025,0.18139 -0.01988,0.342902 -0.141634,0.571504 -0.121755,0.228601 -0.265873,0.350356 -0.313085,0.285752 -0.658471,0.290721 l -0.690774,0 0,1.021252 -0.680835,0 0,-3.640228 1.391487,0 z m -0.700713,1.893415 0.561564,0 q 0.12921,-0.01491 0.213693,-0.0646 0.228601,-0.136664 0.273328,-0.474597 0.0075,-0.30563 -0.12424,-0.464657 -0.131695,-0.159027 -0.350357,-0.18139 l -0.573988,0 0,1.185248 z"
       style="font-style:normal;font-variant:normal;font-weight:500;font-stretch:normal;font-size:5.08886576px;line-height:100%;font-family:'Caracteres L1';-inkscape-font-specification:'Caracteres L1 Medium';letter-spacing:0.95000011px;word-spacing:0px;fill:#000000;fill-opacity:1;stroke:none;stroke-width:1px;stroke-linecap:butt;stroke-linejoin:miter;stroke-opacity:1"
       id="path4195"
       inkscape:connector-curvature="0" />
    <path
       d="m -42.14043,-22.791149 0.939254,3.640228 -0.713137,0 -0.156542,-0.618714 -1.006344,0 -0.159027,0.618714 -0.720591,0 0.929314,-3.640228 0.887073,0 z m -0.800105,2.328255 0.718107,0 -0.347872,-1.421304 -0.370235,1.421304 z"
       style="font-style:normal;font-variant:normal;font-weight:500;font-stretch:normal;font-size:5.08886576px;line-height:100%;font-family:'Caracteres L1';-inkscape-font-specification:'Caracteres L1 Medium';letter-spacing:0.95000011px;word-spacing:0px;fill:#000000;fill-opacity:1;stroke:none;stroke-width:1px;stroke-linecap:butt;stroke-linejoin:miter;stroke-opacity:1"
       id="path4197"
       inkscape:connector-curvature="0" />
    <path
       d="m -40.027545,-19.886421 0,-0.005 q 0,-0.02733 0.05715,-0.03727 0.439809,-0.141634 0.571503,-0.203754 0.06709,0.09194 0.176421,0.166482 0.176421,0.104361 0.377689,0.126724 0.213693,0.005 0.265874,-0.0099 0.245994,-0.06957 0.303145,-0.141633 0.05715,-0.0497 0.09939,-0.241026 0.0099,-0.07454 -0.01988,-0.166481 -0.03727,-0.06212 -0.07951,-0.104362 l -0.08448,-0.0646 -0.09442,-0.04224 q -0.78768,-0.245995 -0.867194,-0.288237 -0.365265,-0.146603 -0.544171,-0.484535 -0.116785,-0.226117 -0.104361,-0.54914 0.04721,-0.402538 0.330478,-0.638593 0.318054,-0.231087 0.663441,-0.250965 l 0.06461,0 q 0.245995,0 0.407506,0.03727 0.327994,0.09194 0.511869,0.255934 0.183875,0.151573 0.303145,0.412477 l -0.0075,0.02733 -0.511869,0.245995 -0.02485,-0.01242 q -0.04721,-0.151572 -0.265873,-0.245995 -0.245995,-0.09194 -0.576473,-0.005 -0.141634,0.04721 -0.198784,0.121755 -0.01988,0.01988 -0.05218,0.12424 -0.005,0.121755 0.0099,0.141633 0.0323,0.08448 0.129209,0.151573 l 0.06461,0.02733 q 0.705682,0.208723 0.956647,0.303145 0.216177,0.09939 0.330478,0.218662 l 0.139149,0.188845 q 0.154057,0.255934 0.163996,0.559079 0.0025,0.01988 0.0025,0.04721 0,0.09691 -0.02982,0.260904 -0.06212,0.231086 -0.149088,0.340418 -0.149088,0.183875 -0.216178,0.221146 -0.365265,0.250965 -0.752893,0.270843 l -0.226117,0 q -0.253449,-0.02485 -0.427385,-0.09939 -0.278298,-0.12921 -0.449749,-0.288237 -0.141633,-0.129209 -0.245995,-0.370235 z"
       style="font-style:normal;font-variant:normal;font-weight:500;font-stretch:normal;font-size:5.08886576px;line-height:100%;font-family:'Caracteres L1';-inkscape-font-specification:'Caracteres L1 Medium';letter-spacing:0.95000011px;word-spacing:0px;fill:#000000;fill-opacity:1;stroke:none;stroke-width:1px;stroke-linecap:butt;stroke-linejoin:miter;stroke-opacity:1"
       id="path4199"
       inkscape:connector-curvature="0" />
    <path
       d="m -36.344266,-19.886421 0,-0.005 q 0,-0.02733 0.05715,-0.03727 0.439809,-0.141634 0.571503,-0.203754 0.06709,0.09194 0.176421,0.166482 0.176421,0.104361 0.377689,0.126724 0.213693,0.005 0.265874,-0.0099 0.245995,-0.06957 0.303145,-0.141633 0.05715,-0.0497 0.09939,-0.241026 0.0099,-0.07454 -0.01988,-0.166481 -0.03727,-0.06212 -0.07951,-0.104362 l -0.08448,-0.0646 -0.09442,-0.04224 q -0.78768,-0.245995 -0.867194,-0.288237 -0.365265,-0.146603 -0.544171,-0.484535 -0.116785,-0.226117 -0.104361,-0.54914 0.04721,-0.402538 0.330478,-0.638593 0.318054,-0.231087 0.663441,-0.250965 l 0.06461,0 q 0.245995,0 0.407507,0.03727 0.327993,0.09194 0.511868,0.255934 0.183875,0.151573 0.303145,0.412477 l -0.0075,0.02733 -0.511869,0.245995 -0.02485,-0.01242 q -0.04721,-0.151572 -0.265873,-0.245995 -0.245995,-0.09194 -0.576473,-0.005 -0.141633,0.04721 -0.198784,0.121755 -0.01988,0.01988 -0.05218,0.12424 -0.005,0.121755 0.0099,0.141633 0.0323,0.08448 0.129209,0.151573 l 0.06461,0.02733 q 0.705682,0.208723 0.956647,0.303145 0.216177,0.09939 0.330478,0.218662 l 0.139149,0.188845 q 0.154057,0.255934 0.163996,0.559079 0.0025,0.01988 0.0025,0.04721 0,0.09691 -0.02982,0.260904 -0.06212,0.231086 -0.149088,0.340418 -0.149088,0.183875 -0.216178,0.221146 -0.365265,0.250965 -0.752893,0.270843 l -0.226117,0 q -0.253449,-0.02485 -0.427385,-0.09939 -0.278297,-0.12921 -0.449749,-0.288237 -0.141633,-0.129209 -0.245994,-0.370235 z"
       style="font-style:normal;font-variant:normal;font-weight:500;font-stretch:normal;font-size:5.08886576px;line-height:100%;font-family:'Caracteres L1';-inkscape-font-specification:'Caracteres L1 Medium';letter-spacing:0.95000011px;word-spacing:0px;fill:#000000;fill-opacity:1;stroke:none;stroke-width:1px;stroke-linecap:butt;stroke-linejoin:miter;stroke-opacity:1"
       id="path4201"
       inkscape:connector-curvature="0" />
    <path
       d="m -30.886844,-22.791149 0.939254,3.640228 -0.713137,0 -0.156542,-0.618714 -1.006344,0 -0.159027,0.618714 -0.720591,0 0.929314,-3.640228 0.887073,0 z m -0.800105,2.328255 0.718107,0 -0.347872,-1.421304 -0.370235,1.421304 z"
       style="font-style:normal;font-variant:normal;font-weight:500;font-stretch:normal;font-size:5.08886576px;line-height:100%;font-family:'Caracteres L1';-inkscape-font-specification:'Caracteres L1 Medium';letter-spacing:0.95000011px;word-spacing:0px;fill:#000000;fill-opacity:1;stroke:none;stroke-width:1px;stroke-linecap:butt;stroke-linejoin:miter;stroke-opacity:1"
       id="path4203"
       inkscape:connector-curvature="0" />
    <path
       d="m -27.506712,-22.835876 q 0.713137,0.07454 1.013798,0.946708 l -0.646048,0.168966 q -0.173936,-0.382658 -0.397568,-0.459687 -0.290721,-0.109331 -0.561564,0.30563 -0.168966,0.278297 -0.208723,0.812529 -0.0075,0.588897 0.183875,0.914405 0.193814,0.325509 0.454718,0.362781 0.439809,-0.0075 0.6212,-0.663441 l -0.588897,0 0,-0.663441 1.297064,0 0,0.02982 q 0.0025,0.05964 0.0025,0.121756 0,0.867194 -0.414961,1.406395 -0.278298,0.382659 -0.815014,0.427385 l -0.05467,0 q -1.192703,0 -1.34676,-1.694632 -0.0025,-0.0497 -0.0025,-0.101877 0,-0.872164 0.395083,-1.461061 0.233571,-0.298175 0.504414,-0.385143 0.213693,-0.06958 0.447264,-0.06958 0.05715,0 0.116785,0.0025 z"
       style="font-style:normal;font-variant:normal;font-weight:500;font-stretch:normal;font-size:5.08886576px;line-height:100%;font-family:'Caracteres L1';-inkscape-font-specification:'Caracteres L1 Medium';letter-spacing:0.95000011px;word-spacing:0px;fill:#000000;fill-opacity:1;stroke:none;stroke-width:1px;stroke-linecap:butt;stroke-linejoin:miter;stroke-opacity:1"
       id="path4205"
       inkscape:connector-curvature="0" />
    <path
       d="m -22.928906,-22.783695 0,0.665926 -1.505787,0 0,0.795135 1.10325,0 0,0.67338 -1.10325,0 0,0.832407 1.570392,0 0,0.673381 -2.271105,0 0.0025,-3.640229 2.204015,0 z"
       style="font-style:normal;font-variant:normal;font-weight:500;font-stretch:normal;font-size:5.08886576px;line-height:100%;font-family:'Caracteres L1';-inkscape-font-specification:'Caracteres L1 Medium';letter-spacing:0.95000011px;word-spacing:0px;fill:#000000;fill-opacity:1;stroke:none;stroke-width:1px;stroke-linecap:butt;stroke-linejoin:miter;stroke-opacity:1"
       id="path4207"
       inkscape:connector-curvature="0" />
  </g>
</svg>
