<?xml version="1.0" encoding="UTF-8" standalone="no"?>
<!-- Generator: Adobe Illustrator 13.0.0, SVG Export Plug-In  -->

<svg
   xmlns:dc="http://purl.org/dc/elements/1.1/"
   xmlns:cc="http://creativecommons.org/ns#"
   xmlns:rdf="http://www.w3.org/1999/02/22-rdf-syntax-ns#"
   xmlns:svg="http://www.w3.org/2000/svg"
   xmlns="http://www.w3.org/2000/svg"
   xmlns:sodipodi="http://sodipodi.sourceforge.net/DTD/sodipodi-0.dtd"
   xmlns:inkscape="http://www.inkscape.org/namespaces/inkscape"
   version="1.1"
   x="0px"
   y="0px"
   width="300"
   height="187.5"
   viewBox="-0.082 -0.083 300 187.5"
   enable-background="new -0.082 -0.083 390 198"
   xml:space="preserve"
   id="svg2"
   inkscape:version="0.91 r13725"
   sodipodi:docname="France_road_sign_M9v3.svg"><metadata
     id="metadata52"><rdf:RDF><cc:Work
         rdf:about=""><dc:format>image/svg+xml</dc:format><dc:type
           rdf:resource="http://purl.org/dc/dcmitype/StillImage" /><dc:title></dc:title></cc:Work></rdf:RDF></metadata><sodipodi:namedview
     pagecolor="#ffffff"
     bordercolor="#666666"
     borderopacity="1"
     objecttolerance="10"
     gridtolerance="10"
     guidetolerance="10"
     inkscape:pageopacity="0"
     inkscape:pageshadow="2"
     inkscape:window-width="1440"
     inkscape:window-height="788"
     id="namedview50"
     showgrid="false"
     inkscape:zoom="1.8657732"
     inkscape:cx="104.80579"
     inkscape:cy="131.55732"
     inkscape:window-x="0"
     inkscape:window-y="1"
     inkscape:window-maximized="1"
     inkscape:current-layer="svg2" /><defs
     id="defs4"><inkscape:perspective
       sodipodi:type="inkscape:persp3d"
       inkscape:vp_x="0 : 99 : 1"
       inkscape:vp_y="0 : 1000 : 0"
       inkscape:vp_z="390 : 99 : 1"
       inkscape:persp3d-origin="195 : 66 : 1"
       id="perspective4308" /></defs><g
     id="g4410"
     transform="matrix(0.98215614,0,0,0.98201275,-464.08455,24.663045)"><rect
       ry="31.086308"
       y="-23.084412"
       x="474.46906"
       height="186.783"
       width="301.37701"
       id="rect4365"
       style="opacity:1;fill:#ffffff;fill-opacity:1;fill-rule:evenodd;stroke:#000000;stroke-width:4.07295942;stroke-linecap:round;stroke-linejoin:round;stroke-miterlimit:4;stroke-dasharray:none;stroke-dashoffset:0;stroke-opacity:1" /><g
       transform="translate(2.1233923,-6.3330767)"
       id="g4393"><path
         inkscape:connector-curvature="0"
         style="fill:#000000;stroke:none;stroke-width:2.16587019"
         d="m 665.2207,61.658203 c -6.74121,-0.228122 -8.72282,8.669534 -3.60156,10.421875 l 4.95508,1.847656 -6.35742,18.615235 a 24.544544,24.544544 0 0 0 -9.91211,-2.123047 24.544544,24.544544 0 0 0 -24.54492,24.544918 24.544544,24.544544 0 0 0 24.54492,24.54493 24.544544,24.544544 0 0 0 24.54492,-24.54493 24.544544,24.544544 0 0 0 -10.88086,-20.367184 l 1.90625,-5.517578 23.32617,25.894532 a 8,8 0 0 0 -0.76758,3.39648 8,8 0 0 0 7.98633,8 l 0.94727,5.4961 -2.14453,0.36914 0.59765,3.48242 7.64844,-1.31641 -0.59961,-3.48242 -1.88867,0.32422 -0.98242,-5.71484 a 8,8 0 0 0 4.25,-5.47071 l 5.9707,-0.41406 a 24.544544,24.544544 0 0 0 24.08594,19.86524 24.544544,24.544544 0 0 0 24.54492,-24.54493 24.544544,24.544544 0 0 0 -24.54492,-24.544918 24.544544,24.544544 0 0 0 -11.10157,2.68164 l -9.35937,-13.578124 2.1582,-6.373047 c 2.98204,-0.72282 5.65397,-1.400426 6.78907,-2.792969 1.59861,-1.96119 -0.51523,-4.70369 -3.80664,-4.625 l -13.02344,0 c -2.86475,-0.0399 -3.95763,2.949256 -2.17969,3.980469 l 7.81836,3.193359 -1.48438,4.386719 -40.16796,0 1.03711,-3 -0.006,-0.002 0.87304,-2.873047 c -2.92815,-1.321781 -9.14515,-2.053107 -8.32031,-4.384766 0.24601,-2.579939 9.38768,-1.054212 12.49023,-1.679687 l 0,-3.695313 -10.80078,0 z m 3.28711,19.802735 40.33399,0 -9.91992,29.312502 a 8,8 0 0 0 -1.52344,-0.33789 l -0.90625,-5.27344 1.85937,-0.32031 -0.59961,-3.48242 -7.64648,1.3164 0.59961,3.48047 2.17187,-0.37305 0.8711,5.0586 a 8,8 0 0 0 -1.07617,0.47656 l -24.91993,-27.667969 0.75586,-2.189453 z m 43.77149,3.982421 6.99609,10.152344 a 24.544544,24.544544 0 0 0 -9.51562,19.369137 24.544544,24.544544 0 0 0 0.002,0.0547 l -5.89258,0.4082 a 8,8 0 0 0 -1.08984,-1.91796 l 9.5,-28.066411 z m -61.97461,8.765625 a 20.754658,20.754658 0 0 1 8.68359,1.929688 l -4.36719,12.789058 c -0.26205,0.93955 -1.19736,1.53682 -2.08593,2.14844 a 4.5,4.5 0 0 0 -2.42774,-0.71679 4.5,4.5 0 0 0 -4.5,4.5 4.5,4.5 0 0 0 4.5,4.5 4.5,4.5 0 0 0 4.5,-4.5 4.5,4.5 0 0 0 -0.041,-0.55079 c 1.7011,-1.07975 3.27761,-2.36579 3.66406,-3.10547 l 4.44726,-12.873042 a 20.754658,20.754658 0 0 1 8.38282,16.634762 20.754658,20.754658 0 0 1 -20.75586,20.75391 20.754658,20.754658 0 0 1 -20.75391,-20.75391 20.754658,20.754658 0 0 1 20.75391,-20.755856 z m 84,0 a 20.754658,20.754658 0 0 1 20.75586,20.755856 20.754658,20.754658 0 0 1 -20.75586,20.75391 20.754658,20.754658 0 0 1 -20.25196,-16.33984 l 17.15625,-1.18946 a 4.5,4.5 0 0 0 3.22266,1.35938 4.5,4.5 0 0 0 4.5,-4.5 4.5,4.5 0 0 0 -3.64648,-4.41602 L 725.37305,96.25 a 20.754658,20.754658 0 0 1 8.93164,-2.041016 z m -12.89063,4.488282 9.41602,13.662114 a 4.5,4.5 0 0 0 -0.65625,1.24414 l -16.61328,1.15234 a 20.754658,20.754658 0 0 1 7.85351,-16.058594 z"
         id="circle4300"
         transform="translate(-0.082,-0.083)" /><g
         style="font-size:60px;font-family:Arial-BoldMT;fill:#000000"
         id="text44"><path
           inkscape:connector-curvature="0"
           d="m 528.13409,13.975636 0,35.791015 -6.78711,0 0,-35.791015 6.78711,0 z"
           style="font-style:normal;font-variant:normal;font-weight:500;font-stretch:normal;font-size:50px;font-family:'Caracteres L1';-inkscape-font-specification:'Caracteres L1 Medium';letter-spacing:4.69999981px;fill:#000000"
           id="path4368" /><path
           inkscape:connector-curvature="0"
           d="m 545.62706,13.926807 8.98438,19.091797 0,-19.091797 6.64062,0 0.0244,35.839844 -6.51856,0 -10.91308,-22.583008 -0.0244,22.607422 -6.71386,0 0,-35.864258 8.5205,0 z"
           style="font-style:normal;font-variant:normal;font-weight:500;font-stretch:normal;font-size:50px;font-family:'Caracteres L1';-inkscape-font-specification:'Caracteres L1 Medium';letter-spacing:4.69999981px;fill:#000000"
           id="path4370" /><path
           inkscape:connector-curvature="0"
           d="m 590.97648,13.951221 0,6.884766 -7.15332,0 0,28.930664 -6.64063,0 0,-29.003906 -7.6416,0 0,-6.811524 21.43555,0 z"
           style="font-style:normal;font-variant:normal;font-weight:500;font-stretch:normal;font-size:50px;font-family:'Caracteres L1';-inkscape-font-specification:'Caracteres L1 Medium';letter-spacing:4.69999981px;fill:#000000"
           id="path4372" /><path
           inkscape:connector-curvature="0"
           d="m 620.11495,14.00005 0,6.542968 -14.79492,0 0,7.8125 10.83984,0 0,6.616211 -10.83984,0 0,8.178711 15.42969,0 0,6.616211 -22.31446,0 0.0244,-35.766601 21.65527,0 z"
           style="font-style:normal;font-variant:normal;font-weight:500;font-stretch:normal;font-size:50px;font-family:'Caracteres L1';-inkscape-font-specification:'Caracteres L1 Medium';letter-spacing:4.69999981px;fill:#000000"
           id="path4374" /><path
           inkscape:connector-curvature="0"
           d="m 640.22023,13.853565 q 5.63965,0 8.81348,4.052735 2.7832,3.564453 2.7832,8.032226 0,0.805664 -0.0977,1.904297 -0.58593,5.444336 -5.44433,9.008789 l 5.95703,12.890625 -7.71484,0 -5.10254,-10.668945 -4.41895,0 0,10.742187 -6.76269,0 0.0244,-35.961914 11.96289,0 z m -0.97656,18.334961 2.00195,-0.24414 q 1.70899,-0.463868 2.85645,-1.928711 0.97656,-1.44043 1.17187,-3.442383 0.0977,-2.490235 -1.46484,-4.345703 -1.31836,-1.513672 -3.83301,-1.708985 l -4.90723,0 0,11.669922 4.17481,0 z"
           style="font-style:normal;font-variant:normal;font-weight:500;font-stretch:normal;font-size:50px;font-family:'Caracteres L1';-inkscape-font-specification:'Caracteres L1 Medium';letter-spacing:4.69999981px;fill:#000000"
           id="path4376" /><path
           inkscape:connector-curvature="0"
           d="m 673.94855,13.853565 q 3.51562,0.415039 5.95703,2.807617 2.46582,2.392579 3.56445,5.664063 0.5127,1.44043 0.75684,3.78418 l 0,10.986328 q -0.36621,5.566406 -3.51563,8.984375 -3.125,3.417968 -7.61718,3.637695 l -14.16016,0 0.0244,-35.864258 14.99024,0 z m -8.00782,28.808594 5.7129,0 q 1.73339,-0.268555 2.9541,-1.269531 1.2207,-1.025391 2.07519,-3.564453 0.46387,-1.5625 0.26856,-11.376954 -1.14746,-5.078125 -5.29785,-5.83496 l -5.7129,0 0,22.045898 z"
           style="font-style:normal;font-variant:normal;font-weight:500;font-stretch:normal;font-size:50px;font-family:'Caracteres L1';-inkscape-font-specification:'Caracteres L1 Medium';letter-spacing:4.69999981px;fill:#000000"
           id="path4378" /><path
           inkscape:connector-curvature="0"
           d="m 699.20518,13.975636 0,35.791015 -6.7871,0 0,-35.791015 6.7871,0 z"
           style="font-style:normal;font-variant:normal;font-weight:500;font-stretch:normal;font-size:50px;font-family:'Caracteres L1';-inkscape-font-specification:'Caracteres L1 Medium';letter-spacing:4.69999981px;fill:#000000"
           id="path4380" /><path
           inkscape:connector-curvature="0"
           d="m 729.32022,13.951221 0,6.884766 -7.15332,0 0,28.930664 -6.64062,0 0,-29.003906 -7.64161,0 0,-6.811524 21.43555,0 z"
           style="font-style:normal;font-variant:normal;font-weight:500;font-stretch:normal;font-size:50px;font-family:'Caracteres L1';-inkscape-font-specification:'Caracteres L1 Medium';letter-spacing:4.69999981px;fill:#000000"
           id="path4382" /></g><g
         style="font-size:60px;font-family:Arial-BoldMT;fill:#000000"
         id="text4361"><path
           inkscape:connector-curvature="0"
           d="m 487.30075,113.33772 0,-0.0488 q 0,-0.26856 0.56152,-0.36621 4.32129,-1.39161 5.61524,-2.00196 0.65918,0.90332 1.7334,1.63575 1.7334,1.02539 3.71093,1.24511 2.09961,0.0488 2.61231,-0.0977 2.41699,-0.6836 2.97851,-1.39161 0.56153,-0.48828 0.97657,-2.36816 0.0976,-0.73242 -0.19532,-1.63574 -0.36621,-0.61035 -0.78125,-1.02539 l -0.83007,-0.63477 -0.92774,-0.41504 q -7.73926,-2.41699 -8.52051,-2.83203 -3.58886,-1.44043 -5.34668,-4.76074 -1.14746,-2.22168 -1.02539,-5.395508 0.46387,-3.955078 3.24707,-6.274414 3.125,-2.270508 6.51856,-2.465821 l 0.63476,0 q 2.417,0 4.00391,0.366211 3.22266,0.903321 5.0293,2.514649 1.80664,1.489258 2.97851,4.052734 l -0.0732,0.268555 -5.0293,2.416992 -0.24414,-0.12207 q -0.46386,-1.489258 -2.6123,-2.416993 -2.41699,-0.90332 -5.66406,-0.04883 -1.3916,0.463868 -1.95313,1.196289 -0.19531,0.195313 -0.51269,1.220704 -0.0488,1.196289 0.0976,1.391601 0.31739,0.830078 1.26953,1.489258 l 0.63477,0.268555 q 6.93359,2.050781 9.39941,2.978518 2.12403,0.97656 3.24707,2.14844 l 1.36719,1.85547 q 1.51367,2.51464 1.61133,5.49316 0.0244,0.19531 0.0244,0.46387 0,0.95215 -0.29297,2.56347 -0.61035,2.27051 -1.46484,3.34473 -1.46484,1.80664 -2.12402,2.17285 -3.58887,2.46582 -7.39746,2.66113 l -2.22168,0 q -2.49024,-0.24414 -4.19922,-0.97656 -2.73438,-1.26953 -4.41895,-2.83203 -1.3916,-1.26953 -2.41699,-3.63769 z"
           style="font-style:normal;font-variant:normal;font-weight:500;font-stretch:normal;font-size:50px;font-family:'Caracteres L1';-inkscape-font-specification:'Caracteres L1 Medium';letter-spacing:4.69999981px;fill:#000000"
           id="path4385" /><path
           inkscape:connector-curvature="0"
           d="m 536.28786,84.797676 9.22852,35.766604 -7.00684,0 -1.53809,-6.0791 -9.88769,0 -1.5625,6.0791 -7.08008,0 9.13086,-35.766604 8.71582,0 z m -7.86133,22.875974 7.05567,0 -3.41797,-13.964841 -3.6377,13.964841 z"
           style="font-style:normal;font-variant:normal;font-weight:500;font-stretch:normal;font-size:50px;font-family:'Caracteres L1';-inkscape-font-specification:'Caracteres L1 Medium';letter-spacing:4.69999981px;fill:#000000"
           id="path4387" /><path
           inkscape:connector-curvature="0"
           d="m 560.12849,84.895332 0,24.218748 q 0.46386,4.63867 5.22461,5.17578 4.6875,-0.51269 5.27343,-5.10254 l 0,-24.291988 6.90918,0 0,26.098638 q -0.90332,4.78515 -4.5166,7.44628 -3.22265,2.27051 -6.5918,2.39258 -0.5371,0.0488 -1.0498,0.0488 -5.00488,0 -8.27637,-2.90527 -3.73535,-3.61328 -3.95508,-7.37305 l 0,-25.708008 6.98243,0 z"
           style="font-style:normal;font-variant:normal;font-weight:500;font-stretch:normal;font-size:50px;font-family:'Caracteres L1';-inkscape-font-specification:'Caracteres L1 Medium';letter-spacing:4.69999981px;fill:#000000"
           id="path4389" /><path
           inkscape:connector-curvature="0"
           d="m 607.30895,84.797676 0,6.542969 -14.79492,0 0,7.8125 10.83984,0 0,6.640625 -10.83984,0 -0.0244,14.79492 -6.88477,0 0.0244,-35.791014 21.67969,0 z"
           style="font-style:normal;font-variant:normal;font-weight:500;font-stretch:normal;font-size:50px;font-family:'Caracteres L1';-inkscape-font-specification:'Caracteres L1 Medium';letter-spacing:4.69999981px;fill:#000000"
           id="path4391" /></g></g></g></svg>