<svg xmlns="http://www.w3.org/2000/svg" viewBox="0 0 240 240"><rect x="75.0" y="1.0" width="90" height="238" rx="12" fill="#1b1b1b"/><circle cx="120" cy="46.0" r="28" fill="#d0121a" stroke="#000" stroke-width="2"/><g transform="translate(120,46.0) rotate(0)" fill="#1b1b1b"><path d="M0 -18 L14 0 L5 0 L5 18 L-5 18 L-5 0 L-14 0 Z"/></g><circle cx="120" cy="120.0" r="28" fill="#f7c600" stroke="#000" stroke-width="2"/><g transform="translate(120,120.0) rotate(0)" fill="#1b1b1b"><path d="M0 -18 L14 0 L5 0 L5 18 L-5 18 L-5 0 L-14 0 Z"/></g><circle cx="120" cy="194.0" r="28" fill="#009a3d" stroke="#000" stroke-width="2"/><g transform="translate(120,194.0) rotate(90)" fill="#1b1b1b"><path d="M0 -18 L14 0 L5 0 L5 18 L-5 18 L-5 0 L-14 0 Z"/></g></svg>