<?xml version="1.0" encoding="utf-8"?>
<!-- Generator: Adobe Illustrator 13.0.0, SVG Export Plug-In  -->
<!DOCTYPE svg PUBLIC "-//W3C//DTD SVG 1.1//EN" "http://www.w3.org/Graphics/SVG/1.1/DTD/svg11.dtd" [
	<!ENTITY ns_flows "http://ns.adobe.com/Flows/1.0/">
]>
<svg version="1.1"
	 xmlns="http://www.w3.org/2000/svg" xmlns:xlink="http://www.w3.org/1999/xlink" xmlns:a="http://ns.adobe.com/AdobeSVGViewerExtensions/3.0/"
	 x="0px" y="0px" width="808px" height="173px" viewBox="-0.563 -0.11 808 173" enable-background="new -0.563 -0.11 808 173"
	 xml:space="preserve">
<defs>
</defs>
<rect x="43.217" y="12.606" fill="#A2A2A2" width="763.463" height="109.394"/>
<line fill="none" stroke="#FEFEFE" stroke-width="7" x1="43.339" y1="74.141" x2="125.029" y2="74.141"/>
<line fill="none" stroke="#F8F8F8" stroke-width="7" x1="387.339" y1="77.141" x2="469.029" y2="77.141"/>
<line fill="none" stroke="#F9F9F9" stroke-width="7" x1="725.339" y1="79.141" x2="807.029" y2="79.141"/>
<line fill="none" stroke="#CCCCCC" x1="125.438" y1="52" x2="125.438" y2="64"/>
<line fill="none" stroke="#2B2B2B" x1="125.104" y1="54" x2="125.104" y2="66"/>
<line fill="none" stroke="#2B2B2B" x1="387.104" y1="56.333" x2="387.104" y2="68.333"/>
<path fill="#293790" stroke="#2F499F" stroke-width="0.5" d="M73.359,52.578l1.23-0.164c0.141,0.697,0.382,1.2,0.721,1.507
	s0.753,0.461,1.241,0.461c0.579,0,1.067-0.201,1.466-0.602s0.598-0.898,0.598-1.49c0-0.565-0.185-1.031-0.554-1.398
	s-0.838-0.55-1.408-0.55c-0.232,0-0.522,0.045-0.868,0.137l0.137-1.08c0.082,0.009,0.148,0.014,0.198,0.014
	c0.524,0,0.996-0.137,1.415-0.41s0.629-0.695,0.629-1.265c0-0.451-0.153-0.825-0.458-1.121s-0.7-0.444-1.183-0.444
	c-0.479,0-0.877,0.15-1.196,0.451s-0.524,0.752-0.615,1.354l-1.23-0.219c0.15-0.825,0.492-1.464,1.025-1.917s1.196-0.68,1.989-0.68
	c0.547,0,1.05,0.117,1.511,0.352s0.813,0.555,1.056,0.96s0.366,0.836,0.366,1.292c0,0.433-0.116,0.827-0.349,1.183
	s-0.577,0.638-1.032,0.848c0.592,0.137,1.053,0.42,1.381,0.851s0.492,0.97,0.492,1.617c0,0.875-0.319,1.617-0.957,2.225
	s-1.445,0.913-2.42,0.913c-0.879,0-1.61-0.262-2.191-0.786S73.441,53.412,73.359,52.578z"/>
<path fill="#293790" stroke="#2F499F" stroke-width="0.5" d="M85.37,55.223v-7.26h1.101v1.019c0.228-0.355,0.531-0.642,0.909-0.858
	s0.809-0.325,1.292-0.325c0.538,0,0.979,0.112,1.323,0.335s0.587,0.536,0.728,0.937c0.574-0.848,1.322-1.271,2.242-1.271
	c0.72,0,1.274,0.199,1.661,0.598s0.581,1.013,0.581,1.842v4.983h-1.224V50.65c0-0.492-0.04-0.847-0.12-1.063
	s-0.225-0.391-0.434-0.523s-0.456-0.198-0.738-0.198c-0.51,0-0.934,0.17-1.271,0.509s-0.506,0.883-0.506,1.63v4.218h-1.23v-4.717
	c0-0.547-0.1-0.957-0.301-1.23s-0.529-0.41-0.984-0.41c-0.346,0-0.667,0.091-0.96,0.273s-0.507,0.449-0.639,0.8
	S86.6,50.796,86.6,51.457v3.767H85.37z"/>
<g>
	<g>
		<line fill="#293790" x1="49.104" y1="61.89" x2="116.438" y2="61.89"/>
		<path fill="#293790" d="M122.473,61.89c-2.84,1.054-6.363,2.852-8.547,4.755l1.72-4.755l-1.72-4.755
			C116.109,59.038,119.633,60.836,122.473,61.89z"/>
		<path fill="#293790" d="M43.069,61.89c2.84-1.054,6.363-2.852,8.547-4.755l-1.72,4.755l1.72,4.755
			C49.432,64.741,45.909,62.943,43.069,61.89z"/>
	</g>
	<g>
		<line fill="none" stroke="#2F499F" stroke-width="0.5" x1="49.104" y1="61.89" x2="116.438" y2="61.89"/>
		<path fill="#2F499F" d="M119.455,61.89c-1.42,0.527-3.182,1.426-4.273,2.377l0.86-2.377l-0.86-2.377
			C116.273,60.464,118.035,61.363,119.455,61.89z"/>
		<path fill="#2F499F" d="M46.086,61.89c1.42-0.527,3.182-1.426,4.273-2.377L49.5,61.89l0.86,2.377
			C49.268,63.315,47.506,62.416,46.086,61.89z"/>
	</g>
</g>
<path fill="#435DAA" stroke="#2F499F" d="M234.987,57.89h-1.23v-7.841c-0.296,0.283-0.685,0.565-1.166,0.848
	s-0.913,0.495-1.295,0.636v-1.189c0.688-0.324,1.29-0.715,1.805-1.176s0.879-0.907,1.094-1.34h0.793V57.89z"/>
<path fill="#435DAA" stroke="#2F499F" d="M239.129,57.022c-0.661-0.834-0.991-2.192-0.991-4.074c0-1.185,0.122-2.139,0.366-2.861
	s0.606-1.279,1.087-1.671s1.086-0.588,1.815-0.588c0.538,0,1.009,0.108,1.415,0.325s0.741,0.529,1.005,0.937s0.472,0.905,0.622,1.49
	s0.226,1.375,0.226,2.369c0,1.176-0.121,2.125-0.362,2.847s-0.603,1.281-1.083,1.675s-1.088,0.591-1.822,0.591
	C240.439,58.061,239.681,57.715,239.129,57.022L239.129,57.022z M240.039,49.564c-0.424,0.611-0.636,1.739-0.636,3.384
	s0.192,2.74,0.578,3.285s0.86,0.817,1.425,0.817s1.04-0.273,1.425-0.82s0.578-1.641,0.578-3.281c0-1.65-0.192-2.746-0.578-3.288
	s-0.865-0.813-1.439-0.813C240.827,48.846,240.376,49.085,240.039,49.564L240.039,49.564z"/>
<path fill="#435DAA" stroke="#2F499F" d="M250.156,57.89v-7.26h1.101v1.019c0.228-0.355,0.531-0.642,0.909-0.858
	s0.809-0.325,1.292-0.325c0.538,0,0.979,0.112,1.323,0.335s0.587,0.536,0.728,0.937c0.574-0.848,1.322-1.271,2.242-1.271
	c0.72,0,1.274,0.199,1.661,0.598s0.581,1.013,0.581,1.842v4.983h-1.224v-4.573c0-0.492-0.04-0.847-0.12-1.063
	s-0.225-0.391-0.434-0.523s-0.456-0.198-0.738-0.198c-0.51,0-0.934,0.17-1.271,0.509s-0.506,0.883-0.506,1.63v4.218h-1.23v-4.717
	c0-0.547-0.1-0.957-0.301-1.23s-0.529-0.41-0.984-0.41c-0.346,0-0.667,0.091-0.96,0.273s-0.507,0.449-0.639,0.8
	s-0.198,0.857-0.198,1.518v3.767H250.156z"/>
<g>
	<g>
		<line fill="#395AA8" x1="131.771" y1="61.89" x2="380.772" y2="61.89"/>
		<path fill="#395AA8" d="M386.808,61.89c-2.84,1.054-6.363,2.852-8.547,4.755l1.72-4.755l-1.72-4.755
			C380.444,59.038,383.968,60.836,386.808,61.89z"/>
		<path fill="#395AA8" d="M125.736,61.89c2.84-1.054,6.363-2.852,8.547-4.755l-1.72,4.755l1.72,4.755
			C132.1,64.741,128.576,62.943,125.736,61.89z"/>
	</g>
	<g>
		<line fill="none" stroke="#2F499F" stroke-width="0.5" x1="131.771" y1="61.89" x2="380.772" y2="61.89"/>
		<path fill="#2F499F" d="M383.79,61.89c-1.42,0.527-3.182,1.426-4.273,2.377l0.86-2.377l-0.86-2.377
			C380.608,60.464,382.37,61.363,383.79,61.89z"/>
		<path fill="#2F499F" d="M128.754,61.89c1.42-0.527,3.182-1.426,4.273-2.377l-0.86,2.377l0.86,2.377
			C131.936,63.315,130.174,62.416,128.754,61.89z"/>
	</g>
</g>
<line fill="#01579F" stroke="#2F499F" stroke-width="0.5" x1="386.438" y1="6" x2="386.438" y2="172"/>
<g>
	<g>
		<line fill="#2F499F" x1="49.374" y1="152.28" x2="377.375" y2="152.28"/>
		<path fill="#2F499F" d="M383.41,152.28c-2.84,1.054-6.363,2.852-8.547,4.755l1.72-4.755l-1.72-4.755
			C377.047,149.429,380.57,151.227,383.41,152.28z"/>
		<path fill="#2F499F" d="M43.339,152.28c2.84-1.054,6.363-2.852,8.547-4.755l-1.72,4.755l1.72,4.755
			C49.702,155.132,46.179,153.333,43.339,152.28z"/>
	</g>
	<g>
		<line fill="none" stroke="#2F499F" stroke-width="0.5" x1="49.374" y1="152.28" x2="377.375" y2="152.28"/>
		<path fill="#2F499F" d="M380.393,152.28c-1.42,0.527-3.182,1.426-4.273,2.377l0.86-2.377l-0.86-2.377
			C377.211,150.854,378.973,151.754,380.393,152.28z"/>
		<path fill="#2F499F" d="M46.356,152.28c1.42-0.527,3.182-1.426,4.273-2.377l-0.86,2.377l0.86,2.377
			C49.538,153.706,47.776,152.807,46.356,152.28z"/>
	</g>
</g>
<path fill="#2F499F" stroke="#2F499F" stroke-width="0.5" d="M193.256,146.947h-1.23v-7.841c-0.296,0.282-0.685,0.565-1.166,0.848
	s-0.913,0.494-1.295,0.636V139.4c0.688-0.323,1.29-0.716,1.805-1.176s0.879-0.907,1.094-1.34h0.793V146.947z"/>
<path fill="#2F499F" stroke="#2F499F" stroke-width="0.5" d="M196.414,144.302l1.23-0.164c0.141,0.697,0.382,1.2,0.721,1.507
	c0.339,0.309,0.753,0.462,1.241,0.462c0.579,0,1.067-0.2,1.466-0.602s0.598-0.897,0.598-1.49c0-0.565-0.185-1.031-0.554-1.397
	c-0.369-0.367-0.838-0.551-1.408-0.551c-0.232,0-0.522,0.046-0.868,0.137l0.137-1.08c0.082,0.009,0.148,0.014,0.198,0.014
	c0.524,0,0.996-0.137,1.415-0.41s0.629-0.695,0.629-1.265c0-0.451-0.153-0.825-0.458-1.121s-0.7-0.444-1.183-0.444
	c-0.479,0-0.877,0.15-1.196,0.451s-0.524,0.752-0.615,1.354l-1.23-0.219c0.15-0.825,0.492-1.464,1.025-1.918
	c0.533-0.453,1.196-0.68,1.989-0.68c0.547,0,1.05,0.117,1.511,0.352c0.46,0.235,0.813,0.556,1.056,0.961s0.366,0.836,0.366,1.292
	c0,0.433-0.116,0.827-0.349,1.183s-0.577,0.638-1.032,0.848c0.592,0.137,1.053,0.42,1.381,0.852c0.328,0.43,0.492,0.969,0.492,1.616
	c0,0.875-0.319,1.616-0.957,2.226c-0.638,0.607-1.445,0.912-2.42,0.912c-0.879,0-1.61-0.262-2.191-0.786
	S196.496,145.136,196.414,144.302z"/>
<path fill="#2F499F" stroke="#2F499F" stroke-width="0.5" d="M208.425,146.947v-7.26h1.101v1.019
	c0.228-0.355,0.531-0.642,0.909-0.858c0.378-0.216,0.809-0.324,1.292-0.324c0.538,0,0.979,0.111,1.323,0.335
	s0.587,0.535,0.728,0.937c0.574-0.848,1.322-1.271,2.242-1.271c0.72,0,1.274,0.199,1.661,0.598c0.387,0.399,0.581,1.014,0.581,1.843
	v4.983h-1.224v-4.573c0-0.492-0.04-0.847-0.12-1.063c-0.08-0.216-0.225-0.391-0.434-0.522s-0.456-0.198-0.738-0.198
	c-0.51,0-0.934,0.17-1.271,0.51c-0.337,0.339-0.506,0.883-0.506,1.63v4.218h-1.23v-4.717c0-0.547-0.1-0.957-0.301-1.23
	s-0.529-0.41-0.984-0.41c-0.346,0-0.667,0.091-0.96,0.273s-0.507,0.449-0.639,0.8s-0.198,0.856-0.198,1.518v3.767H208.425z"/>
<g>
	<g>
		<g>
			<path fill="#2D419A" d="M5.66,82V66.848H0V64.82h13.617v2.027H7.934V82H5.66z"/>
		</g>
		<g>
			<path fill="#2D419A" d="M23.039,82H20.93V68.559c-0.508,0.484-1.174,0.969-1.998,1.453s-1.564,0.848-2.221,1.09v-2.039
				c1.18-0.555,2.211-1.227,3.094-2.016s1.508-1.555,1.875-2.297h1.359V82z"/>
		</g>
	</g>
</g>
<line fill="#01579F" stroke="#2F499F" stroke-width="0.5" x1="43.438" y1="0" x2="43.438" y2="170"/>
</svg>
